<svg width="321" height="513" viewBox="0 0 321 513" fill="none" xmlns="http://www.w3.org/2000/svg">
<g clip-path="url(#clip0_104_3106)">
<path d="M0.5 192.5C0.5 104.1 72.1 32.5 160.5 32.5C248.9 32.5 320.5 104.1 320.5 192.5V320.5C320.5 408.9 248.9 480.5 160.5 480.5C72.1 480.5 0.5 408.9 0.5 320.5V192.5ZM160.5 96.5C107.5 96.5 64.5 139.5 64.5 192.5V320.5C64.5 373.5 107.5 416.5 160.5 416.5C213.5 416.5 256.5 373.5 256.5 320.5V192.5C256.5 139.5 213.5 96.5 160.5 96.5Z" fill="#47535F"/>
</g>
<defs>
<clipPath id="clip0_104_3106">
<rect width="320" height="512" fill="white" transform="translate(0.5 0.5)"/>
</clipPath>
</defs>
</svg>
