<svg width="257" height="513" viewBox="0 0 257 513" fill="none" xmlns="http://www.w3.org/2000/svg">
<g clip-path="url(#clip0_104_3108)">
<path d="M160.5 64.5005C160.5 52.7005 154 41.9005 143.6 36.3005C133.2 30.7005 120.6 31.3005 110.8 37.9005L14.8 101.9C0 111.7 -3.9 131.5 5.9 146.3C15.7 161.1 35.6 165 50.3 155.2L96.5 124.3V416.5H32.5C14.8 416.5 0.5 430.8 0.5 448.5C0.5 466.2 14.8 480.5 32.5 480.5H128.5H224.5C242.2 480.5 256.5 466.2 256.5 448.5C256.5 430.8 242.2 416.5 224.5 416.5H160.5V64.5005Z" fill="#47535F"/>
</g>
<defs>
<clipPath id="clip0_104_3108">
<rect width="256" height="512" fill="white" transform="translate(0.5 0.5)"/>
</clipPath>
</defs>
</svg>
