<svg width="321" height="513" viewBox="0 0 321 513" fill="none" xmlns="http://www.w3.org/2000/svg">
<g clip-path="url(#clip0_104_330)">
<path d="M143.4 96.5C121.9 96.5 101.2 105 85.9998 120.3L55.0998 151.1C42.5998 163.6 22.2998 163.6 9.7998 151.1C-2.7002 138.6 -2.7002 118.3 9.7998 105.8L40.6998 75C67.9998 47.8 104.9 32.5 143.4 32.5C223.5 32.5 288.5 97.5 288.5 177.6C288.5 216.1 273.2 253 246 280.2L109.8 416.5H288.5C306.2 416.5 320.5 430.8 320.5 448.5C320.5 466.2 306.2 480.5 288.5 480.5H32.4998C19.5998 480.5 7.8998 472.7 2.8998 460.7C-2.1002 448.7 0.699804 435 9.7998 425.8L200.7 235C215.9 219.8 224.5 199.1 224.5 177.6C224.5 132.8 188.2 96.5 143.4 96.5Z" fill="#47535F"/>
</g>
<defs>
<clipPath id="clip0_104_330">
<rect width="320" height="512" fill="white" transform="translate(0.5 0.5)"/>
</clipPath>
</defs>
</svg>
