<svg width="321" height="513" viewBox="0 0 321 513" fill="none" xmlns="http://www.w3.org/2000/svg">
<g clip-path="url(#clip0_104_332)">
<path d="M0.5 64.5C0.5 46.8 14.8 32.5 32.5 32.5H272.5C285.7 32.5 297.5 40.6 302.3 52.9C307.1 65.2 303.8 79.2 294.1 88.1L162.8 208.5H184.5C259.6 208.5 320.5 269.4 320.5 344.5C320.5 419.6 259.6 480.5 184.5 480.5H105.9C63.5 480.5 24.7 456.5 5.8 418.6L3.9 414.8C-4 399 2.4 379.8 18.2 371.9C34 364 53.2 370.4 61.1 386.2L63 390C71.1 406.3 87.8 416.5 105.9 416.5H184.5C224.3 416.5 256.5 384.3 256.5 344.5C256.5 304.7 224.3 272.5 184.5 272.5H80.5C67.3 272.5 55.5 264.4 50.7 252.1C45.9 239.8 49.2 225.8 58.9 216.9L190.2 96.5H32.5C14.8 96.5 0.5 82.2 0.5 64.5Z" fill="#47535F"/>
</g>
<defs>
<clipPath id="clip0_104_332">
<rect width="320" height="512" fill="white" transform="translate(0.5 0.5)"/>
</clipPath>
</defs>
</svg>
