<svg width="385" height="513" viewBox="0 0 385 513" fill="none" xmlns="http://www.w3.org/2000/svg">
<g clip-path="url(#clip0_104_334)">
<path d="M189.5 78.1004C197 62.1004 190.2 43.0004 174.2 35.5004C158.2 28.0004 139.1 34.8004 131.6 50.8004L3.49997 322.9C-1.20003 332.8 -0.400033 344.4 5.39997 353.7C11.2 363 21.5 368.5 32.5 368.5H256.5V448.5C256.5 466.2 270.8 480.5 288.5 480.5C306.2 480.5 320.5 466.2 320.5 448.5V368.5H352.5C370.2 368.5 384.5 354.2 384.5 336.5C384.5 318.8 370.2 304.5 352.5 304.5H320.5V160.5C320.5 142.8 306.2 128.5 288.5 128.5C270.8 128.5 256.5 142.8 256.5 160.5V304.5H82.9L189.5 78.1004Z" fill="#47535F"/>
</g>
<defs>
<clipPath id="clip0_104_334">
<rect width="384" height="512" fill="white" transform="translate(0.5 0.5)"/>
</clipPath>
</defs>
</svg>
