<svg width="321" height="513" viewBox="0 0 321 513" fill="none" xmlns="http://www.w3.org/2000/svg">
<g clip-path="url(#clip0_104_336)">
<path d="M32.9999 58.8C35.7999 43.6 48.9999 32.5 64.4999 32.5H256.5C274.2 32.5 288.5 46.8 288.5 64.5C288.5 82.2 274.2 96.5 256.5 96.5H91.1999L70.7999 208.5H184.5C259.6 208.5 320.5 269.4 320.5 344.5C320.5 419.6 259.6 480.5 184.5 480.5H101C61.5999 480.5 25.5999 458.2 7.99992 423L3.89992 414.8C-4.00008 399 2.39992 379.8 18.1999 371.9C33.9999 364 53.1999 370.4 61.0999 386.2L65.1999 394.4C71.9999 408 85.7999 416.5 101 416.5H184.5C224.3 416.5 256.5 384.3 256.5 344.5C256.5 304.7 224.3 272.5 184.5 272.5H32.4999C22.9999 272.5 13.9999 268.3 7.89992 261C1.79992 253.7 -0.700084 244.1 0.999916 234.8L32.9999 58.8Z" fill="#47535F"/>
</g>
<defs>
<clipPath id="clip0_104_336">
<rect width="320" height="512" fill="white" transform="translate(0.5 0.5)"/>
</clipPath>
</defs>
</svg>
