<svg width="321" height="513" viewBox="0 0 321 513" fill="none" xmlns="http://www.w3.org/2000/svg">
<g clip-path="url(#clip0_104_338)">
<path d="M232.9 85.2C244.3 71.7 242.6 51.5 229.1 40.1C215.6 28.7 195.4 30.4 184 43.9L39.1 215.2C15.2 243.4 1.6 278.9 0.6 315.7C0.6 317.1 0.5 318.6 0.5 320C0.5 320.2 0.5 320.3 0.5 320.5C0.5 408.9 72.1 480.5 160.5 480.5C248.9 480.5 320.5 408.9 320.5 320.5C320.5 235 253.4 165.1 169 160.7L232.9 85.1V85.2ZM256.5 320.5C256.5 345.961 246.386 370.379 228.382 388.382C210.379 406.386 185.961 416.5 160.5 416.5C135.039 416.5 110.621 406.386 92.6178 388.382C74.6143 370.379 64.5 345.961 64.5 320.5C64.5 295.039 74.6143 270.621 92.6178 252.618C110.621 234.614 135.039 224.5 160.5 224.5C185.961 224.5 210.379 234.614 228.382 252.618C246.386 270.621 256.5 295.039 256.5 320.5Z" fill="#47535F"/>
</g>
<defs>
<clipPath id="clip0_104_338">
<rect width="320" height="512" fill="white" transform="translate(0.5 0.5)"/>
</clipPath>
</defs>
</svg>
