<svg width="321" height="513" viewBox="0 0 321 513" fill="none" xmlns="http://www.w3.org/2000/svg">
<g clip-path="url(#clip0_104_342)">
<path d="M304.5 160.5C304.5 89.8 247.2 32.5 176.5 32.5H144.5C73.8 32.5 16.5 89.8 16.5 160.5C16.5 195.1 30.2 226.5 52.5 249.5C21 272.8 0.5 310.3 0.5 352.5C0.5 423.2 57.8 480.5 128.5 480.5H192.5C263.2 480.5 320.5 423.2 320.5 352.5C320.5 310.3 300 272.8 268.5 249.5C290.8 226.5 304.5 195.1 304.5 160.5ZM176.6 288.5H192.5C227.8 288.5 256.5 317.2 256.5 352.5C256.5 387.8 227.8 416.5 192.5 416.5H128.5C93.2 416.5 64.5 387.8 64.5 352.5C64.5 317.2 93.2 288.5 128.5 288.5H144.4H144.5H176.5H176.6ZM176.6 224.5H144.5C109.2 224.5 80.5 195.8 80.5 160.5C80.5 125.2 109.2 96.5 144.5 96.5H176.5C211.8 96.5 240.5 125.2 240.5 160.5C240.5 195.8 211.9 224.5 176.5 224.5H176.6Z" fill="#47535F"/>
</g>
<defs>
<clipPath id="clip0_104_342">
<rect width="320" height="512" fill="white" transform="translate(0.5 0.5)"/>
</clipPath>
</defs>
</svg>
