<svg width="321" height="513" viewBox="0 0 321 513" fill="none" xmlns="http://www.w3.org/2000/svg">
<g clip-path="url(#clip0_104_344)">
<path d="M64.5 192.5C64.5 217.961 74.6143 242.379 92.6178 260.382C110.621 278.386 135.039 288.5 160.5 288.5C185.961 288.5 210.379 278.386 228.382 260.382C246.386 242.379 256.5 217.961 256.5 192.5C256.5 167.039 246.386 142.621 228.382 124.618C210.379 106.614 185.961 96.5 160.5 96.5C135.039 96.5 110.621 106.614 92.6178 124.618C74.6143 142.621 64.5 167.039 64.5 192.5ZM152 352.3C67.6 347.9 0.5 278 0.5 192.5C0.5 104.1 72.1 32.5 160.5 32.5C248.9 32.5 320.5 104.1 320.5 192.5C320.5 195.1 320.4 197.8 320.3 200.4C318.6 236.1 305.1 270.4 281.9 297.8L136.9 469.2C125.5 482.7 105.3 484.4 91.8 473C78.3 461.6 76.6 441.4 88 427.9L151.9 352.3H152Z" fill="#47535F"/>
</g>
<defs>
<clipPath id="clip0_104_344">
<rect width="320" height="512" fill="white" transform="translate(0.5 0.5)"/>
</clipPath>
</defs>
</svg>
