<svg width="385" height="513" viewBox="0 0 385 513" fill="none" xmlns="http://www.w3.org/2000/svg">
<g clip-path="url(#clip0_104_346)">
<path d="M222 52.2C217.1 40.3 205.4 32.5 192.5 32.5C179.6 32.5 167.9 40.3 163 52.2L43 340.2L3 436.2C-3.8 452.5 3.9 471.2 20.2 478C36.5 484.8 55.2 477.1 62 460.8L93.8 384.5H291.2L323 460.8C329.8 477.1 348.5 484.8 364.8 478C381.1 471.2 388.8 452.5 382 436.2L342 340.2L222 52.2ZM264.5 320.5H120.5L192.5 147.7L264.5 320.5Z" fill="#47535F"/>
</g>
<defs>
<clipPath id="clip0_104_346">
<rect width="384" height="512" fill="white" transform="translate(0.5 0.5)"/>
</clipPath>
</defs>
</svg>
