<svg width="577" height="513" viewBox="0 0 577 513" fill="none" xmlns="http://www.w3.org/2000/svg">
<g clip-path="url(#clip0_104_350)">
<path d="M64.5 32.5C29.2 32.5 0.5 61.2 0.5 96.5V416.5C0.5 451.8 29.2 480.5 64.5 480.5H512.5C547.8 480.5 576.5 451.8 576.5 416.5V96.5C576.5 61.2 547.8 32.5 512.5 32.5H64.5ZM144.5 288.5H208.5C252.7 288.5 288.5 324.3 288.5 368.5C288.5 377.3 281.3 384.5 272.5 384.5H80.5C71.7 384.5 64.5 377.3 64.5 368.5C64.5 324.3 100.3 288.5 144.5 288.5ZM112.5 192.5C112.5 175.526 119.243 159.247 131.245 147.245C143.247 135.243 159.526 128.5 176.5 128.5C193.474 128.5 209.753 135.243 221.755 147.245C233.757 159.247 240.5 175.526 240.5 192.5C240.5 209.474 233.757 225.753 221.755 237.755C209.753 249.757 193.474 256.5 176.5 256.5C159.526 256.5 143.247 249.757 131.245 237.755C119.243 225.753 112.5 209.474 112.5 192.5ZM368.5 160.5H496.5C505.3 160.5 512.5 167.7 512.5 176.5C512.5 185.3 505.3 192.5 496.5 192.5H368.5C359.7 192.5 352.5 185.3 352.5 176.5C352.5 167.7 359.7 160.5 368.5 160.5ZM368.5 224.5H496.5C505.3 224.5 512.5 231.7 512.5 240.5C512.5 249.3 505.3 256.5 496.5 256.5H368.5C359.7 256.5 352.5 249.3 352.5 240.5C352.5 231.7 359.7 224.5 368.5 224.5ZM368.5 288.5H496.5C505.3 288.5 512.5 295.7 512.5 304.5C512.5 313.3 505.3 320.5 496.5 320.5H368.5C359.7 320.5 352.5 313.3 352.5 304.5C352.5 295.7 359.7 288.5 368.5 288.5Z" fill="#47535F"/>
</g>
<defs>
<clipPath id="clip0_104_350">
<rect width="576" height="512" fill="white" transform="translate(0.5 0.5)"/>
</clipPath>
</defs>
</svg>
