<svg width="513" height="513" viewBox="0 0 513 513" fill="none" xmlns="http://www.w3.org/2000/svg">
<g clip-path="url(#clip0_104_348)">
<path d="M96.5 0.5C61.2 0.5 32.5 29.2 32.5 64.5V448.5C32.5 483.8 61.2 512.5 96.5 512.5H384.5C419.8 512.5 448.5 483.8 448.5 448.5V64.5C448.5 29.2 419.8 0.5 384.5 0.5H96.5ZM208.5 288.5H272.5C316.7 288.5 352.5 324.3 352.5 368.5C352.5 377.3 345.3 384.5 336.5 384.5H144.5C135.7 384.5 128.5 377.3 128.5 368.5C128.5 324.3 164.3 288.5 208.5 288.5ZM176.5 192.5C176.5 175.526 183.243 159.247 195.245 147.245C207.247 135.243 223.526 128.5 240.5 128.5C257.474 128.5 273.752 135.243 285.755 147.245C297.757 159.247 304.5 175.526 304.5 192.5C304.5 209.474 297.757 225.753 285.755 237.755C273.752 249.757 257.474 256.5 240.5 256.5C223.526 256.5 207.247 249.757 195.245 237.755C183.243 225.753 176.5 209.474 176.5 192.5ZM512.5 80.5C512.5 71.7 505.3 64.5 496.5 64.5C487.7 64.5 480.5 71.7 480.5 80.5V144.5C480.5 153.3 487.7 160.5 496.5 160.5C505.3 160.5 512.5 153.3 512.5 144.5V80.5ZM496.5 192.5C487.7 192.5 480.5 199.7 480.5 208.5V272.5C480.5 281.3 487.7 288.5 496.5 288.5C505.3 288.5 512.5 281.3 512.5 272.5V208.5C512.5 199.7 505.3 192.5 496.5 192.5ZM512.5 336.5C512.5 327.7 505.3 320.5 496.5 320.5C487.7 320.5 480.5 327.7 480.5 336.5V400.5C480.5 409.3 487.7 416.5 496.5 416.5C505.3 416.5 512.5 409.3 512.5 400.5V336.5Z" fill="#47535F"/>
</g>
<defs>
<clipPath id="clip0_104_348">
<rect width="512" height="512" fill="white" transform="translate(0.5 0.5)"/>
</clipPath>
</defs>
</svg>
