<svg width="449" height="513" viewBox="0 0 449 513" fill="none" xmlns="http://www.w3.org/2000/svg">
<g clip-path="url(#clip0_104_352)">
<path d="M352.5 64.5C352.5 46.8 338.2 32.5 320.5 32.5H128.5C110.8 32.5 96.5 46.8 96.5 64.5C96.5 82.2 110.8 96.5 128.5 96.5H320.5C338.2 96.5 352.5 82.2 352.5 64.5ZM448.5 192.5C448.5 174.8 434.2 160.5 416.5 160.5H32.5C14.8 160.5 0.5 174.8 0.5 192.5C0.5 210.2 14.8 224.5 32.5 224.5H416.5C434.2 224.5 448.5 210.2 448.5 192.5ZM0.5 448.5C0.5 466.2 14.8 480.5 32.5 480.5H416.5C434.2 480.5 448.5 466.2 448.5 448.5C448.5 430.8 434.2 416.5 416.5 416.5H32.5C14.8 416.5 0.5 430.8 0.5 448.5ZM352.5 320.5C352.5 302.8 338.2 288.5 320.5 288.5H128.5C110.8 288.5 96.5 302.8 96.5 320.5C96.5 338.2 110.8 352.5 128.5 352.5H320.5C338.2 352.5 352.5 338.2 352.5 320.5Z" fill="#47535F"/>
</g>
<defs>
<clipPath id="clip0_104_352">
<rect width="448" height="512" fill="white" transform="translate(0.5 0.5)"/>
</clipPath>
</defs>
</svg>
