<svg width="449" height="513" viewBox="0 0 449 513" fill="none" xmlns="http://www.w3.org/2000/svg">
<g clip-path="url(#clip0_104_356)">
<path d="M288.5 64.5C288.5 82.2 274.2 96.5 256.5 96.5H32.5C14.8 96.5 0.5 82.2 0.5 64.5C0.5 46.8 14.8 32.5 32.5 32.5H256.5C274.2 32.5 288.5 46.8 288.5 64.5ZM288.5 320.5C288.5 338.2 274.2 352.5 256.5 352.5H32.5C14.8 352.5 0.5 338.2 0.5 320.5C0.5 302.8 14.8 288.5 32.5 288.5H256.5C274.2 288.5 288.5 302.8 288.5 320.5ZM0.5 192.5C0.5 174.8 14.8 160.5 32.5 160.5H416.5C434.2 160.5 448.5 174.8 448.5 192.5C448.5 210.2 434.2 224.5 416.5 224.5H32.5C14.8 224.5 0.5 210.2 0.5 192.5ZM448.5 448.5C448.5 466.2 434.2 480.5 416.5 480.5H32.5C14.8 480.5 0.5 466.2 0.5 448.5C0.5 430.8 14.8 416.5 32.5 416.5H416.5C434.2 416.5 448.5 430.8 448.5 448.5Z" fill="#47535F"/>
</g>
<defs>
<clipPath id="clip0_104_356">
<rect width="448" height="512" fill="white" transform="translate(0.5 0.5)"/>
</clipPath>
</defs>
</svg>
