<svg width="577" height="513" viewBox="0 0 577 513" fill="none" xmlns="http://www.w3.org/2000/svg">
<g clip-path="url(#clip0_104_360)">
<path d="M320.5 96.5C320.5 104.987 317.129 113.126 311.127 119.127C305.126 125.129 296.987 128.5 288.5 128.5C280.013 128.5 271.874 125.129 265.873 119.127C259.871 113.126 256.5 104.987 256.5 96.5C256.5 88.0131 259.871 79.8737 265.873 73.8726C271.874 67.8714 280.013 64.5 288.5 64.5C296.987 64.5 305.126 67.8714 311.127 73.8726C317.129 79.8737 320.5 88.0131 320.5 96.5ZM341.6 176.5C367.5 159.3 384.5 129.9 384.5 96.5C384.5 43.5 341.5 0.5 288.5 0.5C235.5 0.5 192.5 43.5 192.5 96.5C192.5 129.9 209.5 159.3 235.4 176.5H224.5C206.8 176.5 192.5 190.8 192.5 208.5C192.5 226.2 206.8 240.5 224.5 240.5H256.5V448.5H208.5C155.5 448.5 112.5 405.5 112.5 352.5V346.4L119.5 353.4C128.9 362.8 144.1 362.8 153.4 353.4C162.7 344 162.8 328.8 153.4 319.5L97.5 263.5C88.1 254.1 72.8999 254.1 63.5999 263.5L7.49995 319.5C-1.90005 328.9 -1.90005 344.1 7.49995 353.4C16.9 362.7 32.1 362.8 41.4 353.4L48.4 346.4V352.5C48.4 440.9 120 512.5 208.4 512.5H288.4H368.4C456.8 512.5 528.4 440.9 528.4 352.5V346.4L535.4 353.4C544.8 362.8 560 362.8 569.3 353.4C578.6 344 578.7 328.8 569.3 319.5L513.3 263.5C503.9 254.1 488.7 254.1 479.4 263.5L423.4 319.5C414 328.9 414 344.1 423.4 353.4C432.8 362.7 448 362.8 457.3 353.4L464.3 346.4V352.5C464.3 405.5 421.3 448.5 368.3 448.5H320.5V240.5H352.5C370.2 240.5 384.5 226.2 384.5 208.5C384.5 190.8 370.2 176.5 352.5 176.5H341.6Z" fill="#47535F"/>
</g>
<defs>
<clipPath id="clip0_104_360">
<rect width="576" height="512" fill="white" transform="translate(0.5 0.5)"/>
</clipPath>
</defs>
</svg>
