<svg width="641" height="513" viewBox="0 0 641 513" fill="none" xmlns="http://www.w3.org/2000/svg">
<g clip-path="url(#clip0_104_362)">
<path d="M320.5 96.5C320.5 104.987 317.129 113.126 311.128 119.127C305.126 125.129 296.987 128.5 288.5 128.5C280.013 128.5 271.874 125.129 265.873 119.127C259.872 113.126 256.5 104.987 256.5 96.5C256.5 88.0131 259.872 79.8737 265.873 73.8726C271.874 67.8714 280.013 64.5 288.5 64.5C296.987 64.5 305.126 67.8714 311.128 73.8726C317.129 79.8737 320.5 88.0131 320.5 96.5ZM341.6 176.5C367.5 159.3 384.5 129.9 384.5 96.5C384.5 43.5 341.5 0.5 288.5 0.5C235.5 0.5 192.5 43.5 192.5 96.5C192.5 129.9 209.5 159.3 235.4 176.5H224.5C206.8 176.5 192.5 190.8 192.5 208.5C192.5 226.2 206.8 240.5 224.5 240.5H256.5V448.5H208.5C155.5 448.5 112.5 405.5 112.5 352.5V346.4L119.5 353.4C128.9 362.8 144.1 362.8 153.4 353.4C162.7 344 162.8 328.8 153.4 319.5L97.5002 263.5C88.1002 254.1 72.9002 254.1 63.6002 263.5L7.5002 319.5C-1.8998 328.9 -1.8998 344.1 7.5002 353.4C16.9002 362.7 32.1002 362.8 41.4002 353.4L48.4002 346.4V352.5C48.4002 440.9 120 512.5 208.4 512.5H288.4H368.4C376.6 512.5 384.7 511.9 392.6 510.7C370.4 494.5 352.2 473.2 339.6 448.5H320.5V368.5V240.5H352.5C370.2 240.5 384.5 226.2 384.5 208.5C384.5 190.8 370.2 176.5 352.5 176.5H341.6ZM640.5 368.5C640.5 330.309 625.329 293.682 598.324 266.677C571.318 239.671 534.691 224.5 496.5 224.5C458.309 224.5 421.682 239.671 394.677 266.677C367.672 293.682 352.5 330.309 352.5 368.5C352.5 406.691 367.672 443.318 394.677 470.323C421.682 497.329 458.309 512.5 496.5 512.5C534.691 512.5 571.318 497.329 598.324 470.323C625.329 443.318 640.5 406.691 640.5 368.5ZM563.8 325.2C570 331.4 570 341.6 563.8 347.8L491.8 419.8C485.6 426 475.4 426 469.2 419.8L429.2 379.8C423 373.6 423 363.4 429.2 357.2C435.4 351 445.6 351 451.8 357.2L480.5 385.9L541.2 325.2C547.4 319 557.6 319 563.8 325.2Z" fill="#47535F"/>
</g>
<defs>
<clipPath id="clip0_104_362">
<rect width="640" height="512" fill="white" transform="translate(0.5 0.5)"/>
</clipPath>
</defs>
</svg>
