<svg width="513" height="513" viewBox="0 0 513 513" fill="none" xmlns="http://www.w3.org/2000/svg">
<path d="M41.9004 233.9C29.4004 246.4 29.4004 266.7 41.9004 279.2L201.9 439.2C214.4 451.7 234.7 451.7 247.2 439.2C259.7 426.7 259.7 406.4 247.2 393.9L109.8 256.5L247.1 119.1C259.6 106.6 259.6 86.2998 247.1 73.7998C234.6 61.2998 214.3 61.2998 201.8 73.7998L41.8004 233.8L41.9004 233.9ZM393.9 73.8998L233.9 233.9C221.4 246.4 221.4 266.7 233.9 279.2L393.9 439.2C406.4 451.7 426.7 451.7 439.2 439.2C451.7 426.7 451.7 406.4 439.2 393.9L301.8 256.5L439.1 119.1C451.6 106.6 451.6 86.2998 439.1 73.7998C426.6 61.2998 406.3 61.2998 393.8 73.7998L393.9 73.8998Z" fill="#47535F"/>
</svg>
