<svg width="449" height="513" viewBox="0 0 449 513" fill="none" xmlns="http://www.w3.org/2000/svg">
<path d="M247.1 471.1C234.6 483.6 214.3 483.6 201.8 471.1L41.7998 311.1C29.2998 298.6 29.2998 278.3 41.7998 265.8C54.2998 253.3 74.5998 253.3 87.0998 265.8L224.5 403.2L361.9 265.9C374.4 253.4 394.7 253.4 407.2 265.9C419.7 278.4 419.7 298.7 407.2 311.2L247.2 471.2L247.1 471.1ZM407.1 119.1L247.1 279.1C234.6 291.6 214.3 291.6 201.8 279.1L41.7998 119.1C29.2998 106.6 29.2998 86.2998 41.7998 73.7998C54.2998 61.2998 74.5998 61.2998 87.0998 73.7998L224.5 211.2L361.9 73.8998C374.4 61.3998 394.7 61.3998 407.2 73.8998C419.7 86.3998 419.7 106.7 407.2 119.2L407.1 119.1Z" fill="#47535F"/>
</svg>
