<svg width="449" height="513" viewBox="0 0 449 513" fill="none" xmlns="http://www.w3.org/2000/svg">
<path d="M247.1 41.9004C234.6 29.4004 214.3 29.4004 201.8 41.9004L41.7998 201.9C29.2998 214.4 29.2998 234.7 41.7998 247.2C54.2998 259.7 74.5998 259.7 87.0998 247.2L224.5 109.8L361.9 247.1C374.4 259.6 394.7 259.6 407.2 247.1C419.7 234.6 419.7 214.3 407.2 201.8L247.2 41.8004L247.1 41.9004ZM407.1 393.9L247.1 233.9C234.6 221.4 214.3 221.4 201.8 233.9L41.7998 393.9C29.2998 406.4 29.2998 426.7 41.7998 439.2C54.2998 451.7 74.5998 451.7 87.0998 439.2L224.5 301.8L361.9 439.1C374.4 451.6 394.7 451.6 407.2 439.1C419.7 426.6 419.7 406.3 407.2 393.8L407.1 393.9Z" fill="#47535F"/>
</svg>
