<svg width="513" height="513" viewBox="0 0 513 513" fill="none" xmlns="http://www.w3.org/2000/svg">
<path d="M471.1 279.1C483.6 266.6 483.6 246.3 471.1 233.8L311.1 73.7998C298.6 61.2998 278.3 61.2998 265.8 73.7998C253.3 86.2998 253.3 106.6 265.8 119.1L403.2 256.5L265.9 393.9C253.4 406.4 253.4 426.7 265.9 439.2C278.4 451.7 298.7 451.7 311.2 439.2L471.2 279.2L471.1 279.1ZM119.1 439.1L279.1 279.1C291.6 266.6 291.6 246.3 279.1 233.8L119.1 73.7998C106.6 61.2998 86.2998 61.2998 73.7998 73.7998C61.2998 86.2998 61.2998 106.6 73.7998 119.1L211.2 256.5L73.8998 393.9C61.3998 406.4 61.3998 426.7 73.8998 439.2C86.3998 451.7 106.7 451.7 119.2 439.2L119.1 439.1Z" fill="#47535F"/>
</svg>
