<svg width="321" height="513" viewBox="0 0 321 513" fill="none" xmlns="http://www.w3.org/2000/svg">
<g clip-path="url(#clip0_104_522)">
<path d="M96.5 128.5C96.5 93.2 125.2 64.5 160.5 64.5C195.8 64.5 224.5 93.2 224.5 128.5C224.5 170.1 203.8 205.1 177.9 232.6C172 238.8 166.1 244.4 160.5 249.3C154.9 244.4 149 238.8 143.1 232.6C117.2 205.1 96.5 170.1 96.5 128.5ZM160.5 0.5C89.8 0.5 32.5 57.8 32.5 128.5C32.5 180.9 54 224 79.3 256.5H32.5C14.8 256.5 0.5 270.8 0.5 288.5C0.5 306.2 14.8 320.5 32.5 320.5H128.5V480.5C128.5 498.2 142.8 512.5 160.5 512.5C178.2 512.5 192.5 498.2 192.5 480.5V320.5H288.5C306.2 320.5 320.5 306.2 320.5 288.5C320.5 270.8 306.2 256.5 288.5 256.5H241.7C267.1 224 288.5 180.9 288.5 128.5C288.5 57.8 231.2 0.5 160.5 0.5Z" fill="#47535F"/>
</g>
<defs>
<clipPath id="clip0_104_522">
<rect width="320" height="512" fill="white" transform="translate(0.5 0.5)"/>
</clipPath>
</defs>
</svg>
