<svg width="449" height="513" viewBox="0 0 449 513" fill="none" xmlns="http://www.w3.org/2000/svg">
<g clip-path="url(#clip0_104_460)">
<path d="M224.5 112.5C215.7 112.5 208.5 105.3 208.5 96.5V80.5C208.5 36.3 244.3 0.5 288.5 0.5H304.5C313.3 0.5 320.5 7.7 320.5 16.5V32.5C320.5 76.7 284.7 112.5 240.5 112.5H224.5ZM0.5 288.5C0.5 212.2 36.2 128.5 112.5 128.5C139.8 128.5 172.2 138.8 195.2 147.8C214 155.1 235.1 155.1 253.9 147.8C276.8 138.9 309.3 128.5 336.6 128.5C412.9 128.5 448.6 212.2 448.6 288.5C448.6 416.5 368.6 512.5 288.6 512.5C272.1 512.5 250.5 505.9 237.1 501.2C229 498.4 220.2 498.4 212.1 501.2C198.7 505.9 177.1 512.5 160.6 512.5C80.5 512.5 0.5 416.5 0.5 288.5Z" fill="#47535F"/>
</g>
<defs>
<clipPath id="clip0_104_460">
<rect width="448" height="512" fill="white" transform="translate(0.5 0.5)"/>
</clipPath>
</defs>
</svg>
