<svg width="513" height="513" viewBox="0 0 513 513" fill="none" xmlns="http://www.w3.org/2000/svg">
<g clip-path="url(#clip0_104_386)">
<path d="M32.5 32.5C14.8 32.5 0.5 46.8 0.5 64.5C0.5 82.2 14.8 96.5 32.5 96.5H480.5C498.2 96.5 512.5 82.2 512.5 64.5C512.5 46.8 498.2 32.5 480.5 32.5H32.5ZM32.5 416.5C14.8 416.5 0.5 430.8 0.5 448.5C0.5 466.2 14.8 480.5 32.5 480.5H96.5H160.5V352.5C160.5 299.5 203.5 256.5 256.5 256.5C309.5 256.5 352.5 299.5 352.5 352.5V480.5H416.5H480.5C498.2 480.5 512.5 466.2 512.5 448.5C512.5 430.8 498.2 416.5 480.5 416.5V128.5H32.5V416.5Z" fill="#47535F"/>
</g>
<defs>
<clipPath id="clip0_104_386">
<rect width="512" height="512" fill="white" transform="translate(0.5 0.5)"/>
</clipPath>
</defs>
</svg>
