<svg width="449" height="513" viewBox="0 0 449 513" fill="none" xmlns="http://www.w3.org/2000/svg">
<g clip-path="url(#clip0_104_412)">
<path d="M439.1 151.1C451.6 138.6 451.6 118.3 439.1 105.8L343.1 9.7998C330.6 -2.7002 310.3 -2.7002 297.8 9.7998C285.3 22.2998 285.3 42.5998 297.8 55.0998L339.2 96.4998H32.5C14.8 96.4998 0.5 110.8 0.5 128.5C0.5 146.2 14.8 160.5 32.5 160.5H339.2L297.8 201.9C285.3 214.4 285.3 234.7 297.8 247.2C310.3 259.7 330.6 259.7 343.1 247.2L439.1 151.2V151.1ZM105.8 503.1C118.3 515.6 138.6 515.6 151.1 503.1C163.6 490.6 163.6 470.3 151.1 457.8L109.8 416.5H416.5C434.2 416.5 448.5 402.2 448.5 384.5C448.5 366.8 434.2 352.5 416.5 352.5H109.8L151.2 311.1C163.7 298.6 163.7 278.3 151.2 265.8C138.7 253.3 118.4 253.3 105.9 265.8L9.9 361.8C-2.6 374.3 -2.6 394.6 9.9 407.1L105.9 503.1H105.8Z" fill="#47535F"/>
</g>
<defs>
<clipPath id="clip0_104_412">
<rect width="448" height="512" fill="white" transform="translate(0.5 0.5)"/>
</clipPath>
</defs>
</svg>
