<svg width="577" height="513" viewBox="0 0 577 513" fill="none" xmlns="http://www.w3.org/2000/svg">
<path d="M160.5 480.5C169.5 480.5 178 476.7 184.1 470.1L272.1 374.1C284 361.1 283.2 340.8 270.1 328.9C257 317 236.8 317.8 224.9 330.9L192.5 366.2V64.5C192.5 46.8 178.2 32.5 160.5 32.5C142.8 32.5 128.5 46.8 128.5 64.5V366.2L96.1004 330.9C84.2004 317.9 63.9004 317 50.9004 328.9C37.9004 340.8 37.0004 361.1 48.9004 374.1L136.9 470.1C143 476.7 151.5 480.5 160.5 480.5ZM451.2 294.5C442.9 288.5 432.1 286.8 422.4 290.1L374.4 306.1C357.6 311.7 348.6 329.8 354.2 346.6C359.8 363.4 377.9 372.4 394.7 366.8L400.6 364.8V416.5H384.5C366.8 416.5 352.5 430.8 352.5 448.5C352.5 466.2 366.8 480.5 384.5 480.5H432.5H480.5C498.2 480.5 512.5 466.2 512.5 448.5C512.5 430.8 498.2 416.5 480.5 416.5H464.5V320.5C464.5 310.2 459.6 300.6 451.2 294.5ZM418.8 91.5C426.478 87.8665 435.285 87.432 443.284 90.2919C451.282 93.1518 457.817 99.072 461.45 106.75C465.084 114.428 465.518 123.235 462.659 131.233C459.799 139.232 453.878 145.767 446.2 149.4C438.522 153.033 429.715 153.468 421.717 150.608C413.719 147.748 407.184 141.828 403.55 134.15C399.917 126.472 399.482 117.665 402.342 109.667C405.202 101.668 411.122 95.1335 418.8 91.5ZM405.6 204.3L398.8 213.5C388.3 227.7 391.3 247.7 405.5 258.3C419.7 268.9 439.7 265.8 450.3 251.6L499.1 185.8C513.1 166.9 520.6 144.1 520.6 120.6C520.6 72 481.2 32.6 432.6 32.6C384 32.6 344.6 72 344.6 120.6C344.6 159.8 370.2 193 405.7 204.4L405.6 204.3Z" fill="#47535F"/>
</svg>
