<svg width="641" height="513" viewBox="0 0 641 513" fill="none" xmlns="http://www.w3.org/2000/svg">
<g clip-path="url(#clip0_104_404)">
<path d="M151.101 503.1L247.101 407.1C259.601 394.6 259.601 374.3 247.101 361.8C234.601 349.3 214.301 349.3 201.801 361.8L160.501 403.2V288.5H416.501V272.5C416.501 255.3 420.401 239 427.301 224.5H352.501V109.8L393.901 151.2C406.401 163.7 426.701 163.7 439.201 151.2C451.701 138.7 451.701 118.4 439.201 105.9L343.201 9.9C337.201 3.9 329.101 0.5 320.601 0.5C312.101 0.5 304.001 3.9 298.001 9.9L202.001 105.9C189.501 118.4 189.501 138.7 202.001 151.2C214.501 163.7 234.801 163.7 247.301 151.2L288.501 109.8V224.5H160.501H96.5008H32.5008C14.8008 224.5 0.500781 238.8 0.500781 256.5C0.500781 274.2 14.8008 288.5 32.5008 288.5H96.5008V403.2L55.1008 361.9C42.6008 349.4 22.3008 349.4 9.80078 361.9C-2.69922 374.4 -2.69922 394.7 9.80078 407.2L105.801 503.2C118.301 515.7 138.601 515.7 151.101 503.2V503.1ZM160.501 192.5V64.5C160.501 46.8 146.201 32.5 128.501 32.5C110.801 32.5 96.5008 46.8 96.5008 64.5V192.5H160.501ZM288.501 320.5V448.5C288.501 466.2 302.801 480.5 320.501 480.5C338.201 480.5 352.501 466.2 352.501 448.5V320.5H288.501ZM528.501 240.5C546.201 240.5 560.501 254.8 560.501 272.5V320.5H496.501V272.5C496.501 254.8 510.801 240.5 528.501 240.5ZM448.501 272.5V320.5C430.801 320.5 416.501 334.8 416.501 352.5V480.5C416.501 498.2 430.801 512.5 448.501 512.5H608.501C626.201 512.5 640.501 498.2 640.501 480.5V352.5C640.501 334.8 626.201 320.5 608.501 320.5V272.5C608.501 228.3 572.701 192.5 528.501 192.5C484.301 192.5 448.501 228.3 448.501 272.5Z" fill="#47535F"/>
</g>
<defs>
<clipPath id="clip0_104_404">
<rect width="640" height="512" fill="white" transform="translate(0.5 0.5)"/>
</clipPath>
</defs>
</svg>
