<svg width="513" height="513" viewBox="0 0 513 513" fill="none" xmlns="http://www.w3.org/2000/svg">
<path d="M386.8 160.5H336.5C318.8 160.5 304.5 174.8 304.5 192.5C304.5 210.2 318.8 224.5 336.5 224.5H464.5C482.2 224.5 496.5 210.2 496.5 192.5V64.4996C496.5 46.7996 482.2 32.4996 464.5 32.4996C446.8 32.4996 432.5 46.7996 432.5 64.4996V115.7L414.9 98.0996C327.4 10.5996 185.6 10.5996 98.0996 98.0996C10.5996 185.6 10.5996 327.4 98.0996 414.9C185.6 502.4 327.4 502.4 414.9 414.9C427.4 402.4 427.4 382.1 414.9 369.6C402.4 357.1 382.1 357.1 369.6 369.6C307.1 432.1 205.8 432.1 143.3 369.6C80.7996 307.1 80.7996 205.8 143.3 143.3C205.8 80.7996 307.1 80.7996 369.6 143.3L386.8 160.5Z" fill="#47535F"/>
</svg>
