<svg width="321" height="513" viewBox="0 0 321 513" fill="none" xmlns="http://www.w3.org/2000/svg">
<g clip-path="url(#clip0_104_410)">
<path d="M0.5 55.7V426.5C0.5 438.7 10.4 448.5 22.5 448.5C28.8 448.5 34.9 445.8 39.1 441L121.7 346.5L179.8 462.8C187.7 478.6 206.9 485 222.7 477.1C238.5 469.2 244.9 450 237 434.2L180.3 320.5H298.4C310.6 320.5 320.5 310.6 320.5 298.4C320.5 292.1 317.8 286.1 313.1 281.9L39.1 38.4C34.8 34.6 29.4 32.5 23.7 32.5C10.9 32.5 0.5 42.9 0.5 55.7Z" fill="#47535F"/>
</g>
<defs>
<clipPath id="clip0_104_410">
<rect width="320" height="512" fill="white" transform="translate(0.5 0.5)"/>
</clipPath>
</defs>
</svg>
