<svg width="641" height="513" viewBox="0 0 641 513" fill="none" xmlns="http://www.w3.org/2000/svg">
<g clip-path="url(#clip0_104_510)">
<path d="M144.501 0.5C131.201 0.5 120.501 11.2 120.501 24.5V142.6L97.5009 119.5C88.1009 110.1 72.9009 110.1 63.6009 119.5C54.3009 128.9 54.2009 144.1 63.6009 153.4L127.601 217.4C137.001 226.8 152.201 226.8 161.501 217.4L225.501 153.4C234.901 144 234.901 128.8 225.501 119.5C216.101 110.2 200.901 110.1 191.601 119.5L168.601 142.5V24.5C168.601 11.2 157.901 0.5 144.601 0.5H144.501ZM360.501 200.5C360.501 189.891 356.287 179.717 348.785 172.216C341.284 164.714 331.11 160.5 320.501 160.5C309.892 160.5 299.718 164.714 292.217 172.216C284.715 179.717 280.501 189.891 280.501 200.5C280.501 211.109 284.715 221.283 292.217 228.784C299.718 236.286 309.892 240.5 320.501 240.5C331.11 240.5 341.284 236.286 348.785 228.784C356.287 221.283 360.501 211.109 360.501 200.5ZM184.501 296.5C184.501 285.891 180.287 275.717 172.785 268.216C165.284 260.714 155.11 256.5 144.501 256.5C133.892 256.5 123.718 260.714 116.217 268.216C108.715 275.717 104.501 285.891 104.501 296.5C104.501 307.109 108.715 317.283 116.217 324.784C123.718 332.286 133.892 336.5 144.501 336.5C155.11 336.5 165.284 332.286 172.785 324.784C180.287 317.283 184.501 307.109 184.501 296.5ZM496.501 336.5C507.11 336.5 517.284 332.286 524.785 324.784C532.287 317.283 536.501 307.109 536.501 296.5C536.501 285.891 532.287 275.717 524.785 268.216C517.284 260.714 507.11 256.5 496.501 256.5C485.892 256.5 475.718 260.714 468.217 268.216C460.715 275.717 456.501 285.891 456.501 296.5C456.501 307.109 460.715 317.283 468.217 324.784C475.718 332.286 485.892 336.5 496.501 336.5ZM200.501 442L227.401 491.9C233.701 503.6 248.201 507.9 259.901 501.7C271.601 495.5 275.901 480.9 269.701 469.2L233.401 401.7C235.101 400 236.601 398.1 237.701 395.9L264.501 346V400.5C264.501 418.2 278.801 432.5 296.501 432.5H344.501C362.201 432.5 376.501 418.2 376.501 400.5V346L403.401 395.9C404.601 398.1 406.001 400 407.701 401.7L371.401 469.2C365.101 480.9 369.501 495.4 381.201 501.7C392.901 508 407.401 503.6 413.701 491.9L440.501 442V480.5C440.501 498.2 454.801 512.5 472.501 512.5H520.501C538.201 512.5 552.501 498.2 552.501 480.5V442L579.401 491.9C585.701 503.6 600.201 507.9 611.901 501.7C623.601 495.5 627.901 480.9 621.701 469.2L583.801 398.9C568.501 370.4 538.701 352.6 506.301 352.6H486.701C470.401 352.6 454.801 357.1 441.301 365.2L407.701 302.9C392.401 274.4 362.601 256.6 330.201 256.6H310.701C278.301 256.6 248.601 274.4 233.201 302.9L199.601 365.2C186.101 357.1 170.501 352.6 154.201 352.6H134.701C102.301 352.6 72.6009 370.4 57.2009 398.9L19.4009 469.1C13.1009 480.8 17.5009 495.3 29.2009 501.6C40.9009 507.9 55.4009 503.5 61.7009 491.8L88.5009 442V480.5C88.5009 498.2 102.801 512.5 120.501 512.5H168.501C186.201 512.5 200.501 498.2 200.501 480.5V442ZM415.501 153.5L479.501 217.5C488.901 226.9 504.101 226.9 513.401 217.5L577.401 153.5C586.801 144.1 586.801 128.9 577.401 119.6C568.001 110.3 552.801 110.2 543.501 119.6L520.501 142.6V24.5C520.501 11.2 509.801 0.5 496.501 0.5C483.201 0.5 472.501 11.2 472.501 24.5V142.6L449.501 119.6C440.101 110.2 424.901 110.2 415.601 119.6C406.301 129 406.201 144.2 415.601 153.5H415.501Z" fill="#47535F"/>
</g>
<defs>
<clipPath id="clip0_104_510">
<rect width="640" height="512" fill="white" transform="translate(0.5 0.5)"/>
</clipPath>
</defs>
</svg>
