<svg width="385" height="513" viewBox="0 0 385 513" fill="none" xmlns="http://www.w3.org/2000/svg">
<g clip-path="url(#clip0_104_388)">
<path d="M169.9 471.1C182.4 483.6 202.7 483.6 215.2 471.1L375.2 311.1C387.7 298.6 387.7 278.3 375.2 265.8C362.7 253.3 342.4 253.3 329.9 265.8L224.5 371.3V64.5C224.5 46.8 210.2 32.5 192.5 32.5C174.8 32.5 160.5 46.8 160.5 64.5V371.2L55.0998 265.9C42.5998 253.4 22.2998 253.4 9.7998 265.9C-2.7002 278.4 -2.7002 298.7 9.7998 311.2L169.8 471.2L169.9 471.1Z" fill="#47535F"/>
</g>
<defs>
<clipPath id="clip0_104_388">
<rect width="384" height="512" fill="white" transform="translate(0.5 0.5)"/>
</clipPath>
</defs>
</svg>
