<svg width="577" height="513" viewBox="0 0 577 513" fill="none" xmlns="http://www.w3.org/2000/svg">
<path d="M184.1 42.9C178 36.3 169.5 32.5 160.5 32.5C151.5 32.5 143 36.3 136.9 42.9L48.9005 138.9C37.0005 151.9 37.8005 172.2 50.9005 184.1C64.0005 196 84.2005 195.2 96.1005 182.1L128.5 146.8V448.5C128.5 466.2 142.8 480.5 160.5 480.5C178.2 480.5 192.5 466.2 192.5 448.5V146.8L224.9 182.2C236.8 195.2 257.1 196.1 270.1 184.2C283.1 172.3 284 152 272.1 139L184.1 43V42.9ZM320.5 64.5C320.5 82.2 334.8 96.5 352.5 96.5H403.201L329.8 169.9C320.6 179.1 317.9 192.8 322.9 204.8C327.9 216.8 339.5 224.6 352.5 224.6H480.5C498.2 224.6 512.5 210.3 512.5 192.6C512.5 174.9 498.2 160.6 480.5 160.6H429.8L503.201 87.2C512.401 78 515.1 64.3 510.1 52.3C505.1 40.3 493.5 32.5 480.5 32.5H352.5C334.8 32.5 320.5 46.8 320.5 64.5ZM416.5 256.5C404.4 256.5 393.3 263.3 387.9 274.2L323.9 402.2L307.9 434.2C300 450 306.401 469.2 322.201 477.1C338.001 485 357.2 478.6 365.1 462.8L372.3 448.5H460.701L467.9 462.8C475.8 478.6 495 485 510.8 477.1C526.6 469.2 533 450 525.1 434.2L509.1 402.2L445.1 274.2C439.7 263.3 428.6 256.5 416.5 256.5ZM396.3 400.5L416.5 360.1L436.701 400.5H396.3Z" fill="#47535F"/>
</svg>
