<svg width="577" height="513" viewBox="0 0 577 513" fill="none" xmlns="http://www.w3.org/2000/svg">
<path d="M184.1 470.1C178 476.7 169.5 480.5 160.5 480.5C151.5 480.5 143 476.7 136.9 470.1L48.9005 374.1C37.0005 361.1 37.8005 340.8 50.9005 328.9C64.0005 317 84.2005 317.8 96.1005 330.9L128.5 366.2V64.5C128.5 46.8 142.8 32.5 160.5 32.5C178.2 32.5 192.5 46.8 192.5 64.5V366.2L224.9 330.8C236.8 317.8 257.1 316.9 270.1 328.8C283.1 340.7 284 361 272.1 374L184.1 470V470.1ZM320.5 64.5C320.5 46.8 334.8 32.5 352.5 32.5H480.5C493.4 32.5 505.1 40.3 510.1 52.3C515.1 64.3 512.301 78 503.201 87.2L429.8 160.5H480.5C498.2 160.5 512.5 174.8 512.5 192.5C512.5 210.2 498.2 224.5 480.5 224.5H352.5C339.6 224.5 327.9 216.7 322.9 204.7C317.9 192.7 320.7 179 329.8 169.8L403.201 96.5H352.5C334.8 96.5 320.5 82.2 320.5 64.5ZM416.5 256.5C428.6 256.5 439.7 263.3 445.1 274.2L509.1 402.2L525.1 434.2C533 450 526.6 469.2 510.8 477.1C495 485 475.8 478.6 467.9 462.8L460.701 448.5H372.3L365.1 462.8C357.2 478.6 338.001 485 322.201 477.1C306.401 469.2 300 450 307.9 434.2L323.9 402.2L387.9 274.2C393.3 263.4 404.4 256.5 416.5 256.5ZM396.3 400.5H436.701L416.5 360.1L396.3 400.5Z" fill="#47535F"/>
</svg>
