<svg width="385" height="513" viewBox="0 0 385 513" fill="none" xmlns="http://www.w3.org/2000/svg">
<g clip-path="url(#clip0_104_394)">
<path d="M169.901 503.1C182.401 515.6 202.701 515.6 215.201 503.1L343.201 375.1C355.701 362.6 355.701 342.3 343.201 329.8C330.701 317.3 310.401 317.3 297.901 329.8L224.501 403.2V32.5C224.501 14.8 210.201 0.5 192.501 0.5C174.801 0.5 160.501 14.8 160.501 32.5V403.2L87.1008 329.9C74.6008 317.4 54.3008 317.4 41.8008 329.9C29.3008 342.4 29.3008 362.7 41.8008 375.2L169.801 503.2L169.901 503.1Z" fill="#47535F"/>
</g>
<defs>
<clipPath id="clip0_104_394">
<rect width="384" height="512" fill="white" transform="translate(0.5 0.5)"/>
</clipPath>
</defs>
</svg>
