<svg width="577" height="513" viewBox="0 0 577 513" fill="none" xmlns="http://www.w3.org/2000/svg">
<g clip-path="url(#clip0_104_406)">
<path d="M152.1 470.1C146 476.7 137.5 480.5 128.5 480.5C119.5 480.5 111 476.7 104.9 470.1L16.9005 374.1C5.00049 361.1 5.80048 340.8 18.9005 328.9C32.0005 317 52.2005 317.8 64.1005 330.9L96.5005 366.2V64.5C96.5005 46.8 110.8 32.5 128.5 32.5C146.2 32.5 160.5 46.8 160.5 64.5V366.2L192.9 330.8C204.8 317.8 225.1 316.9 238.1 328.8C251.1 340.7 252 361 240.1 374L152.1 470V470.1ZM320.5 480.5C302.8 480.5 288.5 466.2 288.5 448.5C288.5 430.8 302.8 416.5 320.5 416.5H352.5C370.2 416.5 384.5 430.8 384.5 448.5C384.5 466.2 370.2 480.5 352.5 480.5H320.5ZM320.5 352.5C302.8 352.5 288.5 338.2 288.5 320.5C288.5 302.8 302.8 288.5 320.5 288.5H416.5C434.2 288.5 448.5 302.8 448.5 320.5C448.5 338.2 434.2 352.5 416.5 352.5H320.5ZM320.5 224.5C302.8 224.5 288.5 210.2 288.5 192.5C288.5 174.8 302.8 160.5 320.5 160.5H480.5C498.2 160.5 512.5 174.8 512.5 192.5C512.5 210.2 498.2 224.5 480.5 224.5H320.5ZM320.5 96.5C302.8 96.5 288.5 82.2 288.5 64.5C288.5 46.8 302.8 32.5 320.5 32.5H544.5C562.2 32.5 576.5 46.8 576.5 64.5C576.5 82.2 562.2 96.5 544.5 96.5H320.5Z" fill="#47535F"/>
</g>
<defs>
<clipPath id="clip0_104_406">
<rect width="576" height="512" fill="white" transform="translate(0.5 0.5)"/>
</clipPath>
</defs>
</svg>
