<svg width="321" height="513" viewBox="0 0 321 513" fill="none" xmlns="http://www.w3.org/2000/svg">
<g clip-path="url(#clip0_104_452)">
<path d="M183.1 9.8999C170.6 -2.6001 150.3 -2.6001 137.8 9.8999L41.8 105.9C29.3 118.4 29.3 138.7 41.8 151.2C54.3 163.7 74.6 163.7 87.1 151.2L128.5 109.8V403.2L87.1 361.9C74.6 349.4 54.3 349.4 41.8 361.9C29.3 374.4 29.3 394.7 41.8 407.2L137.8 503.2C150.3 515.7 170.6 515.7 183.1 503.2L279.1 407.2C291.6 394.7 291.6 374.4 279.1 361.9C266.6 349.4 246.3 349.4 233.8 361.9L192.5 403.2V109.8L233.9 151.2C246.4 163.7 266.7 163.7 279.2 151.2C291.7 138.7 291.7 118.4 279.2 105.9L183.2 9.8999H183.1Z" fill="#47535F"/>
</g>
<defs>
<clipPath id="clip0_104_452">
<rect width="320" height="512" fill="white" transform="translate(0.5 0.5)"/>
</clipPath>
</defs>
</svg>
