<svg width="577" height="513" viewBox="0 0 577 513" fill="none" xmlns="http://www.w3.org/2000/svg">
<path d="M451.2 38.5C459.5 44.5 464.5 54.2 464.5 64.5V160.5H480.5C498.2 160.5 512.5 174.8 512.5 192.5C512.5 210.2 498.2 224.5 480.5 224.5H432.5H384.5C366.8 224.5 352.5 210.2 352.5 192.5C352.5 174.8 366.8 160.5 384.5 160.5H400.5V108.9L394.6 110.9C377.8 116.5 359.7 107.4 354.1 90.7C348.5 74 357.6 55.8 374.3 50.2L422.3 34.2C432.1 30.9 442.8 32.6 451.1 38.6L451.2 38.5ZM160.5 32.5C169.5 32.5 178 36.3 184.1 42.9L272.1 138.9C284 151.9 283.2 172.2 270.1 184.1C257 196 236.8 195.2 224.9 182.1L192.5 146.8V448.5C192.5 466.2 178.2 480.5 160.5 480.5C142.8 480.5 128.5 466.2 128.5 448.5V146.8L96.0999 182.1C84.1999 195.1 63.8999 196 50.8999 184.1C37.8999 172.2 36.9999 151.9 48.8999 138.9L136.9 42.9C143 36.3 151.5 32.5 160.5 32.5ZM446.2 365.4C450.002 363.601 453.412 361.071 456.236 357.954C459.06 354.837 461.242 351.194 462.658 347.233C464.074 343.273 464.696 339.072 464.489 334.872C464.282 330.671 463.249 326.552 461.45 322.75C459.651 318.948 457.12 315.538 454.003 312.714C450.886 309.89 447.244 307.708 443.283 306.292C439.323 304.876 435.122 304.254 430.921 304.461C426.721 304.668 422.602 305.701 418.8 307.5C414.998 309.299 411.588 311.829 408.764 314.946C405.94 318.063 403.758 321.706 402.342 325.667C400.926 329.627 400.304 333.828 400.511 338.028C400.718 342.229 401.751 346.348 403.55 350.15C405.349 353.952 407.879 357.362 410.996 360.186C414.113 363.01 417.756 365.192 421.717 366.608C425.677 368.024 429.878 368.646 434.078 368.439C438.279 368.232 442.398 367.199 446.2 365.4ZM405.5 420.3C370.1 408.9 344.5 375.7 344.5 336.5C344.5 287.9 383.9 248.5 432.5 248.5C481.1 248.5 520.5 287.9 520.5 336.5C520.5 360 513 382.8 499 401.7L450.2 467.5C439.7 481.7 419.6 484.7 405.4 474.2C391.2 463.7 388.2 443.6 398.7 429.4L405.5 420.2V420.3Z" fill="#47535F"/>
</svg>
