<svg width="641" height="513" viewBox="0 0 641 513" fill="none" xmlns="http://www.w3.org/2000/svg">
<g clip-path="url(#clip0_104_424)">
<path d="M288.5 48.5C288.5 22 310 0.5 336.5 0.5H432.5C459 0.5 480.5 22 480.5 48.5V192.5H520.5V120.5C520.5 107.2 531.2 96.5 544.5 96.5C557.8 96.5 568.5 107.2 568.5 120.5V192.5H592.5C619 192.5 640.5 214 640.5 240.5V464.5C640.5 491 619 512.5 592.5 512.5H432.5H336.5C310 512.5 288.5 491 288.5 464.5V48.5ZM352.5 80.5V112.5C352.5 121.3 359.7 128.5 368.5 128.5H400.5C409.3 128.5 416.5 121.3 416.5 112.5V80.5C416.5 71.7 409.3 64.5 400.5 64.5H368.5C359.7 64.5 352.5 71.7 352.5 80.5ZM368.5 160.5C359.7 160.5 352.5 167.7 352.5 176.5V208.5C352.5 217.3 359.7 224.5 368.5 224.5H400.5C409.3 224.5 416.5 217.3 416.5 208.5V176.5C416.5 167.7 409.3 160.5 400.5 160.5H368.5ZM352.5 272.5V304.5C352.5 313.3 359.7 320.5 368.5 320.5H400.5C409.3 320.5 416.5 313.3 416.5 304.5V272.5C416.5 263.7 409.3 256.5 400.5 256.5H368.5C359.7 256.5 352.5 263.7 352.5 272.5ZM528.5 256.5C519.7 256.5 512.5 263.7 512.5 272.5V304.5C512.5 313.3 519.7 320.5 528.5 320.5H560.5C569.3 320.5 576.5 313.3 576.5 304.5V272.5C576.5 263.7 569.3 256.5 560.5 256.5H528.5ZM512.5 368.5V400.5C512.5 409.3 519.7 416.5 528.5 416.5H560.5C569.3 416.5 576.5 409.3 576.5 400.5V368.5C576.5 359.7 569.3 352.5 560.5 352.5H528.5C519.7 352.5 512.5 359.7 512.5 368.5ZM167.1 153.9L247.1 233.9C259.6 246.4 259.6 266.7 247.1 279.2L167.1 359.2C154.6 371.7 134.3 371.7 121.8 359.2C109.3 346.7 109.3 326.4 121.8 313.9L147.2 288.5H32.5C14.8 288.5 0.5 274.2 0.5 256.5C0.5 238.8 14.8 224.5 32.5 224.5H147.2L121.8 199.1C109.3 186.6 109.3 166.3 121.8 153.8C134.3 141.3 154.6 141.3 167.1 153.8V153.9Z" fill="#47535F"/>
</g>
<defs>
<clipPath id="clip0_104_424">
<rect width="640" height="512" fill="white" transform="translate(0.5 0.5)"/>
</clipPath>
</defs>
</svg>
