<svg width="577" height="513" viewBox="0 0 577 513" fill="none" xmlns="http://www.w3.org/2000/svg">
<g clip-path="url(#clip0_104_450)">
<path d="M32.5 96.5H544.5C562.2 96.5 576.5 82.2 576.5 64.5C576.5 46.8 562.2 32.5 544.5 32.5H32.5C14.8 32.5 0.5 46.8 0.5 64.5C0.5 82.2 14.8 96.5 32.5 96.5ZM9.9 233.9C-2.6 246.4 -2.6 266.7 9.9 279.2C22.4 291.7 42.7 291.7 55.2 279.2L96.5 237.8V448.5C96.5 466.2 110.8 480.5 128.5 480.5C146.2 480.5 160.5 466.2 160.5 448.5V237.8L201.9 279.2C214.4 291.7 234.7 291.7 247.2 279.2C259.7 266.7 259.7 246.4 247.2 233.9L151.2 137.9C138.7 125.4 118.4 125.4 105.9 137.9L9.9 233.9ZM329.9 279.2C342.4 291.7 362.7 291.7 375.2 279.2L416.5 237.8V448.5C416.5 466.2 430.8 480.5 448.5 480.5C466.2 480.5 480.5 466.2 480.5 448.5V237.8L521.9 279.2C534.4 291.7 554.7 291.7 567.2 279.2C579.7 266.7 579.7 246.4 567.2 233.9L471.2 137.9C458.7 125.4 438.4 125.4 425.9 137.9L329.9 233.9C317.4 246.4 317.4 266.7 329.9 279.2Z" fill="#47535F"/>
</g>
<defs>
<clipPath id="clip0_104_450">
<rect width="576" height="512" fill="white" transform="translate(0.5 0.5)"/>
</clipPath>
</defs>
</svg>
