<svg width="513" height="513" viewBox="0 0 513 513" fill="none" xmlns="http://www.w3.org/2000/svg">
<path d="M256.5 96.5C294.9 96.5 330.2 110 357.8 132.6L325.2 165.2C320.6 169.8 319.3 176.7 321.7 182.6C324.1 188.5 330 192.5 336.5 192.5H448.5C457.3 192.5 464.5 185.3 464.5 176.5V64.5C464.5 58 460.6 52.2 454.6 49.7C448.6 47.2 441.7 48.6 437.2 53.2L403.2 87.2C363.9 53.1 312.6 32.5 256.5 32.5C245.6 32.5 235 33.3 224.5 34.8V99.7C234.8 97.6 245.5 96.5 256.5 96.5ZM132.6 155.2L165.2 187.8C169.8 192.4 176.7 193.7 182.6 191.3C188.5 188.9 192.5 183 192.5 176.5V64.5C192.5 55.7 185.3 48.5 176.5 48.5H64.5C58 48.5 52.2 52.4 49.7 58.4C47.2 64.4 48.6 71.3 53.2 75.8L87.2 109.8C53.1 149.1 32.5 200.4 32.5 256.5C32.5 267.4 33.3 278 34.8 288.5H99.7C97.6 278.2 96.5 267.5 96.5 256.5C96.5 218.1 110 182.8 132.6 155.2ZM478.2 224.5H413.3C415.4 234.8 416.5 245.5 416.5 256.5C416.5 294.9 403 330.2 380.4 357.8L347.8 325.2C343.2 320.6 336.3 319.3 330.4 321.7C324.5 324.1 320.5 330 320.5 336.5V448.5C320.5 457.3 327.7 464.5 336.5 464.5H448.5C455 464.5 460.8 460.6 463.3 454.6C465.8 448.6 464.4 441.7 459.8 437.2L425.8 403.2C459.9 363.9 480.5 312.6 480.5 256.5C480.5 245.6 479.7 235 478.2 224.5ZM256.5 416.5C218.1 416.5 182.8 403 155.2 380.4L187.8 347.8C192.4 343.2 193.7 336.3 191.3 330.4C188.9 324.5 183 320.5 176.5 320.5H64.5C55.7 320.5 48.5 327.7 48.5 336.5V448.5C48.5 455 52.4 460.8 58.4 463.3C64.4 465.8 71.3 464.4 75.8 459.8L109.8 425.8C149.1 459.9 200.4 480.5 256.5 480.5C267.4 480.5 278 479.7 288.5 478.2V413.3C278.2 415.4 267.5 416.5 256.5 416.5Z" fill="#47535F"/>
</svg>
