<svg width="577" height="513" viewBox="0 0 577 513" fill="none" xmlns="http://www.w3.org/2000/svg">
<g clip-path="url(#clip0_104_426)">
<path d="M544.501 416.5H32.5008C14.8008 416.5 0.500781 430.8 0.500781 448.5C0.500781 466.2 14.8008 480.5 32.5008 480.5H544.501C562.201 480.5 576.501 466.2 576.501 448.5C576.501 430.8 562.201 416.5 544.501 416.5ZM567.101 279.1C579.601 266.6 579.601 246.3 567.101 233.8C554.601 221.3 534.301 221.3 521.801 233.8L480.501 275.2V64.5C480.501 46.8 466.201 32.5 448.501 32.5C430.801 32.5 416.501 46.8 416.501 64.5V275.2L375.101 233.8C362.601 221.3 342.301 221.3 329.801 233.8C317.301 246.3 317.301 266.6 329.801 279.1L425.801 375.1C438.301 387.6 458.601 387.6 471.101 375.1L567.101 279.1ZM247.101 233.8C234.601 221.3 214.301 221.3 201.801 233.8L160.501 275.2V64.5C160.501 46.8 146.201 32.5 128.501 32.5C110.801 32.5 96.5008 46.8 96.5008 64.5V275.2L55.1008 233.9C42.6008 221.4 22.3008 221.4 9.80078 233.9C-2.69922 246.4 -2.69922 266.7 9.80078 279.2L105.801 375.2C118.301 387.7 138.601 387.7 151.101 375.2L247.101 279.2C259.601 266.7 259.601 246.4 247.101 233.9V233.8Z" fill="#47535F"/>
</g>
<defs>
<clipPath id="clip0_104_426">
<rect width="576" height="512" fill="white" transform="translate(0.5 0.5)"/>
</clipPath>
</defs>
</svg>
