<svg width="577" height="513" viewBox="0 0 577 513" fill="none" xmlns="http://www.w3.org/2000/svg">
<path d="M451.2 38.5C442.9 32.5 432.1 30.8 422.4 34.1L374.4 50.1C357.6 55.7 348.6 73.8 354.2 90.6C359.8 107.4 377.9 116.4 394.7 110.8L400.6 108.8V160.5H384.5C366.8 160.5 352.5 174.8 352.5 192.5C352.5 210.2 366.8 224.5 384.5 224.5H432.5H480.5C498.2 224.5 512.5 210.2 512.5 192.5C512.5 174.8 498.2 160.5 480.5 160.5H464.5V64.5C464.5 54.2 459.6 44.6 451.2 38.5ZM160.5 480.5C169.5 480.5 178 476.7 184.1 470.1L272.1 374.1C284 361.1 283.2 340.8 270.1 328.9C257 317 236.8 317.8 224.9 330.9L192.5 366.2V64.5C192.5 46.8 178.2 32.5 160.5 32.5C142.8 32.5 128.5 46.8 128.5 64.5V366.2L96.1004 330.9C84.2004 317.9 63.9004 317 50.9004 328.9C37.9004 340.8 37.0004 361.1 48.9004 374.1L136.9 470.1C143 476.7 151.5 480.5 160.5 480.5ZM418.8 307.5C422.602 305.701 426.721 304.668 430.922 304.461C435.123 304.254 439.323 304.876 443.284 306.292C447.244 307.708 450.887 309.89 454.004 312.714C457.121 315.538 459.651 318.948 461.45 322.75C463.25 326.552 464.282 330.671 464.489 334.872C464.697 339.072 464.075 343.273 462.659 347.233C461.242 351.194 459.06 354.837 456.236 357.954C453.412 361.071 450.002 363.601 446.2 365.4C442.399 367.199 438.28 368.232 434.079 368.439C429.878 368.646 425.677 368.024 421.717 366.608C417.757 365.192 414.114 363.01 410.997 360.186C407.88 357.362 405.349 353.952 403.55 350.15C401.751 346.348 400.719 342.229 400.511 338.028C400.304 333.828 400.926 329.627 402.342 325.667C403.758 321.706 405.941 318.063 408.765 314.946C411.588 311.829 414.999 309.299 418.8 307.5ZM405.6 420.3L398.8 429.5C388.3 443.7 391.3 463.7 405.5 474.3C419.7 484.9 439.7 481.8 450.3 467.6L499.1 401.8C513.1 382.9 520.6 360.1 520.6 336.6C520.6 288 481.2 248.6 432.6 248.6C384 248.6 344.6 288 344.6 336.6C344.6 375.8 370.2 409 405.7 420.4L405.6 420.3Z" fill="#47535F"/>
</svg>
