<svg width="513" height="513" viewBox="0 0 513 513" fill="none" xmlns="http://www.w3.org/2000/svg">
<g clip-path="url(#clip0_104_418)">
<path d="M503.1 279.1C515.6 266.6 515.6 246.3 503.1 233.8L375.1 105.8C362.6 93.3 342.3 93.3 329.8 105.8C317.3 118.3 317.3 138.6 329.8 151.1L403.2 224.5H192.5C174.8 224.5 160.5 238.8 160.5 256.5C160.5 274.2 174.8 288.5 192.5 288.5H403.2L329.8 361.9C317.3 374.4 317.3 394.7 329.8 407.2C342.3 419.7 362.6 419.7 375.1 407.2L503.1 279.2V279.1ZM160.5 96.5C178.2 96.5 192.5 82.2 192.5 64.5C192.5 46.8 178.2 32.5 160.5 32.5H96.5C43.5 32.5 0.5 75.5 0.5 128.5V384.5C0.5 437.5 43.5 480.5 96.5 480.5H160.5C178.2 480.5 192.5 466.2 192.5 448.5C192.5 430.8 178.2 416.5 160.5 416.5H96.5C78.8 416.5 64.5 402.2 64.5 384.5V128.5C64.5 110.8 78.8 96.5 96.5 96.5H160.5Z" fill="#47535F"/>
</g>
<defs>
<clipPath id="clip0_104_418">
<rect width="512" height="512" fill="white" transform="translate(0.5 0.5)"/>
</clipPath>
</defs>
</svg>
