<svg width="385" height="513" viewBox="0 0 385 513" fill="none" xmlns="http://www.w3.org/2000/svg">
<g clip-path="url(#clip0_104_468)">
<path d="M215.1 41.8999C202.6 29.3999 182.3 29.3999 169.8 41.8999L9.7998 201.9C-2.7002 214.4 -2.7002 234.7 9.7998 247.2C22.2998 259.7 42.5998 259.7 55.0998 247.2L160.5 141.7V448.5C160.5 466.2 174.8 480.5 192.5 480.5C210.2 480.5 224.5 466.2 224.5 448.5V141.7L329.9 247.1C342.4 259.6 362.7 259.6 375.2 247.1C387.7 234.6 387.7 214.3 375.2 201.8L215.2 41.7999L215.1 41.8999Z" fill="#47535F"/>
</g>
<defs>
<clipPath id="clip0_104_468">
<rect width="384" height="512" fill="white" transform="translate(0.5 0.5)"/>
</clipPath>
</defs>
</svg>
