<svg width="449" height="513" viewBox="0 0 449 513" fill="none" xmlns="http://www.w3.org/2000/svg">
<g clip-path="url(#clip0_104_476)">
<path d="M247.1 9.8999C234.6 -2.6001 214.3 -2.6001 201.8 9.8999L73.8 137.9C61.3 150.4 61.3 170.7 73.8 183.2C86.3 195.7 106.6 195.7 119.1 183.2L192.5 109.8V320.5C192.5 338.2 206.8 352.5 224.5 352.5C242.2 352.5 256.5 338.2 256.5 320.5V109.8L329.9 183.2C342.4 195.7 362.7 195.7 375.2 183.2C387.7 170.7 387.7 150.4 375.2 137.9L247.2 9.8999H247.1ZM64.5 352.5C64.5 334.8 50.2 320.5 32.5 320.5C14.8 320.5 0.5 334.8 0.5 352.5V416.5C0.5 469.5 43.5 512.5 96.5 512.5H352.5C405.5 512.5 448.5 469.5 448.5 416.5V352.5C448.5 334.8 434.2 320.5 416.5 320.5C398.8 320.5 384.5 334.8 384.5 352.5V416.5C384.5 434.2 370.2 448.5 352.5 448.5H96.5C78.8 448.5 64.5 434.2 64.5 416.5V352.5Z" fill="#47535F"/>
</g>
<defs>
<clipPath id="clip0_104_476">
<rect width="448" height="512" fill="white" transform="translate(0.5 0.5)"/>
</clipPath>
</defs>
</svg>
