<svg width="641" height="513" viewBox="0 0 641 513" fill="none" xmlns="http://www.w3.org/2000/svg">
<path d="M15.5 15.5002C24.9 6.20019 40.1 6.20019 49.5 15.5002L112.5 78.5002V40.5002C112.5 27.2002 123.2 16.5002 136.5 16.5002C149.8 16.5002 160.5 27.2002 160.5 40.5002V136.5C160.5 149.8 149.8 160.5 136.5 160.5H40.5C27.2 160.5 16.5 149.8 16.5 136.5C16.5 123.2 27.2 112.5 40.5 112.5H78.6L15.5 49.5002C6.20001 40.1002 6.20001 24.9002 15.5 15.5002ZM134 244.4C159.1 194.1 223.2 112.5 320.5 112.5C417.8 112.5 481.9 194.1 507 244.4C510.8 252 510.8 260.9 507 268.6C481.9 318.9 417.8 400.5 320.5 400.5C223.2 400.5 159.1 318.9 134 268.6C130.2 261 130.2 252.1 134 244.4ZM320.5 320.5C337.474 320.5 353.752 313.757 365.755 301.755C377.757 289.753 384.5 273.474 384.5 256.5C384.5 239.526 377.757 223.248 365.755 211.245C353.752 199.243 337.474 192.5 320.5 192.5C303.526 192.5 287.248 199.243 275.245 211.245C263.243 223.248 256.5 239.526 256.5 256.5C256.5 273.474 263.243 289.753 275.245 301.755C287.248 313.757 303.526 320.5 320.5 320.5ZM591.5 15.5002C600.9 6.1002 616.1 6.1002 625.4 15.5002C634.7 24.9002 634.8 40.1002 625.4 49.4002L562.4 112.4H600.5C613.8 112.4 624.5 123.1 624.5 136.4C624.5 149.7 613.8 160.4 600.5 160.4H504.5C491.2 160.4 480.5 149.7 480.5 136.4V40.5002C480.5 27.2002 491.2 16.5002 504.5 16.5002C517.8 16.5002 528.5 27.2002 528.5 40.5002V78.6002L591.5 15.6002V15.5002ZM15.5 497.5C6.10001 488.1 6.10001 472.9 15.5 463.6L78.5 400.6H40.5C27.2 400.6 16.5 389.9 16.5 376.6C16.5 363.3 27.2 352.6 40.5 352.6H136.5C149.8 352.6 160.5 363.3 160.5 376.6V472.6C160.5 485.9 149.8 496.6 136.5 496.6C123.2 496.6 112.5 485.9 112.5 472.6V434.4L49.5 497.5C40.1 506.9 24.9 506.9 15.6 497.5H15.5ZM591.5 497.5L528.5 434.5V472.5C528.5 485.8 517.8 496.5 504.5 496.5C491.2 496.5 480.5 485.8 480.5 472.5V376.5C480.5 363.2 491.2 352.5 504.5 352.5H600.5C613.8 352.5 624.5 363.2 624.5 376.5C624.5 389.8 613.8 400.5 600.5 400.5H562.4L625.4 463.5C634.8 472.9 634.8 488.1 625.4 497.4C616 506.7 600.8 506.8 591.5 497.4V497.5Z" fill="#47535F"/>
</svg>
