<svg width="513" height="513" viewBox="0 0 513 513" fill="none" xmlns="http://www.w3.org/2000/svg">
<g clip-path="url(#clip0_104_454)">
<path d="M249.9 25.8999C262.4 13.3999 282.7 13.3999 295.2 25.8999C307.7 38.3999 307.7 58.6999 295.2 71.1999L269.8 96.4999H416.5C469.5 96.4999 512.5 139.5 512.5 192.5V224.5C512.5 242.2 498.2 256.5 480.5 256.5C462.8 256.5 448.5 242.2 448.5 224.5V192.5C448.5 174.8 434.2 160.5 416.5 160.5H269.8L295.2 185.9C307.7 198.4 307.7 218.7 295.2 231.2C282.7 243.7 262.4 243.7 249.9 231.2L169.9 151.2C157.4 138.7 157.4 118.4 169.9 105.9L249.9 25.8999ZM263.2 281.9L343.2 361.9C355.7 374.4 355.7 394.7 343.2 407.2L263.2 487.2C250.7 499.7 230.4 499.7 217.9 487.2C205.4 474.7 205.4 454.4 217.9 441.9L243.2 416.5H96.5C78.8 416.5 64.5 430.8 64.5 448.5V480.5C64.5 498.2 50.2 512.5 32.5 512.5C14.8 512.5 0.5 498.2 0.5 480.5V448.5C0.5 395.5 43.5 352.5 96.5 352.5H243.2L217.8 327.1C205.3 314.6 205.3 294.3 217.8 281.8C230.3 269.3 250.6 269.3 263.1 281.8L263.2 281.9ZM384.5 384.5C384.5 367.526 391.243 351.247 403.245 339.245C415.248 327.243 431.526 320.5 448.5 320.5C465.474 320.5 481.752 327.243 493.755 339.245C505.757 351.247 512.5 367.526 512.5 384.5C512.5 401.474 505.757 417.752 493.755 429.755C481.752 441.757 465.474 448.5 448.5 448.5C431.526 448.5 415.248 441.757 403.245 429.755C391.243 417.752 384.5 401.474 384.5 384.5ZM64.5 192.5C47.5261 192.5 31.2475 185.757 19.2452 173.755C7.24284 161.752 0.5 145.474 0.5 128.5C0.5 111.526 7.24284 95.2474 19.2452 83.2451C31.2475 71.2427 47.5261 64.4999 64.5 64.4999C81.4739 64.4999 97.7525 71.2427 109.755 83.2451C121.757 95.2474 128.5 111.526 128.5 128.5C128.5 145.474 121.757 161.752 109.755 173.755C97.7525 185.757 81.4739 192.5 64.5 192.5Z" fill="#47535F"/>
</g>
<defs>
<clipPath id="clip0_104_454">
<rect width="512" height="512" fill="white" transform="translate(0.5 0.5)"/>
</clipPath>
</defs>
</svg>
