<svg width="385" height="513" viewBox="0 0 385 513" fill="none" xmlns="http://www.w3.org/2000/svg">
<g clip-path="url(#clip0_104_482)">
<path d="M215.1 9.8999C202.6 -2.6001 182.3 -2.6001 169.8 9.8999L41.7998 137.9C29.2998 150.4 29.2998 170.7 41.7998 183.2C54.2998 195.7 74.5998 195.7 87.0998 183.2L160.5 109.8V480.5C160.5 498.2 174.8 512.5 192.5 512.5C210.2 512.5 224.5 498.2 224.5 480.5V109.8L297.9 183.2C310.4 195.7 330.7 195.7 343.2 183.2C355.7 170.7 355.7 150.4 343.2 137.9L215.2 9.8999H215.1Z" fill="#47535F"/>
</g>
<defs>
<clipPath id="clip0_104_482">
<rect width="384" height="512" fill="white" transform="translate(0.5 0.5)"/>
</clipPath>
</defs>
</svg>
