<svg width="513" height="513" viewBox="0 0 513 513" fill="none" xmlns="http://www.w3.org/2000/svg">
<g clip-path="url(#clip0_104_432)">
<path d="M407.101 375.1L503.101 279.1C515.601 266.6 515.601 246.3 503.101 233.8L407.101 137.8C394.601 125.3 374.301 125.3 361.801 137.8C349.301 150.3 349.301 170.6 361.801 183.1L403.201 224.5H109.701L151.101 183.1C163.601 170.6 163.601 150.3 151.101 137.8C138.601 125.3 118.301 125.3 105.801 137.8L9.80078 233.8C-2.69922 246.3 -2.69922 266.6 9.80078 279.1L105.801 375.1C118.301 387.6 138.601 387.6 151.101 375.1C163.601 362.6 163.601 342.3 151.101 329.8L109.801 288.5H403.301L361.901 329.9C349.401 342.4 349.401 362.7 361.901 375.2C374.401 387.7 394.701 387.7 407.201 375.2L407.101 375.1Z" fill="#47535F"/>
</g>
<defs>
<clipPath id="clip0_104_432">
<rect width="512" height="512" fill="white" transform="translate(0.5 0.5)"/>
</clipPath>
</defs>
</svg>
