<svg width="577" height="513" viewBox="0 0 577 513" fill="none" xmlns="http://www.w3.org/2000/svg">
<path d="M184.1 470.1C178 476.7 169.5 480.5 160.5 480.5C151.5 480.5 143 476.7 136.9 470.1L48.9005 374.1C37.0005 361.1 37.8005 340.8 50.9005 328.9C64.0005 317 84.2005 317.8 96.1005 330.9L128.5 366.2V64.5C128.5 46.8 142.8 32.5 160.5 32.5C178.2 32.5 192.5 46.8 192.5 64.5V366.2L224.9 330.8C236.8 317.8 257.1 316.9 270.1 328.8C283.1 340.7 284 361 272.1 374L184.1 470V470.1ZM320.5 320.5C320.5 302.8 334.8 288.5 352.5 288.5H480.5C493.4 288.5 505.1 296.3 510.1 308.3C515.1 320.3 512.301 334 503.201 343.2L429.8 416.5H480.5C498.2 416.5 512.5 430.8 512.5 448.5C512.5 466.2 498.2 480.5 480.5 480.5H352.5C339.6 480.5 327.9 472.7 322.9 460.7C317.9 448.7 320.7 435 329.8 425.8L403.201 352.5H352.5C334.8 352.5 320.5 338.2 320.5 320.5ZM416.5 32.5C428.6 32.5 439.7 39.3 445.1 50.2L509.1 178.2L525.1 210.2C533 226 526.6 245.2 510.8 253.1C495 261 475.8 254.6 467.9 238.8L460.701 224.5H372.3L365.1 238.8C357.2 254.6 338.001 261 322.201 253.1C306.401 245.2 300 226 307.9 210.2L323.9 178.2L387.9 50.2C393.3 39.3 404.4 32.5 416.5 32.5ZM396.3 176.5H436.701L416.5 136.1L396.3 176.5Z" fill="#47535F"/>
</svg>
