<svg width="513" height="513" viewBox="0 0 513 513" fill="none" xmlns="http://www.w3.org/2000/svg">
<path d="M105.6 203.1C113.3 181.3 125.8 160.8 143.4 143.3C205.9 80.8001 307.2 80.8001 369.7 143.3L386.8 160.5H336.5C318.8 160.5 304.5 174.8 304.5 192.5C304.5 210.2 318.8 224.5 336.5 224.5H464H464.4C482.1 224.5 496.4 210.2 496.4 192.5V64.5001C496.4 46.8001 482.1 32.5001 464.4 32.5001C446.7 32.5001 432.4 46.8001 432.4 64.5001V115.7L414.9 98.1001C327.4 10.6001 185.6 10.6001 98.1 98.1001C73.7 122.5 56.1 151.2 45.3 181.9C39.4 198.6 48.2 216.8 64.8 222.7C81.4 228.6 99.7 219.8 105.6 203.2V203.1ZM39.5 289.8C34.5 291.3 29.7 294 25.8 298C21.8 302 19.1 306.8 17.7 312C17.4 313.2 17.1 314.5 16.9 315.8C16.6 317.5 16.5 319.2 16.5 320.9V448.5C16.5 466.2 30.8 480.5 48.5 480.5C66.2 480.5 80.5 466.2 80.5 448.5V397.4L98.1 414.9C185.6 502.3 327.4 502.3 414.8 414.9C439.2 390.5 456.9 361.8 467.7 331.2C473.6 314.5 464.8 296.3 448.2 290.4C431.6 284.5 413.3 293.3 407.4 309.9C399.7 331.7 387.2 352.2 369.6 369.7C307.1 432.2 205.8 432.2 143.3 369.7L143.2 369.6L126.1 352.5H176.5C194.2 352.5 208.5 338.2 208.5 320.5C208.5 302.8 194.2 288.5 176.5 288.5H48.9C47.3 288.5 45.7 288.6 44.1 288.8C42.5 289 41 289.3 39.5 289.8Z" fill="#47535F"/>
</svg>
