<svg width="385" height="513" viewBox="0 0 385 513" fill="none" xmlns="http://www.w3.org/2000/svg">
<g clip-path="url(#clip0_104_502)">
<path d="M32.5 448.5C14.8 448.5 0.5 462.8 0.5 480.5C0.5 498.2 14.8 512.5 32.5 512.5H128.5C181.5 512.5 224.5 469.5 224.5 416.5V109.8L297.9 183.2C310.4 195.7 330.7 195.7 343.2 183.2C355.7 170.7 355.7 150.4 343.2 137.9L215.2 9.8999C202.7 -2.6001 182.4 -2.6001 169.9 9.8999L41.9 137.9C29.4 150.4 29.4 170.7 41.9 183.2C54.4 195.7 74.7 195.7 87.2 183.2L160.5 109.8V416.5C160.5 434.2 146.2 448.5 128.5 448.5H32.5Z" fill="#47535F"/>
</g>
<defs>
<clipPath id="clip0_104_502">
<rect width="384" height="512" fill="white" transform="translate(0.5 0.5)"/>
</clipPath>
</defs>
</svg>
