<svg width="385" height="513" viewBox="0 0 385 513" fill="none" xmlns="http://www.w3.org/2000/svg">
<g clip-path="url(#clip0_104_466)">
<path d="M32.5 64.5C14.8 64.5 0.5 50.2 0.5 32.5C0.5 14.8 14.8 0.5 32.5 0.5H128.5C181.5 0.5 224.5 43.5 224.5 96.5V403.2L297.9 329.8C310.4 317.3 330.7 317.3 343.2 329.8C355.7 342.3 355.7 362.6 343.2 375.1L215.2 503.1C202.7 515.6 182.4 515.6 169.9 503.1L41.9 375.1C29.4 362.6 29.4 342.3 41.9 329.8C54.4 317.3 74.7 317.3 87.2 329.8L160.5 403.2V96.5C160.5 78.8 146.2 64.5 128.5 64.5H32.5Z" fill="#47535F"/>
</g>
<defs>
<clipPath id="clip0_104_466">
<rect width="384" height="512" fill="white" transform="translate(0.5 0.5)"/>
</clipPath>
</defs>
</svg>
