<svg width="513" height="513" viewBox="0 0 513 513" fill="none" xmlns="http://www.w3.org/2000/svg">
<g clip-path="url(#clip0_104_402)">
<path d="M9.90039 233.9C-2.59961 246.4 -2.59961 266.7 9.90039 279.2L137.9 407.2C150.4 419.7 170.7 419.7 183.2 407.2C195.7 394.7 195.7 374.4 183.2 361.9L109.8 288.5H480.5C498.2 288.5 512.5 274.2 512.5 256.5C512.5 238.8 498.2 224.5 480.5 224.5H109.8L183.2 151.1C195.7 138.6 195.7 118.3 183.2 105.8C170.7 93.2998 150.4 93.2998 137.9 105.8L9.90039 233.8V233.9Z" fill="#47535F"/>
</g>
<defs>
<clipPath id="clip0_104_402">
<rect width="512" height="512" fill="white" transform="translate(0.5 0.5)"/>
</clipPath>
</defs>
</svg>
