<svg width="577" height="513" viewBox="0 0 577 513" fill="none" xmlns="http://www.w3.org/2000/svg">
<path d="M184.1 42.9C178 36.3 169.5 32.5 160.5 32.5C151.5 32.5 143 36.3 136.9 42.9L48.9005 138.9C37.0005 151.9 37.8005 172.2 50.9005 184.1C64.0005 196 84.2005 195.2 96.1005 182.1L128.5 146.8V448.5C128.5 466.2 142.8 480.5 160.5 480.5C178.2 480.5 192.5 466.2 192.5 448.5V146.8L224.9 182.2C236.8 195.2 257.1 196.1 270.1 184.2C283.1 172.3 284 152 272.1 139L184.1 43V42.9ZM320.5 320.5C320.5 338.2 334.8 352.5 352.5 352.5H403.201L329.8 425.9C320.6 435.1 317.9 448.8 322.9 460.8C327.9 472.8 339.5 480.6 352.5 480.6H480.5C498.2 480.6 512.5 466.3 512.5 448.6C512.5 430.9 498.2 416.6 480.5 416.6H429.8L503.201 343.2C512.401 334 515.1 320.3 510.1 308.3C505.1 296.3 493.5 288.5 480.5 288.5H352.5C334.8 288.5 320.5 302.8 320.5 320.5ZM416.5 32.5C404.4 32.5 393.3 39.3 387.9 50.2L323.9 178.2L307.9 210.2C300 226 306.401 245.2 322.201 253.1C338.001 261 357.2 254.6 365.1 238.8L372.3 224.5H460.701L467.9 238.8C475.8 254.6 495 261 510.8 253.1C526.6 245.2 533 226 525.1 210.2L509.1 178.2L445.1 50.2C439.7 39.3 428.6 32.5 416.5 32.5ZM396.3 176.5L416.5 136.1L436.701 176.5H396.3Z" fill="#47535F"/>
</svg>
