<svg width="513" height="513" viewBox="0 0 513 513" fill="none" xmlns="http://www.w3.org/2000/svg">
<path d="M126.2 160.5H176.5C194.2 160.5 208.5 174.8 208.5 192.5C208.5 210.2 194.2 224.5 176.5 224.5H48.5C30.8 224.5 16.5 210.2 16.5 192.5V64.4996C16.5 46.7996 30.8 32.4996 48.5 32.4996C66.2 32.4996 80.5 46.7996 80.5 64.4996V115.7L98.1 98.0996C185.6 10.5996 327.4 10.5996 414.9 98.0996C502.4 185.6 502.4 327.4 414.9 414.9C327.4 502.4 185.6 502.4 98.1 414.9C85.6 402.4 85.6 382.1 98.1 369.6C110.6 357.1 130.9 357.1 143.4 369.6C205.9 432.1 307.2 432.1 369.7 369.6C432.2 307.1 432.2 205.8 369.7 143.3C307.2 80.7996 205.9 80.7996 143.4 143.3L126.2 160.5Z" fill="#47535F"/>
</svg>
