<svg width="449" height="513" viewBox="0 0 449 513" fill="none" xmlns="http://www.w3.org/2000/svg">
<g clip-path="url(#clip0_104_448)">
<path d="M297.9 9.8999C310.4 -2.6001 330.7 -2.6001 343.2 9.8999L439.2 105.9C451.7 118.4 451.7 138.7 439.2 151.2L343.2 247.2C330.7 259.7 310.4 259.7 297.9 247.2C285.4 234.7 285.4 214.4 297.9 201.9L339.2 160.5H128.5C93.2 160.5 64.5 189.2 64.5 224.5V256.5C64.5 274.2 50.2 288.5 32.5 288.5C14.8 288.5 0.5 274.2 0.5 256.5V224.5C0.5 153.8 57.8 96.4999 128.5 96.4999H339.2L297.9 55.0999C285.4 42.5999 285.4 22.2999 297.9 9.7999V9.8999ZM201.9 265.9C214.4 253.4 234.7 253.4 247.2 265.9L343.2 361.9C355.7 374.4 355.7 394.7 343.2 407.2L247.2 503.2C234.7 515.7 214.4 515.7 201.9 503.2C189.4 490.7 189.4 470.4 201.9 457.9L243.2 416.5H96.5C78.8 416.5 64.5 430.8 64.5 448.5V480.5C64.5 498.2 50.2 512.5 32.5 512.5C14.8 512.5 0.5 498.2 0.5 480.5V448.5C0.5 395.5 43.5 352.5 96.5 352.5H243.2L201.8 311.1C189.3 298.6 189.3 278.3 201.8 265.8L201.9 265.9Z" fill="#47535F"/>
</g>
<defs>
<clipPath id="clip0_104_448">
<rect width="448" height="512" fill="white" transform="translate(0.5 0.5)"/>
</clipPath>
</defs>
</svg>
