<svg width="577" height="513" viewBox="0 0 577 513" fill="none" xmlns="http://www.w3.org/2000/svg">
<g clip-path="url(#clip0_104_480)">
<path d="M112.5 0.5C86 0.5 64.5 22 64.5 48.5V256.5H48.5C22 256.5 0.5 278 0.5 304.5V400.5C0.5 408.5 2.5 416.1 5.9 422.7C9.7 421 13.7 419.6 17.9 418.6C31 415.5 44.6 408.8 55.2 400C77.4 381.3 109.5 379.9 133.3 396.6C151.3 409 173.4 416.9 192.5 416.9C213.6 416.9 234.5 408.4 251.7 396.6C273.8 381.1 303.3 381.1 325.4 396.6C343.8 409.3 365 416.9 384.6 416.9C403.6 416.9 425.8 409 443.8 396.6C467.6 379.9 499.6 381.3 521.9 400C532.5 408.8 546.1 415.6 559.2 418.6C563.4 419.6 567.4 421 571.2 422.7C574.5 416.1 576.5 408.5 576.5 400.5V304.5C576.5 278 555 256.5 528.5 256.5H480.5V109.8L505.9 135.2C518.4 147.7 538.7 147.7 551.2 135.2C563.7 122.7 563.7 102.4 551.2 89.9L471.2 9.9C458.7 -2.6 438.4 -2.6 425.9 9.9L345.9 89.9C333.4 102.4 333.4 122.7 345.9 135.2C358.4 147.7 378.7 147.7 391.2 135.2L416.5 109.8V256.5H288.5V48.5C288.5 22 267 0.5 240.5 0.5H112.5ZM307 422.4C295.9 414.5 281.1 414.5 270 422.4C247.5 437.9 220 448.5 192.5 448.5C165.6 448.5 137.2 437.7 115.1 422.4C103.2 413.9 87 414.6 75.9 424.1C61.5 436 43.4 445.1 25.3 449.3C8.1 453.3 -2.6 470.5 1.4 487.7C5.4 504.9 22.6 515.6 39.8 511.6C64.3 505.9 84.7 495.1 98 486.6C127 502.2 159.5 512.5 192.5 512.5C224.4 512.5 253.1 502.6 272.9 493.6C278.7 490.9 284 488.3 288.5 485.9C293 488.3 298.2 491 304.1 493.6C323.9 502.6 352.6 512.5 384.5 512.5C417.5 512.5 450 502.2 479 486.7C492.4 495.1 512.7 506 537.2 511.7C554.4 515.7 571.6 505 575.6 487.8C579.6 470.6 568.9 453.4 551.7 449.4C533.6 445.2 515.5 436.1 501.1 424.2C490 414.8 473.8 414.1 461.9 422.5C439.9 437.7 411.4 448.5 384.5 448.5C357 448.5 329.5 437.9 307 422.4Z" fill="#47535F"/>
</g>
<defs>
<clipPath id="clip0_104_480">
<rect width="576" height="512" fill="white" transform="translate(0.5 0.5)"/>
</clipPath>
</defs>
</svg>
