<svg width="577" height="513" viewBox="0 0 577 513" fill="none" xmlns="http://www.w3.org/2000/svg">
<path d="M160.5 32.5C169.5 32.5 178 36.3 184.1 42.9L272.1 138.9C284 151.9 283.2 172.2 270.1 184.1C257 196 236.8 195.2 224.9 182.1L192.5 146.8V448.5C192.5 466.2 178.2 480.5 160.5 480.5C142.8 480.5 128.5 466.2 128.5 448.5V146.8L96.0999 182.1C84.1999 195.1 63.8999 196 50.8999 184.1C37.8999 172.2 36.9999 151.9 48.8999 138.9L136.9 42.9C143 36.3 151.5 32.5 160.5 32.5ZM451.2 294.5C459.5 300.5 464.5 310.2 464.5 320.5V416.5H480.5C498.2 416.5 512.5 430.8 512.5 448.5C512.5 466.2 498.2 480.5 480.5 480.5H432.5H384.5C366.8 480.5 352.5 466.2 352.5 448.5C352.5 430.8 366.8 416.5 384.5 416.5H400.5V364.9L394.6 366.9C377.8 372.5 359.7 363.4 354.1 346.7C348.5 330 357.6 311.8 374.3 306.2L422.3 290.2C432.1 286.9 442.8 288.6 451.1 294.6L451.2 294.5ZM446.2 149.4C453.878 145.767 459.798 139.232 462.658 131.233C465.518 123.235 465.083 114.428 461.45 106.75C459.651 102.948 457.12 99.5381 454.003 96.7142C450.886 93.8903 447.244 91.708 443.283 90.2919C435.285 87.432 426.478 87.8665 418.8 91.5C411.122 95.1335 405.202 101.668 402.342 109.667C399.482 117.665 399.916 126.472 403.55 134.15C407.183 141.828 413.718 147.748 421.717 150.608C429.715 153.468 438.522 153.033 446.2 149.4ZM405.5 204.3C370.1 192.9 344.5 159.7 344.5 120.5C344.5 71.9 383.9 32.5 432.5 32.5C481.1 32.5 520.5 71.9 520.5 120.5C520.5 144 513 166.8 499 185.7L450.2 251.5C439.7 265.7 419.6 268.7 405.4 258.2C391.2 247.7 388.2 227.6 398.7 213.4L405.5 204.2V204.3Z" fill="#47535F"/>
</svg>
