<svg width="577" height="513" viewBox="0 0 577 513" fill="none" xmlns="http://www.w3.org/2000/svg">
<g clip-path="url(#clip0_104_486)">
<path d="M152.1 42.9C146 36.3 137.5 32.5 128.5 32.5C119.5 32.5 111 36.3 104.9 42.9L16.9005 138.9C5.00049 151.9 5.80048 172.2 18.9005 184.1C32.0005 196 52.2005 195.2 64.1005 182.1L96.5005 146.8V448.5C96.5005 466.2 110.8 480.5 128.5 480.5C146.2 480.5 160.5 466.2 160.5 448.5V146.8L192.9 182.2C204.8 195.2 225.1 196.1 238.1 184.2C251.1 172.3 252 152 240.1 139L152.1 43V42.9ZM320.5 32.5C302.8 32.5 288.5 46.8 288.5 64.5C288.5 82.2 302.8 96.5 320.5 96.5H352.5C370.2 96.5 384.5 82.2 384.5 64.5C384.5 46.8 370.2 32.5 352.5 32.5H320.5ZM320.5 160.5C302.8 160.5 288.5 174.8 288.5 192.5C288.5 210.2 302.8 224.5 320.5 224.5H416.5C434.2 224.5 448.5 210.2 448.5 192.5C448.5 174.8 434.2 160.5 416.5 160.5H320.5ZM320.5 288.5C302.8 288.5 288.5 302.8 288.5 320.5C288.5 338.2 302.8 352.5 320.5 352.5H480.5C498.2 352.5 512.5 338.2 512.5 320.5C512.5 302.8 498.2 288.5 480.5 288.5H320.5ZM320.5 416.5C302.8 416.5 288.5 430.8 288.5 448.5C288.5 466.2 302.8 480.5 320.5 480.5H544.5C562.2 480.5 576.5 466.2 576.5 448.5C576.5 430.8 562.2 416.5 544.5 416.5H320.5Z" fill="#47535F"/>
</g>
<defs>
<clipPath id="clip0_104_486">
<rect width="576" height="512" fill="white" transform="translate(0.5 0.5)"/>
</clipPath>
</defs>
</svg>
