<svg width="577" height="513" viewBox="0 0 577 513" fill="none" xmlns="http://www.w3.org/2000/svg">
<g clip-path="url(#clip0_104_478)">
<path d="M160.5 0.5C142.8 0.5 128.5 14.8 128.5 32.5C128.5 50.2 142.8 64.5 160.5 64.5H211.2L9.90039 265.9C-2.59961 278.4 -2.59961 298.7 9.90039 311.2C22.4004 323.7 42.7004 323.7 55.2004 311.2L256.5 109.8V160.5C256.5 178.2 270.8 192.5 288.5 192.5C306.2 192.5 320.5 178.2 320.5 160.5V32.5C320.5 14.8 306.2 0.5 288.5 0.5H160.5ZM576.5 80.5C576.5 67.7696 571.443 55.5606 562.441 46.5589C553.44 37.5571 541.231 32.5 528.5 32.5C515.77 32.5 503.561 37.5571 494.559 46.5589C485.558 55.5606 480.5 67.7696 480.5 80.5C480.5 93.2304 485.558 105.439 494.559 114.441C503.561 123.443 515.77 128.5 528.5 128.5C541.231 128.5 553.44 123.443 562.441 114.441C571.443 105.439 576.5 93.2304 576.5 80.5ZM448.5 208.5C448.5 202.197 447.259 195.955 444.847 190.131C442.434 184.308 438.899 179.016 434.442 174.559C429.984 170.102 424.693 166.566 418.869 164.154C413.046 161.742 406.804 160.5 400.5 160.5C394.197 160.5 387.955 161.742 382.132 164.154C376.308 166.566 371.016 170.102 366.559 174.559C362.102 179.016 358.566 184.308 356.154 190.131C353.742 195.955 352.5 202.197 352.5 208.5C352.5 214.803 353.742 221.045 356.154 226.869C358.566 232.692 362.102 237.984 366.559 242.441C371.016 246.898 376.308 250.434 382.132 252.846C387.955 255.258 394.197 256.5 400.5 256.5C406.804 256.5 413.046 255.258 418.869 252.846C424.693 250.434 429.984 246.898 434.442 242.441C438.899 237.984 442.434 232.692 444.847 226.869C447.259 221.045 448.5 214.803 448.5 208.5ZM400.5 384.5C413.231 384.5 425.44 379.443 434.442 370.441C443.443 361.439 448.5 349.23 448.5 336.5C448.5 323.77 443.443 311.561 434.442 302.559C425.44 293.557 413.231 288.5 400.5 288.5C387.77 288.5 375.561 293.557 366.559 302.559C357.558 311.561 352.5 323.77 352.5 336.5C352.5 349.23 357.558 361.439 366.559 370.441C375.561 379.443 387.77 384.5 400.5 384.5ZM448.5 464.5C448.5 458.197 447.259 451.955 444.847 446.131C442.434 440.308 438.899 435.016 434.442 430.559C429.984 426.102 424.693 422.566 418.869 420.154C413.046 417.742 406.804 416.5 400.5 416.5C394.197 416.5 387.955 417.742 382.132 420.154C376.308 422.566 371.016 426.102 366.559 430.559C362.102 435.016 358.566 440.308 356.154 446.131C353.742 451.955 352.5 458.197 352.5 464.5C352.5 470.803 353.742 477.045 356.154 482.869C358.566 488.692 362.102 493.984 366.559 498.441C371.016 502.898 376.308 506.434 382.132 508.846C387.955 511.258 394.197 512.5 400.5 512.5C406.804 512.5 413.046 511.258 418.869 508.846C424.693 506.434 429.984 502.898 434.442 498.441C438.899 493.984 442.434 488.692 444.847 482.869C447.259 477.045 448.5 470.803 448.5 464.5ZM576.5 464.5C576.5 451.77 571.443 439.561 562.441 430.559C553.44 421.557 541.231 416.5 528.5 416.5C515.77 416.5 503.561 421.557 494.559 430.559C485.558 439.561 480.5 451.77 480.5 464.5C480.5 477.23 485.558 489.439 494.559 498.441C503.561 507.443 515.77 512.5 528.5 512.5C541.231 512.5 553.44 507.443 562.441 498.441C571.443 489.439 576.5 477.23 576.5 464.5ZM272.5 384.5C285.231 384.5 297.44 379.443 306.442 370.441C315.443 361.439 320.5 349.23 320.5 336.5C320.5 323.77 315.443 311.561 306.442 302.559C297.44 293.557 285.231 288.5 272.5 288.5C259.77 288.5 247.561 293.557 238.559 302.559C229.558 311.561 224.5 323.77 224.5 336.5C224.5 349.23 229.558 361.439 238.559 370.441C247.561 379.443 259.77 384.5 272.5 384.5ZM320.5 464.5C320.5 451.77 315.443 439.561 306.442 430.559C297.44 421.557 285.231 416.5 272.5 416.5C259.77 416.5 247.561 421.557 238.559 430.559C229.558 439.561 224.5 451.77 224.5 464.5C224.5 477.23 229.558 489.439 238.559 498.441C247.561 507.443 259.77 512.5 272.5 512.5C285.231 512.5 297.44 507.443 306.442 498.441C315.443 489.439 320.5 477.23 320.5 464.5ZM144.5 512.5C157.231 512.5 169.44 507.443 178.442 498.441C187.443 489.439 192.5 477.23 192.5 464.5C192.5 451.77 187.443 439.561 178.442 430.559C169.44 421.557 157.231 416.5 144.5 416.5C131.77 416.5 119.561 421.557 110.559 430.559C101.558 439.561 96.5004 451.77 96.5004 464.5C96.5004 477.23 101.558 489.439 110.559 498.441C119.561 507.443 131.77 512.5 144.5 512.5ZM576.5 336.5C576.5 323.77 571.443 311.561 562.441 302.559C553.44 293.557 541.231 288.5 528.5 288.5C515.77 288.5 503.561 293.557 494.559 302.559C485.558 311.561 480.5 323.77 480.5 336.5C480.5 349.23 485.558 361.439 494.559 370.441C503.561 379.443 515.77 384.5 528.5 384.5C541.231 384.5 553.44 379.443 562.441 370.441C571.443 361.439 576.5 349.23 576.5 336.5ZM528.5 256.5C541.231 256.5 553.44 251.443 562.441 242.441C571.443 233.439 576.5 221.23 576.5 208.5C576.5 195.77 571.443 183.561 562.441 174.559C553.44 165.557 541.231 160.5 528.5 160.5C515.77 160.5 503.561 165.557 494.559 174.559C485.558 183.561 480.5 195.77 480.5 208.5C480.5 221.23 485.558 233.439 494.559 242.441C503.561 251.443 515.77 256.5 528.5 256.5Z" fill="#47535F"/>
</g>
<defs>
<clipPath id="clip0_104_478">
<rect width="576" height="512" fill="white" transform="translate(0.5 0.5)"/>
</clipPath>
</defs>
</svg>
