<svg width="513" height="513" viewBox="0 0 513 513" fill="none" xmlns="http://www.w3.org/2000/svg">
<g clip-path="url(#clip0_104_442)">
<path d="M247.1 151.1C234.6 163.6 214.3 163.6 201.8 151.1C189.3 138.6 189.3 118.3 201.8 105.8L297.8 9.7998C310.3 -2.7002 330.6 -2.7002 343.1 9.7998L439.1 105.8C451.6 118.3 451.6 138.6 439.1 151.1C426.6 163.6 406.3 163.6 393.8 151.1L352.5 109.8V384.5C352.5 419.8 381.2 448.5 416.5 448.5H480.5C498.2 448.5 512.5 462.8 512.5 480.5C512.5 498.2 498.2 512.5 480.5 512.5H416.5C345.8 512.5 288.5 455.2 288.5 384.5C288.5 349.2 259.8 320.5 224.5 320.5H109.8L151.2 361.9C163.7 374.4 163.7 394.7 151.2 407.2C138.7 419.7 118.4 419.7 105.9 407.2L9.8999 311.2C-2.6001 298.7 -2.6001 278.4 9.8999 265.9L105.9 169.9C118.4 157.4 138.7 157.4 151.2 169.9C163.7 182.4 163.7 202.7 151.2 215.2L109.8 256.5H224.5C247.8 256.5 269.7 262.7 288.5 273.6V109.8L247.1 151.2V151.1Z" fill="#47535F"/>
</g>
<defs>
<clipPath id="clip0_104_442">
<rect width="512" height="512" fill="white" transform="translate(0.5 0.5)"/>
</clipPath>
</defs>
</svg>
