<svg width="577" height="513" viewBox="0 0 577 513" fill="none" xmlns="http://www.w3.org/2000/svg">
<g clip-path="url(#clip0_104_458)">
<path d="M384.5 352.5C366.8 352.5 352.5 366.8 352.5 384.5C352.5 402.2 366.8 416.5 384.5 416.5H544.5C562.2 416.5 576.5 402.2 576.5 384.5V224.5C576.5 206.8 562.2 192.5 544.5 192.5C526.8 192.5 512.5 206.8 512.5 224.5V307.2L343.1 137.9C330.6 125.4 310.3 125.4 297.8 137.9L192.5 243.2L55.1 105.9C42.6 93.3999 22.3 93.3999 9.80005 105.9C-2.69995 118.4 -2.69995 138.7 9.80005 151.2L169.8 311.2C182.3 323.7 202.6 323.7 215.1 311.2L320.5 205.8L467.2 352.5H384.5Z" fill="#47535F"/>
</g>
<defs>
<clipPath id="clip0_104_458">
<rect width="576" height="512" fill="white" transform="translate(0.5 0.5)"/>
</clipPath>
</defs>
</svg>
