<svg width="449" height="513" viewBox="0 0 449 513" fill="none" xmlns="http://www.w3.org/2000/svg">
<g clip-path="url(#clip0_104_414)">
<path d="M439.1 279.1C451.6 266.6 451.6 246.3 439.1 233.8L279.1 73.7998C266.6 61.2998 246.3 61.2998 233.8 73.7998C221.3 86.2998 221.3 106.6 233.8 119.1L339.3 224.5H32.5C14.8 224.5 0.5 238.8 0.5 256.5C0.5 274.2 14.8 288.5 32.5 288.5H339.2L233.9 393.9C221.4 406.4 221.4 426.7 233.9 439.2C246.4 451.7 266.7 451.7 279.2 439.2L439.2 279.2L439.1 279.1Z" fill="#47535F"/>
</g>
<defs>
<clipPath id="clip0_104_414">
<rect width="448" height="512" fill="white" transform="translate(0.5 0.5)"/>
</clipPath>
</defs>
</svg>
