<svg width="449" height="513" viewBox="0 0 449 513" fill="none" xmlns="http://www.w3.org/2000/svg">
<g clip-path="url(#clip0_104_396)">
<path d="M9.90039 233.9C-2.59961 246.4 -2.59961 266.7 9.90039 279.2L169.9 439.2C182.4 451.7 202.7 451.7 215.2 439.2C227.7 426.7 227.7 406.4 215.2 393.9L109.7 288.5H416.5C434.2 288.5 448.5 274.2 448.5 256.5C448.5 238.8 434.2 224.5 416.5 224.5H109.8L215.1 119.1C227.6 106.6 227.6 86.2998 215.1 73.7998C202.6 61.2998 182.3 61.2998 169.8 73.7998L9.80039 233.8L9.90039 233.9Z" fill="#47535F"/>
</g>
<defs>
<clipPath id="clip0_104_396">
<rect width="448" height="512" fill="white" transform="translate(0.5 0.5)"/>
</clipPath>
</defs>
</svg>
