<svg width="577" height="513" viewBox="0 0 577 513" fill="none" xmlns="http://www.w3.org/2000/svg">
<g clip-path="url(#clip0_104_464)">
<path d="M384.5 160.5C366.8 160.5 352.5 146.2 352.5 128.5C352.5 110.8 366.8 96.5 384.5 96.5H544.5C562.2 96.5 576.5 110.8 576.5 128.5V288.5C576.5 306.2 562.2 320.5 544.5 320.5C526.8 320.5 512.5 306.2 512.5 288.5V205.8L343.1 375.1C330.6 387.6 310.3 387.6 297.8 375.1L192.5 269.8L55.0998 407.1C42.5998 419.6 22.2998 419.6 9.7998 407.1C-2.7002 394.6 -2.7002 374.3 9.7998 361.8L169.8 201.8C182.3 189.3 202.6 189.3 215.1 201.8L320.5 307.2L467.2 160.5H384.5Z" fill="#47535F"/>
</g>
<defs>
<clipPath id="clip0_104_464">
<rect width="576" height="512" fill="white" transform="translate(0.5 0.5)"/>
</clipPath>
</defs>
</svg>
