<svg width="641" height="513" viewBox="0 0 641 513" fill="none" xmlns="http://www.w3.org/2000/svg">
<g clip-path="url(#clip0_104_438)">
<path d="M9.90005 9.8999C22.4 -2.6001 42.6 -2.6001 55.1 9.8999L160.5 115.2V96.4999C160.5 78.7999 174.8 64.4999 192.5 64.4999C210.2 64.4999 224.5 78.7999 224.5 96.4999V192.5C224.5 196.8 223.6 201 222.1 204.7C220.5 208.4 218.3 212 215.2 215L215.1 215.1C212 218.1 208.5 220.4 204.8 222C201 223.6 196.9 224.4 192.6 224.4H96.5C78.8 224.4 64.5 210.1 64.5 192.4C64.5 174.7 78.8 160.4 96.5 160.4H115.2L9.90005 55.0999C-2.59995 42.5999 -2.59995 22.3999 9.90005 9.8999ZM256.5 256.5C256.5 239.526 263.243 223.247 275.245 211.245C287.248 199.243 303.526 192.5 320.5 192.5C337.474 192.5 353.753 199.243 365.755 211.245C377.757 223.247 384.5 239.526 384.5 256.5C384.5 273.474 377.757 289.752 365.755 301.755C353.753 313.757 337.474 320.5 320.5 320.5C303.526 320.5 287.248 313.757 275.245 301.755C263.243 289.752 256.5 273.474 256.5 256.5ZM115.2 352.5H96.5C78.8 352.5 64.5 338.2 64.5 320.5C64.5 302.8 78.8 288.5 96.5 288.5H192.5H192.6C201.4 288.5 209.3 292.1 215.1 297.8L215.2 297.9C218.2 301 220.5 304.5 222.1 308.2C223.7 312 224.5 316.1 224.5 320.4V416.4C224.5 434.1 210.2 448.4 192.5 448.4C174.8 448.4 160.5 434.1 160.5 416.4V397.8L55.1 503.1C42.6 515.6 22.3 515.6 9.80005 503.1C-2.69995 490.6 -2.69995 470.3 9.80005 457.8L115.2 352.5ZM416.5 96.4999C416.5 78.7999 430.8 64.4999 448.5 64.4999C466.2 64.4999 480.5 78.7999 480.5 96.4999V115.2L585.9 9.8999C598.4 -2.6001 618.7 -2.6001 631.2 9.8999C643.7 22.3999 643.7 42.6999 631.2 55.1999L525.8 160.5H544.5C562.2 160.5 576.5 174.8 576.5 192.5C576.5 210.2 562.2 224.5 544.5 224.5H448.5C439.7 224.5 431.7 220.9 425.9 215.2L425.8 215.1C422.8 212 420.5 208.5 418.9 204.8C417.3 201.1 416.5 197 416.5 192.6V192.5V96.4999ZM525.8 352.5L631.1 457.9C643.6 470.4 643.6 490.7 631.1 503.2C618.6 515.7 598.3 515.7 585.8 503.2L480.5 397.8V416.5C480.5 434.2 466.2 448.5 448.5 448.5C430.8 448.5 416.5 434.2 416.5 416.5V320.5V320.4C416.5 316.1 417.4 312 418.9 308.2C420.5 304.4 422.8 300.9 425.8 297.8C431.6 292 439.5 288.5 448.3 288.4H448.4H544.4C562.1 288.4 576.4 302.7 576.4 320.4C576.4 338.1 562.1 352.4 544.4 352.4H525.8V352.5Z" fill="#47535F"/>
</g>
<defs>
<clipPath id="clip0_104_438">
<rect width="640" height="512" fill="white" transform="translate(0.5 0.5)"/>
</clipPath>
</defs>
</svg>
