<svg width="513" height="513" viewBox="0 0 513 513" fill="none" xmlns="http://www.w3.org/2000/svg">
<g clip-path="url(#clip0_104_456)">
<path d="M279.1 9.8999C266.6 -2.6001 246.3 -2.6001 233.8 9.8999L169.8 73.8999C157.3 86.3999 157.3 106.7 169.8 119.2C182.3 131.7 202.6 131.7 215.1 119.2L224.5 109.8V224.5H109.8L119.2 215.1C131.7 202.6 131.7 182.3 119.2 169.8C106.7 157.3 86.3999 157.3 73.8999 169.8L9.8999 233.8C-2.6001 246.3 -2.6001 266.6 9.8999 279.1L73.8999 343.1C86.3999 355.6 106.7 355.6 119.2 343.1C131.7 330.6 131.7 310.3 119.2 297.8L109.8 288.4H224.5V403.2L215.1 393.8C202.6 381.3 182.3 381.3 169.8 393.8C157.3 406.3 157.3 426.6 169.8 439.1L233.8 503.1C246.3 515.6 266.6 515.6 279.1 503.1L343.1 439.1C355.6 426.6 355.6 406.3 343.1 393.8C330.6 381.3 310.3 381.3 297.8 393.8L288.4 403.2V288.5H403.2L393.8 297.9C381.3 310.4 381.3 330.7 393.8 343.2C406.3 355.7 426.6 355.7 439.1 343.2L503.1 279.2C515.6 266.7 515.6 246.4 503.1 233.9L439.1 169.9C426.6 157.4 406.3 157.4 393.8 169.9C381.3 182.4 381.3 202.7 393.8 215.2L403.2 224.6H288.5V109.8L297.9 119.2C310.4 131.7 330.7 131.7 343.2 119.2C355.7 106.7 355.7 86.3999 343.2 73.8999L279.2 9.8999H279.1Z" fill="#47535F"/>
</g>
<defs>
<clipPath id="clip0_104_456">
<rect width="512" height="512" fill="white" transform="translate(0.5 0.5)"/>
</clipPath>
</defs>
</svg>
