<svg width="577" height="513" viewBox="0 0 577 513" fill="none" xmlns="http://www.w3.org/2000/svg">
<g clip-path="url(#clip0_104_474)">
<path d="M288.5 352.5C306.2 352.5 320.5 338.2 320.5 320.5V109.8L345.9 135.2C358.4 147.7 378.7 147.7 391.2 135.2C403.7 122.7 403.7 102.4 391.2 89.8999L311.2 9.8999C298.7 -2.6001 278.4 -2.6001 265.9 9.8999L185.9 89.8999C173.4 102.4 173.4 122.7 185.9 135.2C198.4 147.7 218.7 147.7 231.2 135.2L256.5 109.8V320.5C256.5 338.2 270.8 352.5 288.5 352.5ZM270 422.4C247.5 437.9 220 448.5 192.5 448.5C165.6 448.5 137.2 437.7 115.1 422.4C103.2 413.9 87 414.6 75.9 424.1C61.5 436 43.4 445.1 25.3 449.3C8.1 453.3 -2.6 470.5 1.4 487.7C5.4 504.9 22.6 515.6 39.8 511.6C64.3 505.9 84.7 495.1 98 486.6C127 502.2 159.5 512.5 192.5 512.5C224.4 512.5 253.1 502.6 272.9 493.6C278.7 490.9 284 488.3 288.5 485.9C293 488.3 298.2 491 304.1 493.6C323.9 502.6 352.6 512.5 384.5 512.5C417.5 512.5 450 502.2 479 486.7C492.4 495.1 512.7 506 537.2 511.7C554.4 515.7 571.6 505 575.6 487.8C579.6 470.6 568.9 453.4 551.7 449.4C533.6 445.2 515.5 436.1 501.1 424.2C490 414.8 473.8 414.1 461.9 422.5C439.9 437.7 411.4 448.5 384.5 448.5C357 448.5 329.5 437.9 307 422.4C295.9 414.5 281.1 414.5 270 422.4ZM192.5 192.5H48.5C22 192.5 0.5 214 0.5 240.5V425.5C5.8 422.4 11.7 420.1 18 418.6C31.1 415.5 44.7 408.8 55.3 400C77.5 381.3 109.6 379.9 133.4 396.6C151.4 409 173.5 416.9 192.5 416.9V192.5ZM576.5 240.5C576.5 214 555 192.5 528.5 192.5H384.5V417C403.5 417 425.7 409.1 443.7 396.7C467.5 380 499.5 381.4 521.8 400.1C532.4 408.9 546 415.7 559.1 418.7C565.4 420.2 571.2 422.5 576.6 425.6V240.5H576.5Z" fill="#47535F"/>
</g>
<defs>
<clipPath id="clip0_104_474">
<rect width="576" height="512" fill="white" transform="translate(0.5 0.5)"/>
</clipPath>
</defs>
</svg>
