<svg width="641" height="513" viewBox="0 0 641 513" fill="none" xmlns="http://www.w3.org/2000/svg">
<g clip-path="url(#clip0_104_430)">
<path d="M32.5 64.5C50.2 64.5 64.5 78.8 64.5 96.5V416.5C64.5 434.2 50.2 448.5 32.5 448.5C14.8 448.5 0.5 434.2 0.5 416.5V96.5C0.5 78.8 14.8 64.5 32.5 64.5ZM247.1 137.9C259.6 150.4 259.6 170.7 247.1 183.2L205.8 224.5H435.3L393.9 183.1C381.4 170.6 381.4 150.3 393.9 137.8C406.4 125.3 426.7 125.3 439.2 137.8L535.2 233.8C547.7 246.3 547.7 266.6 535.2 279.1L439.2 375.1C426.7 387.6 406.4 387.6 393.9 375.1C381.4 362.6 381.4 342.3 393.9 329.8L435.2 288.5H205.7L247.1 329.9C259.6 342.4 259.6 362.7 247.1 375.2C234.6 387.7 214.3 387.7 201.8 375.2L105.8 279.2C93.3 266.7 93.3 246.4 105.8 233.9L201.8 137.9C214.3 125.4 234.6 125.4 247.1 137.9ZM640.5 96.5V416.5C640.5 434.2 626.2 448.5 608.5 448.5C590.8 448.5 576.5 434.2 576.5 416.5V96.5C576.5 78.8 590.8 64.5 608.5 64.5C626.2 64.5 640.5 78.8 640.5 96.5Z" fill="#47535F"/>
</g>
<defs>
<clipPath id="clip0_104_430">
<rect width="640" height="512" fill="white" transform="translate(0.5 0.5)"/>
</clipPath>
</defs>
</svg>
