<svg width="513" height="513" viewBox="0 0 513 513" fill="none" xmlns="http://www.w3.org/2000/svg">
<g clip-path="url(#clip0_104_416)">
<path d="M503.1 279.1C515.6 266.6 515.6 246.3 503.1 233.8L375.1 105.8C362.6 93.2998 342.3 93.2998 329.8 105.8C317.3 118.3 317.3 138.6 329.8 151.1L403.2 224.5H32.5C14.8 224.5 0.5 238.8 0.5 256.5C0.5 274.2 14.8 288.5 32.5 288.5H403.2L329.8 361.9C317.3 374.4 317.3 394.7 329.8 407.2C342.3 419.7 362.6 419.7 375.1 407.2L503.1 279.2V279.1Z" fill="#47535F"/>
</g>
<defs>
<clipPath id="clip0_104_416">
<rect width="512" height="512" fill="white" transform="translate(0.5 0.5)"/>
</clipPath>
</defs>
</svg>
