<svg width="577" height="513" viewBox="0 0 577 513" fill="none" xmlns="http://www.w3.org/2000/svg">
<g clip-path="url(#clip0_104_400)">
<path d="M137.9 503.1C150.4 515.6 170.7 515.6 183.2 503.1L279.2 407.1C291.7 394.6 291.7 374.3 279.2 361.8C266.7 349.3 246.4 349.3 233.9 361.8L192.5 403.2V288.5H544.5C562.2 288.5 576.5 274.2 576.5 256.5C576.5 238.8 562.2 224.5 544.5 224.5H448.5V109.8L489.9 151.2C502.4 163.7 522.7 163.7 535.2 151.2C547.7 138.7 547.7 118.4 535.2 105.9L439.2 9.90039C426.7 -2.59961 406.4 -2.59961 393.9 9.90039L297.9 105.9C285.4 118.4 285.4 138.7 297.9 151.2C310.4 163.7 330.7 163.7 343.2 151.2L384.5 109.8V224.5H192.5H128.5H32.5C14.8 224.5 0.5 238.8 0.5 256.5C0.5 274.2 14.8 288.5 32.5 288.5H128.5V403.2L87.1 361.9C74.6 349.4 54.3 349.4 41.8 361.9C29.3 374.4 29.3 394.7 41.8 407.2L137.8 503.2L137.9 503.1ZM128.5 192.5H192.5V64.5004C192.5 46.8004 178.2 32.5004 160.5 32.5004C142.8 32.5004 128.5 46.8004 128.5 64.5004V192.5ZM448.5 320.5H384.5V448.5C384.5 466.2 398.8 480.5 416.5 480.5C434.2 480.5 448.5 466.2 448.5 448.5V320.5Z" fill="#47535F"/>
</g>
<defs>
<clipPath id="clip0_104_400">
<rect width="576" height="512" fill="white" transform="translate(0.5 0.5)"/>
</clipPath>
</defs>
</svg>
