<svg width="385" height="513" viewBox="0 0 385 513" fill="none" xmlns="http://www.w3.org/2000/svg">
<g clip-path="url(#clip0_104_488)">
<path d="M192.5 32.5C210.2 32.5 224.5 46.8 224.5 64.5V200L336 133.1C351.2 124 370.8 128.9 379.9 144.1C389 159.3 384.1 178.9 368.9 188L254.7 256.5L369 325.1C384.2 334.2 389.1 353.8 380 369C370.9 384.2 351.3 389.1 336.1 380L224.5 313V448.5C224.5 466.2 210.2 480.5 192.5 480.5C174.8 480.5 160.5 466.2 160.5 448.5V313L49 379.9C33.8 389 14.2 384.1 5.09996 368.9C-4.00004 353.7 0.899963 334.1 16.1 325L130.3 256.5L16 187.9C0.799963 178.8 -4.10004 159.2 4.99996 144C14.1 128.8 33.7 123.9 48.9 133L160.5 200V64.5C160.5 46.8 174.8 32.5 192.5 32.5Z" fill="#47535F"/>
</g>
<defs>
<clipPath id="clip0_104_488">
<rect width="384" height="512" fill="white" transform="translate(0.5 0.5)"/>
</clipPath>
</defs>
</svg>
