<svg width="513" height="513" viewBox="0 0 513 513" fill="none" xmlns="http://www.w3.org/2000/svg">
<g clip-path="url(#clip0_104_504)">
<path d="M256.5 64.5C150.5 64.5 64.5 150.5 64.5 256.5C64.5 362.5 150.5 448.5 256.5 448.5C274.2 448.5 288.5 462.8 288.5 480.5C288.5 498.2 274.2 512.5 256.5 512.5C115.1 512.5 0.5 397.9 0.5 256.5C0.5 115.1 115.1 0.5 256.5 0.5C397.9 0.5 512.5 115.1 512.5 256.5V288.5C512.5 341.5 469.5 384.5 416.5 384.5C387.2 384.5 360.9 371.3 343.3 350.6C320.5 371.6 290 384.5 256.5 384.5C185.8 384.5 128.5 327.2 128.5 256.5C128.5 185.8 185.8 128.5 256.5 128.5C284.4 128.5 310.2 137.4 331.2 152.6C336.9 147.6 344.3 144.5 352.5 144.5C370.2 144.5 384.5 158.8 384.5 176.5V256.5V288.5C384.5 306.2 398.8 320.5 416.5 320.5C434.2 320.5 448.5 306.2 448.5 288.5V256.5C448.5 150.5 362.5 64.5 256.5 64.5ZM320.5 256.5C320.5 239.526 313.757 223.247 301.755 211.245C289.752 199.243 273.474 192.5 256.5 192.5C239.526 192.5 223.247 199.243 211.245 211.245C199.243 223.247 192.5 239.526 192.5 256.5C192.5 273.474 199.243 289.752 211.245 301.755C223.247 313.757 239.526 320.5 256.5 320.5C273.474 320.5 289.752 313.757 301.755 301.755C313.757 289.752 320.5 273.474 320.5 256.5Z" fill="#47535F"/>
</g>
<defs>
<clipPath id="clip0_104_504">
<rect width="512" height="512" fill="white" transform="translate(0.5 0.5)"/>
</clipPath>
</defs>
</svg>
