<svg width="513" height="513" viewBox="0 0 513 513" fill="none" xmlns="http://www.w3.org/2000/svg">
<g clip-path="url(#clip0_104_494)">
<path d="M256.5 399.3C244.7 404.4 233.1 409 221.6 412.8C238.3 446.6 252.6 448.5 256.5 448.5C260.4 448.5 274.6 446.6 291.4 412.8C280 408.9 268.3 404.4 256.5 399.3ZM446.5 256.5C479.5 301.7 490.8 347.4 470.1 384.5C449.9 420.8 407.6 433.8 354.9 427.7C332.9 479.8 299.3 512.5 256.5 512.5C213.7 512.5 180.1 479.8 158.1 427.7C105.4 433.8 63.1002 420.9 42.9002 384.5C22.2002 347.4 33.5002 301.7 66.5002 256.5C33.5002 211.3 22.2002 165.6 42.9002 128.5C63.1002 92.2 105.4 79.2 158.1 85.3C180.1 33.2 213.7 0.5 256.5 0.5C299.3 0.5 332.9 33.2 354.9 85.3C407.6 79.2 449.9 92.1 470.1 128.5C490.8 165.6 479.5 211.3 446.5 256.5ZM380.7 323.9C379 338.1 376.8 351.9 374 365.1C405.8 366.5 412.6 356.4 414.2 353.4C416.5 349.2 421.2 335.5 402.3 305.3C395.5 311.6 388.3 317.8 380.7 323.9ZM374 148C376.8 161.1 379 174.9 380.7 189.2C388.3 195.3 395.5 201.5 402.3 207.8C421.2 177.6 416.5 163.8 414.2 159.7C412.6 156.8 405.8 146.7 374 148ZM291.4 100.2C274.6 66.4 260.4 64.5 256.5 64.5C252.6 64.5 238.4 66.4 221.6 100.2C233 104.1 244.7 108.6 256.5 113.7C268.3 108.6 279.9 104 291.4 100.2ZM132.4 189.1C134.1 174.8 136.3 161.1 139.1 147.9C107.3 146.5 100.5 156.6 98.9002 159.6C96.6002 163.8 91.9002 177.5 110.8 207.7C117.6 201.4 124.8 195.2 132.4 189.1ZM110.7 305.3C91.9002 335.5 96.5002 349.2 98.8002 353.4C100.4 356.3 107.2 366.4 139 365.1C136.2 352 134 338.2 132.3 323.9C124.7 317.8 117.5 311.6 110.7 305.3ZM336.5 256.5C336.5 235.283 328.072 214.934 313.069 199.931C298.066 184.929 277.718 176.5 256.5 176.5C235.283 176.5 214.935 184.929 199.932 199.931C184.929 214.934 176.5 235.283 176.5 256.5C176.5 277.717 184.929 298.066 199.932 313.069C214.935 328.071 235.283 336.5 256.5 336.5C277.718 336.5 298.066 328.071 313.069 313.069C328.072 298.066 336.5 277.717 336.5 256.5ZM256.5 224.5C264.987 224.5 273.126 227.871 279.128 233.873C285.129 239.874 288.5 248.013 288.5 256.5C288.5 264.987 285.129 273.126 279.128 279.127C273.126 285.129 264.987 288.5 256.5 288.5C248.013 288.5 239.874 285.129 233.873 279.127C227.872 273.126 224.5 264.987 224.5 256.5C224.5 248.013 227.872 239.874 233.873 233.873C239.874 227.871 248.013 224.5 256.5 224.5Z" fill="#47535F"/>
</g>
<defs>
<clipPath id="clip0_104_494">
<rect width="512" height="512" fill="white" transform="translate(0.5 0.5)"/>
</clipPath>
</defs>
</svg>
