<svg width="577" height="513" viewBox="0 0 577 513" fill="none" xmlns="http://www.w3.org/2000/svg">
<g clip-path="url(#clip0_104_496)">
<path d="M64.5 32.5C29.2 32.5 0.5 61.2 0.5 96.5V416.5C0.5 451.8 29.2 480.5 64.5 480.5H512.5C547.8 480.5 576.5 451.8 576.5 416.5V96.5C576.5 61.2 547.8 32.5 512.5 32.5H64.5ZM214 173.8L286 317.8C291.9 329.7 287.1 344.1 275.3 350C263.5 355.9 249 351.1 243.1 339.3L233.7 320.4H151.4L142 339.3C136.1 351.2 121.7 356 109.8 350C97.9 344 93.1 329.7 99.1 317.8L171.1 173.8C175.2 165.7 183.5 160.5 192.6 160.5C201.7 160.5 210 165.6 214.1 173.8H214ZM213.6 280.4L192.5 238.2L171.4 280.4H213.6ZM304.5 184.5C304.5 171.2 315.2 160.5 328.5 160.5H384.5C437.5 160.5 480.5 203.5 480.5 256.5C480.5 309.5 437.5 352.5 384.5 352.5H328.5C315.2 352.5 304.5 341.8 304.5 328.5V184.5ZM352.5 208.5V304.5H384.5C411 304.5 432.5 283 432.5 256.5C432.5 230 411 208.5 384.5 208.5H352.5Z" fill="#47535F"/>
</g>
<defs>
<clipPath id="clip0_104_496">
<rect width="576" height="512" fill="white" transform="translate(0.5 0.5)"/>
</clipPath>
</defs>
</svg>
