<svg width="449" height="513" viewBox="0 0 449 513" fill="none" xmlns="http://www.w3.org/2000/svg">
<g clip-path="url(#clip0_104_528)">
<path d="M254 52.2C249.1 40.3 237.4 32.5 224.5 32.5C211.6 32.5 199.9 40.3 195 52.2L123.2 224.5H32.5C14.8 224.5 0.5 238.8 0.5 256.5C0.5 274.2 14.8 288.5 32.5 288.5H96.5L83.2 320.5H32.5C14.8 320.5 0.5 334.8 0.5 352.5C0.5 370.2 14.8 384.5 32.5 384.5H56.5L35 436.2C28.2 452.5 35.9 471.2 52.2 478C68.5 484.8 87.2 477.1 94 460.8L125.8 384.5H323.2L355 460.8C361.8 477.1 380.5 484.8 396.8 478C413.1 471.2 420.8 452.5 414 436.2L392.5 384.5H416.5C434.2 384.5 448.5 370.2 448.5 352.5C448.5 334.8 434.2 320.5 416.5 320.5H365.8L352.5 288.5H416.5C434.2 288.5 448.5 274.2 448.5 256.5C448.5 238.8 434.2 224.5 416.5 224.5H325.8L254 52.2ZM256.5 224.5H192.5L224.5 147.7L256.5 224.5ZM165.8 288.5H283.2L296.5 320.5H152.5L165.8 288.5Z" fill="#47535F"/>
</g>
<defs>
<clipPath id="clip0_104_528">
<rect width="448" height="512" fill="white" transform="translate(0.5 0.5)"/>
</clipPath>
</defs>
</svg>
