<svg width="385" height="513" viewBox="0 0 385 513" fill="none" xmlns="http://www.w3.org/2000/svg">
<g clip-path="url(#clip0_104_500)">
<path d="M174.301 5.9999C185.301 -1.3001 199.701 -1.3001 210.701 5.9999L228.501 17.6999C234.501 21.5999 241.501 23.4999 248.601 23.0999L269.901 21.7999C283.101 20.9999 295.501 28.1999 301.401 39.9999L311.001 59.0999C314.201 65.4999 319.401 70.5999 325.701 73.7999L345.001 83.4999C356.801 89.3999 364.001 101.8 363.201 115L361.901 136.3C361.501 143.4 363.401 150.5 367.301 156.4L379.101 174.2C386.401 185.2 386.401 199.6 379.101 210.6L367.301 228.5C363.401 234.5 361.501 241.5 361.901 248.6L363.201 269.9C364.001 283.1 356.801 295.5 345.001 301.4L325.901 311C319.501 314.2 314.401 319.4 311.201 325.7L301.501 345C295.601 356.8 283.201 364 270.001 363.2L248.701 361.9C241.601 361.5 234.501 363.4 228.601 367.3L210.801 379.1C199.801 386.4 185.401 386.4 174.401 379.1L156.501 367.3C150.501 363.4 143.501 361.5 136.401 361.9L115.101 363.2C101.901 364 89.5009 356.8 83.6009 345L74.0009 325.9C70.8009 319.5 65.6009 314.4 59.3009 311.2L40.0009 301.5C28.2009 295.6 21.0009 283.2 21.8009 270L23.1009 248.7C23.5009 241.6 21.6009 234.5 17.7009 228.6L6.00094 210.7C-1.29906 199.7 -1.29906 185.3 6.00094 174.3L17.7009 156.5C21.6009 150.5 23.5009 143.5 23.1009 136.4L21.8009 115.1C21.0009 101.9 28.2009 89.4999 40.0009 83.5999L59.1009 73.9999C65.5009 70.6999 70.7009 65.4999 73.9009 59.0999L83.5009 39.9999C89.4009 28.1999 101.801 20.9999 115.001 21.7999L136.301 23.0999C143.401 23.4999 150.501 21.5999 156.401 17.6999L174.301 5.9999ZM272.501 192.5C272.501 171.283 264.072 150.934 249.069 135.931C234.067 120.928 213.718 112.5 192.501 112.5C171.284 112.5 150.935 120.928 135.932 135.931C120.929 150.934 112.501 171.283 112.501 192.5C112.501 213.717 120.929 234.066 135.932 249.068C150.935 264.071 171.284 272.5 192.501 272.5C213.718 272.5 234.067 264.071 249.069 249.068C264.072 234.066 272.501 213.717 272.501 192.5ZM1.80094 442.3L44.9009 339.8C45.1009 339.9 45.2009 340 45.3009 340.2L54.9009 359.3C66.6009 382.5 90.9009 396.6 116.901 395.1L138.201 393.8C138.401 393.8 138.701 393.8 138.901 394L156.701 405.8C161.801 409.1 167.201 411.7 172.801 413.5L135.201 502.8C132.901 508.3 127.801 512 121.901 512.5C116.001 513 110.301 510.3 107.101 505.3L74.9009 456L18.8009 464.3C13.1009 465.1 7.40094 462.8 3.80094 458.3C0.200943 453.8 -0.499057 447.6 1.70094 442.3H1.80094ZM249.801 502.7L212.201 413.5C217.801 411.7 223.201 409.2 228.301 405.8L246.101 394C246.301 393.9 246.501 393.8 246.801 393.8L268.101 395.1C294.101 396.6 318.401 382.5 330.101 359.3L339.701 340.2C339.801 340 339.901 339.9 340.101 339.8L383.301 442.3C385.501 447.6 384.701 453.7 381.201 458.3C377.701 462.9 371.901 465.2 366.201 464.3L310.101 456L277.901 505.2C274.701 510.2 269.001 512.9 263.101 512.4C257.201 511.9 252.101 508.1 249.801 502.7Z" fill="#47535F"/>
</g>
<defs>
<clipPath id="clip0_104_500">
<rect width="384" height="512" fill="white" transform="translate(0.5 0.5)"/>
</clipPath>
</defs>
</svg>
