<svg width="321" height="513" viewBox="0 0 321 513" fill="none" xmlns="http://www.w3.org/2000/svg">
<g clip-path="url(#clip0_104_524)">
<path d="M64.5 32.5C29.2 32.5 0.5 61.2 0.5 96.5V256.5V416.5C0.5 451.8 29.2 480.5 64.5 480.5H192.5C263.2 480.5 320.5 423.2 320.5 352.5C320.5 306 295.7 265.2 258.5 242.8C277.2 220.5 288.5 191.8 288.5 160.5C288.5 89.8 231.2 32.5 160.5 32.5H64.5ZM160.5 224.5H64.5V96.5H160.5C195.8 96.5 224.5 125.2 224.5 160.5C224.5 195.8 195.8 224.5 160.5 224.5ZM64.5 288.5H160.5H192.5C227.8 288.5 256.5 317.2 256.5 352.5C256.5 387.8 227.8 416.5 192.5 416.5H64.5V288.5Z" fill="#47535F"/>
</g>
<defs>
<clipPath id="clip0_104_524">
<rect width="320" height="512" fill="white" transform="translate(0.5 0.5)"/>
</clipPath>
</defs>
</svg>
