<svg width="449" height="513" viewBox="0 0 449 513" fill="none" xmlns="http://www.w3.org/2000/svg">
<g clip-path="url(#clip0_104_498)">
<path d="M152.499 88.5C152.499 79.0448 154.361 69.6822 157.98 60.9468C161.598 52.2114 166.902 44.2741 173.587 37.5883C180.273 30.9025 188.21 25.599 196.946 21.9807C205.681 18.3623 215.044 16.5 224.499 16.5C233.954 16.5 243.317 18.3623 252.052 21.9807C260.788 25.599 268.725 30.9025 275.411 37.5883C282.097 44.2741 287.4 52.2114 291.018 60.9468C294.637 69.6822 296.499 79.0448 296.499 88.5C296.499 97.9552 294.637 107.318 291.018 116.053C287.4 124.789 282.097 132.726 275.411 139.412C268.725 146.098 260.788 151.401 252.052 155.019C243.317 158.638 233.954 160.5 224.499 160.5C215.044 160.5 205.681 158.638 196.946 155.019C188.21 151.401 180.273 146.098 173.587 139.412C166.902 132.726 161.598 124.789 157.98 116.053C154.361 107.318 152.499 97.9552 152.499 88.5ZM40.1991 145C53.1991 127.1 78.1991 123.2 96.0991 136.2L132.299 162.5C159.099 182 191.399 192.5 224.499 192.5C257.599 192.5 289.899 182 316.699 162.5L352.899 136.1C370.799 123.1 395.799 127.1 408.799 144.9C421.799 162.7 417.799 187.8 399.999 200.8L363.799 227.2C350.199 237.1 335.699 245.4 320.499 252.2V288.5H128.499V252.2C113.299 245.5 98.7991 237.1 85.1991 227.2L48.9991 200.8C31.0991 187.8 27.1991 162.8 40.1991 144.9V145ZM129.999 329.8L190.599 382.8L164.599 420L188.899 444.3C204.499 459.9 204.499 485.2 188.899 500.9C173.299 516.6 147.999 516.5 132.299 500.9L84.2991 452.9C70.4991 439.1 68.5991 417.5 79.6991 401.6L129.899 329.8H129.999ZM258.499 382.8L319.099 329.8L369.299 401.6C380.399 417.5 378.499 439.1 364.799 452.8L316.799 500.8C301.199 516.4 275.899 516.4 260.199 500.8C244.499 485.2 244.599 459.9 260.199 444.2L284.499 419.9L258.499 382.7V382.8Z" fill="#47535F"/>
</g>
<defs>
<clipPath id="clip0_104_498">
<rect width="448" height="512" fill="white" transform="translate(0.5 0.5)"/>
</clipPath>
</defs>
</svg>
