<svg width="513" height="513" viewBox="0 0 513 513" fill="none" xmlns="http://www.w3.org/2000/svg">
<g clip-path="url(#clip0_104_506)">
<path d="M256.5 192.5H0.6C3.2 118.4 41.8 53.3998 99.5 14.5998C112.8 5.69984 130.3 10.2998 139.4 23.3998L256.5 192.5ZM384.5 160.5C384.5 125.2 413.2 96.4998 448.5 96.4998H480.5C498.2 96.4998 512.5 110.8 512.5 128.5C512.5 146.2 498.2 160.5 480.5 160.5H448.5V224.5C448.5 249.7 442.7 274.7 431.5 298C420.3 321.3 403.7 342.5 382.9 360.3C362.1 378.1 337.4 392.3 310.2 401.9C283 411.5 253.9 416.5 224.5 416.5C195.1 416.5 166 411.5 138.8 401.9C111.6 392.3 86.9 378.1 66.1 360.3C45.3 342.5 28.8 321.3 17.5 298C6.2 274.7 0.5 249.7 0.5 224.5H224.5H384.5V160.5ZM80.5 416.5C93.2304 416.5 105.439 421.557 114.441 430.559C123.443 439.56 128.5 451.769 128.5 464.5C128.5 477.23 123.443 489.439 114.441 498.441C105.439 507.443 93.2304 512.5 80.5 512.5C67.7696 512.5 55.5606 507.443 46.5589 498.441C37.5571 489.439 32.5 477.23 32.5 464.5C32.5 451.769 37.5571 439.56 46.5589 430.559C55.5606 421.557 67.7696 416.5 80.5 416.5ZM320.5 464.5C320.5 451.769 325.557 439.56 334.559 430.559C343.561 421.557 355.77 416.5 368.5 416.5C381.23 416.5 393.439 421.557 402.441 430.559C411.443 439.56 416.5 451.769 416.5 464.5C416.5 477.23 411.443 489.439 402.441 498.441C393.439 507.443 381.23 512.5 368.5 512.5C355.77 512.5 343.561 507.443 334.559 498.441C325.557 489.439 320.5 477.23 320.5 464.5Z" fill="#47535F"/>
</g>
<defs>
<clipPath id="clip0_104_506">
<rect width="512" height="512" fill="white" transform="translate(0.5 0.5)"/>
</clipPath>
</defs>
</svg>
