<svg width="513" height="513" viewBox="0 0 513 513" fill="none" xmlns="http://www.w3.org/2000/svg">
<g clip-path="url(#clip0_104_508)">
<path d="M460 441.1C469.5 449 482.8 450.8 494.1 445.5C505.4 440.2 512.5 428.9 512.5 416.5V96.4999C512.5 84.0999 505.3 72.7999 494.1 67.4999C482.9 62.1999 469.6 63.8999 460 71.8999L288.5 214.8V256.5V298.2L460 441.1ZM256.5 352.5V256.5V128.5V96.4999C256.5 84.0999 249.3 72.7999 238.1 67.4999C226.9 62.1999 213.6 63.8999 204 71.8999L12 231.9C4.7 238 0.5 247 0.5 256.5C0.5 266 4.7 275 12 281.1L204 441.1C213.5 449 226.8 450.8 238.1 445.5C249.4 440.2 256.5 428.9 256.5 416.5V352.5Z" fill="#47535F"/>
</g>
<defs>
<clipPath id="clip0_104_508">
<rect width="512" height="512" fill="white" transform="translate(0.5 0.5)"/>
</clipPath>
</defs>
</svg>
