<svg width="513" height="513" viewBox="0 0 513 513" fill="none" xmlns="http://www.w3.org/2000/svg">
<g clip-path="url(#clip0_104_526)">
<path d="M494.1 445.5C482.9 450.8 469.6 449.1 460 441.1L288.5 298.2V416.5C288.5 428.9 281.3 440.2 270.1 445.5C258.9 450.8 245.6 449.1 236 441.1L64.5 298.2V416.5C64.5 434.2 50.2 448.5 32.5 448.5C14.8 448.5 0.5 434.2 0.5 416.5V96.4999C0.5 78.7999 14.8 64.4999 32.5 64.4999C50.2 64.4999 64.5 78.7999 64.5 96.4999V214.8L236 71.8999C245.5 63.9999 258.8 62.1999 270.1 67.4999C281.4 72.7999 288.5 84.0999 288.5 96.4999V214.8L460 71.8999C469.5 63.9999 482.8 62.1999 494.1 67.4999C505.4 72.7999 512.5 84.0999 512.5 96.4999V416.5C512.5 428.9 505.3 440.2 494.1 445.5Z" fill="#47535F"/>
</g>
<defs>
<clipPath id="clip0_104_526">
<rect width="512" height="512" fill="white" transform="translate(0.5 0.5)"/>
</clipPath>
</defs>
</svg>
