<svg width="321" height="513" viewBox="0 0 321 513" fill="none" xmlns="http://www.w3.org/2000/svg">
<g clip-path="url(#clip0_104_514)">
<path d="M268 441.1C277.5 449 290.8 450.8 302.1 445.5C313.4 440.2 320.5 428.9 320.5 416.5V96.4999C320.5 84.0999 313.3 72.7999 302.1 67.4999C290.9 62.1999 277.6 63.8999 268 71.8999L76 231.9L64.5 241.5V96.4999C64.5 78.7999 50.2 64.4999 32.5 64.4999C14.8 64.4999 0.5 78.7999 0.5 96.4999V416.5C0.5 434.2 14.8 448.5 32.5 448.5C50.2 448.5 64.5 434.2 64.5 416.5V271.5L76 281.1L268 441.1Z" fill="#47535F"/>
</g>
<defs>
<clipPath id="clip0_104_514">
<rect width="320" height="512" fill="white" transform="translate(0.5 0.5)"/>
</clipPath>
</defs>
</svg>
