<svg width="577" height="513" viewBox="0 0 577 513" fill="none" xmlns="http://www.w3.org/2000/svg">
<g clip-path="url(#clip0_104_512)">
<path d="M439.7 1.6999C450.9 -1.5001 462.9 1.5999 471.1 9.7999L518.5 57.1999L492 65.0999C434 81.6999 393.9 104.7 362.4 132.5C331.2 160 309.2 191.6 287.3 223.4L285 226.7C242.1 289.2 195.5 357.1 73.2998 418.2L38.3998 435.7L9.89975 407.1C2.59975 399.8 -0.700249 389.5 0.899751 379.3C2.49975 369.1 8.99975 360.4 18.1998 355.8C136.6 296.7 181.4 231.5 223.8 169.8L226.1 166.4C247.9 134.6 271 101.5 303.8 72.4999C337.2 42.9999 379.6 18.8999 439.7 1.6999ZM62.2998 459.5L87.6997 446.8C217.2 382.1 267.6 308.7 311.5 244.8L313.7 241.5C335.8 209.4 355.8 181 383.6 156.4C411.1 132.1 447 111.2 500.9 95.7999L501.1 95.6999L544.2 82.7999L567.2 105.8C575.2 113.8 578.4 125.5 575.5 136.5C572.6 147.5 564.2 156.1 553.3 159.2C501.4 174 467.7 193.9 442.2 216.4C416.1 239.4 397.1 266.3 374.9 298.5L372.7 301.7C328.3 366.4 276 442.5 142.8 509.1C130.5 515.3 115.6 512.8 105.9 503.1L62.2998 459.5Z" fill="#47535F"/>
</g>
<defs>
<clipPath id="clip0_104_512">
<rect width="576" height="512" fill="white" transform="translate(0.5 0.5)"/>
</clipPath>
</defs>
</svg>
