<svg width="641" height="513" viewBox="0 0 641 513" fill="none" xmlns="http://www.w3.org/2000/svg">
<g clip-path="url(#clip0_104_518)">
<path d="M305.4 1.19997C295.8 -1.50003 285.9 3.99997 283.1 13.6L278.8 28.8C270.5 28.2 262 28.8 253.6 30.7C246.3 32.4 239.3 34.2 232.5 36.2L227 23.5C223.1 14.4 212.5 10.1 203.4 14C194.3 17.9 190 28.5 193.9 37.6L198.3 48C181.7 54.7 166.6 62.4 152.9 70.8L147.5 62.5C142 54.2 130.8 52 122.5 57.5C114.2 63 112 74.2 117.5 82.5L123.5 91.5C109.8 102.5 98.0005 114.3 87.7005 126.4L77.7005 118.4C69.9005 112.2 58.6005 113.4 52.4005 121.2C46.2005 129 47.4005 140.3 55.2005 146.5L66.4005 155.5C64.6005 158.3 62.9005 161.2 61.3005 164C54.7005 175.4 49.5005 186.6 45.3005 197L37.3005 193.8C28.1005 190.1 17.6005 194.6 13.9005 203.8C10.2005 213 14.7005 223.5 23.9005 227.2L34.3005 231.4C34.1005 232.2 33.9005 232.9 33.8005 233.7C31.6005 243 30.4005 251 29.7005 257.1C29.3005 260.2 29.1005 262.8 28.9005 264.9C28.8005 266 28.8005 266.9 28.7005 267.7L28.6005 268.8V269.3V269.5V269.6C28.6005 269.6 28.6005 269.7 57.7005 270.6H57.6005L28.5005 269.8C28.4005 272.9 28.5005 275.9 28.7005 278.9L13.5005 283.2C4.00048 285.9 -1.49952 295.9 1.20048 305.4C3.90048 314.9 13.9005 320.5 23.5005 317.8L39.1005 313.3C46.7005 326.9 58.0005 338.3 71.7005 345.9L67.2005 361.5C64.5005 371.1 70.0005 381 79.6005 383.8C89.2005 386.6 99.1005 381 101.9 371.4L106.2 356.2C107.4 356.3 108.6 356.4 109.8 356.4C125.4 356.9 140.1 353.1 152.8 346.2L161.8 355.2C168.8 362.2 180.2 362.2 187.3 355.2C194.4 348.2 194.3 336.8 187.3 329.7L180.1 322.5C189.4 309.9 195.3 294.7 196.4 278L203.5 281C212.6 284.9 223.2 280.7 227.1 271.5C231 262.3 226.8 251.8 217.6 247.9L209 244.2C215.4 234.3 226.3 221.8 245.9 210.9L247.2 215.3C249.9 224.9 259.9 230.4 269.5 227.7C279.1 225 284.6 215 281.9 205.4L279.6 197.3C283.4 196.2 287.3 195.2 291.5 194.2C303.1 191.5 313.6 186.5 322.6 179.8L329.8 187C336.8 194 348.2 194 355.3 187C362.4 180 362.3 168.6 355.3 161.5L346.3 152.5C353.9 138.6 357.6 122.4 356.4 105.9L371.6 101.6C381.2 98.9 386.7 88.9 384 79.3C381.3 69.7 371.1 64.5 361.5 67.2L345.9 71.7C338.2 57.8 326.8 46.6 313.3 39.1L317.8 23.5C320.5 13.9 315 3.99997 305.4 1.19997ZM112.5 272.5L64.5005 271C76.2005 271.4 91.8005 271.9 112.5 272.6V272.5ZM128.5 192.5C136.987 192.5 145.127 195.871 151.128 201.873C157.129 207.874 160.5 216.013 160.5 224.5C160.5 232.987 157.129 241.126 151.128 247.127C145.127 253.129 136.987 256.5 128.5 256.5C120.014 256.5 111.874 253.129 105.873 247.127C99.8719 241.126 96.5005 232.987 96.5005 224.5C96.5005 216.013 99.8719 207.874 105.873 201.873C111.874 195.871 120.014 192.5 128.5 192.5ZM192.5 144.5C192.5 140.257 194.186 136.187 197.187 133.186C200.187 130.186 204.257 128.5 208.5 128.5C212.744 128.5 216.814 130.186 219.814 133.186C222.815 136.187 224.5 140.257 224.5 144.5C224.5 148.743 222.815 152.813 219.814 155.814C216.814 158.814 212.744 160.5 208.5 160.5C204.257 160.5 200.187 158.814 197.187 155.814C194.186 152.813 192.5 148.743 192.5 144.5ZM323.201 489.5C320.501 499.1 326 509 335.6 511.8C345.2 514.6 355.1 509 357.8 499.4L362.1 484.2C370.4 484.8 378.9 484.2 387.3 482.3C394.6 480.6 401.6 478.8 408.4 476.8L413.9 489.5C417.8 498.6 428.4 502.9 437.5 499C446.6 495.1 450.9 484.5 447 475.4L442.6 465C459.2 458.3 474.3 450.6 488 442.2L493.5 450.5C499 458.8 510.2 461 518.5 455.5C526.8 450 529 438.8 523.5 430.5L517.5 421.5C531.2 410.5 543 398.7 553.3 386.6L563.3 394.6C571.1 400.8 582.4 399.6 588.6 391.8C594.8 384 593.6 372.7 585.8 366.5L574.6 357.5C576.4 354.7 578.101 351.8 579.701 349C586.301 337.6 591.501 326.4 595.701 316L603.701 319.2C612.901 322.9 623.4 318.4 627.1 309.2C630.8 300 626.3 289.5 617.1 285.8L606.701 281.6C606.901 280.8 607.101 280.1 607.201 279.3C609.401 270 610.6 262 611.3 255.9C611.7 252.8 611.9 250.2 612.1 248.1C612.2 247 612.2 246.1 612.3 245.3L612.401 244.2V243.7V243.5V243.4C612.401 243.4 612.4 243.3 583.3 242.4H583.401L612.5 243.3C612.6 240.2 612.5 237.2 612.3 234.2L627.5 229.9C637.1 227.2 642.601 217.2 639.901 207.6C637.201 198 627.2 192.5 617.6 195.2L602 199.7C594.4 186.1 583.101 174.7 569.401 167.1L573.901 151.5C576.601 141.9 571.1 132 561.5 129.2C551.9 126.4 542.001 132 539.201 141.6L534.901 156.8C533.701 156.7 532.5 156.6 531.3 156.6C515.7 156.1 501 159.9 488.3 166.8L479.3 157.8C472.3 150.8 460.9 150.8 453.8 157.8C446.7 164.8 446.8 176.2 453.8 183.3L461 190.5C451.7 203.1 445.801 218.3 444.701 235L437.6 232C428.5 228.1 417.9 232.3 414 241.5C410.1 250.7 414.3 261.2 423.5 265.1L432.1 268.8C425.7 278.7 414.801 291.2 395.201 302.1L393.9 297.7C391.2 288.1 381.2 282.6 371.6 285.3C362 288 356.501 298 359.201 307.6L361.5 315.7C357.7 316.8 353.8 317.8 349.6 318.8C338 321.5 327.5 326.5 318.5 333.2L311.3 326C304.3 319 292.9 319 285.8 326C278.7 333 278.8 344.4 285.8 351.5L294.8 360.5C287.2 374.4 283.501 390.6 284.701 407.1L269.5 411.4C259.9 414.1 254.4 424.1 257.1 433.6C259.8 443.1 269.8 448.7 279.4 446L295 441.5C302.7 455.4 314.1 466.6 327.6 474.1L323.201 489.5ZM576.5 242C564.8 241.6 549.2 241.1 528.5 240.4L576.5 241.9V242ZM448.5 384.5C448.5 392.987 445.129 401.126 439.128 407.127C433.127 413.129 424.987 416.5 416.5 416.5C408.014 416.5 399.874 413.129 393.873 407.127C387.872 401.126 384.5 392.987 384.5 384.5C384.5 376.013 387.872 367.874 393.873 361.873C399.874 355.871 408.014 352.5 416.5 352.5C424.987 352.5 433.127 355.871 439.128 361.873C445.129 367.874 448.5 376.013 448.5 384.5Z" fill="#47535F"/>
</g>
<defs>
<clipPath id="clip0_104_518">
<rect width="640" height="512" fill="white" transform="translate(0.5 0.5)"/>
</clipPath>
</defs>
</svg>
