<svg width="513" height="513" viewBox="0 0 513 513" fill="none" xmlns="http://www.w3.org/2000/svg">
<g clip-path="url(#clip0_104_516)">
<path d="M423.601 31.1C427.201 18.4 419.901 5.10002 407.101 1.40002C394.301 -2.29998 381.101 5.10002 377.401 17.9L373.201 32.6C363.401 32.2 353.301 33.1 343.301 35.4C331.201 38.2 319.601 41.3 308.401 44.8L302.501 31.1C297.301 18.9 283.201 13.3 271.001 18.5C258.801 23.7 253.201 37.8 258.401 50L263.301 61.3C241.301 70.7 221.301 81.4 203.101 93.1L196.501 83.2C189.101 72.2 174.201 69.2 163.201 76.5C152.201 83.8 149.201 98.8 156.501 109.8L164.301 121.4C146.301 136.4 130.601 152.2 117.001 168.5L103.501 157.8C93.1006 149.5 78.0006 151.2 69.8006 161.5C61.6006 171.8 63.2006 187 73.5006 195.2L88.5006 207.2C86.4006 210.4 84.4006 213.7 82.5006 216.9C73.1006 232.6 65.5006 247.9 59.3006 262.2L49.4006 258.3C37.1006 253.4 23.1006 259.4 18.2006 271.7C13.3006 284 19.3006 298 31.6006 302.9L43.2006 307.5C42.9006 308.6 42.6006 309.6 42.3006 310.6C38.8006 323.1 36.6006 333.8 35.2006 341.9C34.5006 346 34.0006 349.4 33.6006 352.2C33.4006 353.6 33.3006 354.8 33.2006 355.8L33.1006 357.2L33.0006 357.8V358.1V358.2C33.0006 358.2 33.0006 358.3 72.2006 361.9L33.0006 358.3C32.5006 363.3 32.4006 368.3 32.6006 373.2L17.9006 377.4C5.20058 381.1 -2.19942 394.3 1.40058 407.1C5.00058 419.9 18.3006 427.2 31.1006 423.6L44.9006 419.7C55.5006 440.4 72.5006 457.5 93.4006 468.2L89.5006 481.9C85.9006 494.6 93.2006 507.9 106.001 511.6C118.801 515.3 132.001 507.9 135.701 495.1L139.901 480.4C163.701 481.4 186.201 474.9 205.001 462.8L215.501 473.5C224.901 482.9 240.101 482.9 249.401 473.5C258.701 464.1 258.801 448.9 249.401 439.6L238.801 429C247.901 414.9 253.901 398.5 255.801 380.7L255.901 379.9C256.201 378.2 256.901 374.8 258.201 370.1L258.401 369.3L271.001 374.7C283.201 379.9 297.301 374.3 302.501 362.1C307.701 349.9 302.101 335.8 289.901 330.6L278.601 325.8C288.501 310.9 303.501 294.2 327.201 279.8L329.301 287.3C332.901 300 346.201 307.4 359.001 303.8C371.801 300.2 379.101 286.9 375.501 274.1L371.501 259.7C378.401 257.5 385.801 255.4 393.701 253.6C406.601 250.6 418.401 245.6 428.901 238.8L439.501 249.5C448.901 258.9 464.101 258.9 473.401 249.5C482.701 240.1 482.801 224.9 473.401 215.6L462.801 205C475.001 186 481.401 163.4 480.401 139.9L495.101 135.7C507.801 132.1 515.201 118.8 511.601 106C508.001 93.2 494.701 85.9 481.901 89.5L468.201 93.4C457.401 72.2 440.201 55.4 419.701 44.9L423.601 31.1ZM112.501 320.5C112.501 307.77 117.558 295.561 126.559 286.559C135.561 277.557 147.77 272.5 160.501 272.5C173.231 272.5 185.44 277.557 194.442 286.559C203.443 295.561 208.501 307.77 208.501 320.5C208.501 333.23 203.443 345.439 194.442 354.441C185.44 363.443 173.231 368.5 160.501 368.5C147.77 368.5 135.561 363.443 126.559 354.441C117.558 345.439 112.501 333.23 112.501 320.5ZM240.501 184.5C246.866 184.5 252.97 187.029 257.471 191.529C261.972 196.03 264.501 202.135 264.501 208.5C264.501 214.865 261.972 220.97 257.471 225.471C252.97 229.971 246.866 232.5 240.501 232.5C234.135 232.5 228.031 229.971 223.53 225.471C219.029 220.97 216.501 214.865 216.501 208.5C216.501 202.135 219.029 196.03 223.53 191.529C228.031 187.029 234.135 184.5 240.501 184.5Z" fill="#47535F"/>
</g>
<defs>
<clipPath id="clip0_104_516">
<rect width="512" height="512" fill="white" transform="translate(0.5 0.5)"/>
</clipPath>
</defs>
</svg>
