<svg width="449" height="513" viewBox="0 0 449 513" fill="none" xmlns="http://www.w3.org/2000/svg">
<g clip-path="url(#clip0_104_520)">
<path d="M160.5 112.5C160.5 77.2 189.2 48.5 224.5 48.5C259.8 48.5 288.5 77.2 288.5 112.5V160.5H160.5V112.5ZM112.5 160.5H48.5C22 160.5 0.5 182 0.5 208.5V416.5C0.5 469.5 43.5 512.5 96.5 512.5H352.5C405.5 512.5 448.5 469.5 448.5 416.5V208.5C448.5 182 427 160.5 400.5 160.5H336.5V112.5C336.5 50.6 286.4 0.5 224.5 0.5C162.6 0.5 112.5 50.6 112.5 112.5V160.5ZM136.5 208.5C142.865 208.5 148.97 211.029 153.471 215.529C157.971 220.03 160.5 226.135 160.5 232.5C160.5 238.865 157.971 244.97 153.471 249.471C148.97 253.971 142.865 256.5 136.5 256.5C130.135 256.5 124.03 253.971 119.529 249.471C115.029 244.97 112.5 238.865 112.5 232.5C112.5 226.135 115.029 220.03 119.529 215.529C124.03 211.029 130.135 208.5 136.5 208.5ZM288.5 232.5C288.5 226.135 291.029 220.03 295.529 215.529C300.03 211.029 306.135 208.5 312.5 208.5C318.865 208.5 324.97 211.029 329.471 215.529C333.971 220.03 336.5 226.135 336.5 232.5C336.5 238.865 333.971 244.97 329.471 249.471C324.97 253.971 318.865 256.5 312.5 256.5C306.135 256.5 300.03 253.971 295.529 249.471C291.029 244.97 288.5 238.865 288.5 232.5Z" fill="#47535F"/>
</g>
<defs>
<clipPath id="clip0_104_520">
<rect width="448" height="512" fill="white" transform="translate(0.5 0.5)"/>
</clipPath>
</defs>
</svg>
