<svg width="577" height="513" viewBox="0 0 577 513" fill="none" xmlns="http://www.w3.org/2000/svg">
<g clip-path="url(#clip0_104_530)">
<path d="M288.5 0.5C303 0.5 315.7 10.2 319.4 24.3L343.3 113.9L419.2 60.6C431.1 52.3 447 53 458.2 62.3C469.4 71.6 472.8 87.2 466.6 100.4L427.3 184.4L519.7 192.4C534.1 193.6 545.9 204.4 548.5 218.7C551.1 233 543.6 247.2 530.5 253.3L446.4 292.4L512.1 357.9C522.4 368.1 524.5 384 517.2 396.6C509.9 409.2 495.2 415.3 481.2 411.5L391.5 387.3L399.7 479.7C401 494.1 392.4 507.6 378.8 512.6C365.2 517.6 349.9 512.7 341.6 500.9L288.5 424.9L235.4 500.9C227.1 512.8 211.8 517.6 198.2 512.6C184.6 507.6 176 494.1 177.3 479.7L185.5 387.3L95.8999 411.4C81.8999 415.2 67.0999 409.1 59.8999 396.5C52.6999 383.9 54.6999 368.1 64.9999 357.8L130.7 292.3L46.4999 253.2C33.3999 247.1 25.9999 232.9 28.4999 218.6C30.9999 204.3 42.7999 193.5 57.2999 192.3L149.7 184.3L110.4 100.3C104.3 87.2 107.7 71.5 118.8 62.2C129.9 52.9 145.9 52.2 157.8 60.5L233.7 113.8L257.6 24.2C261.3 10.2 274 0.5 288.5 0.5ZM288.5 156.7L283.7 174.7C281 184.8 273.5 192.9 263.7 196.5C253.9 200.1 242.9 198.6 234.4 192.6L219.2 181.9L227.1 198.7C231.5 208.2 231.1 219.2 225.8 228.3C220.5 237.4 211.3 243.3 200.8 244.2L182.3 245.8L199.1 253.6C208.6 258 215.3 266.8 217.1 277.1C218.9 287.4 215.6 297.9 208.2 305.3L195 318.4L212.9 313.6C223 310.9 233.8 313.3 241.8 320C249.8 326.7 254 336.9 253.1 347.3L251.5 365.8L262.1 350.6C268.1 342 277.9 336.9 288.3 336.9C298.7 336.9 308.5 342 314.5 350.6L325.1 365.8L323.5 347.3C322.6 336.9 326.8 326.7 334.8 320C342.8 313.3 353.6 310.9 363.7 313.6L381.6 318.4L368.4 305.3C361 297.9 357.7 287.4 359.5 277.1C361.3 266.8 368 258 377.5 253.6L394.3 245.8L375.8 244.2C365.4 243.3 356.1 237.4 350.8 228.3C345.5 219.2 345.1 208.2 349.5 198.7L357.4 181.9L342.2 192.6C333.6 198.6 322.7 200.1 312.9 196.5C303.1 192.9 295.6 184.8 292.9 174.7L288.1 156.7H288.5Z" fill="#47535F"/>
</g>
<defs>
<clipPath id="clip0_104_530">
<rect width="576" height="512" fill="white" transform="translate(0.5 0.5)"/>
</clipPath>
</defs>
</svg>
