<svg width="321" height="513" viewBox="0 0 321 513" fill="none" xmlns="http://www.w3.org/2000/svg">
<g clip-path="url(#clip0_104_532)">
<path d="M144.5 0.5C126.8 0.5 112.5 14.8 112.5 32.5V64.5H38.1C17.3 64.5 0.5 81.3 0.5 102.1V224.5V266.2V288.5V406.8C0.5 429.8 19.2 448.5 42.2 448.5H112.5V480.5C112.5 498.2 126.8 512.5 144.5 512.5C162.2 512.5 176.5 498.2 176.5 480.5V448.5H208.5C270.4 448.5 320.5 398.4 320.5 336.5C320.5 296.4 299.4 261.2 267.8 241.4C280.8 223.1 288.5 200.7 288.5 176.5C288.5 114.6 238.4 64.5 176.5 64.5V32.5C176.5 14.8 162.2 0.5 144.5 0.5ZM112.5 128.5V224.5H64.5V128.5H112.5ZM176.5 224.5V128.5C203 128.5 224.5 150 224.5 176.5C224.5 203 203 224.5 176.5 224.5ZM112.5 288.5V384.5H64.5V288.5H112.5ZM176.5 384.5V288.5H208.5C235 288.5 256.5 310 256.5 336.5C256.5 363 235 384.5 208.5 384.5H176.5Z" fill="#47535F"/>
</g>
<defs>
<clipPath id="clip0_104_532">
<rect width="320" height="512" fill="white" transform="translate(0.5 0.5)"/>
</clipPath>
</defs>
</svg>
