<svg width="513" height="513" viewBox="0 0 513 513" fill="none" xmlns="http://www.w3.org/2000/svg">
<g clip-path="url(#clip0_104_540)">
<path d="M100 145.3L179.2 224.5L275.2 320.5L367.7 413C336.4 435.4 298 448.5 256.5 448.5C150.5 448.5 64.5 362.5 64.5 256.5C64.5 215 77.6 176.6 100 145.3ZM333.8 288.5L301.8 256.5H384.5V288.5H333.8ZM365.8 320.5H400.5C409.3 320.5 416.5 313.3 416.5 304.5V240.5C416.5 231.7 409.3 224.5 400.5 224.5H269.8L145.3 100C176.6 77.6 215 64.5 256.5 64.5C362.5 64.5 448.5 150.5 448.5 256.5C448.5 298 435.4 336.4 413 367.7L365.8 320.5ZM256.5 512.5C324.395 512.5 389.51 485.529 437.519 437.519C485.529 389.51 512.5 324.395 512.5 256.5C512.5 188.605 485.529 123.49 437.519 75.4807C389.51 27.4714 324.395 0.5 256.5 0.5C188.605 0.5 123.49 27.4714 75.4807 75.4807C27.4714 123.49 0.5 188.605 0.5 256.5C0.5 324.395 27.4714 389.51 75.4807 437.519C123.49 485.529 188.605 512.5 256.5 512.5ZM272.5 96.5C263.7 96.5 256.5 103.7 256.5 112.5C256.5 139 278 160.5 304.5 160.5H336.5C345.3 160.5 352.5 167.7 352.5 176.5C352.5 185.3 359.7 192.5 368.5 192.5C377.3 192.5 384.5 185.3 384.5 176.5C384.5 150 363 128.5 336.5 128.5H304.5C295.7 128.5 288.5 121.3 288.5 112.5C288.5 103.7 281.3 96.5 272.5 96.5ZM230 320.5L134 224.5H112.5C103.7 224.5 96.5 231.7 96.5 240.5V304.5C96.5 313.3 103.7 320.5 112.5 320.5H230Z" fill="#47535F"/>
</g>
<defs>
<clipPath id="clip0_104_540">
<rect width="512" height="512" fill="white" transform="translate(0.5 0.5)"/>
</clipPath>
</defs>
</svg>
