<svg width="513" height="513" viewBox="0 0 513 513" fill="none" xmlns="http://www.w3.org/2000/svg">
<g clip-path="url(#clip0_104_534)">
<path d="M367.7 413L100 145.3C77.6 176.6 64.5 215 64.5 256.5C64.5 362.5 150.5 448.5 256.5 448.5C298 448.5 336.4 435.4 367.7 413ZM413 367.7C435.4 336.4 448.5 298 448.5 256.5C448.5 150.5 362.5 64.5 256.5 64.5C215 64.5 176.6 77.6 145.3 100L413 367.7ZM0.5 256.5C0.5 188.605 27.4714 123.49 75.4807 75.4807C123.49 27.4714 188.605 0.5 256.5 0.5C324.395 0.5 389.51 27.4714 437.519 75.4807C485.529 123.49 512.5 188.605 512.5 256.5C512.5 324.395 485.529 389.51 437.519 437.519C389.51 485.529 324.395 512.5 256.5 512.5C188.605 512.5 123.49 485.529 75.4807 437.519C27.4714 389.51 0.5 324.395 0.5 256.5Z" fill="#47535F"/>
</g>
<defs>
<clipPath id="clip0_104_534">
<rect width="512" height="512" fill="white" transform="translate(0.5 0.5)"/>
</clipPath>
</defs>
</svg>
