<svg width="641" height="513" viewBox="0 0 641 513" fill="none" xmlns="http://www.w3.org/2000/svg">
<g clip-path="url(#clip0_104_536)">
<path d="M480.5 416.5H576.5C611.8 416.5 640.5 387.8 640.5 352.5V160.5C640.5 125.2 611.8 96.5 576.5 96.5H480.5V416.5ZM448.5 96.5H192.5V416.5H448.5V96.5ZM64.5 96.5C29.2 96.5 0.5 125.2 0.5 160.5V352.5C0.5 387.8 29.2 416.5 64.5 416.5H160.5V96.5H64.5ZM248.5 208.5C248.5 202.135 251.029 196.03 255.529 191.529C260.03 187.029 266.135 184.5 272.5 184.5C278.865 184.5 284.97 187.029 289.471 191.529C293.971 196.03 296.5 202.135 296.5 208.5C296.5 214.865 293.971 220.97 289.471 225.471C284.97 229.971 278.865 232.5 272.5 232.5C266.135 232.5 260.03 229.971 255.529 225.471C251.029 220.97 248.5 214.865 248.5 208.5ZM368.5 184.5C374.865 184.5 380.97 187.029 385.471 191.529C389.971 196.03 392.5 202.135 392.5 208.5C392.5 214.865 389.971 220.97 385.471 225.471C380.97 229.971 374.865 232.5 368.5 232.5C362.135 232.5 356.03 229.971 351.529 225.471C347.029 220.97 344.5 214.865 344.5 208.5C344.5 202.135 347.029 196.03 351.529 191.529C356.03 187.029 362.135 184.5 368.5 184.5ZM248.5 304.5C248.5 298.135 251.029 292.03 255.529 287.529C260.03 283.029 266.135 280.5 272.5 280.5C278.865 280.5 284.97 283.029 289.471 287.529C293.971 292.03 296.5 298.135 296.5 304.5C296.5 310.865 293.971 316.97 289.471 321.471C284.97 325.971 278.865 328.5 272.5 328.5C266.135 328.5 260.03 325.971 255.529 321.471C251.029 316.97 248.5 310.865 248.5 304.5ZM368.5 280.5C374.865 280.5 380.97 283.029 385.471 287.529C389.971 292.03 392.5 298.135 392.5 304.5C392.5 310.865 389.971 316.97 385.471 321.471C380.97 325.971 374.865 328.5 368.5 328.5C362.135 328.5 356.03 325.971 351.529 321.471C347.029 316.97 344.5 310.865 344.5 304.5C344.5 298.135 347.029 292.03 351.529 287.529C356.03 283.029 362.135 280.5 368.5 280.5Z" fill="#47535F"/>
</g>
<defs>
<clipPath id="clip0_104_536">
<rect width="640" height="512" fill="white" transform="translate(0.5 0.5)"/>
</clipPath>
</defs>
</svg>
