<svg width="385" height="513" viewBox="0 0 385 513" fill="none" xmlns="http://www.w3.org/2000/svg">
<g clip-path="url(#clip0_104_538)">
<path d="M36.5004 32.7001C18.9004 30.6001 2.90038 43.0001 0.70038 60.5001C-1.49962 78.0001 11.0004 94.1001 28.5004 96.3001L36.4004 97.3001C52.4004 99.3001 64.4004 112.9 64.4004 129.1V160.5H32.5004C14.8004 160.5 0.50038 174.8 0.50038 192.5C0.50038 210.2 14.8004 224.5 32.5004 224.5H64.5004V384.5C64.5004 437.5 107.5 480.5 160.5 480.5H192.5C298.5 480.5 384.5 394.5 384.5 288.5V256.5C384.5 203.5 341.5 160.5 288.5 160.5H272.5C254.8 160.5 240.5 174.8 240.5 192.5C240.5 210.2 254.8 224.5 272.5 224.5H288.5C306.2 224.5 320.5 238.8 320.5 256.5V288.5C320.5 359.2 263.2 416.5 192.5 416.5H160.5C142.8 416.5 128.5 402.2 128.5 384.5V224.5H160.5C178.2 224.5 192.5 210.2 192.5 192.5C192.5 174.8 178.2 160.5 160.5 160.5H128.5V129C128.5 80.6001 92.4004 39.7001 44.4004 33.7001L36.5004 32.7001Z" fill="#47535F"/>
</g>
<defs>
<clipPath id="clip0_104_538">
<rect width="384" height="512" fill="white" transform="translate(0.5 0.5)"/>
</clipPath>
</defs>
</svg>
