<svg width="513" height="513" viewBox="0 0 513 513" fill="none" xmlns="http://www.w3.org/2000/svg">
<g clip-path="url(#clip0_104_542)">
<path d="M24.5 32.5C11.2 32.5 0.5 43.2 0.5 56.5V456.5C0.5 469.8 11.2 480.5 24.5 480.5H40.5C53.8 480.5 64.5 469.8 64.5 456.5V56.5C64.5 43.2 53.8 32.5 40.5 32.5H24.5ZM112.5 32.5C103.7 32.5 96.5 39.7 96.5 48.5V464.5C96.5 473.3 103.7 480.5 112.5 480.5C121.3 480.5 128.5 473.3 128.5 464.5V48.5C128.5 39.7 121.3 32.5 112.5 32.5ZM184.5 32.5C171.2 32.5 160.5 43.2 160.5 56.5V456.5C160.5 469.8 171.2 480.5 184.5 480.5H200.5C213.8 480.5 224.5 469.8 224.5 456.5V56.5C224.5 43.2 213.8 32.5 200.5 32.5H184.5ZM280.5 32.5C267.2 32.5 256.5 43.2 256.5 56.5V456.5C256.5 469.8 267.2 480.5 280.5 480.5H296.5C309.8 480.5 320.5 469.8 320.5 456.5V56.5C320.5 43.2 309.8 32.5 296.5 32.5H280.5ZM448.5 56.5V456.5C448.5 469.8 459.2 480.5 472.5 480.5H488.5C501.8 480.5 512.5 469.8 512.5 456.5V56.5C512.5 43.2 501.8 32.5 488.5 32.5H472.5C459.2 32.5 448.5 43.2 448.5 56.5ZM384.5 48.5V464.5C384.5 473.3 391.7 480.5 400.5 480.5C409.3 480.5 416.5 473.3 416.5 464.5V48.5C416.5 39.7 409.3 32.5 400.5 32.5C391.7 32.5 384.5 39.7 384.5 48.5Z" fill="#47535F"/>
</g>
<defs>
<clipPath id="clip0_104_542">
<rect width="512" height="512" fill="white" transform="translate(0.5 0.5)"/>
</clipPath>
</defs>
</svg>
