<svg width="513" height="513" viewBox="0 0 513 513" fill="none" xmlns="http://www.w3.org/2000/svg">
<g clip-path="url(#clip0_104_546)">
<path d="M448.5 160.5H320.5V128.5H448.5V160.5ZM48.5 64.5C22 64.5 0.5 86 0.5 112.5V176.5C0.5 203 22 224.5 48.5 224.5H464.5C491 224.5 512.5 203 512.5 176.5V112.5C512.5 86 491 64.5 464.5 64.5H48.5ZM448.5 352.5V384.5H192.5V352.5H448.5ZM48.5 288.5C22 288.5 0.5 310 0.5 336.5V400.5C0.5 427 22 448.5 48.5 448.5H464.5C491 448.5 512.5 427 512.5 400.5V336.5C512.5 310 491 288.5 464.5 288.5H48.5Z" fill="#47535F"/>
</g>
<defs>
<clipPath id="clip0_104_546">
<rect width="512" height="512" fill="white" transform="translate(0.5 0.5)"/>
</clipPath>
</defs>
</svg>
