<svg width="513" height="513" viewBox="0 0 513 513" fill="none" xmlns="http://www.w3.org/2000/svg">
<g clip-path="url(#clip0_104_548)">
<path d="M0.5 96.5C0.5 78.8 14.8 64.5 32.5 64.5H416.5C434.2 64.5 448.5 78.8 448.5 96.5C448.5 114.2 434.2 128.5 416.5 128.5H32.5C14.8 128.5 0.5 114.2 0.5 96.5ZM64.5 256.5C64.5 238.8 78.8 224.5 96.5 224.5H480.5C498.2 224.5 512.5 238.8 512.5 256.5C512.5 274.2 498.2 288.5 480.5 288.5H96.5C78.8 288.5 64.5 274.2 64.5 256.5ZM448.5 416.5C448.5 434.2 434.2 448.5 416.5 448.5H32.5C14.8 448.5 0.5 434.2 0.5 416.5C0.5 398.8 14.8 384.5 32.5 384.5H416.5C434.2 384.5 448.5 398.8 448.5 416.5Z" fill="#47535F"/>
</g>
<defs>
<clipPath id="clip0_104_548">
<rect width="512" height="512" fill="white" transform="translate(0.5 0.5)"/>
</clipPath>
</defs>
</svg>
