<svg width="449" height="513" viewBox="0 0 449 513" fill="none" xmlns="http://www.w3.org/2000/svg">
<g clip-path="url(#clip0_104_544)">
<path d="M0.5 96.5C0.5 78.8 14.8 64.5 32.5 64.5H416.5C434.2 64.5 448.5 78.8 448.5 96.5C448.5 114.2 434.2 128.5 416.5 128.5H32.5C14.8 128.5 0.5 114.2 0.5 96.5ZM0.5 256.5C0.5 238.8 14.8 224.5 32.5 224.5H416.5C434.2 224.5 448.5 238.8 448.5 256.5C448.5 274.2 434.2 288.5 416.5 288.5H32.5C14.8 288.5 0.5 274.2 0.5 256.5ZM448.5 416.5C448.5 434.2 434.2 448.5 416.5 448.5H32.5C14.8 448.5 0.5 434.2 0.5 416.5C0.5 398.8 14.8 384.5 32.5 384.5H416.5C434.2 384.5 448.5 398.8 448.5 416.5Z" fill="#47535F"/>
</g>
<defs>
<clipPath id="clip0_104_544">
<rect width="448" height="512" fill="white" transform="translate(0.5 0.5)"/>
</clipPath>
</defs>
</svg>
