<svg width="513" height="513" viewBox="0 0 513 513" fill="none" xmlns="http://www.w3.org/2000/svg">
<g clip-path="url(#clip0_104_552)">
<path d="M424.5 0.5C412.1 0.5 400.3 5.4 391.5 14.2L234 171.7C223.5 182.2 214.2 193.8 206.3 206.3L133.2 322.1C125.9 333.6 117.4 344.3 107.7 354L70.4 391.2L121.7 442.5L159 405.2C168.6 395.6 179.3 387 190.9 379.7L306.7 306.6C319.2 298.7 330.8 289.4 341.3 278.9L498.8 121.5C507.5 112.8 512.5 100.9 512.5 88.5C512.5 76.1 507.6 64.3 498.8 55.5L457.5 14.2C448.7 5.4 436.9 0.5 424.5 0.5ZM512.5 432.5C512.5 411.283 504.071 390.934 489.068 375.931C474.066 360.929 453.717 352.5 432.5 352.5C411.283 352.5 390.934 360.929 375.931 375.931C360.928 390.934 352.5 411.283 352.5 432.5C352.5 453.717 360.928 474.066 375.931 489.069C390.934 504.071 411.283 512.5 432.5 512.5C453.717 512.5 474.066 504.071 489.068 489.069C504.071 474.066 512.5 453.717 512.5 432.5ZM15.5 399.5C6.09995 408.9 6.09995 424.1 15.5 433.4L79.5 497.4C88.9 506.8 104.1 506.8 113.4 497.4C122.7 488 122.8 472.8 113.4 463.5L49.5 399.5C40.1 390.1 24.9 390.1 15.6 399.5H15.5Z" fill="#47535F"/>
</g>
<defs>
<clipPath id="clip0_104_552">
<rect width="512" height="512" fill="white" transform="translate(0.5 0.5)"/>
</clipPath>
</defs>
</svg>
