<svg width="513" height="513" viewBox="0 0 513 513" fill="none" xmlns="http://www.w3.org/2000/svg">
<g clip-path="url(#clip0_104_550)">
<path d="M63.2 223.9C58.4 224.3 53.5 224.5 48.5 224.5C32.9 224.5 17.7 222.5 3.3 218.6C19.7 107.6 107.6 19.7002 218.6 3.30016C222.5 17.7002 224.5 32.9002 224.5 48.5002C224.5 53.4002 224.3 58.3002 223.9 63.2002C223.2 72.0002 229.7 79.7002 238.5 80.5002C247.3 81.3002 255 74.7002 255.8 65.9002C256.3 60.2002 256.5 54.4002 256.5 48.6002C256.5 32.1002 254.6 16.0002 250.9 0.700163C252.7 0.700163 254.6 0.600163 256.5 0.600163C397.9 0.500163 512.5 115.1 512.5 256.5C512.5 258.4 512.5 260.2 512.4 262.1C497 258.5 481 256.5 464.5 256.5C458.7 256.5 452.9 256.7 447.2 257.2C438.4 257.9 431.8 265.7 432.6 274.5C433.4 283.3 441.1 289.9 449.9 289.1C454.7 288.7 459.6 288.5 464.6 288.5C480.2 288.5 495.4 290.5 509.8 294.4C493.3 405.4 405.4 493.3 294.4 509.7C290.5 495.3 288.5 480.1 288.5 464.5C288.5 459.6 288.7 454.7 289.1 449.8C289.8 441 283.3 433.3 274.5 432.5C265.7 431.7 258 438.3 257.2 447.1C256.7 452.8 256.5 458.6 256.5 464.4C256.5 480.9 258.4 497 262.1 512.3C260.3 512.3 258.4 512.4 256.5 512.4C115.1 512.5 0.5 397.9 0.5 256.5C0.5 254.6 0.5 252.8 0.6 250.9C15.9 254.6 32 256.5 48.5 256.5C54.3 256.5 60.1 256.3 65.8 255.8C74.6 255.1 81.2 247.3 80.4 238.5C79.6 229.7 71.9 223.1 63.1 223.9H63.2ZM121.8 208.5C113.8 212.2 110.2 221.7 113.9 229.7C117.6 237.7 127.1 241.3 135.1 237.6C180.3 216.8 216.8 180.4 237.6 135.1C241.3 127.1 237.8 117.6 229.7 113.9C221.6 110.2 212.2 113.7 208.5 121.8C190.9 160.1 160 191 121.8 208.5ZM399 283.2C395.3 275.2 385.8 271.6 377.8 275.3C332.6 296.1 296.1 332.5 275.3 377.8C271.6 385.8 275.1 395.3 283.2 399C291.3 402.7 300.7 399.2 304.4 391.1C322 352.8 352.9 321.9 391.1 304.4C399.1 300.7 402.7 291.2 399 283.2Z" fill="#47535F"/>
</g>
<defs>
<clipPath id="clip0_104_550">
<rect width="512" height="512" fill="white" transform="translate(0.5 0.5)"/>
</clipPath>
</defs>
</svg>
