<svg width="577" height="513" viewBox="0 0 577 513" fill="none" xmlns="http://www.w3.org/2000/svg">
<g clip-path="url(#clip0_104_556)">
<path d="M253.8 35.6002C259.9 23.8002 255.3 9.30015 243.6 3.20015C231.9 -2.89985 217.3 1.70015 211.2 13.4002L118.1 192.5H32.5C14.8 192.5 0.5 206.8 0.5 224.5C0.5 242.2 14.8 256.5 32.5 256.5L84.4 464C91.5 492.5 117.1 512.5 146.5 512.5H430.5C459.9 512.5 485.5 492.5 492.6 464L544.5 256.5C562.2 256.5 576.5 242.2 576.5 224.5C576.5 206.8 562.2 192.5 544.5 192.5H458.9L365.8 13.4002C359.7 1.70015 345.2 -2.89985 333.4 3.20015C321.6 9.30015 317.1 23.8002 323.2 35.6002L404.8 192.5H172.2L253.8 35.6002ZM192.5 304.5V400.5C192.5 409.3 185.3 416.5 176.5 416.5C167.7 416.5 160.5 409.3 160.5 400.5V304.5C160.5 295.7 167.7 288.5 176.5 288.5C185.3 288.5 192.5 295.7 192.5 304.5ZM288.5 288.5C297.3 288.5 304.5 295.7 304.5 304.5V400.5C304.5 409.3 297.3 416.5 288.5 416.5C279.7 416.5 272.5 409.3 272.5 400.5V304.5C272.5 295.7 279.7 288.5 288.5 288.5ZM416.5 304.5V400.5C416.5 409.3 409.3 416.5 400.5 416.5C391.7 416.5 384.5 409.3 384.5 400.5V304.5C384.5 295.7 391.7 288.5 400.5 288.5C409.3 288.5 416.5 295.7 416.5 304.5Z" fill="#47535F"/>
</g>
<defs>
<clipPath id="clip0_104_556">
<rect width="576" height="512" fill="white" transform="translate(0.5 0.5)"/>
</clipPath>
</defs>
</svg>
