<svg width="577" height="513" viewBox="0 0 577 513" fill="none" xmlns="http://www.w3.org/2000/svg">
<g clip-path="url(#clip0_104_560)">
<path d="M80.5 160.5C71.7 160.5 64.5 167.7 64.5 176.5V336.5C64.5 345.3 71.7 352.5 80.5 352.5H464.5C473.3 352.5 480.5 345.3 480.5 336.5V176.5C480.5 167.7 473.3 160.5 464.5 160.5H80.5ZM0.5 176.5C0.5 132.3 36.3 96.5 80.5 96.5H464.5C508.7 96.5 544.5 132.3 544.5 176.5V192.5C562.2 192.5 576.5 206.8 576.5 224.5V288.5C576.5 306.2 562.2 320.5 544.5 320.5V336.5C544.5 380.7 508.7 416.5 464.5 416.5H80.5C36.3 416.5 0.5 380.7 0.5 336.5V176.5Z" fill="#47535F"/>
</g>
<defs>
<clipPath id="clip0_104_560">
<rect width="576" height="512" fill="white" transform="translate(0.5 0.5)"/>
</clipPath>
</defs>
</svg>
