<svg width="641" height="513" viewBox="0 0 641 513" fill="none" xmlns="http://www.w3.org/2000/svg">
<g clip-path="url(#clip0_104_572)">
<path d="M483.7 10.1002L524.5 64.5002H616.5C629.8 64.5002 640.5 75.2002 640.5 88.5002C640.5 101.8 629.8 112.5 616.5 112.5H512.5C504.9 112.5 497.8 108.9 493.3 102.9L469.2 70.8002L422.2 170.7C418.5 178.5 410.9 183.8 402.3 184.4C393.7 185 385.4 181 380.6 173.8L339.7 112.5H216.5C203.2 112.5 192.5 101.8 192.5 88.5002C192.5 75.2002 203.2 64.5002 216.5 64.5002H352.5C360.5 64.5002 368 68.5002 372.5 75.2002L396.9 111.8L442.8 14.3002C446.4 6.7002 453.7 1.5002 462.1 0.600196C470.5 -0.299804 478.7 3.3002 483.7 10.1002ZM320.5 160.5H333.2L353.9 191.6C365.1 208.4 384.5 217.9 404.6 216.4C424.7 214.9 442.5 202.7 451.1 184.4L462.4 160.5H544.5C597.5 160.5 640.5 203.5 640.5 256.5V480.5C640.5 498.2 626.2 512.5 608.5 512.5C590.8 512.5 576.5 498.2 576.5 480.5V448.5H352.5H320.5H64.5V480.5C64.5 498.2 50.2 512.5 32.5 512.5C14.8 512.5 0.5 498.2 0.5 480.5V96.5002C0.5 78.8002 14.8 64.5002 32.5 64.5002C50.2 64.5002 64.5 78.8002 64.5 96.5002V352.5H288.5V192.5C288.5 174.8 302.8 160.5 320.5 160.5ZM176.5 160.5C197.717 160.5 218.066 168.929 233.069 183.932C248.071 198.935 256.5 219.283 256.5 240.5C256.5 261.718 248.071 282.066 233.069 297.069C218.066 312.072 197.717 320.5 176.5 320.5C155.283 320.5 134.934 312.072 119.931 297.069C104.929 282.066 96.5 261.718 96.5 240.5C96.5 219.283 104.929 198.935 119.931 183.932C134.934 168.929 155.283 160.5 176.5 160.5Z" fill="#47535F"/>
</g>
<defs>
<clipPath id="clip0_104_572">
<rect width="640" height="512" fill="white" transform="translate(0.5 0.5)"/>
</clipPath>
</defs>
</svg>
