<svg width="641" height="513" viewBox="0 0 641 513" fill="none" xmlns="http://www.w3.org/2000/svg">
<g clip-path="url(#clip0_104_570)">
<path d="M32.5 32.5C50.2 32.5 64.5 46.8 64.5 64.5V320.5H288.5V160.5C288.5 142.8 302.8 128.5 320.5 128.5H544.5C597.5 128.5 640.5 171.5 640.5 224.5V448.5C640.5 466.2 626.2 480.5 608.5 480.5C590.8 480.5 576.5 466.2 576.5 448.5V416.5H352.5H320.5H64.5V448.5C64.5 466.2 50.2 480.5 32.5 480.5C14.8 480.5 0.5 466.2 0.5 448.5V64.5C0.5 46.8 14.8 32.5 32.5 32.5ZM176.5 128.5C197.717 128.5 218.066 136.929 233.069 151.931C248.071 166.934 256.5 187.283 256.5 208.5C256.5 229.717 248.071 250.066 233.069 265.069C218.066 280.071 197.717 288.5 176.5 288.5C155.283 288.5 134.934 280.071 119.931 265.069C104.929 250.066 96.5 229.717 96.5 208.5C96.5 187.283 104.929 166.934 119.931 151.931C134.934 136.929 155.283 128.5 176.5 128.5Z" fill="#47535F"/>
</g>
<defs>
<clipPath id="clip0_104_570">
<rect width="640" height="512" fill="white" transform="translate(0.5 0.5)"/>
</clipPath>
</defs>
</svg>
