<svg width="513" height="513" viewBox="0 0 513 513" fill="none" xmlns="http://www.w3.org/2000/svg">
<g clip-path="url(#clip0_104_574)">
<path d="M32.5 64.5C32.5 46.8 46.8 32.5 64.5 32.5H352.5C370.2 32.5 384.5 46.8 384.5 64.5V96.5H435.7C478.1 96.5 512.5 130.9 512.5 173.3V275.4C512.5 305.8 494.6 333.3 466.9 345.6L384.5 382.2V416.5C384.5 451.8 355.8 480.5 320.5 480.5H96.5C61.2 480.5 32.5 451.8 32.5 416.5V64.5ZM384.5 312.1L440.9 287C445.5 284.9 448.5 280.4 448.5 275.3V173.3C448.5 166.2 442.8 160.5 435.7 160.5H384.5V312.1ZM160.5 144.5C160.5 135.7 153.3 128.5 144.5 128.5C135.7 128.5 128.5 135.7 128.5 144.5V368.5C128.5 377.3 135.7 384.5 144.5 384.5C153.3 384.5 160.5 377.3 160.5 368.5V144.5ZM224.5 144.5C224.5 135.7 217.3 128.5 208.5 128.5C199.7 128.5 192.5 135.7 192.5 144.5V368.5C192.5 377.3 199.7 384.5 208.5 384.5C217.3 384.5 224.5 377.3 224.5 368.5V144.5ZM288.5 144.5C288.5 135.7 281.3 128.5 272.5 128.5C263.7 128.5 256.5 135.7 256.5 144.5V368.5C256.5 377.3 263.7 384.5 272.5 384.5C281.3 384.5 288.5 377.3 288.5 368.5V144.5Z" fill="#47535F"/>
</g>
<defs>
<clipPath id="clip0_104_574">
<rect width="512" height="512" fill="white" transform="translate(0.5 0.5)"/>
</clipPath>
</defs>
</svg>
