<svg width="513" height="513" viewBox="0 0 513 513" fill="none" xmlns="http://www.w3.org/2000/svg">
<g clip-path="url(#clip0_104_578)">
<path d="M216.5 64.5C203.2 64.5 192.5 75.2 192.5 88.5C192.5 101.8 203.2 112.5 216.5 112.5H232.5V145.8C120.1 157.7 32.5 252.9 32.5 368.5H480.5C480.5 252.9 392.9 157.7 280.5 145.8V112.5H296.5C309.8 112.5 320.5 101.8 320.5 88.5C320.5 75.2 309.8 64.5 296.5 64.5H256.5H216.5ZM24.5 400.5C11.2 400.5 0.5 411.2 0.5 424.5C0.5 437.8 11.2 448.5 24.5 448.5H488.5C501.8 448.5 512.5 437.8 512.5 424.5C512.5 411.2 501.8 400.5 488.5 400.5H24.5Z" fill="#47535F"/>
</g>
<defs>
<clipPath id="clip0_104_578">
<rect width="512" height="512" fill="white" transform="translate(0.5 0.5)"/>
</clipPath>
</defs>
</svg>
