<svg width="449" height="513" viewBox="0 0 449 513" fill="none" xmlns="http://www.w3.org/2000/svg">
<g clip-path="url(#clip0_104_576)">
<path d="M224.5 0.5C206.8 0.5 192.5 14.8 192.5 32.5V51.7C119.5 66.5 64.4999 131.1 64.4999 208.5V227.3C64.4999 274.3 47.1999 319.7 15.9999 354.9L8.5999 363.2C0.199902 372.6 -1.8001 386.1 3.2999 397.6C8.3999 409.1 19.8999 416.5 32.4999 416.5H416.5C429.1 416.5 440.5 409.1 445.7 397.6C450.9 386.1 448.8 372.6 440.4 363.2L433 354.9C401.8 319.7 384.5 274.4 384.5 227.3V208.5C384.5 131.1 329.5 66.5 256.5 51.7V32.5C256.5 14.8 242.2 0.5 224.5 0.5ZM269.8 493.8C281.8 481.8 288.5 465.5 288.5 448.5H224.5H160.5C160.5 465.5 167.2 481.8 179.2 493.8C191.2 505.8 207.5 512.5 224.5 512.5C241.5 512.5 257.8 505.8 269.8 493.8Z" fill="#47535F"/>
</g>
<defs>
<clipPath id="clip0_104_576">
<rect width="448" height="512" fill="white" transform="translate(0.5 0.5)"/>
</clipPath>
</defs>
</svg>
