<svg width="641" height="513" viewBox="0 0 641 513" fill="none" xmlns="http://www.w3.org/2000/svg">
<g clip-path="url(#clip0_104_580)">
<path d="M39.2998 5.59976C28.8998 -2.60024 13.7998 -0.700238 5.59976 9.69976C-2.60024 20.0998 -0.700238 35.1998 9.69976 43.3998L601.7 507.4C612.1 515.6 627.2 513.7 635.4 503.3C643.6 492.9 641.7 477.8 631.3 469.6L543.8 401C544.3 399.3 544.5 397.5 544.5 395.6C544.5 368 533.5 341.5 514 321.9L512.5 320.5C492 300 480.5 272.2 480.5 243.2V208.5C480.5 131.1 425.5 66.4998 352.5 51.6998V32.4998C352.5 14.7998 338.2 0.499762 320.5 0.499762C302.8 0.499762 288.5 14.7998 288.5 32.4998V51.6998C245.9 60.2998 209.5 85.8998 186.5 121L39.2998 5.59976ZM160.5 243.2C160.5 272.2 149 300 128.5 320.5L127 322C107.5 341.5 96.4998 368 96.4998 395.7C96.4998 407.2 105.8 416.5 117.3 416.5H406.7L160.5 222.6V243.3V243.2ZM384.5 448.5H320.5H256.5C256.5 465.5 263.2 481.8 275.2 493.8C287.2 505.8 303.5 512.5 320.5 512.5C337.5 512.5 353.8 505.8 365.8 493.8C377.8 481.8 384.5 465.5 384.5 448.5Z" fill="#47535F"/>
</g>
<defs>
<clipPath id="clip0_104_580">
<rect width="640" height="512" fill="white" transform="translate(0.5 0.5)"/>
</clipPath>
</defs>
</svg>
