<svg width="641" height="513" viewBox="0 0 641 513" fill="none" xmlns="http://www.w3.org/2000/svg">
<g clip-path="url(#clip0_104_582)">
<path d="M296.5 136.5V88.5H344.5V136.5H296.5ZM288.5 32.5C262 32.5 240.5 54 240.5 80.5V84.5H122.1C111.7 63.2 89.8 48.5 64.5 48.5C29.2 48.5 0.5 77.2 0.5 112.5C0.5 147.8 29.2 176.5 64.5 176.5C89.8 176.5 111.7 161.8 122.1 140.5H189C130.1 180.1 90.1 245.5 85 320.5H80.5C54 320.5 32.5 342 32.5 368.5V432.5C32.5 459 54 480.5 80.5 480.5H144.5C171 480.5 192.5 459 192.5 432.5V368.5C192.5 342 171 320.5 144.5 320.5H141.2C147.1 253.5 189.7 197.1 248.7 171.4C257.3 184.1 271.9 192.5 288.5 192.5H352.5C369.1 192.5 383.6 184.1 392.3 171.4C451.3 197.1 493.9 253.5 499.8 320.5H496.5C470 320.5 448.5 342 448.5 368.5V432.5C448.5 459 470 480.5 496.5 480.5H560.5C587 480.5 608.5 459 608.5 432.5V368.5C608.5 342 587 320.5 560.5 320.5H556C551 245.5 510.9 180.1 452 140.5H518.9C529.3 161.8 551.2 176.5 576.5 176.5C611.8 176.5 640.5 147.8 640.5 112.5C640.5 77.2 611.8 48.5 576.5 48.5C551.2 48.5 529.3 63.2 518.9 84.5H400.5V80.5C400.5 54 379 32.5 352.5 32.5H288.5ZM88.5 376.5H136.5V424.5H88.5V376.5ZM504.5 424.5V376.5H552.5V424.5H504.5Z" fill="#47535F"/>
</g>
<defs>
<clipPath id="clip0_104_582">
<rect width="640" height="512" fill="white" transform="translate(0.5 0.5)"/>
</clipPath>
</defs>
</svg>
