<svg width="641" height="513" viewBox="0 0 641 513" fill="none" xmlns="http://www.w3.org/2000/svg">
<g clip-path="url(#clip0_104_584)">
<path d="M312.5 32.5C299.2 32.5 288.5 43.2 288.5 56.5C288.5 69.8 299.2 80.5 312.5 80.5H338.2L372.8 144.5H223.4L196 106.5C191.5 100.2 184.2 96.5 176.5 96.5H120.5C107.2 96.5 96.5 107.2 96.5 120.5C96.5 133.8 107.2 144.5 120.5 144.5H164.2L186.3 175.2L159.7 228.3C149.7 225.8 139.2 224.5 128.5 224.5C57.8 224.5 0.5 281.8 0.5 352.5C0.5 423.2 57.8 480.5 128.5 480.5C193.8 480.5 247.6 431.6 255.5 368.5H304.5C313 368.5 320.8 364 325.2 356.7L410 213.2L431.7 253.3C402.9 276.8 384.5 312.5 384.5 352.5C384.5 423.2 441.8 480.5 512.5 480.5C583.2 480.5 640.5 423.2 640.5 352.5C640.5 281.8 583.2 224.5 512.5 224.5C499 224.5 486 226.6 473.8 230.5L375.9 49.3C370.3 38.9 359.5 32.5 347.7 32.5H312.5ZM459.1 304.2L491.4 363.9C497.7 375.6 512.3 379.9 523.9 373.6C535.5 367.3 539.9 352.7 533.6 341.1L501.3 281.4C504.9 280.8 508.7 280.5 512.5 280.5C552.3 280.5 584.5 312.7 584.5 352.5C584.5 392.3 552.3 424.5 512.5 424.5C472.7 424.5 440.5 392.3 440.5 352.5C440.5 333.9 447.5 317 459.1 304.2ZM133.7 368.5H198.7C191.4 400.6 162.7 424.5 128.5 424.5C88.7 424.5 56.5 392.3 56.5 352.5C56.5 312.7 88.7 280.5 128.5 280.5C130.2 280.5 131.9 280.6 133.6 280.7L109.4 329.2C100.4 347.3 113.5 368.6 133.7 368.6V368.5ZM167.4 320.5L218.1 219.2L291 320.4L290.9 320.5H167.3H167.4ZM258 192.5H366.4L317.5 275.3L257.9 192.5H258Z" fill="#47535F"/>
</g>
<defs>
<clipPath id="clip0_104_584">
<rect width="640" height="512" fill="white" transform="translate(0.5 0.5)"/>
</clipPath>
</defs>
</svg>
