<svg width="577" height="513" viewBox="0 0 577 513" fill="none" xmlns="http://www.w3.org/2000/svg">
<g clip-path="url(#clip0_104_588)">
<path d="M173.7 0.5C171.9 0.5 170.2 1.2 168.9 2.5C139 32.8 120.5 74.5 120.5 120.5C120.5 146.7 126.5 171.4 137.1 193.5C115.1 195.9 93.2998 202.6 72.8998 214C38.3998 233.3 13.7998 262.9 0.899766 296.5C0.199766 298.2 0.399765 300.2 1.39977 301.7C3.59977 305.4 8.79977 306 11.9998 303C64.6998 254.8 158.5 245.6 205.5 324.5C252.5 403.4 197.4 477.6 127.9 497.7C123.7 498.9 121.6 503.6 123.8 507.3C124.8 508.9 126.4 510 128.3 510.3C164.8 516.2 203.5 510.4 238 491.1C258.4 479.7 275.4 464.6 288.5 447.3C301.6 464.6 318.6 479.7 339 491.1C373.5 510.4 412.3 516.3 448.7 510.3C450.6 510 452.2 508.9 453.2 507.3C455.4 503.6 453.3 498.9 449.1 497.7C379.6 477.6 324.5 403.5 371.5 324.5C418.5 245.5 512.2 254.7 565 303.1C568.2 306 573.4 305.4 575.6 301.8C576.6 300.2 576.7 298.3 576.1 296.6C563.2 263 538.6 233.4 504 214.1C483.6 202.7 461.8 196 439.8 193.6C450.5 171.4 456.5 146.7 456.5 120.5C456.5 74.5 438 32.8 408.1 2.5C406.8 1.2 405.1 0.5 403.3 0.5C398.3 0.5 394.9 5.7 396.6 10.4C422.2 81 386.1 176.5 288.5 176.5C190.9 176.5 154.8 81 180.4 10.4C182.1 5.7 178.8 0.5 173.7 0.5ZM240.5 272.5C240.5 259.77 245.557 247.561 254.559 238.559C263.56 229.557 275.769 224.5 288.5 224.5C301.23 224.5 313.439 229.557 322.441 238.559C331.443 247.561 336.5 259.77 336.5 272.5C336.5 285.23 331.443 297.439 322.441 306.441C313.439 315.443 301.23 320.5 288.5 320.5C275.769 320.5 263.56 315.443 254.559 306.441C245.557 297.439 240.5 285.23 240.5 272.5ZM182.2 418.1C188.5 406.3 192 393 190.8 378.3C171.3 360.3 156.8 336.9 149.6 310.5C137.1 302.4 123.4 298.7 109.6 298.1C100.6 297.7 91.4998 298.7 82.4998 300.8C90.2998 357.9 121.2 407.6 165.4 440.2C172.2 433.5 178 426.1 182.2 418.1ZM288.5 64.5C259.7 64.5 232.2 70.4 207.3 81C209.3 89.3 212.3 97.2 216.3 104.5C223.1 116.9 233 127.6 246.4 134.8C259.7 130.7 273.9 128.5 288.6 128.5C303.3 128.5 317.4 130.7 330.8 134.8C344.2 127.6 354.1 116.9 360.9 104.5C364.9 97.2 367.9 89.3 369.9 81C344.8 70.4 317.3 64.5 288.5 64.5ZM427.4 310.5C420.2 336.9 405.7 360.2 386.2 378.3C385 393 388.4 406.4 394.8 418.1C399.1 426.1 404.8 433.5 411.6 440.2C455.9 407.6 486.8 357.9 494.5 300.8C485.5 298.6 476.4 297.7 467.4 298.1C453.6 298.7 439.9 302.5 427.4 310.5Z" fill="#47535F"/>
</g>
<defs>
<clipPath id="clip0_104_588">
<rect width="576" height="512" fill="white" transform="translate(0.5 0.5)"/>
</clipPath>
</defs>
</svg>
