<svg width="321" height="513" viewBox="0 0 321 513" fill="none" xmlns="http://www.w3.org/2000/svg">
<g clip-path="url(#clip0_104_590)">
<path d="M48.5 32.5C48.5 14.8 62.8 0.5 80.5 0.5C98.2 0.5 112.5 14.8 112.5 32.5V64.5H144.5V32.5C144.5 14.8 158.8 0.5 176.5 0.5C194.2 0.5 208.5 14.8 208.5 32.5V64.5C208.5 66 208.4 67.6 208.2 69C254.6 82.7 288.5 125.6 288.5 176.5C288.5 200.7 280.8 223.1 267.8 241.4C299.5 261.2 320.5 296.4 320.5 336.5C320.5 398.4 270.4 448.5 208.5 448.5V480.5C208.5 498.2 194.2 512.5 176.5 512.5C158.8 512.5 144.5 498.2 144.5 480.5V448.5H112.5V480.5C112.5 498.2 98.2 512.5 80.5 512.5C62.8 512.5 48.5 498.2 48.5 480.5V448.5H42.2C19.2 448.5 0.5 429.8 0.5 406.8V288.5V266.2V224.5V102.1C0.5 81.3 17.3 64.5 38.1 64.5H48.5V32.5ZM64.5 224.5H176.5C203 224.5 224.5 203 224.5 176.5C224.5 150 203 128.5 176.5 128.5H64.5V224.5ZM176.5 288.5H64.5V384.5H208.5C235 384.5 256.5 363 256.5 336.5C256.5 310 235 288.5 208.5 288.5H176.5Z" fill="#47535F"/>
</g>
<defs>
<clipPath id="clip0_104_590">
<rect width="320" height="512" fill="white" transform="translate(0.5 0.5)"/>
</clipPath>
</defs>
</svg>
