<svg width="577" height="513" viewBox="0 0 577 513" fill="none" xmlns="http://www.w3.org/2000/svg">
<g clip-path="url(#clip0_104_594)">
<path d="M224.5 352.5L197.3 52.8C194.7 24.7 216.8 0.499962 245.1 0.499962H534.6C555.7 0.499962 571 20.6 565.5 40.9L559 64.5H400.5C391.7 64.5 384.5 71.7 384.5 80.5C384.5 89.3 391.7 96.5 400.5 96.5H550.3L532.8 160.5H400.5C391.7 160.5 384.5 167.7 384.5 176.5C384.5 185.3 391.7 192.5 400.5 192.5H524.1L506.6 256.5H400.5C391.7 256.5 384.5 263.7 384.5 272.5C384.5 281.3 391.7 288.5 400.5 288.5H498L480.5 352.5H224.5ZM208.5 384.5H496.5C523 384.5 544.5 406 544.5 432.5V464.5C544.5 491 523 512.5 496.5 512.5H208.5C182 512.5 160.5 491 160.5 464.5V432.5C160.5 406 182 384.5 208.5 384.5ZM352.5 480.5C360.987 480.5 369.126 477.129 375.127 471.127C381.128 465.126 384.5 456.987 384.5 448.5C384.5 440.013 381.128 431.874 375.127 425.873C369.126 419.871 360.987 416.5 352.5 416.5C344.013 416.5 335.873 419.871 329.872 425.873C323.871 431.874 320.5 440.013 320.5 448.5C320.5 456.987 323.871 465.126 329.872 471.127C335.873 477.129 344.013 480.5 352.5 480.5ZM148 31.2C158.8 37.9 163.3 52.2 158.6 64.6L136.6 122.4C132.4 133.3 122.1 140 111.3 138.8L77.9996 135.2C64.3996 177.4 64.3996 223.6 77.9996 265.9L111.3 262.3C122.2 261.1 132.5 267.8 136.6 278.7L158.6 336.5C163.3 348.9 158.8 363.2 148 369.9L104 397.1C94.2996 403.1 82.0996 401.3 74.1996 392.8C-24.1004 286.5 -24.1004 114.5 74.1996 8.29996C82.0996 -0.200038 94.2996 -2.00004 104 3.99996L148 31.2Z" fill="#47535F"/>
</g>
<defs>
<clipPath id="clip0_104_594">
<rect width="576" height="512" fill="white" transform="translate(0.5 0.5)"/>
</clipPath>
</defs>
</svg>
