<svg width="513" height="513" viewBox="0 0 513 513" fill="none" xmlns="http://www.w3.org/2000/svg">
<g clip-path="url(#clip0_104_592)">
<path d="M0.5 64.5C0.5 29.2 29.2 0.5 64.5 0.5H128.5H160.5H470.6C491.7 0.5 507 20.6 501.5 40.9L495 64.5H336.5C327.7 64.5 320.5 71.7 320.5 80.5C320.5 89.3 327.7 96.5 336.5 96.5H486.3L468.8 160.5H336.5C327.7 160.5 320.5 167.7 320.5 176.5C320.5 185.3 327.7 192.5 336.5 192.5H460.1L442.6 256.5H336.5C327.7 256.5 320.5 263.7 320.5 272.5C320.5 281.3 327.7 288.5 336.5 288.5H434L416.5 352.5H160.5L151.8 256.5H64.5C29.2 256.5 0.5 227.8 0.5 192.5V64.5ZM146 192.5L134.3 64.5H64.5V192.5H146ZM144.5 384.5H432.5C459 384.5 480.5 406 480.5 432.5V464.5C480.5 491 459 512.5 432.5 512.5H144.5C118 512.5 96.5 491 96.5 464.5V432.5C96.5 406 118 384.5 144.5 384.5ZM288.5 480.5C296.987 480.5 305.126 477.129 311.127 471.127C317.129 465.126 320.5 456.987 320.5 448.5C320.5 440.013 317.129 431.874 311.127 425.873C305.126 419.871 296.987 416.5 288.5 416.5C280.013 416.5 271.874 419.871 265.873 425.873C259.871 431.874 256.5 440.013 256.5 448.5C256.5 456.987 259.871 465.126 265.873 471.127C271.874 477.129 280.013 480.5 288.5 480.5Z" fill="#47535F"/>
</g>
<defs>
<clipPath id="clip0_104_592">
<rect width="512" height="512" fill="white" transform="translate(0.5 0.5)"/>
</clipPath>
</defs>
</svg>
