<svg width="513" height="513" viewBox="0 0 513 513" fill="none" xmlns="http://www.w3.org/2000/svg">
<g clip-path="url(#clip0_104_596)">
<path d="M192.5 32.5C192.5 50.2 206.8 64.5 224.5 64.5C348.2 64.5 448.5 164.8 448.5 288.5C448.5 306.2 462.8 320.5 480.5 320.5C498.2 320.5 512.5 306.2 512.5 288.5C512.5 129.4 383.6 0.5 224.5 0.5C206.8 0.5 192.5 14.8 192.5 32.5ZM192.5 128.5C192.5 146.2 206.8 160.5 224.5 160.5C295.2 160.5 352.5 217.8 352.5 288.5C352.5 306.2 366.8 320.5 384.5 320.5C402.2 320.5 416.5 306.2 416.5 288.5C416.5 182.5 330.5 96.5 224.5 96.5C206.8 96.5 192.5 110.8 192.5 128.5ZM96.5 144.5C96.5 118 75 96.5 48.5 96.5C22 96.5 0.5 118 0.5 144.5V368.5C0.5 448 65 512.5 144.5 512.5C224 512.5 288.5 448 288.5 368.5C288.5 289 224 224.5 144.5 224.5H128.5V320.5H144.5C171 320.5 192.5 342 192.5 368.5C192.5 395 171 416.5 144.5 416.5C118 416.5 96.5 395 96.5 368.5V144.5Z" fill="#47535F"/>
</g>
<defs>
<clipPath id="clip0_104_596">
<rect width="512" height="512" fill="white" transform="translate(0.5 0.5)"/>
</clipPath>
</defs>
</svg>
