<svg width="385" height="513" viewBox="0 0 385 513" fill="none" xmlns="http://www.w3.org/2000/svg">
<g clip-path="url(#clip0_104_598)">
<path d="M0.5 64.5C0.5 46.8 14.8 32.5 32.5 32.5H80.5H96.5H224.5C295.2 32.5 352.5 89.8 352.5 160.5C352.5 191.8 341.2 220.6 322.5 242.8C359.6 265.2 384.5 305.9 384.5 352.5C384.5 423.2 327.2 480.5 256.5 480.5H96.5H80.5H32.5C14.8 480.5 0.5 466.2 0.5 448.5C0.5 430.8 14.8 416.5 32.5 416.5H48.5V256.5V96.5H32.5C14.8 96.5 0.5 82.2 0.5 64.5ZM224.5 224.5C259.8 224.5 288.5 195.8 288.5 160.5C288.5 125.2 259.8 96.5 224.5 96.5H112.5V224.5H224.5ZM112.5 288.5V416.5H256.5C291.8 416.5 320.5 387.8 320.5 352.5C320.5 317.2 291.8 288.5 256.5 288.5H224.5H112.5Z" fill="#47535F"/>
</g>
<defs>
<clipPath id="clip0_104_598">
<rect width="384" height="512" fill="white" transform="translate(0.5 0.5)"/>
</clipPath>
</defs>
</svg>
