<svg width="385" height="513" viewBox="0 0 385 513" fill="none" xmlns="http://www.w3.org/2000/svg">
<g clip-path="url(#clip0_104_602)">
<path d="M0.5 256.5L29 28.5C31 12.5 44.6 0.5 60.8 0.5H229.4C244.4 0.5 256.5 12.6 256.5 27.6C256.5 30.8 255.9 34.1 254.8 37.1L208.5 160.5H347.8C368 160.5 384.5 176.9 384.5 197.2C384.5 204.6 382.3 211.8 378.1 217.9L185.9 498.9C180 507.5 170.3 512.6 160 512.6H157.1C141.4 512.6 128.6 499.8 128.6 484.1C128.6 481.8 128.9 479.5 129.5 477.2L176.5 288.5H32.5C14.8 288.5 0.5 274.2 0.5 256.5Z" fill="#47535F"/>
</g>
<defs>
<clipPath id="clip0_104_602">
<rect width="384" height="512" fill="white" transform="translate(0.5 0.5)"/>
</clipPath>
</defs>
</svg>
