<svg width="449" height="513" viewBox="0 0 449 513" fill="none" xmlns="http://www.w3.org/2000/svg">
<g clip-path="url(#clip0_104_600)">
<path d="M349.9 45.0998C355.8 31.3998 351.4 15.3998 339.3 6.59977C327.2 -2.20023 310.7 -1.40023 299.4 8.39977L43.4004 232.4C33.4004 241.2 29.8004 255.3 34.5004 267.7C39.2004 280.1 51.2004 288.5 64.5004 288.5H176L99.1004 467.9C93.2004 481.6 97.6004 497.6 109.7 506.4C121.8 515.2 138.3 514.4 149.6 504.6L405.6 280.6C415.6 271.8 419.2 257.7 414.5 245.3C409.8 232.9 397.9 224.6 384.5 224.6H273L349.9 45.0998Z" fill="#47535F"/>
</g>
<defs>
<clipPath id="clip0_104_600">
<rect width="448" height="512" fill="white" transform="translate(0.5 0.5)"/>
</clipPath>
</defs>
</svg>
