<svg width="513" height="513" viewBox="0 0 513 513" fill="none" xmlns="http://www.w3.org/2000/svg">
<g clip-path="url(#clip0_104_604)">
<path d="M459.6 52.9L443.1 7C441.2 3.1 437 0.5 432.6 0.5C428.2 0.5 424.1 3.1 422.2 7L405.7 52.9L359.7 69.7C355.4 71.3 352.4 75.6 352.5 80.1C352.5 84.6 355.5 88.8 359.7 90.3L405.4 107.1L422.2 152.9C423.7 157.3 428 160.4 432.6 160.4C437.2 160.4 441.5 157.3 443 152.9L459.5 107.1L505.2 90.3C509.4 88.8 512.4 84.6 512.4 80.1C512.4 75.5 509.4 71.2 505.2 69.7L459.6 52.9ZM327.2 105.9C314.7 93.4 294.4 93.4 281.9 105.9L279 108.8C257 100.8 233.2 96.5 208.5 96.5C93.6 96.5 0.5 189.6 0.5 304.5C0.5 419.4 93.6 512.5 208.5 512.5C323.4 512.5 416.5 419.4 416.5 304.5C416.5 279.8 412.2 256 404.3 234L407.2 231.1C419.7 218.6 419.7 198.3 407.2 185.8L327.2 105.8V105.9ZM200.5 192.5C143.1 192.5 96.5 239.1 96.5 296.5V304.5C96.5 313.3 89.3 320.5 80.5 320.5C71.7 320.5 64.5 313.3 64.5 304.5V296.5C64.5 221.4 125.4 160.5 200.5 160.5H208.5C217.3 160.5 224.5 167.7 224.5 176.5C224.5 185.3 217.3 192.5 208.5 192.5H200.5Z" fill="#47535F"/>
</g>
<defs>
<clipPath id="clip0_104_604">
<rect width="512" height="512" fill="white" transform="translate(0.5 0.5)"/>
</clipPath>
</defs>
</svg>
