<svg width="577" height="513" viewBox="0 0 577 513" fill="none" xmlns="http://www.w3.org/2000/svg">
<g clip-path="url(#clip0_104_606)">
<path d="M154.2 145.3C161.1 161.6 174.8 176.5 192.5 176.5H384.5C402.2 176.5 415.9 161.6 422.8 145.3C434.9 116.6 463.4 96.5 496.5 96.5C540.7 96.5 576.5 132.3 576.5 176.5C576.5 206.9 559.5 233.4 534.5 246.9C530.9 248.8 528.5 252.4 528.5 256.5C528.5 260.6 530.9 264.2 534.5 266.1C559.5 279.6 576.5 306.1 576.5 336.5C576.5 380.7 540.7 416.5 496.5 416.5C463.4 416.5 434.9 396.4 422.8 367.7C415.9 351.4 402.2 336.5 384.5 336.5H192.5C174.8 336.5 161.1 351.4 154.2 367.7C142.1 396.4 113.6 416.5 80.5 416.5C36.3 416.5 0.5 380.7 0.5 336.5C0.5 306.1 17.5 279.6 42.5 266.1C46.1 264.2 48.5 260.6 48.5 256.5C48.5 252.4 46.1 248.8 42.5 246.9C17.5 233.4 0.5 206.9 0.5 176.5C0.5 132.3 36.3 96.5 80.5 96.5C113.6 96.5 142.1 116.6 154.2 145.3Z" fill="#47535F"/>
</g>
<defs>
<clipPath id="clip0_104_606">
<rect width="576" height="512" fill="white" transform="translate(0.5 0.5)"/>
</clipPath>
</defs>
</svg>
