<svg width="449" height="513" viewBox="0 0 449 513" fill="none" xmlns="http://www.w3.org/2000/svg">
<g clip-path="url(#clip0_104_608)">
<path d="M160.5 209C160.5 238.1 144.9 262.9 123.3 276.8C106.1 287.9 91.8 302.9 81.6 320.5H303.4C293.2 302.9 278.9 287.9 261.7 276.8C240.1 262.9 224.5 238.1 224.5 209V64.5H160.5V209ZM288.5 64.5V209C288.5 214.7 291.6 219.9 296.4 223C307.6 230.2 317.9 238.5 327.3 247.8L366.6 208.5L359.6 201.5C350.2 192.1 350.2 176.9 359.6 167.6C369 158.3 384.2 158.2 393.5 167.6L417.5 191.6L441.5 215.6C450.9 225 450.9 240.2 441.5 249.5C432.1 258.8 416.9 258.9 407.6 249.5L400.6 242.5L357.3 285.8C374.5 314.6 384.5 348.4 384.5 384.5C384.5 423.9 372.6 460.6 352.3 491C342.7 505.4 325.8 512.5 308.5 512.5H76.6C59.3 512.5 42.4 505.4 32.8 491C12.4 460.6 0.5 423.9 0.5 384.5C0.5 316.7 35.6 257.2 88.6 223C93.4 219.9 96.5 214.7 96.5 209V64.5C78.8 64.5 64.5 50.2 64.5 32.5C64.5 14.8 78.8 0.5 96.5 0.5H112.5H272.5H288.5C306.2 0.5 320.5 14.8 320.5 32.5C320.5 50.2 306.2 64.5 288.5 64.5Z" fill="#47535F"/>
</g>
<defs>
<clipPath id="clip0_104_608">
<rect width="448" height="512" fill="white" transform="translate(0.5 0.5)"/>
</clipPath>
</defs>
</svg>
