<svg width="449" height="513" viewBox="0 0 449 513" fill="none" xmlns="http://www.w3.org/2000/svg">
<g clip-path="url(#clip0_104_628)">
<path d="M352.5 0.5C405.5 0.5 448.5 43.5 448.5 96.5V416.5C448.5 469.5 405.5 512.5 352.5 512.5H64.5H32.5C14.8 512.5 0.5 498.2 0.5 480.5C0.5 462.8 14.8 448.5 32.5 448.5V384.5C14.8 384.5 0.5 370.2 0.5 352.5V32.5C0.5 14.8 14.8 0.5 32.5 0.5H64.5H352.5ZM352.5 384.5H96.5V448.5H352.5C370.2 448.5 384.5 434.2 384.5 416.5C384.5 398.8 370.2 384.5 352.5 384.5ZM274.6 150.7L265.7 172.1L242.6 174C236.9 174.5 234.6 181.5 238.9 185.2L256.5 200.3L251.1 222.9C249.8 228.4 255.8 232.8 260.7 229.8L280.5 217.7L300.3 229.8C305.2 232.8 311.2 228.4 309.9 222.9L304.5 200.3L322.1 185.2C326.4 181.5 324.1 174.4 318.4 174L295.3 172.1L286.4 150.7C284.2 145.4 276.8 145.4 274.6 150.7ZM96.5 192.5C96.5 263.2 153.8 320.5 224.5 320.5C250.1 320.5 274 313 294 300C297.2 297.9 298.5 293.8 297.1 290.3C295.7 286.8 291.9 284.7 288.1 285.5C282 286.7 275.6 287.4 269.1 287.4C216.7 287.4 174.2 244.9 174.2 192.5C174.2 140.1 216.7 97.6 269.1 97.6C275.6 97.6 281.9 98.3 288.1 99.5C291.9 100.3 295.6 98.2 297.1 94.7C298.6 91.2 297.3 87.1 294 85C274 72 250.1 64.5 224.5 64.5C153.8 64.5 96.5 121.8 96.5 192.5Z" fill="#47535F"/>
</g>
<defs>
<clipPath id="clip0_104_628">
<rect width="448" height="512" fill="white" transform="translate(0.5 0.5)"/>
</clipPath>
</defs>
</svg>
