<svg width="449" height="513" viewBox="0 0 449 513" fill="none" xmlns="http://www.w3.org/2000/svg">
<g clip-path="url(#clip0_104_630)">
<path d="M0.5 96.5C0.5 43.5 43.5 0.5 96.5 0.5H384.5H416.5C434.2 0.5 448.5 14.8 448.5 32.5V352.5C448.5 370.2 434.2 384.5 416.5 384.5V448.5C434.2 448.5 448.5 462.8 448.5 480.5C448.5 498.2 434.2 512.5 416.5 512.5H384.5H96.5C43.5 512.5 0.5 469.5 0.5 416.5V96.5ZM64.5 416.5C64.5 434.2 78.8 448.5 96.5 448.5H352.5V384.5H96.5C78.8 384.5 64.5 398.8 64.5 416.5ZM320.5 112.5C320.5 77.2 284.7 48.5 240.5 48.5C196.3 48.5 160.5 77.2 160.5 112.5C160.5 133.4 173.1 152 192.5 163.7V176.5C192.5 185.3 199.7 192.5 208.5 192.5H272.5C281.3 192.5 288.5 185.3 288.5 176.5V163.7C307.9 152 320.5 133.4 320.5 112.5ZM208.5 96.5C212.743 96.5 216.813 98.1857 219.814 101.186C222.814 104.187 224.5 108.257 224.5 112.5C224.5 116.743 222.814 120.813 219.814 123.814C216.813 126.814 212.743 128.5 208.5 128.5C204.257 128.5 200.187 126.814 197.186 123.814C194.186 120.813 192.5 116.743 192.5 112.5C192.5 108.257 194.186 104.187 197.186 101.186C200.187 98.1857 204.257 96.5 208.5 96.5ZM256.5 112.5C256.5 108.257 258.186 104.187 261.186 101.186C264.187 98.1857 268.257 96.5 272.5 96.5C276.743 96.5 280.813 98.1857 283.814 101.186C286.814 104.187 288.5 108.257 288.5 112.5C288.5 116.743 286.814 120.813 283.814 123.814C280.813 126.814 276.743 128.5 272.5 128.5C268.257 128.5 264.187 126.814 261.186 123.814C258.186 120.813 256.5 116.743 256.5 112.5ZM134.8 209.8C126.7 206.3 117.3 210.1 113.8 218.2C110.3 226.3 114.1 235.7 122.2 239.2L199.9 272.5L122.2 305.8C114.1 309.3 110.3 318.7 113.8 326.8C117.3 334.9 126.7 338.7 134.8 335.2L240.5 289.9L346.2 335.2C354.3 338.7 363.7 334.9 367.2 326.8C370.7 318.7 366.9 309.3 358.8 305.8L281.1 272.5L358.8 239.2C366.9 235.7 370.7 226.3 367.2 218.2C363.7 210.1 354.3 206.3 346.2 209.8L240.5 255.1L134.8 209.8Z" fill="#47535F"/>
</g>
<defs>
<clipPath id="clip0_104_630">
<rect width="448" height="512" fill="white" transform="translate(0.5 0.5)"/>
</clipPath>
</defs>
</svg>
