<svg width="513" height="513" viewBox="0 0 513 513" fill="none" xmlns="http://www.w3.org/2000/svg">
<g clip-path="url(#clip0_104_626)">
<path d="M160.5 96.5C160.5 71.0392 170.614 46.6212 188.618 28.6177C206.621 10.6143 231.039 0.5 256.5 0.5C281.961 0.5 306.379 10.6143 324.382 28.6177C342.386 46.6212 352.5 71.0392 352.5 96.5C352.5 121.961 342.386 146.379 324.382 164.382C306.379 182.386 281.961 192.5 256.5 192.5C231.039 192.5 206.621 182.386 188.618 164.382C170.614 146.379 160.5 121.961 160.5 96.5ZM240.5 248.5V512.5L192.1 488.3C171.2 477.9 148.6 471.3 125.3 469L29.3 459.4C13 457.7 0.5 444 0.5 427.5V224.5C0.5 206.8 14.8 192.5 32.5 192.5H62.8C126.4 192.5 188.4 212.1 240.5 248.5ZM272.5 512.5V248.5C324.6 212.1 386.6 192.5 450.2 192.5H480.5C498.2 192.5 512.5 206.8 512.5 224.5V427.5C512.5 443.9 500 457.7 483.7 459.3L387.7 468.9C364.5 471.2 341.8 477.8 320.9 488.2L272.5 512.5Z" fill="#47535F"/>
</g>
<defs>
<clipPath id="clip0_104_626">
<rect width="512" height="512" fill="white" transform="translate(0.5 0.5)"/>
</clipPath>
</defs>
</svg>
