<svg width="449" height="513" viewBox="0 0 449 513" fill="none" xmlns="http://www.w3.org/2000/svg">
<g clip-path="url(#clip0_104_614)">
<path d="M96.5 0.5C43.5 0.5 0.5 43.5 0.5 96.5V416.5C0.5 469.5 43.5 512.5 96.5 512.5H384.5H416.5C434.2 512.5 448.5 498.2 448.5 480.5C448.5 462.8 434.2 448.5 416.5 448.5V384.5C434.2 384.5 448.5 370.2 448.5 352.5V32.5C448.5 14.8 434.2 0.5 416.5 0.5H384.5H96.5ZM96.5 384.5H352.5V448.5H96.5C78.8 448.5 64.5 434.2 64.5 416.5C64.5 398.8 78.8 384.5 96.5 384.5ZM208.5 80.5C208.5 71.7 215.7 64.5 224.5 64.5H256.5C265.3 64.5 272.5 71.7 272.5 80.5V128.5H320.5C329.3 128.5 336.5 135.7 336.5 144.5V176.5C336.5 185.3 329.3 192.5 320.5 192.5H272.5V304.5C272.5 313.3 265.3 320.5 256.5 320.5H224.5C215.7 320.5 208.5 313.3 208.5 304.5V192.5H160.5C151.7 192.5 144.5 185.3 144.5 176.5V144.5C144.5 135.7 151.7 128.5 160.5 128.5H208.5V80.5Z" fill="#47535F"/>
</g>
<defs>
<clipPath id="clip0_104_614">
<rect width="448" height="512" fill="white" transform="translate(0.5 0.5)"/>
</clipPath>
</defs>
</svg>
