<svg width="449" height="513" viewBox="0 0 449 513" fill="none" xmlns="http://www.w3.org/2000/svg">
<g clip-path="url(#clip0_104_610)">
<path d="M96.5 0.5C43.5 0.5 0.5 43.5 0.5 96.5V416.5C0.5 469.5 43.5 512.5 96.5 512.5H384.5H416.5C434.2 512.5 448.5 498.2 448.5 480.5C448.5 462.8 434.2 448.5 416.5 448.5V384.5C434.2 384.5 448.5 370.2 448.5 352.5V32.5C448.5 14.8 434.2 0.5 416.5 0.5H384.5H96.5ZM96.5 384.5H352.5V448.5H96.5C78.8 448.5 64.5 434.2 64.5 416.5C64.5 398.8 78.8 384.5 96.5 384.5ZM128.5 144.5C128.5 135.7 135.7 128.5 144.5 128.5H336.5C345.3 128.5 352.5 135.7 352.5 144.5C352.5 153.3 345.3 160.5 336.5 160.5H144.5C135.7 160.5 128.5 153.3 128.5 144.5ZM144.5 192.5H336.5C345.3 192.5 352.5 199.7 352.5 208.5C352.5 217.3 345.3 224.5 336.5 224.5H144.5C135.7 224.5 128.5 217.3 128.5 208.5C128.5 199.7 135.7 192.5 144.5 192.5Z" fill="#47535F"/>
</g>
<defs>
<clipPath id="clip0_104_610">
<rect width="448" height="512" fill="white" transform="translate(0.5 0.5)"/>
</clipPath>
</defs>
</svg>
