<svg width="449" height="513" viewBox="0 0 449 513" fill="none" xmlns="http://www.w3.org/2000/svg">
<g clip-path="url(#clip0_104_612)">
<path d="M0.5 96.5C0.5 43.5 43.5 0.5 96.5 0.5H384.5H416.5C434.2 0.5 448.5 14.8 448.5 32.5V352.5C448.5 370.2 434.2 384.5 416.5 384.5V448.5C434.2 448.5 448.5 462.8 448.5 480.5C448.5 498.2 434.2 512.5 416.5 512.5H384.5H96.5C43.5 512.5 0.5 469.5 0.5 416.5V96.5ZM64.5 416.5C64.5 434.2 78.8 448.5 96.5 448.5H352.5V384.5H96.5C78.8 384.5 64.5 398.8 64.5 416.5ZM247.9 284.3C244.2 288 241.7 288.5 240.5 288.5C239.3 288.5 236.8 288 233.1 284.3C229.3 280.6 225.1 274.3 221.3 265.4C215.1 250.9 210.5 231.1 209.1 208.5H272.1C270.6 231.1 266.1 250.9 259.9 265.4C256.1 274.3 251.9 280.6 248.1 284.3H247.9ZM290.6 274.4C297.9 256.1 302.6 233.3 304 208.5H335.1C330.4 236.4 313.7 260.2 290.6 274.4ZM290.6 110.6C313.8 124.8 330.5 148.6 335.1 176.5H304C302.6 151.8 297.9 129 290.6 110.6ZM368.5 192.5C368.5 158.552 355.014 125.995 331.01 101.99C307.005 77.9857 274.448 64.5 240.5 64.5C206.552 64.5 173.995 77.9857 149.99 101.99C125.986 125.995 112.5 158.552 112.5 192.5C112.5 226.448 125.986 259.005 149.99 283.01C173.995 307.014 206.552 320.5 240.5 320.5C274.448 320.5 307.005 307.014 331.01 283.01C355.014 259.005 368.5 226.448 368.5 192.5ZM145.8 208.5H176.9C178.3 233.2 183 256 190.3 274.4C167.1 260.2 150.4 236.4 145.8 208.5ZM176.9 176.5H145.8C150.5 148.6 167.2 124.8 190.3 110.6C183 128.9 178.3 151.7 176.9 176.5ZM233 100.7C236.7 97 239.2 96.5 240.4 96.5C241.6 96.5 244.1 97 247.8 100.7C251.6 104.4 255.8 110.7 259.6 119.6C265.8 134.1 270.4 153.9 271.8 176.5H208.8C210.3 153.9 214.8 134.1 221 119.6C224.8 110.7 229 104.4 232.8 100.7H233Z" fill="#47535F"/>
</g>
<defs>
<clipPath id="clip0_104_612">
<rect width="448" height="512" fill="white" transform="translate(0.5 0.5)"/>
</clipPath>
</defs>
</svg>
