<svg width="449" height="513" viewBox="0 0 449 513" fill="none" xmlns="http://www.w3.org/2000/svg">
<g clip-path="url(#clip0_104_622)">
<path d="M0.5 96.5C0.5 43.5 43.5 0.5 96.5 0.5H384.5H416.5C434.2 0.5 448.5 14.8 448.5 32.5V352.5C448.5 370.2 434.2 384.5 416.5 384.5V448.5C434.2 448.5 448.5 462.8 448.5 480.5C448.5 498.2 434.2 512.5 416.5 512.5H384.5H96.5C43.5 512.5 0.5 469.5 0.5 416.5V96.5ZM64.5 416.5C64.5 434.2 78.8 448.5 96.5 448.5H352.5V384.5H96.5C78.8 384.5 64.5 398.8 64.5 416.5ZM208.5 112.5V160.5H160.5C151.7 160.5 144.5 167.7 144.5 176.5V208.5C144.5 217.3 151.7 224.5 160.5 224.5H208.5V272.5C208.5 281.3 215.7 288.5 224.5 288.5H256.5C265.3 288.5 272.5 281.3 272.5 272.5V224.5H320.5C329.3 224.5 336.5 217.3 336.5 208.5V176.5C336.5 167.7 329.3 160.5 320.5 160.5H272.5V112.5C272.5 103.7 265.3 96.5 256.5 96.5H224.5C215.7 96.5 208.5 103.7 208.5 112.5Z" fill="#47535F"/>
</g>
<defs>
<clipPath id="clip0_104_622">
<rect width="448" height="512" fill="white" transform="translate(0.5 0.5)"/>
</clipPath>
</defs>
</svg>
