<svg width="449" height="513" viewBox="0 0 449 513" fill="none" xmlns="http://www.w3.org/2000/svg">
<g clip-path="url(#clip0_104_616)">
<path d="M0.5 96.5C0.5 43.5 43.5 0.5 96.5 0.5H192.5V191.2C192.5 204.6 208 212.1 218.5 203.7L272.5 160.5L326.5 203.7C337 212.1 352.5 204.6 352.5 191.2V0.5H384.5H416.5C434.2 0.5 448.5 14.8 448.5 32.5V352.5C448.5 370.2 434.2 384.5 416.5 384.5V448.5C434.2 448.5 448.5 462.8 448.5 480.5C448.5 498.2 434.2 512.5 416.5 512.5H384.5H96.5C43.5 512.5 0.5 469.5 0.5 416.5V96.5ZM64.5 416.5C64.5 434.2 78.8 448.5 96.5 448.5H352.5V384.5H96.5C78.8 384.5 64.5 398.8 64.5 416.5Z" fill="#47535F"/>
</g>
<defs>
<clipPath id="clip0_104_616">
<rect width="448" height="512" fill="white" transform="translate(0.5 0.5)"/>
</clipPath>
</defs>
</svg>
