<svg width="449" height="513" viewBox="0 0 449 513" fill="none" xmlns="http://www.w3.org/2000/svg">
<g clip-path="url(#clip0_104_632)">
<path d="M352.5 0.5C405.5 0.5 448.5 43.5 448.5 96.5V416.5C448.5 469.5 405.5 512.5 352.5 512.5H64.5H32.5C14.8 512.5 0.5 498.2 0.5 480.5C0.5 462.8 14.8 448.5 32.5 448.5V384.5C14.8 384.5 0.5 370.2 0.5 352.5V32.5C0.5 14.8 14.8 0.5 32.5 0.5H64.5H352.5ZM352.5 384.5H96.5V448.5H352.5C370.2 448.5 384.5 434.2 384.5 416.5C384.5 398.8 370.2 384.5 352.5 384.5ZM139.2 208.5L153.1 232.5H125.4L139.3 208.5H139.2ZM125.3 184.5L97.6 232.5C91.4 243.2 99.1 256.5 111.5 256.5H166.9L194.6 304.5C200.8 315.2 216.2 315.2 222.3 304.5L250 256.5H305.5C317.8 256.5 325.5 243.2 319.4 232.5L291.7 184.5L319.4 136.5C325.6 125.8 317.9 112.5 305.5 112.5H250.1L222.4 64.5C216.2 53.8 200.8 53.8 194.7 64.5L167 112.5H111.5C99.2 112.5 91.5 125.8 97.6 136.5L125.3 184.5ZM153 184.5L180.7 136.5H236.1L263.8 184.5L236.1 232.5H180.8L153.1 184.5H153ZM153 136.5L139.1 160.5L125.2 136.5H152.9H153ZM194.6 112.5L208.5 88.5L222.4 112.5H194.6ZM263.9 136.5H291.6L277.7 160.5L263.8 136.5H263.9ZM277.8 208.5L291.7 232.5H263.9L277.8 208.5ZM222.4 256.5L208.5 280.5L194.6 256.5H222.3H222.4Z" fill="#47535F"/>
</g>
<defs>
<clipPath id="clip0_104_632">
<rect width="448" height="512" fill="white" transform="translate(0.5 0.5)"/>
</clipPath>
</defs>
</svg>
