<svg width="577" height="513" viewBox="0 0 577 513" fill="none" xmlns="http://www.w3.org/2000/svg">
<g clip-path="url(#clip0_104_624)">
<path d="M250.1 472C260.9 475.8 272.5 467.9 272.5 456.5V79.1C272.5 74.9 270.9 70.7 267.5 68.1C247.9 52.5 202.9 32.5 144.5 32.5C94 32.5 46.8 45.8 18.6 56.6C7.3 61 0.5 72.2 0.5 84.3V454.6C0.5 466.5 13.3 474.8 24.6 471.1C56.1 460.6 106 448.5 144.5 448.5C178.4 448.5 223.5 462.5 250.1 472ZM326.9 472C353.5 462.5 398.6 448.5 432.5 448.5C471 448.5 520.9 460.6 552.4 471.1C563.7 474.9 576.5 466.5 576.5 454.6V84.3C576.5 72.2 569.7 61 558.4 56.7C530.2 45.8 483 32.5 432.5 32.5C374.1 32.5 329.1 52.5 309.5 68.1C306.2 70.7 304.5 74.9 304.5 79.1V456.5C304.5 467.9 316.2 475.8 326.9 472Z" fill="#47535F"/>
</g>
<defs>
<clipPath id="clip0_104_624">
<rect width="576" height="512" fill="white" transform="translate(0.5 0.5)"/>
</clipPath>
</defs>
</svg>
