<svg width="449" height="513" viewBox="0 0 449 513" fill="none" xmlns="http://www.w3.org/2000/svg">
<g clip-path="url(#clip0_104_618)">
<path d="M0.5 96.5C0.5 43.5 43.5 0.5 96.5 0.5H384.5H416.5C434.2 0.5 448.5 14.8 448.5 32.5V352.5C448.5 370.2 434.2 384.5 416.5 384.5V448.5C434.2 448.5 448.5 462.8 448.5 480.5C448.5 498.2 434.2 512.5 416.5 512.5H384.5H96.5C43.5 512.5 0.5 469.5 0.5 416.5V96.5ZM64.5 416.5C64.5 434.2 78.8 448.5 96.5 448.5H352.5V384.5H96.5C78.8 384.5 64.5 398.8 64.5 416.5ZM154.9 182.1L133.7 160.9C130.7 171 128.6 181.5 128.6 192.5C128.6 192.7 128.6 193 128.7 193.3C128.8 193.6 128.8 193.8 128.8 194.1L165.7 226.5C168.2 228.6 169.1 232.3 168 235.4C166.7 238.4 163.9 240.5 160.5 240.5C158.6 240.4 156.7 239.7 155.3 238.5L131.7 217.9C143.3 267.5 187.4 304.5 240.5 304.5C293.6 304.5 337.8 267.5 349.4 217.9L325.8 238.5C324.4 239.7 322.5 240.5 320.5 240.5C318.3 240.4 316.1 239.4 314.5 237.7C313.3 236.2 312.6 234.3 312.5 232.5C312.6 230.3 313.6 228.1 315.3 226.5L352.4 194C352.4 193.7 352.4 193.5 352.5 193.2C352.6 192.9 352.6 192.7 352.6 192.4C352.6 181.4 350.5 170.9 347.5 160.8L326.3 182C323.2 185.1 318.2 185.1 315 182C311.8 178.9 311.9 173.9 315 170.8L341.4 144.3C333.2 127.3 320.9 112.6 305.5 101.7C302.8 99.8 299.3 103.1 300.5 106.2C309 128.6 304.1 154.2 287.5 171.8C284.3 175.2 283.9 180.7 286.6 184.5C296.4 198.5 299.3 216.4 294.1 233C288.2 252.4 272.1 267.1 252.2 271.3L250.8 237L263.4 245.6C264 246 264.9 246.2 265.7 246.2C267.2 246.2 268.4 245.4 269.2 244.2C270 243 269.8 241.4 269.1 240.2L260.5 225.9L278.5 222.3C280.3 221.9 281.6 220.2 281.6 218.3C281.6 216.4 280.2 214.8 278.5 214.4L260.5 210.7L269 196.4C269.8 195.2 269.9 193.5 269.1 192.3C268.3 191.1 267.1 190.3 265.6 190.3H265.5C264.8 190.4 264 190.6 263.4 191L249.3 200.6L244.5 88.4C244.4 86.2 242.6 84.5 240.5 84.5C238.4 84.5 236.6 86.1 236.5 88.4L231.9 199.2L219.9 191.1C218.4 190 216.3 190.2 214.9 191.5C213.5 192.8 213.3 194.9 214.1 196.5L222.7 210.8L204.7 214.5C202.9 214.9 201.6 216.5 201.6 218.4C201.6 220.3 203 222 204.7 222.4L222.7 226.2L214.1 240.4C213.9 241 213.6 241.8 213.6 242.4C213.6 243.5 214.1 244.5 214.8 245.4C215.6 246 216.6 246.4 217.6 246.4C218.3 246.4 219.2 246.2 219.8 245.8L230.2 238.7L228.8 271.5C208.9 267.4 192.8 252.6 186.9 233.2C181.8 216.6 184.7 198.8 194.5 184.7C197.2 180.8 196.8 175.4 193.6 172C177 154.5 172 128.9 180.5 106.5C181.7 103.4 178.2 100.1 175.5 102C160.2 112.9 147.9 127.6 139.7 144.6L166.1 171.1C169.2 174.2 169.2 179.2 166.1 182.3C163 185.4 158 185.4 154.9 182.3V182.1Z" fill="#47535F"/>
</g>
<defs>
<clipPath id="clip0_104_618">
<rect width="448" height="512" fill="white" transform="translate(0.5 0.5)"/>
</clipPath>
</defs>
</svg>
