<svg width="449" height="513" viewBox="0 0 449 513" fill="none" xmlns="http://www.w3.org/2000/svg">
<g clip-path="url(#clip0_104_638)">
<path d="M0.5 448.5C0.5 466.2 14.8 480.5 32.5 480.5C50.2 480.5 64.5 466.2 64.5 448.5V112.5C64.5 103.7 71.7 96.5 80.5 96.5H416.5C434.2 96.5 448.5 82.2 448.5 64.5C448.5 46.8 434.2 32.5 416.5 32.5H80.5C36.3 32.5 0.5 68.3 0.5 112.5V448.5ZM160.5 448.5C160.5 440.013 157.129 431.874 151.127 425.873C145.126 419.871 136.987 416.5 128.5 416.5C120.013 416.5 111.874 419.871 105.873 425.873C99.8714 431.874 96.5 440.013 96.5 448.5C96.5 456.987 99.8714 465.126 105.873 471.127C111.874 477.129 120.013 480.5 128.5 480.5C136.987 480.5 145.126 477.129 151.127 471.127C157.129 465.126 160.5 456.987 160.5 448.5ZM352.5 448.5C352.5 440.013 349.129 431.874 343.127 425.873C337.126 419.871 328.987 416.5 320.5 416.5C312.013 416.5 303.874 419.871 297.873 425.873C291.871 431.874 288.5 440.013 288.5 448.5C288.5 456.987 291.871 465.126 297.873 471.127C303.874 477.129 312.013 480.5 320.5 480.5C328.987 480.5 337.126 477.129 343.127 471.127C349.129 465.126 352.5 456.987 352.5 448.5ZM256.5 448.5C256.5 440.013 253.129 431.874 247.127 425.873C241.126 419.871 232.987 416.5 224.5 416.5C216.013 416.5 207.874 419.871 201.873 425.873C195.871 431.874 192.5 440.013 192.5 448.5C192.5 456.987 195.871 465.126 201.873 471.127C207.874 477.129 216.013 480.5 224.5 480.5C232.987 480.5 241.126 477.129 247.127 471.127C253.129 465.126 256.5 456.987 256.5 448.5ZM448.5 448.5C448.5 440.013 445.129 431.874 439.127 425.873C433.126 419.871 424.987 416.5 416.5 416.5C408.013 416.5 399.874 419.871 393.873 425.873C387.871 431.874 384.5 440.013 384.5 448.5C384.5 456.987 387.871 465.126 393.873 471.127C399.874 477.129 408.013 480.5 416.5 480.5C424.987 480.5 433.126 477.129 439.127 471.127C445.129 465.126 448.5 456.987 448.5 448.5ZM416.5 288.5C424.987 288.5 433.126 285.129 439.127 279.127C445.129 273.126 448.5 264.987 448.5 256.5C448.5 248.013 445.129 239.874 439.127 233.873C433.126 227.871 424.987 224.5 416.5 224.5C408.013 224.5 399.874 227.871 393.873 233.873C387.871 239.874 384.5 248.013 384.5 256.5C384.5 264.987 387.871 273.126 393.873 279.127C399.874 285.129 408.013 288.5 416.5 288.5ZM416.5 320.5C408.013 320.5 399.874 323.871 393.873 329.873C387.871 335.874 384.5 344.013 384.5 352.5C384.5 360.987 387.871 369.126 393.873 375.127C399.874 381.129 408.013 384.5 416.5 384.5C424.987 384.5 433.126 381.129 439.127 375.127C445.129 369.126 448.5 360.987 448.5 352.5C448.5 344.013 445.129 335.874 439.127 329.873C433.126 323.871 424.987 320.5 416.5 320.5ZM416.5 192.5C424.987 192.5 433.126 189.129 439.127 183.127C445.129 177.126 448.5 168.987 448.5 160.5C448.5 152.013 445.129 143.874 439.127 137.873C433.126 131.871 424.987 128.5 416.5 128.5C408.013 128.5 399.874 131.871 393.873 137.873C387.871 143.874 384.5 152.013 384.5 160.5C384.5 168.987 387.871 177.126 393.873 183.127C399.874 189.129 408.013 192.5 416.5 192.5Z" fill="#47535F"/>
</g>
<defs>
<clipPath id="clip0_104_638">
<rect width="448" height="512" fill="white" transform="translate(0.5 0.5)"/>
</clipPath>
</defs>
</svg>
