<svg width="449" height="513" viewBox="0 0 449 513" fill="none" xmlns="http://www.w3.org/2000/svg">
<g clip-path="url(#clip0_104_636)">
<path d="M32.5 480.5C24.0131 480.5 15.8737 477.129 9.87258 471.127C3.87142 465.126 0.5 456.987 0.5 448.5C0.5 440.013 3.87142 431.874 9.87258 425.873C15.8737 419.871 24.0131 416.5 32.5 416.5C40.9869 416.5 49.1263 419.871 55.1274 425.873C61.1286 431.874 64.5 440.013 64.5 448.5C64.5 456.987 61.1286 465.126 55.1274 471.127C49.1263 477.129 40.9869 480.5 32.5 480.5ZM128.5 416.5C136.987 416.5 145.126 419.871 151.127 425.873C157.129 431.874 160.5 440.013 160.5 448.5C160.5 456.987 157.129 465.126 151.127 471.127C145.126 477.129 136.987 480.5 128.5 480.5C120.013 480.5 111.874 477.129 105.873 471.127C99.8714 465.126 96.5 456.987 96.5 448.5C96.5 440.013 99.8714 431.874 105.873 425.873C111.874 419.871 120.013 416.5 128.5 416.5ZM128.5 32.5C136.987 32.5 145.126 35.8714 151.127 41.8726C157.129 47.8737 160.5 56.0131 160.5 64.5C160.5 72.9869 157.129 81.1263 151.127 87.1274C145.126 93.1286 136.987 96.5 128.5 96.5C120.013 96.5 111.874 93.1286 105.873 87.1274C99.8714 81.1263 96.5 72.9869 96.5 64.5C96.5 56.0131 99.8714 47.8737 105.873 41.8726C111.874 35.8714 120.013 32.5 128.5 32.5ZM128.5 288.5C120.013 288.5 111.874 285.129 105.873 279.127C99.8714 273.126 96.5 264.987 96.5 256.5C96.5 248.013 99.8714 239.874 105.873 233.873C111.874 227.871 120.013 224.5 128.5 224.5C136.987 224.5 145.126 227.871 151.127 233.873C157.129 239.874 160.5 248.013 160.5 256.5C160.5 264.987 157.129 273.126 151.127 279.127C145.126 285.129 136.987 288.5 128.5 288.5ZM320.5 416.5C328.987 416.5 337.126 419.871 343.127 425.873C349.129 431.874 352.5 440.013 352.5 448.5C352.5 456.987 349.129 465.126 343.127 471.127C337.126 477.129 328.987 480.5 320.5 480.5C312.013 480.5 303.874 477.129 297.873 471.127C291.871 465.126 288.5 456.987 288.5 448.5C288.5 440.013 291.871 431.874 297.873 425.873C303.874 419.871 312.013 416.5 320.5 416.5ZM320.5 96.5C312.013 96.5 303.874 93.1286 297.873 87.1274C291.871 81.1263 288.5 72.9869 288.5 64.5C288.5 56.0131 291.871 47.8737 297.873 41.8726C303.874 35.8714 312.013 32.5 320.5 32.5C328.987 32.5 337.126 35.8714 343.127 41.8726C349.129 47.8737 352.5 56.0131 352.5 64.5C352.5 72.9869 349.129 81.1263 343.127 87.1274C337.126 93.1286 328.987 96.5 320.5 96.5ZM320.5 224.5C328.987 224.5 337.126 227.871 343.127 233.873C349.129 239.874 352.5 248.013 352.5 256.5C352.5 264.987 349.129 273.126 343.127 279.127C337.126 285.129 328.987 288.5 320.5 288.5C312.013 288.5 303.874 285.129 297.873 279.127C291.871 273.126 288.5 264.987 288.5 256.5C288.5 248.013 291.871 239.874 297.873 233.873C303.874 227.871 312.013 224.5 320.5 224.5ZM224.5 480.5C216.013 480.5 207.874 477.129 201.873 471.127C195.871 465.126 192.5 456.987 192.5 448.5C192.5 440.013 195.871 431.874 201.873 425.873C207.874 419.871 216.013 416.5 224.5 416.5C232.987 416.5 241.126 419.871 247.127 425.873C253.129 431.874 256.5 440.013 256.5 448.5C256.5 456.987 253.129 465.126 247.127 471.127C241.126 477.129 232.987 480.5 224.5 480.5ZM224.5 32.5C232.987 32.5 241.126 35.8714 247.127 41.8726C253.129 47.8737 256.5 56.0131 256.5 64.5C256.5 72.9869 253.129 81.1263 247.127 87.1274C241.126 93.1286 232.987 96.5 224.5 96.5C216.013 96.5 207.874 93.1286 201.873 87.1274C195.871 81.1263 192.5 72.9869 192.5 64.5C192.5 56.0131 195.871 47.8737 201.873 41.8726C207.874 35.8714 216.013 32.5 224.5 32.5ZM224.5 288.5C216.013 288.5 207.874 285.129 201.873 279.127C195.871 273.126 192.5 264.987 192.5 256.5C192.5 248.013 195.871 239.874 201.873 233.873C207.874 227.871 216.013 224.5 224.5 224.5C232.987 224.5 241.126 227.871 247.127 233.873C253.129 239.874 256.5 248.013 256.5 256.5C256.5 264.987 253.129 273.126 247.127 279.127C241.126 285.129 232.987 288.5 224.5 288.5ZM416.5 416.5C424.987 416.5 433.126 419.871 439.127 425.873C445.129 431.874 448.5 440.013 448.5 448.5C448.5 456.987 445.129 465.126 439.127 471.127C433.126 477.129 424.987 480.5 416.5 480.5C408.013 480.5 399.874 477.129 393.873 471.127C387.871 465.126 384.5 456.987 384.5 448.5C384.5 440.013 387.871 431.874 393.873 425.873C399.874 419.871 408.013 416.5 416.5 416.5ZM416.5 32.5C424.987 32.5 433.126 35.8714 439.127 41.8726C445.129 47.8737 448.5 56.0131 448.5 64.5C448.5 72.9869 445.129 81.1263 439.127 87.1274C433.126 93.1286 424.987 96.5 416.5 96.5C408.013 96.5 399.874 93.1286 393.873 87.1274C387.871 81.1263 384.5 72.9869 384.5 64.5C384.5 56.0131 387.871 47.8737 393.873 41.8726C399.874 35.8714 408.013 32.5 416.5 32.5ZM32.5 96.5C24.0131 96.5 15.8737 93.1286 9.87258 87.1274C3.87142 81.1263 0.5 72.9869 0.5 64.5C0.5 56.0131 3.87142 47.8737 9.87258 41.8726C15.8737 35.8714 24.0131 32.5 32.5 32.5C40.9869 32.5 49.1263 35.8714 55.1274 41.8726C61.1286 47.8737 64.5 56.0131 64.5 64.5C64.5 72.9869 61.1286 81.1263 55.1274 87.1274C49.1263 93.1286 40.9869 96.5 32.5 96.5ZM416.5 224.5C424.987 224.5 433.126 227.871 439.127 233.873C445.129 239.874 448.5 248.013 448.5 256.5C448.5 264.987 445.129 273.126 439.127 279.127C433.126 285.129 424.987 288.5 416.5 288.5C408.013 288.5 399.874 285.129 393.873 279.127C387.871 273.126 384.5 264.987 384.5 256.5C384.5 248.013 387.871 239.874 393.873 233.873C399.874 227.871 408.013 224.5 416.5 224.5ZM32.5 288.5C24.0131 288.5 15.8737 285.129 9.87258 279.127C3.87142 273.126 0.5 264.987 0.5 256.5C0.5 248.013 3.87142 239.874 9.87258 233.873C15.8737 227.871 24.0131 224.5 32.5 224.5C40.9869 224.5 49.1263 227.871 55.1274 233.873C61.1286 239.874 64.5 248.013 64.5 256.5C64.5 264.987 61.1286 273.126 55.1274 279.127C49.1263 285.129 40.9869 288.5 32.5 288.5ZM224.5 320.5C232.987 320.5 241.126 323.871 247.127 329.873C253.129 335.874 256.5 344.013 256.5 352.5C256.5 360.987 253.129 369.126 247.127 375.127C241.126 381.129 232.987 384.5 224.5 384.5C216.013 384.5 207.874 381.129 201.873 375.127C195.871 369.126 192.5 360.987 192.5 352.5C192.5 344.013 195.871 335.874 201.873 329.873C207.874 323.871 216.013 320.5 224.5 320.5ZM416.5 384.5C408.013 384.5 399.874 381.129 393.873 375.127C387.871 369.126 384.5 360.987 384.5 352.5C384.5 344.013 387.871 335.874 393.873 329.873C399.874 323.871 408.013 320.5 416.5 320.5C424.987 320.5 433.126 323.871 439.127 329.873C445.129 335.874 448.5 344.013 448.5 352.5C448.5 360.987 445.129 369.126 439.127 375.127C433.126 381.129 424.987 384.5 416.5 384.5ZM32.5 320.5C40.9869 320.5 49.1263 323.871 55.1274 329.873C61.1286 335.874 64.5 344.013 64.5 352.5C64.5 360.987 61.1286 369.126 55.1274 375.127C49.1263 381.129 40.9869 384.5 32.5 384.5C24.0131 384.5 15.8737 381.129 9.87258 375.127C3.87142 369.126 0.5 360.987 0.5 352.5C0.5 344.013 3.87142 335.874 9.87258 329.873C15.8737 323.871 24.0131 320.5 32.5 320.5ZM416.5 192.5C408.013 192.5 399.874 189.129 393.873 183.127C387.871 177.126 384.5 168.987 384.5 160.5C384.5 152.013 387.871 143.874 393.873 137.873C399.874 131.871 408.013 128.5 416.5 128.5C424.987 128.5 433.126 131.871 439.127 137.873C445.129 143.874 448.5 152.013 448.5 160.5C448.5 168.987 445.129 177.126 439.127 183.127C433.126 189.129 424.987 192.5 416.5 192.5ZM32.5 128.5C40.9869 128.5 49.1263 131.871 55.1274 137.873C61.1286 143.874 64.5 152.013 64.5 160.5C64.5 168.987 61.1286 177.126 55.1274 183.127C49.1263 189.129 40.9869 192.5 32.5 192.5C24.0131 192.5 15.8737 189.129 9.87258 183.127C3.87142 177.126 0.5 168.987 0.5 160.5C0.5 152.013 3.87142 143.874 9.87258 137.873C15.8737 131.871 24.0131 128.5 32.5 128.5ZM224.5 192.5C216.013 192.5 207.874 189.129 201.873 183.127C195.871 177.126 192.5 168.987 192.5 160.5C192.5 152.013 195.871 143.874 201.873 137.873C207.874 131.871 216.013 128.5 224.5 128.5C232.987 128.5 241.126 131.871 247.127 137.873C253.129 143.874 256.5 152.013 256.5 160.5C256.5 168.987 253.129 177.126 247.127 183.127C241.126 189.129 232.987 192.5 224.5 192.5Z" fill="#47535F"/>
</g>
<defs>
<clipPath id="clip0_104_636">
<rect width="448" height="512" fill="white" transform="translate(0.5 0.5)"/>
</clipPath>
</defs>
</svg>
