<svg width="513" height="513" viewBox="0 0 513 513" fill="none" xmlns="http://www.w3.org/2000/svg">
<g clip-path="url(#clip0_104_640)">
<path d="M256.5 0.5C238.8 0.5 224.5 14.8 224.5 32.5V297.1C205.4 308.2 192.5 328.8 192.5 352.5C192.5 387.8 221.2 416.5 256.5 416.5C291.8 416.5 320.5 387.8 320.5 352.5C320.5 328.8 307.6 308.1 288.5 297.1V32.5C288.5 14.8 274.2 0.5 256.5 0.5ZM48.5 128.5C22 128.5 0.5 150 0.5 176.5V464.5C0.5 491 22 512.5 48.5 512.5H464.5C491 512.5 512.5 491 512.5 464.5V176.5C512.5 150 491 128.5 464.5 128.5H384.5C366.8 128.5 352.5 142.8 352.5 160.5V352.5C352.5 405.5 309.5 448.5 256.5 448.5C203.5 448.5 160.5 405.5 160.5 352.5V160.5C160.5 142.8 146.2 128.5 128.5 128.5H48.5Z" fill="#47535F"/>
</g>
<defs>
<clipPath id="clip0_104_640">
<rect width="512" height="512" fill="white" transform="translate(0.5 0.5)"/>
</clipPath>
</defs>
</svg>
