<svg width="321" height="513" viewBox="0 0 321 513" fill="none" xmlns="http://www.w3.org/2000/svg">
<g clip-path="url(#clip0_104_642)">
<path d="M96.5 0.5C83.2 0.5 72.5 11.2 72.5 24.5C72.5 37.8 83.2 48.5 96.5 48.5C100.9 48.5 104.5 52.1 104.5 56.5V121.4C104.5 133.6 97.3 144.5 87.3 151.5C54.2 174.6 32.5 213 32.5 256.5V448.5C32.5 483.8 61.2 512.5 96.5 512.5H224.5C259.8 512.5 288.5 483.8 288.5 448.5V256.5C288.5 213 266.8 174.6 233.7 151.5C223.7 144.5 216.5 133.6 216.5 121.4V56.5C216.5 52.1 220.1 48.5 224.5 48.5C237.8 48.5 248.5 37.8 248.5 24.5C248.5 11.2 237.8 0.5 224.5 0.5H216.5H104.5H96.5ZM160.5 382.5C134 382.5 112.5 362.4 112.5 337.5C112.5 320.7 134.6 289.4 148.8 271.1C154.8 263.3 166.3 263.3 172.3 271.1C186.4 289.4 208.5 320.7 208.5 337.5C208.5 362.4 187 382.5 160.5 382.5Z" fill="#47535F"/>
</g>
<defs>
<clipPath id="clip0_104_642">
<rect width="320" height="512" fill="white" transform="translate(0.5 0.5)"/>
</clipPath>
</defs>
</svg>
