<svg width="321" height="513" viewBox="0 0 321 513" fill="none" xmlns="http://www.w3.org/2000/svg">
<g clip-path="url(#clip0_104_644)">
<path d="M120.5 0.5H200.5C213.8 0.5 224.5 11.2 224.5 24.5V64.5H96.5V24.5C96.5 11.2 107.2 0.5 120.5 0.5ZM32.5 152.2C32.5 136.6 41.5 122.4 55.7 115.7L80.1 104.3C91.1 99.2 103.1 96.5 115.2 96.5H205.8C217.9 96.5 229.9 99.2 240.9 104.3L265.3 115.7C279.4 122.3 288.5 136.5 288.5 152.2C288.5 166.6 281 179.2 269.6 186.3C281.1 195.1 288.5 208.9 288.5 224.5C288.5 241.2 280 255.9 267 264.5C279.9 273.1 288.5 287.8 288.5 304.5C288.5 321.2 280 335.9 267 344.5C279.9 353.1 288.5 367.8 288.5 384.5C288.5 401.2 280 415.9 267 424.5C279.9 433.1 288.5 447.8 288.5 464.5C288.5 491 267 512.5 240.5 512.5H80.5C54 512.5 32.5 491 32.5 464.5C32.5 447.8 41 433.1 54 424.5C41 415.9 32.5 401.2 32.5 384.5C32.5 367.8 41 353.1 54 344.5C41 335.9 32.5 321.2 32.5 304.5C32.5 287.8 41 273.1 54 264.5C41 255.9 32.5 241.2 32.5 224.5C32.5 208.9 39.9 195.1 51.4 186.3C40 179.2 32.5 166.6 32.5 152.2ZM96.5 240.5C96.5 249.3 103.7 256.5 112.5 256.5H208.5C217.3 256.5 224.5 249.3 224.5 240.5C224.5 231.7 217.3 224.5 208.5 224.5H112.5C103.7 224.5 96.5 231.7 96.5 240.5ZM112.5 352.5C103.7 352.5 96.5 359.7 96.5 368.5C96.5 377.3 103.7 384.5 112.5 384.5H208.5C217.3 384.5 224.5 377.3 224.5 368.5C224.5 359.7 217.3 352.5 208.5 352.5H112.5Z" fill="#47535F"/>
</g>
<defs>
<clipPath id="clip0_104_644">
<rect width="320" height="512" fill="white" transform="translate(0.5 0.5)"/>
</clipPath>
</defs>
</svg>
