<svg width="513" height="513" viewBox="0 0 513 513" fill="none" xmlns="http://www.w3.org/2000/svg">
<g clip-path="url(#clip0_104_646)">
<path d="M0.5 192.5C0.5 157.2 29.2 128.5 64.5 128.5C65 128.5 65.6 128.5 66.1 128.5C73.5 92 105.8 64.5 144.5 64.5C159.5 64.5 173.5 68.6 185.4 75.7C198.7 50.1 225.6 32.5 256.5 32.5C287.4 32.5 314.3 50.1 327.6 75.7C339.5 68.6 353.5 64.5 368.5 64.5C407.2 64.5 439.5 92 446.9 128.5C447.4 128.5 448 128.5 448.5 128.5C483.8 128.5 512.5 157.2 512.5 192.5C512.5 204.2 509.4 215.1 503.9 224.5H9.1C3.6 215.1 0.5 204.2 0.5 192.5ZM0.5 283.9C0.5 268.8 12.8 256.5 27.9 256.5H485.1C500.2 256.5 512.5 268.8 512.5 283.9C512.5 354.4 468.1 414.6 405.8 438L404 452.5C402 468.5 388.4 480.5 372.2 480.5H140.7C124.6 480.5 110.9 468.5 108.9 452.5L107.1 438.1C44.9 414.6 0.5 354.4 0.5 283.9Z" fill="#47535F"/>
</g>
<defs>
<clipPath id="clip0_104_646">
<rect width="512" height="512" fill="white" transform="translate(0.5 0.5)"/>
</clipPath>
</defs>
</svg>
