<svg width="513" height="513" viewBox="0 0 513 513" fill="none" xmlns="http://www.w3.org/2000/svg">
<g clip-path="url(#clip0_104_650)">
<path d="M176.5 56.5C176.5 43.2 187.2 32.5 200.5 32.5H216.5C229.8 32.5 240.5 43.2 240.5 56.5C240.5 69.8 229.8 80.5 216.5 80.5H200.5C187.2 80.5 176.5 69.8 176.5 56.5ZM200.5 104.5H216.5C229.8 104.5 240.5 115.2 240.5 128.5C240.5 141.8 229.8 152.5 216.5 152.5H200.5C187.2 152.5 176.5 141.8 176.5 128.5C176.5 115.2 187.2 104.5 200.5 104.5ZM56.5 176.5H72.5C85.8 176.5 96.5 187.2 96.5 200.5C96.5 213.8 85.8 224.5 72.5 224.5H56.5C43.2 224.5 32.5 213.8 32.5 200.5C32.5 187.2 43.2 176.5 56.5 176.5ZM0.5 283.9C0.5 268.8 12.8 256.5 27.9 256.5H485.1C500.2 256.5 512.5 268.8 512.5 283.9C512.5 354.4 468.1 414.6 405.8 438L404 452.5C402 468.5 388.4 480.5 372.2 480.5H140.7C124.6 480.5 110.9 468.5 108.9 452.5L107.1 438.1C44.9 414.6 0.5 354.4 0.5 283.9ZM224.5 200.5C224.5 187.2 235.2 176.5 248.5 176.5H264.5C277.8 176.5 288.5 187.2 288.5 200.5C288.5 213.8 277.8 224.5 264.5 224.5H248.5C235.2 224.5 224.5 213.8 224.5 200.5ZM128.5 200.5C128.5 187.2 139.2 176.5 152.5 176.5H168.5C181.8 176.5 192.5 187.2 192.5 200.5C192.5 213.8 181.8 224.5 168.5 224.5H152.5C139.2 224.5 128.5 213.8 128.5 200.5ZM104.5 104.5H120.5C133.8 104.5 144.5 115.2 144.5 128.5C144.5 141.8 133.8 152.5 120.5 152.5H104.5C91.2 152.5 80.5 141.8 80.5 128.5C80.5 115.2 91.2 104.5 104.5 104.5ZM320.5 200.5C320.5 187.2 331.2 176.5 344.5 176.5H360.5C373.8 176.5 384.5 187.2 384.5 200.5C384.5 213.8 373.8 224.5 360.5 224.5H344.5C331.2 224.5 320.5 213.8 320.5 200.5ZM296.5 104.5H312.5C325.8 104.5 336.5 115.2 336.5 128.5C336.5 141.8 325.8 152.5 312.5 152.5H296.5C283.2 152.5 272.5 141.8 272.5 128.5C272.5 115.2 283.2 104.5 296.5 104.5ZM416.5 200.5C416.5 187.2 427.2 176.5 440.5 176.5H456.5C469.8 176.5 480.5 187.2 480.5 200.5C480.5 213.8 469.8 224.5 456.5 224.5H440.5C427.2 224.5 416.5 213.8 416.5 200.5ZM392.5 104.5H408.5C421.8 104.5 432.5 115.2 432.5 128.5C432.5 141.8 421.8 152.5 408.5 152.5H392.5C379.2 152.5 368.5 141.8 368.5 128.5C368.5 115.2 379.2 104.5 392.5 104.5ZM296.5 32.5H312.5C325.8 32.5 336.5 43.2 336.5 56.5C336.5 69.8 325.8 80.5 312.5 80.5H296.5C283.2 80.5 272.5 69.8 272.5 56.5C272.5 43.2 283.2 32.5 296.5 32.5Z" fill="#47535F"/>
</g>
<defs>
<clipPath id="clip0_104_650">
<rect width="512" height="512" fill="white" transform="translate(0.5 0.5)"/>
</clipPath>
</defs>
</svg>
