<svg width="513" height="513" viewBox="0 0 513 513" fill="none" xmlns="http://www.w3.org/2000/svg">
<g clip-path="url(#clip0_104_648)">
<path d="M256.5 512.5C324.395 512.5 389.51 485.529 437.519 437.519C485.529 389.51 512.5 324.395 512.5 256.5C512.5 188.605 485.529 123.49 437.519 75.4807C389.51 27.4714 324.395 0.5 256.5 0.5C188.605 0.5 123.49 27.4714 75.4807 75.4807C27.4714 123.49 0.5 188.605 0.5 256.5C0.5 324.395 27.4714 389.51 75.4807 437.519C123.49 485.529 188.605 512.5 256.5 512.5ZM240.5 80.5C248.987 80.5 257.126 83.8714 263.127 89.8726C269.129 95.8737 272.5 104.013 272.5 112.5C272.5 120.987 269.129 129.126 263.127 135.127C257.126 141.129 248.987 144.5 240.5 144.5C232.013 144.5 223.874 141.129 217.873 135.127C211.871 129.126 208.5 120.987 208.5 112.5C208.5 104.013 211.871 95.8737 217.873 89.8726C223.874 83.8714 232.013 80.5 240.5 80.5ZM208.5 208.5C208.5 200.013 211.871 191.874 217.873 185.873C223.874 179.871 232.013 176.5 240.5 176.5C248.987 176.5 257.126 179.871 263.127 185.873C269.129 191.874 272.5 200.013 272.5 208.5C272.5 216.987 269.129 225.126 263.127 231.127C257.126 237.129 248.987 240.5 240.5 240.5C232.013 240.5 223.874 237.129 217.873 231.127C211.871 225.126 208.5 216.987 208.5 208.5ZM144.5 144.5C152.987 144.5 161.126 147.871 167.127 153.873C173.129 159.874 176.5 168.013 176.5 176.5C176.5 184.987 173.129 193.126 167.127 199.127C161.126 205.129 152.987 208.5 144.5 208.5C136.013 208.5 127.874 205.129 121.873 199.127C115.871 193.126 112.5 184.987 112.5 176.5C112.5 168.013 115.871 159.874 121.873 153.873C127.874 147.871 136.013 144.5 144.5 144.5Z" fill="#47535F"/>
</g>
<defs>
<clipPath id="clip0_104_648">
<rect width="512" height="512" fill="white" transform="translate(0.5 0.5)"/>
</clipPath>
</defs>
</svg>
