<svg width="513" height="513" viewBox="0 0 513 513" fill="none" xmlns="http://www.w3.org/2000/svg">
<g clip-path="url(#clip0_104_654)">
<path d="M32.5 32.5H480.5C498.2 32.5 512.5 46.8 512.5 64.5V96.5C512.5 114.2 498.2 128.5 480.5 128.5H32.5C14.8 128.5 0.5 114.2 0.5 96.5V64.5C0.5 46.8 14.8 32.5 32.5 32.5ZM32.5 160.5H480.5V416.5C480.5 451.8 451.8 480.5 416.5 480.5H96.5C61.2 480.5 32.5 451.8 32.5 416.5V160.5ZM160.5 240.5C160.5 249.3 167.7 256.5 176.5 256.5H336.5C345.3 256.5 352.5 249.3 352.5 240.5C352.5 231.7 345.3 224.5 336.5 224.5H176.5C167.7 224.5 160.5 231.7 160.5 240.5Z" fill="#47535F"/>
</g>
<defs>
<clipPath id="clip0_104_654">
<rect width="512" height="512" fill="white" transform="translate(0.5 0.5)"/>
</clipPath>
</defs>
</svg>
