<svg width="513" height="513" viewBox="0 0 513 513" fill="none" xmlns="http://www.w3.org/2000/svg">
<g clip-path="url(#clip0_104_662)">
<path d="M93 0.5H208.5C248.5 0.5 260.5 24.5 272.5 48.5C284.5 72.5 296.5 96.5 336.5 96.5H421.7C436.5 96.5 448.5 108.5 448.5 123.3C448.5 126.7 447.8 130.1 446.6 133.3L410.1 224.5L384.5 288.5H128.5L112.5 224.5L65.4 35.9C64.8 33.6 64.5 31.3 64.5 29C64.5 13.3 77.3 0.5 93 0.5ZM79.5 224.5L95.5 288.5H80.5C71.7 288.5 64.5 295.7 64.5 304.5C64.5 313.3 71.7 320.5 80.5 320.5H128.5H384.5H432.5C441.3 320.5 448.5 313.3 448.5 304.5C448.5 295.7 441.3 288.5 432.5 288.5H419L444.6 224.5H464.5C491 224.5 512.5 246 512.5 272.5V384.5H0.5V272.5C0.5 246 22 224.5 48.5 224.5H79.5ZM0.5 416.5H512.5V464.5C512.5 491 491 512.5 464.5 512.5H48.5C22 512.5 0.5 491 0.5 464.5V416.5Z" fill="#47535F"/>
</g>
<defs>
<clipPath id="clip0_104_662">
<rect width="512" height="512" fill="white" transform="translate(0.5 0.5)"/>
</clipPath>
</defs>
</svg>
