<svg width="641" height="513" viewBox="0 0 641 513" fill="none" xmlns="http://www.w3.org/2000/svg">
<path d="M59.3999 42.5998C62.3999 36.4998 68.9999 32.9998 75.6999 33.8998L320.5 64.4998L565.3 33.8998C572 33.0998 578.6 36.5998 581.6 42.5998L623.3 126C632.3 143.9 622.7 165.6 603.5 171.1L440.1 217.8C426.2 221.8 411.3 215.9 403.9 203.5L320.5 64.4998L237.1 203.5C229.7 215.9 214.8 221.8 200.9 217.8L37.5999 171.1C18.2999 165.6 8.79994 143.9 17.7999 126L59.3999 42.5998ZM321.6 128.5L376.5 219.9C391.4 244.7 421.1 256.5 449 248.5L576.5 212.1V379.1C576.5 401.1 561.5 420.3 540.1 425.7L336 476.7C325.8 479.3 315.1 479.3 305 476.7L100.9 425.7C79.4999 420.2 64.4999 401 64.4999 379V212L192.1 248.5C219.9 256.5 249.7 244.7 264.6 219.9L319.4 128.5H321.6Z" fill="#47535F"/>
</svg>
