<svg width="577" height="513" viewBox="0 0 577 513" fill="none" xmlns="http://www.w3.org/2000/svg">
<g clip-path="url(#clip0_104_658)">
<path d="M248.5 0.5H208.5C182 0.5 160.5 22 160.5 48.5V160.5C160.5 195.8 189.2 224.5 224.5 224.5H352.5C387.8 224.5 416.5 195.8 416.5 160.5V48.5C416.5 22 395 0.5 368.5 0.5H328.5V80.5C328.5 89.3 321.3 96.5 312.5 96.5H264.5C255.7 96.5 248.5 89.3 248.5 80.5V0.5ZM64.5 256.5C29.2 256.5 0.5 285.2 0.5 320.5V448.5C0.5 483.8 29.2 512.5 64.5 512.5H224.5C259.8 512.5 288.5 483.8 288.5 448.5V320.5C288.5 285.2 259.8 256.5 224.5 256.5H184.5V336.5C184.5 345.3 177.3 352.5 168.5 352.5H120.5C111.7 352.5 104.5 345.3 104.5 336.5V256.5H64.5ZM352.5 512.5H512.5C547.8 512.5 576.5 483.8 576.5 448.5V320.5C576.5 285.2 547.8 256.5 512.5 256.5H472.5V336.5C472.5 345.3 465.3 352.5 456.5 352.5H408.5C399.7 352.5 392.5 345.3 392.5 336.5V256.5H352.5C337.5 256.5 323.7 261.6 312.8 270.3C317.7 280.7 320.5 292.3 320.5 304.5V464.5C320.5 476.7 317.7 488.3 312.8 498.7C323.7 507.4 337.5 512.5 352.5 512.5Z" fill="#47535F"/>
</g>
<defs>
<clipPath id="clip0_104_658">
<rect width="576" height="512" fill="white" transform="translate(0.5 0.5)"/>
</clipPath>
</defs>
</svg>
