<svg width="641" height="513" viewBox="0 0 641 513" fill="none" xmlns="http://www.w3.org/2000/svg">
<g clip-path="url(#clip0_104_656)">
<path d="M256.5 48.5C256.5 22 278 0.5 304.5 0.5H592.5C619 0.5 640.5 22 640.5 48.5V464.5C640.5 491 619 512.5 592.5 512.5H381.8C383.6 507.5 384.5 502.1 384.5 496.5V253.8C403.1 247.2 416.5 229.4 416.5 208.5V176.5C416.5 150 395 128.5 368.5 128.5H256.5V48.5ZM571.8 347.8C578 341.6 578 331.4 571.8 325.2L507.8 261.2C501.6 255 491.4 255 485.2 261.2L421.2 325.2C415 331.4 415 341.6 421.2 347.8C427.4 354 437.6 354 443.8 347.8L480.5 311.1V432.5C480.5 441.3 487.7 448.5 496.5 448.5C505.3 448.5 512.5 441.3 512.5 432.5V311.1L549.2 347.8C555.4 354 565.6 354 571.8 347.8ZM0.5 176.5C0.5 167.7 7.7 160.5 16.5 160.5H368.5C377.3 160.5 384.5 167.7 384.5 176.5V208.5C384.5 217.3 377.3 224.5 368.5 224.5H16.5C7.7 224.5 0.5 217.3 0.5 208.5V176.5ZM352.5 256.5V480.5C352.5 498.2 338.2 512.5 320.5 512.5H64.5C46.8 512.5 32.5 498.2 32.5 480.5V256.5H352.5ZM144.5 320.5C135.7 320.5 128.5 327.7 128.5 336.5C128.5 345.3 135.7 352.5 144.5 352.5H240.5C249.3 352.5 256.5 345.3 256.5 336.5C256.5 327.7 249.3 320.5 240.5 320.5H144.5Z" fill="#47535F"/>
</g>
<defs>
<clipPath id="clip0_104_656">
<rect width="640" height="512" fill="white" transform="translate(0.5 0.5)"/>
</clipPath>
</defs>
</svg>
