<svg width="513" height="513" viewBox="0 0 513 513" fill="none" xmlns="http://www.w3.org/2000/svg">
<g clip-path="url(#clip0_104_666)">
<path d="M184.5 0.5C215.4 0.5 240.5 25.6 240.5 56.5V456.5C240.5 487.4 215.4 512.5 184.5 512.5C155.6 512.5 131.8 490.6 128.8 462.4C123.6 463.8 118.1 464.5 112.5 464.5C77.2 464.5 48.5 435.8 48.5 400.5C48.5 393.1 49.8 385.9 52.1 379.3C21.9 367.9 0.5 338.7 0.5 304.5C0.5 272.6 19.2 245 46.3 232.2C37.6 221.3 32.5 207.5 32.5 192.5C32.5 161.8 54.1 136.2 82.9 129.9C81.3 124.4 80.5 118.5 80.5 112.5C80.5 82.6 101.1 57.4 128.8 50.4C131.8 22.4 155.6 0.5 184.5 0.5ZM328.5 0.5C357.4 0.5 381.1 22.4 384.2 50.4C412 57.4 432.5 82.5 432.5 112.5C432.5 118.5 431.7 124.4 430.1 129.9C458.9 136.1 480.5 161.8 480.5 192.5C480.5 207.5 475.4 221.3 466.7 232.2C493.8 245 512.5 272.6 512.5 304.5C512.5 338.7 491.1 367.9 460.9 379.3C463.2 385.9 464.5 393.1 464.5 400.5C464.5 435.8 435.8 464.5 400.5 464.5C394.9 464.5 389.4 463.8 384.2 462.4C381.2 490.6 357.4 512.5 328.5 512.5C297.6 512.5 272.5 487.4 272.5 456.5V56.5C272.5 25.6 297.6 0.5 328.5 0.5Z" fill="#47535F"/>
</g>
<defs>
<clipPath id="clip0_104_666">
<rect width="512" height="512" fill="white" transform="translate(0.5 0.5)"/>
</clipPath>
</defs>
</svg>
