<svg width="641" height="513" viewBox="0 0 641 513" fill="none" xmlns="http://www.w3.org/2000/svg">
<g clip-path="url(#clip0_104_664)">
<path d="M0.5 96.5C0.5 79.5261 7.24284 63.2475 19.2452 51.2452C31.2475 39.2428 47.5261 32.5 64.5 32.5C81.4739 32.5 97.7525 39.2428 109.755 51.2452C121.757 63.2475 128.5 79.5261 128.5 96.5C128.5 113.474 121.757 129.753 109.755 141.755C97.7525 153.757 81.4739 160.5 64.5 160.5C47.5261 160.5 31.2475 153.757 19.2452 141.755C7.24284 129.753 0.5 113.474 0.5 96.5ZM224.5 272.5C228.743 272.5 232.813 270.814 235.814 267.814C238.814 264.813 240.5 260.743 240.5 256.5C240.5 252.257 238.814 248.187 235.814 245.186C232.813 242.186 228.743 240.5 224.5 240.5C220.257 240.5 216.187 242.186 213.186 245.186C210.186 248.187 208.5 252.257 208.5 256.5C208.5 260.743 210.186 264.813 213.186 267.814C216.187 270.814 220.257 272.5 224.5 272.5ZM224.5 192.5C241.474 192.5 257.752 199.243 269.755 211.245C281.757 223.247 288.5 239.526 288.5 256.5C288.5 273.474 281.757 289.752 269.755 301.755C257.752 313.757 241.474 320.5 224.5 320.5C207.526 320.5 191.247 313.757 179.245 301.755C167.243 289.752 160.5 273.474 160.5 256.5C160.5 239.526 167.243 223.247 179.245 211.245C191.247 199.243 207.526 192.5 224.5 192.5ZM80.5 416.5C80.5 412.257 78.8143 408.187 75.8137 405.186C72.8131 402.186 68.7435 400.5 64.5 400.5C60.2565 400.5 56.1869 402.186 53.1863 405.186C50.1857 408.187 48.5 412.257 48.5 416.5C48.5 420.743 50.1857 424.813 53.1863 427.814C56.1869 430.814 60.2565 432.5 64.5 432.5C68.7435 432.5 72.8131 430.814 75.8137 427.814C78.8143 424.813 80.5 420.743 80.5 416.5ZM0.5 416.5C0.5 399.526 7.24284 383.248 19.2452 371.245C31.2475 359.243 47.5261 352.5 64.5 352.5C81.4739 352.5 97.7525 359.243 109.755 371.245C121.757 383.248 128.5 399.526 128.5 416.5C128.5 433.474 121.757 449.752 109.755 461.755C97.7525 473.757 81.4739 480.5 64.5 480.5C47.5261 480.5 31.2475 473.757 19.2452 461.755C7.24284 449.752 0.5 433.474 0.5 416.5ZM240.5 416.5C240.5 412.257 238.814 408.187 235.814 405.186C232.813 402.186 228.743 400.5 224.5 400.5C220.257 400.5 216.187 402.186 213.186 405.186C210.186 408.187 208.5 412.257 208.5 416.5C208.5 420.743 210.186 424.813 213.186 427.814C216.187 430.814 220.257 432.5 224.5 432.5C228.743 432.5 232.813 430.814 235.814 427.814C238.814 424.813 240.5 420.743 240.5 416.5ZM160.5 416.5C160.5 399.526 167.243 383.248 179.245 371.245C191.247 359.243 207.526 352.5 224.5 352.5C241.474 352.5 257.752 359.243 269.755 371.245C281.757 383.248 288.5 399.526 288.5 416.5C288.5 433.474 281.757 449.752 269.755 461.755C257.752 473.757 241.474 480.5 224.5 480.5C207.526 480.5 191.247 473.757 179.245 461.755C167.243 449.752 160.5 433.474 160.5 416.5ZM64.5 192.5C81.4739 192.5 97.7525 199.243 109.755 211.245C121.757 223.247 128.5 239.526 128.5 256.5C128.5 273.474 121.757 289.752 109.755 301.755C97.7525 313.757 81.4739 320.5 64.5 320.5C47.5261 320.5 31.2475 313.757 19.2452 301.755C7.24284 289.752 0.5 273.474 0.5 256.5C0.5 239.526 7.24284 223.247 19.2452 211.245C31.2475 199.243 47.5261 192.5 64.5 192.5ZM224.5 32.5C241.474 32.5 257.752 39.2428 269.755 51.2452C281.757 63.2475 288.5 79.5261 288.5 96.5C288.5 113.474 281.757 129.753 269.755 141.755C257.752 153.757 241.474 160.5 224.5 160.5C207.526 160.5 191.247 153.757 179.245 141.755C167.243 129.753 160.5 113.474 160.5 96.5C160.5 79.5261 167.243 63.2475 179.245 51.2452C191.247 39.2428 207.526 32.5 224.5 32.5ZM352.5 96.5C352.5 79.5261 359.243 63.2475 371.245 51.2452C383.248 39.2428 399.526 32.5 416.5 32.5C433.474 32.5 449.752 39.2428 461.755 51.2452C473.757 63.2475 480.5 79.5261 480.5 96.5C480.5 113.474 473.757 129.753 461.755 141.755C449.752 153.757 433.474 160.5 416.5 160.5C399.526 160.5 383.248 153.757 371.245 141.755C359.243 129.753 352.5 113.474 352.5 96.5ZM592.5 96.5C592.5 92.2565 590.814 88.1869 587.814 85.1863C584.813 82.1857 580.743 80.5 576.5 80.5C572.257 80.5 568.187 82.1857 565.186 85.1863C562.186 88.1869 560.5 92.2565 560.5 96.5C560.5 100.743 562.186 104.813 565.186 107.814C568.187 110.814 572.257 112.5 576.5 112.5C580.743 112.5 584.813 110.814 587.814 107.814C590.814 104.813 592.5 100.743 592.5 96.5ZM512.5 96.5C512.5 79.5261 519.243 63.2475 531.245 51.2452C543.248 39.2428 559.526 32.5 576.5 32.5C593.474 32.5 609.752 39.2428 621.755 51.2452C633.757 63.2475 640.5 79.5261 640.5 96.5C640.5 113.474 633.757 129.753 621.755 141.755C609.752 153.757 593.474 160.5 576.5 160.5C559.526 160.5 543.248 153.757 531.245 141.755C519.243 129.753 512.5 113.474 512.5 96.5ZM576.5 272.5C580.743 272.5 584.813 270.814 587.814 267.814C590.814 264.813 592.5 260.743 592.5 256.5C592.5 252.257 590.814 248.187 587.814 245.186C584.813 242.186 580.743 240.5 576.5 240.5C572.257 240.5 568.187 242.186 565.186 245.186C562.186 248.187 560.5 252.257 560.5 256.5C560.5 260.743 562.186 264.813 565.186 267.814C568.187 270.814 572.257 272.5 576.5 272.5ZM576.5 192.5C593.474 192.5 609.752 199.243 621.755 211.245C633.757 223.247 640.5 239.526 640.5 256.5C640.5 273.474 633.757 289.752 621.755 301.755C609.752 313.757 593.474 320.5 576.5 320.5C559.526 320.5 543.248 313.757 531.245 301.755C519.243 289.752 512.5 273.474 512.5 256.5C512.5 239.526 519.243 223.247 531.245 211.245C543.248 199.243 559.526 192.5 576.5 192.5ZM592.5 416.5C592.5 412.257 590.814 408.187 587.814 405.186C584.813 402.186 580.743 400.5 576.5 400.5C572.257 400.5 568.187 402.186 565.186 405.186C562.186 408.187 560.5 412.257 560.5 416.5C560.5 420.743 562.186 424.813 565.186 427.814C568.187 430.814 572.257 432.5 576.5 432.5C580.743 432.5 584.813 430.814 587.814 427.814C590.814 424.813 592.5 420.743 592.5 416.5ZM512.5 416.5C512.5 399.526 519.243 383.248 531.245 371.245C543.248 359.243 559.526 352.5 576.5 352.5C593.474 352.5 609.752 359.243 621.755 371.245C633.757 383.248 640.5 399.526 640.5 416.5C640.5 433.474 633.757 449.752 621.755 461.755C609.752 473.757 593.474 480.5 576.5 480.5C559.526 480.5 543.248 473.757 531.245 461.755C519.243 449.752 512.5 433.474 512.5 416.5ZM416.5 272.5C420.743 272.5 424.813 270.814 427.814 267.814C430.814 264.813 432.5 260.743 432.5 256.5C432.5 252.257 430.814 248.187 427.814 245.186C424.813 242.186 420.743 240.5 416.5 240.5C412.257 240.5 408.187 242.186 405.186 245.186C402.186 248.187 400.5 252.257 400.5 256.5C400.5 260.743 402.186 264.813 405.186 267.814C408.187 270.814 412.257 272.5 416.5 272.5ZM416.5 192.5C433.474 192.5 449.752 199.243 461.755 211.245C473.757 223.247 480.5 239.526 480.5 256.5C480.5 273.474 473.757 289.752 461.755 301.755C449.752 313.757 433.474 320.5 416.5 320.5C399.526 320.5 383.248 313.757 371.245 301.755C359.243 289.752 352.5 273.474 352.5 256.5C352.5 239.526 359.243 223.247 371.245 211.245C383.248 199.243 399.526 192.5 416.5 192.5ZM432.5 416.5C432.5 412.257 430.814 408.187 427.814 405.186C424.813 402.186 420.743 400.5 416.5 400.5C412.257 400.5 408.187 402.186 405.186 405.186C402.186 408.187 400.5 412.257 400.5 416.5C400.5 420.743 402.186 424.813 405.186 427.814C408.187 430.814 412.257 432.5 416.5 432.5C420.743 432.5 424.813 430.814 427.814 427.814C430.814 424.813 432.5 420.743 432.5 416.5ZM352.5 416.5C352.5 399.526 359.243 383.248 371.245 371.245C383.248 359.243 399.526 352.5 416.5 352.5C433.474 352.5 449.752 359.243 461.755 371.245C473.757 383.248 480.5 399.526 480.5 416.5C480.5 433.474 473.757 449.752 461.755 461.755C449.752 473.757 433.474 480.5 416.5 480.5C399.526 480.5 383.248 473.757 371.245 461.755C359.243 449.752 352.5 433.474 352.5 416.5Z" fill="#47535F"/>
</g>
<defs>
<clipPath id="clip0_104_664">
<rect width="640" height="512" fill="white" transform="translate(0.5 0.5)"/>
</clipPath>
</defs>
</svg>
