<svg width="513" height="513" viewBox="0 0 513 513" fill="none" xmlns="http://www.w3.org/2000/svg">
<g clip-path="url(#clip0_104_668)">
<path d="M400.5 0.5C418.2 0.5 432.5 14.8 432.5 32.5V50.7C445 53 457.2 57.1 468.7 62.8L478.8 67.9C494.6 75.8 501 95 493.1 110.8C485.2 126.6 466 133 450.2 125.1L440 120C430.1 115 419.1 112.5 408 112.5H406.3C376.5 112.5 352.4 136.6 352.4 166.4C352.4 188.4 365.8 208.2 386.3 216.4L438.3 237.2C483 255.1 512.4 298.4 512.4 346.6V350C512.4 401.2 478.8 444.6 432.4 459.2V480.5C432.4 498.2 418.1 512.5 400.4 512.5C382.7 512.5 368.4 498.2 368.4 480.5V461.1C353.4 457.6 339 451.4 326.1 442.8L302.7 427.2C288 417.4 284 397.5 293.8 382.8C303.6 368.1 323.5 364.1 338.2 373.9L361.7 389.5C372.5 396.7 385.1 400.5 398 400.5C425.9 400.5 448.5 377.9 448.5 350V346.6C448.5 324.6 435.1 304.8 414.6 296.6L362.6 275.8C317.8 257.9 288.5 214.6 288.5 166.4C288.5 114.5 322 70.5 368.5 54.7V32.5C368.5 14.8 382.8 0.5 400.5 0.5ZM0.5 64.5C0.5 46.8 14.8 32.5 32.5 32.5H112.5C192 32.5 256.5 97 256.5 176.5C256.5 235.3 221.3 285.8 170.8 308.2L222.2 436.6C228.8 453 220.8 471.6 204.4 478.2C188 484.8 169.4 476.8 162.8 460.4L106.8 320.5H64.5V448.5C64.5 466.2 50.2 480.5 32.5 480.5C14.8 480.5 0.5 466.2 0.5 448.5V288.5V64.5ZM64.5 256.5H112.5C156.7 256.5 192.5 220.7 192.5 176.5C192.5 132.3 156.7 96.5 112.5 96.5H64.5V256.5Z" fill="#47535F"/>
</g>
<defs>
<clipPath id="clip0_104_668">
<rect width="512" height="512" fill="white" transform="translate(0.5 0.5)"/>
</clipPath>
</defs>
</svg>
