<svg width="577" height="513" viewBox="0 0 577 513" fill="none" xmlns="http://www.w3.org/2000/svg">
<g clip-path="url(#clip0_104_672)">
<path d="M32.5 32.5C14.8 32.5 0.5 46.8 0.5 64.5C0.5 82.2 14.8 96.5 32.5 96.5H72.5V160.5H0.5V288.5C53.5 288.5 96.5 331.5 96.5 384.5V448.5C96.5 466.2 110.8 480.5 128.5 480.5H160.5C178.2 480.5 192.5 466.2 192.5 448.5V384.5C192.5 331.5 235.5 288.5 288.5 288.5C341.5 288.5 384.5 331.5 384.5 384.5V448.5C384.5 466.2 398.8 480.5 416.5 480.5H448.5C466.2 480.5 480.5 466.2 480.5 448.5V384.5C480.5 331.5 523.5 288.5 576.5 288.5V160.5H504.5V96.5H544.5C562.2 96.5 576.5 82.2 576.5 64.5C576.5 46.8 562.2 32.5 544.5 32.5H32.5ZM456.5 96.5V160.5H376.5V96.5H456.5ZM328.5 96.5V160.5H248.5V96.5H328.5ZM200.5 96.5V160.5H120.5V96.5H200.5Z" fill="#47535F"/>
</g>
<defs>
<clipPath id="clip0_104_672">
<rect width="576" height="512" fill="white" transform="translate(0.5 0.5)"/>
</clipPath>
</defs>
</svg>
