<svg width="577" height="513" viewBox="0 0 577 513" fill="none" xmlns="http://www.w3.org/2000/svg">
<g clip-path="url(#clip0_104_682)">
<path d="M0.5 96.5C0.5 78.8 14.8 64.5 32.5 64.5H544.5C562.2 64.5 576.5 78.8 576.5 96.5V132.1C576.5 147.8 563.8 160.5 548.1 160.5C510.8 160.5 480.5 190.7 480.5 228.1V353C467.6 353 454.7 356.9 443.7 364.7C425.7 377.1 403.6 385 384.5 385V384.5V256.5C384.5 203.5 341.5 160.5 288.5 160.5C235.5 160.5 192.5 203.5 192.5 256.5V384.5V385C173.5 385 151.3 377.1 133.4 364.7C122.3 356.9 109.4 353 96.5 353V228.1C96.5 190.7 66.3 160.5 28.9 160.5C13.2 160.5 0.5 147.8 0.5 132.1V96.5ZM307 390.4C329.5 405.9 357 416.5 384.5 416.5C411.4 416.5 439.9 405.7 461.9 390.4C473.8 381.9 490 382.6 501.1 392.1C515.5 404 533.6 413.1 551.7 417.3C568.9 421.3 579.6 438.5 575.6 455.7C571.6 472.9 554.4 483.6 537.2 479.6C512.7 473.9 492.3 463.1 479 454.6C450 470.2 417.5 480.5 384.5 480.5C352.6 480.5 323.9 470.6 304.1 461.6C298.3 458.9 293 456.3 288.5 453.9C284 456.3 278.8 459 272.9 461.6C253.1 470.6 224.4 480.5 192.5 480.5C159.5 480.5 127 470.2 98 454.7C84.6 463.1 64.3 474 39.8 479.7C22.6 483.7 5.4 473 1.4 455.8C-2.6 438.6 8.1 421.4 25.3 417.4C43.4 413.2 61.5 404.1 75.9 392.2C87 382.8 103.2 382.1 115.1 390.5C137.2 405.7 165.6 416.5 192.5 416.5C220 416.5 247.5 405.9 270 390.4C281.1 382.5 295.9 382.5 307 390.4Z" fill="#47535F"/>
</g>
<defs>
<clipPath id="clip0_104_682">
<rect width="576" height="512" fill="white" transform="translate(0.5 0.5)"/>
</clipPath>
</defs>
</svg>
