<svg width="641" height="513" viewBox="0 0 641 513" fill="none" xmlns="http://www.w3.org/2000/svg">
<g clip-path="url(#clip0_104_680)">
<path d="M32.5 64.5C32.5 46.8 46.8 32.5 64.5 32.5H576.5C594.2 32.5 608.5 46.8 608.5 64.5C608.5 82.2 594.2 96.5 576.5 96.5H536.5V160.5H528.5C466.6 160.5 416.5 210.6 416.5 272.5V297.1C406.6 302.9 398.3 311.2 392.7 321.2C375.1 301.2 349.3 288.5 320.5 288.5C267.5 288.5 224.5 331.5 224.5 384.5V448.5C224.5 466.2 210.2 480.5 192.5 480.5H160.5C142.8 480.5 128.5 466.2 128.5 448.5V384.5C128.5 331.5 85.5 288.5 32.5 288.5V160.5H104.5V96.5H64.5C46.8 96.5 32.5 82.2 32.5 64.5ZM408.5 96.5V160.5H488.5V96.5H408.5ZM360.5 160.5V96.5H280.5V160.5H360.5ZM152.5 96.5V160.5H232.5V96.5H152.5ZM528.5 240.5C510.8 240.5 496.5 254.8 496.5 272.5V320.5H560.5V272.5C560.5 254.8 546.2 240.5 528.5 240.5ZM448.5 272.5C448.5 228.3 484.3 192.5 528.5 192.5C572.7 192.5 608.5 228.3 608.5 272.5V320.5C626.2 320.5 640.5 334.8 640.5 352.5V480.5C640.5 498.2 626.2 512.5 608.5 512.5H448.5C430.8 512.5 416.5 498.2 416.5 480.5V352.5C416.5 334.8 430.8 320.5 448.5 320.5V272.5Z" fill="#47535F"/>
</g>
<defs>
<clipPath id="clip0_104_680">
<rect width="640" height="512" fill="white" transform="translate(0.5 0.5)"/>
</clipPath>
</defs>
</svg>
