<svg width="513" height="513" viewBox="0 0 513 513" fill="none" xmlns="http://www.w3.org/2000/svg">
<g clip-path="url(#clip0_104_684)">
<path d="M184.5 48.5H328.5C332.9 48.5 336.5 52.1 336.5 56.5V96.5H176.5V56.5C176.5 52.1 180.1 48.5 184.5 48.5ZM128.5 56.5V96.5H64.5C29.2 96.5 0.5 125.2 0.5 160.5V256.5H192.5H320.5H512.5V160.5C512.5 125.2 483.8 96.5 448.5 96.5H384.5V56.5C384.5 25.6 359.4 0.5 328.5 0.5H184.5C153.6 0.5 128.5 25.6 128.5 56.5ZM512.5 288.5H320.5V320.5C320.5 338.2 306.2 352.5 288.5 352.5H224.5C206.8 352.5 192.5 338.2 192.5 320.5V288.5H0.5V416.5C0.5 451.8 29.2 480.5 64.5 480.5H448.5C483.8 480.5 512.5 451.8 512.5 416.5V288.5Z" fill="#47535F"/>
</g>
<defs>
<clipPath id="clip0_104_684">
<rect width="512" height="512" fill="white" transform="translate(0.5 0.5)"/>
</clipPath>
</defs>
</svg>
