<svg width="513" height="513" viewBox="0 0 513 513" fill="none" xmlns="http://www.w3.org/2000/svg">
<g clip-path="url(#clip0_104_686)">
<path d="M184.5 48.5H328.5C332.9 48.5 336.5 52.1 336.5 56.5V96.5H176.5V56.5C176.5 52.1 180.1 48.5 184.5 48.5ZM128.5 56.5V96.5H64.5C29.2 96.5 0.5 125.2 0.5 160.5V416.5C0.5 451.8 29.2 480.5 64.5 480.5H448.5C483.8 480.5 512.5 451.8 512.5 416.5V160.5C512.5 125.2 483.8 96.5 448.5 96.5H384.5V56.5C384.5 25.6 359.4 0.5 328.5 0.5H184.5C153.6 0.5 128.5 25.6 128.5 56.5ZM224.5 208.5C224.5 199.7 231.7 192.5 240.5 192.5H272.5C281.3 192.5 288.5 199.7 288.5 208.5V256.5H336.5C345.3 256.5 352.5 263.7 352.5 272.5V304.5C352.5 313.3 345.3 320.5 336.5 320.5H288.5V368.5C288.5 377.3 281.3 384.5 272.5 384.5H240.5C231.7 384.5 224.5 377.3 224.5 368.5V320.5H176.5C167.7 320.5 160.5 313.3 160.5 304.5V272.5C160.5 263.7 167.7 256.5 176.5 256.5H224.5V208.5Z" fill="#47535F"/>
</g>
<defs>
<clipPath id="clip0_104_686">
<rect width="512" height="512" fill="white" transform="translate(0.5 0.5)"/>
</clipPath>
</defs>
</svg>
