<svg width="577" height="513" viewBox="0 0 577 513" fill="none" xmlns="http://www.w3.org/2000/svg">
<g clip-path="url(#clip0_104_690)">
<path d="M567.1 9.8998C579.6 22.3998 579.6 42.6998 567.1 55.1998L375.1 247.2L409.8 281.9C414 286.1 416.4 291.9 416.4 297.9C416.4 310.4 406.3 320.5 393.8 320.5H364.8L256.5 212.2V183.1C256.5 170.6 266.6 160.5 279.1 160.5C285.1 160.5 290.9 162.9 295.1 167.1L329.8 201.8L521.8 9.7998C534.3 -2.7002 554.6 -2.7002 567.1 9.7998V9.8998ZM223.1 235.4L341.6 353.9C345.3 396.6 329.9 439.1 299.3 469.7C271.9 497.1 234.7 512.5 196 512.5H22.6C10.4 512.5 0.5 502.6 0.5 490.4C0.5 484.1 3.2 478.1 7.8 473.9L134.2 360.2C138.4 356.5 133.8 349.8 128.8 352.3L77.7 377.9C71.6 380.9 64.5 376.5 64.5 369.7C64.5 338.2 77 308 99.3 285.7L107.3 277.7C137.9 247.1 180.4 231.8 223.1 235.4ZM464.5 352.5C485.717 352.5 506.066 360.928 521.069 375.931C536.071 390.934 544.5 411.282 544.5 432.5C544.5 453.717 536.071 474.065 521.069 489.068C506.066 504.071 485.717 512.5 464.5 512.5C443.283 512.5 422.934 504.071 407.931 489.068C392.929 474.065 384.5 453.717 384.5 432.5C384.5 411.282 392.929 390.934 407.931 375.931C422.934 360.928 443.283 352.5 464.5 352.5Z" fill="#47535F"/>
</g>
<defs>
<clipPath id="clip0_104_690">
<rect width="576" height="512" fill="white" transform="translate(0.5 0.5)"/>
</clipPath>
</defs>
</svg>
