<svg width="577" height="513" viewBox="0 0 577 513" fill="none" xmlns="http://www.w3.org/2000/svg">
<g clip-path="url(#clip0_104_688)">
<path d="M567.1 55.0998C579.6 42.5998 579.6 22.2998 567.1 9.7998C554.6 -2.7002 534.3 -2.7002 521.8 9.7998L329.8 201.8L295.1 167.1C290.9 162.9 285.1 160.5 279.1 160.5C266.6 160.5 256.5 170.6 256.5 183.1V212.2L364.8 320.5H393.9C406.4 320.5 416.5 310.4 416.5 297.9C416.5 291.9 414.1 286.1 409.9 281.9L375.2 247.2L567.2 55.1998L567.1 55.0998ZM341.6 353.9L223.1 235.4C180.4 231.7 137.9 247.1 107.3 277.7L99.3 285.7C77 308 64.5 338.2 64.5 369.7C64.5 376.5 71.6 380.9 77.7 377.9L128.8 352.4C133.8 349.9 138.3 356.5 134.2 360.3L7.8 473.9C3.2 478.1 0.5 484.1 0.5 490.4C0.5 502.6 10.4 512.5 22.6 512.5H195.9C234.7 512.5 271.8 497.1 299.3 469.7C329.9 439.1 345.2 396.6 341.6 353.9Z" fill="#47535F"/>
</g>
<defs>
<clipPath id="clip0_104_688">
<rect width="576" height="512" fill="white" transform="translate(0.5 0.5)"/>
</clipPath>
</defs>
</svg>
