<svg width="385" height="513" viewBox="0 0 385 513" fill="none" xmlns="http://www.w3.org/2000/svg">
<g clip-path="url(#clip0_104_692)">
<path d="M162.9 6.5C161.4 2.9 157.9 0.5 154 0.5H135C131.1 0.5 127.5 2.9 126.1 6.5L105.4 58.2C102.2 66.2 90.8 66.2 87.6 58.2L66.9 6.5C65.4 2.9 61.9 0.5 58 0.5H48.5C22 0.5 0.5 22 0.5 48.5V224.5V246.9V256.5H10.1H374.9H384.5V246.9V224.5V48.5C384.5 22 363 0.5 336.5 0.5H231C227.1 0.5 223.5 2.9 222.1 6.5L201.4 58.2C198.2 66.2 186.8 66.2 183.6 58.2L162.9 6.5ZM0.5 288.5V320.5C0.5 355.8 29.2 384.5 64.5 384.5H128.5V448.5C128.5 483.8 157.2 512.5 192.5 512.5C227.8 512.5 256.5 483.8 256.5 448.5V384.5H320.5C355.8 384.5 384.5 355.8 384.5 320.5V288.5H0.5ZM192.5 432.5C196.743 432.5 200.813 434.186 203.814 437.186C206.814 440.187 208.5 444.257 208.5 448.5C208.5 452.743 206.814 456.813 203.814 459.814C200.813 462.814 196.743 464.5 192.5 464.5C188.257 464.5 184.187 462.814 181.186 459.814C178.186 456.813 176.5 452.743 176.5 448.5C176.5 444.257 178.186 440.187 181.186 437.186C184.187 434.186 188.257 432.5 192.5 432.5Z" fill="#47535F"/>
</g>
<defs>
<clipPath id="clip0_104_692">
<rect width="384" height="512" fill="white" transform="translate(0.5 0.5)"/>
</clipPath>
</defs>
</svg>
