<svg width="449" height="513" viewBox="0 0 449 513" fill="none" xmlns="http://www.w3.org/2000/svg">
<g clip-path="url(#clip0_104_694)">
<path d="M96.5 152.5V160.5H48.5V152.5C48.5 68.6 116.6 0.5 200.5 0.5H248.5C332.4 0.5 400.5 68.6 400.5 152.5V160.5H352.5V152.5C352.5 95.1 305.9 48.5 248.5 48.5H200.5C143.1 48.5 96.5 95.1 96.5 152.5ZM0.5 224.5C0.5 206.8 14.8 192.5 32.5 192.5H416.5C434.2 192.5 448.5 206.8 448.5 224.5C448.5 242.2 434.2 256.5 416.5 256.5H411.4L389 469.5C386.4 493.9 365.8 512.5 341.3 512.5H107.7C83.1 512.5 62.5 494 60 469.5L37.6 256.5H32.5C14.8 256.5 0.5 242.2 0.5 224.5Z" fill="#47535F"/>
</g>
<defs>
<clipPath id="clip0_104_694">
<rect width="448" height="512" fill="white" transform="translate(0.5 0.5)"/>
</clipPath>
</defs>
</svg>
