<svg width="641" height="513" viewBox="0 0 641 513" fill="none" xmlns="http://www.w3.org/2000/svg">
<g clip-path="url(#clip0_104_700)">
<path d="M39.2998 5.59976C28.8998 -2.60024 13.7998 -0.700238 5.59976 9.69976C-2.60024 20.0998 -0.700238 35.1998 9.69976 43.3998L601.7 507.4C612.1 515.6 627.2 513.7 635.4 503.3C643.6 492.9 641.7 477.8 631.3 469.6L477.9 349.4C479.6 340 480.5 330.4 480.5 320.5H544.5C562.2 320.5 576.5 306.2 576.5 288.5C576.5 270.8 562.2 256.5 544.5 256.5H480.2C479.1 242.4 475.2 229 469.1 217C469.8 216.4 470.5 215.8 471.2 215.1L535.2 151.1C547.7 138.6 547.7 118.3 535.2 105.8C522.7 93.2998 502.4 93.2998 489.9 105.8L425.9 169.8C425.2 170.5 424.6 171.2 424 171.9C409.7 164.6 393.6 160.5 376.5 160.5H264.5C256.2 160.5 248.2 161.5 240.5 163.3L39.2998 5.59976ZM320.5 0.499762C267.5 0.499762 224.5 43.4998 224.5 96.4998V100.1C224.5 115.8 237.2 128.5 252.9 128.5H388.1C403.8 128.5 416.5 115.8 416.5 100.1V96.4998C416.5 43.4998 373.5 0.499762 320.5 0.499762ZM160.8 256.5H96.4998C78.7998 256.5 64.4998 270.8 64.4998 288.5C64.4998 306.2 78.7998 320.5 96.4998 320.5H160.5C160.5 345.1 166 368.3 175.9 389.1C173.7 390.4 171.7 392 169.9 393.9L105.9 457.9C93.3998 470.4 93.3998 490.7 105.9 503.2C118.4 515.7 138.7 515.7 151.2 503.2L214.3 440.1C238.8 461.9 270.1 476.3 304.6 479.7V336L167.2 227.8C163.8 236.8 161.6 246.5 160.8 256.5ZM336.5 479.7C373.1 476.1 406.2 460.1 431.3 435.9L336.5 361.2V479.7Z" fill="#47535F"/>
</g>
<defs>
<clipPath id="clip0_104_700">
<rect width="640" height="512" fill="white" transform="translate(0.5 0.5)"/>
</clipPath>
</defs>
</svg>
