<svg width="513" height="513" viewBox="0 0 513 513" fill="none" xmlns="http://www.w3.org/2000/svg">
<g clip-path="url(#clip0_104_696)">
<path d="M256.5 0.5C309.5 0.5 352.5 43.5 352.5 96.5V100.1C352.5 115.8 339.8 128.5 324.1 128.5H188.9C173.2 128.5 160.5 115.8 160.5 100.1V96.5C160.5 43.5 203.5 0.5 256.5 0.5ZM41.9 105.9C54.4 93.4 74.7 93.4 87.2 105.9L151.2 169.9C151.9 170.6 152.5 171.3 153.1 172C167.3 164.7 183.5 160.6 200.6 160.6H312.5C329.6 160.6 345.7 164.7 360 172C360.6 171.3 361.2 170.6 361.9 169.9L425.9 105.9C438.4 93.4 458.7 93.4 471.2 105.9C483.7 118.4 483.7 138.7 471.2 151.2L407.2 215.2C406.5 215.9 405.8 216.5 405.1 217.1C411.3 229.1 415.2 242.4 416.2 256.6H480.5C498.2 256.6 512.5 270.9 512.5 288.6C512.5 306.3 498.2 320.6 480.5 320.6H416.5C416.5 345.2 411 368.4 401.1 389.2C403.3 390.5 405.3 392.1 407.1 394L471.1 458C483.6 470.5 483.6 490.8 471.1 503.3C458.6 515.8 438.3 515.8 425.8 503.3L362.7 440.2C338.2 462 306.9 476.4 272.4 479.8V240.5C272.4 231.7 265.2 224.5 256.4 224.5C247.6 224.5 240.4 231.7 240.4 240.5V479.7C205.9 476.3 174.6 461.9 150.1 440.1L87.1 503.1C74.6 515.6 54.3 515.6 41.8 503.1C29.3 490.6 29.3 470.3 41.8 457.8L105.8 393.8C107.7 391.9 109.7 390.4 111.8 389C102 368.3 96.5 345.1 96.5 320.5H32.5C14.8 320.5 0.5 306.2 0.5 288.5C0.5 270.8 14.8 256.5 32.5 256.5H96.8C97.9 242.4 101.8 229 107.9 217C107.2 216.4 106.5 215.8 105.8 215.1L41.8 151.1C29.3 138.6 29.3 118.3 41.8 105.8L41.9 105.9Z" fill="#47535F"/>
</g>
<defs>
<clipPath id="clip0_104_696">
<rect width="512" height="512" fill="white" transform="translate(0.5 0.5)"/>
</clipPath>
</defs>
</svg>
