<svg width="577" height="513" viewBox="0 0 577 513" fill="none" xmlns="http://www.w3.org/2000/svg">
<g clip-path="url(#clip0_104_698)">
<path d="M165 107.9L198.4 34.4001C203.9 22.3001 198.5 8.10006 186.5 2.60006C174.5 -2.89994 160.2 2.50006 154.7 14.5001L128.5 72.2001L102.4 14.6001C96.9004 2.50006 82.6004 -2.79994 70.6004 2.60006C58.6004 8.00006 53.2004 22.4001 58.6004 34.4001L92.0004 107.9C81.8004 115 73.8004 124.9 69.1004 136.5H52.1004L48.0004 115.8C45.4004 102.8 32.8004 94.4001 19.8004 97.0001C6.80038 99.6001 -1.59962 112.2 1.00038 125.2L9.00038 165.2C11.2004 176.4 21.1004 184.5 32.5004 184.5H64.5004V207.8L26.7004 217.3C17.2004 219.7 10.1004 227.5 8.80038 237.2L0.800379 293.2C-1.09962 306.3 8.00038 318.5 21.2004 320.4C34.4004 322.3 46.5004 313.2 48.4004 300L54.1004 260L72.5004 255.4C83.2004 275.1 104.3 288.5 128.5 288.5C152.7 288.5 173.8 275.1 184.6 255.3L203 259.9L208.7 299.9C210.6 313 222.7 322.1 235.9 320.3C249.1 318.5 258.1 306.3 256.3 293.1L248.3 237.1C246.9 227.4 239.8 219.6 230.4 217.2L192.5 207.8V184.5H224.5C235.9 184.5 245.8 176.4 248 165.2L256 125.2C258.6 112.2 250.2 99.6001 237.2 97.0001C224.2 94.4001 211.6 102.8 209 115.8L204.8 136.5H187.8C183.1 124.9 175.1 115 164.9 107.9H165ZM496.5 287L562.1 240C572.9 232.3 575.4 217.3 567.7 206.5C560 195.7 545 193.2 534.2 200.9L482.8 237.7L488.9 174.8C490.2 161.6 480.5 149.9 467.3 148.6C454.1 147.3 442.4 157 441.1 170.2L433.3 250.5C421 251.5 409.1 256.1 399.2 263.8L384.5 255.3L391.3 235.3C395.5 222.7 388.8 209.1 376.3 204.9C363.8 200.7 350.1 207.4 345.9 219.9L332.8 258.5C329.1 269.3 333.6 281.3 343.5 287L371.2 303L359.5 323.2L322 312.5C312.6 309.8 302.5 313.1 296.5 320.8L261.6 365.3C253.4 375.7 255.2 390.8 265.7 399C276.2 407.2 291.2 405.4 299.4 394.9L324.4 363.1L342.6 368.3C342.1 390.9 353.6 413 374.6 425.1C395.6 437.2 420.5 436.1 439.8 424.4L453.4 437.6L438.3 475.1C433.4 487.4 439.3 501.4 451.6 506.3C463.9 511.2 477.9 505.3 482.8 493L504 440.5C507.6 431.4 505.4 421.1 498.4 414.3L470.4 387.2L482 367.1L509.7 383.1C519.6 388.8 532.2 386.8 539.7 378.2L566.7 347.5C575.4 337.5 574.5 322.4 564.5 313.6C554.5 304.8 539.4 305.8 530.6 315.8L516.7 331.7L502 323.2C503.7 310.8 501.8 298.2 496.5 287Z" fill="#47535F"/>
</g>
<defs>
<clipPath id="clip0_104_698">
<rect width="576" height="512" fill="white" transform="translate(0.5 0.5)"/>
</clipPath>
</defs>
</svg>
