<svg width="385" height="513" viewBox="0 0 385 513" fill="none" xmlns="http://www.w3.org/2000/svg">
<g clip-path="url(#clip0_104_702)">
<path d="M48.5 0.5C22 0.5 0.5 22 0.5 48.5V464.5C0.5 491 22 512.5 48.5 512.5H144.5V432.5C144.5 406 166 384.5 192.5 384.5C219 384.5 240.5 406 240.5 432.5V512.5H336.5C363 512.5 384.5 491 384.5 464.5V48.5C384.5 22 363 0.5 336.5 0.5H48.5ZM64.5 240.5C64.5 231.7 71.7 224.5 80.5 224.5H112.5C121.3 224.5 128.5 231.7 128.5 240.5V272.5C128.5 281.3 121.3 288.5 112.5 288.5H80.5C71.7 288.5 64.5 281.3 64.5 272.5V240.5ZM176.5 224.5H208.5C217.3 224.5 224.5 231.7 224.5 240.5V272.5C224.5 281.3 217.3 288.5 208.5 288.5H176.5C167.7 288.5 160.5 281.3 160.5 272.5V240.5C160.5 231.7 167.7 224.5 176.5 224.5ZM256.5 240.5C256.5 231.7 263.7 224.5 272.5 224.5H304.5C313.3 224.5 320.5 231.7 320.5 240.5V272.5C320.5 281.3 313.3 288.5 304.5 288.5H272.5C263.7 288.5 256.5 281.3 256.5 272.5V240.5ZM80.5 96.5H112.5C121.3 96.5 128.5 103.7 128.5 112.5V144.5C128.5 153.3 121.3 160.5 112.5 160.5H80.5C71.7 160.5 64.5 153.3 64.5 144.5V112.5C64.5 103.7 71.7 96.5 80.5 96.5ZM160.5 112.5C160.5 103.7 167.7 96.5 176.5 96.5H208.5C217.3 96.5 224.5 103.7 224.5 112.5V144.5C224.5 153.3 217.3 160.5 208.5 160.5H176.5C167.7 160.5 160.5 153.3 160.5 144.5V112.5ZM272.5 96.5H304.5C313.3 96.5 320.5 103.7 320.5 112.5V144.5C320.5 153.3 313.3 160.5 304.5 160.5H272.5C263.7 160.5 256.5 153.3 256.5 144.5V112.5C256.5 103.7 263.7 96.5 272.5 96.5Z" fill="#47535F"/>
</g>
<defs>
<clipPath id="clip0_104_702">
<rect width="384" height="512" fill="white" transform="translate(0.5 0.5)"/>
</clipPath>
</defs>
</svg>
