<svg width="641" height="513" viewBox="0 0 641 513" fill="none" xmlns="http://www.w3.org/2000/svg">
<g clip-path="url(#clip0_104_708)">
<path d="M48.5 0.5C22 0.5 0.5 22 0.5 48.5V464.5C0.5 491 22 512.5 48.5 512.5H144.5V432.5C144.5 406 166 384.5 192.5 384.5C219 384.5 240.5 406 240.5 432.5V512.5H336.5C351.6 512.5 365 505.6 373.8 494.7C340.9 462.7 320.5 418 320.5 368.5C320.5 313.8 345.4 265 384.5 232.7V48.5C384.5 22 363 0.5 336.5 0.5H48.5ZM64.5 240.5C64.5 231.7 71.7 224.5 80.5 224.5H112.5C121.3 224.5 128.5 231.7 128.5 240.5V272.5C128.5 281.3 121.3 288.5 112.5 288.5H80.5C71.7 288.5 64.5 281.3 64.5 272.5V240.5ZM176.5 224.5H208.5C217.3 224.5 224.5 231.7 224.5 240.5V272.5C224.5 281.3 217.3 288.5 208.5 288.5H176.5C167.7 288.5 160.5 281.3 160.5 272.5V240.5C160.5 231.7 167.7 224.5 176.5 224.5ZM256.5 240.5C256.5 231.7 263.7 224.5 272.5 224.5H304.5C313.3 224.5 320.5 231.7 320.5 240.5V272.5C320.5 281.3 313.3 288.5 304.5 288.5H272.5C263.7 288.5 256.5 281.3 256.5 272.5V240.5ZM80.5 96.5H112.5C121.3 96.5 128.5 103.7 128.5 112.5V144.5C128.5 153.3 121.3 160.5 112.5 160.5H80.5C71.7 160.5 64.5 153.3 64.5 144.5V112.5C64.5 103.7 71.7 96.5 80.5 96.5ZM160.5 112.5C160.5 103.7 167.7 96.5 176.5 96.5H208.5C217.3 96.5 224.5 103.7 224.5 112.5V144.5C224.5 153.3 217.3 160.5 208.5 160.5H176.5C167.7 160.5 160.5 153.3 160.5 144.5V112.5ZM272.5 96.5H304.5C313.3 96.5 320.5 103.7 320.5 112.5V144.5C320.5 153.3 313.3 160.5 304.5 160.5H272.5C263.7 160.5 256.5 153.3 256.5 144.5V112.5C256.5 103.7 263.7 96.5 272.5 96.5ZM496.5 512.5C534.691 512.5 571.318 497.329 598.323 470.323C625.329 443.318 640.5 406.691 640.5 368.5C640.5 330.309 625.329 293.682 598.323 266.677C571.318 239.671 534.691 224.5 496.5 224.5C458.309 224.5 421.682 239.671 394.677 266.677C367.671 293.682 352.5 330.309 352.5 368.5C352.5 406.691 367.671 443.318 394.677 470.323C421.682 497.329 458.309 512.5 496.5 512.5ZM496.5 416.5C502.865 416.5 508.97 419.029 513.471 423.529C517.971 428.03 520.5 434.135 520.5 440.5C520.5 446.865 517.971 452.97 513.471 457.471C508.97 461.971 502.865 464.5 496.5 464.5C490.135 464.5 484.03 461.971 479.529 457.471C475.029 452.97 472.5 446.865 472.5 440.5C472.5 434.135 475.029 428.03 479.529 423.529C484.03 419.029 490.135 416.5 496.5 416.5ZM496.5 272.5C505.3 272.5 512.5 279.7 512.5 288.5V368.5C512.5 377.3 505.3 384.5 496.5 384.5C487.7 384.5 480.5 377.3 480.5 368.5V288.5C480.5 279.7 487.7 272.5 496.5 272.5Z" fill="#47535F"/>
</g>
<defs>
<clipPath id="clip0_104_708">
<rect width="640" height="512" fill="white" transform="translate(0.5 0.5)"/>
</clipPath>
</defs>
</svg>
