<svg width="385" height="513" viewBox="0 0 385 513" fill="none" xmlns="http://www.w3.org/2000/svg">
<g clip-path="url(#clip0_104_722)">
<path d="M48.5 0.5C22 0.5 0.5 22 0.5 48.5V464.5C0.5 491 22 512.5 48.5 512.5H144.5V432.5C144.5 406 166 384.5 192.5 384.5C219 384.5 240.5 406 240.5 432.5V512.5H336.5C363 512.5 384.5 491 384.5 464.5V48.5C384.5 22 363 0.5 336.5 0.5H48.5ZM64.5 240.5C64.5 231.7 71.7 224.5 80.5 224.5H112.5C121.3 224.5 128.5 231.7 128.5 240.5V272.5C128.5 281.3 121.3 288.5 112.5 288.5H80.5C71.7 288.5 64.5 281.3 64.5 272.5V240.5ZM176.5 224.5H208.5C217.3 224.5 224.5 231.7 224.5 240.5V272.5C224.5 281.3 217.3 288.5 208.5 288.5H176.5C167.7 288.5 160.5 281.3 160.5 272.5V240.5C160.5 231.7 167.7 224.5 176.5 224.5ZM256.5 240.5C256.5 231.7 263.7 224.5 272.5 224.5H304.5C313.3 224.5 320.5 231.7 320.5 240.5V272.5C320.5 281.3 313.3 288.5 304.5 288.5H272.5C263.7 288.5 256.5 281.3 256.5 272.5V240.5ZM237.8 71.6L272.5 123.6V80.5C272.5 71.7 279.7 64.5 288.5 64.5C297.3 64.5 304.5 71.7 304.5 80.5V176.5C304.5 183.6 299.9 189.8 293.1 191.8C286.3 193.8 279.1 191.2 275.2 185.4L240.5 133.4V176.5C240.5 185.3 233.3 192.5 224.5 192.5C215.7 192.5 208.5 185.3 208.5 176.5V80.5C208.5 73.4 213.1 67.2 219.9 65.2C226.7 63.2 233.9 65.8 237.8 71.6ZM112.5 80.5V144.5C112.5 153.3 119.7 160.5 128.5 160.5C137.3 160.5 144.5 153.3 144.5 144.5V80.5C144.5 71.7 151.7 64.5 160.5 64.5C169.3 64.5 176.5 71.7 176.5 80.5V144.5C176.5 171 155 192.5 128.5 192.5C102 192.5 80.5 171 80.5 144.5V80.5C80.5 71.7 87.7 64.5 96.5 64.5C105.3 64.5 112.5 71.7 112.5 80.5Z" fill="#47535F"/>
</g>
<defs>
<clipPath id="clip0_104_722">
<rect width="384" height="512" fill="white" transform="translate(0.5 0.5)"/>
</clipPath>
</defs>
</svg>
