<svg width="577" height="513" viewBox="0 0 577 513" fill="none" xmlns="http://www.w3.org/2000/svg">
<g clip-path="url(#clip0_104_720)">
<path d="M0.5 48.5C0.5 22 22 0.5 48.5 0.5H336.5C363 0.5 384.5 22 384.5 48.5V207.5L342.1 224.5H304.5H272.5C263.7 224.5 256.5 231.7 256.5 240.5V272.5V296.7V304.5C256.5 305.4 256.6 306.2 256.7 307.1C259 365.2 280.8 451.9 355.4 508.6C349.6 511.1 343.2 512.5 336.5 512.5H240.5V432.5C240.5 406 219 384.5 192.5 384.5C166 384.5 144.5 406 144.5 432.5V512.5H48.5C22 512.5 0.5 491 0.5 464.5V48.5ZM80.5 224.5C71.7 224.5 64.5 231.7 64.5 240.5V272.5C64.5 281.3 71.7 288.5 80.5 288.5H112.5C121.3 288.5 128.5 281.3 128.5 272.5V240.5C128.5 231.7 121.3 224.5 112.5 224.5H80.5ZM160.5 240.5V272.5C160.5 281.3 167.7 288.5 176.5 288.5H208.5C217.3 288.5 224.5 281.3 224.5 272.5V240.5C224.5 231.7 217.3 224.5 208.5 224.5H176.5C167.7 224.5 160.5 231.7 160.5 240.5ZM64.5 112.5V144.5C64.5 153.3 71.7 160.5 80.5 160.5H112.5C121.3 160.5 128.5 153.3 128.5 144.5V112.5C128.5 103.7 121.3 96.5 112.5 96.5H80.5C71.7 96.5 64.5 103.7 64.5 112.5ZM176.5 96.5C167.7 96.5 160.5 103.7 160.5 112.5V144.5C160.5 153.3 167.7 160.5 176.5 160.5H208.5C217.3 160.5 224.5 153.3 224.5 144.5V112.5C224.5 103.7 217.3 96.5 208.5 96.5H176.5ZM256.5 112.5V144.5C256.5 153.3 263.7 160.5 272.5 160.5H304.5C313.3 160.5 320.5 153.3 320.5 144.5V112.5C320.5 103.7 313.3 96.5 304.5 96.5H272.5C263.7 96.5 256.5 103.7 256.5 112.5ZM423.6 226.2C429.3 223.9 435.7 223.9 441.4 226.2L561.4 274.2C570.5 277.9 576.5 286.7 576.5 296.5C576.5 359.8 550.6 465.3 441.7 510.7C435.8 513.2 429.1 513.2 423.2 510.7C314.4 465.3 288.5 359.8 288.5 296.5C288.5 286.7 294.5 277.9 303.6 274.2L423.6 226.2ZM527.9 312.5L432.5 274.3V462.2C500.7 429.2 524 363.2 527.9 312.5Z" fill="#47535F"/>
</g>
<defs>
<clipPath id="clip0_104_720">
<rect width="576" height="512" fill="white" transform="translate(0.5 0.5)"/>
</clipPath>
</defs>
</svg>
