<svg width="513" height="513" viewBox="0 0 513 513" fill="none" xmlns="http://www.w3.org/2000/svg">
<g clip-path="url(#clip0_104_712)">
<path d="M243.9 3.0998L19.8999 99.0998C5.89987 105.1 -1.90013 120.1 1.19987 134.9C4.29987 149.7 17.2999 160.5 32.4999 160.5V168.5C32.4999 181.8 43.1999 192.5 56.4999 192.5H456.5C469.8 192.5 480.5 181.8 480.5 168.5V160.5C495.7 160.5 508.8 149.8 511.8 134.9C514.8 120 507 105 493.1 99.0998L269.1 3.0998C261.1 -0.300195 251.9 -0.300195 243.9 3.0998ZM128.5 224.5H64.4999V420.8C63.8999 421.1 63.2999 421.5 62.6999 421.9L14.6999 453.9C2.99987 461.7 -2.30013 476.3 1.79987 489.8C5.89987 503.3 18.3999 512.5 32.4999 512.5H480.5C494.6 512.5 507 503.3 511.1 489.8C515.2 476.3 510 461.7 498.2 453.9L450.2 421.9C449.6 421.5 449 421.2 448.4 420.8V224.5H384.5V416.5H344.5V224.5H280.5V416.5H232.5V224.5H168.5V416.5H128.5V224.5ZM256.5 64.4998C264.987 64.4998 273.126 67.8712 279.127 73.8724C285.128 79.8735 288.5 88.0129 288.5 96.4998C288.5 104.987 285.128 113.126 279.127 119.127C273.126 125.128 264.987 128.5 256.5 128.5C248.013 128.5 239.874 125.128 233.872 119.127C227.871 113.126 224.5 104.987 224.5 96.4998C224.5 88.0129 227.871 79.8735 233.872 73.8724C239.874 67.8712 248.013 64.4998 256.5 64.4998Z" fill="#47535F"/>
</g>
<defs>
<clipPath id="clip0_104_712">
<rect width="512" height="512" fill="white" transform="translate(0.5 0.5)"/>
</clipPath>
</defs>
</svg>
