<svg width="641" height="513" viewBox="0 0 641 513" fill="none" xmlns="http://www.w3.org/2000/svg">
<g clip-path="url(#clip0_104_726)">
<path d="M0.5 48.5C0.5 22 22 0.5 48.5 0.5H336.5C363 0.5 384.5 22 384.5 48.5V464.5C384.5 491 363 512.5 336.5 512.5H240.5V432.5C240.5 406 219 384.5 192.5 384.5C166 384.5 144.5 406 144.5 432.5V512.5H48.5C22 512.5 0.5 491 0.5 464.5V48.5ZM80.5 224.5C71.7 224.5 64.5 231.7 64.5 240.5V272.5C64.5 281.3 71.7 288.5 80.5 288.5H112.5C121.3 288.5 128.5 281.3 128.5 272.5V240.5C128.5 231.7 121.3 224.5 112.5 224.5H80.5ZM160.5 240.5V272.5C160.5 281.3 167.7 288.5 176.5 288.5H208.5C217.3 288.5 224.5 281.3 224.5 272.5V240.5C224.5 231.7 217.3 224.5 208.5 224.5H176.5C167.7 224.5 160.5 231.7 160.5 240.5ZM272.5 224.5C263.7 224.5 256.5 231.7 256.5 240.5V272.5C256.5 281.3 263.7 288.5 272.5 288.5H304.5C313.3 288.5 320.5 281.3 320.5 272.5V240.5C320.5 231.7 313.3 224.5 304.5 224.5H272.5ZM64.5 112.5V144.5C64.5 153.3 71.7 160.5 80.5 160.5H112.5C121.3 160.5 128.5 153.3 128.5 144.5V112.5C128.5 103.7 121.3 96.5 112.5 96.5H80.5C71.7 96.5 64.5 103.7 64.5 112.5ZM176.5 96.5C167.7 96.5 160.5 103.7 160.5 112.5V144.5C160.5 153.3 167.7 160.5 176.5 160.5H208.5C217.3 160.5 224.5 153.3 224.5 144.5V112.5C224.5 103.7 217.3 96.5 208.5 96.5H176.5ZM256.5 112.5V144.5C256.5 153.3 263.7 160.5 272.5 160.5H304.5C313.3 160.5 320.5 153.3 320.5 144.5V112.5C320.5 103.7 313.3 96.5 304.5 96.5H272.5C263.7 96.5 256.5 103.7 256.5 112.5ZM640.5 192.5V208.5C640.5 252.7 604.7 288.5 560.5 288.5H544.5V272.5C544.5 228.3 580.3 192.5 624.5 192.5H640.5ZM640.5 320.5C640.5 364.7 604.7 400.5 560.5 400.5H544.5V384.5C544.5 340.3 580.3 304.5 624.5 304.5H640.5V320.5ZM640.5 432.5C640.5 476.7 604.7 512.5 560.5 512.5H544.5V496.5C544.5 452.3 580.3 416.5 624.5 416.5H640.5V432.5ZM512.5 496.5V512.5H496.5C452.3 512.5 416.5 476.7 416.5 432.5V416.5H432.5C476.7 416.5 512.5 452.3 512.5 496.5ZM512.5 400.5H496.5C452.3 400.5 416.5 364.7 416.5 320.5V304.5H432.5C476.7 304.5 512.5 340.3 512.5 384.5V400.5ZM512.5 272.5V288.5H496.5C452.3 288.5 416.5 252.7 416.5 208.5V192.5H432.5C476.7 192.5 512.5 228.3 512.5 272.5ZM528.5 32.5C541.8 32.5 552.5 43.2 552.5 56.5V160.5C552.5 173.8 541.8 184.5 528.5 184.5C515.2 184.5 504.5 173.8 504.5 160.5V56.5C504.5 43.2 515.2 32.5 528.5 32.5ZM624.5 96.5V128.5C624.5 141.8 613.8 152.5 600.5 152.5C587.2 152.5 576.5 141.8 576.5 128.5V96.5C576.5 83.2 587.2 72.5 600.5 72.5C613.8 72.5 624.5 83.2 624.5 96.5ZM456.5 72.5C469.8 72.5 480.5 83.2 480.5 96.5V128.5C480.5 141.8 469.8 152.5 456.5 152.5C443.2 152.5 432.5 141.8 432.5 128.5V96.5C432.5 83.2 443.2 72.5 456.5 72.5Z" fill="#47535F"/>
</g>
<defs>
<clipPath id="clip0_104_726">
<rect width="640" height="512" fill="white" transform="translate(0.5 0.5)"/>
</clipPath>
</defs>
</svg>
