<svg width="577" height="513" viewBox="0 0 577 513" fill="none" xmlns="http://www.w3.org/2000/svg">
<g clip-path="url(#clip0_104_716)">
<path d="M48.5 0.5C22 0.5 0.5 22 0.5 48.5V464.5C0.5 491 22 512.5 48.5 512.5H144.5V432.5C144.5 406 166 384.5 192.5 384.5C219 384.5 240.5 406 240.5 432.5V512.5H329.1C323.7 503.1 320.5 492.2 320.5 480.5V352.5C320.5 328.8 333.4 308.1 352.5 297.1V272.5C352.5 242 364.7 214.3 384.5 194.1V48.5C384.5 22 363 0.5 336.5 0.5H48.5ZM64.5 240.5C64.5 231.7 71.7 224.5 80.5 224.5H112.5C121.3 224.5 128.5 231.7 128.5 240.5V272.5C128.5 281.3 121.3 288.5 112.5 288.5H80.5C71.7 288.5 64.5 281.3 64.5 272.5V240.5ZM176.5 224.5H208.5C217.3 224.5 224.5 231.7 224.5 240.5V272.5C224.5 281.3 217.3 288.5 208.5 288.5H176.5C167.7 288.5 160.5 281.3 160.5 272.5V240.5C160.5 231.7 167.7 224.5 176.5 224.5ZM256.5 240.5C256.5 231.7 263.7 224.5 272.5 224.5H304.5C313.3 224.5 320.5 231.7 320.5 240.5V272.5C320.5 281.3 313.3 288.5 304.5 288.5H272.5C263.7 288.5 256.5 281.3 256.5 272.5V240.5ZM80.5 96.5H112.5C121.3 96.5 128.5 103.7 128.5 112.5V144.5C128.5 153.3 121.3 160.5 112.5 160.5H80.5C71.7 160.5 64.5 153.3 64.5 144.5V112.5C64.5 103.7 71.7 96.5 80.5 96.5ZM160.5 112.5C160.5 103.7 167.7 96.5 176.5 96.5H208.5C217.3 96.5 224.5 103.7 224.5 112.5V144.5C224.5 153.3 217.3 160.5 208.5 160.5H176.5C167.7 160.5 160.5 153.3 160.5 144.5V112.5ZM272.5 96.5H304.5C313.3 96.5 320.5 103.7 320.5 112.5V144.5C320.5 153.3 313.3 160.5 304.5 160.5H272.5C263.7 160.5 256.5 153.3 256.5 144.5V112.5C256.5 103.7 263.7 96.5 272.5 96.5ZM464.5 240.5C482.2 240.5 496.5 254.8 496.5 272.5V320.5H432.5V272.5C432.5 254.8 446.8 240.5 464.5 240.5ZM384.5 272.5V320.5C366.8 320.5 352.5 334.8 352.5 352.5V480.5C352.5 498.2 366.8 512.5 384.5 512.5H544.5C562.2 512.5 576.5 498.2 576.5 480.5V352.5C576.5 334.8 562.2 320.5 544.5 320.5V272.5C544.5 228.3 508.7 192.5 464.5 192.5C420.3 192.5 384.5 228.3 384.5 272.5Z" fill="#47535F"/>
</g>
<defs>
<clipPath id="clip0_104_716">
<rect width="576" height="512" fill="white" transform="translate(0.5 0.5)"/>
</clipPath>
</defs>
</svg>
