<svg width="385" height="513" viewBox="0 0 385 513" fill="none" xmlns="http://www.w3.org/2000/svg">
<g clip-path="url(#clip0_104_718)">
<path d="M48.5 0.5C22 0.5 0.5 22 0.5 48.5V464.5C0.5 491 22 512.5 48.5 512.5H144.5V432.5C144.5 406 166 384.5 192.5 384.5C219 384.5 240.5 406 240.5 432.5V512.5H336.5C363 512.5 384.5 491 384.5 464.5V48.5C384.5 22 363 0.5 336.5 0.5H48.5ZM64.5 240.5C64.5 231.7 71.7 224.5 80.5 224.5H112.5C121.3 224.5 128.5 231.7 128.5 240.5V272.5C128.5 281.3 121.3 288.5 112.5 288.5H80.5C71.7 288.5 64.5 281.3 64.5 272.5V240.5ZM176.5 224.5H208.5C217.3 224.5 224.5 231.7 224.5 240.5V272.5C224.5 281.3 217.3 288.5 208.5 288.5H176.5C167.7 288.5 160.5 281.3 160.5 272.5V240.5C160.5 231.7 167.7 224.5 176.5 224.5ZM256.5 240.5C256.5 231.7 263.7 224.5 272.5 224.5H304.5C313.3 224.5 320.5 231.7 320.5 240.5V272.5C320.5 281.3 313.3 288.5 304.5 288.5H272.5C263.7 288.5 256.5 281.3 256.5 272.5V240.5ZM168.5 64.5H216.5C225.3 64.5 232.5 71.7 232.5 80.5C232.5 89.3 225.3 96.5 216.5 96.5H184.5V160.5H200.5V144.5C200.5 135.7 207.7 128.5 216.5 128.5C225.3 128.5 232.5 135.7 232.5 144.5V168.5C232.5 181.8 221.8 192.5 208.5 192.5H176.5C163.2 192.5 152.5 181.8 152.5 168.5V80.5C152.5 71.7 159.7 64.5 168.5 64.5ZM304.5 96.5C295.7 96.5 288.5 103.7 288.5 112.5V144.5C288.5 153.3 295.7 160.5 304.5 160.5C313.3 160.5 320.5 153.3 320.5 144.5V112.5C320.5 103.7 313.3 96.5 304.5 96.5ZM256.5 112.5C256.5 86 278 64.5 304.5 64.5C331 64.5 352.5 86 352.5 112.5V144.5C352.5 171 331 192.5 304.5 192.5C278 192.5 256.5 171 256.5 144.5V112.5ZM61.8 71.6L96.5 123.6V80.5C96.5 71.7 103.7 64.5 112.5 64.5C121.3 64.5 128.5 71.7 128.5 80.5V176.5C128.5 183.6 123.9 189.8 117.1 191.8C110.3 193.8 103.1 191.2 99.2 185.4L64.5 133.3V176.5C64.5 185.3 57.3 192.5 48.5 192.5C39.7 192.5 32.5 185.3 32.5 176.5V80.5C32.5 73.4 37.1 67.2 43.9 65.2C50.7 63.2 57.9 65.8 61.8 71.6Z" fill="#47535F"/>
</g>
<defs>
<clipPath id="clip0_104_718">
<rect width="384" height="512" fill="white" transform="translate(0.5 0.5)"/>
</clipPath>
</defs>
</svg>
