<svg width="513" height="513" viewBox="0 0 513 513" fill="none" xmlns="http://www.w3.org/2000/svg">
<g clip-path="url(#clip0_104_730)">
<path d="M448.5 256.5C448.5 231.286 443.534 206.319 433.885 183.025C424.236 159.73 410.093 138.564 392.264 120.735C374.436 102.907 353.27 88.764 329.975 79.1151C306.681 69.4662 281.714 64.5 256.5 64.5C231.286 64.5 206.319 69.4662 183.025 79.1151C159.73 88.764 138.564 102.907 120.735 120.735C102.907 138.564 88.764 159.73 79.1151 183.025C69.4662 206.319 64.5 231.286 64.5 256.5C64.5 281.714 69.4662 306.681 79.1151 329.975C88.764 353.27 102.907 374.436 120.735 392.264C138.564 410.093 159.73 424.236 183.025 433.885C206.319 443.534 231.286 448.5 256.5 448.5C281.714 448.5 306.681 443.534 329.975 433.885C353.27 424.236 374.436 410.093 392.264 392.264C410.093 374.436 424.236 353.27 433.885 329.975C443.534 306.681 448.5 281.714 448.5 256.5ZM0.5 256.5C0.5 188.605 27.4714 123.49 75.4807 75.4807C123.49 27.4714 188.605 0.5 256.5 0.5C324.395 0.5 389.51 27.4714 437.519 75.4807C485.529 123.49 512.5 188.605 512.5 256.5C512.5 324.395 485.529 389.51 437.519 437.519C389.51 485.529 324.395 512.5 256.5 512.5C188.605 512.5 123.49 485.529 75.4807 437.519C27.4714 389.51 0.5 324.395 0.5 256.5ZM256.5 336.5C277.717 336.5 298.066 328.071 313.069 313.069C328.071 298.066 336.5 277.717 336.5 256.5C336.5 235.283 328.071 214.934 313.069 199.931C298.066 184.929 277.717 176.5 256.5 176.5C235.283 176.5 214.934 184.929 199.931 199.931C184.929 214.934 176.5 235.283 176.5 256.5C176.5 277.717 184.929 298.066 199.931 313.069C214.934 328.071 235.283 336.5 256.5 336.5ZM256.5 112.5C294.691 112.5 331.318 127.671 358.323 154.677C385.329 181.682 400.5 218.309 400.5 256.5C400.5 294.691 385.329 331.318 358.323 358.323C331.318 385.329 294.691 400.5 256.5 400.5C218.309 400.5 181.682 385.329 154.677 358.323C127.671 331.318 112.5 294.691 112.5 256.5C112.5 218.309 127.671 181.682 154.677 154.677C181.682 127.671 218.309 112.5 256.5 112.5ZM224.5 256.5C224.5 248.013 227.871 239.874 233.873 233.873C239.874 227.871 248.013 224.5 256.5 224.5C264.987 224.5 273.126 227.871 279.127 233.873C285.129 239.874 288.5 248.013 288.5 256.5C288.5 264.987 285.129 273.126 279.127 279.127C273.126 285.129 264.987 288.5 256.5 288.5C248.013 288.5 239.874 285.129 233.873 279.127C227.871 273.126 224.5 264.987 224.5 256.5Z" fill="#47535F"/>
</g>
<defs>
<clipPath id="clip0_104_730">
<rect width="512" height="512" fill="white" transform="translate(0.5 0.5)"/>
</clipPath>
</defs>
</svg>
