<svg width="513" height="513" viewBox="0 0 513 513" fill="none" xmlns="http://www.w3.org/2000/svg">
<g clip-path="url(#clip0_104_728)">
<path d="M480.5 32.5C480.5 19.6 472.7 7.90001 460.7 2.90001C448.7 -2.09999 435 0.700006 425.8 9.80001L382.2 53.5C334.2 101.5 269.1 128.5 201.2 128.5H192.5H160.5H64.5C29.2 128.5 0.5 157.2 0.5 192.5V288.5C0.5 323.8 29.2 352.5 64.5 352.5V480.5C64.5 498.2 78.8 512.5 96.5 512.5H160.5C178.2 512.5 192.5 498.2 192.5 480.5V352.5H201.2C269.1 352.5 334.2 379.5 382.2 427.5L425.8 471.1C435 480.3 448.7 483 460.7 478C472.7 473 480.5 461.4 480.5 448.4V300.9C499.1 292.1 512.5 268.4 512.5 240.5C512.5 212.6 499.1 188.9 480.5 180.1V32.5ZM416.5 109.2V240.5V371.8C357.7 318.3 281 288.5 201.2 288.5H192.5V192.5H201.2C281 192.5 357.7 162.7 416.5 109.2Z" fill="#47535F"/>
</g>
<defs>
<clipPath id="clip0_104_728">
<rect width="512" height="512" fill="white" transform="translate(0.5 0.5)"/>
</clipPath>
</defs>
</svg>
