<svg width="513" height="513" viewBox="0 0 513 513" fill="none" xmlns="http://www.w3.org/2000/svg">
<path d="M61.6 224.5C45.5 224.5 32.5 211.5 32.5 195.4C32.5 193.5 32.7 191.7 33.1 189.8C38.4 168.8 79.3 32.5 256.5 32.5C433.7 32.5 474.6 168.8 479.9 189.8C480.4 191.7 480.5 193.5 480.5 195.4C480.5 211.5 467.5 224.5 451.4 224.5H61.6ZM144.5 128.5C144.5 124.257 142.814 120.187 139.814 117.186C136.813 114.186 132.743 112.5 128.5 112.5C124.257 112.5 120.187 114.186 117.186 117.186C114.186 120.187 112.5 124.257 112.5 128.5C112.5 132.743 114.186 136.813 117.186 139.814C120.187 142.814 124.257 144.5 128.5 144.5C132.743 144.5 136.813 142.814 139.814 139.814C142.814 136.813 144.5 132.743 144.5 128.5ZM384.5 144.5C388.743 144.5 392.813 142.814 395.814 139.814C398.814 136.813 400.5 132.743 400.5 128.5C400.5 124.257 398.814 120.187 395.814 117.186C392.813 114.186 388.743 112.5 384.5 112.5C380.257 112.5 376.187 114.186 373.186 117.186C370.186 120.187 368.5 124.257 368.5 128.5C368.5 132.743 370.186 136.813 373.186 139.814C376.187 142.814 380.257 144.5 384.5 144.5ZM272.5 96.5C272.5 92.2565 270.814 88.1869 267.814 85.1863C264.813 82.1857 260.743 80.5 256.5 80.5C252.257 80.5 248.187 82.1857 245.186 85.1863C242.186 88.1869 240.5 92.2565 240.5 96.5C240.5 100.743 242.186 104.813 245.186 107.814C248.187 110.814 252.257 112.5 256.5 112.5C260.743 112.5 264.813 110.814 267.814 107.814C270.814 104.813 272.5 100.743 272.5 96.5ZM16.5 304.5C16.5 278 38 256.5 64.5 256.5H448.5C475 256.5 496.5 278 496.5 304.5C496.5 331 475 352.5 448.5 352.5H64.5C38 352.5 16.5 331 16.5 304.5ZM32.5 400.5C32.5 391.7 39.7 384.5 48.5 384.5H464.5C473.3 384.5 480.5 391.7 480.5 400.5V416.5C480.5 451.8 451.8 480.5 416.5 480.5H96.5C61.2 480.5 32.5 451.8 32.5 416.5V400.5Z" fill="#47535F"/>
</svg>
