<svg width="513" height="513" viewBox="0 0 513 513" fill="none" xmlns="http://www.w3.org/2000/svg">
<g clip-path="url(#clip0_104_734)">
<path d="M38.1003 4.7C28.5003 -1.8 15.7003 -0.6 7.50032 7.5C-0.699675 15.6 -1.89968 28.5 4.70032 38L116.7 201.3L17.1003 233.7C7.20033 236.9 0.500325 246.1 0.500325 256.5C0.500325 266.9 7.20033 276.1 17.1003 279.3L120.2 312.7L67.3003 413.3C62.4003 422.6 64.1003 434 71.6003 441.4C79.1003 448.8 90.4003 450.6 99.7003 445.7L200.3 392.8L233.7 495.9C236.9 505.8 246.1 512.5 256.5 512.5C266.9 512.5 276.1 505.8 279.3 495.9L312.7 392.8L413.3 445.7C422.6 450.6 434 448.9 441.4 441.4C448.8 433.9 450.6 422.6 445.7 413.3L392.8 312.7L495.9 279.3C505.8 276.1 512.5 266.9 512.5 256.5C512.5 246.1 505.8 236.9 495.9 233.7L389.4 199.2L415.1 128.8C418.3 120 416.1 110.2 409.5 103.6C402.9 97 393.1 94.8 384.3 98L313.9 123.7L279.3 17.1C276.1 7.2 266.9 0.5 256.5 0.5C246.1 0.5 236.9 7.2 233.7 17.1L201.4 116.7L38.1003 4.7Z" fill="#47535F"/>
</g>
<defs>
<clipPath id="clip0_104_734">
<rect width="512" height="512" fill="white" transform="translate(0.5 0.5)"/>
</clipPath>
</defs>
</svg>
