<svg width="577" height="513" viewBox="0 0 577 513" fill="none" xmlns="http://www.w3.org/2000/svg">
<g clip-path="url(#clip0_104_736)">
<path d="M288.5 0.5C422.9 0.5 512.5 35.7 512.5 80.5V96.5V128.5C530.2 128.5 544.5 142.8 544.5 160.5V224.5C544.5 242.2 530.2 256.5 512.5 256.5V416.5C512.5 434.2 498.2 448.5 480.5 448.5V480.5C480.5 498.2 466.2 512.5 448.5 512.5H416.5C398.8 512.5 384.5 498.2 384.5 480.5V448.5H192.5V480.5C192.5 498.2 178.2 512.5 160.5 512.5H128.5C110.8 512.5 96.5 498.2 96.5 480.5V448.5C78.8 448.5 64.5 434.2 64.5 416.5V256.5C46.8 256.5 32.5 242.2 32.5 224.5V160.5C32.5 142.8 46.8 128.5 64.5 128.5V96.5V80.5C64.5 35.7 154.1 0.5 288.5 0.5ZM128.5 160.5V256.5C128.5 274.2 142.8 288.5 160.5 288.5H272.5V128.5H160.5C142.8 128.5 128.5 142.8 128.5 160.5ZM304.5 288.5H416.5C434.2 288.5 448.5 274.2 448.5 256.5V160.5C448.5 142.8 434.2 128.5 416.5 128.5H304.5V288.5ZM144.5 400.5C152.987 400.5 161.126 397.129 167.127 391.127C173.129 385.126 176.5 376.987 176.5 368.5C176.5 360.013 173.129 351.874 167.127 345.873C161.126 339.871 152.987 336.5 144.5 336.5C136.013 336.5 127.874 339.871 121.873 345.873C115.871 351.874 112.5 360.013 112.5 368.5C112.5 376.987 115.871 385.126 121.873 391.127C127.874 397.129 136.013 400.5 144.5 400.5ZM432.5 400.5C440.987 400.5 449.126 397.129 455.127 391.127C461.129 385.126 464.5 376.987 464.5 368.5C464.5 360.013 461.129 351.874 455.127 345.873C449.126 339.871 440.987 336.5 432.5 336.5C424.013 336.5 415.874 339.871 409.873 345.873C403.871 351.874 400.5 360.013 400.5 368.5C400.5 376.987 403.871 385.126 409.873 391.127C415.874 397.129 424.013 400.5 432.5 400.5ZM384.5 80.5C384.5 71.7 377.3 64.5 368.5 64.5H208.5C199.7 64.5 192.5 71.7 192.5 80.5C192.5 89.3 199.7 96.5 208.5 96.5H368.5C377.3 96.5 384.5 89.3 384.5 80.5Z" fill="#47535F"/>
</g>
<defs>
<clipPath id="clip0_104_736">
<rect width="576" height="512" fill="white" transform="translate(0.5 0.5)"/>
</clipPath>
</defs>
</svg>
