<svg width="449" height="513" viewBox="0 0 449 513" fill="none" xmlns="http://www.w3.org/2000/svg">
<g clip-path="url(#clip0_104_740)">
<path d="M224.5 0.5C349.3 0.5 448.5 35.7 448.5 80.5V96.5V416.5C448.5 434.2 434.2 448.5 416.5 448.5V480.5C416.5 498.2 402.2 512.5 384.5 512.5H352.5C334.8 512.5 320.5 498.2 320.5 480.5V448.5H128.5V480.5C128.5 498.2 114.2 512.5 96.5 512.5H64.5C46.8 512.5 32.5 498.2 32.5 480.5V448.5C14.8 448.5 0.5 434.2 0.5 416.5V96.5V80.5C0.5 35.7 99.7 0.5 224.5 0.5ZM64.5 128.5V256.5C64.5 274.2 78.8 288.5 96.5 288.5H352.5C370.2 288.5 384.5 274.2 384.5 256.5V128.5C384.5 110.8 370.2 96.5 352.5 96.5H96.5C78.8 96.5 64.5 110.8 64.5 128.5ZM80.5 400.5C88.9869 400.5 97.1263 397.129 103.127 391.127C109.129 385.126 112.5 376.987 112.5 368.5C112.5 360.013 109.129 351.874 103.127 345.873C97.1263 339.871 88.9869 336.5 80.5 336.5C72.0131 336.5 63.8737 339.871 57.8726 345.873C51.8714 351.874 48.5 360.013 48.5 368.5C48.5 376.987 51.8714 385.126 57.8726 391.127C63.8737 397.129 72.0131 400.5 80.5 400.5ZM368.5 400.5C376.987 400.5 385.126 397.129 391.127 391.127C397.129 385.126 400.5 376.987 400.5 368.5C400.5 360.013 397.129 351.874 391.127 345.873C385.126 339.871 376.987 336.5 368.5 336.5C360.013 336.5 351.874 339.871 345.873 345.873C339.871 351.874 336.5 360.013 336.5 368.5C336.5 376.987 339.871 385.126 345.873 391.127C351.874 397.129 360.013 400.5 368.5 400.5Z" fill="#47535F"/>
</g>
<defs>
<clipPath id="clip0_104_740">
<rect width="448" height="512" fill="white" transform="translate(0.5 0.5)"/>
</clipPath>
</defs>
</svg>
