<svg width="641" height="513" viewBox="0 0 641 513" fill="none" xmlns="http://www.w3.org/2000/svg">
<g clip-path="url(#clip0_104_738)">
<path d="M184.5 48.5H328.5C332.9 48.5 336.5 52.1 336.5 56.5V96.5H176.5V56.5C176.5 52.1 180.1 48.5 184.5 48.5ZM128.5 56.5V96.5H64.5C29.2 96.5 0.5 125.2 0.5 160.5V256.5H192.5H352.5H360.7C393 217.4 441.8 192.5 496.5 192.5C501.9 192.5 507.2 192.7 512.5 193.2V160.5C512.5 125.2 483.8 96.5 448.5 96.5H384.5V56.5C384.5 25.6 359.4 0.5 328.5 0.5H184.5C153.6 0.5 128.5 25.6 128.5 56.5ZM320.5 352.5H224.5C206.8 352.5 192.5 338.2 192.5 320.5V288.5H0.5V416.5C0.5 451.8 29.2 480.5 64.5 480.5H360.7C335.6 450.1 320.5 411 320.5 368.5C320.5 363.1 320.7 357.8 321.2 352.5H320.5ZM640.5 368.5C640.5 330.309 625.329 293.682 598.323 266.677C571.318 239.671 534.691 224.5 496.5 224.5C458.309 224.5 421.682 239.671 394.677 266.677C367.671 293.682 352.5 330.309 352.5 368.5C352.5 406.691 367.671 443.318 394.677 470.323C421.682 497.329 458.309 512.5 496.5 512.5C534.691 512.5 571.318 497.329 598.323 470.323C625.329 443.318 640.5 406.691 640.5 368.5ZM496.5 288.5C505.3 288.5 512.5 295.7 512.5 304.5V352.5H544.5C553.3 352.5 560.5 359.7 560.5 368.5C560.5 377.3 553.3 384.5 544.5 384.5H496.5C487.7 384.5 480.5 377.3 480.5 368.5V304.5C480.5 295.7 487.7 288.5 496.5 288.5Z" fill="#47535F"/>
</g>
<defs>
<clipPath id="clip0_104_738">
<rect width="640" height="512" fill="white" transform="translate(0.5 0.5)"/>
</clipPath>
</defs>
</svg>
