<svg width="385" height="513" viewBox="0 0 385 513" fill="none" xmlns="http://www.w3.org/2000/svg">
<g clip-path="url(#clip0_104_742)">
<path d="M329.6 143.4C267.1 80.9002 173.8 80.9002 111.3 143.4C48.7996 205.9 48.7996 307.2 111.3 369.7C173.8 432.2 267.1 432.2 329.6 369.7C342.1 357.2 362.4 357.2 374.9 369.7C387.4 382.2 387.4 402.5 374.9 415C287.4 502.5 153.6 502.5 66.0996 415C-21.4004 327.5 -21.4004 185.7 66.0996 98.2002C153.6 10.7002 287.4 10.7002 374.9 98.2002C387.4 110.7 387.4 131 374.9 143.5C362.4 156 342.1 156 329.6 143.5V143.4Z" fill="#47535F"/>
</g>
<defs>
<clipPath id="clip0_104_742">
<rect width="384" height="512" fill="white" transform="translate(0.5 0.5)"/>
</clipPath>
</defs>
</svg>
