<svg width="513" height="513" viewBox="0 0 513 513" fill="none" xmlns="http://www.w3.org/2000/svg">
<g clip-path="url(#clip0_104_744)">
<path d="M288.499 0.5C296.986 0.5 305.126 3.87142 311.127 9.87258C317.128 15.8737 320.499 24.0131 320.499 32.5C320.499 40.9869 317.128 49.1263 311.127 55.1274C305.126 61.1286 296.986 64.5 288.499 64.5C280.012 64.5 271.873 61.1286 265.872 55.1274C259.871 49.1263 256.499 40.9869 256.499 32.5C256.499 24.0131 259.871 15.8737 265.872 9.87258C271.873 3.87142 280.012 0.5 288.499 0.5ZM160.499 56.5C160.499 48.0131 163.871 39.8737 169.872 33.8726C175.873 27.8714 184.012 24.5 192.499 24.5C200.986 24.5 209.126 27.8714 215.127 33.8726C221.128 39.8737 224.499 48.0131 224.499 56.5C224.499 64.9869 221.128 73.1263 215.127 79.1274C209.126 85.1286 200.986 88.5 192.499 88.5C184.012 88.5 175.873 85.1286 169.872 79.1274C163.871 73.1263 160.499 64.9869 160.499 56.5ZM32.4993 288.5C32.4993 253.2 61.1993 224.5 96.4993 224.5H232.499V158L29.3993 200C16.3993 202.7 3.69928 194.3 0.999276 181.4C-1.70072 168.5 6.69928 155.7 19.5993 153L251.599 105L483.599 57C496.599 54.3 509.299 62.7 511.999 75.6C514.699 88.5 506.299 101.3 493.399 104L280.499 148V224.5H416.499C451.799 224.5 480.499 253.2 480.499 288.5V448.5C480.499 483.8 451.799 512.5 416.499 512.5H96.4993C61.1993 512.5 32.4993 483.8 32.4993 448.5V288.5ZM96.4993 288.5C87.6993 288.5 80.4993 295.7 80.4993 304.5V368.5C80.4993 377.3 87.6993 384.5 96.4993 384.5H160.499C169.299 384.5 176.499 377.3 176.499 368.5V304.5C176.499 295.7 169.299 288.5 160.499 288.5H96.4993ZM208.499 304.5V368.5C208.499 377.3 215.699 384.5 224.499 384.5H288.499C297.299 384.5 304.499 377.3 304.499 368.5V304.5C304.499 295.7 297.299 288.5 288.499 288.5H224.499C215.699 288.5 208.499 295.7 208.499 304.5ZM352.499 288.5C343.699 288.5 336.499 295.7 336.499 304.5V368.5C336.499 377.3 343.699 384.5 352.499 384.5H416.499C425.299 384.5 432.499 377.3 432.499 368.5V304.5C432.499 295.7 425.299 288.5 416.499 288.5H352.499Z" fill="#47535F"/>
</g>
<defs>
<clipPath id="clip0_104_744">
<rect width="512" height="512" fill="white" transform="translate(0.5 0.5)"/>
</clipPath>
</defs>
</svg>
