<svg width="449" height="513" viewBox="0 0 449 513" fill="none" xmlns="http://www.w3.org/2000/svg">
<g clip-path="url(#clip0_104_746)">
<path d="M86.9 6L62.3 48.1C58.5 54.6 56.5 62.1 56.5 69.7V72.5C56.5 94.6 74.4 112.5 96.5 112.5C118.6 112.5 136.5 94.6 136.5 72.5V69.7C136.5 62.1 134.5 54.7 130.7 48.1L106.1 6C104.1 2.6 100.5 0.5 96.5 0.5C92.5 0.5 88.9 2.6 86.9 6ZM214.9 6L190.3 48.1C186.5 54.6 184.5 62.1 184.5 69.7V72.5C184.5 94.6 202.4 112.5 224.5 112.5C246.6 112.5 264.5 94.6 264.5 72.5V69.7C264.5 62.1 262.5 54.7 258.7 48.1L234.1 6C232.1 2.6 228.5 0.5 224.5 0.5C220.5 0.5 216.9 2.6 214.9 6ZM318.3 48.1C314.5 54.6 312.5 62.1 312.5 69.7V72.5C312.5 94.6 330.4 112.5 352.5 112.5C374.6 112.5 392.5 94.6 392.5 72.5V69.7C392.5 62.1 390.5 54.7 386.7 48.1L362.1 6C360.1 2.6 356.5 0.5 352.5 0.5C348.5 0.5 344.9 2.6 342.9 6L318.3 48.1ZM128.5 176.5C128.5 158.8 114.2 144.5 96.5 144.5C78.8 144.5 64.5 158.8 64.5 176.5V224.5C29.2 224.5 0.5 253.2 0.5 288.5V359.5C8.8 364.7 18.6 368.5 29.3 368.5C42.8 368.5 56.5 362.4 67.7 355.1C73.1 351.6 77.6 348 80.7 345.4C82.2 344.1 83.4 343 84.2 342.3C84.6 341.9 84.9 341.7 85 341.5L85.1 341.4C88.2 338.2 92.5 336.5 97 336.6C101.5 336.7 105.6 338.7 108.6 342L108.7 342.1C108.8 342.2 109.1 342.5 109.4 342.8C110.1 343.5 111.1 344.5 112.5 345.8C115.3 348.4 119.3 351.9 124.3 355.3C134.5 362.4 147.3 368.4 160.6 368.4C173.9 368.4 186.7 362.4 196.9 355.3C201.9 351.8 205.9 348.4 208.7 345.8C210.1 344.5 211.1 343.5 211.8 342.8C212.1 342.5 212.4 342.2 212.5 342.1L212.6 342C215.6 338.5 220 336.6 224.6 336.6C229.2 336.6 233.6 338.6 236.6 342L236.7 342.1C236.8 342.2 237.1 342.5 237.4 342.8C238.1 343.5 239.1 344.5 240.5 345.8C243.3 348.4 247.3 351.9 252.3 355.3C262.5 362.4 275.3 368.4 288.6 368.4C301.9 368.4 314.7 362.4 324.9 355.3C329.9 351.8 333.9 348.4 336.7 345.8C338.1 344.5 339.1 343.5 339.8 342.8C340.1 342.5 340.4 342.2 340.5 342.1L340.6 342C343.5 338.6 347.7 336.7 352.2 336.6C356.7 336.5 360.9 338.2 364.1 341.4L364.2 341.5C364.4 341.7 364.6 341.9 365 342.3C365.8 343 366.9 344.1 368.5 345.4C371.6 348 376 351.6 381.5 355.1C392.7 362.4 406.4 368.5 419.9 368.5C430.6 368.5 440.4 364.6 448.7 359.5V288.5C448.7 253.2 420 224.5 384.7 224.5V176.5C384.7 158.8 370.4 144.5 352.7 144.5C335 144.5 320.7 158.8 320.7 176.5V224.5H256.5V176.5C256.5 158.8 242.2 144.5 224.5 144.5C206.8 144.5 192.5 158.8 192.5 176.5V224.5H128.5V176.5ZM448.5 395.1C440 398.4 430.3 400.5 419.7 400.5C397.2 400.5 377.3 390.6 363.9 381.9C359.8 379.2 356.1 376.5 353 374.1C350.2 376.5 346.9 379.1 343.2 381.6C330.3 390.5 311.1 400.5 288.5 400.5C265.9 400.5 246.7 390.5 233.9 381.6C230.4 379.2 227.2 376.7 224.5 374.4C221.8 376.7 218.6 379.1 215.1 381.6C202.3 390.5 183.1 400.5 160.5 400.5C137.9 400.5 118.7 390.5 105.9 381.6C102.2 379 98.9 376.4 96.1 374.1C93 376.5 89.3 379.2 85.2 381.9C71.7 390.6 51.8 400.5 29.3 400.5C18.7 400.5 9 398.3 0.5 395.1V480.5C0.5 498.2 14.8 512.5 32.5 512.5H416.5C434.2 512.5 448.5 498.2 448.5 480.5V395.1Z" fill="#47535F"/>
</g>
<defs>
<clipPath id="clip0_104_746">
<rect width="448" height="512" fill="white" transform="translate(0.5 0.5)"/>
</clipPath>
</defs>
</svg>
