<svg width="385" height="513" viewBox="0 0 385 513" fill="none" xmlns="http://www.w3.org/2000/svg">
<g clip-path="url(#clip0_104_748)">
<path d="M64.5 0.5C29.2 0.5 0.5 29.2 0.5 64.5V448.5C0.5 483.8 29.2 512.5 64.5 512.5H320.5C355.8 512.5 384.5 483.8 384.5 448.5V64.5C384.5 29.2 355.8 0.5 320.5 0.5H64.5ZM96.5 64.5H288.5C306.2 64.5 320.5 78.8 320.5 96.5V128.5C320.5 146.2 306.2 160.5 288.5 160.5H96.5C78.8 160.5 64.5 146.2 64.5 128.5V96.5C64.5 78.8 78.8 64.5 96.5 64.5ZM128.5 224.5C128.5 232.987 125.129 241.126 119.127 247.127C113.126 253.129 104.987 256.5 96.5 256.5C88.0131 256.5 79.8737 253.129 73.8726 247.127C67.8714 241.126 64.5 232.987 64.5 224.5C64.5 216.013 67.8714 207.874 73.8726 201.873C79.8737 195.871 88.0131 192.5 96.5 192.5C104.987 192.5 113.126 195.871 119.127 201.873C125.129 207.874 128.5 216.013 128.5 224.5ZM96.5 352.5C88.0131 352.5 79.8737 349.129 73.8726 343.127C67.8714 337.126 64.5 328.987 64.5 320.5C64.5 312.013 67.8714 303.874 73.8726 297.873C79.8737 291.871 88.0131 288.5 96.5 288.5C104.987 288.5 113.126 291.871 119.127 297.873C125.129 303.874 128.5 312.013 128.5 320.5C128.5 328.987 125.129 337.126 119.127 343.127C113.126 349.129 104.987 352.5 96.5 352.5ZM64.5 416.5C64.5 398.8 78.8 384.5 96.5 384.5H192.5C210.2 384.5 224.5 398.8 224.5 416.5C224.5 434.2 210.2 448.5 192.5 448.5H96.5C78.8 448.5 64.5 434.2 64.5 416.5ZM192.5 256.5C184.013 256.5 175.874 253.129 169.873 247.127C163.871 241.126 160.5 232.987 160.5 224.5C160.5 216.013 163.871 207.874 169.873 201.873C175.874 195.871 184.013 192.5 192.5 192.5C200.987 192.5 209.126 195.871 215.127 201.873C221.129 207.874 224.5 216.013 224.5 224.5C224.5 232.987 221.129 241.126 215.127 247.127C209.126 253.129 200.987 256.5 192.5 256.5ZM224.5 320.5C224.5 328.987 221.129 337.126 215.127 343.127C209.126 349.129 200.987 352.5 192.5 352.5C184.013 352.5 175.874 349.129 169.873 343.127C163.871 337.126 160.5 328.987 160.5 320.5C160.5 312.013 163.871 303.874 169.873 297.873C175.874 291.871 184.013 288.5 192.5 288.5C200.987 288.5 209.126 291.871 215.127 297.873C221.129 303.874 224.5 312.013 224.5 320.5ZM288.5 256.5C280.013 256.5 271.874 253.129 265.873 247.127C259.871 241.126 256.5 232.987 256.5 224.5C256.5 216.013 259.871 207.874 265.873 201.873C271.874 195.871 280.013 192.5 288.5 192.5C296.987 192.5 305.126 195.871 311.127 201.873C317.129 207.874 320.5 216.013 320.5 224.5C320.5 232.987 317.129 241.126 311.127 247.127C305.126 253.129 296.987 256.5 288.5 256.5ZM320.5 320.5C320.5 328.987 317.129 337.126 311.127 343.127C305.126 349.129 296.987 352.5 288.5 352.5C280.013 352.5 271.874 349.129 265.873 343.127C259.871 337.126 256.5 328.987 256.5 320.5C256.5 312.013 259.871 303.874 265.873 297.873C271.874 291.871 280.013 288.5 288.5 288.5C296.987 288.5 305.126 291.871 311.127 297.873C317.129 303.874 320.5 312.013 320.5 320.5ZM288.5 448.5C280.013 448.5 271.874 445.129 265.873 439.127C259.871 433.126 256.5 424.987 256.5 416.5C256.5 408.013 259.871 399.874 265.873 393.873C271.874 387.871 280.013 384.5 288.5 384.5C296.987 384.5 305.126 387.871 311.127 393.873C317.129 399.874 320.5 408.013 320.5 416.5C320.5 424.987 317.129 433.126 311.127 439.127C305.126 445.129 296.987 448.5 288.5 448.5Z" fill="#47535F"/>
</g>
<defs>
<clipPath id="clip0_104_748">
<rect width="384" height="512" fill="white" transform="translate(0.5 0.5)"/>
</clipPath>
</defs>
</svg>
