<svg width="449" height="513" viewBox="0 0 449 513" fill="none" xmlns="http://www.w3.org/2000/svg">
<g clip-path="url(#clip0_104_750)">
<path d="M96.5 32.5V64.5H48.5C22 64.5 0.5 86 0.5 112.5V160.5H448.5V112.5C448.5 86 427 64.5 400.5 64.5H352.5V32.5C352.5 14.8 338.2 0.5 320.5 0.5C302.8 0.5 288.5 14.8 288.5 32.5V64.5H160.5V32.5C160.5 14.8 146.2 0.5 128.5 0.5C110.8 0.5 96.5 14.8 96.5 32.5ZM448.5 192.5H0.5V464.5C0.5 491 22 512.5 48.5 512.5H400.5C427 512.5 448.5 491 448.5 464.5V192.5Z" fill="#47535F"/>
</g>
<defs>
<clipPath id="clip0_104_750">
<rect width="448" height="512" fill="white" transform="translate(0.5 0.5)"/>
</clipPath>
</defs>
</svg>
