<svg width="513" height="513" viewBox="0 0 513 513" fill="none" xmlns="http://www.w3.org/2000/svg">
<g clip-path="url(#clip0_104_758)">
<path d="M160.5 0.5C178.2 0.5 192.5 14.8 192.5 32.5V64.5H320.5V32.5C320.5 14.8 334.8 0.5 352.5 0.5C370.2 0.5 384.5 14.8 384.5 32.5V64.5H432.5C459 64.5 480.5 86 480.5 112.5V160.5H32.5V112.5C32.5 86 54 64.5 80.5 64.5H128.5V32.5C128.5 14.8 142.8 0.5 160.5 0.5ZM32.5 192.5H480.5V464.5C480.5 491 459 512.5 432.5 512.5H80.5C54 512.5 32.5 491 32.5 464.5V192.5ZM344.5 376.5C357.8 376.5 368.5 365.8 368.5 352.5C368.5 339.2 357.8 328.5 344.5 328.5H168.5C155.2 328.5 144.5 339.2 144.5 352.5C144.5 365.8 155.2 376.5 168.5 376.5H344.5Z" fill="#47535F"/>
</g>
<defs>
<clipPath id="clip0_104_758">
<rect width="512" height="512" fill="white" transform="translate(0.5 0.5)"/>
</clipPath>
</defs>
</svg>
