<svg width="513" height="513" viewBox="0 0 513 513" fill="none" xmlns="http://www.w3.org/2000/svg">
<g clip-path="url(#clip0_104_760)">
<path d="M128.5 32.5V64.5H80.5C54 64.5 32.5 86 32.5 112.5V160.5H480.5V112.5C480.5 86 459 64.5 432.5 64.5H384.5V32.5C384.5 14.8 370.2 0.5 352.5 0.5C334.8 0.5 320.5 14.8 320.5 32.5V64.5H192.5V32.5C192.5 14.8 178.2 0.5 160.5 0.5C142.8 0.5 128.5 14.8 128.5 32.5ZM480.5 192.5H32.5V464.5C32.5 491 54 512.5 80.5 512.5H432.5C459 512.5 480.5 491 480.5 464.5V192.5ZM256.5 248.5C269.8 248.5 280.5 259.2 280.5 272.5V328.5H336.5C349.8 328.5 360.5 339.2 360.5 352.5C360.5 365.8 349.8 376.5 336.5 376.5H280.5V432.5C280.5 445.8 269.8 456.5 256.5 456.5C243.2 456.5 232.5 445.8 232.5 432.5V376.5H176.5C163.2 376.5 152.5 365.8 152.5 352.5C152.5 339.2 163.2 328.5 176.5 328.5H232.5V272.5C232.5 259.2 243.2 248.5 256.5 248.5Z" fill="#47535F"/>
</g>
<defs>
<clipPath id="clip0_104_760">
<rect width="512" height="512" fill="white" transform="translate(0.5 0.5)"/>
</clipPath>
</defs>
</svg>
