<svg width="449" height="513" viewBox="0 0 449 513" fill="none" xmlns="http://www.w3.org/2000/svg">
<g clip-path="url(#clip0_104_752)">
<path d="M128.5 0.5C146.2 0.5 160.5 14.8 160.5 32.5V64.5H288.5V32.5C288.5 14.8 302.8 0.5 320.5 0.5C338.2 0.5 352.5 14.8 352.5 32.5V64.5H400.5C427 64.5 448.5 86 448.5 112.5V160.5H0.5V112.5C0.5 86 22 64.5 48.5 64.5H96.5V32.5C96.5 14.8 110.8 0.5 128.5 0.5ZM0.5 192.5H448.5V464.5C448.5 491 427 512.5 400.5 512.5H48.5C22 512.5 0.5 491 0.5 464.5V192.5ZM329.5 305.5C338.9 296.1 338.9 280.9 329.5 271.6C320.1 262.3 304.9 262.2 295.6 271.6L200.6 366.6L153.6 319.6C144.2 310.2 129 310.2 119.7 319.6C110.4 329 110.3 344.2 119.7 353.5L183.7 417.5C193.1 426.9 208.3 426.9 217.6 417.5L329.5 305.5Z" fill="#47535F"/>
</g>
<defs>
<clipPath id="clip0_104_752">
<rect width="448" height="512" fill="white" transform="translate(0.5 0.5)"/>
</clipPath>
</defs>
</svg>
