<svg width="513" height="513" viewBox="0 0 513 513" fill="none" xmlns="http://www.w3.org/2000/svg">
<g clip-path="url(#clip0_104_764)">
<path d="M160.5 0.5C178.2 0.5 192.5 14.8 192.5 32.5V64.5H320.5V32.5C320.5 14.8 334.8 0.5 352.5 0.5C370.2 0.5 384.5 14.8 384.5 32.5V64.5H432.5C459 64.5 480.5 86 480.5 112.5V160.5H32.5V112.5C32.5 86 54 64.5 80.5 64.5H128.5V32.5C128.5 14.8 142.8 0.5 160.5 0.5ZM32.5 192.5H480.5V464.5C480.5 491 459 512.5 432.5 512.5H80.5C54 512.5 32.5 491 32.5 464.5V192.5ZM337.5 305.5C346.9 296.1 346.9 280.9 337.5 271.6C328.1 262.3 312.9 262.2 303.6 271.6L256.6 318.6L209.6 271.6C200.2 262.2 185 262.2 175.7 271.6C166.4 281 166.3 296.2 175.7 305.5L222.7 352.5L175.7 399.5C166.3 408.9 166.3 424.1 175.7 433.4C185.1 442.7 200.3 442.8 209.6 433.4L256.6 386.4L303.6 433.4C313 442.8 328.2 442.8 337.5 433.4C346.8 424 346.9 408.8 337.5 399.5L290.5 352.5L337.5 305.5Z" fill="#47535F"/>
</g>
<defs>
<clipPath id="clip0_104_764">
<rect width="512" height="512" fill="white" transform="translate(0.5 0.5)"/>
</clipPath>
</defs>
</svg>
