<svg width="449" height="513" viewBox="0 0 449 513" fill="none" xmlns="http://www.w3.org/2000/svg">
<g clip-path="url(#clip0_104_762)">
<path d="M128.5 0.5C146.2 0.5 160.5 14.8 160.5 32.5V64.5H288.5V32.5C288.5 14.8 302.8 0.5 320.5 0.5C338.2 0.5 352.5 14.8 352.5 32.5V64.5H400.5C427 64.5 448.5 86 448.5 112.5V160.5H0.5V112.5C0.5 86 22 64.5 48.5 64.5H96.5V32.5C96.5 14.8 110.8 0.5 128.5 0.5ZM0.5 192.5H448.5V464.5C448.5 491 427 512.5 400.5 512.5H48.5C22 512.5 0.5 491 0.5 464.5V192.5ZM80.5 256.5C71.7 256.5 64.5 263.7 64.5 272.5V336.5C64.5 345.3 71.7 352.5 80.5 352.5H368.5C377.3 352.5 384.5 345.3 384.5 336.5V272.5C384.5 263.7 377.3 256.5 368.5 256.5H80.5Z" fill="#47535F"/>
</g>
<defs>
<clipPath id="clip0_104_762">
<rect width="448" height="512" fill="white" transform="translate(0.5 0.5)"/>
</clipPath>
</defs>
</svg>
