<svg width="513" height="513" viewBox="0 0 513 513" fill="none" xmlns="http://www.w3.org/2000/svg">
<g clip-path="url(#clip0_104_766)">
<path d="M149.6 65.3L139.2 96.5H64.5C29.2 96.5 0.5 125.2 0.5 160.5V416.5C0.5 451.8 29.2 480.5 64.5 480.5H448.5C483.8 480.5 512.5 451.8 512.5 416.5V160.5C512.5 125.2 483.8 96.5 448.5 96.5H373.8L363.4 65.3C356.9 45.7 338.6 32.5 317.9 32.5H195.1C174.4 32.5 156.1 45.7 149.6 65.3ZM256.5 192.5C281.961 192.5 306.379 202.614 324.382 220.618C342.386 238.621 352.5 263.039 352.5 288.5C352.5 313.961 342.386 338.379 324.382 356.382C306.379 374.386 281.961 384.5 256.5 384.5C231.039 384.5 206.621 374.386 188.618 356.382C170.614 338.379 160.5 313.961 160.5 288.5C160.5 263.039 170.614 238.621 188.618 220.618C206.621 202.614 231.039 192.5 256.5 192.5Z" fill="#47535F"/>
</g>
<defs>
<clipPath id="clip0_104_766">
<rect width="512" height="512" fill="white" transform="translate(0.5 0.5)"/>
</clipPath>
</defs>
</svg>
