<svg width="641" height="513" viewBox="0 0 641 513" fill="none" xmlns="http://www.w3.org/2000/svg">
<path d="M213.6 65.3L203.2 96.5H128.5C93.2 96.5 64.5 125.2 64.5 160.5V416.5C64.5 451.8 93.2 480.5 128.5 480.5H512.5C547.8 480.5 576.5 451.8 576.5 416.5V160.5C576.5 125.2 547.8 96.5 512.5 96.5H437.8L427.4 65.3C420.9 45.7 402.6 32.5 381.9 32.5H259.1C238.4 32.5 220.1 45.7 213.6 65.3ZM448.5 256.5C448.5 265.3 441.3 272.5 432.5 272.5H355.8C349.6 272.5 344.5 267.4 344.5 261.2C344.5 258.2 345.7 255.3 347.8 253.2L371.5 229.5C357.9 216.1 339.6 208.5 320.5 208.5C301.3 208.5 282.8 216.1 269.2 229.8L249.5 249.5C240.1 258.9 224.9 258.9 215.6 249.5C206.3 240.1 206.2 224.9 215.6 215.6L235.3 195.9C257.9 173.2 288.5 160.5 320.5 160.5C352.3 160.5 382.9 173.1 405.5 195.5L429.2 171.8C431.3 169.7 434.2 168.5 437.2 168.5C443.4 168.5 448.5 173.6 448.5 179.8V256.5ZM192.5 320.5C192.5 311.7 199.7 304.5 208.5 304.5H285.2C291.4 304.5 296.5 309.6 296.5 315.8C296.5 318.8 295.3 321.7 293.2 323.8L269.5 347.5C283.1 360.9 301.4 368.5 320.5 368.5C339.7 368.5 358.2 360.9 371.8 347.2L391.5 327.5C400.9 318.1 416.1 318.1 425.4 327.5C434.7 336.9 434.8 352.1 425.4 361.4L405.7 381.1C383.1 403.8 352.5 416.5 320.5 416.5C288.7 416.5 258.1 403.9 235.5 381.5L211.8 405.2C209.7 407.3 206.8 408.5 203.8 408.5C197.6 408.5 192.5 403.4 192.5 397.2V320.5Z" fill="#47535F"/>
</svg>
