<svg width="513" height="513" viewBox="0 0 513 513" fill="none" xmlns="http://www.w3.org/2000/svg">
<g clip-path="url(#clip0_104_768)">
<path d="M221.1 121.7L271.6 96.5H448.5V192.5H333.7C311.8 177.4 285.2 168.5 256.5 168.5C227.8 168.5 201.3 177.4 179.3 192.5H64.5V128.5H192.5C202.4 128.5 212.2 126.2 221.1 121.7ZM0.5 128.5V416.5C0.5 451.8 29.2 480.5 64.5 480.5H448.5C483.8 480.5 512.5 451.8 512.5 416.5V96.5C512.5 61.2 483.8 32.5 448.5 32.5H271.6C261.7 32.5 251.9 34.8 243 39.3L192.5 64.5H160.5V48.5C160.5 39.7 153.3 32.5 144.5 32.5H80.5C71.7 32.5 64.5 39.7 64.5 48.5V64.5C29.2 64.5 0.5 93.2 0.5 128.5ZM168.5 304.5C168.5 281.161 177.771 258.778 194.275 242.275C210.778 225.771 233.161 216.5 256.5 216.5C279.839 216.5 302.222 225.771 318.725 242.275C335.229 258.778 344.5 281.161 344.5 304.5C344.5 327.839 335.229 350.222 318.725 366.725C302.222 383.229 279.839 392.5 256.5 392.5C233.161 392.5 210.778 383.229 194.275 366.725C177.771 350.222 168.5 327.839 168.5 304.5Z" fill="#47535F"/>
</g>
<defs>
<clipPath id="clip0_104_768">
<rect width="512" height="512" fill="white" transform="translate(0.5 0.5)"/>
</clipPath>
</defs>
</svg>
