<svg width="577" height="513" viewBox="0 0 577 513" fill="none" xmlns="http://www.w3.org/2000/svg">
<g clip-path="url(#clip0_104_772)">
<path d="M377.5 52.4998C388.5 38.6998 386.3 18.5998 372.5 7.4998C358.7 -3.6002 338.6 -1.3002 327.5 12.4998L288.5 61.2998L249.5 12.4998C238.5 -1.3002 218.3 -3.5002 204.5 7.4998C190.7 18.4998 188.5 38.6998 199.5 52.4998L247.5 112.5L12.8 405.9C4.8 415.9 0.5 428.2 0.5 440.9V464.5C0.5 491 22 512.5 48.5 512.5H288.5H528.5C555 512.5 576.5 491 576.5 464.5V440.9C576.5 428.2 572.2 415.8 564.2 405.9L329.5 112.5L377.5 52.4998ZM288.5 448.5H169L288.5 292.2L408 448.5H288.5Z" fill="#47535F"/>
</g>
<defs>
<clipPath id="clip0_104_772">
<rect width="576" height="512" fill="white" transform="translate(0.5 0.5)"/>
</clipPath>
</defs>
</svg>
