<svg width="513" height="513" viewBox="0 0 513 513" fill="none" xmlns="http://www.w3.org/2000/svg">
<g clip-path="url(#clip0_104_774)">
<path d="M349.3 132C353 129.7 357.2 128.5 361.5 128.5C374.2 128.5 384.5 138.8 384.5 151.5V157.1C384.5 167 379.4 176.2 371 181.4L30.5999 394.2C0.599905 413 -8.5001 452.4 10.1999 482.4C28.8999 512.4 68.3999 521.5 98.3999 502.8L438.9 290C484.7 261.4 512.5 211.2 512.5 157.2V151.5C512.5 68.1 444.9 0.5 361.5 0.5C333.2 0.5 305.5 8.5 281.4 23.5L254.6 40.2C224.6 58.9 215.5 98.4 234.2 128.4C252.9 158.4 292.4 167.5 322.4 148.8L349.2 132H349.3ZM298.9 50.3C308.1 44.6 318 40.2 328.3 37.2L348.5 98C342.8 99.4 337.3 101.7 332.2 104.8L319.6 112.7L298.9 50.3ZM387.4 103L433.6 56.8C442.1 63.3 449.7 70.9 456.2 79.4L410 125.6C404.9 116 397 108.1 387.4 103ZM416.3 162.3L477.9 182.8C475.7 193.3 472.1 203.5 467.4 213L405.4 192.3C411.6 183.5 415.5 173.2 416.4 162.2L416.3 162.3ZM330.2 244.8L390.6 282.5L360.4 301.4L300 263.7L330.2 244.8ZM223 311.8L283.4 349.5L253.2 368.4L192.8 330.7L223 311.8ZM119.8 376.2L180.2 413.9L150 432.8L89.5999 395.1L119.8 376.2Z" fill="#47535F"/>
</g>
<defs>
<clipPath id="clip0_104_774">
<rect width="512" height="512" fill="white" transform="translate(0.5 0.5)"/>
</clipPath>
</defs>
</svg>
