<svg width="513" height="513" viewBox="0 0 513 513" fill="none" xmlns="http://www.w3.org/2000/svg">
<g clip-path="url(#clip0_104_776)">
<path d="M256.5 0.5C261.8 0.5 266.8 3.2 269.8 7.6C285.6 31.1 306.5 71.3 319 116.6C326.2 143 330.8 171.8 329.4 200.6C340.9 191.8 353.1 183.9 365.2 177C406.2 153.7 449.6 140.1 477.4 134.5C482.6 133.5 488.1 135.1 491.8 138.9C495.5 142.7 497.2 148.1 496.2 153.4C490.6 181.1 476.9 224.3 453.5 265.1C444.4 281 433.6 296.8 421.1 311.4C448.9 318 473.5 328.7 488.3 336.9C493.4 339.7 496.5 345.1 496.5 350.9C496.5 356.7 493.3 362.1 488.3 364.9C473.1 373.3 447.4 384.4 418.5 391C398.3 395.6 375.6 398.2 353.3 395.6L361.6 428.7C363.1 434.8 361 441.1 356.1 445.1C351.2 449.1 344.5 449.7 338.9 447L280.5 417.7V488.5C280.5 501.8 269.8 512.5 256.5 512.5C243.2 512.5 232.5 501.8 232.5 488.5V417.7L174 446.8C168.4 449.6 161.7 448.9 156.8 444.9C151.9 440.9 149.8 434.6 151.3 428.5L159.6 395.4C137.4 398 114.6 395.4 94.3999 390.8C65.4999 384.2 39.7999 373.2 24.5999 364.7C19.4999 361.9 16.3999 356.5 16.3999 350.7C16.3999 344.9 19.5999 339.5 24.5999 336.7C39.3999 328.5 63.9999 317.9 91.7999 311.2C79.3999 296.8 68.5999 281 59.4999 265.1C36.0999 224.3 22.3999 181.1 16.7999 153.4C15.6999 148.2 17.3999 142.7 21.1999 138.9C24.9999 135.1 30.3999 133.5 35.5999 134.5C63.4999 140 106.8 153.7 147.8 177C159.9 183.9 172.1 191.7 183.6 200.6C182.2 171.9 186.7 143 194 116.6C206.5 71.3 227.4 31.1 243.2 7.6C246.2 3.2 251.2 0.5 256.5 0.5Z" fill="#47535F"/>
</g>
<defs>
<clipPath id="clip0_104_776">
<rect width="512" height="512" fill="white" transform="translate(0.5 0.5)"/>
</clipPath>
</defs>
</svg>
