<svg width="513" height="513" viewBox="0 0 513 513" fill="none" xmlns="http://www.w3.org/2000/svg">
<g clip-path="url(#clip0_104_784)">
<path d="M80.5 96.5C80.5 78.8 94.8 64.5 112.5 64.5H176.5C194.2 64.5 208.5 78.8 208.5 96.5H304.5C304.5 78.8 318.8 64.5 336.5 64.5H400.5C418.2 64.5 432.5 78.8 432.5 96.5H448.5C483.8 96.5 512.5 125.2 512.5 160.5V384.5C512.5 419.8 483.8 448.5 448.5 448.5H64.5C29.2 448.5 0.5 419.8 0.5 384.5V160.5C0.5 125.2 29.2 96.5 64.5 96.5H80.5ZM384.5 192.5C384.5 183.7 377.3 176.5 368.5 176.5C359.7 176.5 352.5 183.7 352.5 192.5V224.5H320.5C311.7 224.5 304.5 231.7 304.5 240.5C304.5 249.3 311.7 256.5 320.5 256.5H352.5V288.5C352.5 297.3 359.7 304.5 368.5 304.5C377.3 304.5 384.5 297.3 384.5 288.5V256.5H416.5C425.3 256.5 432.5 249.3 432.5 240.5C432.5 231.7 425.3 224.5 416.5 224.5H384.5V192.5ZM80.5 240.5C80.5 249.3 87.7 256.5 96.5 256.5H192.5C201.3 256.5 208.5 249.3 208.5 240.5C208.5 231.7 201.3 224.5 192.5 224.5H96.5C87.7 224.5 80.5 231.7 80.5 240.5Z" fill="#47535F"/>
</g>
<defs>
<clipPath id="clip0_104_784">
<rect width="512" height="512" fill="white" transform="translate(0.5 0.5)"/>
</clipPath>
</defs>
</svg>
