<svg width="641" height="513" viewBox="0 0 641 513" fill="none" xmlns="http://www.w3.org/2000/svg">
<path d="M176.5 8.5C169.9 8.5 164.1 12.5 161.6 18.6L132.2 92.6L56.0999 69.4C49.7999 67.5 42.9999 69.6 38.8999 74.7C34.7999 79.8 34.2999 86.9 37.4999 92.6L76.9999 161.7L11.3999 206.9C5.99989 210.6 3.39989 217.2 4.89989 223.6C6.39989 230 11.5999 234.8 17.9999 235.8L96.6999 248L91.0999 327.5C90.5999 334 94.1999 340.2 100.1 343C106 345.8 113 344.8 117.9 340.4L153.2 307.9L162.7 272.5L173.1 233.9C181.1 204 203.6 181.8 231 173L272 113.8C283.3 97.5 298.4 84.9 315.5 76.6C315.1 76 314.7 75.4 314.2 74.8C310.1 69.7 303.3 67.6 297 69.5L220.8 92.6L191.4 18.6C188.9 12.5 183.1 8.5 176.5 8.5ZM368.2 162L503.8 198.3C510.3 200.1 515.1 205.7 515.6 212.5L520.2 269L318.7 215L350.9 168.4C354.7 162.8 361.7 160.3 368.2 162ZM298.3 132L250.4 201.3C228.8 204.3 210.1 219.9 204.1 242.3L193.7 280.9L177.1 342.7L168.8 373.6C164.2 390.7 174.4 408.2 191.4 412.8L206.9 416.9C224 421.5 241.5 411.3 246.1 394.3L254.4 363.4L501.7 429.7L493.4 460.6C488.8 477.7 499 495.2 516 499.8L531.5 503.9C548.6 508.5 566.1 498.3 570.7 481.3L579 450.4L595.5 388.5L605.9 349.9C611.9 327.5 603.4 304.7 586.3 291.2L579.5 207.2C576.8 173.5 553.1 145.2 520.5 136.4L384.7 100.2C352 91.4 317.4 104.2 298.2 132H298.3ZM281.3 263C284.347 263.814 287.203 265.221 289.706 267.139C292.209 269.057 294.31 271.449 295.889 274.179C297.467 276.909 298.493 279.923 298.907 283.05C299.32 286.176 299.114 289.353 298.3 292.4C297.486 295.447 296.079 298.303 294.161 300.806C292.243 303.309 289.851 305.41 287.121 306.989C284.391 308.568 281.376 309.593 278.25 310.007C275.124 310.42 271.947 310.214 268.9 309.4C262.747 307.756 257.499 303.734 254.311 298.221C251.123 292.707 250.256 286.153 251.9 280C253.544 273.847 257.566 268.599 263.079 265.411C268.593 262.223 275.147 261.356 281.3 263ZM499.2 346.2C499.874 343.011 501.191 339.993 503.07 337.329C504.949 334.666 507.35 332.413 510.128 330.708C512.907 329.003 516.003 327.882 519.228 327.414C522.454 326.945 525.741 327.138 528.89 327.981C532.038 328.824 534.982 330.3 537.542 332.318C540.101 334.336 542.223 336.855 543.777 339.72C545.331 342.585 546.285 345.737 546.582 348.983C546.878 352.229 546.51 355.501 545.5 358.6C544.686 361.647 543.279 364.503 541.361 367.006C539.443 369.509 537.051 371.61 534.321 373.189C531.591 374.768 528.576 375.793 525.45 376.207C522.324 376.62 519.147 376.414 516.1 375.6C513.053 374.786 510.197 373.379 507.694 371.461C505.19 369.543 503.09 367.151 501.511 364.421C499.932 361.691 498.907 358.677 498.493 355.55C498.08 352.424 498.286 349.247 499.1 346.2H499.2Z" fill="#47535F"/>
</svg>
