<svg width="641" height="513" viewBox="0 0 641 513" fill="none" xmlns="http://www.w3.org/2000/svg">
<g clip-path="url(#clip0_104_802)">
<path d="M171.8 96.5H224.5V192.5H111.8L142.2 116.6C147 104.5 158.7 96.5 171.8 96.5ZM272.5 192.5V96.5H353.7C363.4 96.5 372.6 100.9 378.7 108.5L445.9 192.5H272.5ZM528.7 193.5L428.7 68.5C410.5 45.7 382.9 32.5 353.7 32.5H171.8C132.5 32.5 97.2 56.4 82.7 92.8L41.1 196.9C17.3 206.3 0.5 229.4 0.5 256.5V368.5C0.5 386.2 14.8 400.5 32.5 400.5H65.8C73.4 445.9 112.9 480.5 160.5 480.5C208.1 480.5 247.6 445.9 255.2 400.5H385.8C393.4 445.9 432.9 480.5 480.5 480.5C528.1 480.5 567.6 445.9 575.2 400.5H608.5C626.2 400.5 640.5 386.2 640.5 368.5V320.5C640.5 255.3 591.7 201.5 528.7 193.5ZM435.2 368.5C437.237 362.476 440.451 356.917 444.655 352.145C448.858 347.374 453.968 343.485 459.688 340.706C465.407 337.926 471.622 336.31 477.971 335.952C484.32 335.595 490.677 336.502 496.672 338.622C502.667 340.742 508.182 344.032 512.895 348.301C517.608 352.57 521.426 357.733 524.126 363.491C526.827 369.248 528.357 375.484 528.627 381.837C528.897 388.191 527.902 394.534 525.7 400.5C523.663 406.524 520.449 412.083 516.245 416.855C512.042 421.626 506.932 425.515 501.212 428.294C495.493 431.074 489.278 432.69 482.929 433.048C476.58 433.405 470.223 432.498 464.228 430.378C458.233 428.258 452.718 424.968 448.005 420.699C443.292 416.43 439.474 411.267 436.774 405.509C434.073 399.752 432.543 393.516 432.273 387.163C432.003 380.809 432.998 374.466 435.2 368.5ZM160.5 336.5C173.23 336.5 185.439 341.557 194.441 350.559C203.443 359.561 208.5 371.77 208.5 384.5C208.5 397.23 203.443 409.439 194.441 418.441C185.439 427.443 173.23 432.5 160.5 432.5C147.77 432.5 135.561 427.443 126.559 418.441C117.557 409.439 112.5 397.23 112.5 384.5C112.5 371.77 117.557 359.561 126.559 350.559C135.561 341.557 147.77 336.5 160.5 336.5Z" fill="#47535F"/>
</g>
<defs>
<clipPath id="clip0_104_802">
<rect width="640" height="512" fill="white" transform="translate(0.5 0.5)"/>
</clipPath>
</defs>
</svg>
