<svg width="513" height="513" viewBox="0 0 513 513" fill="none" xmlns="http://www.w3.org/2000/svg">
<g clip-path="url(#clip0_104_814)">
<path d="M256.5 0.5C115.1 0.5 0.5 115.1 0.5 256.5V448.5C0.5 483.8 29.2 512.5 64.5 512.5H107.3C100.7 506.6 96.5 498.1 96.5 488.5V376.5C96.5 355.7 107.8 337.6 124.6 327.9L145.6 263.2C153.1 240.1 174.6 224.5 198.9 224.5H314.1C338.4 224.5 359.9 240.1 367.4 263.2L388.4 327.9C405.2 337.6 416.6 355.7 416.6 376.5V488.5C416.6 498.1 412.4 506.6 405.8 512.5H448.5C483.8 512.5 512.5 483.8 512.5 448.5V256.5C512.5 115.1 397.9 0.5 256.5 0.5ZM363.3 512.5C356.7 506.6 352.5 498.1 352.5 488.5V448.5H160.5V488.5C160.5 498.1 156.3 506.6 149.7 512.5H363.3ZM191.3 278L177.5 320.5H335.5L321.7 278C320.6 274.7 317.6 272.5 314.1 272.5H198.9C195.4 272.5 192.4 274.7 191.3 278ZM168.5 408.5C174.865 408.5 180.97 405.971 185.471 401.471C189.971 396.97 192.5 390.865 192.5 384.5C192.5 378.135 189.971 372.03 185.471 367.529C180.97 363.029 174.865 360.5 168.5 360.5C162.135 360.5 156.03 363.029 151.529 367.529C147.029 372.03 144.5 378.135 144.5 384.5C144.5 390.865 147.029 396.97 151.529 401.471C156.03 405.971 162.135 408.5 168.5 408.5ZM368.5 384.5C368.5 378.135 365.971 372.03 361.471 367.529C356.97 363.029 350.865 360.5 344.5 360.5C338.135 360.5 332.03 363.029 327.529 367.529C323.029 372.03 320.5 378.135 320.5 384.5C320.5 390.865 323.029 396.97 327.529 401.471C332.03 405.971 338.135 408.5 344.5 408.5C350.865 408.5 356.97 405.971 361.471 401.471C365.971 396.97 368.5 390.865 368.5 384.5Z" fill="#47535F"/>
</g>
<defs>
<clipPath id="clip0_104_814">
<rect width="512" height="512" fill="white" transform="translate(0.5 0.5)"/>
</clipPath>
</defs>
</svg>
