<svg width="513" height="513" viewBox="0 0 513 513" fill="none" xmlns="http://www.w3.org/2000/svg">
<g clip-path="url(#clip0_104_780)">
<path d="M135.7 117.9L109.6 192.5H403.4L377.3 117.9C372.8 105.1 360.7 96.5 347.1 96.5H165.9C152.3 96.5 140.2 105.1 135.7 117.9ZM40.1 197.3L75.3 96.8C88.8 58.3 125.1 32.5 165.9 32.5H347.1C387.9 32.5 424.2 58.3 437.7 96.8L472.9 197.3C496.1 206.9 512.5 229.8 512.5 256.5V400.5V448.5C512.5 466.2 498.2 480.5 480.5 480.5H448.5C430.8 480.5 416.5 466.2 416.5 448.5V400.5H96.5V448.5C96.5 466.2 82.2 480.5 64.5 480.5H32.5C14.8 480.5 0.5 466.2 0.5 448.5V400.5V256.5C0.5 229.8 16.9 206.9 40.1 197.3ZM128.5 288.5C128.5 280.013 125.129 271.874 119.127 265.873C113.126 259.871 104.987 256.5 96.5 256.5C88.0131 256.5 79.8737 259.871 73.8726 265.873C67.8714 271.874 64.5 280.013 64.5 288.5C64.5 296.987 67.8714 305.126 73.8726 311.127C79.8737 317.129 88.0131 320.5 96.5 320.5C104.987 320.5 113.126 317.129 119.127 311.127C125.129 305.126 128.5 296.987 128.5 288.5ZM416.5 320.5C424.987 320.5 433.126 317.129 439.127 311.127C445.129 305.126 448.5 296.987 448.5 288.5C448.5 280.013 445.129 271.874 439.127 265.873C433.126 259.871 424.987 256.5 416.5 256.5C408.013 256.5 399.874 259.871 393.873 265.873C387.871 271.874 384.5 280.013 384.5 288.5C384.5 296.987 387.871 305.126 393.873 311.127C399.874 317.129 408.013 320.5 416.5 320.5Z" fill="#47535F"/>
</g>
<defs>
<clipPath id="clip0_104_780">
<rect width="512" height="512" fill="white" transform="translate(0.5 0.5)"/>
</clipPath>
</defs>
</svg>
