<svg width="513" height="513" viewBox="0 0 513 513" fill="none" xmlns="http://www.w3.org/2000/svg">
<g clip-path="url(#clip0_104_798)">
<path d="M165.9 96.5H347.1C360.7 96.5 372.8 105.1 377.3 117.9L403.4 192.5H109.6L135.7 117.9C140.2 105.1 152.3 96.5 165.9 96.5ZM75.3 96.8L40.1 197.3C16.9 206.9 0.5 229.8 0.5 256.5V336.5C0.5 360.2 13.4 380.9 32.5 391.9V448.5C32.5 466.2 46.8 480.5 64.5 480.5H96.5C114.2 480.5 128.5 466.2 128.5 448.5V400.5H384.5V448.5C384.5 466.2 398.8 480.5 416.5 480.5H448.5C466.2 480.5 480.5 466.2 480.5 448.5V391.9C499.6 380.8 512.5 360.2 512.5 336.5V256.5C512.5 229.8 496.1 206.9 472.9 197.3L437.7 96.8C424.2 58.3 387.9 32.5 347.1 32.5H165.9C125.1 32.5 88.8 58.3 75.3 96.8ZM208.5 272.5H304.5C313.3 272.5 320.5 279.7 320.5 288.5V320.5C320.5 329.3 313.3 336.5 304.5 336.5H208.5C199.7 336.5 192.5 329.3 192.5 320.5V288.5C192.5 279.7 199.7 272.5 208.5 272.5ZM48.5 280.5C48.5 267.2 59.2 256.5 72.5 256.5H104.5C117.8 256.5 128.5 267.2 128.5 280.5C128.5 293.8 117.8 304.5 104.5 304.5H72.5C59.2 304.5 48.5 293.8 48.5 280.5ZM408.5 256.5H440.5C453.8 256.5 464.5 267.2 464.5 280.5C464.5 293.8 453.8 304.5 440.5 304.5H408.5C395.2 304.5 384.5 293.8 384.5 280.5C384.5 267.2 395.2 256.5 408.5 256.5Z" fill="#47535F"/>
</g>
<defs>
<clipPath id="clip0_104_798">
<rect width="512" height="512" fill="white" transform="translate(0.5 0.5)"/>
</clipPath>
</defs>
</svg>
