<svg width="513" height="513" viewBox="0 0 513 513" fill="none" xmlns="http://www.w3.org/2000/svg">
<g clip-path="url(#clip0_104_796)">
<path d="M280.5 24.5C280.5 11.2 269.8 0.5 256.5 0.5C243.2 0.5 232.5 11.2 232.5 24.5V104.5C232.5 117.8 243.2 128.5 256.5 128.5C269.8 128.5 280.5 117.8 280.5 104.5V24.5ZM186.3 224.5H326.7C333.5 224.5 339.5 228.8 341.8 235.1L360.8 288.5H152.2L171.3 235.1C173.6 228.7 179.6 224.5 186.4 224.5H186.3ZM111 213.6L82.7002 292.9C62.6002 301.4 48.5002 321.3 48.5002 344.5V384.5V448.5V480.5C48.5002 498.2 62.8002 512.5 80.5002 512.5H96.5002C114.2 512.5 128.5 498.2 128.5 480.5V448.5H384.5V480.5C384.5 498.2 398.8 512.5 416.5 512.5H432.5C450.2 512.5 464.5 498.2 464.5 480.5V448.5V384.5V344.5C464.5 321.3 450.4 301.4 430.3 292.9L402 213.6C390.6 181.8 360.5 160.5 326.7 160.5H186.3C152.5 160.5 122.3 181.8 111 213.6ZM128.5 344.5C134.865 344.5 140.97 347.029 145.471 351.529C149.972 356.03 152.5 362.135 152.5 368.5C152.5 374.865 149.972 380.97 145.471 385.471C140.97 389.971 134.865 392.5 128.5 392.5C122.135 392.5 116.031 389.971 111.53 385.471C107.029 380.97 104.5 374.865 104.5 368.5C104.5 362.135 107.029 356.03 111.53 351.529C116.031 347.029 122.135 344.5 128.5 344.5ZM360.5 368.5C360.5 362.135 363.029 356.03 367.53 351.529C372.031 347.029 378.135 344.5 384.5 344.5C390.865 344.5 396.97 347.029 401.471 351.529C405.972 356.03 408.5 362.135 408.5 368.5C408.5 374.865 405.972 380.97 401.471 385.471C396.97 389.971 390.865 392.5 384.5 392.5C378.135 392.5 372.031 389.971 367.53 385.471C363.029 380.97 360.5 374.865 360.5 368.5ZM39.5002 39.5C30.1002 48.9 30.1002 64.1 39.5002 73.4L87.5002 121.4C96.9002 130.8 112.1 130.8 121.4 121.4C130.7 112 130.8 96.8 121.4 87.5L73.5002 39.5C64.1002 30.1 48.9002 30.1 39.6002 39.5H39.5002ZM439.5 39.5L391.5 87.5C382.1 96.9 382.1 112.1 391.5 121.4C400.9 130.7 416.1 130.8 425.4 121.4L473.4 73.4C482.8 64 482.8 48.8 473.4 39.5C464 30.2 448.8 30.1 439.5 39.5Z" fill="#47535F"/>
</g>
<defs>
<clipPath id="clip0_104_796">
<rect width="512" height="512" fill="white" transform="translate(0.5 0.5)"/>
</clipPath>
</defs>
</svg>
