<svg width="641" height="513" viewBox="0 0 641 513" fill="none" xmlns="http://www.w3.org/2000/svg">
<g clip-path="url(#clip0_104_782)">
<path d="M0.5 112.5C0.5 68.3 36.3 32.5 80.5 32.5H416.5C504.9 32.5 576.5 104.1 576.5 192.5V352.5H608.5C626.2 352.5 640.5 366.8 640.5 384.5C640.5 402.2 626.2 416.5 608.5 416.5H576.5H288.5C288.5 469.5 245.5 512.5 192.5 512.5C139.5 512.5 96.5 469.5 96.5 416.5H80.5C36.3 416.5 0.5 380.7 0.5 336.5V112.5ZM320.5 352.5H448.5V256.5H416.5C407.7 256.5 400.5 249.3 400.5 240.5C400.5 231.7 407.7 224.5 416.5 224.5H448.5V160.5C448.5 142.8 434.2 128.5 416.5 128.5H352.5C334.8 128.5 320.5 142.8 320.5 160.5V352.5ZM96.5 128.5C78.8 128.5 64.5 142.8 64.5 160.5V224.5C64.5 242.2 78.8 256.5 96.5 256.5H224.5C242.2 256.5 256.5 242.2 256.5 224.5V160.5C256.5 142.8 242.2 128.5 224.5 128.5H96.5ZM192.5 464.5C205.23 464.5 217.439 459.443 226.441 450.441C235.443 441.439 240.5 429.23 240.5 416.5C240.5 403.77 235.443 391.561 226.441 382.559C217.439 373.557 205.23 368.5 192.5 368.5C179.77 368.5 167.561 373.557 158.559 382.559C149.557 391.561 144.5 403.77 144.5 416.5C144.5 429.23 149.557 441.439 158.559 450.441C167.561 459.443 179.77 464.5 192.5 464.5Z" fill="#47535F"/>
</g>
<defs>
<clipPath id="clip0_104_782">
<rect width="640" height="512" fill="white" transform="translate(0.5 0.5)"/>
</clipPath>
</defs>
</svg>
