<svg width="513" height="513" viewBox="0 0 513 513" fill="none" xmlns="http://www.w3.org/2000/svg">
<g clip-path="url(#clip0_104_800)">
<path d="M347.2 6.5C338.1 17.5 320.5 42.8 320.5 72.5C320.5 112.5 335.8 127.8 360.5 152.5C385.2 177.2 400.5 192.5 440.5 192.5C470.2 192.5 495.5 174.9 506.5 165.8C510.5 162.5 512.5 157.6 512.5 152.5C512.5 147.4 510.5 142.5 506.5 139.3C495.1 130.2 468.2 112.5 432.5 112.5C400.5 112.5 392.5 120.5 392.5 120.5C392.5 120.5 400.5 112.5 400.5 80.5C400.5 44.8 382.8 17.9 373.7 6.5C370.5 2.5 365.6 0.5 360.5 0.5C355.4 0.5 350.5 2.5 347.2 6.5ZM245.1 136.5C205.1 136.5 168 154.6 143.4 184.7L203.9 245.2C210.1 251.4 210.1 261.6 203.9 267.8C197.7 274 187.5 274 181.3 267.8L126 212.5V212.6L2.70021 478.4C-1.49979 487.5 0.400212 498.3 7.50021 505.5C14.6002 512.7 25.4002 514.5 34.6002 510.3L169.3 447.9L117.2 395.8C111 389.6 111 379.4 117.2 373.2C123.4 367 133.6 367 139.8 373.2L200.2 433.5L300.4 387.1C346.8 365.6 376.6 319.1 376.6 267.9C376.5 195.3 317.7 136.5 245.1 136.5Z" fill="#47535F"/>
</g>
<defs>
<clipPath id="clip0_104_800">
<rect width="512" height="512" fill="white" transform="translate(0.5 0.5)"/>
</clipPath>
</defs>
</svg>
