<svg width="577" height="513" viewBox="0 0 577 513" fill="none" xmlns="http://www.w3.org/2000/svg">
<g clip-path="url(#clip0_104_804)">
<path d="M24.5 0.5C11.2 0.5 0.5 11.2 0.5 24.5C0.5 37.8 11.2 48.5 24.5 48.5H70C73.8 48.5 77.1 51.2 77.9 55L129.5 326C136 360 165.7 384.5 200.2 384.5H488.5C501.8 384.5 512.5 373.8 512.5 360.5C512.5 347.2 501.8 336.5 488.5 336.5H200.2C188.7 336.5 178.8 328.3 176.6 317L171.2 288.5H459.7C492.3 288.5 520.8 266.7 529.2 235.2L570.2 82.9C577.1 57.5 557.9 32.5 531.6 32.5H360.5V134.6L383.5 111.6C392.9 102.2 408.1 102.2 417.4 111.6C426.7 121 426.8 136.2 417.4 145.5L353.4 209.5C344 218.9 328.8 218.9 319.5 209.5L255.5 145.5C246.1 136.1 246.1 120.9 255.5 111.6C264.9 102.3 280.1 102.2 289.4 111.6L312.4 134.6V32.5H120.6C111.5 13.3 92.1 0.5 70 0.5H24.5ZM176.5 512.5C189.23 512.5 201.439 507.443 210.441 498.441C219.443 489.439 224.5 477.23 224.5 464.5C224.5 451.77 219.443 439.561 210.441 430.559C201.439 421.557 189.23 416.5 176.5 416.5C163.77 416.5 151.561 421.557 142.559 430.559C133.557 439.561 128.5 451.77 128.5 464.5C128.5 477.23 133.557 489.439 142.559 498.441C151.561 507.443 163.77 512.5 176.5 512.5ZM512.5 464.5C512.5 451.77 507.443 439.561 498.441 430.559C489.439 421.557 477.23 416.5 464.5 416.5C451.77 416.5 439.561 421.557 430.559 430.559C421.557 439.561 416.5 451.77 416.5 464.5C416.5 477.23 421.557 489.439 430.559 498.441C439.561 507.443 451.77 512.5 464.5 512.5C477.23 512.5 489.439 507.443 498.441 498.441C507.443 489.439 512.5 477.23 512.5 464.5Z" fill="#47535F"/>
</g>
<defs>
<clipPath id="clip0_104_804">
<rect width="576" height="512" fill="white" transform="translate(0.5 0.5)"/>
</clipPath>
</defs>
</svg>
