<svg width="577" height="513" viewBox="0 0 577 513" fill="none" xmlns="http://www.w3.org/2000/svg">
<g clip-path="url(#clip0_104_810)">
<path d="M0.5 24.5C0.5 11.2 11.2 0.5 24.5 0.5H70C92 0.5 111.5 13.3 120.6 32.5H531.6C557.9 32.5 577.1 57.5 570.2 82.9L529.2 235.2C520.7 266.6 492.2 288.5 459.7 288.5H171.2L176.6 317C178.8 328.3 188.7 336.5 200.2 336.5H488.5C501.8 336.5 512.5 347.2 512.5 360.5C512.5 373.8 501.8 384.5 488.5 384.5H200.2C165.6 384.5 135.9 359.9 129.5 326L77.9 55C77.2 51.2 73.9 48.5 70 48.5H24.5C11.2 48.5 0.5 37.8 0.5 24.5ZM128.5 464.5C128.5 458.197 129.742 451.955 132.154 446.131C134.566 440.308 138.102 435.016 142.559 430.559C147.016 426.102 152.308 422.566 158.131 420.154C163.955 417.742 170.197 416.5 176.5 416.5C182.803 416.5 189.045 417.742 194.869 420.154C200.692 422.566 205.984 426.102 210.441 430.559C214.898 435.016 218.434 440.308 220.846 446.131C223.258 451.955 224.5 458.197 224.5 464.5C224.5 470.803 223.258 477.045 220.846 482.869C218.434 488.692 214.898 493.984 210.441 498.441C205.984 502.898 200.692 506.434 194.869 508.846C189.045 511.258 182.803 512.5 176.5 512.5C170.197 512.5 163.955 511.258 158.131 508.846C152.308 506.434 147.016 502.898 142.559 498.441C138.102 493.984 134.566 488.692 132.154 482.869C129.742 477.045 128.5 470.803 128.5 464.5ZM464.5 416.5C477.23 416.5 489.439 421.557 498.441 430.559C507.443 439.561 512.5 451.77 512.5 464.5C512.5 477.23 507.443 489.439 498.441 498.441C489.439 507.443 477.23 512.5 464.5 512.5C451.77 512.5 439.561 507.443 430.559 498.441C421.557 489.439 416.5 477.23 416.5 464.5C416.5 451.77 421.557 439.561 430.559 430.559C439.561 421.557 451.77 416.5 464.5 416.5ZM252.5 160.5C252.5 171.5 261.5 180.5 272.5 180.5H316.5V224.5C316.5 235.5 325.5 244.5 336.5 244.5C347.5 244.5 356.5 235.5 356.5 224.5V180.5H400.5C411.5 180.5 420.5 171.5 420.5 160.5C420.5 149.5 411.5 140.5 400.5 140.5H356.5V96.5C356.5 85.5 347.5 76.5 336.5 76.5C325.5 76.5 316.5 85.5 316.5 96.5V140.5H272.5C261.5 140.5 252.5 149.5 252.5 160.5Z" fill="#47535F"/>
</g>
<defs>
<clipPath id="clip0_104_810">
<rect width="576" height="512" fill="white" transform="translate(0.5 0.5)"/>
</clipPath>
</defs>
</svg>
