<svg width="641" height="513" viewBox="0 0 641 513" fill="none" xmlns="http://www.w3.org/2000/svg">
<g clip-path="url(#clip0_104_808)">
<path d="M0.5 32.5C0.5 14.8 14.8 0.5 32.5 0.5H48.5C92.7 0.5 128.5 36.3 128.5 80.5V368.5C128.5 377.3 135.7 384.5 144.5 384.5H608.5C626.2 384.5 640.5 398.8 640.5 416.5C640.5 434.2 626.2 448.5 608.5 448.5H541.8C543.6 453.5 544.5 458.9 544.5 464.5C544.5 491 523 512.5 496.5 512.5C470 512.5 448.5 491 448.5 464.5C448.5 458.9 449.5 453.5 451.2 448.5H253.8C255.6 453.5 256.5 458.9 256.5 464.5C256.5 491 235 512.5 208.5 512.5C182 512.5 160.5 491 160.5 464.5C160.5 458.9 161.5 453.5 163.2 448.5H144.5C100.3 448.5 64.5 412.7 64.5 368.5V80.5C64.5 71.7 57.3 64.5 48.5 64.5H32.5C14.8 64.5 0.5 50.2 0.5 32.5ZM432.5 96.5V56.5C432.5 52.1 428.9 48.5 424.5 48.5H344.5C340.1 48.5 336.5 52.1 336.5 56.5V96.5H432.5ZM288.5 96.5V56.5C288.5 25.6 313.6 0.5 344.5 0.5H424.5C455.4 0.5 480.5 25.6 480.5 56.5V96.5V320.5H288.5V96.5ZM512.5 320.5V96.5H528.5C555 96.5 576.5 118 576.5 144.5V272.5C576.5 299 555 320.5 528.5 320.5H512.5ZM240.5 96.5H256.5V320.5H240.5C214 320.5 192.5 299 192.5 272.5V144.5C192.5 118 214 96.5 240.5 96.5Z" fill="#47535F"/>
</g>
<defs>
<clipPath id="clip0_104_808">
<rect width="640" height="512" fill="white" transform="translate(0.5 0.5)"/>
</clipPath>
</defs>
</svg>
