<svg width="641" height="513" viewBox="0 0 641 513" fill="none" xmlns="http://www.w3.org/2000/svg">
<g clip-path="url(#clip0_104_806)">
<path d="M32.5 0.5C14.8 0.5 0.5 14.8 0.5 32.5C0.5 50.2 14.8 64.5 32.5 64.5H48.5C57.3 64.5 64.5 71.7 64.5 80.5V368.5C64.5 412.7 100.3 448.5 144.5 448.5H163.2C161.4 453.5 160.5 458.9 160.5 464.5C160.5 491 182 512.5 208.5 512.5C235 512.5 256.5 491 256.5 464.5C256.5 458.9 255.5 453.5 253.8 448.5H451.2C449.4 453.5 448.5 458.9 448.5 464.5C448.5 491 470 512.5 496.5 512.5C523 512.5 544.5 491 544.5 464.5C544.5 458.9 543.5 453.5 541.8 448.5H608.5C626.2 448.5 640.5 434.2 640.5 416.5C640.5 398.8 626.2 384.5 608.5 384.5H144.5C135.7 384.5 128.5 377.3 128.5 368.5V80.5C128.5 36.3 92.7 0.5 48.5 0.5H32.5ZM192.5 80.5V272.5C192.5 299 214 320.5 240.5 320.5H560.5C587 320.5 608.5 299 608.5 272.5V80.5C608.5 54 587 32.5 560.5 32.5H464.5V176.5C464.5 182.4 461.3 187.8 456 190.6C450.7 193.4 444.5 193.1 439.6 189.8L400.5 163.7L361.4 189.8C356.5 193.1 350.2 193.4 345 190.6C339.8 187.8 336.5 182.4 336.5 176.5V32.5H240.5C214 32.5 192.5 54 192.5 80.5Z" fill="#47535F"/>
</g>
<defs>
<clipPath id="clip0_104_806">
<rect width="640" height="512" fill="white" transform="translate(0.5 0.5)"/>
</clipPath>
</defs>
</svg>
