<svg width="513" height="513" viewBox="0 0 513 513" fill="none" xmlns="http://www.w3.org/2000/svg">
<g clip-path="url(#clip0_104_816)">
<path d="M64.5 0.5C46.8 0.5 32.5 14.8 32.5 32.5V96.5C32.5 114.2 46.8 128.5 64.5 128.5H144.5V160.5H87.5C55.9 160.5 29 183.6 24.2 214.9L1.6 364.6C0.9 369.3 0.5 374.1 0.5 378.9V448.5C0.5 483.8 29.2 512.5 64.5 512.5H448.5C483.8 512.5 512.5 483.8 512.5 448.5V378.9C512.5 374.1 512.1 369.3 511.4 364.5L488.7 214.9C484 183.6 457.1 160.5 425.5 160.5H208.5V128.5H288.5C306.2 128.5 320.5 114.2 320.5 96.5V32.5C320.5 14.8 306.2 0.5 288.5 0.5H64.5ZM96.5 48.5H256.5C265.3 48.5 272.5 55.7 272.5 64.5C272.5 73.3 265.3 80.5 256.5 80.5H96.5C87.7 80.5 80.5 73.3 80.5 64.5C80.5 55.7 87.7 48.5 96.5 48.5ZM64.5 432.5C64.5 423.7 71.7 416.5 80.5 416.5H432.5C441.3 416.5 448.5 423.7 448.5 432.5C448.5 441.3 441.3 448.5 432.5 448.5H80.5C71.7 448.5 64.5 441.3 64.5 432.5ZM112.5 264.5C106.135 264.5 100.03 261.971 95.5294 257.471C91.0286 252.97 88.5 246.865 88.5 240.5C88.5 234.135 91.0286 228.03 95.5294 223.529C100.03 219.029 106.135 216.5 112.5 216.5C118.865 216.5 124.97 219.029 129.471 223.529C133.971 228.03 136.5 234.135 136.5 240.5C136.5 246.865 133.971 252.97 129.471 257.471C124.97 261.971 118.865 264.5 112.5 264.5ZM232.5 240.5C232.5 246.865 229.971 252.97 225.471 257.471C220.97 261.971 214.865 264.5 208.5 264.5C202.135 264.5 196.03 261.971 191.529 257.471C187.029 252.97 184.5 246.865 184.5 240.5C184.5 234.135 187.029 228.03 191.529 223.529C196.03 219.029 202.135 216.5 208.5 216.5C214.865 216.5 220.97 219.029 225.471 223.529C229.971 228.03 232.5 234.135 232.5 240.5ZM160.5 344.5C154.135 344.5 148.03 341.971 143.529 337.471C139.029 332.97 136.5 326.865 136.5 320.5C136.5 314.135 139.029 308.03 143.529 303.529C148.03 299.029 154.135 296.5 160.5 296.5C166.865 296.5 172.97 299.029 177.471 303.529C181.971 308.03 184.5 314.135 184.5 320.5C184.5 326.865 181.971 332.97 177.471 337.471C172.97 341.971 166.865 344.5 160.5 344.5ZM328.5 240.5C328.5 246.865 325.971 252.97 321.471 257.471C316.97 261.971 310.865 264.5 304.5 264.5C298.135 264.5 292.03 261.971 287.529 257.471C283.029 252.97 280.5 246.865 280.5 240.5C280.5 234.135 283.029 228.03 287.529 223.529C292.03 219.029 298.135 216.5 304.5 216.5C310.865 216.5 316.97 219.029 321.471 223.529C325.971 228.03 328.5 234.135 328.5 240.5ZM256.5 344.5C250.135 344.5 244.03 341.971 239.529 337.471C235.029 332.97 232.5 326.865 232.5 320.5C232.5 314.135 235.029 308.03 239.529 303.529C244.03 299.029 250.135 296.5 256.5 296.5C262.865 296.5 268.97 299.029 273.471 303.529C277.971 308.03 280.5 314.135 280.5 320.5C280.5 326.865 277.971 332.97 273.471 337.471C268.97 341.971 262.865 344.5 256.5 344.5ZM424.5 240.5C424.5 243.652 423.879 246.773 422.673 249.684C421.467 252.596 419.699 255.242 417.471 257.471C415.242 259.699 412.596 261.467 409.684 262.673C406.773 263.879 403.652 264.5 400.5 264.5C397.348 264.5 394.227 263.879 391.316 262.673C388.404 261.467 385.758 259.699 383.529 257.471C381.301 255.242 379.533 252.596 378.327 249.684C377.121 246.773 376.5 243.652 376.5 240.5C376.5 237.348 377.121 234.227 378.327 231.316C379.533 228.404 381.301 225.758 383.529 223.529C385.758 221.301 388.404 219.533 391.316 218.327C394.227 217.121 397.348 216.5 400.5 216.5C403.652 216.5 406.773 217.121 409.684 218.327C412.596 219.533 415.242 221.301 417.471 223.529C419.699 225.758 421.467 228.404 422.673 231.316C423.879 234.227 424.5 237.348 424.5 240.5ZM352.5 344.5C346.135 344.5 340.03 341.971 335.529 337.471C331.029 332.97 328.5 326.865 328.5 320.5C328.5 314.135 331.029 308.03 335.529 303.529C340.03 299.029 346.135 296.5 352.5 296.5C358.865 296.5 364.97 299.029 369.471 303.529C373.971 308.03 376.5 314.135 376.5 320.5C376.5 326.865 373.971 332.97 369.471 337.471C364.97 341.971 358.865 344.5 352.5 344.5Z" fill="#47535F"/>
</g>
<defs>
<clipPath id="clip0_104_816">
<rect width="512" height="512" fill="white" transform="translate(0.5 0.5)"/>
</clipPath>
</defs>
</svg>
