<svg width="577" height="513" viewBox="0 0 577 513" fill="none" xmlns="http://www.w3.org/2000/svg">
<g clip-path="url(#clip0_104_818)">
<path d="M320.5 192.5H337.6C359.7 230.8 401.1 256.5 448.5 256.5C459.5 256.5 470.3 255.1 480.5 252.5V256.5V288.5V480.5C480.5 498.2 466.2 512.5 448.5 512.5C430.8 512.5 416.5 498.2 416.5 480.5V339.7L280.5 448.5H336.5C354.2 448.5 368.5 462.8 368.5 480.5C368.5 498.2 354.2 512.5 336.5 512.5H192.5C139.5 512.5 96.5 469.5 96.5 416.5V193C96.5 176.9 84.5 163.2 68.5 161.2L60.6 160.2C43.1 158 30.6 142 32.8 124.5C35 107 51 94.5 68.5 96.7L76.4 97.7C124.4 103.7 160.5 144.5 160.5 193V278.3C194.9 226.6 253.7 192.5 320.5 192.5ZM480.5 219C470.5 222.5 459.7 224.5 448.5 224.5C420.1 224.5 394.5 212.1 376.9 192.5C373.2 188.4 369.9 184 367 179.3C357.8 164.5 352.5 147.1 352.5 128.5V32.5V12.5V11.2C352.5 5.3 357.2 0.6 363.1 0.5H363.3C366.6 0.5 369.7 2.1 371.7 4.7V4.8L384.5 21.8L411.7 58.1L416.5 64.5H480.5L485.3 58.1L512.5 21.8L525.3 4.8V4.7C527.3 2.1 530.4 0.5 533.7 0.5H533.9C539.8 0.6 544.5 5.3 544.5 11.2V12.5V32.5V128.5C544.5 145.8 539.9 162.1 531.9 176.1C520.6 195.9 502.3 211.3 480.5 219ZM432.5 128.5C432.5 124.257 430.814 120.187 427.814 117.186C424.813 114.186 420.743 112.5 416.5 112.5C412.257 112.5 408.187 114.186 405.186 117.186C402.186 120.187 400.5 124.257 400.5 128.5C400.5 132.743 402.186 136.813 405.186 139.814C408.187 142.814 412.257 144.5 416.5 144.5C420.743 144.5 424.813 142.814 427.814 139.814C430.814 136.813 432.5 132.743 432.5 128.5ZM480.5 144.5C484.743 144.5 488.813 142.814 491.814 139.814C494.814 136.813 496.5 132.743 496.5 128.5C496.5 124.257 494.814 120.187 491.814 117.186C488.813 114.186 484.743 112.5 480.5 112.5C476.257 112.5 472.187 114.186 469.186 117.186C466.186 120.187 464.5 124.257 464.5 128.5C464.5 132.743 466.186 136.813 469.186 139.814C472.187 142.814 476.257 144.5 480.5 144.5Z" fill="#47535F"/>
</g>
<defs>
<clipPath id="clip0_104_818">
<rect width="576" height="512" fill="white" transform="translate(0.5 0.5)"/>
</clipPath>
</defs>
</svg>
