<svg width="385" height="513" viewBox="0 0 385 513" fill="none" xmlns="http://www.w3.org/2000/svg">
<g clip-path="url(#clip0_104_820)">
<path d="M256.5 32.5C256.5 14.8 242.2 0.5 224.5 0.5C206.8 0.5 192.5 14.8 192.5 32.5V67.2C101.7 82.4 32.5 161.4 32.5 256.5C32.5 351.6 101.7 430.6 192.5 445.8V480.5C192.5 498.2 206.8 512.5 224.5 512.5C242.2 512.5 256.5 498.2 256.5 480.5V445.8C287.4 440.6 315.7 428.1 339.7 410C353.8 399.4 356.7 379.3 346.1 365.2C335.5 351.1 315.4 348.2 301.3 358.8C288.1 368.7 273 376.1 256.5 380.4V132.5C272.9 136.7 288.1 144.1 301.3 154.1C315.4 164.7 335.5 161.9 346.1 147.7C356.7 133.5 353.9 113.5 339.7 102.9C315.7 84.9 287.3 72.3 256.5 67.1V32.5ZM192.5 132.5V380.5C137.3 366.3 96.5 316.2 96.5 256.5C96.5 196.8 137.3 146.7 192.5 132.5Z" fill="#47535F"/>
</g>
<defs>
<clipPath id="clip0_104_820">
<rect width="384" height="512" fill="white" transform="translate(0.5 0.5)"/>
</clipPath>
</defs>
</svg>
