<svg width="385" height="513" viewBox="0 0 385 513" fill="none" xmlns="http://www.w3.org/2000/svg">
<g clip-path="url(#clip0_104_822)">
<path d="M224.5 0.5C242.2 0.5 256.5 14.8 256.5 32.5V67.2C287.4 72.4 315.7 84.9 339.7 103C353.8 113.6 356.7 133.7 346.1 147.8C335.5 161.9 315.4 164.8 301.3 154.2C279.9 138 253.4 128.5 224.5 128.5C153.8 128.5 96.5 185.8 96.5 256.5C96.5 327.2 153.8 384.5 224.5 384.5C253.4 384.5 279.9 375 301.3 358.9C315.4 348.3 335.5 351.1 346.1 365.3C356.7 379.5 353.9 399.5 339.7 410.1C315.7 428.1 287.3 440.7 256.5 445.9V480.5C256.5 498.2 242.2 512.5 224.5 512.5C206.8 512.5 192.5 498.2 192.5 480.5V445.8C101.7 430.6 32.5 351.6 32.5 256.5C32.5 161.4 101.7 82.4 192.5 67.2V32.5C192.5 14.8 206.8 0.5 224.5 0.5Z" fill="#47535F"/>
</g>
<defs>
<clipPath id="clip0_104_822">
<rect width="384" height="512" fill="white" transform="translate(0.5 0.5)"/>
</clipPath>
</defs>
</svg>
