<svg width="513" height="513" viewBox="0 0 513 513" fill="none" xmlns="http://www.w3.org/2000/svg">
<g clip-path="url(#clip0_104_824)">
<path d="M211.5 7.79984C205.5 1.49984 196.5 -0.900159 188.1 1.29984C179.7 3.49984 173.2 10.1998 171 18.5998L155.2 81.0998L93.1998 63.5998C84.7998 61.1998 75.7998 63.5998 69.6998 69.6998C63.5998 75.7998 61.1998 84.7998 63.5998 93.1998L81.0998 155.2L18.5998 171.1C10.1998 173.2 3.59984 179.8 1.29984 188.2C-1.00016 196.6 1.49984 205.5 7.79984 211.5L53.9998 256.5L7.79984 301.5C1.49984 307.5 -0.900159 316.5 1.29984 324.9C3.49984 333.3 10.1998 339.8 18.5998 342L81.0998 357.8L63.5998 419.8C61.1998 428.2 63.5998 437.2 69.6998 443.3C75.7998 449.4 84.7998 451.8 93.1998 449.4L155.2 431.9L171 494.4C173.1 502.8 179.7 509.4 188.1 511.7C196.5 514 205.4 511.5 211.5 505.3L256.5 459.1L301.5 505.3C307.6 511.5 316.5 514 324.9 511.7C333.3 509.4 339.8 502.8 342 494.4L357.8 431.9L419.8 449.4C428.2 451.8 437.2 449.4 443.3 443.3C449.4 437.2 451.8 428.2 449.4 419.8L431.9 357.8L494.4 342C502.8 339.9 509.4 333.3 511.7 324.9C514 316.5 511.5 307.6 505.3 301.5L459.1 256.5L505.3 211.5C511.5 205.4 514 196.5 511.7 188.1C509.4 179.7 502.8 173.2 494.4 171L431.9 155.2L449.4 93.1998C451.8 84.7998 449.4 75.7998 443.3 69.6998C437.2 63.5998 428.2 61.1998 419.8 63.5998L357.8 81.0998L341.9 18.5998C339.8 10.1998 333.2 3.59984 324.8 1.29984C316.4 -1.00016 307.5 1.49984 301.5 7.79984L256.5 53.9998L211.5 7.79984Z" fill="#47535F"/>
</g>
<defs>
<clipPath id="clip0_104_824">
<rect width="512" height="512" fill="white" transform="translate(0.5 0.5)"/>
</clipPath>
</defs>
</svg>
