<svg width="449" height="513" viewBox="0 0 449 513" fill="none" xmlns="http://www.w3.org/2000/svg">
<g clip-path="url(#clip0_104_826)">
<path d="M248.5 48.5V256.5H296.5V59.2C320.4 73 336.5 98.9 336.5 128.5V256.5H384.5V128.5C384.5 57.8 327.2 0.5 256.5 0.5H192.5C121.8 0.5 64.5003 57.8 64.5003 128.5V256.5H112.5V128.5C112.5 98.9 128.6 73 152.5 59.2V256.5H200.5V48.5H248.5ZM48.5003 288.5C36.4003 288.5 25.3003 295.3 19.9003 306.2L3.90031 338.2C-1.09969 348.1 -0.499692 359.9 5.30031 369.3C11.1003 378.7 21.4003 384.5 32.5003 384.5V480.5C32.5003 498.2 46.8003 512.5 64.5003 512.5C82.2003 512.5 96.5003 498.2 96.5003 480.5V384.5H352.5V480.5C352.5 498.2 366.8 512.5 384.5 512.5C402.2 512.5 416.5 498.2 416.5 480.5V384.5C427.6 384.5 437.9 378.8 443.7 369.3C449.5 359.8 450.1 348.1 445.1 338.2L429.1 306.2C423.7 295.3 412.6 288.5 400.5 288.5H48.5003Z" fill="#47535F"/>
</g>
<defs>
<clipPath id="clip0_104_826">
<rect width="448" height="512" fill="white" transform="translate(0.5 0.5)"/>
</clipPath>
</defs>
</svg>
