<svg width="577" height="513" viewBox="0 0 577 513" fill="none" xmlns="http://www.w3.org/2000/svg">
<g clip-path="url(#clip0_104_828)">
<path d="M96.5 32.5C61.2 32.5 32.5 61.2 32.5 96.5V384.5H96.5V96.5H480.5V384.5H544.5V96.5C544.5 61.2 515.8 32.5 480.5 32.5H96.5ZM224.5 384.5V416.5H32.5C14.8 416.5 0.5 430.8 0.5 448.5C0.5 466.2 14.8 480.5 32.5 480.5H544.5C562.2 480.5 576.5 466.2 576.5 448.5C576.5 430.8 562.2 416.5 544.5 416.5H416.5V384.5C416.5 366.8 402.2 352.5 384.5 352.5H256.5C238.8 352.5 224.5 366.8 224.5 384.5Z" fill="#47535F"/>
</g>
<defs>
<clipPath id="clip0_104_828">
<rect width="576" height="512" fill="white" transform="translate(0.5 0.5)"/>
</clipPath>
</defs>
</svg>
