<svg width="641" height="513" viewBox="0 0 641 513" fill="none" xmlns="http://www.w3.org/2000/svg">
<g clip-path="url(#clip0_104_830)">
<path d="M160.5 64.5C160.5 29.2 189.2 0.5 224.5 0.5H576.5C611.8 0.5 640.5 29.2 640.5 64.5V352.5C640.5 387.8 611.8 416.5 576.5 416.5H337.3C325.5 391 307.4 369 284.9 352.5H384.5V320.5C384.5 302.8 398.8 288.5 416.5 288.5H480.5C498.2 288.5 512.5 302.8 512.5 320.5V352.5H576.5V64.5H224.5V113.6C205.7 102.7 183.8 96.5 160.5 96.5V64.5ZM160.5 128.5C173.107 128.5 185.59 130.983 197.238 135.808C208.885 140.632 219.468 147.703 228.382 156.618C237.297 165.532 244.368 176.115 249.192 187.762C254.017 199.41 256.5 211.893 256.5 224.5C256.5 237.107 254.017 249.59 249.192 261.238C244.368 272.885 237.297 283.468 228.382 292.382C219.468 301.297 208.885 308.368 197.238 313.192C185.59 318.017 173.107 320.5 160.5 320.5C147.893 320.5 135.41 318.017 123.762 313.192C112.115 308.368 101.532 301.297 92.6177 292.382C83.7033 283.468 76.632 272.885 71.8076 261.238C66.9831 249.59 64.5 237.107 64.5 224.5C64.5 211.893 66.9831 199.41 71.8076 187.762C76.632 176.115 83.7033 165.532 92.6177 156.618C101.532 147.703 112.115 140.632 123.762 135.808C135.41 130.983 147.893 128.5 160.5 128.5ZM133.8 352.5H187.1C260.8 352.5 320.5 412.2 320.5 485.8C320.5 500.5 308.6 512.5 293.8 512.5H27.2C12.4 512.5 0.5 500.6 0.5 485.8C0.5 412.2 60.2 352.5 133.8 352.5Z" fill="#47535F"/>
</g>
<defs>
<clipPath id="clip0_104_830">
<rect width="640" height="512" fill="white" transform="translate(0.5 0.5)"/>
</clipPath>
</defs>
</svg>
