<svg width="641" height="513" viewBox="0 0 641 513" fill="none" xmlns="http://www.w3.org/2000/svg">
<g clip-path="url(#clip0_104_832)">
<path d="M156.1 17.7999C163.5 3.49987 180.4 -3.10013 195.5 2.39987L320.5 47.9999L445.5 2.39987C460.6 -3.10013 477.5 3.49987 484.9 17.7999L563.7 170.7C592.5 226.5 574 293 525.2 327.3L556.6 413.5L597.6 398.5C614.2 392.5 632.6 401 638.6 417.6C644.6 434.2 636.1 452.6 619.5 458.6L548.4 484.5L477.3 510.5C460.7 516.6 442.3 508 436.3 491.4C430.3 474.8 438.8 456.4 455.4 450.4L496.4 435.4L465.1 349.2C405.7 354.4 348.9 315.2 335.1 254L320.5 189.3L305.9 254C292.1 315.3 235.3 354.4 175.9 349.2L144.6 435.4L185.6 450.4C202.2 456.4 210.8 474.8 204.7 491.4C198.6 508 180.3 516.6 163.7 510.5L92.7001 484.6L21.6001 458.7C5.00012 452.6 -3.59988 434.3 2.50012 417.7C8.60012 401.1 26.9001 392.5 43.5001 398.6L84.5001 413.6L115.8 327.4C67.0001 293 48.6001 226.5 77.4001 170.7L156.1 17.7999ZM200.1 72.1999L172.9 125L262.1 157.5L275.2 99.5999L200.1 72.1999ZM441 72.1999L365.9 99.5999L379 157.5L468.2 125L441 72.1999Z" fill="#47535F"/>
</g>
<defs>
<clipPath id="clip0_104_832">
<rect width="640" height="512" fill="white" transform="translate(0.5 0.5)"/>
</clipPath>
</defs>
</svg>
