<svg width="577" height="513" viewBox="0 0 577 513" fill="none" xmlns="http://www.w3.org/2000/svg">
<g clip-path="url(#clip0_104_834)">
<path d="M96.5 0.5C61.2 0.5 32.5 29.2 32.5 64.5V448.5C14.8 448.5 0.5 462.8 0.5 480.5C0.5 498.2 14.8 512.5 32.5 512.5H320.5C338.2 512.5 352.5 498.2 352.5 480.5C352.5 462.8 338.2 448.5 320.5 448.5V304.5H336.5C358.6 304.5 376.5 322.4 376.5 344.5V376.5C376.5 416.3 408.7 448.5 448.5 448.5C488.3 448.5 520.5 416.3 520.5 376.5V252.8C553 242.6 576.5 212.3 576.5 176.5V144.5C576.5 135.7 569.3 128.5 560.5 128.5H544.5V80.5C544.5 71.7 537.3 64.5 528.5 64.5C519.7 64.5 512.5 71.7 512.5 80.5V128.5H480.5V80.5C480.5 71.7 473.3 64.5 464.5 64.5C455.7 64.5 448.5 71.7 448.5 80.5V128.5H432.5C423.7 128.5 416.5 135.7 416.5 144.5V176.5C416.5 212.3 440 242.6 472.5 252.8V376.5C472.5 389.8 461.8 400.5 448.5 400.5C435.2 400.5 424.5 389.8 424.5 376.5V344.5C424.5 295.9 385.1 256.5 336.5 256.5H320.5V64.5C320.5 29.2 291.8 0.5 256.5 0.5H96.5ZM217.4 83.2C223.4 87.2 225.9 94.7 223.7 101.5L198.7 176.4H256.5C263.2 176.4 269.2 180.6 271.5 186.8C273.8 193 272 200.1 266.9 204.5L154.9 300.5C149.4 305.2 141.5 305.6 135.6 301.6C129.7 297.6 127.1 290.1 129.3 283.3L154.3 208.4H96.5C89.8 208.4 83.8 204.2 81.5 198C79.2 191.8 81 184.7 86.1 180.3L198.1 84.3C203.6 79.6 211.5 79.2 217.4 83.2Z" fill="#47535F"/>
</g>
<defs>
<clipPath id="clip0_104_834">
<rect width="576" height="512" fill="white" transform="translate(0.5 0.5)"/>
</clipPath>
</defs>
</svg>
