<svg width="513" height="513" viewBox="0 0 513 513" fill="none" xmlns="http://www.w3.org/2000/svg">
<g clip-path="url(#clip0_104_842)">
<path d="M32.5 32.5C50.2 32.5 64.5 46.8 64.5 64.5V400.5C64.5 409.3 71.7 416.5 80.5 416.5H480.5C498.2 416.5 512.5 430.8 512.5 448.5C512.5 466.2 498.2 480.5 480.5 480.5H80.5C36.3 480.5 0.5 444.7 0.5 400.5V64.5C0.5 46.8 14.8 32.5 32.5 32.5ZM128.5 128.5C128.5 110.8 142.8 96.5 160.5 96.5H256.5C274.2 96.5 288.5 110.8 288.5 128.5C288.5 146.2 274.2 160.5 256.5 160.5H160.5C142.8 160.5 128.5 146.2 128.5 128.5ZM224.5 192.5H352.5C370.2 192.5 384.5 206.8 384.5 224.5C384.5 242.2 370.2 256.5 352.5 256.5H224.5C206.8 256.5 192.5 242.2 192.5 224.5C192.5 206.8 206.8 192.5 224.5 192.5ZM384.5 288.5H448.5C466.2 288.5 480.5 302.8 480.5 320.5C480.5 338.2 466.2 352.5 448.5 352.5H384.5C366.8 352.5 352.5 338.2 352.5 320.5C352.5 302.8 366.8 288.5 384.5 288.5Z" fill="#47535F"/>
</g>
<defs>
<clipPath id="clip0_104_842">
<rect width="512" height="512" fill="white" transform="translate(0.5 0.5)"/>
</clipPath>
</defs>
</svg>
