<svg width="513" height="513" viewBox="0 0 513 513" fill="none" xmlns="http://www.w3.org/2000/svg">
<g clip-path="url(#clip0_104_844)">
<path d="M64.5 64.5C64.5 46.8 50.2 32.5 32.5 32.5C14.8 32.5 0.5 46.8 0.5 64.5V400.5C0.5 444.7 36.3 480.5 80.5 480.5H480.5C498.2 480.5 512.5 466.2 512.5 448.5C512.5 430.8 498.2 416.5 480.5 416.5H80.5C71.7 416.5 64.5 409.3 64.5 400.5V64.5ZM471.1 151.1C483.6 138.6 483.6 118.3 471.1 105.8C458.6 93.3 438.3 93.3 425.8 105.8L320.5 211.2L263.1 153.8C250.6 141.3 230.3 141.3 217.8 153.8L105.8 265.8C93.3 278.3 93.3 298.6 105.8 311.1C118.3 323.6 138.6 323.6 151.1 311.1L240.5 221.8L297.9 279.2C310.4 291.7 330.7 291.7 343.2 279.2L471.2 151.2L471.1 151.1Z" fill="#47535F"/>
</g>
<defs>
<clipPath id="clip0_104_844">
<rect width="512" height="512" fill="white" transform="translate(0.5 0.5)"/>
</clipPath>
</defs>
</svg>
