<svg width="513" height="513" viewBox="0 0 513 513" fill="none" xmlns="http://www.w3.org/2000/svg">
<g clip-path="url(#clip0_104_836)">
<path d="M64.5 64.5C64.5 46.8 50.2 32.5 32.5 32.5C14.8 32.5 0.5 46.8 0.5 64.5V400.5C0.5 444.7 36.3 480.5 80.5 480.5H480.5C498.2 480.5 512.5 466.2 512.5 448.5C512.5 430.8 498.2 416.5 480.5 416.5H80.5C71.7 416.5 64.5 409.3 64.5 400.5V64.5ZM160.5 352.5H448.5C466.2 352.5 480.5 338.2 480.5 320.5V252.3C480.5 244.7 477.8 237.3 472.8 231.5L407 154.7C394.9 140.5 373.3 139.7 360.1 152.9L339.1 173.9C329.1 183.9 312.7 183.1 303.7 172.3L264.5 125.3C251.9 110.2 228.8 109.9 215.8 124.7L136.4 215.5C131.3 221.3 128.5 228.8 128.5 236.6V320.6C128.5 338.3 142.8 352.6 160.5 352.6V352.5Z" fill="#47535F"/>
</g>
<defs>
<clipPath id="clip0_104_836">
<rect width="512" height="512" fill="white" transform="translate(0.5 0.5)"/>
</clipPath>
</defs>
</svg>
