<svg width="577" height="513" viewBox="0 0 577 513" fill="none" xmlns="http://www.w3.org/2000/svg">
<g clip-path="url(#clip0_104_846)">
<path d="M304.5 240.5V17.1C304.5 8.1 311.5 0.5 320.5 0.5C444.2 0.5 544.5 100.8 544.5 224.5C544.5 233.5 536.9 240.5 527.9 240.5H304.5ZM32.5 272.5C32.5 151.2 122.6 50.8 239.5 34.8C248.7 33.5 256.5 40.9 256.5 50.2V288.5L413 445C419.7 451.7 419.2 462.7 411.5 468.1C372.3 496.1 324.3 512.5 272.5 512.5C140 512.5 32.5 405.1 32.5 272.5ZM558.9 288.5C568.2 288.5 575.5 296.3 574.3 305.5C566.6 361.4 539.7 411.1 500.4 447.8C494.4 453.4 485 453 479.2 447.1L320.5 288.5H558.9Z" fill="#47535F"/>
</g>
<defs>
<clipPath id="clip0_104_846">
<rect width="576" height="512" fill="white" transform="translate(0.5 0.5)"/>
</clipPath>
</defs>
</svg>
