<svg width="449" height="513" viewBox="0 0 449 513" fill="none" xmlns="http://www.w3.org/2000/svg">
<g clip-path="url(#clip0_104_848)">
<path d="M160.5 80.5C160.5 54 182 32.5 208.5 32.5H240.5C267 32.5 288.5 54 288.5 80.5V432.5C288.5 459 267 480.5 240.5 480.5H208.5C182 480.5 160.5 459 160.5 432.5V80.5ZM0.5 272.5C0.5 246 22 224.5 48.5 224.5H80.5C107 224.5 128.5 246 128.5 272.5V432.5C128.5 459 107 480.5 80.5 480.5H48.5C22 480.5 0.5 459 0.5 432.5V272.5ZM368.5 96.5H400.5C427 96.5 448.5 118 448.5 144.5V432.5C448.5 459 427 480.5 400.5 480.5H368.5C342 480.5 320.5 459 320.5 432.5V144.5C320.5 118 342 96.5 368.5 96.5Z" fill="#47535F"/>
</g>
<defs>
<clipPath id="clip0_104_848">
<rect width="448" height="512" fill="white" transform="translate(0.5 0.5)"/>
</clipPath>
</defs>
</svg>
