<svg width="577" height="513" viewBox="0 0 577 513" fill="none" xmlns="http://www.w3.org/2000/svg">
<g clip-path="url(#clip0_104_854)">
<path d="M96.5 80.5C96.5 54 118 32.5 144.5 32.5H432.5C459 32.5 480.5 54 480.5 80.5V384.5H96.5V80.5ZM409.5 127.5C400.1 118.1 384.9 118.1 375.6 127.5L264.6 238.5L217.6 191.5C208.2 182.1 193 182.1 183.7 191.5C174.4 200.9 174.3 216.1 183.7 225.4L247.7 289.4C257.1 298.8 272.3 298.8 281.6 289.4L409.5 161.5C418.9 152.1 418.9 136.9 409.5 127.6V127.5ZM0.5 336.5C0.5 310 22 288.5 48.5 288.5H64.5V416.5H512.5V288.5H528.5C555 288.5 576.5 310 576.5 336.5V432.5C576.5 459 555 480.5 528.5 480.5H48.5C22 480.5 0.5 459 0.5 432.5V336.5Z" fill="#47535F"/>
</g>
<defs>
<clipPath id="clip0_104_854">
<rect width="576" height="512" fill="white" transform="translate(0.5 0.5)"/>
</clipPath>
</defs>
</svg>
