<svg width="449" height="513" viewBox="0 0 449 513" fill="none" xmlns="http://www.w3.org/2000/svg">
<g clip-path="url(#clip0_104_852)">
<path d="M343.101 87.0998C355.601 74.5998 355.601 54.2998 343.101 41.7998C330.601 29.2998 310.301 29.2998 297.801 41.7998L160.501 179.2L103.101 121.8C90.6008 109.3 70.3008 109.3 57.8008 121.8C45.3008 134.3 45.3008 154.6 57.8008 167.1L137.801 247.1C150.301 259.6 170.601 259.6 183.101 247.1L343.101 87.0998ZM439.101 215.1C451.601 202.6 451.601 182.3 439.101 169.8C426.601 157.3 406.301 157.3 393.801 169.8L160.501 403.2L55.1008 297.9C42.6008 285.4 22.3008 285.4 9.80078 297.9C-2.69922 310.4 -2.69922 330.7 9.80078 343.2L137.801 471.2C150.301 483.7 170.601 483.7 183.101 471.2L439.101 215.2V215.1Z" fill="#47535F"/>
</g>
<defs>
<clipPath id="clip0_104_852">
<rect width="448" height="512" fill="white" transform="translate(0.5 0.5)"/>
</clipPath>
</defs>
</svg>
