<svg width="449" height="513" viewBox="0 0 449 513" fill="none" xmlns="http://www.w3.org/2000/svg">
<g clip-path="url(#clip0_104_864)">
<path d="M224.5 0.5C242.2 0.5 256.5 14.8 256.5 32.5V48.5H272.5C290.2 48.5 304.5 62.8 304.5 80.5C304.5 98.2 290.2 112.5 272.5 112.5H256.5V160.5H408.5C430.6 160.5 448.5 178.4 448.5 200.5C448.5 205.8 447.5 211 445.4 215.9L368.5 400.5H80.5L3.6 215.9C1.5 211 0.5 205.8 0.5 200.5C0.5 178.4 18.4 160.5 40.5 160.5H192.5V112.5H176.5C158.8 112.5 144.5 98.2 144.5 80.5C144.5 62.8 158.8 48.5 176.5 48.5H192.5V32.5C192.5 14.8 206.8 0.5 224.5 0.5ZM39.1 473.9L80.5 432.5H368.5L409.9 473.9C414.1 478.1 416.5 483.9 416.5 489.9C416.5 502.4 406.4 512.5 393.9 512.5H55.1C42.6 512.5 32.5 502.4 32.5 489.9C32.5 483.9 34.9 478.1 39.1 473.9Z" fill="#47535F"/>
</g>
<defs>
<clipPath id="clip0_104_864">
<rect width="448" height="512" fill="white" transform="translate(0.5 0.5)"/>
</clipPath>
</defs>
</svg>
