<svg width="449" height="513" viewBox="0 0 449 513" fill="none" xmlns="http://www.w3.org/2000/svg">
<g clip-path="url(#clip0_104_866)">
<path d="M96.5 48.5L83.2 61.8C71.2 73.8 64.5 90 64.5 107V239.4C64.5 250.1 69.8 260.1 78.7 266L89.3 273C103.6 282.6 122 283.7 137.4 276L140.6 274.4C143.2 273.1 145.6 271.6 147.9 269.9L197.3 232.9C203.9 227.9 213 227.9 219.6 232.9C229.8 240.6 229.5 256 218.9 263.2L90.9 350.5C74.4 361.8 64.5 380.5 64.5 400.5H384.5L413.4 241.5C415.5 230.2 416.5 218.7 416.5 207.2V192.5C416.5 86.5 330.5 0.5 224.5 0.5H84.3C73.4 0.5 64.5 9.4 64.5 20.3C64.5 27.8 68.7 34.6 75.4 38L96.5 48.5ZM120.5 116.5C120.5 111.196 122.607 106.109 126.358 102.358C130.109 98.6071 135.196 96.5 140.5 96.5C145.804 96.5 150.891 98.6071 154.642 102.358C158.393 106.109 160.5 111.196 160.5 116.5C160.5 121.804 158.393 126.891 154.642 130.642C150.891 134.393 145.804 136.5 140.5 136.5C135.196 136.5 130.109 134.393 126.358 130.642C122.607 126.891 120.5 121.804 120.5 116.5ZM23.1 473.9C18.9 478.1 16.5 483.9 16.5 489.9C16.5 502.4 26.6 512.5 39.1 512.5H409.9C422.4 512.5 432.5 502.4 432.5 489.9C432.5 483.9 430.1 478.1 425.9 473.9L384.5 432.5H64.5L23.1 473.9Z" fill="#47535F"/>
</g>
<defs>
<clipPath id="clip0_104_866">
<rect width="448" height="512" fill="white" transform="translate(0.5 0.5)"/>
</clipPath>
</defs>
</svg>
