<svg width="321" height="513" viewBox="0 0 321 513" fill="none" xmlns="http://www.w3.org/2000/svg">
<g clip-path="url(#clip0_104_860)">
<path d="M128.5 0.5C110.8 0.5 96.5 14.8 96.5 32.5C96.5 48.6 108.4 61.9 123.9 64.2C78.9 107.3 8.5 190.5 8.5 288.5C8.5 335.9 39.3 360.8 64.5 373.2V400.5H256.5V373.2C281.7 360.7 312.5 335.8 312.5 288.5C312.5 251.2 302.3 216.1 287.2 184.4L187.8 283.8C181.6 290 171.4 290 165.2 283.8C159 277.6 159 267.4 165.2 261.2L271.3 155.1C248.1 117 219.5 85.6 197.1 64.2C212.6 61.9 224.5 48.6 224.5 32.5C224.5 14.8 210.2 0.5 192.5 0.5H128.5ZM48.5 432.5L7.1 473.9C2.9 478.1 0.5 483.9 0.5 489.9C0.5 502.4 10.6 512.5 23.1 512.5H297.9C310.4 512.5 320.5 502.4 320.5 489.9C320.5 483.9 318.1 478.1 313.9 473.9L272.5 432.5H48.5Z" fill="#47535F"/>
</g>
<defs>
<clipPath id="clip0_104_860">
<rect width="320" height="512" fill="white" transform="translate(0.5 0.5)"/>
</clipPath>
</defs>
</svg>
