<svg width="513" height="513" viewBox="0 0 513 513" fill="none" xmlns="http://www.w3.org/2000/svg">
<g clip-path="url(#clip0_104_858)">
<path d="M144.5 16.5C144.5 7.7 137.3 0.5 128.5 0.5C119.7 0.5 112.5 7.7 112.5 16.5V32.5H96.5C87.7 32.5 80.5 39.7 80.5 48.5C80.5 57.3 87.7 64.5 96.5 64.5H112.5V96.5H60.7C49.6 96.5 40.5 105.6 40.5 116.7C40.5 119.2 41 121.6 41.8 124L74.3 208.5H72.5C59.2 208.5 48.5 219.2 48.5 232.5C48.5 245.8 59.2 256.5 72.5 256.5H76.5L60.5 384.5H196.5L180.5 256.5H184.5C197.8 256.5 208.5 245.8 208.5 232.5C208.5 219.2 197.8 208.5 184.5 208.5H182.7L215.2 124C216.1 121.7 216.5 119.2 216.5 116.7C216.5 105.5 207.4 96.5 196.3 96.5H144.5V64.5H160.5C169.3 64.5 176.5 57.3 176.5 48.5C176.5 39.7 169.3 32.5 160.5 32.5H144.5V16.5ZM48.5 416.5L5.3 474.1C2.2 478.3 0.5 483.3 0.5 488.5C0.5 501.8 11.2 512.5 24.5 512.5H232.5C245.8 512.5 256.5 501.8 256.5 488.5C256.5 483.3 254.8 478.3 251.7 474.1L208.5 416.5H48.5ZM336.5 416.5L293.3 474.1C290.2 478.3 288.5 483.3 288.5 488.5C288.5 501.8 299.2 512.5 312.5 512.5H488.5C501.8 512.5 512.5 501.8 512.5 488.5C512.5 483.3 510.8 478.3 507.7 474.1L464.5 416.5H336.5ZM304.5 208.5V260.4C304.5 268.2 307.3 275.7 312.5 281.5L339.7 312.5L337.5 384.5H463L459.7 312.5L488 281.7C493.4 275.8 496.5 268.1 496.5 260V208.5C496.5 199.7 489.3 192.5 480.5 192.5H464.5C455.7 192.5 448.5 199.7 448.5 208.5V224.5H424.5V208.5C424.5 199.7 417.3 192.5 408.5 192.5H392.5C383.7 192.5 376.5 199.7 376.5 208.5V224.5H352.5V208.5C352.5 199.7 345.3 192.5 336.5 192.5H320.5C311.7 192.5 304.5 199.7 304.5 208.5ZM384.5 304.5C384.5 295.7 391.7 288.5 400.5 288.5C409.3 288.5 416.5 295.7 416.5 304.5V336.5H384.5V304.5Z" fill="#47535F"/>
</g>
<defs>
<clipPath id="clip0_104_858">
<rect width="512" height="512" fill="white" transform="translate(0.5 0.5)"/>
</clipPath>
</defs>
</svg>
