<svg width="513" height="513" viewBox="0 0 513 513" fill="none" xmlns="http://www.w3.org/2000/svg">
<g clip-path="url(#clip0_104_870)">
<path d="M256.5 0.5C271.352 0.5 285.596 6.39998 296.098 16.902C306.6 27.4041 312.5 41.6479 312.5 56.5C312.5 71.3521 306.6 85.5959 296.098 96.098C285.596 106.6 271.352 112.5 256.5 112.5C241.648 112.5 227.404 106.6 216.902 96.098C206.4 85.5959 200.5 71.3521 200.5 56.5C200.5 41.6479 206.4 27.4041 216.902 16.902C227.404 6.39998 241.648 0.5 256.5 0.5ZM134.6 144.3C137.9 131.3 149.6 120.5 164.8 120.5C177.1 120.5 187.4 127.7 192.5 137.5C204.5 160.7 228.7 176.5 256.5 176.5C284.3 176.5 308.5 160.7 320.5 137.5C325.6 127.7 335.9 120.5 348.2 120.5C363.5 120.5 375.2 131.3 378.4 144.3C385.4 172.1 410.6 192.6 440.5 192.6C451.3 192.6 461.5 189.9 470.3 185.2C478.7 180.8 489.2 180.7 497.9 186.1C510.9 194.1 515 211.1 507.1 224.1L400.2 400.5H384.5H344.1H168.9H128.5H112.8L5.90001 224.1C-1.99999 211.1 2.10001 194.1 15.1 186.1C23.8 180.8 34.3 180.8 42.7 185.2C51.6 189.9 61.7 192.6 72.5 192.6C102.4 192.6 127.6 172.1 134.6 144.3ZM112.5 432.5H400.5L441.9 473.9C446.1 478.1 448.5 483.9 448.5 489.9C448.5 502.4 438.4 512.5 425.9 512.5H87.1C74.6 512.5 64.5 502.4 64.5 489.9C64.5 483.9 66.9 478.1 71.1 473.9L112.5 432.5Z" fill="#47535F"/>
</g>
<defs>
<clipPath id="clip0_104_870">
<rect width="512" height="512" fill="white" transform="translate(0.5 0.5)"/>
</clipPath>
</defs>
</svg>
