<svg width="449" height="513" viewBox="0 0 449 513" fill="none" xmlns="http://www.w3.org/2000/svg">
<g clip-path="url(#clip0_104_872)">
<path d="M32.5 192.5V48.5C32.5 39.7 39.7 32.5 48.5 32.5H112.5C121.3 32.5 128.5 39.7 128.5 48.5V88.5C128.5 92.9 132.1 96.5 136.5 96.5H168.5C172.9 96.5 176.5 92.9 176.5 88.5V48.5C176.5 39.7 183.7 32.5 192.5 32.5H256.5C265.3 32.5 272.5 39.7 272.5 48.5V88.5C272.5 92.9 276.1 96.5 280.5 96.5H312.5C316.9 96.5 320.5 92.9 320.5 88.5V48.5C320.5 39.7 327.7 32.5 336.5 32.5H400.5C409.3 32.5 416.5 39.7 416.5 48.5V192.5C416.5 202.6 411.8 212.1 403.7 218.1L352.5 256.5L368.5 400.5H80.5L96.5 256.5L45.3 218.1C37.2 212.1 32.5 202.6 32.5 192.5ZM208.5 288.5H240.5C249.3 288.5 256.5 281.3 256.5 272.5V224.5C256.5 206.8 242.2 192.5 224.5 192.5C206.8 192.5 192.5 206.8 192.5 224.5V272.5C192.5 281.3 199.7 288.5 208.5 288.5ZM23.1 473.9L64.5 432.5H384.5L425.9 473.9C430.1 478.1 432.5 483.9 432.5 489.9C432.5 502.4 422.4 512.5 409.9 512.5H39.1C26.6 512.5 16.5 502.4 16.5 489.9C16.5 483.9 18.9 478.1 23.1 473.9Z" fill="#47535F"/>
</g>
<defs>
<clipPath id="clip0_104_872">
<rect width="448" height="512" fill="white" transform="translate(0.5 0.5)"/>
</clipPath>
</defs>
</svg>
