<svg width="321" height="513" viewBox="0 0 321 513" fill="none" xmlns="http://www.w3.org/2000/svg">
<g clip-path="url(#clip0_104_868)">
<path d="M216 224.5C245.2 206.1 264.5 173.6 264.5 136.5C264.5 79.1 217.9 32.5 160.5 32.5C103.1 32.5 56.5 79.1 56.5 136.5C56.5 173.6 75.9 206.1 105 224.5H96.5C78.8 224.5 64.5 238.8 64.5 256.5C64.5 273 77 286.5 93 288.3L80.5 400.5H240.5L228 288.3C244 286.5 256.5 273 256.5 256.5C256.5 238.8 242.2 224.5 224.5 224.5H216ZM23.1 473.9C18.9 478.1 16.5 483.9 16.5 489.9C16.5 502.4 26.6 512.5 39.1 512.5H281.9C294.4 512.5 304.5 502.4 304.5 489.9C304.5 483.9 302.1 478.1 297.9 473.9L256.5 432.5H64.5L23.1 473.9Z" fill="#47535F"/>
</g>
<defs>
<clipPath id="clip0_104_868">
<rect width="320" height="512" fill="white" transform="translate(0.5 0.5)"/>
</clipPath>
</defs>
</svg>
