<svg width="385" height="513" viewBox="0 0 385 513" fill="none" xmlns="http://www.w3.org/2000/svg">
<g clip-path="url(#clip0_104_888)">
<path d="M256.5 64.5C256.5 47.5261 249.757 31.2475 237.755 19.2452C225.753 7.24284 209.474 0.5 192.5 0.5C175.526 0.5 159.248 7.24284 147.245 19.2452C135.243 31.2475 128.5 47.5261 128.5 64.5C128.5 81.4739 135.243 97.7525 147.245 109.755C159.248 121.757 175.526 128.5 192.5 128.5C209.474 128.5 225.753 121.757 237.755 109.755C249.757 97.7525 256.5 81.4739 256.5 64.5ZM153.4 169.8C129.7 161.4 108.9 145.5 94.6001 124L75.1001 94.7C65.3001 80 45.5001 76.1 30.7001 85.9C15.9001 95.7 12.0001 115.6 21.8001 130.3L41.4001 159.5C59.5001 186.6 84.2001 207.9 112.5 221.9V480.5C112.5 498.2 126.8 512.5 144.5 512.5C162.2 512.5 176.5 498.2 176.5 480.5V384.5H208.5V480.5C208.5 498.2 222.8 512.5 240.5 512.5C258.2 512.5 272.5 498.2 272.5 480.5V222.1C301.6 207.9 326.9 185.9 345.2 157.9L363.4 130C373 115.2 368.8 95.4 354 85.7C339.2 76 319.4 80.2 309.7 95.1L291.5 122.9C269.7 156.3 232.6 176.5 192.7 176.5C180.1 176.5 167.8 174.5 156.1 170.7C155.2 170.4 154.3 170 153.4 169.8Z" fill="#47535F"/>
</g>
<defs>
<clipPath id="clip0_104_888">
<rect width="384" height="512" fill="white" transform="translate(0.5 0.5)"/>
</clipPath>
</defs>
</svg>
