<svg width="577" height="513" viewBox="0 0 577 513" fill="none" xmlns="http://www.w3.org/2000/svg">
<g clip-path="url(#clip0_104_884)">
<path d="M176.5 128.5C193.474 128.5 209.752 121.757 221.755 109.755C233.757 97.7525 240.5 81.4739 240.5 64.5C240.5 47.5261 233.757 31.2475 221.755 19.2452C209.752 7.24284 193.474 0.5 176.5 0.5C159.526 0.5 143.247 7.24284 131.245 19.2452C119.243 31.2475 112.5 47.5261 112.5 64.5C112.5 81.4739 119.243 97.7525 131.245 109.755C143.247 121.757 159.526 128.5 176.5 128.5ZM168.5 480.5V352.5H184.5V480.5C184.5 498.2 198.8 512.5 216.5 512.5C234.2 512.5 248.5 498.2 248.5 480.5V301L261.4 321.5C270.8 336.5 290.6 340.9 305.5 331.5C320.4 322.1 324.9 302.3 315.5 287.4L263.8 205.3C246.2 177.4 215.5 160.4 182.6 160.4H170.3C137.3 160.4 106.6 177.3 89.0999 205.3L37.3999 287.5C27.9999 302.5 32.4999 322.2 47.3999 331.6C62.2999 341 82.0999 336.5 91.4999 321.6L104.5 301V480.5C104.5 498.2 118.8 512.5 136.5 512.5C154.2 512.5 168.5 498.2 168.5 480.5ZM448.5 0.5H432.5H416.5C407.7 0.5 400.5 7.7 400.5 16.5C400.5 25.3 407.7 32.5 416.5 32.5V132.8C406.9 138.3 400.5 148.7 400.5 160.5V192.5C382.8 192.5 368.5 206.8 368.5 224.5V368.5C368.5 386.2 382.8 400.5 400.5 400.5H416.5V496.5C416.5 505.3 423.7 512.5 432.5 512.5H492C502.4 512.5 510 502.7 507.5 492.6L484.5 400.5H528.5C537.3 400.5 544.5 393.3 544.5 384.5V368.5C544.5 359.7 537.3 352.5 528.5 352.5H480.5V325.8L533.6 308.1C540.1 305.9 544.5 299.8 544.5 292.9V208.5C544.5 199.7 537.3 192.5 528.5 192.5H512.5C503.7 192.5 496.5 199.7 496.5 208.5V264.5L480.5 269.8V160.5C480.5 148.7 474.1 138.3 464.5 132.8V16.5C464.5 7.7 457.3 0.5 448.5 0.5Z" fill="#47535F"/>
</g>
<defs>
<clipPath id="clip0_104_884">
<rect width="576" height="512" fill="white" transform="translate(0.5 0.5)"/>
</clipPath>
</defs>
</svg>
