<svg width="641" height="513" viewBox="0 0 641 513" fill="none" xmlns="http://www.w3.org/2000/svg">
<g clip-path="url(#clip0_104_890)">
<path d="M160.5 0.5C177.474 0.5 193.752 7.24284 205.755 19.2452C217.757 31.2475 224.5 47.5261 224.5 64.5C224.5 81.4739 217.757 97.7525 205.755 109.755C193.752 121.757 177.474 128.5 160.5 128.5C143.526 128.5 127.247 121.757 115.245 109.755C103.243 97.7525 96.4999 81.4739 96.4999 64.5C96.4999 47.5261 103.243 31.2475 115.245 19.2452C127.247 7.24284 143.526 0.5 160.5 0.5ZM88.4999 480.5V400.5H70.6999C59.7999 400.5 52.0999 389.8 55.4999 379.4L86.5999 286L57.9999 323.8C47.2999 337.9 27.1999 340.6 13.1999 330C-0.800103 319.4 -3.6001 299.3 6.9999 285.2L65.8999 207.5C88.2999 177.9 123.4 160.5 160.5 160.5C197.6 160.5 232.7 177.9 255.1 207.5L314 285.2C324.7 299.3 321.9 319.4 307.8 330C293.7 340.6 273.6 337.9 263 323.8L234.4 286L265.5 379.4C269 389.8 261.2 400.5 250.3 400.5H232.5V480.5C232.5 498.2 218.2 512.5 200.5 512.5C182.8 512.5 168.5 498.2 168.5 480.5V400.5H152.5V480.5C152.5 498.2 138.2 512.5 120.5 512.5C102.8 512.5 88.4999 498.2 88.4999 480.5ZM480.5 0.5C497.474 0.5 513.752 7.24284 525.755 19.2452C537.757 31.2475 544.5 47.5261 544.5 64.5C544.5 81.4739 537.757 97.7525 525.755 109.755C513.752 121.757 497.474 128.5 480.5 128.5C463.526 128.5 447.247 121.757 435.245 109.755C423.243 97.7525 416.5 81.4739 416.5 64.5C416.5 47.5261 423.243 31.2475 435.245 19.2452C447.247 7.24284 463.526 0.5 480.5 0.5ZM472.5 384.5V480.5C472.5 498.2 458.2 512.5 440.5 512.5C422.8 512.5 408.5 498.2 408.5 480.5V301L395.6 321.5C386.2 336.5 366.4 340.9 351.5 331.5C336.6 322.1 332.1 302.3 341.5 287.4L393.2 205.3C410.8 177.4 441.5 160.4 474.4 160.4H486.7C519.7 160.4 550.4 177.3 567.9 205.3L619.6 287.5C629 302.5 624.5 322.2 609.6 331.6C594.7 341 574.9 336.5 565.5 321.6L552.5 301V480.5C552.5 498.2 538.2 512.5 520.5 512.5C502.8 512.5 488.5 498.2 488.5 480.5V384.5H472.5Z" fill="#47535F"/>
</g>
<defs>
<clipPath id="clip0_104_890">
<rect width="640" height="512" fill="white" transform="translate(0.5 0.5)"/>
</clipPath>
</defs>
</svg>
