<svg width="321" height="513" viewBox="0 0 321 513" fill="none" xmlns="http://www.w3.org/2000/svg">
<g clip-path="url(#clip0_104_882)">
<path d="M96.4999 64.5C96.4999 47.5261 103.243 31.2475 115.245 19.2452C127.247 7.24284 143.526 0.5 160.5 0.5C177.474 0.5 193.752 7.24284 205.755 19.2452C217.757 31.2475 224.5 47.5261 224.5 64.5C224.5 81.4739 217.757 97.7525 205.755 109.755C193.752 121.757 177.474 128.5 160.5 128.5C143.526 128.5 127.247 121.757 115.245 109.755C103.243 97.7525 96.4999 81.4739 96.4999 64.5ZM144.5 384.5V480.5C144.5 498.2 130.2 512.5 112.5 512.5C94.7999 512.5 80.4999 498.2 80.4999 480.5V288.3L59.5999 321.5C50.1999 336.5 30.3999 340.9 15.4999 331.5C0.599918 322.1 -4.00008 302.4 5.39992 287.5L45.2999 224.2C70.1999 184.5 113.7 160.5 160.5 160.5C207.3 160.5 250.8 184.5 275.7 224.1L315.6 287.5C325 302.5 320.5 322.2 305.6 331.6C290.7 341 270.9 336.5 261.5 321.6L240.5 288.3V480.5C240.5 498.2 226.2 512.5 208.5 512.5C190.8 512.5 176.5 498.2 176.5 480.5V384.5H144.5Z" fill="#47535F"/>
</g>
<defs>
<clipPath id="clip0_104_882">
<rect width="320" height="512" fill="white" transform="translate(0.5 0.5)"/>
</clipPath>
</defs>
</svg>
