<svg width="321" height="513" viewBox="0 0 321 513" fill="none" xmlns="http://www.w3.org/2000/svg">
<g clip-path="url(#clip0_104_886)">
<path d="M224.5 64.5C224.5 47.5261 217.757 31.2475 205.755 19.2452C193.753 7.24284 177.474 0.5 160.5 0.5C143.526 0.5 127.248 7.24284 115.245 19.2452C103.243 31.2475 96.5002 47.5261 96.5002 64.5C96.5002 81.4739 103.243 97.7525 115.245 109.755C127.248 121.757 143.526 128.5 160.5 128.5C177.474 128.5 193.753 121.757 205.755 109.755C217.757 97.7525 224.5 81.4739 224.5 64.5ZM88.5002 400.5V480.5C88.5002 498.2 102.8 512.5 120.5 512.5C138.2 512.5 152.5 498.2 152.5 480.5V400.5H168.5V480.5C168.5 498.2 182.8 512.5 200.5 512.5C218.2 512.5 232.5 498.2 232.5 480.5V400.5H250.3C261.2 400.5 268.9 389.8 265.5 379.4L234.4 286L263 323.8C273.7 337.9 293.8 340.6 307.8 330C321.8 319.4 324.6 299.3 314 285.2L255.1 207.5C232.7 177.9 197.6 160.5 160.5 160.5C123.4 160.5 88.3002 177.9 65.9002 207.5L7.00018 285.2C-3.69982 299.3 -0.899818 319.4 13.2002 330C27.3002 340.6 47.4002 337.9 58.0002 323.8L86.7002 286L55.5002 379.4C52.1002 389.8 59.8002 400.5 70.7002 400.5H88.5002Z" fill="#47535F"/>
</g>
<defs>
<clipPath id="clip0_104_886">
<rect width="320" height="512" fill="white" transform="translate(0.5 0.5)"/>
</clipPath>
</defs>
</svg>
