<svg width="641" height="513" viewBox="0 0 641 513" fill="none" xmlns="http://www.w3.org/2000/svg">
<g clip-path="url(#clip0_104_892)">
<path d="M344.5 24.5C344.5 11.2 333.8 0.5 320.5 0.5C307.2 0.5 296.5 11.2 296.5 24.5V48.5H264.5C251.2 48.5 240.5 59.2 240.5 72.5C240.5 85.8 251.2 96.5 264.5 96.5H296.5V142.9L183.8 210.5C169.3 219.2 160.5 234.8 160.5 251.7V512.5H256.5V416.5C256.5 381.2 285.2 352.5 320.5 352.5C355.8 352.5 384.5 381.2 384.5 416.5V512.5H480.5V251.7C480.5 234.8 471.7 219.2 457.2 210.5L344.5 142.9V96.5H376.5C389.8 96.5 400.5 85.8 400.5 72.5C400.5 59.2 389.8 48.5 376.5 48.5H344.5V24.5ZM25.4 330.8C10 339.3 0.5 355.4 0.5 372.9V464.5C0.5 491 22 512.5 48.5 512.5H128.5V274.1L25.4 330.8ZM592.5 512.5C619 512.5 640.5 491 640.5 464.5V372.9C640.5 355.4 631 339.3 615.6 330.8L512.5 274.1V512.5H592.5Z" fill="#47535F"/>
</g>
<defs>
<clipPath id="clip0_104_892">
<rect width="640" height="512" fill="white" transform="translate(0.5 0.5)"/>
</clipPath>
</defs>
</svg>
