<svg width="513" height="513" viewBox="0 0 513 513" fill="none" xmlns="http://www.w3.org/2000/svg">
<g clip-path="url(#clip0_104_934)">
<path d="M223.2 32.6C228.2 49.5 218.6 67.4 201.7 72.4C122.3 96.1 64.5 169.6 64.5 256.5C64.5 362.5 150.5 448.5 256.5 448.5C362.5 448.5 448.5 362.5 448.5 256.5C448.5 169.6 390.7 96.1 311.4 72.4C294.5 67.4 284.8 49.5 289.9 32.6C295 15.7 312.8 6.00002 329.7 11.1C435.4 42.6 512.5 140.5 512.5 256.5C512.5 397.9 397.9 512.5 256.5 512.5C115.1 512.5 0.5 397.9 0.5 256.5C0.5 140.5 77.6 42.6 183.4 11.1C200.3 6.10002 218.2 15.7 223.2 32.6Z" fill="#47535F"/>
</g>
<defs>
<clipPath id="clip0_104_934">
<rect width="512" height="512" fill="white" transform="translate(0.5 0.5)"/>
</clipPath>
</defs>
</svg>
