<svg width="513" height="513" viewBox="0 0 513 513" fill="none" xmlns="http://www.w3.org/2000/svg">
<g clip-path="url(#clip0_104_942)">
<path d="M256.5 512.5C324.395 512.5 389.51 485.529 437.519 437.519C485.529 389.51 512.5 324.395 512.5 256.5C512.5 188.605 485.529 123.49 437.519 75.4807C389.51 27.4714 324.395 0.5 256.5 0.5C188.605 0.5 123.49 27.4714 75.4807 75.4807C27.4714 123.49 0.5 188.605 0.5 256.5C0.5 324.395 27.4714 389.51 75.4807 437.519C123.49 485.529 188.605 512.5 256.5 512.5ZM170.3 165.8C178.2 143.5 199.4 128.5 223.1 128.5H281.4C316.3 128.5 344.5 156.8 344.5 191.6C344.5 214.2 332.4 235.1 312.8 246.4L280.5 264.9C280.3 277.9 269.6 288.5 256.5 288.5C243.2 288.5 232.5 277.8 232.5 264.5V251C232.5 242.4 237.1 234.5 244.6 230.2L288.9 204.8C293.6 202.1 296.5 197.1 296.5 191.7C296.5 183.3 289.7 176.6 281.4 176.6H223.1C219.7 176.6 216.7 178.7 215.6 181.9L215.2 183.1C210.8 195.6 197 202.1 184.6 197.7C172.2 193.3 165.6 179.5 170 167.1L170.4 165.9L170.3 165.8ZM224.5 352.5C224.5 344.013 227.871 335.874 233.873 329.873C239.874 323.871 248.013 320.5 256.5 320.5C264.987 320.5 273.126 323.871 279.127 329.873C285.129 335.874 288.5 344.013 288.5 352.5C288.5 360.987 285.129 369.126 279.127 375.127C273.126 381.129 264.987 384.5 256.5 384.5C248.013 384.5 239.874 381.129 233.873 375.127C227.871 369.126 224.5 360.987 224.5 352.5Z" fill="#47535F"/>
</g>
<defs>
<clipPath id="clip0_104_942">
<rect width="512" height="512" fill="white" transform="translate(0.5 0.5)"/>
</clipPath>
</defs>
</svg>
