<svg width="513" height="513" viewBox="0 0 513 513" fill="none" xmlns="http://www.w3.org/2000/svg">
<g clip-path="url(#clip0_104_944)">
<path d="M256.5 64.5C281.714 64.5 306.681 69.4662 329.975 79.1151C353.27 88.764 374.436 102.907 392.264 120.735C410.093 138.564 424.236 159.73 433.885 183.025C443.534 206.319 448.5 231.286 448.5 256.5C448.5 281.714 443.534 306.681 433.885 329.975C424.236 353.27 410.093 374.436 392.264 392.264C374.436 410.093 353.27 424.236 329.975 433.885C306.681 443.534 281.714 448.5 256.5 448.5C231.286 448.5 206.319 443.534 183.025 433.885C159.73 424.236 138.564 410.093 120.735 392.264C102.907 374.436 88.764 353.27 79.1151 329.975C69.4662 306.681 64.5 281.714 64.5 256.5C64.5 231.286 69.4662 206.319 79.1151 183.025C88.764 159.73 102.907 138.564 120.735 120.735C138.564 102.907 159.73 88.764 183.025 79.1151C206.319 69.4662 231.286 64.5 256.5 64.5ZM256.5 512.5C324.395 512.5 389.51 485.529 437.519 437.519C485.529 389.51 512.5 324.395 512.5 256.5C512.5 188.605 485.529 123.49 437.519 75.4807C389.51 27.4714 324.395 0.5 256.5 0.5C188.605 0.5 123.49 27.4714 75.4807 75.4807C27.4714 123.49 0.5 188.605 0.5 256.5C0.5 324.395 27.4714 389.51 75.4807 437.519C123.49 485.529 188.605 512.5 256.5 512.5ZM200.5 256.5C200.5 235.8 211.8 217.7 228.5 208L192.5 145.7C183.7 130.4 163.8 124.9 150.5 136.7C124.9 159.3 106.6 190 99.6 224.8C96.2 242 110.8 256.5 128.5 256.5H200.5ZM228.5 305L192.5 367.4C183.7 382.7 188.9 402.6 205.6 408.2C221.6 413.6 238.7 416.5 256.5 416.5C274.3 416.5 291.4 413.6 307.4 408.2C324.1 402.6 329.3 382.7 320.5 367.4L284.5 305C276.3 309.8 266.7 312.5 256.5 312.5C246.3 312.5 236.7 309.8 228.5 305ZM312.5 256.5H384.5C402.2 256.5 416.8 242 413.3 224.7C406.3 189.9 388 159.2 362.4 136.6C349.2 124.9 329.3 130.3 320.4 145.6L284.4 207.9C301.1 217.6 312.4 235.7 312.4 256.4L312.5 256.5ZM256.5 288.5C264.987 288.5 273.126 285.129 279.127 279.127C285.129 273.126 288.5 264.987 288.5 256.5C288.5 248.013 285.129 239.874 279.127 233.873C273.126 227.871 264.987 224.5 256.5 224.5C248.013 224.5 239.874 227.871 233.873 233.873C227.871 239.874 224.5 248.013 224.5 256.5C224.5 264.987 227.871 273.126 233.873 279.127C239.874 285.129 248.013 288.5 256.5 288.5Z" fill="#47535F"/>
</g>
<defs>
<clipPath id="clip0_104_944">
<rect width="512" height="512" fill="white" transform="translate(0.5 0.5)"/>
</clipPath>
</defs>
</svg>
