<svg width="513" height="513" viewBox="0 0 513 513" fill="none" xmlns="http://www.w3.org/2000/svg">
<g clip-path="url(#clip0_104_914)">
<path d="M327.2 404.2C305.1 412.2 281.3 416.5 256.5 416.5C231.7 416.5 207.8 412.1 185.8 404.2C185.5 404.1 185.3 404 185 403.9C155 392.9 128.2 375.2 106.4 352.5C70.5 315.1 48.5 264.4 48.5 208.5C48.5 93.6 141.6 0.5 256.5 0.5C371.4 0.5 464.5 93.6 464.5 208.5C464.5 264.4 442.5 315.1 406.6 352.5C405.6 353.5 404.6 354.6 403.6 355.6C382.2 377 356.2 393.7 327.3 404.2H327.2ZM256.5 92.4C245.4 92.4 236.4 101.4 236.4 112.5V118.5C230.8 119.7 225.5 121.4 220.5 123.6C205.5 130.4 192.6 143 189.4 161.3C187.6 171.5 188.6 181.3 192.8 190.3C197 199.1 203.5 205.3 210.1 209.8C221.7 217.7 237 222.3 248.7 225.8L250.9 226.5C264.8 230.7 274.3 233.9 280.2 238.2C282.7 240 283.6 241.4 283.9 242.2C284.2 243 284.8 244.8 284.1 248.9C283.5 252.4 281.6 255.3 276.1 257.7C270 260.3 260.1 261.6 247.3 259.6C241.3 258.6 230.6 255 221.1 251.7C218.9 251 216.8 250.2 214.7 249.6C204.2 246.1 192.9 251.8 189.4 262.3C185.9 272.8 191.6 284.1 202.1 287.6C203.3 288 204.8 288.5 206.5 289.1C214.4 291.8 226.8 296 236.3 298.2V304.5C236.3 315.6 245.3 324.6 256.4 324.6C267.5 324.6 276.5 315.6 276.5 304.5V299C281.8 298 287 296.5 291.9 294.4C307.6 287.7 320.3 274.7 323.5 255.7C325.3 245.3 324.5 235.4 320.5 226.3C316.6 217.3 310.3 210.7 303.6 205.8C291.4 197 275.3 192.1 263.2 188.4L262.4 188.2C248.2 183.9 238.6 180.9 232.5 176.8C229.9 175 229.1 173.8 228.9 173.3C228.7 173 228.2 171.7 228.8 168.3C229.1 166.4 230.7 163.1 237 160.2C243.4 157.3 253.4 155.7 265.6 157.6C269.9 158.3 283.5 160.9 287.3 161.9C298 164.7 308.9 158.4 311.8 147.7C314.7 137 308.3 126.1 297.6 123.2C293.2 122 283.2 120 276.6 118.8V112.5C276.6 101.4 267.6 92.4 256.5 92.4ZM48.5 352.5H64.5C84 378.4 108.5 400.2 136.7 416.5H64.5V448.5H256.5H448.5V416.5H376.3C404.5 400.2 429.1 378.4 448.5 352.5H464.5C491 352.5 512.5 374 512.5 400.5V464.5C512.5 491 491 512.5 464.5 512.5H48.5C22 512.5 0.5 491 0.5 464.5V400.5C0.5 374 22 352.5 48.5 352.5Z" fill="#47535F"/>
</g>
<defs>
<clipPath id="clip0_104_914">
<rect width="512" height="512" fill="white" transform="translate(0.5 0.5)"/>
</clipPath>
</defs>
</svg>
