<svg width="513" height="513" viewBox="0 0 513 513" fill="none" xmlns="http://www.w3.org/2000/svg">
<g clip-path="url(#clip0_104_916)">
<path d="M256.5 512.5C324.395 512.5 389.51 485.529 437.519 437.519C485.529 389.51 512.5 324.395 512.5 256.5C512.5 188.605 485.529 123.49 437.519 75.4807C389.51 27.4714 324.395 0.5 256.5 0.5C188.605 0.5 123.49 27.4714 75.4807 75.4807C27.4714 123.49 0.5 188.605 0.5 256.5C0.5 324.395 27.4714 389.51 75.4807 437.519C123.49 485.529 188.605 512.5 256.5 512.5ZM256.5 160.5C281.961 160.5 306.379 170.614 324.382 188.618C342.386 206.621 352.5 231.039 352.5 256.5C352.5 281.961 342.386 306.379 324.382 324.382C306.379 342.386 281.961 352.5 256.5 352.5C231.039 352.5 206.621 342.386 188.618 324.382C170.614 306.379 160.5 281.961 160.5 256.5C160.5 231.039 170.614 206.621 188.618 188.618C206.621 170.614 231.039 160.5 256.5 160.5Z" fill="#47535F"/>
</g>
<defs>
<clipPath id="clip0_104_916">
<rect width="512" height="512" fill="white" transform="translate(0.5 0.5)"/>
</clipPath>
</defs>
</svg>
