<svg width="513" height="513" viewBox="0 0 513 513" fill="none" xmlns="http://www.w3.org/2000/svg">
<g clip-path="url(#clip0_104_952)">
<path d="M399.5 384.7C377.4 346.3 335.9 320.5 288.5 320.5H224.5C177.1 320.5 135.6 346.3 113.5 384.7C148.7 423.9 199.7 448.5 256.5 448.5C313.3 448.5 364.3 423.8 399.5 384.7ZM0.5 256.5C0.5 188.605 27.4714 123.49 75.4807 75.4807C123.49 27.4714 188.605 0.5 256.5 0.5C324.395 0.5 389.51 27.4714 437.519 75.4807C485.529 123.49 512.5 188.605 512.5 256.5C512.5 324.395 485.529 389.51 437.519 437.519C389.51 485.529 324.395 512.5 256.5 512.5C188.605 512.5 123.49 485.529 75.4807 437.519C27.4714 389.51 0.5 324.395 0.5 256.5ZM256.5 272.5C275.596 272.5 293.909 264.914 307.412 251.412C320.914 237.909 328.5 219.596 328.5 200.5C328.5 181.404 320.914 163.091 307.412 149.588C293.909 136.086 275.596 128.5 256.5 128.5C237.404 128.5 219.091 136.086 205.588 149.588C192.086 163.091 184.5 181.404 184.5 200.5C184.5 219.596 192.086 237.909 205.588 251.412C219.091 264.914 237.404 272.5 256.5 272.5Z" fill="#47535F"/>
</g>
<defs>
<clipPath id="clip0_104_952">
<rect width="512" height="512" fill="white" transform="translate(0.5 0.5)"/>
</clipPath>
</defs>
</svg>
