<svg width="513" height="513" viewBox="0 0 513 513" fill="none" xmlns="http://www.w3.org/2000/svg">
<g clip-path="url(#clip0_104_926)">
<path d="M256.5 512.5C324.395 512.5 389.51 485.529 437.519 437.519C485.529 389.51 512.5 324.395 512.5 256.5C512.5 188.605 485.529 123.49 437.519 75.4807C389.51 27.4714 324.395 0.5 256.5 0.5C188.605 0.5 123.49 27.4714 75.4807 75.4807C27.4714 123.49 0.5 188.605 0.5 256.5C0.5 324.395 27.4714 389.51 75.4807 437.519C123.49 485.529 188.605 512.5 256.5 512.5ZM216.5 336.5H240.5V272.5H216.5C203.2 272.5 192.5 261.8 192.5 248.5C192.5 235.2 203.2 224.5 216.5 224.5H264.5C277.8 224.5 288.5 235.2 288.5 248.5V336.5H296.5C309.8 336.5 320.5 347.2 320.5 360.5C320.5 373.8 309.8 384.5 296.5 384.5H216.5C203.2 384.5 192.5 373.8 192.5 360.5C192.5 347.2 203.2 336.5 216.5 336.5ZM256.5 128.5C264.987 128.5 273.126 131.871 279.127 137.873C285.129 143.874 288.5 152.013 288.5 160.5C288.5 168.987 285.129 177.126 279.127 183.127C273.126 189.129 264.987 192.5 256.5 192.5C248.013 192.5 239.874 189.129 233.873 183.127C227.871 177.126 224.5 168.987 224.5 160.5C224.5 152.013 227.871 143.874 233.873 137.873C239.874 131.871 248.013 128.5 256.5 128.5Z" fill="#47535F"/>
</g>
<defs>
<clipPath id="clip0_104_926">
<rect width="512" height="512" fill="white" transform="translate(0.5 0.5)"/>
</clipPath>
</defs>
</svg>
