<svg width="513" height="513" viewBox="0 0 513 513" fill="none" xmlns="http://www.w3.org/2000/svg">
<g clip-path="url(#clip0_104_946)">
<path d="M0.5 256.5C0.5 324.395 27.4714 389.51 75.4807 437.519C123.49 485.529 188.605 512.5 256.5 512.5C324.395 512.5 389.51 485.529 437.519 437.519C485.529 389.51 512.5 324.395 512.5 256.5C512.5 188.605 485.529 123.49 437.519 75.4807C389.51 27.4714 324.395 0.5 256.5 0.5C188.605 0.5 123.49 27.4714 75.4807 75.4807C27.4714 123.49 0.5 188.605 0.5 256.5ZM295.1 135.6L395 242.7C398.5 246.5 400.5 251.4 400.5 256.5C400.5 261.6 398.5 266.6 395 270.3L295.1 377.4C290.9 381.9 285 384.5 278.8 384.5C266.5 384.5 256.5 374.5 256.5 362.2V304.5H160.5C142.8 304.5 128.5 290.2 128.5 272.5V240.5C128.5 222.8 142.8 208.5 160.5 208.5H256.5V150.8C256.5 138.5 266.5 128.5 278.8 128.5C285 128.5 290.9 131.1 295.1 135.6Z" fill="#47535F"/>
</g>
<defs>
<clipPath id="clip0_104_946">
<rect width="512" height="512" fill="white" transform="translate(0.5 0.5)"/>
</clipPath>
</defs>
</svg>
