<svg width="513" height="513" viewBox="0 0 513 513" fill="none" xmlns="http://www.w3.org/2000/svg">
<g clip-path="url(#clip0_104_932)">
<path d="M418.9 158.4C454.2 150.1 480.5 118.4 480.5 80.5C480.5 36.3 444.7 0.5 400.5 0.5C357.1 0.5 321.8 35 320.5 78L136.7 151.6C122.2 137.3 102.4 128.5 80.5 128.5C36.3 128.5 0.5 164.3 0.5 208.5C0.5 252.7 36.3 288.5 80.5 288.5C92.7 288.5 104.3 285.8 114.6 280.9L260.2 408.3C257.8 415.9 256.5 424.1 256.5 432.5C256.5 476.7 292.3 512.5 336.5 512.5C380.7 512.5 416.5 476.7 416.5 432.5C416.5 404.8 402.5 380.4 381.1 366.1L418.9 158.4ZM156.8 232.7C159 225.8 160.3 218.5 160.5 211L344.3 137.5C347.9 141 351.7 144.2 355.9 147L318.1 354.6C312.6 355.9 307.3 357.7 302.3 360.1L156.8 232.7Z" fill="#47535F"/>
</g>
<defs>
<clipPath id="clip0_104_932">
<rect width="512" height="512" fill="white" transform="translate(0.5 0.5)"/>
</clipPath>
</defs>
</svg>
