<svg width="513" height="513" viewBox="0 0 513 513" fill="none" xmlns="http://www.w3.org/2000/svg">
<g clip-path="url(#clip0_104_928)">
<path d="M512.5 256.5C512.5 188.605 485.529 123.49 437.519 75.4807C389.51 27.4714 324.395 0.5 256.5 0.5C188.605 0.5 123.49 27.4714 75.4807 75.4807C27.4714 123.49 0.5 188.605 0.5 256.5C0.5 324.395 27.4714 389.51 75.4807 437.519C123.49 485.529 188.605 512.5 256.5 512.5C324.395 512.5 389.51 485.529 437.519 437.519C485.529 389.51 512.5 324.395 512.5 256.5ZM217.9 377.4L118 270.3C114.5 266.5 112.5 261.6 112.5 256.5C112.5 251.4 114.5 246.4 118 242.7L217.9 135.6C222.1 131.1 228 128.5 234.2 128.5C246.5 128.5 256.5 138.5 256.5 150.8V208.5H352.5C370.2 208.5 384.5 222.8 384.5 240.5V272.5C384.5 290.2 370.2 304.5 352.5 304.5H256.5V362.2C256.5 374.5 246.5 384.5 234.2 384.5C228 384.5 222.1 381.9 217.9 377.4Z" fill="#47535F"/>
</g>
<defs>
<clipPath id="clip0_104_928">
<rect width="512" height="512" fill="white" transform="translate(0.5 0.5)"/>
</clipPath>
</defs>
</svg>
