<svg width="513" height="513" viewBox="0 0 513 513" fill="none" xmlns="http://www.w3.org/2000/svg">
<g clip-path="url(#clip0_104_918)">
<path d="M256.5 0.5C188.605 0.5 123.49 27.4714 75.4807 75.4807C27.4714 123.49 0.5 188.605 0.5 256.5C0.5 324.395 27.4714 389.51 75.4807 437.519C123.49 485.529 188.605 512.5 256.5 512.5C324.395 512.5 389.51 485.529 437.519 437.519C485.529 389.51 512.5 324.395 512.5 256.5C512.5 188.605 485.529 123.49 437.519 75.4807C389.51 27.4714 324.395 0.5 256.5 0.5ZM377.4 295.1L270.3 395C266.5 398.5 261.6 400.5 256.5 400.5C251.4 400.5 246.4 398.5 242.7 395L135.6 295.1C131.1 290.9 128.5 285 128.5 278.8C128.5 266.5 138.5 256.5 150.8 256.5H208.5V160.5C208.5 142.8 222.8 128.5 240.5 128.5H272.5C290.2 128.5 304.5 142.8 304.5 160.5V256.5H362.2C374.5 256.5 384.5 266.5 384.5 278.8C384.5 285 381.9 290.9 377.4 295.1Z" fill="#47535F"/>
</g>
<defs>
<clipPath id="clip0_104_918">
<rect width="512" height="512" fill="white" transform="translate(0.5 0.5)"/>
</clipPath>
</defs>
</svg>
