<svg width="641" height="513" viewBox="0 0 641 513" fill="none" xmlns="http://www.w3.org/2000/svg">
<g clip-path="url(#clip0_104_956)">
<path d="M480.5 48.5C480.5 22 459 0.5 432.5 0.5H336.5C310 0.5 288.5 22 288.5 48.5V96.5H224.5V24.5C224.5 11.2 213.8 0.5 200.5 0.5C187.2 0.5 176.5 11.2 176.5 24.5V96.5H112.5V24.5C112.5 11.2 101.8 0.5 88.5 0.5C75.2 0.5 64.5 11.2 64.5 24.5V96.5H48.5C22 96.5 0.5 118 0.5 144.5V240.5V464.5C0.5 491 22 512.5 48.5 512.5H304.5H336.5H432.5H592.5C619 512.5 640.5 491 640.5 464.5V240.5C640.5 214 619 192.5 592.5 192.5H480.5V48.5ZM576.5 368.5V400.5C576.5 409.3 569.3 416.5 560.5 416.5H528.5C519.7 416.5 512.5 409.3 512.5 400.5V368.5C512.5 359.7 519.7 352.5 528.5 352.5H560.5C569.3 352.5 576.5 359.7 576.5 368.5ZM240.5 416.5H208.5C199.7 416.5 192.5 409.3 192.5 400.5V368.5C192.5 359.7 199.7 352.5 208.5 352.5H240.5C249.3 352.5 256.5 359.7 256.5 368.5V400.5C256.5 409.3 249.3 416.5 240.5 416.5ZM128.5 400.5C128.5 409.3 121.3 416.5 112.5 416.5H80.5C71.7 416.5 64.5 409.3 64.5 400.5V368.5C64.5 359.7 71.7 352.5 80.5 352.5H112.5C121.3 352.5 128.5 359.7 128.5 368.5V400.5ZM560.5 256.5C569.3 256.5 576.5 263.7 576.5 272.5V304.5C576.5 313.3 569.3 320.5 560.5 320.5H528.5C519.7 320.5 512.5 313.3 512.5 304.5V272.5C512.5 263.7 519.7 256.5 528.5 256.5H560.5ZM256.5 176.5V208.5C256.5 217.3 249.3 224.5 240.5 224.5H208.5C199.7 224.5 192.5 217.3 192.5 208.5V176.5C192.5 167.7 199.7 160.5 208.5 160.5H240.5C249.3 160.5 256.5 167.7 256.5 176.5ZM112.5 160.5C121.3 160.5 128.5 167.7 128.5 176.5V208.5C128.5 217.3 121.3 224.5 112.5 224.5H80.5C71.7 224.5 64.5 217.3 64.5 208.5V176.5C64.5 167.7 71.7 160.5 80.5 160.5H112.5ZM256.5 304.5C256.5 313.3 249.3 320.5 240.5 320.5H208.5C199.7 320.5 192.5 313.3 192.5 304.5V272.5C192.5 263.7 199.7 256.5 208.5 256.5H240.5C249.3 256.5 256.5 263.7 256.5 272.5V304.5ZM112.5 320.5H80.5C71.7 320.5 64.5 313.3 64.5 304.5V272.5C64.5 263.7 71.7 256.5 80.5 256.5H112.5C121.3 256.5 128.5 263.7 128.5 272.5V304.5C128.5 313.3 121.3 320.5 112.5 320.5ZM416.5 272.5V304.5C416.5 313.3 409.3 320.5 400.5 320.5H368.5C359.7 320.5 352.5 313.3 352.5 304.5V272.5C352.5 263.7 359.7 256.5 368.5 256.5H400.5C409.3 256.5 416.5 263.7 416.5 272.5ZM400.5 64.5C409.3 64.5 416.5 71.7 416.5 80.5V112.5C416.5 121.3 409.3 128.5 400.5 128.5H368.5C359.7 128.5 352.5 121.3 352.5 112.5V80.5C352.5 71.7 359.7 64.5 368.5 64.5H400.5ZM416.5 176.5V208.5C416.5 217.3 409.3 224.5 400.5 224.5H368.5C359.7 224.5 352.5 217.3 352.5 208.5V176.5C352.5 167.7 359.7 160.5 368.5 160.5H400.5C409.3 160.5 416.5 167.7 416.5 176.5Z" fill="#47535F"/>
</g>
<defs>
<clipPath id="clip0_104_956">
<rect width="640" height="512" fill="white" transform="translate(0.5 0.5)"/>
</clipPath>
</defs>
</svg>
