<svg width="513" height="513" viewBox="0 0 513 513" fill="none" xmlns="http://www.w3.org/2000/svg">
<g clip-path="url(#clip0_104_958)">
<path d="M448.5 32.5H362.4L361.4 33.5L234.4 160.5H326.5L327.5 159.5L454.3 32.8C452.4 32.6 450.5 32.5 448.5 32.5ZM512.5 160.5V96.5C512.5 81.4 507.2 67.4 498.5 56.5L394.5 160.5H512.5ZM294.6 32.5H202.4L201.4 33.5L74.4 160.5H166.5L167.5 159.5L294.5 32.5H294.6ZM64.5 32.5C29.2 32.5 0.5 61.2 0.5 96.5V160.5H6.6L7.6 159.5L134.6 32.5H64.5ZM512.5 192.5H0.5V416.5C0.5 451.8 29.2 480.5 64.5 480.5H448.5C483.8 480.5 512.5 451.8 512.5 416.5V192.5Z" fill="#47535F"/>
</g>
<defs>
<clipPath id="clip0_104_958">
<rect width="512" height="512" fill="white" transform="translate(0.5 0.5)"/>
</clipPath>
</defs>
</svg>
