<svg width="385" height="513" viewBox="0 0 385 513" fill="none" xmlns="http://www.w3.org/2000/svg">
<g clip-path="url(#clip0_104_966)">
<path d="M192.5 0.5C150.7 0.5 115.1 27.2 102 64.5H64.5C29.2 64.5 0.5 93.2 0.5 128.5V448.5C0.5 483.8 29.2 512.5 64.5 512.5H320.5C355.8 512.5 384.5 483.8 384.5 448.5V128.5C384.5 93.2 355.8 64.5 320.5 64.5H283C269.9 27.2 234.3 0.5 192.5 0.5ZM192.5 64.5C200.987 64.5 209.126 67.8714 215.127 73.8726C221.129 79.8737 224.5 88.0131 224.5 96.5C224.5 104.987 221.129 113.126 215.127 119.127C209.126 125.129 200.987 128.5 192.5 128.5C184.013 128.5 175.874 125.129 169.873 119.127C163.871 113.126 160.5 104.987 160.5 96.5C160.5 88.0131 163.871 79.8737 169.873 73.8726C175.874 67.8714 184.013 64.5 192.5 64.5ZM106.3 229.8C114.2 207.5 135.4 192.5 159.1 192.5H217.4C252.3 192.5 280.5 220.8 280.5 255.6C280.5 278.2 268.4 299.1 248.8 310.4L216.5 328.9C216.3 341.9 205.6 352.5 192.5 352.5C179.2 352.5 168.5 341.8 168.5 328.5V315C168.5 306.4 173.1 298.5 180.6 294.2L224.9 268.8C229.6 266.1 232.5 261.1 232.5 255.7C232.5 247.3 225.7 240.6 217.4 240.6H159.1C155.7 240.6 152.7 242.7 151.6 245.9L151.2 247.1C146.8 259.6 133 266.1 120.6 261.7C108.2 257.3 101.6 243.5 106 231.1L106.4 229.9L106.3 229.8ZM160.5 416.5C160.5 408.013 163.871 399.874 169.873 393.873C175.874 387.871 184.013 384.5 192.5 384.5C200.987 384.5 209.126 387.871 215.127 393.873C221.129 399.874 224.5 408.013 224.5 416.5C224.5 424.987 221.129 433.126 215.127 439.127C209.126 445.129 200.987 448.5 192.5 448.5C184.013 448.5 175.874 445.129 169.873 439.127C163.871 433.126 160.5 424.987 160.5 416.5Z" fill="#47535F"/>
</g>
<defs>
<clipPath id="clip0_104_966">
<rect width="384" height="512" fill="white" transform="translate(0.5 0.5)"/>
</clipPath>
</defs>
</svg>
