<svg width="385" height="513" viewBox="0 0 385 513" fill="none" xmlns="http://www.w3.org/2000/svg">
<g clip-path="url(#clip0_104_968)">
<path d="M192.5 0.5C150.7 0.5 115.1 27.2 102 64.5H64.5C29.2 64.5 0.5 93.2 0.5 128.5V448.5C0.5 483.8 29.2 512.5 64.5 512.5H320.5C355.8 512.5 384.5 483.8 384.5 448.5V128.5C384.5 93.2 355.8 64.5 320.5 64.5H283C269.9 27.2 234.3 0.5 192.5 0.5ZM192.5 64.5C200.987 64.5 209.126 67.8714 215.127 73.8726C221.129 79.8737 224.5 88.0131 224.5 96.5C224.5 104.987 221.129 113.126 215.127 119.127C209.126 125.129 200.987 128.5 192.5 128.5C184.013 128.5 175.874 125.129 169.873 119.127C163.871 113.126 160.5 104.987 160.5 96.5C160.5 88.0131 163.871 79.8737 169.873 73.8726C175.874 67.8714 184.013 64.5 192.5 64.5ZM128.5 256.5C128.5 239.526 135.243 223.247 147.245 211.245C159.247 199.243 175.526 192.5 192.5 192.5C209.474 192.5 225.753 199.243 237.755 211.245C249.757 223.247 256.5 239.526 256.5 256.5C256.5 273.474 249.757 289.752 237.755 301.755C225.753 313.757 209.474 320.5 192.5 320.5C175.526 320.5 159.247 313.757 147.245 301.755C135.243 289.752 128.5 273.474 128.5 256.5ZM80.5 432.5C80.5 388.3 116.3 352.5 160.5 352.5H224.5C268.7 352.5 304.5 388.3 304.5 432.5C304.5 441.3 297.3 448.5 288.5 448.5H96.5C87.7 448.5 80.5 441.3 80.5 432.5Z" fill="#47535F"/>
</g>
<defs>
<clipPath id="clip0_104_968">
<rect width="384" height="512" fill="white" transform="translate(0.5 0.5)"/>
</clipPath>
</defs>
</svg>
