<svg width="385" height="513" viewBox="0 0 385 513" fill="none" xmlns="http://www.w3.org/2000/svg">
<g clip-path="url(#clip0_104_964)">
<path d="M192.5 0.5C150.7 0.5 115.1 27.2 102 64.5H64.5C29.2 64.5 0.5 93.2 0.5 128.5V448.5C0.5 483.8 29.2 512.5 64.5 512.5H320.5C355.8 512.5 384.5 483.8 384.5 448.5V128.5C384.5 93.2 355.8 64.5 320.5 64.5H283C269.9 27.2 234.3 0.5 192.5 0.5ZM192.5 64.5C200.987 64.5 209.126 67.8714 215.127 73.8726C221.129 79.8737 224.5 88.0131 224.5 96.5C224.5 104.987 221.129 113.126 215.127 119.127C209.126 125.129 200.987 128.5 192.5 128.5C184.013 128.5 175.874 125.129 169.873 119.127C163.871 113.126 160.5 104.987 160.5 96.5C160.5 88.0131 163.871 79.8737 169.873 73.8726C175.874 67.8714 184.013 64.5 192.5 64.5ZM72.5 272.5C72.5 266.135 75.0286 260.03 79.5294 255.529C84.0303 251.029 90.1348 248.5 96.5 248.5C102.865 248.5 108.97 251.029 113.471 255.529C117.971 260.03 120.5 266.135 120.5 272.5C120.5 278.865 117.971 284.97 113.471 289.471C108.97 293.971 102.865 296.5 96.5 296.5C90.1348 296.5 84.0303 293.971 79.5294 289.471C75.0286 284.97 72.5 278.865 72.5 272.5ZM176.5 256.5H304.5C313.3 256.5 320.5 263.7 320.5 272.5C320.5 281.3 313.3 288.5 304.5 288.5H176.5C167.7 288.5 160.5 281.3 160.5 272.5C160.5 263.7 167.7 256.5 176.5 256.5ZM72.5 368.5C72.5 362.135 75.0286 356.03 79.5294 351.529C84.0303 347.029 90.1348 344.5 96.5 344.5C102.865 344.5 108.97 347.029 113.471 351.529C117.971 356.03 120.5 362.135 120.5 368.5C120.5 374.865 117.971 380.97 113.471 385.471C108.97 389.971 102.865 392.5 96.5 392.5C90.1348 392.5 84.0303 389.971 79.5294 385.471C75.0286 380.97 72.5 374.865 72.5 368.5ZM160.5 368.5C160.5 359.7 167.7 352.5 176.5 352.5H304.5C313.3 352.5 320.5 359.7 320.5 368.5C320.5 377.3 313.3 384.5 304.5 384.5H176.5C167.7 384.5 160.5 377.3 160.5 368.5Z" fill="#47535F"/>
</g>
<defs>
<clipPath id="clip0_104_964">
<rect width="384" height="512" fill="white" transform="translate(0.5 0.5)"/>
</clipPath>
</defs>
</svg>
