<svg width="385" height="513" viewBox="0 0 385 513" fill="none" xmlns="http://www.w3.org/2000/svg">
<g clip-path="url(#clip0_104_962)">
<path d="M192.5 0.5C150.7 0.5 115.1 27.2 102 64.5H64.5C29.2 64.5 0.5 93.2 0.5 128.5V448.5C0.5 483.8 29.2 512.5 64.5 512.5H320.5C355.8 512.5 384.5 483.8 384.5 448.5V128.5C384.5 93.2 355.8 64.5 320.5 64.5H283C269.9 27.2 234.3 0.5 192.5 0.5ZM192.5 64.5C200.987 64.5 209.126 67.8714 215.127 73.8726C221.129 79.8737 224.5 88.0131 224.5 96.5C224.5 104.987 221.129 113.126 215.127 119.127C209.126 125.129 200.987 128.5 192.5 128.5C184.013 128.5 175.874 125.129 169.873 119.127C163.871 113.126 160.5 104.987 160.5 96.5C160.5 88.0131 163.871 79.8737 169.873 73.8726C175.874 67.8714 184.013 64.5 192.5 64.5ZM305.5 273.5L177.5 401.5C168.1 410.9 152.9 410.9 143.6 401.5L79.5 337.5C70.1 328.1 70.1 312.9 79.5 303.6C88.9 294.3 104.1 294.2 113.4 303.6L160.4 350.6L271.5 239.5C280.9 230.1 296.1 230.1 305.4 239.5C314.7 248.9 314.8 264.1 305.4 273.4L305.5 273.5Z" fill="#47535F"/>
</g>
<defs>
<clipPath id="clip0_104_962">
<rect width="384" height="512" fill="white" transform="translate(0.5 0.5)"/>
</clipPath>
</defs>
</svg>
