<svg width="513" height="513" viewBox="0 0 513 513" fill="none" xmlns="http://www.w3.org/2000/svg">
<g clip-path="url(#clip0_104_972)">
<path d="M75.5 75.5L41.5 41.5C26.4 26.4 0.5 37.1 0.5 58.4V168.5C0.5 181.8 11.2 192.5 24.5 192.5H134.6C156 192.5 166.7 166.6 151.6 151.5L120.8 120.7C155.5 86 203.5 64.5 256.5 64.5C362.5 64.5 448.5 150.5 448.5 256.5C448.5 362.5 362.5 448.5 256.5 448.5C215.7 448.5 177.9 435.8 146.8 414.1C132.3 404 112.4 407.5 102.2 422C92 436.5 95.6 456.4 110.1 466.6C151.7 495.5 202.2 512.5 256.5 512.5C397.9 512.5 512.5 397.9 512.5 256.5C512.5 115.1 397.9 0.5 256.5 0.5C185.8 0.5 121.8 29.2 75.5 75.5ZM256.5 128.5C243.2 128.5 232.5 139.2 232.5 152.5V256.5C232.5 262.9 235 269 239.5 273.5L311.5 345.5C320.9 354.9 336.1 354.9 345.4 345.5C354.7 336.1 354.8 320.9 345.4 311.6L280.4 246.6V152.5C280.4 139.2 269.7 128.5 256.4 128.5H256.5Z" fill="#47535F"/>
</g>
<defs>
<clipPath id="clip0_104_972">
<rect width="512" height="512" fill="white" transform="translate(0.5 0.5)"/>
</clipPath>
</defs>
</svg>
