<svg width="513" height="513" viewBox="0 0 513 513" fill="none" xmlns="http://www.w3.org/2000/svg">
<g clip-path="url(#clip0_104_974)">
<path d="M288.5 448.5H64.5V224.5H128.5V160.5H64.5C29.2 160.5 0.5 189.2 0.5 224.5V448.5C0.5 483.8 29.2 512.5 64.5 512.5H288.5C323.8 512.5 352.5 483.8 352.5 448.5V384.5H288.5V448.5ZM224.5 352.5H448.5C483.8 352.5 512.5 323.8 512.5 288.5V64.5C512.5 29.2 483.8 0.5 448.5 0.5H224.5C189.2 0.5 160.5 29.2 160.5 64.5V288.5C160.5 323.8 189.2 352.5 224.5 352.5Z" fill="#47535F"/>
</g>
<defs>
<clipPath id="clip0_104_974">
<rect width="512" height="512" fill="white" transform="translate(0.5 0.5)"/>
</clipPath>
</defs>
</svg>
