<svg width="577" height="513" viewBox="0 0 577 513" fill="none" xmlns="http://www.w3.org/2000/svg">
<g clip-path="url(#clip0_104_976)">
<path d="M0.5 96.5C0.5 61.2 29.2 32.5 64.5 32.5H512.5C547.8 32.5 576.5 61.2 576.5 96.5V416.5C576.5 451.8 547.8 480.5 512.5 480.5H64.5C29.2 480.5 0.5 451.8 0.5 416.5V96.5ZM200.5 208.5C214.7 208.5 227.5 214.6 236.3 224.5C245.1 234.4 260.3 235.2 270.2 226.4C280.1 217.6 280.9 202.4 272.1 192.5C254.6 172.9 229 160.5 200.6 160.5C147.6 160.5 104.6 203.5 104.6 256.5C104.6 309.5 147.6 352.5 200.6 352.5C229 352.5 254.6 340.1 272.1 320.5C280.9 310.6 280.1 295.5 270.2 286.6C260.3 277.7 245.2 278.6 236.3 288.5C227.5 298.4 214.7 304.5 200.5 304.5C174 304.5 152.5 283 152.5 256.5C152.5 230 174 208.5 200.5 208.5ZM344.5 256.5C344.5 230 366 208.5 392.5 208.5C406.7 208.5 419.5 214.6 428.3 224.5C437.1 234.4 452.3 235.2 462.2 226.4C472.1 217.6 472.9 202.4 464.1 192.5C446.6 172.9 421 160.5 392.6 160.5C339.6 160.5 296.6 203.5 296.6 256.5C296.6 309.5 339.6 352.5 392.6 352.5C421 352.5 446.6 340.1 464.1 320.5C472.9 310.6 472.1 295.5 462.2 286.6C452.3 277.7 437.2 278.6 428.3 288.5C419.5 298.4 406.7 304.5 392.5 304.5C366 304.5 344.5 283 344.5 256.5Z" fill="#47535F"/>
</g>
<defs>
<clipPath id="clip0_104_976">
<rect width="576" height="512" fill="white" transform="translate(0.5 0.5)"/>
</clipPath>
</defs>
</svg>
