<svg width="641" height="513" viewBox="0 0 641 513" fill="none" xmlns="http://www.w3.org/2000/svg">
<g clip-path="url(#clip0_104_978)">
<path d="M0.5 336.5C0.5 416 65 480.5 144.5 480.5H512.5C583.2 480.5 640.5 423.2 640.5 352.5C640.5 290.6 596.5 238.9 538.1 227.1C542.2 216.4 544.5 204.7 544.5 192.5C544.5 139.5 501.5 96.5 448.5 96.5C428.8 96.5 410.4 102.5 395.2 112.7C367.5 64.7 315.8 32.5 256.5 32.5C168.1 32.5 96.5 104.1 96.5 192.5C96.5 195.2 96.6 197.9 96.7 200.6C40.7 220.3 0.5 273.7 0.5 336.5Z" fill="#47535F"/>
</g>
<defs>
<clipPath id="clip0_104_978">
<rect width="640" height="512" fill="white" transform="translate(0.5 0.5)"/>
</clipPath>
</defs>
</svg>
