<svg width="641" height="513" viewBox="0 0 641 513" fill="none" xmlns="http://www.w3.org/2000/svg">
<g clip-path="url(#clip0_104_980)">
<path d="M144.5 480.5C65 480.5 0.5 416 0.5 336.5C0.5 273.7 40.7 220.3 96.7 200.6C96.6 197.9 96.5 195.2 96.5 192.5C96.5 104.1 168.1 32.5 256.5 32.5C315.8 32.5 367.5 64.7 395.2 112.7C410.4 102.5 428.8 96.5 448.5 96.5C501.5 96.5 544.5 139.5 544.5 192.5C544.5 204.7 542.2 216.3 538.1 227.1C596.5 238.9 640.5 290.6 640.5 352.5C640.5 423.2 583.2 480.5 512.5 480.5H144.5ZM223.5 313.5L303.5 393.5C312.9 402.9 328.1 402.9 337.4 393.5L417.4 313.5C426.8 304.1 426.8 288.9 417.4 279.6C408 270.3 392.8 270.2 383.5 279.6L344.5 318.6V184.5C344.5 171.2 333.8 160.5 320.5 160.5C307.2 160.5 296.5 171.2 296.5 184.5V318.6L257.5 279.6C248.1 270.2 232.9 270.2 223.6 279.6C214.3 289 214.2 304.2 223.6 313.5H223.5Z" fill="#47535F"/>
</g>
<defs>
<clipPath id="clip0_104_980">
<rect width="640" height="512" fill="white" transform="translate(0.5 0.5)"/>
</clipPath>
</defs>
</svg>
