<svg width="513" height="513" viewBox="0 0 513 513" fill="none" xmlns="http://www.w3.org/2000/svg">
<g clip-path="url(#clip0_104_994)">
<path d="M96.5001 320.5C43.5001 320.5 0.500145 277.5 0.500145 224.5C0.500145 182 28.1001 145.9 66.4001 133.3C65.2001 126.6 64.5001 119.6 64.5001 112.5C64.5001 50.6 114.6 0.5 176.5 0.5C219.6 0.5 257 24.8 275.7 60.5C290.4 43.4 312.2 32.5 336.5 32.5C380.7 32.5 416.5 68.3 416.5 112.5C416.5 118 415.9 123.3 414.9 128.5C415.4 128.5 416 128.5 416.5 128.5C469.5 128.5 512.5 171.5 512.5 224.5C512.5 277.5 469.5 320.5 416.5 320.5H96.5001ZM82.0001 354.4C94.2001 359.6 99.8001 373.7 94.6001 385.9L46.6001 497.9C41.4001 510.1 27.3001 515.7 15.1001 510.5C2.90015 505.3 -2.79985 491.2 2.40015 479L50.4001 367C55.6001 354.8 69.7001 349.2 81.9001 354.4H82.0001ZM202 354.4C214.2 359.6 219.8 373.7 214.6 385.9L166.6 497.9C161.4 510.1 147.3 515.7 135.1 510.5C122.9 505.3 117.3 491.2 122.5 479L170.5 367C175.7 354.8 189.8 349.2 202 354.4ZM446.6 385.9L398.6 497.9C393.4 510.1 379.3 515.7 367.1 510.5C354.9 505.3 349.3 491.2 354.5 479L402.5 367C407.7 354.8 421.8 349.2 434 354.4C446.2 359.6 451.8 373.7 446.6 385.9ZM314 354.4C326.2 359.6 331.8 373.7 326.6 385.9L278.6 497.9C273.4 510.1 259.3 515.7 247.1 510.5C234.9 505.3 229.3 491.2 234.5 479L282.5 367C287.7 354.8 301.8 349.2 314 354.4Z" fill="#47535F"/>
</g>
<defs>
<clipPath id="clip0_104_994">
<rect width="512" height="512" fill="white" transform="translate(0.5 0.5)"/>
</clipPath>
</defs>
</svg>
