<svg width="513" height="513" viewBox="0 0 513 513" fill="none" xmlns="http://www.w3.org/2000/svg">
<g clip-path="url(#clip0_104_986)">
<path d="M0.500001 224.5C0.500001 277.5 43.5 320.5 96.5 320.5H141.2C150.7 297 173.7 280.5 200.5 280.5C202.5 280.5 204.4 280.6 206.3 280.8C218.1 266 236.2 256.5 256.5 256.5C276.8 256.5 294.9 266 306.7 280.8C308.6 280.6 310.6 280.5 312.5 280.5C339.4 280.5 362.4 297 371.8 320.5H416.5C469.5 320.5 512.5 277.5 512.5 224.5C512.5 171.5 469.5 128.5 416.5 128.5C416 128.5 415.4 128.5 414.9 128.5C416 123.3 416.5 118 416.5 112.5C416.5 68.3 380.7 32.5 336.5 32.5C312.2 32.5 290.4 43.4 275.7 60.5C257 24.8 219.6 0.5 176.5 0.5C114.6 0.5 64.5 50.6 64.5 112.5C64.5 119.6 65.2 126.6 66.4 133.3C28.1 145.9 0.500001 182 0.500001 224.5ZM288.5 320.5C288.5 302.8 274.2 288.5 256.5 288.5C238.8 288.5 224.5 302.8 224.5 320.5C224.5 321.5 224.6 322.6 224.6 323.6C223.9 322.8 223.2 322 222.5 321.3C210 308.8 189.7 308.8 177.2 321.3C164.7 333.8 164.7 354.1 177.2 366.6C177.9 367.3 178.7 368 179.5 368.7C178.5 368.6 177.4 368.6 176.4 368.6C158.7 368.6 144.4 382.9 144.4 400.6C144.4 418.3 158.7 432.6 176.4 432.6C177.4 432.6 178.5 432.5 179.5 432.5C178.7 433.2 177.9 433.8 177.2 434.6C164.7 447.1 164.7 467.4 177.2 479.9C189.7 492.4 210 492.4 222.5 479.9C223.2 479.2 223.9 478.4 224.6 477.6C224.5 478.6 224.5 479.7 224.5 480.7C224.5 498.4 238.8 512.7 256.5 512.7C274.2 512.7 288.5 498.4 288.5 480.7C288.5 479.7 288.4 478.6 288.4 477.6C289.1 478.4 289.7 479.2 290.5 479.9C303 492.4 323.3 492.4 335.8 479.9C348.3 467.4 348.3 447.1 335.8 434.6C335.1 433.9 334.3 433.2 333.5 432.5C334.5 432.6 335.6 432.6 336.6 432.6C354.3 432.6 368.6 418.3 368.6 400.6C368.6 382.9 354.3 368.6 336.6 368.6C335.6 368.6 334.5 368.7 333.5 368.7C334.3 368 335.1 367.4 335.8 366.6C348.3 354.1 348.3 333.8 335.8 321.3C323.3 308.8 303 308.8 290.5 321.3C289.8 322 289.1 322.8 288.4 323.6C288.5 322.6 288.5 321.5 288.5 320.5ZM48.5 448.5C54.8035 448.5 61.0452 447.258 66.8688 444.846C72.6924 442.434 77.9839 438.898 82.4411 434.441C86.8983 429.984 90.434 424.692 92.8462 418.869C95.2584 413.045 96.5 406.803 96.5 400.5C96.5 394.197 95.2584 387.955 92.8462 382.131C90.434 376.308 86.8983 371.016 82.4411 366.559C77.9839 362.102 72.6924 358.566 66.8688 356.154C61.0452 353.742 54.8035 352.5 48.5 352.5C42.1965 352.5 35.9548 353.742 30.1312 356.154C24.3076 358.566 19.0161 362.102 14.5589 366.559C10.1017 371.016 6.56601 376.308 4.15378 382.131C1.74156 387.955 0.5 394.197 0.5 400.5C0.5 406.803 1.74156 413.045 4.15378 418.869C6.56601 424.692 10.1017 429.984 14.5589 434.441C19.0161 438.898 24.3076 442.434 30.1312 444.846C35.9548 447.258 42.1965 448.5 48.5 448.5ZM464.5 448.5C470.803 448.5 477.045 447.258 482.869 444.846C488.692 442.434 493.984 438.898 498.441 434.441C502.898 429.984 506.434 424.692 508.846 418.869C511.258 413.045 512.5 406.803 512.5 400.5C512.5 394.197 511.258 387.955 508.846 382.131C506.434 376.308 502.898 371.016 498.441 366.559C493.984 362.102 488.692 358.566 482.869 356.154C477.045 353.742 470.803 352.5 464.5 352.5C458.197 352.5 451.955 353.742 446.131 356.154C440.308 358.566 435.016 362.102 430.559 366.559C426.102 371.016 422.566 376.308 420.154 382.131C417.742 387.955 416.5 394.197 416.5 400.5C416.5 406.803 417.742 413.045 420.154 418.869C422.566 424.692 426.102 429.984 430.559 434.441C435.016 438.898 440.308 442.434 446.131 444.846C451.955 447.258 458.197 448.5 464.5 448.5Z" fill="#47535F"/>
</g>
<defs>
<clipPath id="clip0_104_986">
<rect width="512" height="512" fill="white" transform="translate(0.5 0.5)"/>
</clipPath>
</defs>
</svg>
