<svg width="577" height="513" viewBox="0 0 577 513" fill="none" xmlns="http://www.w3.org/2000/svg">
<g clip-path="url(#clip0_104_990)">
<path d="M481.7 0.499902C417.5 0.499902 364 46.9999 354.2 108.1C389.6 125.7 414.4 161.4 416.3 203.2C439.5 214.2 458.3 232.9 469.4 255.9C473.4 256.3 477.5 256.5 481.7 256.5C516.6 256.5 548.4 242.7 571.6 220.4C576.7 215.5 578 207.9 574.8 201.7C571.6 195.5 564.7 192 557.8 193.1C552.9 193.9 547.8 194.4 542.6 194.4C493.6 194.4 454.2 155.1 454.2 107C454.2 74.3999 472.2 45.8999 499.1 30.8999C505.2 27.4999 508.4 20.3999 506.9 13.4999C505.4 6.5999 499.6 1.4999 492.6 0.899902C489 0.599902 485.3 0.399902 481.7 0.399902V0.499902ZM368.4 384.4C412.6 384.4 448.4 348.6 448.4 304.4C448.4 265.1 420 232.3 382.6 225.7C383.8 220.1 384.5 214.4 384.5 208.5C384.5 164.3 348.7 128.5 304.5 128.5C287.5 128.5 271.7 133.8 258.7 142.9C241.8 115.1 211.3 96.4999 176.5 96.4999C123.5 96.4999 80.5 139.5 80.5 192.5V193.8C35.1 201.4 0.5 240.9 0.5 288.4C0.5 341.4 43.5 384.4 96.5 384.4H368.4ZM85.9 420.6C74.9 413.2 60 416.2 52.6 427.3L20.6 475.3C13.2 486.3 16.2 501.2 27.3 508.6C38.4 516 53.2 513 60.6 501.9L92.6 453.9C100 442.9 97 428 85.9 420.6ZM181.9 420.6C170.9 413.2 156 416.2 148.6 427.3L116.6 475.3C109.2 486.3 112.2 501.2 123.3 508.6C134.4 516 149.2 513 156.6 501.9L188.6 453.9C196 442.9 193 428 181.9 420.6ZM277.9 420.6C266.9 413.2 252 416.2 244.6 427.3L212.6 475.3C205.2 486.3 208.2 501.2 219.3 508.6C230.4 516 245.2 513 252.6 501.9L284.6 453.9C292 442.9 289 428 277.9 420.6ZM373.9 420.6C362.9 413.2 348 416.2 340.6 427.3L308.6 475.3C301.2 486.3 304.2 501.2 315.3 508.6C326.4 516 341.2 513 348.6 501.9L380.6 453.9C388 442.9 385 428 373.9 420.6Z" fill="#47535F"/>
</g>
<defs>
<clipPath id="clip0_104_990">
<rect width="576" height="512" fill="white" transform="translate(0.5 0.5)"/>
</clipPath>
</defs>
</svg>
