<svg width="513" height="513" viewBox="0 0 513 513" fill="none" xmlns="http://www.w3.org/2000/svg">
<g clip-path="url(#clip0_104_992)">
<path d="M96.5 320.5C43.5 320.5 0.5 277.5 0.5 224.5C0.5 182 28.1 145.9 66.4 133.3C65.2 126.6 64.5 119.6 64.5 112.5C64.5 50.6 114.6 0.5 176.5 0.5C219.6 0.5 257 24.8 275.7 60.5C290.4 43.4 312.2 32.5 336.5 32.5C380.7 32.5 416.5 68.3 416.5 112.5C416.5 118 415.9 123.3 414.9 128.5C415.4 128.5 416 128.5 416.5 128.5C469.5 128.5 512.5 171.5 512.5 224.5C512.5 277.5 469.5 320.5 416.5 320.5H96.5ZM89.7 372.5C91 370 93.6 368.5 96.5 368.5C99.4 368.5 101.9 370 103.3 372.5L138.4 437.1C142.5 444.6 144.6 452.9 144.6 461.4V464.4C144.6 490.9 123.1 512.4 96.6 512.4C70.1 512.4 48.6 490.9 48.6 464.4V461.4C48.6 452.9 50.7 444.5 54.8 437.1L89.7 372.5ZM249.7 372.5C251 370 253.6 368.5 256.5 368.5C259.4 368.5 261.9 370 263.3 372.5L298.4 437.1C302.5 444.6 304.6 452.9 304.6 461.4V464.4C304.6 490.9 283.1 512.4 256.6 512.4C230.1 512.4 208.6 490.9 208.6 464.4V461.4C208.6 452.9 210.7 444.5 214.8 437.1L249.7 372.5ZM374.6 437.1L409.7 372.5C411 370 413.6 368.5 416.5 368.5C419.4 368.5 421.9 370 423.3 372.5L458.4 437.1C462.5 444.6 464.6 452.9 464.6 461.4V464.4C464.6 490.9 443.1 512.4 416.6 512.4C390.1 512.4 368.6 490.9 368.6 464.4V461.4C368.6 452.9 370.7 444.5 374.8 437.1H374.6Z" fill="#47535F"/>
</g>
<defs>
<clipPath id="clip0_104_992">
<rect width="512" height="512" fill="white" transform="translate(0.5 0.5)"/>
</clipPath>
</defs>
</svg>
