<svg width="641" height="513" viewBox="0 0 641 513" fill="none" xmlns="http://www.w3.org/2000/svg">
<g clip-path="url(#clip0_104_1000)">
<path d="M294.7 1.70003C299.8 3.80003 303.4 8.40003 304.3 13.8L314.7 76.2C291.4 87 271.8 104.6 258.7 126.5C244.1 117.5 226.9 112.4 208.5 112.4C155.5 112.4 112.5 155.4 112.5 208.4C112.5 243.9 131.8 275 160.5 291.6C161.3 323.4 173.7 352.3 193.6 374.3L137.6 413.5C133.1 416.6 127.3 417.3 122.2 415.1C117.1 412.9 113.5 408.4 112.6 403L98.6 318.4L13.9 304.3C8.50003 303.4 3.90003 299.8 1.80003 294.7C-0.299971 289.6 0.300029 283.8 3.40003 279.3L53 208.5L3.40003 137.7C0.200029 133.2 -0.399971 127.4 1.80003 122.3C4.00003 117.2 8.50003 113.6 13.9 112.7L98.6 98.6L112.7 13.9C113.6 8.50003 117.2 3.90003 122.3 1.80003C127.4 -0.299971 133.2 0.300029 137.7 3.40003L208.5 53L279.3 3.40003C283.8 0.200029 289.6 -0.399971 294.7 1.80003V1.70003ZM208.5 144.5C222.3 144.5 235.2 148.9 245.6 156.4C244.4 160.5 243.4 164.7 242.6 169C204.7 183.6 175.4 215.6 164.8 255.4C152.3 243.6 144.5 227 144.5 208.5C144.5 173.2 173.2 144.5 208.5 144.5ZM277.9 420.5C288.9 427.9 291.9 442.8 284.6 453.8L252.6 501.8C245.2 512.8 230.3 515.8 219.3 508.5C208.3 501.2 205.3 486.2 212.6 475.2L244.6 427.2C252 416.2 266.9 413.2 277.9 420.5ZM373.9 420.5C384.9 427.9 387.9 442.8 380.6 453.8L348.6 501.8C341.2 512.8 326.3 515.8 315.3 508.5C304.3 501.2 301.3 486.2 308.6 475.2L340.6 427.2C348 416.2 362.9 413.2 373.9 420.5ZM469.9 420.5C480.9 427.9 483.9 442.8 476.6 453.8L444.6 501.8C437.2 512.8 422.3 515.8 411.3 508.5C400.3 501.2 397.3 486.2 404.6 475.2L436.6 427.2C444 416.2 458.9 413.2 469.9 420.5ZM565.9 420.5C576.9 427.9 579.9 442.8 572.6 453.8L540.6 501.8C533.2 512.8 518.3 515.8 507.3 508.5C496.3 501.2 493.3 486.2 500.6 475.2L532.6 427.2C540 416.2 554.9 413.2 565.9 420.5ZM640.4 304.4C640.4 348.6 604.6 384.4 560.4 384.4H288.5C235.5 384.4 192.5 341.4 192.5 288.4C192.5 240.8 227.1 201.4 272.5 193.8V192.5C272.5 139.5 315.5 96.5 368.5 96.5C403.4 96.5 433.9 115.1 450.7 142.9C463.7 133.8 479.5 128.5 496.5 128.5C540.7 128.5 576.5 164.3 576.5 208.5C576.5 214.4 575.9 220.2 574.6 225.7C612 232.4 640.4 265.1 640.4 304.4Z" fill="#47535F"/>
</g>
<defs>
<clipPath id="clip0_104_1000">
<rect width="640" height="512" fill="white" transform="translate(0.5 0.5)"/>
</clipPath>
</defs>
</svg>
