<svg width="641" height="513" viewBox="0 0 641 513" fill="none" xmlns="http://www.w3.org/2000/svg">
<g clip-path="url(#clip0_104_982)">
<path d="M144.5 480.5C65 480.5 0.5 416 0.5 336.5C0.5 273.7 40.7 220.3 96.7 200.6C96.6 197.9 96.5 195.2 96.5 192.5C96.5 104.1 168.1 32.5 256.5 32.5C315.8 32.5 367.5 64.7 395.2 112.7C410.4 102.5 428.8 96.5 448.5 96.5C501.5 96.5 544.5 139.5 544.5 192.5C544.5 204.7 542.2 216.3 538.1 227.1C596.5 238.9 640.5 290.6 640.5 352.5C640.5 423.2 583.2 480.5 512.5 480.5H144.5ZM223.5 263.5C214.1 272.9 214.1 288.1 223.5 297.4C232.9 306.7 248.1 306.8 257.4 297.4L296.4 258.4V392.5C296.4 405.8 307.1 416.5 320.4 416.5C333.7 416.5 344.4 405.8 344.4 392.5V258.4L383.4 297.4C392.8 306.8 408 306.8 417.3 297.4C426.6 288 426.7 272.8 417.3 263.5L337.3 183.5C327.9 174.1 312.7 174.1 303.4 183.5L223.4 263.5H223.5Z" fill="#47535F"/>
</g>
<defs>
<clipPath id="clip0_104_982">
<rect width="640" height="512" fill="white" transform="translate(0.5 0.5)"/>
</clipPath>
</defs>
</svg>
