<svg width="641" height="513" viewBox="0 0 641 513" fill="none" xmlns="http://www.w3.org/2000/svg">
<g clip-path="url(#clip0_104_988)">
<path d="M496.3 0.5C501.8 0.5 507.2 0.7 512.6 1.2C519.6 1.8 525.4 6.9 526.9 13.7C528.4 20.5 525.3 27.6 519.2 31C474.8 56.2 444.8 104 444.8 158.8C444.8 239.8 510.3 305.4 591 305.4C599.6 305.4 608 304.7 616.1 303.3C623 302.1 629.9 305.5 633.1 311.8C636.3 318.1 635 325.6 630 330.5C595.5 364.1 548.3 384.9 496.4 384.9C487.1 384.9 478 384.2 469 383C457.8 360.4 439.2 342.1 416.4 331.3C413.7 272.8 366.1 226 307.2 224.6C305.5 214.2 304.6 203.6 304.6 192.8C304.5 86.6 390.3 0.5 496.3 0.5ZM448.4 432.4C448.4 476.6 412.6 512.4 368.4 512.4H96.5C43.5 512.4 0.5 469.4 0.5 416.4C0.5 368.8 35.1 329.4 80.5 321.8V320.5C80.5 267.5 123.5 224.5 176.5 224.5C211.4 224.5 241.9 243.1 258.7 270.9C271.7 261.8 287.5 256.5 304.5 256.5C348.7 256.5 384.5 292.3 384.5 336.5C384.5 342.4 383.9 348.2 382.6 353.7C420 360.4 448.4 393.1 448.4 432.4Z" fill="#47535F"/>
</g>
<defs>
<clipPath id="clip0_104_988">
<rect width="640" height="512" fill="white" transform="translate(0.5 0.5)"/>
</clipPath>
</defs>
</svg>
