<svg width="577" height="513" viewBox="0 0 577 513" fill="none" xmlns="http://www.w3.org/2000/svg">
<g clip-path="url(#clip0_104_996)">
<path d="M224.5 0.5C263.1 0.5 296.4 23.3 311.7 56.2C326.2 41.6 346.3 32.5 368.5 32.5C407.2 32.5 439.5 60 446.9 96.5H448.5C483.8 96.5 512.5 125.2 512.5 160.5C512.5 195.8 483.8 224.5 448.5 224.5H128.5C93.1998 224.5 64.4998 195.8 64.4998 160.5C64.4998 125.2 93.1998 96.5 128.5 96.5C128.5 43.5 171.5 0.5 224.5 0.5ZM141.1 292.8L93.0998 372.8C86.2998 384.2 71.4998 387.8 60.1998 381C48.8998 374.2 45.0998 359.4 51.9998 348.1L99.9998 268.1C106.8 256.7 121.6 253 132.9 259.9C144.2 266.8 148 281.5 141.1 292.8ZM468.9 259.9C480.3 266.7 483.9 281.5 477.1 292.8L429.1 372.8C422.3 384.2 407.5 387.8 396.2 381C384.9 374.2 381.2 359.4 388 348.1L436 268.1C442.8 256.7 457.6 253 468.9 259.9ZM253.1 292.8L205.1 372.8C198.3 384.2 183.5 387.8 172.2 381C160.9 374.2 157.1 359.4 164 348.1L212 268.1C218.8 256.7 233.6 253 244.9 259.9C256.2 266.8 260 281.5 253.1 292.8ZM356.9 259.9C368.3 266.7 371.9 281.5 365.1 292.8L317.1 372.8C310.3 384.2 295.5 387.8 284.2 381C272.9 374.2 269.1 359.4 276 348.1L324 268.1C330.8 256.7 345.6 253 356.9 259.9ZM307 422.4C329.5 437.9 357 448.5 384.5 448.5C411.4 448.5 439.9 437.7 461.9 422.4C473.8 413.9 490 414.6 501.1 424.1C515.5 436 533.6 445.1 551.7 449.3C568.9 453.3 579.6 470.5 575.6 487.7C571.6 504.9 554.4 515.6 537.2 511.6C512.7 505.9 492.3 495.1 479 486.6C450 502.2 417.5 512.5 384.5 512.5C352.6 512.5 323.9 502.6 304.1 493.6C298.3 490.9 293 488.3 288.5 485.9C284 488.3 278.8 491 272.9 493.6C253.1 502.6 224.4 512.5 192.5 512.5C159.5 512.5 127 502.2 97.9998 486.7C84.5998 495.1 64.2998 506 39.7998 511.7C22.5998 515.7 5.39978 505 1.39978 487.8C-2.60022 470.6 8.09977 453.4 25.2998 449.4C43.3998 445.2 61.4998 436.1 75.8998 424.2C86.9998 414.8 103.2 414.1 115.1 422.5C137.2 437.7 165.6 448.5 192.5 448.5C220 448.5 247.5 437.9 270 422.4C281.1 414.5 295.9 414.5 307 422.4Z" fill="#47535F"/>
</g>
<defs>
<clipPath id="clip0_104_996">
<rect width="576" height="512" fill="white" transform="translate(0.5 0.5)"/>
</clipPath>
</defs>
</svg>
