<svg width="641" height="513" viewBox="0 0 641 513" fill="none" xmlns="http://www.w3.org/2000/svg">
<g clip-path="url(#clip0_104_998)">
<path d="M294.7 1.70003C299.8 3.80003 303.4 8.40003 304.3 13.8L318.4 98.5L403.1 112.6C408.5 113.5 413.1 117.1 415.2 122.2C417.3 127.3 416.7 133.1 413.6 137.6L375.1 192.6C372.9 192.5 370.7 192.4 368.4 192.4C345.1 192.4 323.3 198.6 304.4 209.5V208.4C304.4 155.4 261.4 112.4 208.4 112.4C155.4 112.4 112.4 155.4 112.4 208.4C112.4 261.4 155.4 304.4 208.4 304.4C216.5 304.4 224.3 303.4 231.8 301.5C195.2 319.6 168.5 354.6 162 396.4L137.6 413.4C133.1 416.6 127.3 417.2 122.2 415C117.1 412.8 113.5 408.3 112.6 402.9L98.6 318.4L13.9 304.3C8.50003 303.4 3.90003 299.8 1.80003 294.7C-0.299971 289.6 0.300029 283.8 3.40003 279.3L53 208.5L3.40003 137.7C0.200029 133.2 -0.399971 127.4 1.80003 122.3C4.00003 117.2 8.50003 113.6 13.9 112.7L98.6 98.6L112.7 13.9C113.6 8.50003 117.2 3.90003 122.3 1.80003C127.4 -0.299971 133.2 0.300029 137.7 3.40003L208.5 53L279.3 3.40003C283.8 0.200029 289.6 -0.399971 294.7 1.80003V1.70003ZM144.5 208.5C144.5 191.526 151.243 175.248 163.245 163.245C175.248 151.243 191.526 144.5 208.5 144.5C225.474 144.5 241.753 151.243 253.755 163.245C265.757 175.248 272.5 191.526 272.5 208.5C272.5 225.474 265.757 241.753 253.755 253.755C241.753 265.757 225.474 272.5 208.5 272.5C191.526 272.5 175.248 265.757 163.245 253.755C151.243 241.753 144.5 225.474 144.5 208.5ZM640.4 432.4C640.4 476.6 604.6 512.4 560.4 512.4H288.5C235.5 512.4 192.5 469.4 192.5 416.4C192.5 368.8 227.1 329.4 272.5 321.8V320.5C272.5 267.5 315.5 224.5 368.5 224.5C403.4 224.5 433.9 243.1 450.7 270.9C463.7 261.8 479.5 256.5 496.5 256.5C540.7 256.5 576.5 292.3 576.5 336.5C576.5 342.4 575.9 348.2 574.6 353.7C612 360.4 640.4 393.1 640.4 432.4Z" fill="#47535F"/>
</g>
<defs>
<clipPath id="clip0_104_998">
<rect width="640" height="512" fill="white" transform="translate(0.5 0.5)"/>
</clipPath>
</defs>
</svg>
