<svg width="513" height="513" viewBox="0 0 513 513" fill="none" xmlns="http://www.w3.org/2000/svg">
<g clip-path="url(#clip0_104_984)">
<path d="M0.5 224.5C0.5 277.5 43.5 320.5 96.5 320.5H143.7L290.5 203C308.1 188.9 333.1 189 350.7 203.2C368.3 217.4 373.5 241.8 363.5 262L334.2 320.5H352.5H416.5C469.5 320.5 512.5 277.5 512.5 224.5C512.5 171.5 469.5 128.5 416.5 128.5C416 128.5 415.4 128.5 414.9 128.5C416 123.3 416.5 118 416.5 112.5C416.5 68.3 380.7 32.5 336.5 32.5C312.2 32.5 290.4 43.4 275.7 60.5C257 24.8 219.6 0.5 176.5 0.5C114.6 0.5 64.5 50.6 64.5 112.5C64.5 119.6 65.2 126.6 66.4 133.3C28.1 145.9 0.5 182 0.5 224.5ZM330.6 228.1C324.8 223.4 316.4 223.4 310.5 228L150.5 356C145.2 360.2 143.1 367.4 145.4 373.8C147.7 380.2 153.7 384.5 160.5 384.5H230.6L178.2 489.3C174.8 496 176.6 504.2 182.5 508.9C188.4 513.6 196.7 513.6 202.6 509L362.6 381C367.9 376.8 370 369.6 367.7 363.2C365.4 356.8 359.4 352.5 352.6 352.5H282.4L334.8 247.7C338.2 241 336.4 232.8 330.6 228.1Z" fill="#47535F"/>
</g>
<defs>
<clipPath id="clip0_104_984">
<rect width="512" height="512" fill="white" transform="translate(0.5 0.5)"/>
</clipPath>
</defs>
</svg>
