<svg width="449" height="513" viewBox="0 0 449 513" fill="none" xmlns="http://www.w3.org/2000/svg">
<g clip-path="url(#clip0_104_1002)">
<path d="M173.8 32.5C139.9 32.5 112.5 59.9 112.5 93.8V98.7C112.5 110.7 115.8 122.4 121.9 132.7L140.7 164C141.8 165.8 141.9 167.1 141.7 168.2C141.5 169.4 140.9 170.7 139.7 171.8C138.5 172.9 137.3 173.6 136.1 173.8C135.1 174 133.7 173.9 131.9 172.8L100.6 154C90.3 147.8 78.6 144.6 66.6 144.6H61.8C27.9 144.5 0.5 171.9 0.5 205.8C0.5 222 7 237.6 18.4 249.1L19.6 250.3C23 253.7 23 259.3 19.6 262.7L18.4 263.9C7 275.4 0.5 291 0.5 307.2C0.5 341.1 27.9 368.5 61.8 368.5H66.7C78.7 368.5 90.4 365.2 100.7 359.1L132 340.3C133.8 339.2 135.1 339.1 136.2 339.3C137.4 339.5 138.7 340.1 139.8 341.3C140.9 342.5 141.6 343.7 141.8 344.9C142 345.9 141.9 347.3 140.8 349.1L122 380.4C115.8 390.7 112.6 402.4 112.6 414.4V419.3C112.6 453.1 140 480.6 173.9 480.6C190.1 480.6 205.7 474.1 217.2 462.7L218.4 461.5C221.8 458.1 227.4 458.1 230.8 461.5L232 462.7C243.5 474.2 259.1 480.6 275.3 480.6C309.1 480.6 336.6 453.2 336.6 419.3V414.4C336.6 402.4 333.3 390.7 327.2 380.4L308.4 349.1C307.3 347.3 307.2 346 307.4 344.9C307.6 343.7 308.2 342.4 309.4 341.3C310.6 340.2 311.8 339.5 313 339.3C314 339.1 315.4 339.2 317.2 340.3L348.5 359.1C358.8 365.3 370.5 368.5 382.5 368.5H387.4C421.2 368.5 448.7 341.1 448.7 307.2C448.7 291 442.2 275.4 430.8 263.9L429.6 262.7C426.2 259.3 426.2 253.7 429.6 250.3L430.8 249.1C442.3 237.6 448.7 222 448.7 205.8C448.7 172 421.3 144.5 387.4 144.5H382.5C370.5 144.5 358.8 147.8 348.5 153.9L317.2 172.7C315.4 173.8 314.1 173.9 313 173.7C311.8 173.5 310.5 172.9 309.4 171.7C308.3 170.5 307.6 169.3 307.4 168.1C307.2 167.1 307.3 165.7 308.4 163.9L327.2 132.6C333.4 122.3 336.6 110.6 336.6 98.6V93.8C336.5 59.9 309.1 32.5 275.2 32.5C259 32.5 243.4 39 231.9 50.4L230.7 51.6C227.3 55 221.7 55 218.3 51.6L217.1 50.4C205.6 39 190 32.5 173.8 32.5Z" fill="#47535F"/>
</g>
<defs>
<clipPath id="clip0_104_1002">
<rect width="448" height="512" fill="white" transform="translate(0.5 0.5)"/>
</clipPath>
</defs>
</svg>
