<svg width="641" height="513" viewBox="0 0 641 513" fill="none" xmlns="http://www.w3.org/2000/svg">
<g clip-path="url(#clip0_104_1004)">
<path d="M393.3 1.69993C376.3 -3.20007 358.6 6.69993 353.7 23.6999L225.7 471.7C220.8 488.7 230.7 506.4 247.7 511.3C264.7 516.2 282.4 506.3 287.3 489.3L415.3 41.2999C420.2 24.2999 410.3 6.59993 393.3 1.69993ZM473.9 121.8C461.4 134.3 461.4 154.6 473.9 167.1L563.2 256.5L473.8 345.9C461.3 358.4 461.3 378.7 473.8 391.2C486.3 403.7 506.6 403.7 519.1 391.2L631.1 279.2C643.6 266.7 643.6 246.4 631.1 233.9L519.1 121.9C506.6 109.4 486.3 109.4 473.8 121.9L473.9 121.8ZM167.2 121.8C154.7 109.3 134.4 109.3 121.9 121.8L9.90039 233.8C-2.59961 246.3 -2.59961 266.6 9.90039 279.1L121.9 391.1C134.4 403.6 154.7 403.6 167.2 391.1C179.7 378.6 179.7 358.3 167.2 345.8L77.8004 256.5L167.2 167.1C179.7 154.6 179.7 134.3 167.2 121.8Z" fill="#47535F"/>
</g>
<defs>
<clipPath id="clip0_104_1004">
<rect width="640" height="512" fill="white" transform="translate(0.5 0.5)"/>
</clipPath>
</defs>
</svg>
