<svg width="513" height="513" viewBox="0 0 513 513" fill="none" xmlns="http://www.w3.org/2000/svg">
<g clip-path="url(#clip0_104_1016)">
<path d="M306.3 2.6C314.9 6.4 320.5 15 320.5 24.5V64.5H336.5C407.2 64.5 464.5 121.8 464.5 192.5V359.2C492.8 371.5 512.5 399.7 512.5 432.5C512.5 476.7 476.7 512.5 432.5 512.5C388.3 512.5 352.5 476.7 352.5 432.5C352.5 399.7 372.2 371.5 400.5 359.2V192.5C400.5 157.2 371.8 128.5 336.5 128.5H320.5V168.5C320.5 178 314.9 186.6 306.3 190.4C297.7 194.2 287.5 192.7 280.5 186.3L200.5 114.3C195.4 109.7 192.6 103.3 192.6 96.5C192.6 89.7 195.5 83.2 200.5 78.7L280.5 6.7C287.5 0.4 297.7 -1.2 306.3 2.6ZM104.5 80.5C104.5 74.1348 101.971 68.0303 97.4706 63.5294C92.9697 59.0286 86.8652 56.5 80.5 56.5C74.1348 56.5 68.0303 59.0286 63.5294 63.5294C59.0286 68.0303 56.5 74.1348 56.5 80.5C56.5 86.8652 59.0286 92.9697 63.5294 97.4706C68.0303 101.971 74.1348 104.5 80.5 104.5C86.8652 104.5 92.9697 101.971 97.4706 97.4706C101.971 92.9697 104.5 86.8652 104.5 80.5ZM112.5 153.8V359.2C140.8 371.5 160.5 399.7 160.5 432.5C160.5 476.7 124.7 512.5 80.5 512.5C36.3 512.5 0.5 476.7 0.5 432.5C0.5 399.7 20.2 371.5 48.5 359.2V153.8C20.2 141.5 0.5 113.3 0.5 80.5C0.5 36.3 36.3 0.5 80.5 0.5C124.7 0.5 160.5 36.3 160.5 80.5C160.5 113.3 140.8 141.5 112.5 153.8ZM104.5 432.5C104.5 426.135 101.971 420.03 97.4706 415.529C92.9697 411.029 86.8652 408.5 80.5 408.5C74.1348 408.5 68.0303 411.029 63.5294 415.529C59.0286 420.03 56.5 426.135 56.5 432.5C56.5 438.865 59.0286 444.97 63.5294 449.471C68.0303 453.971 74.1348 456.5 80.5 456.5C86.8652 456.5 92.9697 453.971 97.4706 449.471C101.971 444.97 104.5 438.865 104.5 432.5ZM432.5 456.5C438.865 456.5 444.97 453.971 449.471 449.471C453.971 444.97 456.5 438.865 456.5 432.5C456.5 426.135 453.971 420.03 449.471 415.529C444.97 411.029 438.865 408.5 432.5 408.5C426.135 408.5 420.03 411.029 415.529 415.529C411.029 420.03 408.5 426.135 408.5 432.5C408.5 438.865 411.029 444.97 415.529 449.471C420.03 453.971 426.135 456.5 432.5 456.5Z" fill="#47535F"/>
</g>
<defs>
<clipPath id="clip0_104_1016">
<rect width="512" height="512" fill="white" transform="translate(0.5 0.5)"/>
</clipPath>
</defs>
</svg>
