<svg width="449" height="513" viewBox="0 0 449 513" fill="none" xmlns="http://www.w3.org/2000/svg">
<g clip-path="url(#clip0_104_1006)">
<path d="M80.5 104.5C86.8652 104.5 92.9697 101.971 97.4706 97.4706C101.971 92.9697 104.5 86.8652 104.5 80.5C104.5 74.1348 101.971 68.0303 97.4706 63.5294C92.9697 59.0286 86.8652 56.5 80.5 56.5C74.1348 56.5 68.0303 59.0286 63.5294 63.5294C59.0286 68.0303 56.5 74.1348 56.5 80.5C56.5 86.8652 59.0286 92.9697 63.5294 97.4706C68.0303 101.971 74.1348 104.5 80.5 104.5ZM160.5 80.5C160.5 113.3 140.8 141.5 112.5 153.8V241.6C131.3 230.7 153.2 224.5 176.5 224.5H272.5C307.8 224.5 336.5 195.8 336.5 160.5V153.8C308.2 141.5 288.5 113.3 288.5 80.5C288.5 36.3 324.3 0.5 368.5 0.5C412.7 0.5 448.5 36.3 448.5 80.5C448.5 113.3 428.8 141.5 400.5 153.8V160.5C400.5 231.2 343.2 288.5 272.5 288.5H176.5C141.2 288.5 112.5 317.2 112.5 352.5V359.2C140.8 371.5 160.5 399.7 160.5 432.5C160.5 476.7 124.7 512.5 80.5 512.5C36.3 512.5 0.5 476.7 0.5 432.5C0.5 399.7 20.2 371.5 48.5 359.2V352.5V153.8C20.2 141.5 0.5 113.3 0.5 80.5C0.5 36.3 36.3 0.5 80.5 0.5C124.7 0.5 160.5 36.3 160.5 80.5ZM392.5 80.5C392.5 74.1348 389.971 68.0303 385.471 63.5294C380.97 59.0286 374.865 56.5 368.5 56.5C362.135 56.5 356.03 59.0286 351.529 63.5294C347.029 68.0303 344.5 74.1348 344.5 80.5C344.5 86.8652 347.029 92.9697 351.529 97.4706C356.03 101.971 362.135 104.5 368.5 104.5C374.865 104.5 380.97 101.971 385.471 97.4706C389.971 92.9697 392.5 86.8652 392.5 80.5ZM80.5 456.5C86.8652 456.5 92.9697 453.971 97.4706 449.471C101.971 444.97 104.5 438.865 104.5 432.5C104.5 426.135 101.971 420.03 97.4706 415.529C92.9697 411.029 86.8652 408.5 80.5 408.5C74.1348 408.5 68.0303 411.029 63.5294 415.529C59.0286 420.03 56.5 426.135 56.5 432.5C56.5 438.865 59.0286 444.97 63.5294 449.471C68.0303 453.971 74.1348 456.5 80.5 456.5Z" fill="#47535F"/>
</g>
<defs>
<clipPath id="clip0_104_1006">
<rect width="448" height="512" fill="white" transform="translate(0.5 0.5)"/>
</clipPath>
</defs>
</svg>
