<svg width="449" height="513" viewBox="0 0 449 513" fill="none" xmlns="http://www.w3.org/2000/svg">
<g clip-path="url(#clip0_104_1014)">
<path d="M80.5 56.5C86.8652 56.5 92.9697 59.0286 97.4706 63.5294C101.971 68.0303 104.5 74.1348 104.5 80.5C104.5 86.8652 101.971 92.9697 97.4706 97.4706C92.9697 101.971 86.8652 104.5 80.5 104.5C74.1348 104.5 68.0303 101.971 63.5294 97.4706C59.0286 92.9697 56.5 86.8652 56.5 80.5C56.5 74.1348 59.0286 68.0303 63.5294 63.5294C68.0303 59.0286 74.1348 56.5 80.5 56.5ZM112.9 153.7C140.9 141.3 160.5 113.2 160.5 80.5C160.5 36.3 124.7 0.5 80.5 0.5C36.3 0.5 0.5 36.3 0.5 80.5C0.5 113.3 20.2 141.5 48.5 153.8V359.2C20.2 371.5 0.5 399.7 0.5 432.5C0.5 476.7 36.3 512.5 80.5 512.5C124.7 512.5 160.5 476.7 160.5 432.5C160.5 399.7 140.8 371.5 112.5 359.2V272.5C139.2 292.6 172.5 304.5 208.5 304.5H295.2C307.5 332.8 335.7 352.5 368.5 352.5C412.7 352.5 448.5 316.7 448.5 272.5C448.5 228.3 412.7 192.5 368.5 192.5C335.7 192.5 307.5 212.2 295.2 240.5H208.5C158.6 240.5 117.5 202.4 112.9 153.7ZM80.5 408.5C86.8652 408.5 92.9697 411.029 97.4706 415.529C101.971 420.03 104.5 426.135 104.5 432.5C104.5 438.865 101.971 444.97 97.4706 449.471C92.9697 453.971 86.8652 456.5 80.5 456.5C74.1348 456.5 68.0303 453.971 63.5294 449.471C59.0286 444.97 56.5 438.865 56.5 432.5C56.5 426.135 59.0286 420.03 63.5294 415.529C68.0303 411.029 74.1348 408.5 80.5 408.5ZM344.5 272.5C344.5 266.135 347.029 260.03 351.529 255.529C356.03 251.029 362.135 248.5 368.5 248.5C374.865 248.5 380.97 251.029 385.471 255.529C389.971 260.03 392.5 266.135 392.5 272.5C392.5 278.865 389.971 284.97 385.471 289.471C380.97 293.971 374.865 296.5 368.5 296.5C362.135 296.5 356.03 293.971 351.529 289.471C347.029 284.97 344.5 278.865 344.5 272.5Z" fill="#47535F"/>
</g>
<defs>
<clipPath id="clip0_104_1014">
<rect width="448" height="512" fill="white" transform="translate(0.5 0.5)"/>
</clipPath>
</defs>
</svg>
