<svg width="449" height="513" viewBox="0 0 449 513" fill="none" xmlns="http://www.w3.org/2000/svg">
<g clip-path="url(#clip0_104_1012)">
<path d="M80.5 104.5C86.8652 104.5 92.9697 101.971 97.4706 97.4706C101.971 92.9697 104.5 86.8652 104.5 80.5C104.5 74.1348 101.971 68.0303 97.4706 63.5294C92.9697 59.0286 86.8652 56.5 80.5 56.5C74.1348 56.5 68.0303 59.0286 63.5294 63.5294C59.0286 68.0303 56.5 74.1348 56.5 80.5C56.5 86.8652 59.0286 92.9697 63.5294 97.4706C68.0303 101.971 74.1348 104.5 80.5 104.5ZM160.5 80.5C160.5 113.3 140.8 141.5 112.5 153.8V192.5C112.5 210.2 126.8 224.5 144.5 224.5H304.5C322.2 224.5 336.5 210.2 336.5 192.5V153.8C308.2 141.5 288.5 113.3 288.5 80.5C288.5 36.3 324.3 0.5 368.5 0.5C412.7 0.5 448.5 36.3 448.5 80.5C448.5 113.3 428.8 141.5 400.5 153.8V192.5C400.5 245.5 357.5 288.5 304.5 288.5H256.5V359.2C284.8 371.5 304.5 399.7 304.5 432.5C304.5 476.7 268.7 512.5 224.5 512.5C180.3 512.5 144.5 476.7 144.5 432.5C144.5 399.7 164.2 371.5 192.5 359.2V288.5H144.5C91.5 288.5 48.5 245.5 48.5 192.5V153.8C20.2 141.5 0.5 113.3 0.5 80.5C0.5 36.3 36.3 0.5 80.5 0.5C124.7 0.5 160.5 36.3 160.5 80.5ZM368.5 104.5C374.865 104.5 380.97 101.971 385.471 97.4706C389.971 92.9697 392.5 86.8652 392.5 80.5C392.5 74.1348 389.971 68.0303 385.471 63.5294C380.97 59.0286 374.865 56.5 368.5 56.5C362.135 56.5 356.03 59.0286 351.529 63.5294C347.029 68.0303 344.5 74.1348 344.5 80.5C344.5 86.8652 347.029 92.9697 351.529 97.4706C356.03 101.971 362.135 104.5 368.5 104.5ZM248.5 432.5C248.5 426.135 245.971 420.03 241.471 415.529C236.97 411.029 230.865 408.5 224.5 408.5C218.135 408.5 212.03 411.029 207.529 415.529C203.029 420.03 200.5 426.135 200.5 432.5C200.5 438.865 203.029 444.97 207.529 449.471C212.03 453.971 218.135 456.5 224.5 456.5C230.865 456.5 236.97 453.971 241.471 449.471C245.971 444.97 248.5 438.865 248.5 432.5Z" fill="#47535F"/>
</g>
<defs>
<clipPath id="clip0_104_1012">
<rect width="448" height="512" fill="white" transform="translate(0.5 0.5)"/>
</clipPath>
</defs>
</svg>
