<svg width="513" height="513" viewBox="0 0 513 513" fill="none" xmlns="http://www.w3.org/2000/svg">
<g clip-path="url(#clip0_104_1010)">
<path d="M320.5 488.5C320.5 498 314.9 506.6 306.3 510.4C297.7 514.2 287.5 512.7 280.5 506.3L200.5 434.3C195.4 429.7 192.6 423.3 192.6 416.5C192.6 409.7 195.5 403.2 200.5 398.7L280.5 326.7C287.5 320.4 297.7 318.8 306.3 322.6C314.9 326.4 320.5 335 320.5 344.5V384.5H336.5C371.8 384.5 400.5 355.8 400.5 320.5V153.8C372.2 141.5 352.5 113.3 352.5 80.5C352.5 36.3 388.3 0.5 432.5 0.5C476.7 0.5 512.5 36.3 512.5 80.5C512.5 113.3 492.8 141.5 464.5 153.8V320.5C464.5 391.2 407.2 448.5 336.5 448.5H320.5V488.5ZM456.5 80.5C456.5 74.1348 453.971 68.0303 449.471 63.5294C444.97 59.0286 438.865 56.5 432.5 56.5C426.135 56.5 420.03 59.0286 415.529 63.5294C411.029 68.0303 408.5 74.1348 408.5 80.5C408.5 86.8652 411.029 92.9697 415.529 97.4706C420.03 101.971 426.135 104.5 432.5 104.5C438.865 104.5 444.97 101.971 449.471 97.4706C453.971 92.9697 456.5 86.8652 456.5 80.5ZM192.5 24.5C192.5 15 198.1 6.4 206.7 2.6C215.3 -1.2 225.5 0.3 232.5 6.7L312.5 78.7C317.6 83.3 320.4 89.7 320.4 96.5C320.4 103.3 317.5 109.8 312.5 114.3L232.5 186.3C225.5 192.6 215.3 194.2 206.7 190.4C198.1 186.6 192.5 178 192.5 168.5V128.5H176.5C141.2 128.5 112.5 157.2 112.5 192.5V359.2C140.8 371.5 160.5 399.7 160.5 432.5C160.5 476.7 124.7 512.5 80.5 512.5C36.3 512.5 0.5 476.7 0.5 432.5C0.5 399.7 20.2 371.5 48.5 359.2V192.5C48.5 121.8 105.8 64.5 176.5 64.5H192.5V24.5ZM56.5 432.5C56.5 438.865 59.0286 444.97 63.5294 449.471C68.0303 453.971 74.1348 456.5 80.5 456.5C86.8652 456.5 92.9697 453.971 97.4706 449.471C101.971 444.97 104.5 438.865 104.5 432.5C104.5 426.135 101.971 420.03 97.4706 415.529C92.9697 411.029 86.8652 408.5 80.5 408.5C74.1348 408.5 68.0303 411.029 63.5294 415.529C59.0286 420.03 56.5 426.135 56.5 432.5Z" fill="#47535F"/>
</g>
<defs>
<clipPath id="clip0_104_1010">
<rect width="512" height="512" fill="white" transform="translate(0.5 0.5)"/>
</clipPath>
</defs>
</svg>
