<svg width="641" height="513" viewBox="0 0 641 513" fill="none" xmlns="http://www.w3.org/2000/svg">
<g clip-path="url(#clip0_104_1008)">
<path d="M320.5 336.5C341.717 336.5 362.066 328.071 377.069 313.069C392.071 298.066 400.5 277.717 400.5 256.5C400.5 235.283 392.071 214.934 377.069 199.931C362.066 184.929 341.717 176.5 320.5 176.5C299.283 176.5 278.934 184.929 263.931 199.931C248.929 214.934 240.5 235.283 240.5 256.5C240.5 277.717 248.929 298.066 263.931 313.069C278.934 328.071 299.283 336.5 320.5 336.5ZM477.3 288.5C462.5 361.5 397.9 416.5 320.5 416.5C243.1 416.5 178.5 361.5 163.7 288.5H32.5C14.8 288.5 0.5 274.2 0.5 256.5C0.5 238.8 14.8 224.5 32.5 224.5H163.7C178.5 151.5 243.1 96.5 320.5 96.5C397.9 96.5 462.5 151.5 477.3 224.5H608.5C626.2 224.5 640.5 238.8 640.5 256.5C640.5 274.2 626.2 288.5 608.5 288.5H477.3Z" fill="#47535F"/>
</g>
<defs>
<clipPath id="clip0_104_1008">
<rect width="640" height="512" fill="white" transform="translate(0.5 0.5)"/>
</clipPath>
</defs>
</svg>
