<svg width="513" height="513" viewBox="0 0 513 513" fill="none" xmlns="http://www.w3.org/2000/svg">
<g clip-path="url(#clip0_104_1018)">
<path d="M512.5 80.5C512.5 98.5 498.2 115.1 474.1 128.5C445 144.6 401.6 156 351.8 159.4C348.1 157.6 344.4 155.9 340.5 154.4C301.1 137.9 248.7 128.5 192.5 128.5C184.2 128.5 176.1 128.7 168 129.1L166.9 128.5C142.8 115.1 128.5 98.5 128.5 80.5C128.5 36.3 214.5 0.5 320.5 0.5C426.5 0.5 512.5 36.3 512.5 80.5ZM161.2 161.6C171.4 160.9 181.9 160.5 192.5 160.5C254.7 160.5 309.9 172.8 345 191.9C369.8 205.4 384.5 222.2 384.5 240.5C384.5 244.5 383.8 248.4 382.4 252.2C377.8 265.4 365.4 277.5 347.4 287.7C347.3 287.8 347.1 287.8 347 287.9C346.7 288.1 346.4 288.2 346.1 288.4C311.1 307.8 255.3 320.4 192.5 320.4C132.9 320.4 79.6 309.1 44.3 291.3C42.4 290.4 40.6 289.4 38.8 288.4C14.8 275.1 0.5 258.5 0.5 240.5C0.5 205.7 53.9 176 128.5 165.1C139 163.6 149.9 162.4 161.2 161.6ZM416.5 240.5C416.5 218.6 405.9 200.6 392.4 187.1C420.7 182.7 446.6 175.7 468.6 166.6C484.9 159.8 500.1 151.4 512.5 141.1V176.5C512.5 195.8 496 213.6 468.7 227.4C454.1 234.8 436.3 241.1 416.3 245.9C416.4 244.1 416.5 242.4 416.5 240.6V240.5ZM384.5 336.5C384.5 354.5 370.2 371.1 346.1 384.5C344.3 385.5 342.5 386.4 340.6 387.4C305.4 405.2 252.1 416.5 192.5 416.5C129.7 416.5 73.9 403.9 38.9 384.5C14.8 371.1 0.5 354.5 0.5 336.5V301.1C13 311.4 28.1 319.8 44.4 326.6C83.9 343.1 136.3 352.5 192.5 352.5C248.7 352.5 301.1 343.1 340.6 326.6C348.4 323.4 355.9 319.7 363 315.7C369.1 312.3 374.8 308.5 380.2 304.5C381.7 303.4 383.1 302.2 384.5 301.1V304.5V310.2V336.5ZM416.5 336.5V304.5V278.6C435.5 274.4 453 269.1 468.6 262.6C484.9 255.8 500.1 247.4 512.5 237.1V272.5C512.5 283 507.5 293.5 497.6 303.4C481.3 319.7 452.6 333.1 416.3 341.8C416.4 340.1 416.5 338.3 416.5 336.5ZM192.5 448.5C248.7 448.5 301.1 439.1 340.6 422.6C356.9 415.8 372.1 407.4 384.5 397.1V432.5C384.5 476.7 298.5 512.5 192.5 512.5C86.5 512.5 0.5 476.7 0.5 432.5V397.1C13 407.4 28.1 415.8 44.4 422.6C83.9 439.1 136.3 448.5 192.5 448.5Z" fill="#47535F"/>
</g>
<defs>
<clipPath id="clip0_104_1018">
<rect width="512" height="512" fill="white" transform="translate(0.5 0.5)"/>
</clipPath>
</defs>
</svg>
