<svg width="385" height="513" viewBox="0 0 385 513" fill="none" xmlns="http://www.w3.org/2000/svg">
<g clip-path="url(#clip0_104_1020)">
<path d="M255.5 40.3001C259.8 23.2001 249.4 5.80005 232.2 1.50005C215 -2.79995 197.7 7.60005 193.5 24.7001L182.4 69.1001C96.6 88.3001 32.5 164.9 32.5 256.5C32.5 314.6 58.3 366.7 99.2 401.9L81.5 472.7C77.2 489.8 87.6 507.2 104.8 511.5C122 515.8 139.3 505.4 143.6 488.2L156.6 436.1C165.6 439.5 175 442.3 184.6 444.3L177.5 472.7C173.2 489.8 183.6 507.2 200.8 511.5C218 515.8 235.3 505.4 239.6 488.2L250 446.8C283.4 442.4 314.1 429.4 339.8 410.1C353.9 399.5 356.8 379.4 346.2 365.3C335.6 351.2 315.5 348.3 301.4 358.9C291.2 366.6 279.7 372.8 267.4 377.2L321.5 160.5C330.9 160.2 340 155.8 346.1 147.7C356.7 133.6 353.9 113.5 339.7 102.9C338.6 102.1 337.5 101.3 336.4 100.5L351.5 40.3001C355.8 23.2001 345.4 5.80005 328.2 1.50005C311 -2.79995 293.7 7.60005 289.5 24.7001L277.7 72.0001C268.4 69.3001 258.9 67.4001 249.1 66.1001L255.5 40.3001ZM163.7 143.8L117.8 327.3C104.4 307 96.5 282.7 96.5 256.5C96.5 207.8 123.7 165.5 163.7 143.8ZM172.3 373.3L233.4 128.7C243.3 129.4 252.9 131.2 262.1 134L200.1 382.1C190.4 380.2 181.1 377.3 172.3 373.3Z" fill="#47535F"/>
</g>
<defs>
<clipPath id="clip0_104_1020">
<rect width="384" height="512" fill="white" transform="translate(0.5 0.5)"/>
</clipPath>
</defs>
</svg>
