<svg width="641" height="513" viewBox="0 0 641 513" fill="none" xmlns="http://www.w3.org/2000/svg">
<g clip-path="url(#clip0_104_1034)">
<path d="M39.2998 5.60001C28.8998 -2.59999 13.7998 -0.699994 5.59976 9.70001C-2.60024 20.1 -0.700238 35.2 9.69976 43.4L601.7 507.4C612.1 515.6 627.2 513.7 635.4 503.3C643.6 492.9 641.7 477.8 631.3 469.6L513.4 377.2C552.7 340.7 576.5 292.8 576.5 240.5C576.5 125.6 461.9 32.5 320.5 32.5C252.8 32.5 191.2 53.9 145.4 88.8L39.2998 5.60001ZM64.4998 240.5C64.4998 285.6 82.1998 327.3 112.2 361.4C110.3 385.9 100.8 407.7 90.7998 424.3C85.2998 433.5 79.6998 440.9 75.5998 445.9C73.4998 448.4 71.8998 450.3 70.6998 451.6C70.0998 452.2 69.6998 452.7 69.3998 453L69.0998 453.3C64.4998 457.9 63.1998 464.7 65.6998 470.7C68.1998 476.7 73.9998 480.6 80.4998 480.6C109.2 480.6 138.1 471.7 162.1 461.3C185 451.3 204.5 439.4 216.4 430.7C248.2 442.2 283.4 448.6 320.5 448.6C357.5 448.6 392.8 442.2 424.5 430.7L83.3998 161.8C71.1998 186.1 64.4998 212.7 64.4998 240.5Z" fill="#47535F"/>
</g>
<defs>
<clipPath id="clip0_104_1034">
<rect width="640" height="512" fill="white" transform="translate(0.5 0.5)"/>
</clipPath>
</defs>
</svg>
