<svg width="513" height="513" viewBox="0 0 513 513" fill="none" xmlns="http://www.w3.org/2000/svg">
<g clip-path="url(#clip0_104_1026)">
<path d="M256.499 448.5C397.899 448.5 512.499 355.4 512.499 240.5C512.499 125.6 397.899 32.5 256.499 32.5C115.099 32.5 0.499219 125.6 0.499219 240.5C0.499219 285.6 18.1992 327.3 48.1992 361.4C46.2992 385.9 36.7992 407.7 26.7992 424.3C21.2992 433.5 15.6992 440.9 11.5992 445.9C9.49922 448.4 7.89922 450.3 6.69922 451.6C6.09922 452.2 5.69922 452.7 5.39922 453L5.09922 453.3C0.499219 457.9 -0.800781 464.7 1.69922 470.7C4.19922 476.7 9.99922 480.6 16.4992 480.6C45.1992 480.6 74.0992 471.7 98.0992 461.3C120.999 451.3 140.499 439.4 152.399 430.7C184.199 442.2 219.399 448.6 256.499 448.6V448.5ZM128.499 208.5C136.986 208.5 145.125 211.871 151.127 217.873C157.128 223.874 160.499 232.013 160.499 240.5C160.499 248.987 157.128 257.126 151.127 263.127C145.125 269.129 136.986 272.5 128.499 272.5C120.012 272.5 111.873 269.129 105.872 263.127C99.8706 257.126 96.4992 248.987 96.4992 240.5C96.4992 232.013 99.8706 223.874 105.872 217.873C111.873 211.871 120.012 208.5 128.499 208.5ZM256.499 208.5C264.986 208.5 273.125 211.871 279.127 217.873C285.128 223.874 288.499 232.013 288.499 240.5C288.499 248.987 285.128 257.126 279.127 263.127C273.125 269.129 264.986 272.5 256.499 272.5C248.012 272.5 239.873 269.129 233.872 263.127C227.871 257.126 224.499 248.987 224.499 240.5C224.499 232.013 227.871 223.874 233.872 217.873C239.873 211.871 248.012 208.5 256.499 208.5ZM352.499 240.5C352.499 232.013 355.871 223.874 361.872 217.873C367.873 211.871 376.012 208.5 384.499 208.5C392.986 208.5 401.125 211.871 407.127 217.873C413.128 223.874 416.499 232.013 416.499 240.5C416.499 248.987 413.128 257.126 407.127 263.127C401.125 269.129 392.986 272.5 384.499 272.5C376.012 272.5 367.873 269.129 361.872 263.127C355.871 257.126 352.499 248.987 352.499 240.5Z" fill="#47535F"/>
</g>
<defs>
<clipPath id="clip0_104_1026">
<rect width="512" height="512" fill="white" transform="translate(0.5 0.5)"/>
</clipPath>
</defs>
</svg>
