<svg width="641" height="513" viewBox="0 0 641 513" fill="none" xmlns="http://www.w3.org/2000/svg">
<g clip-path="url(#clip0_104_1030)">
<path d="M208.499 352.5C323.399 352.5 416.499 273.7 416.499 176.5C416.499 79.3 323.399 0.5 208.499 0.5C93.5992 0.5 0.499226 79.3 0.499226 176.5C0.499226 215.1 15.1992 250.8 40.0992 279.9C36.5992 289.3 31.3992 297.6 25.8992 304.6C21.0992 310.8 16.1992 315.6 12.5992 318.9C10.7992 320.5 9.29923 321.8 8.29923 322.6C7.79923 323 7.39923 323.3 7.19923 323.4L6.99923 323.6C1.49923 327.7 -0.900774 334.9 1.29923 341.4C3.49923 347.9 9.59923 352.5 16.4992 352.5C38.2992 352.5 60.2992 346.9 78.5992 340C87.7992 336.5 96.3992 332.6 103.899 328.6C134.599 343.8 170.299 352.5 208.499 352.5ZM448.499 176.5C448.499 288.8 349.399 373.4 231.999 383.5C256.299 457.9 336.899 512.5 432.499 512.5C470.699 512.5 506.399 503.8 537.199 488.6C544.699 492.6 553.199 496.5 562.399 500C580.699 506.9 602.699 512.5 624.499 512.5C631.399 512.5 637.599 508 639.699 501.4C641.799 494.8 639.499 487.6 633.899 483.5L633.699 483.3C633.499 483.1 633.099 482.9 632.599 482.5C631.599 481.7 630.099 480.5 628.299 478.8C624.699 475.5 619.799 470.7 614.999 464.5C609.499 457.5 604.299 449.1 600.799 439.8C625.699 410.8 640.399 375.1 640.399 336.4C640.399 243.6 555.499 167.5 447.799 160.9C448.199 166 448.399 171.2 448.399 176.4L448.499 176.5Z" fill="#47535F"/>
</g>
<defs>
<clipPath id="clip0_104_1030">
<rect width="640" height="512" fill="white" transform="translate(0.5 0.5)"/>
</clipPath>
</defs>
</svg>
