<svg width="513" height="513" viewBox="0 0 513 513" fill="none" xmlns="http://www.w3.org/2000/svg">
<g clip-path="url(#clip0_104_1028)">
<path d="M256.499 448.5C397.899 448.5 512.499 355.4 512.499 240.5C512.499 125.6 397.899 32.5 256.499 32.5C115.099 32.5 0.499219 125.6 0.499219 240.5C0.499219 285.6 18.1992 327.3 48.1992 361.4C46.2992 385.9 36.7992 407.7 26.7992 424.3C21.2992 433.5 15.6992 440.9 11.5992 445.9C9.49922 448.4 7.89922 450.3 6.69922 451.6C6.09922 452.2 5.69922 452.7 5.39922 453L5.09922 453.3C0.499219 457.9 -0.800781 464.7 1.69922 470.7C4.19922 476.7 9.99922 480.6 16.4992 480.6C45.1992 480.6 74.0992 471.7 98.0992 461.3C120.999 451.3 140.499 439.4 152.399 430.7C184.199 442.2 219.399 448.6 256.499 448.6V448.5ZM224.499 160.5C224.499 151.7 231.699 144.5 240.499 144.5H272.499C281.299 144.5 288.499 151.7 288.499 160.5V208.5H336.499C345.299 208.5 352.499 215.7 352.499 224.5V256.5C352.499 265.3 345.299 272.5 336.499 272.5H288.499V320.5C288.499 329.3 281.299 336.5 272.499 336.5H240.499C231.699 336.5 224.499 329.3 224.499 320.5V272.5H176.499C167.699 272.5 160.499 265.3 160.499 256.5V224.5C160.499 215.7 167.699 208.5 176.499 208.5H224.499V160.5Z" fill="#47535F"/>
</g>
<defs>
<clipPath id="clip0_104_1028">
<rect width="512" height="512" fill="white" transform="translate(0.5 0.5)"/>
</clipPath>
</defs>
</svg>
