<svg width="641" height="513" viewBox="0 0 641 513" fill="none" xmlns="http://www.w3.org/2000/svg">
<g clip-path="url(#clip0_104_1032)">
<path d="M416.5 176.5C416.5 273.7 323.4 352.5 208.5 352.5C170.3 352.5 134.6 343.8 103.8 328.6C96.3 332.6 87.8 336.5 78.6 340C60.3 346.9 38.3 352.5 16.5 352.5C9.6 352.5 3.4 348 1.3 341.4C-0.8 334.8 1.5 327.6 7.1 323.5L7.3 323.3C7.5 323.1 7.9 322.9 8.4 322.5C9.4 321.7 10.9 320.5 12.7 318.8C16.3 315.5 21.2 310.7 26 304.5C31.5 297.5 36.7 289.1 40.2 279.8C15.2 250.8 0.5 215.1 0.5 176.5C0.5 79.3 93.6 0.5 208.5 0.5C323.4 0.5 416.5 79.3 416.5 176.5ZM232 383.5C349.4 373.4 448.5 288.8 448.5 176.5C448.5 171.3 448.3 166.1 447.9 161C555.6 167.6 640.5 243.7 640.5 336.5C640.5 375.1 625.8 410.8 600.9 439.9C604.4 449.3 609.6 457.6 615.1 464.6C619.9 470.8 624.8 475.6 628.4 478.9C630.2 480.5 631.7 481.8 632.7 482.6C633.2 483 633.6 483.3 633.8 483.4L634 483.6C639.6 487.7 641.9 494.9 639.8 501.5C637.7 508.1 631.5 512.6 624.6 512.6C602.8 512.6 580.8 507 562.5 500.1C553.3 496.6 544.7 492.7 537.3 488.7C506.4 503.8 470.7 512.5 432.5 512.5C336.9 512.5 256.3 457.9 232 383.5ZM228.5 72.5C228.5 61.5 219.5 52.5 208.5 52.5C197.5 52.5 188.5 61.5 188.5 72.5V86.5C180.9 88.2 173.3 90.9 166.3 95C152.4 103.3 140.4 117.8 140.5 138.9C140.6 159.2 152.5 172 165.2 179.6C176.2 186.2 189.9 190.4 200.8 193.6L202.5 194.1C215.1 197.9 224.3 200.9 230.5 204.8C235.6 208 236.3 210.2 236.4 213C236.5 218 234.6 221 230.5 223.5C225.5 226.6 217.6 228.5 209.1 228.2C198 227.8 187.6 224.3 174 219.7C171.7 218.9 169.3 218.1 166.8 217.3C156.3 213.8 145 219.5 141.5 229.9C138 240.3 143.7 251.7 154.1 255.2C156 255.8 158.1 256.5 160.2 257.3C168.5 260.2 178.1 263.5 188.4 265.7V280.5C188.4 291.5 197.4 300.5 208.4 300.5C219.4 300.5 228.4 291.5 228.4 280.5V266.7C236.4 265 244.4 262.2 251.6 257.7C265.9 248.8 276.7 233.6 276.4 212.7C276.1 192.4 264.7 179.3 251.8 171.1C240.3 163.9 225.9 159.5 214.7 156.1L214 155.9C201.2 152 192.1 149.2 185.7 145.4C180.5 142.3 180.4 140.5 180.4 138.7C180.4 135 181.8 132.2 186.6 129.4C192 126.2 200.2 124.3 208.1 124.4C217.7 124.5 228.3 126.6 239.3 129.6C250 132.4 260.9 126.1 263.8 115.4C266.7 104.7 260.3 93.8 249.6 90.9C243.1 89.2 235.9 87.5 228.5 86.2V72.5Z" fill="#47535F"/>
</g>
<defs>
<clipPath id="clip0_104_1032">
<rect width="640" height="512" fill="white" transform="translate(0.5 0.5)"/>
</clipPath>
</defs>
</svg>
