<svg width="513" height="513" viewBox="0 0 513 513" fill="none" xmlns="http://www.w3.org/2000/svg">
<g clip-path="url(#clip0_104_1036)">
<path d="M256.499 448.5C397.899 448.5 512.499 355.4 512.499 240.5C512.499 125.6 397.899 32.5 256.499 32.5C115.099 32.5 0.499219 125.6 0.499219 240.5C0.499219 285.6 18.1992 327.3 48.1992 361.4C46.2992 385.9 36.7992 407.7 26.7992 424.3C21.2992 433.5 15.6992 440.9 11.5992 445.9C9.49922 448.4 7.89922 450.3 6.69922 451.6C6.09922 452.2 5.69922 452.7 5.39922 453L5.09922 453.3C0.499219 457.9 -0.800781 464.7 1.69922 470.7C4.19922 476.7 9.99922 480.6 16.4992 480.6C45.1992 480.6 74.0992 471.7 98.0992 461.3C120.999 451.3 140.499 439.4 152.399 430.7C184.199 442.2 219.399 448.6 256.499 448.6V448.5ZM203.399 177.3C209.899 175.1 217.099 177.4 221.299 182.9L256.499 229.8L291.699 182.9C295.799 177.4 302.999 175.1 309.599 177.3C316.199 179.5 320.499 185.6 320.499 192.5V288.5C320.499 297.3 313.299 304.5 304.499 304.5C295.699 304.5 288.499 297.3 288.499 288.5V240.5L269.299 266.1C266.299 270.1 261.499 272.5 256.499 272.5C251.499 272.5 246.699 270.1 243.699 266.1L224.499 240.5V288.5C224.499 297.3 217.299 304.5 208.499 304.5C199.699 304.5 192.499 297.3 192.499 288.5V192.5C192.499 185.6 196.899 179.5 203.399 177.3ZM376.499 215.3C376.499 215.5 376.499 215.7 376.499 215.7C376.599 215.8 377.099 216.5 378.699 217.4C382.599 219.7 388.299 221.5 396.999 224.2L397.599 224.4C404.999 226.6 414.899 229.6 422.799 234.6C431.899 240.3 440.199 249.8 440.399 264.5C440.599 279.5 432.799 290.5 422.599 296.8C413.099 302.7 401.699 304.7 391.899 304.4C379.699 304 368.199 300 359.299 297C357.899 296.5 356.599 296.1 355.299 295.6C346.899 292.8 342.399 283.7 345.199 275.4C347.999 267.1 357.099 262.5 365.399 265.3C367.099 265.9 368.699 266.4 370.299 266.9C379.399 270 385.899 272.2 392.899 272.4C398.199 272.6 402.899 271.4 405.699 269.6C406.899 268.8 407.499 268.1 407.799 267.6C407.999 267.2 408.399 266.4 408.399 264.9V264.7C408.399 264 408.399 263.3 405.699 261.6C401.899 259.2 396.099 257.3 387.699 254.7L386.499 254.3C379.299 252.1 369.799 249.3 362.199 244.7C353.199 239.3 344.499 230 344.499 215.3C344.399 200.1 353.099 189.6 362.999 183.7C372.399 178.2 383.499 176.2 392.699 176.3C402.699 176.5 412.399 178.6 420.599 180.7C429.099 183 434.199 191.7 431.899 200.3C429.599 208.9 420.899 213.9 412.299 211.6C404.999 209.7 398.199 208.3 392.199 208.2C387.299 208.1 382.399 209.3 379.299 211.1C377.899 211.9 377.199 212.7 376.899 213.1C376.699 213.4 376.499 213.9 376.499 215V215.3ZM104.499 215.3C104.499 215.5 104.499 215.7 104.499 215.7C104.599 215.8 105.099 216.5 106.699 217.4C110.599 219.7 116.299 221.5 124.999 224.2L125.599 224.4C132.999 226.6 142.899 229.6 150.799 234.6C159.899 240.3 168.199 249.8 168.399 264.5C168.599 279.5 160.799 290.5 150.599 296.8C141.099 302.7 129.699 304.7 119.899 304.4C107.599 304 95.6992 299.9 86.6992 296.8C85.3992 296.4 84.1992 296 83.0992 295.6C74.6992 292.8 70.1992 283.7 72.9992 275.4C75.7992 267.1 84.8992 262.5 93.1992 265.3C94.5992 265.8 95.9992 266.2 97.2992 266.7C106.799 269.9 113.799 272.3 120.999 272.5C126.299 272.7 130.999 271.5 133.799 269.7C134.999 268.9 135.599 268.2 135.899 267.7C136.099 267.3 136.499 266.5 136.499 265V264.8C136.499 264.1 136.499 263.4 133.799 261.7C129.999 259.3 124.199 257.4 115.799 254.8L114.599 254.4C107.399 252.2 97.8992 249.4 90.2992 244.8C81.2992 239.5 72.5992 230.2 72.4992 215.5C72.3992 200.3 81.0992 189.8 90.9992 183.9C100.399 178.4 111.499 176.4 120.699 176.5C130.199 176.6 142.899 178.6 151.799 180.9C160.299 183.2 165.399 191.9 163.099 200.5C160.799 209.1 152.099 214.1 143.499 211.8C136.899 210 126.699 208.5 120.199 208.4C115.299 208.3 110.399 209.5 107.299 211.3C105.899 212.1 105.199 212.9 104.899 213.3C104.699 213.6 104.499 214.1 104.499 215.2V215.3Z" fill="#47535F"/>
</g>
<defs>
<clipPath id="clip0_104_1036">
<rect width="512" height="512" fill="white" transform="translate(0.5 0.5)"/>
</clipPath>
</defs>
</svg>
