<svg width="513" height="513" viewBox="0 0 513 513" fill="none" xmlns="http://www.w3.org/2000/svg">
<g clip-path="url(#clip0_104_1024)">
<path d="M256.5 448.5C397.9 448.5 512.5 355.4 512.5 240.5C512.5 125.6 397.9 32.5 256.5 32.5C115.1 32.5 0.500196 125.6 0.500196 240.5C0.500196 285.6 18.2002 327.3 48.2002 361.4C46.3002 385.9 36.8002 407.7 26.8002 424.3C21.3002 433.5 15.7002 440.9 11.6002 445.9C9.5002 448.4 7.9002 450.3 6.7002 451.6C6.1002 452.2 5.7002 452.7 5.4002 453L5.1002 453.3C0.500196 457.9 -0.799804 464.7 1.7002 470.7C4.2002 476.7 10.0002 480.6 16.5002 480.6C45.2002 480.6 74.1002 471.7 98.1002 461.3C121 451.3 140.5 439.4 152.4 430.7C184.2 442.2 219.4 448.6 256.5 448.6V448.5ZM276.5 136.5V150.4C284 151.6 291.1 153.3 297.6 155.1C308.3 157.9 314.6 168.9 311.8 179.6C309 190.3 298 196.6 287.3 193.8C276.3 190.9 265.7 188.8 256.1 188.6C248.2 188.5 240.1 190.4 234.6 193.6C229.8 196.4 228.4 199.2 228.4 202.9C228.4 204.7 228.5 206.4 233.7 209.6C240 213.4 249.2 216.3 262 220.1L262.7 220.3C273.9 223.7 288.3 228 299.8 235.3C312.7 243.4 324.1 256.6 324.4 276.9C324.7 297.8 313.9 313 299.6 321.9C292.4 326.4 284.4 329.2 276.4 330.9V344.5C276.4 355.5 267.4 364.5 256.4 364.5C245.4 364.5 236.4 355.5 236.4 344.5V329.9C226.1 327.7 216.4 324.4 208.2 321.5C206.1 320.8 204.1 320.1 202.1 319.4C191.6 315.9 186 304.6 189.5 294.1C193 283.6 204.3 278 214.8 281.5C217.3 282.3 219.7 283.2 222 283.9C235.6 288.5 246 292 257.1 292.4C265.7 292.7 273.6 290.8 278.5 287.7C282.6 285.2 284.5 282.2 284.4 277.2C284.4 274.3 283.6 272.2 278.5 269C272.2 265 263.1 262.1 250.5 258.3L248.8 257.8C237.9 254.5 224.2 250.4 213.2 243.8C200.5 236.1 188.6 223.3 188.5 203.1C188.4 182 200.3 167.4 214.3 159.2C221.2 155.1 228.8 152.4 236.5 150.7V136.5C236.5 125.5 245.5 116.5 256.5 116.5C267.5 116.5 276.5 125.5 276.5 136.5Z" fill="#47535F"/>
</g>
<defs>
<clipPath id="clip0_104_1024">
<rect width="512" height="512" fill="white" transform="translate(0.5 0.5)"/>
</clipPath>
</defs>
</svg>
