<svg width="513" height="513" viewBox="0 0 513 513" fill="none" xmlns="http://www.w3.org/2000/svg">
<g clip-path="url(#clip0_104_1022)">
<path d="M512.5 240.5C512.5 355.4 397.9 448.5 256.5 448.5C219.4 448.5 184.2 442.1 152.4 430.6C140.5 439.3 121.1 451.2 98.1004 461.2C74.1004 471.6 45.2004 480.5 16.5004 480.5C10.0004 480.5 4.20036 476.6 1.70036 470.6C-0.799642 464.6 0.600358 457.8 5.10036 453.2L5.40036 452.9C5.70036 452.6 6.10036 452.2 6.70036 451.5C7.80036 450.3 9.50036 448.4 11.6004 445.8C15.7004 440.8 21.2004 433.4 26.8004 424.2C36.8004 407.6 46.3004 385.8 48.2004 361.3C18.2004 327.3 0.500358 285.6 0.500358 240.5C0.500358 125.6 115.1 32.5 256.5 32.5C397.9 32.5 512.5 125.6 512.5 240.5Z" fill="#47535F"/>
</g>
<defs>
<clipPath id="clip0_104_1022">
<rect width="512" height="512" fill="white" transform="translate(0.5 0.5)"/>
</clipPath>
</defs>
</svg>
