<svg width="449" height="513" viewBox="0 0 449 513" fill="none" xmlns="http://www.w3.org/2000/svg">
<g clip-path="url(#clip0_104_1044)">
<path d="M160.5 64.5C160.5 46.8 146.2 32.5 128.5 32.5C110.8 32.5 96.5 46.8 96.5 64.5V128.5H32.5C14.8 128.5 0.5 142.8 0.5 160.5C0.5 178.2 14.8 192.5 32.5 192.5H128.5C146.2 192.5 160.5 178.2 160.5 160.5V64.5ZM32.5 320.5C14.8 320.5 0.5 334.8 0.5 352.5C0.5 370.2 14.8 384.5 32.5 384.5H96.5V448.5C96.5 466.2 110.8 480.5 128.5 480.5C146.2 480.5 160.5 466.2 160.5 448.5V352.5C160.5 334.8 146.2 320.5 128.5 320.5H32.5ZM352.5 64.5C352.5 46.8 338.2 32.5 320.5 32.5C302.8 32.5 288.5 46.8 288.5 64.5V160.5C288.5 178.2 302.8 192.5 320.5 192.5H416.5C434.2 192.5 448.5 178.2 448.5 160.5C448.5 142.8 434.2 128.5 416.5 128.5H352.5V64.5ZM320.5 320.5C302.8 320.5 288.5 334.8 288.5 352.5V448.5C288.5 466.2 302.8 480.5 320.5 480.5C338.2 480.5 352.5 466.2 352.5 448.5V384.5H416.5C434.2 384.5 448.5 370.2 448.5 352.5C448.5 334.8 434.2 320.5 416.5 320.5H320.5Z" fill="#47535F"/>
</g>
<defs>
<clipPath id="clip0_104_1044">
<rect width="448" height="512" fill="white" transform="translate(0.5 0.5)"/>
</clipPath>
</defs>
</svg>
