<svg width="513" height="513" viewBox="0 0 513 513" fill="none" xmlns="http://www.w3.org/2000/svg">
<g clip-path="url(#clip0_104_1038)">
<path d="M0.5 256.5C0.5 188.605 27.4714 123.49 75.4807 75.4807C123.49 27.4714 188.605 0.5 256.5 0.5C324.395 0.5 389.51 27.4714 437.519 75.4807C485.529 123.49 512.5 188.605 512.5 256.5C512.5 324.395 485.529 389.51 437.519 437.519C389.51 485.529 324.395 512.5 256.5 512.5C188.605 512.5 123.49 485.529 75.4807 437.519C27.4714 389.51 0.5 324.395 0.5 256.5ZM256.5 288.5C248.013 288.5 239.874 285.129 233.873 279.127C227.871 273.126 224.5 264.987 224.5 256.5C224.5 248.013 227.871 239.874 233.873 233.873C239.874 227.871 248.013 224.5 256.5 224.5C264.987 224.5 273.126 227.871 279.127 233.873C285.129 239.874 288.5 248.013 288.5 256.5C288.5 264.987 285.129 273.126 279.127 279.127C273.126 285.129 264.987 288.5 256.5 288.5ZM160.5 256.5C160.5 281.961 170.614 306.379 188.618 324.382C206.621 342.386 231.039 352.5 256.5 352.5C281.961 352.5 306.379 342.386 324.382 324.382C342.386 306.379 352.5 281.961 352.5 256.5C352.5 231.039 342.386 206.621 324.382 188.618C306.379 170.614 281.961 160.5 256.5 160.5C231.039 160.5 206.621 170.614 188.618 188.618C170.614 206.621 160.5 231.039 160.5 256.5ZM96.5 240.5C96.5 205.5 114 169.4 141.7 141.7C169.4 114 205.5 96.5 240.5 96.5C249.3 96.5 256.5 89.3 256.5 80.5C256.5 71.7 249.3 64.5 240.5 64.5C195.1 64.5 151.3 86.8 119 119C86.7 151.2 64.5 195.1 64.5 240.5C64.5 249.3 71.7 256.5 80.5 256.5C89.3 256.5 96.5 249.3 96.5 240.5Z" fill="#47535F"/>
</g>
<defs>
<clipPath id="clip0_104_1038">
<rect width="512" height="512" fill="white" transform="translate(0.5 0.5)"/>
</clipPath>
</defs>
</svg>
