<svg width="513" height="513" viewBox="0 0 513 513" fill="none" xmlns="http://www.w3.org/2000/svg">
<g clip-path="url(#clip0_104_1042)">
<path d="M352.5 96.5C352.5 110.8 349.4 124.4 343.7 136.7L396.5 227.9C372.8 253.2 342.3 272 308 281.5L256.5 192.5L188.5 310C210 316.8 232.8 320.5 256.6 320.5C327.3 320.5 390.4 287.8 431.5 236.5C442.6 222.7 462.7 220.5 476.5 231.5C490.3 242.5 492.5 262.7 481.5 276.5C428.6 342.3 347.5 384.5 256.5 384.5C221.1 384.5 187.1 378.1 155.8 366.4L99.2 464.2C94.5 472.3 87.5 478.9 79.1 483.1L23.7 510.8C18.7 513.3 12.8 513 8.1 510.1C3.4 507.2 0.5 502 0.5 496.5V441.1C0.5 432.7 2.7 424.4 7 417L67 313.3C54.2 302.1 42.3 289.8 31.7 276.5C20.6 262.7 22.9 242.6 36.7 231.5C50.5 220.4 70.6 222.7 81.7 236.5C87.4 243.6 93.5 250.3 99.9 256.6L169.3 136.7C163.7 124.5 160.5 110.9 160.5 96.5C160.5 43.5 203.5 0.5 256.5 0.5C309.5 0.5 352.5 43.5 352.5 96.5ZM373.5 394.4C406.1 381.6 436 363.6 462.4 341.5L506.1 417C510.3 424.3 512.6 432.6 512.6 441.1V496.5C512.6 502 509.7 507.2 505 510.1C500.3 513 494.4 513.3 489.4 510.8L434 483.1C425.6 478.9 418.6 472.3 413.9 464.2L373.5 394.4ZM256.5 128.5C264.987 128.5 273.126 125.129 279.127 119.127C285.129 113.126 288.5 104.987 288.5 96.5C288.5 88.0131 285.129 79.8737 279.127 73.8726C273.126 67.8714 264.987 64.5 256.5 64.5C248.013 64.5 239.874 67.8714 233.873 73.8726C227.871 79.8737 224.5 88.0131 224.5 96.5C224.5 104.987 227.871 113.126 233.873 119.127C239.874 125.129 248.013 128.5 256.5 128.5Z" fill="#47535F"/>
</g>
<defs>
<clipPath id="clip0_104_1042">
<rect width="512" height="512" fill="white" transform="translate(0.5 0.5)"/>
</clipPath>
</defs>
</svg>
