<svg width="513" height="513" viewBox="0 0 513 513" fill="none" xmlns="http://www.w3.org/2000/svg">
<g clip-path="url(#clip0_104_1040)">
<path d="M256.5 512.5C324.395 512.5 389.51 485.529 437.519 437.519C485.529 389.51 512.5 324.395 512.5 256.5C512.5 188.605 485.529 123.49 437.519 75.4807C389.51 27.4714 324.395 0.5 256.5 0.5C188.605 0.5 123.49 27.4714 75.4807 75.4807C27.4714 123.49 0.5 188.605 0.5 256.5C0.5 324.395 27.4714 389.51 75.4807 437.519C123.49 485.529 188.605 512.5 256.5 512.5ZM307.2 325.6L162.9 381.1C143.5 388.6 124.4 369.5 131.9 350.1L187.4 205.8C190.7 197.3 197.3 190.7 205.8 187.4L350.1 131.9C369.5 124.4 388.6 143.5 381.1 162.9L325.6 307.2C322.4 315.7 315.7 322.3 307.2 325.6ZM288.5 256.5C288.5 248.013 285.129 239.874 279.127 233.873C273.126 227.871 264.987 224.5 256.5 224.5C248.013 224.5 239.874 227.871 233.873 233.873C227.871 239.874 224.5 248.013 224.5 256.5C224.5 264.987 227.871 273.126 233.873 279.127C239.874 285.129 248.013 288.5 256.5 288.5C264.987 288.5 273.126 285.129 279.127 279.127C285.129 273.126 288.5 264.987 288.5 256.5Z" fill="#47535F"/>
</g>
<defs>
<clipPath id="clip0_104_1040">
<rect width="512" height="512" fill="white" transform="translate(0.5 0.5)"/>
</clipPath>
</defs>
</svg>
