<svg width="641" height="513" viewBox="0 0 641 513" fill="none" xmlns="http://www.w3.org/2000/svg">
<g clip-path="url(#clip0_104_1046)">
<path d="M384.5 96.5V320.5H64.5V96.5H384.5ZM64.5 32.5C29.2 32.5 0.5 61.2 0.5 96.5V320.5C0.5 355.8 29.2 384.5 64.5 384.5H181.8L171.1 416.5H96.5C78.8 416.5 64.5 430.8 64.5 448.5C64.5 466.2 78.8 480.5 96.5 480.5H352.5C370.2 480.5 384.5 466.2 384.5 448.5C384.5 430.8 370.2 416.5 352.5 416.5H277.8L267.1 384.5H384.5C419.8 384.5 448.5 355.8 448.5 320.5V96.5C448.5 61.2 419.8 32.5 384.5 32.5H64.5ZM528.5 32.5C502 32.5 480.5 54 480.5 80.5V432.5C480.5 459 502 480.5 528.5 480.5H592.5C619 480.5 640.5 459 640.5 432.5V80.5C640.5 54 619 32.5 592.5 32.5H528.5ZM544.5 96.5H576.5C585.3 96.5 592.5 103.7 592.5 112.5C592.5 121.3 585.3 128.5 576.5 128.5H544.5C535.7 128.5 528.5 121.3 528.5 112.5C528.5 103.7 535.7 96.5 544.5 96.5ZM528.5 176.5C528.5 167.7 535.7 160.5 544.5 160.5H576.5C585.3 160.5 592.5 167.7 592.5 176.5C592.5 185.3 585.3 192.5 576.5 192.5H544.5C535.7 192.5 528.5 185.3 528.5 176.5ZM560.5 336.5C568.987 336.5 577.126 339.871 583.127 345.873C589.129 351.874 592.5 360.013 592.5 368.5C592.5 376.987 589.129 385.126 583.127 391.127C577.126 397.129 568.987 400.5 560.5 400.5C552.013 400.5 543.874 397.129 537.873 391.127C531.871 385.126 528.5 376.987 528.5 368.5C528.5 360.013 531.871 351.874 537.873 345.873C543.874 339.871 552.013 336.5 560.5 336.5Z" fill="#47535F"/>
</g>
<defs>
<clipPath id="clip0_104_1046">
<rect width="640" height="512" fill="white" transform="translate(0.5 0.5)"/>
</clipPath>
</defs>
</svg>
