<svg width="513" height="513" viewBox="0 0 513 513" fill="none" xmlns="http://www.w3.org/2000/svg">
<path d="M258 28.1C257.2 22.7 253.1 18.3 247.7 17.5C225.6 14.4 203.1 18.4 183.3 28.9L109.3 68.4C89.5996 78.9 73.6996 95.4 63.8996 115.5L27.1996 191.1C17.3996 211.2 14.1996 234 18.0996 256L32.5996 338.8C36.4996 360.9 47.1996 381.1 63.2996 396.7L123.6 455.1C139.7 470.7 160.2 480.7 182.3 483.8L265.3 495.5C287.4 498.6 309.9 494.6 329.7 484.1L403.7 444.6C423.4 434.1 439.3 417.6 449.1 397.4L485.8 321.9C495.6 301.8 498.8 279 494.9 257C494 251.7 489.6 247.7 484.3 246.9C432.8 238.7 391.5 199.8 379.8 149.5C378 141.9 371.8 136.1 364.1 134.9C309.5 126.2 266.4 82.9 257.9 28.1H258ZM208.5 144.5C216.987 144.5 225.126 147.871 231.127 153.873C237.128 159.874 240.5 168.013 240.5 176.5C240.5 184.987 237.128 193.126 231.127 199.127C225.126 205.129 216.987 208.5 208.5 208.5C200.013 208.5 191.873 205.129 185.872 199.127C179.871 193.126 176.5 184.987 176.5 176.5C176.5 168.013 179.871 159.874 185.872 153.873C191.873 147.871 200.013 144.5 208.5 144.5ZM144.5 336.5C144.5 328.013 147.871 319.874 153.872 313.873C159.873 307.871 168.013 304.5 176.5 304.5C184.987 304.5 193.126 307.871 199.127 313.873C205.128 319.874 208.5 328.013 208.5 336.5C208.5 344.987 205.128 353.126 199.127 359.127C193.126 365.129 184.987 368.5 176.5 368.5C168.013 368.5 159.873 365.129 153.872 359.127C147.871 353.126 144.5 344.987 144.5 336.5ZM368.5 272.5C376.987 272.5 385.126 275.871 391.127 281.873C397.128 287.874 400.5 296.013 400.5 304.5C400.5 312.987 397.128 321.126 391.127 327.127C385.126 333.129 376.987 336.5 368.5 336.5C360.013 336.5 351.873 333.129 345.872 327.127C339.871 321.126 336.5 312.987 336.5 304.5C336.5 296.013 339.871 287.874 345.872 281.873C351.873 275.871 360.013 272.5 368.5 272.5Z" fill="#47535F"/>
</svg>
