<svg width="513" height="513" viewBox="0 0 513 513" fill="none" xmlns="http://www.w3.org/2000/svg">
<g clip-path="url(#clip0_104_1056)">
<path d="M256.5 512.5C324.395 512.5 389.51 485.529 437.519 437.519C485.529 389.51 512.5 324.395 512.5 256.5C512.5 188.605 485.529 123.49 437.519 75.4807C389.51 27.4714 324.395 0.5 256.5 0.5C188.605 0.5 123.49 27.4714 75.4807 75.4807C27.4714 123.49 0.5 188.605 0.5 256.5C0.5 324.395 27.4714 389.51 75.4807 437.519C123.49 485.529 188.605 512.5 256.5 512.5ZM199.9 313.1C231.1 344.3 281.8 344.3 313 313.1C322.4 303.7 337.6 303.7 346.9 313.1C356.2 322.5 356.3 337.7 346.9 347C296.9 397 215.9 397 165.9 347C115.9 297 115.9 216 165.9 166C215.9 116 296.9 116 346.9 166C356.3 175.4 356.3 190.6 346.9 199.9C337.5 209.2 322.3 209.3 313 199.9C281.8 168.7 231.1 168.7 199.9 199.9C168.7 231.1 168.7 281.8 199.9 313V313.1Z" fill="#47535F"/>
</g>
<defs>
<clipPath id="clip0_104_1056">
<rect width="512" height="512" fill="white" transform="translate(0.5 0.5)"/>
</clipPath>
</defs>
</svg>
