<svg width="449" height="513" viewBox="0 0 449 513" fill="none" xmlns="http://www.w3.org/2000/svg">
<g clip-path="url(#clip0_104_1054)">
<path d="M208.5 0.5H332.6C345.3 0.5 357.5 5.6 366.5 14.6L434.4 82.5C443.4 91.5 448.5 103.7 448.5 116.4V336.5C448.5 363 427 384.5 400.5 384.5H208.5C182 384.5 160.5 363 160.5 336.5V48.5C160.5 22 182 0.5 208.5 0.5ZM48.5 128.5H128.5V192.5H64.5V448.5H256.5V416.5H320.5V464.5C320.5 491 299 512.5 272.5 512.5H48.5C22 512.5 0.5 491 0.5 464.5V176.5C0.5 150 22 128.5 48.5 128.5Z" fill="#47535F"/>
</g>
<defs>
<clipPath id="clip0_104_1054">
<rect width="448" height="512" fill="white" transform="translate(0.5 0.5)"/>
</clipPath>
</defs>
</svg>
