<svg width="641" height="513" viewBox="0 0 641 513" fill="none" xmlns="http://www.w3.org/2000/svg">
<g clip-path="url(#clip0_104_1058)">
<path d="M64.5 160.5C64.5 89.8 121.8 32.5 192.5 32.5H448.5C519.2 32.5 576.5 89.8 576.5 160.5V194.1C540 201.5 512.5 233.8 512.5 272.5V320.5H128.5V272.5C128.5 233.8 101 201.5 64.5 194.1V160.5ZM544.5 272.5C544.5 251.6 557.9 233.8 576.5 227.2C581.5 225.4 586.9 224.5 592.5 224.5C619 224.5 640.5 246 640.5 272.5V448.5C640.5 466.2 626.2 480.5 608.5 480.5H576.5C558.8 480.5 544.5 466.2 544.5 448.5H96.5C96.5 466.2 82.2 480.5 64.5 480.5H32.5C14.8 480.5 0.5 466.2 0.5 448.5V272.5C0.5 246 22 224.5 48.5 224.5C54.1 224.5 59.5 225.5 64.5 227.2C83.1 233.8 96.5 251.6 96.5 272.5V320.5V352.5H128.5H512.5H544.5V320.5V272.5Z" fill="#47535F"/>
</g>
<defs>
<clipPath id="clip0_104_1058">
<rect width="640" height="512" fill="white" transform="translate(0.5 0.5)"/>
</clipPath>
</defs>
</svg>
