<svg width="641" height="513" viewBox="0 0 641 513" fill="none" xmlns="http://www.w3.org/2000/svg">
<g clip-path="url(#clip0_104_1060)">
<path d="M96.5 224.5V256.5V416.5C96.5 434.2 110.8 448.5 128.5 448.5H160.5C178.2 448.5 192.5 434.2 192.5 416.5V328.3C202.4 334.9 213.1 340.3 224.5 344.4V368.5C224.5 377.3 231.7 384.5 240.5 384.5C249.3 384.5 256.5 377.3 256.5 368.5V351.6C261.8 352.2 267.1 352.5 272.5 352.5C277.9 352.5 283.2 352.2 288.5 351.6V368.5C288.5 377.3 295.7 384.5 304.5 384.5C313.3 384.5 320.5 377.3 320.5 368.5V344.3C331.9 340.3 342.6 334.9 352.5 328.2V416.5C352.5 434.2 366.8 448.5 384.5 448.5H416.5C434.2 448.5 448.5 434.2 448.5 416.5V256.5L480.5 288.5V338C480.5 347.5 483.3 356.7 488.6 364.6L530.5 427.5C539.3 440.6 554 448.5 569.8 448.5C592.3 448.5 611.7 432.6 616.1 410.5L636.4 308.9C639 295.9 636.1 282.4 628.4 271.6L624.5 266.1V184.5C624.5 171.2 613.8 160.5 600.5 160.5C587.2 160.5 576.5 171.2 576.5 184.5V198.9L523.6 124.8C496.5 87 452.9 64.5 406.4 64.5H272.5H256.5H192.5H144.5C78.2 64.5 24.5 118.2 24.5 184.5V238.5C9.9 250.3 0.5 268.3 0.5 288.5V306.1C0.5 314.1 6.9 320.5 14.9 320.5C46.7 320.5 72.5 294.7 72.5 262.9V256.5V224.5V184.5C72.5 160.2 84.6 138.7 103 125.6C98.8 136.4 96.5 148.2 96.5 160.5V224.5ZM560.5 336.5C560.5 332.257 562.186 328.187 565.186 325.186C568.187 322.186 572.257 320.5 576.5 320.5C580.743 320.5 584.813 322.186 587.814 325.186C590.814 328.187 592.5 332.257 592.5 336.5C592.5 340.743 590.814 344.813 587.814 347.814C584.813 350.814 580.743 352.5 576.5 352.5C572.257 352.5 568.187 350.814 565.186 347.814C562.186 344.813 560.5 340.743 560.5 336.5ZM167.1 167.1C162.9 162.9 160.5 157.1 160.5 151.1C160.5 138.6 170.6 128.5 183.1 128.5H361.9C374.4 128.5 384.5 138.6 384.5 151.1C384.5 157.1 382.1 162.9 377.9 167.1L354.5 190.5C332.7 212.3 303.2 224.5 272.5 224.5C241.8 224.5 212.3 212.3 190.6 190.6L167.2 167.2L167.1 167.1Z" fill="#47535F"/>
</g>
<defs>
<clipPath id="clip0_104_1060">
<rect width="640" height="512" fill="white" transform="translate(0.5 0.5)"/>
</clipPath>
</defs>
</svg>
