<svg width="577" height="513" viewBox="0 0 577 513" fill="none" xmlns="http://www.w3.org/2000/svg">
<g clip-path="url(#clip0_104_1062)">
<path d="M64.5 32.5C29.2 32.5 0.5 61.2 0.5 96.5V128.5H576.5V96.5C576.5 61.2 547.8 32.5 512.5 32.5H64.5ZM576.5 224.5H0.5V416.5C0.5 451.8 29.2 480.5 64.5 480.5H512.5C547.8 480.5 576.5 451.8 576.5 416.5V224.5ZM112.5 352.5H176.5C185.3 352.5 192.5 359.7 192.5 368.5C192.5 377.3 185.3 384.5 176.5 384.5H112.5C103.7 384.5 96.5 377.3 96.5 368.5C96.5 359.7 103.7 352.5 112.5 352.5ZM224.5 368.5C224.5 359.7 231.7 352.5 240.5 352.5H368.5C377.3 352.5 384.5 359.7 384.5 368.5C384.5 377.3 377.3 384.5 368.5 384.5H240.5C231.7 384.5 224.5 377.3 224.5 368.5Z" fill="#47535F"/>
</g>
<defs>
<clipPath id="clip0_104_1062">
<rect width="576" height="512" fill="white" transform="translate(0.5 0.5)"/>
</clipPath>
</defs>
</svg>
