<svg width="513" height="513" viewBox="0 0 513 513" fill="none" xmlns="http://www.w3.org/2000/svg">
<g clip-path="url(#clip0_104_1064)">
<path d="M448.5 109.8L503.1 55.2C515.6 42.7 515.6 22.4 503.1 9.9C490.6 -2.6 470.3 -2.6 457.8 9.9L403.2 64.5H160.5V128.5H339.2L128.5 339.2V32.5C128.5 14.8 114.2 0.5 96.5 0.5C78.8 0.5 64.5 14.8 64.5 32.5V64.5H32.5C14.8 64.5 0.5 78.8 0.5 96.5C0.5 114.2 14.8 128.5 32.5 128.5H64.5V384.5C64.5 419.8 93.2 448.5 128.5 448.5H352.5V384.5H173.8L384.5 173.8V480.5C384.5 498.2 398.8 512.5 416.5 512.5C434.2 512.5 448.5 498.2 448.5 480.5V448.5H480.5C498.2 448.5 512.5 434.2 512.5 416.5C512.5 398.8 498.2 384.5 480.5 384.5H448.5V109.8Z" fill="#47535F"/>
</g>
<defs>
<clipPath id="clip0_104_1064">
<rect width="512" height="512" fill="white" transform="translate(0.5 0.5)"/>
</clipPath>
</defs>
</svg>
