<svg width="513" height="513" viewBox="0 0 513 513" fill="none" xmlns="http://www.w3.org/2000/svg">
<g clip-path="url(#clip0_104_1070)">
<path d="M256.5 0.5C274.2 0.5 288.5 14.8 288.5 32.5V42.9C382.2 56.8 456.2 130.9 470.1 224.5H480.5C498.2 224.5 512.5 238.8 512.5 256.5C512.5 274.2 498.2 288.5 480.5 288.5H470.1C456.2 382.2 382.1 456.2 288.5 470.1V480.5C288.5 498.2 274.2 512.5 256.5 512.5C238.8 512.5 224.5 498.2 224.5 480.5V470.1C130.8 456.2 56.8 382.2 42.9 288.5H32.5C14.8 288.5 0.5 274.2 0.5 256.5C0.5 238.8 14.8 224.5 32.5 224.5H42.9C56.8 130.8 130.8 56.8 224.5 42.9V32.5C224.5 14.8 238.8 0.5 256.5 0.5ZM107.9 288.5C120.4 346.8 166.3 392.6 224.5 405.1V384.5C224.5 366.8 238.8 352.5 256.5 352.5C274.2 352.5 288.5 366.8 288.5 384.5V405.1C346.8 392.6 392.6 346.7 405.1 288.5H384.5C366.8 288.5 352.5 274.2 352.5 256.5C352.5 238.8 366.8 224.5 384.5 224.5H405.1C392.6 166.2 346.8 120.4 288.5 107.9V128.5C288.5 146.2 274.2 160.5 256.5 160.5C238.8 160.5 224.5 146.2 224.5 128.5V107.9C166.2 120.4 120.4 166.2 107.9 224.5H128.5C146.2 224.5 160.5 238.8 160.5 256.5C160.5 274.2 146.2 288.5 128.5 288.5H107.9ZM256.5 224.5C264.987 224.5 273.126 227.871 279.127 233.873C285.129 239.874 288.5 248.013 288.5 256.5C288.5 264.987 285.129 273.126 279.127 279.127C273.126 285.129 264.987 288.5 256.5 288.5C248.013 288.5 239.874 285.129 233.873 279.127C227.871 273.126 224.5 264.987 224.5 256.5C224.5 248.013 227.871 239.874 233.873 233.873C239.874 227.871 248.013 224.5 256.5 224.5Z" fill="#47535F"/>
</g>
<defs>
<clipPath id="clip0_104_1070">
<rect width="512" height="512" fill="white" transform="translate(0.5 0.5)"/>
</clipPath>
</defs>
</svg>
