<svg width="385" height="513" viewBox="0 0 385 513" fill="none" xmlns="http://www.w3.org/2000/svg">
<g clip-path="url(#clip0_104_1068)">
<path d="M176.5 0.5C150 0.5 128.5 22 128.5 48.5V128.5H48.5C22 128.5 0.5 150 0.5 176.5V208.5C0.5 235 22 256.5 48.5 256.5H128.5V464.5C128.5 491 150 512.5 176.5 512.5H208.5C235 512.5 256.5 491 256.5 464.5V256.5H336.5C363 256.5 384.5 235 384.5 208.5V176.5C384.5 150 363 128.5 336.5 128.5H256.5V48.5C256.5 22 235 0.5 208.5 0.5H176.5Z" fill="#47535F"/>
</g>
<defs>
<clipPath id="clip0_104_1068">
<rect width="384" height="512" fill="white" transform="translate(0.5 0.5)"/>
</clipPath>
</defs>
</svg>
