<svg width="641" height="513" viewBox="0 0 641 513" fill="none" xmlns="http://www.w3.org/2000/svg">
<g clip-path="url(#clip0_104_1072)">
<path d="M456.5 0.5C407.9 0.5 368.5 39.9 368.5 88.5V117.7L12.9999 391.1C-1.00007 401.9 -3.60007 422 7.09993 436C17.7999 450 37.9999 452.6 51.9999 441.9L126.6 384.5H259.7L306.3 497.6C311.3 509.9 325.4 515.7 337.6 510.7C349.8 505.7 355.7 491.6 350.7 479.4L311.6 384.5H352.5C353.6 384.5 354.6 384.5 355.7 384.5L402.3 497.7C407.3 510 421.4 515.8 433.6 510.8C445.8 505.8 451.7 491.7 446.7 479.5L404.7 377.5C485.4 354.6 544.5 280.5 544.5 192.5V128.5V120.5L625 100.4C633.6 98.3 638.8 89.6 636.6 81C629.5 52.5 603.9 32.5 574.5 32.5H524.4C508.2 13 483.8 0.5 456.5 0.5ZM456.5 64.5C459.652 64.5 462.773 65.1208 465.684 66.3269C468.596 67.533 471.242 69.3008 473.47 71.5294C475.699 73.758 477.467 76.4038 478.673 79.3156C479.879 82.2274 480.5 85.3483 480.5 88.5C480.5 91.6517 479.879 94.7726 478.673 97.6844C477.467 100.596 475.699 103.242 473.47 105.471C471.242 107.699 468.596 109.467 465.684 110.673C462.773 111.879 459.652 112.5 456.5 112.5C453.348 112.5 450.227 111.879 447.316 110.673C444.404 109.467 441.758 107.699 439.529 105.471C437.301 103.242 435.533 100.596 434.327 97.6844C433.121 94.7726 432.5 91.6517 432.5 88.5C432.5 85.3483 433.121 82.2274 434.327 79.3156C435.533 76.4038 437.301 73.758 439.529 71.5294C441.758 69.3008 444.404 67.533 447.316 66.3269C450.227 65.1208 453.348 64.5 456.5 64.5Z" fill="#47535F"/>
</g>
<defs>
<clipPath id="clip0_104_1072">
<rect width="640" height="512" fill="white" transform="translate(0.5 0.5)"/>
</clipPath>
</defs>
</svg>
