<svg width="513" height="513" viewBox="0 0 513 513" fill="none" xmlns="http://www.w3.org/2000/svg">
<g clip-path="url(#clip0_104_1076)">
<path d="M297.9 9.8999C285.4 22.3999 285.4 42.6999 297.9 55.1999L457.9 215.2C470.4 227.7 490.7 227.7 503.2 215.2C515.7 202.7 515.7 182.4 503.2 169.9L343.2 9.8999C330.7 -2.6001 310.4 -2.6001 297.9 9.8999ZM201.9 153.9L167.1 188.7C154.2 201.6 145.2 217.9 141.3 235.8L117.3 343.4C116 349.3 113 354.8 108.7 359.1L9.8999 457.9C-2.6001 470.4 -2.6001 490.7 9.8999 503.2C22.3999 515.7 42.6999 515.7 55.1999 503.2L154 404.4C158.3 400.1 163.7 397.1 169.7 395.8L277.3 371.9C295.1 367.9 311.4 359 324.4 346.1L359.1 311.4L359.2 311.3L359.3 311.2L433.9 236.6L388.6 191.3L336.5 243.2L269.8 176.5L321.9 124.4L276.6 79.0999L201.9 153.8V153.9ZM224.5 221.8L291.2 288.5L279 300.7C274.7 305 269.3 308 263.3 309.3L186.6 326.3L203.6 249.6C204.9 243.7 207.9 238.2 212.2 233.9L224.5 221.8Z" fill="#47535F"/>
</g>
<defs>
<clipPath id="clip0_104_1076">
<rect width="512" height="512" fill="white" transform="translate(0.5 0.5)"/>
</clipPath>
</defs>
</svg>
