<svg width="449" height="513" viewBox="0 0 449 513" fill="none" xmlns="http://www.w3.org/2000/svg">
<path d="M96.5 256.5C96.5 168.1 168.1 96.5 256.5 96.5C297.5 96.5 334.8 111.9 363.2 137.2C376.4 149 396.6 147.9 408.4 134.7C420.2 121.5 419.1 101.3 405.9 89.5C366.3 54 313.9 32.5 256.6 32.5C132.8 32.5 32.5 132.8 32.5 256.5C32.5 380.2 132.8 480.5 256.5 480.5C313.9 480.5 366.2 458.9 405.8 423.5C419 411.7 420.1 391.5 408.3 378.3C396.5 365.1 376.3 364 363.1 375.8C334.8 401.1 297.5 416.5 256.5 416.5V320.5V311.8C256.5 299 266.9 288.5 279.8 288.5C284.4 288.5 288.9 289.9 292.7 292.4L302.8 299.1C317.5 308.9 337.4 304.9 347.2 290.2C357 275.5 353 255.6 338.3 245.8L328.2 239.1C313.9 229.5 297 224.4 279.8 224.4C267.4 224.4 255.6 227 244.9 231.7C239.4 227.2 232.3 224.4 224.6 224.4C206.9 224.4 192.6 238.7 192.6 256.4V311.7V320.5V403.2C136 378.5 96.5 322.1 96.5 256.5Z" fill="#47535F"/>
</svg>
