<svg width="513" height="513" viewBox="0 0 513 513" fill="none" xmlns="http://www.w3.org/2000/svg">
<g clip-path="url(#clip0_104_1080)">
<path d="M235 6.19995C248.9 1.19995 264.1 1.19995 278.1 6.19995L470.1 74.8C495.5 83.9 512.5 108 512.5 135.1V377.9C512.5 404.9 495.5 429.1 470 438.2L278 506.8C264.1 511.8 248.9 511.8 234.9 506.8L42.9 438.2C17.5 429.1 0.5 405 0.5 377.9V135.1C0.5 108.1 17.5 83.9 43 74.8L235 6.19995ZM256.5 66.5L82.8 128.5L256.5 190.5L430.2 128.5L256.5 66.5ZM288.5 435.1L448.5 378V190L288.5 247.1V435.1Z" fill="#47535F"/>
</g>
<defs>
<clipPath id="clip0_104_1080">
<rect width="512" height="512" fill="white" transform="translate(0.5 0.5)"/>
</clipPath>
</defs>
</svg>
