<svg width="577" height="513" viewBox="0 0 577 513" fill="none" xmlns="http://www.w3.org/2000/svg">
<g clip-path="url(#clip0_104_1082)">
<path d="M291.3 49.1001L369.7 78.8001L288.5 110L207.3 78.8001L285.7 49.1001C287.5 48.4001 289.5 48.4001 291.4 49.1001H291.3ZM136.5 93.0001V205.2C135.2 205.6 133.9 206 132.6 206.5L36.6 242.9C14.9 251.1 0.5 272 0.5 295.2V414.4C0.5 436.6 13.6 456.7 34 465.7L130 507.9C144.4 514.2 160.7 514.2 175.1 507.9L288.5 458L402 507.9C416.4 514.2 432.7 514.2 447.1 507.9L543.1 465.7C563.4 456.8 576.6 436.6 576.6 414.4V295.2C576.6 271.9 562.2 251.1 540.5 242.8L444.5 206.4C443.2 205.9 441.9 205.5 440.6 205.1V93.0001C440.6 69.7001 426.2 48.9001 404.5 40.6001L308.5 4.2001C295.7 -0.599902 281.6 -0.599902 268.8 4.2001L172.8 40.6001C150.9 48.9001 136.5 69.8001 136.5 93.0001ZM392.5 211.1L310.1 242.3V153.1L392.5 121.5V211.1ZM155.3 251.4L233.7 281.1L152.5 312.2L71.3 281.1L149.7 251.4C151.5 250.7 153.5 250.7 155.4 251.4H155.3ZM174.1 455.8V355.3L256.5 323.7V419.6L174.1 455.8ZM421.7 251.4C423.5 250.7 425.5 250.7 427.4 251.4L505.8 281.1L424.5 312.2L343.3 281.1L421.7 251.4ZM523.7 421.7L446.1 455.8V355.3L528.5 323.7V414.4C528.5 417.6 526.6 420.4 523.7 421.7Z" fill="#47535F"/>
</g>
<defs>
<clipPath id="clip0_104_1082">
<rect width="576" height="512" fill="white" transform="translate(0.5 0.5)"/>
</clipPath>
</defs>
</svg>
