<svg width="449" height="513" viewBox="0 0 449 513" fill="none" xmlns="http://www.w3.org/2000/svg">
<g clip-path="url(#clip0_104_1084)">
<path d="M192.5 64.5V128.5C192.5 146.2 206.8 160.5 224.5 160.5H288.5C306.2 160.5 320.5 146.2 320.5 128.5V64.5C320.5 46.8 306.2 32.5 288.5 32.5H224.5C206.8 32.5 192.5 46.8 192.5 64.5ZM83.2 207.5C67.9 216.3 62.7 235.9 71.5 251.2L103.5 306.6C112.3 321.9 131.9 327.1 147.2 318.3L202.6 286.3C217.9 277.5 223.1 257.9 214.3 242.6L182.3 187.2C173.5 171.9 153.9 166.7 138.6 175.5L83.2 207.5ZM288.5 192.5C270.8 192.5 256.5 206.8 256.5 224.5V288.5C256.5 306.2 270.8 320.5 288.5 320.5H352.5C370.2 320.5 384.5 306.2 384.5 288.5V224.5C384.5 206.8 370.2 192.5 352.5 192.5H288.5ZM352.5 352.5C334.8 352.5 320.5 366.8 320.5 384.5V448.5C320.5 466.2 334.8 480.5 352.5 480.5H416.5C434.2 480.5 448.5 466.2 448.5 448.5V384.5C448.5 366.8 434.2 352.5 416.5 352.5H352.5ZM160.5 384.5V448.5C160.5 466.2 174.8 480.5 192.5 480.5H256.5C274.2 480.5 288.5 466.2 288.5 448.5V384.5C288.5 366.8 274.2 352.5 256.5 352.5H192.5C174.8 352.5 160.5 366.8 160.5 384.5ZM32.5 352.5C14.8 352.5 0.5 366.8 0.5 384.5V448.5C0.5 466.2 14.8 480.5 32.5 480.5H96.5C114.2 480.5 128.5 466.2 128.5 448.5V384.5C128.5 366.8 114.2 352.5 96.5 352.5H32.5Z" fill="#47535F"/>
</g>
<defs>
<clipPath id="clip0_104_1084">
<rect width="448" height="512" fill="white" transform="translate(0.5 0.5)"/>
</clipPath>
</defs>
</svg>
