<svg width="449" height="513" viewBox="0 0 449 513" fill="none" xmlns="http://www.w3.org/2000/svg">
<g clip-path="url(#clip0_104_1088)">
<path d="M448.5 80.5V128.5C448.5 172.7 348.2 208.5 224.5 208.5C100.8 208.5 0.5 172.7 0.5 128.5V80.5C0.5 36.3 100.8 0.5 224.5 0.5C348.2 0.5 448.5 36.3 448.5 80.5ZM393.7 215.2C414.5 207.8 433.6 198.3 448.5 186.6V288.5C448.5 332.7 348.2 368.5 224.5 368.5C100.8 368.5 0.5 332.7 0.5 288.5V186.6C15.4 198.4 34.5 207.8 55.3 215.2C100.2 231.2 160 240.5 224.5 240.5C289 240.5 348.8 231.2 393.7 215.2ZM0.5 346.6C15.4 358.4 34.5 367.8 55.3 375.2C100.2 391.2 160 400.5 224.5 400.5C289 400.5 348.8 391.2 393.7 375.2C414.5 367.8 433.6 358.3 448.5 346.6V432.5C448.5 476.7 348.2 512.5 224.5 512.5C100.8 512.5 0.5 476.7 0.5 432.5V346.6Z" fill="#47535F"/>
</g>
<defs>
<clipPath id="clip0_104_1088">
<rect width="448" height="512" fill="white" transform="translate(0.5 0.5)"/>
</clipPath>
</defs>
</svg>
