<svg width="577" height="513" viewBox="0 0 577 513" fill="none" xmlns="http://www.w3.org/2000/svg">
<g clip-path="url(#clip0_104_1090)">
<path d="M576.5 128.5C576.5 93.2 547.8 64.5 512.5 64.5H205.8C188.8 64.5 172.5 71.2 160.5 83.2L9.9 233.9C3.9 239.9 0.5 248 0.5 256.5C0.5 265 3.9 273.1 9.9 279.1L160.5 429.8C172.5 441.8 188.8 448.5 205.8 448.5H512.5C547.8 448.5 576.5 419.8 576.5 384.5V128.5ZM271.5 175.5C280.9 166.1 296.1 166.1 305.4 175.5L352.4 222.5L399.4 175.5C408.8 166.1 424 166.1 433.3 175.5C442.6 184.9 442.7 200.1 433.3 209.4L386.3 256.4L433.3 303.4C442.7 312.8 442.7 328 433.3 337.3C423.9 346.6 408.7 346.7 399.4 337.3L352.4 290.3L305.4 337.3C296 346.7 280.8 346.7 271.5 337.3C262.2 327.9 262.1 312.7 271.5 303.4L318.5 256.4L271.5 209.4C262.1 200 262.1 184.8 271.5 175.5Z" fill="#47535F"/>
</g>
<defs>
<clipPath id="clip0_104_1090">
<rect width="576" height="512" fill="white" transform="translate(0.5 0.5)"/>
</clipPath>
</defs>
</svg>
