<svg width="641" height="513" viewBox="0 0 641 513" fill="none" xmlns="http://www.w3.org/2000/svg">
<g clip-path="url(#clip0_104_1092)">
<path d="M64.5 32.5C64.5 23.6 68.3 11.6 70.7 5.2C71.7 2.3 74.5 0.5 77.5 0.5C79.4 0.5 81.3 1.2 82.7 2.6L128.5 46.2L174.3 2.6C175.7 1.2 177.6 0.5 179.5 0.5C182.5 0.5 185.3 2.3 186.3 5.2C188.7 11.7 192.5 23.6 192.5 32.5C192.5 59 170.6 74.5 163 79.1L239.2 151.7C245.2 157.4 253.1 160.5 261.3 160.5H480.5H512.5C552.8 160.5 590.7 179.5 614.9 211.7L634.1 237.3C644.7 251.4 641.8 271.5 627.7 282.1C613.6 292.7 593.5 289.8 582.9 275.7L563.7 250.1C558.4 243.1 551.9 237.3 544.5 233.1V320.5H192.5L152.1 226.2C148.2 217 136.8 213.6 128.5 219.2L86.4 247.2C77.3 253.3 66.7 256.5 55.7 256.5H53.7C24.4 256.5 0.5 232.6 0.5 203.2C0.5 191.1 4.6 179.4 12.2 169.9L88.1 75.1C78.6 67.9 64.5 53.7 64.5 32.5ZM448.5 352.5H544.5V416.5V480.5C544.5 498.2 530.2 512.5 512.5 512.5H480.5C462.8 512.5 448.5 498.2 448.5 480.5V416.5H288.5V480.5C288.5 498.2 274.2 512.5 256.5 512.5H224.5C206.8 512.5 192.5 498.2 192.5 480.5V416.5V352.5H288.5H448.5ZM261.4 211.4C260.5 209.6 258.6 208.5 256.6 208.5C254.6 208.5 252.7 209.6 251.8 211.4L241.3 231.9L217.8 235.2C215.8 235.5 214.1 236.8 213.5 238.7C212.9 240.6 213.4 242.6 214.8 244L231.8 260L227.8 282.6C227.5 284.5 228.3 286.5 229.9 287.6C231.5 288.7 233.7 288.9 235.5 288L256.5 277.3L277.5 288C279.3 288.9 281.5 288.8 283.1 287.6C284.7 286.4 285.6 284.5 285.2 282.6L281.2 260L298.2 244C299.7 242.6 300.2 240.6 299.5 238.7C298.8 236.8 297.2 235.5 295.2 235.2L271.7 231.9L261.2 211.4H261.4ZM368.6 208.5C366.6 208.5 364.7 209.6 363.8 211.4L353.3 231.9L329.8 235.2C327.8 235.5 326.1 236.8 325.5 238.7C324.9 240.6 325.4 242.6 326.8 244L343.8 260L339.8 282.6C339.5 284.5 340.3 286.5 341.9 287.6C343.5 288.7 345.7 288.9 347.5 288L368.5 277.3L389.5 288C391.3 288.9 393.5 288.8 395.1 287.6C396.7 286.4 397.6 284.5 397.2 282.6L393.2 260L410.2 244C411.7 242.6 412.2 240.6 411.6 238.7C411 236.8 409.3 235.5 407.3 235.2L383.8 231.9L373.3 211.4C372.4 209.6 370.5 208.5 368.5 208.5H368.6ZM485.4 211.4C484.5 209.6 482.6 208.5 480.6 208.5C478.6 208.5 476.7 209.6 475.8 211.4L465.3 231.9L441.8 235.2C439.8 235.5 438.1 236.8 437.5 238.7C436.9 240.6 437.4 242.6 438.8 244L455.8 260L451.8 282.6C451.5 284.5 452.3 286.5 453.9 287.6C455.5 288.7 457.7 288.9 459.5 288L480.5 277.3L501.5 288C503.3 288.9 505.5 288.8 507.1 287.6C508.7 286.4 509.6 284.5 509.2 282.6L505.2 260L522.2 244C523.7 242.6 524.2 240.6 523.6 238.7C523 236.8 521.3 235.5 519.3 235.2L495.8 231.9L485.3 211.4H485.4Z" fill="#47535F"/>
</g>
<defs>
<clipPath id="clip0_104_1092">
<rect width="640" height="512" fill="white" transform="translate(0.5 0.5)"/>
</clipPath>
</defs>
</svg>
