<svg width="513" height="513" viewBox="0 0 513 513" fill="none" xmlns="http://www.w3.org/2000/svg">
<g clip-path="url(#clip0_104_1096)">
<path d="M338.3 206.2L386.9 163.7C400.7 183 410.3 205.6 414.3 229.9L349.9 234.2C347.5 224.1 343.5 214.7 338.3 206.2ZM478.4 225.7C473.1 186.9 457.8 151.2 435.2 121.4L436 120.7C449.5 108.9 450.2 88.1 437.5 75.5C424.8 62.9 404.1 63.5 392.3 77L391.6 77.8C361.8 55.2 326.1 39.9 287.3 34.6L287.4 33.5C288.6 15.6 274.4 0.5 256.5 0.5C238.6 0.5 224.4 15.7 225.6 33.5L225.7 34.6C186.9 39.9 151.2 55.2 121.4 77.8L120.7 77C108.9 63.5 88.1 62.8 75.5 75.5C62.9 88.2 63.5 108.9 77 120.7L77.8 121.4C55.2 151.2 39.9 186.9 34.6 225.7L33.5 225.6C15.6 224.4 0.5 238.6 0.5 256.5C0.5 274.4 15.7 288.6 33.5 287.4L34.6 287.3C39.9 326.1 55.2 361.8 77.8 391.6L77 392.3C63.5 404.1 62.8 424.9 75.5 437.5C88.2 450.1 108.9 449.5 120.7 436L121.4 435.2C151.2 457.8 186.9 473.1 225.7 478.4L225.6 479.5C224.4 497.4 238.6 512.5 256.5 512.5C274.4 512.5 288.6 497.3 287.4 479.5L287.3 478.4C326.1 473.1 361.8 457.8 391.6 435.2L392.3 436C404.1 449.5 424.8 450.2 437.5 437.5C450.2 424.8 449.5 404.1 436 392.3L435.2 391.6C457.8 361.8 473.1 326.1 478.4 287.3L479.5 287.4C497.4 288.6 512.5 274.4 512.5 256.5C512.5 238.6 497.3 224.4 479.5 225.6L478.4 225.7ZM163.7 126.1C183 112.3 205.6 102.7 229.9 98.6L234.2 163C224.2 165.4 214.7 169.4 206.2 174.6L163.7 126V126.1ZM98.7 229.9C102.8 205.5 112.4 183 126.2 163.7L174.8 206.2C169.5 214.7 165.6 224.2 163.2 234.2L98.8 229.9H98.7ZM126.2 349.3C112.4 330 102.8 307.4 98.7 283.1L163.1 278.8C165.5 288.8 169.5 298.3 174.7 306.8L126.1 349.3H126.2ZM230 414.3C205.6 410.2 183.1 400.6 163.8 386.9L206.3 338.3C214.8 343.6 224.3 347.5 234.3 349.9L230 414.3ZM349.4 386.9C330.1 400.7 307.5 410.3 283.2 414.3L278.9 349.9C288.9 347.5 298.4 343.5 306.9 338.3L349.4 386.9ZM414.4 283.1C410.3 307.5 400.7 330 387 349.3L338.4 306.8C343.7 298.3 347.6 288.8 350 278.8L414.4 283.1ZM349.4 126.2L306.9 174.8C298.4 169.5 288.9 165.6 278.9 163.2L283.2 98.8C307.6 102.9 330.1 112.5 349.4 126.3V126.2ZM256.5 224.5C264.987 224.5 273.126 227.871 279.127 233.873C285.129 239.874 288.5 248.013 288.5 256.5C288.5 264.987 285.129 273.126 279.127 279.127C273.126 285.129 264.987 288.5 256.5 288.5C248.013 288.5 239.874 285.129 233.873 279.127C227.871 273.126 224.5 264.987 224.5 256.5C224.5 248.013 227.871 239.874 233.873 233.873C239.874 227.871 248.013 224.5 256.5 224.5Z" fill="#47535F"/>
</g>
<defs>
<clipPath id="clip0_104_1096">
<rect width="512" height="512" fill="white" transform="translate(0.5 0.5)"/>
</clipPath>
</defs>
</svg>
