<svg width="513" height="513" viewBox="0 0 513 513" fill="none" xmlns="http://www.w3.org/2000/svg">
<g clip-path="url(#clip0_104_1100)">
<path d="M448.5 416.5V352.5H64.5V416.5H448.5ZM448.5 480.5H64.5C29.2 480.5 0.5 451.8 0.5 416.5V352.5C0.5 317.2 29.2 288.5 64.5 288.5H448.5C483.8 288.5 512.5 317.2 512.5 352.5V416.5C512.5 451.8 483.8 480.5 448.5 480.5ZM288.5 160.5C288.5 195.8 259.8 224.5 224.5 224.5H64.5C29.2 224.5 0.5 195.8 0.5 160.5V96.5C0.5 61.2 29.2 32.5 64.5 32.5H208.5H224.5H368.5C412.7 32.5 448.5 68.3 448.5 112.5V128.5H486.6C508 128.5 518.7 154.4 503.6 169.5L433.5 239.5C424.1 248.9 408.9 248.9 399.6 239.5L329.5 169.5C314.4 154.4 325.1 128.5 346.5 128.5H384.6V112.5C384.6 103.7 377.4 96.5 368.6 96.5H288.6V160.5H288.5Z" fill="#47535F"/>
</g>
<defs>
<clipPath id="clip0_104_1100">
<rect width="512" height="512" fill="white" transform="translate(0.5 0.5)"/>
</clipPath>
</defs>
</svg>
