<svg width="577" height="513" viewBox="0 0 577 513" fill="none" xmlns="http://www.w3.org/2000/svg">
<g clip-path="url(#clip0_104_1102)">
<path d="M0.5 80.5C0.5 54 22 32.5 48.5 32.5H144.5C171 32.5 192.5 54 192.5 80.5V96.5H384.5V80.5C384.5 54 406 32.5 432.5 32.5H528.5C555 32.5 576.5 54 576.5 80.5V176.5C576.5 203 555 224.5 528.5 224.5H432.5C406 224.5 384.5 203 384.5 176.5V160.5H192.5V176.5C192.5 178.2 192.4 179.9 192.2 181.5L272.5 288.5H368.5C395 288.5 416.5 310 416.5 336.5V432.5C416.5 459 395 480.5 368.5 480.5H272.5C246 480.5 224.5 459 224.5 432.5V336.5C224.5 334.8 224.6 333.1 224.8 331.5L144.5 224.5H48.5C22 224.5 0.5 203 0.5 176.5V80.5Z" fill="#47535F"/>
</g>
<defs>
<clipPath id="clip0_104_1102">
<rect width="576" height="512" fill="white" transform="translate(0.5 0.5)"/>
</clipPath>
</defs>
</svg>
