<svg width="513" height="513" viewBox="0 0 513 513" fill="none" xmlns="http://www.w3.org/2000/svg">
<g clip-path="url(#clip0_104_1104)">
<path d="M512.5 416.5V352.5C512.5 317.2 483.8 288.5 448.5 288.5H64.5C29.2 288.5 0.5 317.2 0.5 352.5V416.5C0.5 451.8 29.2 480.5 64.5 480.5H448.5C483.8 480.5 512.5 451.8 512.5 416.5ZM64.5 160.5V96.5H208.5H224.5V160.5H64.5ZM288.5 160.5V96.5H368.5C377.3 96.5 384.5 103.7 384.5 112.5V128.5H346.4C325 128.5 314.3 154.4 329.4 169.5L399.5 239.5C408.9 248.9 424.1 248.9 433.4 239.5L503.5 169.5C518.6 154.4 507.9 128.5 486.5 128.5H448.5V112.5C448.5 68.3 412.7 32.5 368.5 32.5H224.5H208.5H64.5C29.2 32.5 0.5 61.2 0.5 96.5V160.5C0.5 195.8 29.2 224.5 64.5 224.5H224.5C259.8 224.5 288.5 195.8 288.5 160.5Z" fill="#47535F"/>
</g>
<defs>
<clipPath id="clip0_104_1104">
<rect width="512" height="512" fill="white" transform="translate(0.5 0.5)"/>
</clipPath>
</defs>
</svg>
