<svg width="513" height="513" viewBox="0 0 513 513" fill="none" xmlns="http://www.w3.org/2000/svg">
<g clip-path="url(#clip0_104_1098)">
<path d="M512.5 160.5C512.5 195.8 483.8 224.5 448.5 224.5H280.5V288.5H326.6C348 288.5 358.7 314.4 343.6 329.5L273.5 399.5C264.1 408.9 248.9 408.9 239.6 399.5L169.5 329.5C154.4 314.4 165.1 288.5 186.5 288.5H232.5V224.5H64.5C29.2 224.5 0.5 195.8 0.5 160.5V96.5C0.5 61.2 29.2 32.5 64.5 32.5H448.5C483.8 32.5 512.5 61.2 512.5 96.5V160.5ZM448.5 416.5V352.5H365.8L366.2 352.1C384.6 333.7 386.6 308.4 377.2 288.5H448.5C483.8 288.5 512.5 317.2 512.5 352.5V416.5C512.5 451.8 483.8 480.5 448.5 480.5H64.5C29.2 480.5 0.5 451.8 0.5 416.5V352.5C0.5 317.2 29.2 288.5 64.5 288.5H135.8C126.4 308.4 128.4 333.7 146.8 352.1L147.2 352.5H64.5V416.5H211.2L216.9 422.2C238.8 444.1 274.2 444.1 296.1 422.2L301.8 416.5H448.5Z" fill="#47535F"/>
</g>
<defs>
<clipPath id="clip0_104_1098">
<rect width="512" height="512" fill="white" transform="translate(0.5 0.5)"/>
</clipPath>
</defs>
</svg>
