<svg width="513" height="513" viewBox="0 0 513 513" fill="none" xmlns="http://www.w3.org/2000/svg">
<g clip-path="url(#clip0_104_1108)">
<path d="M228.2 12.2C243.8 -3.4 269.1 -3.4 284.8 12.2L500.8 228.2C516.4 243.8 516.4 269.1 500.8 284.8L284.8 500.8C269.2 516.4 243.9 516.4 228.2 500.8L12.2 284.8C-3.4 269.2 -3.4 243.9 12.2 228.2L228.2 12.2ZM315.8 149.2C311.2 144.6 304.3 143.3 298.4 145.7C292.5 148.1 288.5 154 288.5 160.5V216.5H224.5C189.2 216.5 160.5 245.2 160.5 280.5V328.5C160.5 341.8 171.2 352.5 184.5 352.5C197.8 352.5 208.5 341.8 208.5 328.5V280.5C208.5 271.7 215.7 264.5 224.5 264.5H288.5V320.5C288.5 327 292.4 332.8 298.4 335.3C304.4 337.8 311.3 336.4 315.8 331.8L395.8 251.8C402 245.6 402 235.4 395.8 229.2L315.8 149.2Z" fill="#47535F"/>
</g>
<defs>
<clipPath id="clip0_104_1108">
<rect width="512" height="512" fill="white" transform="translate(0.5 0.5)"/>
</clipPath>
</defs>
</svg>
