<svg width="449" height="513" viewBox="0 0 449 513" fill="none" xmlns="http://www.w3.org/2000/svg">
<g clip-path="url(#clip0_104_1116)">
<path d="M64.5 32.5C29.2 32.5 0.5 61.2 0.5 96.5V416.5C0.5 451.8 29.2 480.5 64.5 480.5H384.5C419.8 480.5 448.5 451.8 448.5 416.5V96.5C448.5 61.2 419.8 32.5 384.5 32.5H64.5ZM128.5 128.5C136.987 128.5 145.126 131.871 151.127 137.873C157.129 143.874 160.5 152.013 160.5 160.5C160.5 168.987 157.129 177.126 151.127 183.127C145.126 189.129 136.987 192.5 128.5 192.5C120.013 192.5 111.874 189.129 105.873 183.127C99.8714 177.126 96.5 168.987 96.5 160.5C96.5 152.013 99.8714 143.874 105.873 137.873C111.874 131.871 120.013 128.5 128.5 128.5ZM96.5 352.5C96.5 344.013 99.8714 335.874 105.873 329.873C111.874 323.871 120.013 320.5 128.5 320.5C136.987 320.5 145.126 323.871 151.127 329.873C157.129 335.874 160.5 344.013 160.5 352.5C160.5 360.987 157.129 369.126 151.127 375.127C145.126 381.129 136.987 384.5 128.5 384.5C120.013 384.5 111.874 381.129 105.873 375.127C99.8714 369.126 96.5 360.987 96.5 352.5ZM224.5 224.5C232.987 224.5 241.126 227.871 247.127 233.873C253.129 239.874 256.5 248.013 256.5 256.5C256.5 264.987 253.129 273.126 247.127 279.127C241.126 285.129 232.987 288.5 224.5 288.5C216.013 288.5 207.874 285.129 201.873 279.127C195.871 273.126 192.5 264.987 192.5 256.5C192.5 248.013 195.871 239.874 201.873 233.873C207.874 227.871 216.013 224.5 224.5 224.5ZM288.5 160.5C288.5 152.013 291.871 143.874 297.873 137.873C303.874 131.871 312.013 128.5 320.5 128.5C328.987 128.5 337.126 131.871 343.127 137.873C349.129 143.874 352.5 152.013 352.5 160.5C352.5 168.987 349.129 177.126 343.127 183.127C337.126 189.129 328.987 192.5 320.5 192.5C312.013 192.5 303.874 189.129 297.873 183.127C291.871 177.126 288.5 168.987 288.5 160.5ZM320.5 320.5C328.987 320.5 337.126 323.871 343.127 329.873C349.129 335.874 352.5 344.013 352.5 352.5C352.5 360.987 349.129 369.126 343.127 375.127C337.126 381.129 328.987 384.5 320.5 384.5C312.013 384.5 303.874 381.129 297.873 375.127C291.871 369.126 288.5 360.987 288.5 352.5C288.5 344.013 291.871 335.874 297.873 329.873C303.874 323.871 312.013 320.5 320.5 320.5Z" fill="#47535F"/>
</g>
<defs>
<clipPath id="clip0_104_1116">
<rect width="448" height="512" fill="white" transform="translate(0.5 0.5)"/>
</clipPath>
</defs>
</svg>
