<svg width="449" height="513" viewBox="0 0 449 513" fill="none" xmlns="http://www.w3.org/2000/svg">
<g clip-path="url(#clip0_104_1120)">
<path d="M64.5 32.5C29.2 32.5 0.5 61.2 0.5 96.5V416.5C0.5 451.8 29.2 480.5 64.5 480.5H384.5C419.8 480.5 448.5 451.8 448.5 416.5V96.5C448.5 61.2 419.8 32.5 384.5 32.5H64.5ZM224.5 224.5C232.987 224.5 241.126 227.871 247.127 233.873C253.129 239.874 256.5 248.013 256.5 256.5C256.5 264.987 253.129 273.126 247.127 279.127C241.126 285.129 232.987 288.5 224.5 288.5C216.013 288.5 207.874 285.129 201.873 279.127C195.871 273.126 192.5 264.987 192.5 256.5C192.5 248.013 195.871 239.874 201.873 233.873C207.874 227.871 216.013 224.5 224.5 224.5Z" fill="#47535F"/>
</g>
<defs>
<clipPath id="clip0_104_1120">
<rect width="448" height="512" fill="white" transform="translate(0.5 0.5)"/>
</clipPath>
</defs>
</svg>
