<svg width="641" height="513" viewBox="0 0 641 513" fill="none" xmlns="http://www.w3.org/2000/svg">
<g clip-path="url(#clip0_104_1110)">
<path d="M275.4 34.8001C247.3 6.7001 201.7 6.7001 173.6 34.8001L34.7996 173.6C6.69961 201.7 6.69961 247.3 34.7996 275.4L173.6 414.2C201.7 442.3 247.3 442.3 275.4 414.2L414.2 275.4C442.3 247.3 442.3 201.7 414.2 173.6L275.4 34.8001ZM200.5 224.5C200.5 218.135 203.028 212.03 207.529 207.53C212.03 203.029 218.134 200.5 224.5 200.5C230.865 200.5 236.969 203.029 241.47 207.53C245.971 212.03 248.5 218.135 248.5 224.5C248.5 230.865 245.971 236.97 241.47 241.471C236.969 245.972 230.865 248.5 224.5 248.5C218.134 248.5 212.03 245.972 207.529 241.471C203.028 236.97 200.5 230.865 200.5 224.5ZM96.4996 200.5C102.865 200.5 108.969 203.029 113.47 207.53C117.971 212.03 120.5 218.135 120.5 224.5C120.5 230.865 117.971 236.97 113.47 241.471C108.969 245.972 102.865 248.5 96.4996 248.5C90.1344 248.5 84.0299 245.972 79.529 241.471C75.0282 236.97 72.4996 230.865 72.4996 224.5C72.4996 218.135 75.0282 212.03 79.529 207.53C84.0299 203.029 90.1344 200.5 96.4996 200.5ZM224.5 376.5C218.134 376.5 212.03 373.972 207.529 369.471C203.028 364.97 200.5 358.865 200.5 352.5C200.5 346.135 203.028 340.03 207.529 335.53C212.03 331.029 218.134 328.5 224.5 328.5C230.865 328.5 236.969 331.029 241.47 335.53C245.971 340.03 248.5 346.135 248.5 352.5C248.5 358.865 245.971 364.97 241.47 369.471C236.969 373.972 230.865 376.5 224.5 376.5ZM352.5 200.5C358.865 200.5 364.969 203.029 369.47 207.53C373.971 212.03 376.5 218.135 376.5 224.5C376.5 230.865 373.971 236.97 369.47 241.471C364.969 245.972 358.865 248.5 352.5 248.5C346.134 248.5 340.03 245.972 335.529 241.471C331.028 236.97 328.5 230.865 328.5 224.5C328.5 218.135 331.028 212.03 335.529 207.53C340.03 203.029 346.134 200.5 352.5 200.5ZM224.5 120.5C218.134 120.5 212.03 117.972 207.529 113.471C203.028 108.97 200.5 102.865 200.5 96.5001C200.5 90.1349 203.028 84.0304 207.529 79.5295C212.03 75.0287 218.134 72.5001 224.5 72.5001C230.865 72.5001 236.969 75.0287 241.47 79.5295C245.971 84.0304 248.5 90.1349 248.5 96.5001C248.5 102.865 245.971 108.97 241.47 113.471C236.969 117.972 230.865 120.5 224.5 120.5ZM320.5 448.5C320.5 483.8 349.2 512.5 384.5 512.5H576.5C611.8 512.5 640.5 483.8 640.5 448.5V256.5C640.5 221.2 611.8 192.5 576.5 192.5H462.2C473.8 228.5 465.3 269.5 436.8 298L320.5 414.3V448.5ZM480.5 328.5C486.865 328.5 492.969 331.029 497.47 335.53C501.971 340.03 504.5 346.135 504.5 352.5C504.5 358.865 501.971 364.97 497.47 369.471C492.969 373.972 486.865 376.5 480.5 376.5C474.134 376.5 468.03 373.972 463.529 369.471C459.028 364.97 456.5 358.865 456.5 352.5C456.5 346.135 459.028 340.03 463.529 335.53C468.03 331.029 474.134 328.5 480.5 328.5Z" fill="#47535F"/>
</g>
<defs>
<clipPath id="clip0_104_1110">
<rect width="640" height="512" fill="white" transform="translate(0.5 0.5)"/>
</clipPath>
</defs>
</svg>
