<svg width="449" height="513" viewBox="0 0 449 513" fill="none" xmlns="http://www.w3.org/2000/svg">
<g clip-path="url(#clip0_104_1112)">
<path d="M201.5 10.8C215.8 2.99995 233.1 2.99995 247.5 10.8L422.8 106.5C427.9 109.3 431.1 114.7 431.1 120.5C431.1 126.3 427.9 131.7 422.8 134.5L232.2 238.5C227.4 241.1 221.7 241.1 216.9 238.5L26.2 134.5C21.1 131.7 17.9 126.3 17.9 120.5C17.9 114.7 21.1 109.3 26.2 106.5L201.5 10.8ZM24.2 170.5L200.2 266.5C205.3 269.3 208.5 274.7 208.5 280.5V496.5C208.5 502.1 205.5 507.4 200.7 510.3C195.9 513.2 189.8 513.3 184.9 510.6L25.5 423.6C10.1 415.2 0.5 399.1 0.5 381.5V184.5C0.5 178.9 3.5 173.6 8.3 170.7C13.1 167.8 19.2 167.7 24.1 170.4L24.2 170.5ZM424.9 170.5C429.9 167.8 435.9 167.9 440.7 170.8C445.5 173.7 448.5 178.9 448.5 184.6V381.5C448.5 399.1 438.9 415.2 423.5 423.6L264.2 510.5C259.2 513.2 253.2 513.1 248.4 510.2C243.6 507.3 240.6 502.1 240.6 496.4V280.5C240.6 274.6 243.8 269.3 248.9 266.5L424.9 170.5Z" fill="#47535F"/>
</g>
<defs>
<clipPath id="clip0_104_1112">
<rect width="448" height="512" fill="white" transform="translate(0.5 0.5)"/>
</clipPath>
</defs>
</svg>
