<svg width="513" height="513" viewBox="0 0 513 513" fill="none" xmlns="http://www.w3.org/2000/svg">
<g clip-path="url(#clip0_104_1114)">
<path d="M49.2 126.3L102.4 158.2C110.2 162.9 120.2 160.2 124.6 152.3L202.1 12.6C205.1 7.2 201.2 0.5 195 0.5C193.4 0.5 191.8 1 190.4 1.9L48.4 99.3C38.8 105.9 39.2 120.2 49.2 126.2V126.3ZM16.5 172.2V295.8C16.5 303.8 26.9 306.8 31.2 300.2L91.2 208.2C96.2 200.6 93.8 190.4 86 185.7L40.7 158.5C30.1 152.1 16.5 159.8 16.5 172.2ZM310.9 12.6L388.5 152.2C392.9 160.1 403 162.8 410.7 158.1L463.9 126.2C473.9 120.2 474.3 105.9 464.7 99.3L322.6 1.9C321.2 1 319.6 0.5 318 0.5C311.8 0.5 307.9 7.2 310.9 12.6ZM496.5 172.2C496.5 159.8 482.9 152.1 472.3 158.5L427 185.7C419.2 190.4 416.9 200.6 421.8 208.2L481.8 300.2C486.1 306.9 496.5 303.8 496.5 295.8V172.2ZM447.2 418.2L286.6 437.1C278.5 438 272.5 444.9 272.5 453V505.8C272.5 509.5 275.5 512.6 279.3 512.6C280.1 512.6 280.9 512.5 281.7 512.2L454.4 448.2C460.5 446 464.5 440.2 464.5 433.7C464.5 424.4 456.4 417.2 447.2 418.3V418.2ZM233.7 512.5C237.4 512.5 240.5 509.5 240.5 505.7V453.1C240.5 445 234.4 438.2 226.4 437.2L65.8 418.2C56.6 417.1 48.5 424.3 48.5 433.6C48.5 440.1 52.5 445.9 58.6 448.1L231.3 512.1C232.1 512.4 232.9 512.5 233.7 512.5ZM42.2 383.4L213.1 403.6C220.9 404.5 226.5 396.1 222.6 389.3L136.9 239.3C131 228.9 116.2 228.5 109.6 238.5L30.7 358.7C24.2 368.6 30.4 382 42.2 383.4ZM481.8 358.6L403.4 238.6C396.9 228.6 382 229 376.1 239.4L290.7 389C286.8 395.8 292.3 404.2 300.2 403.3L470.3 383.3C482.1 381.9 488.3 368.6 481.8 358.7V358.6ZM264.9 369.6L343.3 232.4C349.4 221.7 341.7 208.5 329.4 208.5H183.6C171.3 208.5 163.6 221.8 169.7 232.4L248.1 369.6C251.8 376 261.1 376 264.8 369.6H264.9ZM174.9 176.5H338.1C350.3 176.5 358 163.4 352.1 152.7L272.1 8.7C269.3 3.6 263.9 0.5 258.1 0.5H254.9C249.1 0.5 243.7 3.7 240.9 8.7L160.9 152.7C155 163.4 162.7 176.5 174.9 176.5Z" fill="#47535F"/>
</g>
<defs>
<clipPath id="clip0_104_1114">
<rect width="512" height="512" fill="white" transform="translate(0.5 0.5)"/>
</clipPath>
</defs>
</svg>
