<svg width="449" height="513" viewBox="0 0 449 513" fill="none" xmlns="http://www.w3.org/2000/svg">
<g clip-path="url(#clip0_104_1118)">
<path d="M0.5 96.5C0.5 61.2 29.2 32.5 64.5 32.5H384.5C419.8 32.5 448.5 61.2 448.5 96.5V416.5C448.5 451.8 419.8 480.5 384.5 480.5H64.5C29.2 480.5 0.5 451.8 0.5 416.5V96.5ZM160.5 160.5C160.5 152.013 157.129 143.874 151.127 137.873C145.126 131.871 136.987 128.5 128.5 128.5C120.013 128.5 111.874 131.871 105.873 137.873C99.8714 143.874 96.5 152.013 96.5 160.5C96.5 168.987 99.8714 177.126 105.873 183.127C111.874 189.129 120.013 192.5 128.5 192.5C136.987 192.5 145.126 189.129 151.127 183.127C157.129 177.126 160.5 168.987 160.5 160.5ZM128.5 384.5C136.987 384.5 145.126 381.129 151.127 375.127C157.129 369.126 160.5 360.987 160.5 352.5C160.5 344.013 157.129 335.874 151.127 329.873C145.126 323.871 136.987 320.5 128.5 320.5C120.013 320.5 111.874 323.871 105.873 329.873C99.8714 335.874 96.5 344.013 96.5 352.5C96.5 360.987 99.8714 369.126 105.873 375.127C111.874 381.129 120.013 384.5 128.5 384.5ZM352.5 160.5C352.5 152.013 349.129 143.874 343.127 137.873C337.126 131.871 328.987 128.5 320.5 128.5C312.013 128.5 303.874 131.871 297.873 137.873C291.871 143.874 288.5 152.013 288.5 160.5C288.5 168.987 291.871 177.126 297.873 183.127C303.874 189.129 312.013 192.5 320.5 192.5C328.987 192.5 337.126 189.129 343.127 183.127C349.129 177.126 352.5 168.987 352.5 160.5ZM320.5 384.5C328.987 384.5 337.126 381.129 343.127 375.127C349.129 369.126 352.5 360.987 352.5 352.5C352.5 344.013 349.129 335.874 343.127 329.873C337.126 323.871 328.987 320.5 320.5 320.5C312.013 320.5 303.874 323.871 297.873 329.873C291.871 335.874 288.5 344.013 288.5 352.5C288.5 360.987 291.871 369.126 297.873 375.127C303.874 381.129 312.013 384.5 320.5 384.5Z" fill="#47535F"/>
</g>
<defs>
<clipPath id="clip0_104_1118">
<rect width="448" height="512" fill="white" transform="translate(0.5 0.5)"/>
</clipPath>
</defs>
</svg>
