<svg width="513" height="513" viewBox="0 0 513 513" fill="none" xmlns="http://www.w3.org/2000/svg">
<g clip-path="url(#clip0_104_1128)">
<path d="M236.9 61.9L227.5 76C206.2 108 168.1 124.5 130.2 118.1L70.5998 108.2C33.8998 102.1 0.499833 130.4 0.599833 167.6C0.599833 183.5 6.99984 198.8 18.1998 210.1L47.3998 239.3C58.3998 250.3 64.5998 265.2 64.5998 280.8C64.5998 296.6 58.1998 311.7 46.8998 322.8L33.7998 335.6C22.6998 346.4 16.4998 361.2 16.4998 376.7C16.4998 413.5 50.5998 440.9 86.5998 432.9L148.9 419.1C156.6 417.4 164.6 416.5 172.5 416.5H182.5C209.7 416.5 236.2 425.8 257.5 442.8L288.3 467.5C298.8 475.9 311.9 480.5 325.3 480.5C358 480.5 384.6 454 384.6 421.2V396C384.6 361.1 406 329.8 438.5 317.2L475.4 302.9C497.8 294.2 512.6 272.6 512.6 248.6C512.6 220.5 492.5 196.3 464.8 191.3L436.8 186.2C400.3 179.5 371.4 151.7 363.2 115.5L356.1 84C349.4 53.9 322.6 32.5 291.8 32.5C269.8 32.5 249.2 43.5 236.9 61.9ZM160.5 192.5C168.987 192.5 177.126 195.871 183.127 201.873C189.128 207.874 192.5 216.013 192.5 224.5C192.5 232.987 189.128 241.126 183.127 247.127C177.126 253.129 168.987 256.5 160.5 256.5C152.013 256.5 143.874 253.129 137.872 247.127C131.871 241.126 128.5 232.987 128.5 224.5C128.5 216.013 131.871 207.874 137.872 201.873C143.874 195.871 152.013 192.5 160.5 192.5ZM288.5 208.5C288.5 204.257 290.186 200.187 293.186 197.186C296.187 194.186 300.256 192.5 304.5 192.5C308.743 192.5 312.813 194.186 315.814 197.186C318.814 200.187 320.5 204.257 320.5 208.5C320.5 212.743 318.814 216.813 315.814 219.814C312.813 222.814 308.743 224.5 304.5 224.5C300.256 224.5 296.187 222.814 293.186 219.814C290.186 216.813 288.5 212.743 288.5 208.5ZM288.5 288.5C296.987 288.5 305.126 291.871 311.127 297.873C317.128 303.874 320.5 312.013 320.5 320.5C320.5 328.987 317.128 337.126 311.127 343.127C305.126 349.129 296.987 352.5 288.5 352.5C280.013 352.5 271.874 349.129 265.872 343.127C259.871 337.126 256.5 328.987 256.5 320.5C256.5 312.013 259.871 303.874 265.872 297.873C271.874 291.871 280.013 288.5 288.5 288.5Z" fill="#47535F"/>
</g>
<defs>
<clipPath id="clip0_104_1128">
<rect width="512" height="512" fill="white" transform="translate(0.5 0.5)"/>
</clipPath>
</defs>
</svg>
