<svg width="577" height="513" viewBox="0 0 577 513" fill="none" xmlns="http://www.w3.org/2000/svg">
<g clip-path="url(#clip0_104_1130)">
<path d="M64.5 0.5C29.2 0.5 0.5 29.2 0.5 64.5V352.5C0.5 387.8 29.2 416.5 64.5 416.5H240.5L229.8 448.5H160.5C142.8 448.5 128.5 462.8 128.5 480.5C128.5 498.2 142.8 512.5 160.5 512.5H416.5C434.2 512.5 448.5 498.2 448.5 480.5C448.5 462.8 434.2 448.5 416.5 448.5H347.2L336.5 416.5H512.5C547.8 416.5 576.5 387.8 576.5 352.5V64.5C576.5 29.2 547.8 0.5 512.5 0.5H64.5ZM512.5 64.5V352.5H64.5V64.5H512.5Z" fill="#47535F"/>
</g>
<defs>
<clipPath id="clip0_104_1130">
<rect width="576" height="512" fill="white" transform="translate(0.5 0.5)"/>
</clipPath>
</defs>
</svg>
