<svg width="449" height="513" viewBox="0 0 449 513" fill="none" xmlns="http://www.w3.org/2000/svg">
<path d="M272.5 96.5C272.5 90.1965 271.258 83.9548 268.846 78.1312C266.434 72.3076 262.898 67.0161 258.441 62.5589C253.984 58.1017 248.692 54.566 242.869 52.1538C237.045 49.7416 230.803 48.5 224.5 48.5C218.197 48.5 211.955 49.7416 206.131 52.1538C200.308 54.566 195.016 58.1017 190.559 62.5589C186.102 67.0161 182.566 72.3076 180.154 78.1312C177.742 83.9548 176.5 90.1965 176.5 96.5C176.5 102.803 177.742 109.045 180.154 114.869C182.566 120.692 186.102 125.984 190.559 130.441C195.016 134.898 200.308 138.434 206.131 140.846C211.955 143.258 218.197 144.5 224.5 144.5C230.803 144.5 237.045 143.258 242.869 140.846C248.692 138.434 253.984 134.898 258.441 130.441C262.898 125.984 266.434 120.692 268.846 114.869C271.258 109.045 272.5 102.803 272.5 96.5ZM272.5 416.5C272.5 410.197 271.258 403.955 268.846 398.131C266.434 392.308 262.898 387.016 258.441 382.559C253.984 378.102 248.692 374.566 242.869 372.154C237.045 369.742 230.803 368.5 224.5 368.5C218.197 368.5 211.955 369.742 206.131 372.154C200.308 374.566 195.016 378.102 190.559 382.559C186.102 387.016 182.566 392.308 180.154 398.131C177.742 403.955 176.5 410.197 176.5 416.5C176.5 422.803 177.742 429.045 180.154 434.869C182.566 440.692 186.102 445.984 190.559 450.441C195.016 454.898 200.308 458.434 206.131 460.846C211.955 463.258 218.197 464.5 224.5 464.5C230.803 464.5 237.045 463.258 242.869 460.846C248.692 458.434 253.984 454.898 258.441 450.441C262.898 445.984 266.434 440.692 268.846 434.869C271.258 429.045 272.5 422.803 272.5 416.5ZM400.5 288.5C418.2 288.5 432.5 274.2 432.5 256.5C432.5 238.8 418.2 224.5 400.5 224.5H48.5C30.8 224.5 16.5 238.8 16.5 256.5C16.5 274.2 30.8 288.5 48.5 288.5H400.5Z" fill="#47535F"/>
</svg>
