<svg width="449" height="513" viewBox="0 0 449 513" fill="none" xmlns="http://www.w3.org/2000/svg">
<g clip-path="url(#clip0_104_1134)">
<path d="M416.5 0.5C434.2 0.5 448.5 14.8 448.5 32.5C448.5 92.3 418.2 140 379.1 179.1C351.1 207.1 316.6 232.6 281.8 256.5L279.3 258.2C267.4 266.3 255.5 274.3 243.8 282.1L242.2 283.1C236.2 287.1 230.3 291 224.4 295C203.5 309 183.6 322.7 165.1 336.5H283.8C274 329.1 263.7 321.8 253.1 314.4L260.1 309.7L263.1 307.7C278.2 297.6 294 287.1 309.8 276.1C334.8 294.2 358.7 313.4 379.2 333.8C418.2 373 448.5 420.7 448.5 480.5C448.5 498.2 434.2 512.5 416.5 512.5C398.8 512.5 384.5 498.2 384.5 480.5H64.5C64.5 498.2 50.2 512.5 32.5 512.5C14.8 512.5 0.5 498.2 0.5 480.5C0.5 420.7 30.8 373 69.9 333.9C97.9 305.9 132.4 280.4 167.2 256.5C132.4 232.6 97.9 207.2 69.9 179.1C30.8 140 0.5 92.3 0.5 32.5C0.5 14.8 14.8 0.5 32.5 0.5C50.2 0.5 64.5 14.8 64.5 32.5H384.5C384.5 14.8 398.8 0.5 416.5 0.5ZM339.1 384.5H109.9C99.8 395.1 91.3 405.8 84.4 416.5H364.6C357.8 405.8 349.3 395.1 339.1 384.5ZM109.9 128.5H339.1C349.2 117.8 357.7 107.2 364.6 96.5H84.4C91.2 107.2 99.7 117.8 109.9 128.5ZM165.3 176.5C183.7 190.3 203.7 204 224.6 218C245.5 204 265.4 190.3 283.9 176.5H165.2H165.3Z" fill="#47535F"/>
</g>
<defs>
<clipPath id="clip0_104_1134">
<rect width="448" height="512" fill="white" transform="translate(0.5 0.5)"/>
</clipPath>
</defs>
</svg>
