<svg width="577" height="513" viewBox="0 0 577 513" fill="none" xmlns="http://www.w3.org/2000/svg">
<g clip-path="url(#clip0_104_1136)">
<path d="M310.101 159L333.201 20.3C335.101 8.9 345.001 0.5 356.601 0.5C364.101 0.5 371.101 4 375.601 10L392.501 32.5H444.601C457.301 32.5 469.501 37.6 478.501 46.6L496.501 64.5H552.501C565.801 64.5 576.501 75.2 576.501 88.5V112.5C576.501 156.7 540.701 192.5 496.501 192.5H464.501H448.501H427.201L422.101 223L310.101 159ZM416.501 256.6V480.5C416.501 498.2 402.201 512.5 384.501 512.5H352.501C334.801 512.5 320.501 498.2 320.501 480.5V365.3C296.501 377.6 269.301 384.5 240.501 384.5C211.701 384.5 184.501 377.6 160.501 365.3V480.5C160.501 498.2 146.201 512.5 128.501 512.5H96.5009C78.8009 512.5 64.5009 498.2 64.5009 480.5V250.3C35.7009 239.4 13.1009 215 5.30092 183.8L1.50092 168.3C-2.79908 151.2 7.60092 133.8 24.8009 129.5C42.0009 125.2 59.3009 135.6 63.6009 152.8L67.5009 168.3C71.0009 182.5 83.8009 192.5 98.5009 192.5H128.501H144.501H304.301L416.501 256.6ZM464.501 80.5C464.501 76.2565 462.815 72.1869 459.815 69.1863C456.814 66.1857 452.744 64.5 448.501 64.5C444.257 64.5 440.188 66.1857 437.187 69.1863C434.187 72.1869 432.501 76.2565 432.501 80.5C432.501 84.7435 434.187 88.8131 437.187 91.8137C440.188 94.8143 444.257 96.5 448.501 96.5C452.744 96.5 456.814 94.8143 459.815 91.8137C462.815 88.8131 464.501 84.7435 464.501 80.5Z" fill="#47535F"/>
</g>
<defs>
<clipPath id="clip0_104_1136">
<rect width="576" height="512" fill="white" transform="translate(0.5 0.5)"/>
</clipPath>
</defs>
</svg>
