<svg width="321" height="513" viewBox="0 0 321 513" fill="none" xmlns="http://www.w3.org/2000/svg">
<g clip-path="url(#clip0_104_1138)">
<path d="M160.499 0.5C178.199 0.5 192.499 14.8 192.499 32.5V68.2C194.099 68.4 195.599 68.6 197.199 68.9C197.599 69 197.899 69 198.299 69.1L246.299 77.9C263.699 81.1 275.199 97.8 271.999 115.1C268.799 132.4 252.099 144 234.799 140.8L187.299 132.1C156 127.5 128.399 130.6 108.999 138.3C89.5995 146 81.7995 156.6 79.9995 166.4C77.9995 177.1 79.4995 183.1 81.1995 186.8C82.9995 190.7 86.6995 195.1 93.9995 200C110.299 210.7 135.299 217.7 167.699 226.3L170.6 227.1C199.2 234.7 234.2 243.9 260.2 260.9C274.4 270.2 287.799 282.8 296.099 300.4C304.599 318.3 306.399 338.3 302.499 359.6C295.599 397.6 269.399 423 236.899 436.3C223.199 441.9 208.299 445.5 192.499 447.3V480.5C192.499 498.2 178.199 512.5 160.499 512.5C142.799 512.5 128.499 498.2 128.499 480.5V445.6C128.099 445.5 127.599 445.5 127.199 445.4H126.999C102.599 441.6 62.4995 431.1 35.4995 419.1C19.3995 411.9 12.0995 393 19.2995 376.9C26.4995 360.8 45.3995 353.5 61.4995 360.7C82.3995 370 116.799 379.2 136.699 382.3C168.599 387 194.899 384.3 212.699 377C229.599 370.1 237.299 360.1 239.499 348.1C241.399 337.5 239.899 331.4 238.199 327.7C236.299 323.7 232.599 319.3 225.199 314.4C208.799 303.7 183.699 296.7 151.199 288.1L148.399 287.4C119.899 279.8 84.8995 270.5 58.8995 253.5C44.6995 244.2 31.3995 231.5 23.0995 213.9C14.6995 196 12.9995 176 16.9995 154.7C24.1995 116.5 52.7995 91.7 85.2995 78.8C98.5995 73.5 113.199 69.9 128.499 67.8V32.5C128.499 14.8 142.799 0.5 160.499 0.5Z" fill="#47535F"/>
</g>
<defs>
<clipPath id="clip0_104_1138">
<rect width="320" height="512" fill="white" transform="translate(0.5 0.5)"/>
</clipPath>
</defs>
</svg>
