<svg width="577" height="513" viewBox="0 0 577 513" fill="none" xmlns="http://www.w3.org/2000/svg">
<g clip-path="url(#clip0_104_1140)">
<path d="M0.5 32.5C0.5 14.8 14.8 0.5 32.5 0.5H105.4C132.9 0.5 157.4 18.1 166.1 44.3L258.2 320.5C288.3 321 315 335.4 332.2 357.5L534.3 290.1C551.1 284.5 569.2 293.6 574.8 310.3C580.4 327 571.3 345.2 554.6 350.8L352.5 418.2C351.6 470.4 309 512.5 256.5 512.5C203.5 512.5 160.5 469.5 160.5 416.5C160.5 385.7 175 358.3 197.5 340.7L105.4 64.5H32.5C14.8 64.5 0.5 50.2 0.5 32.5ZM245.3 135C239.8 118.2 249 100.1 265.8 94.7L311.5 79.9L331.3 140.8L392.2 121L372.3 60.1L418 45.3C434.8 39.8 452.9 49 458.3 65.8L507.7 218C513.2 234.8 504 252.9 487.2 258.3L335 307.7C318.2 313.2 300.1 304 294.7 287.2L245.3 135Z" fill="#47535F"/>
</g>
<defs>
<clipPath id="clip0_104_1140">
<rect width="576" height="512" fill="white" transform="translate(0.5 0.5)"/>
</clipPath>
</defs>
</svg>
