<svg width="385" height="513" viewBox="0 0 385 513" fill="none" xmlns="http://www.w3.org/2000/svg">
<g clip-path="url(#clip0_104_1142)">
<path d="M288.5 32.5C270.8 32.5 256.5 46.8 256.5 64.5H224.5C206.8 64.5 192.5 78.8 192.5 96.5C192.5 114.2 206.8 128.5 224.5 128.5H256.5V177.6C237.7 166.7 215.8 160.5 192.5 160.5C121.8 160.5 64.5 217.8 64.5 288.5C64.5 359.2 121.8 416.5 192.5 416.5C217 416.5 239.9 409.6 259.3 397.7C264.3 408.8 275.5 416.5 288.5 416.5C306.2 416.5 320.5 402.2 320.5 384.5V288.5V128.5C338.2 128.5 352.5 114.2 352.5 96.5C352.5 78.8 338.2 64.5 320.5 64.5C320.5 46.8 306.2 32.5 288.5 32.5ZM128.5 288.5C128.5 271.526 135.243 255.247 147.245 243.245C159.247 231.243 175.526 224.5 192.5 224.5C209.474 224.5 225.753 231.243 237.755 243.245C249.757 255.247 256.5 271.526 256.5 288.5C256.5 305.474 249.757 321.752 237.755 333.755C225.753 345.757 209.474 352.5 192.5 352.5C175.526 352.5 159.247 345.757 147.245 333.755C135.243 321.752 128.5 305.474 128.5 288.5ZM32.5 448.5C14.8 448.5 0.5 462.8 0.5 480.5C0.5 498.2 14.8 512.5 32.5 512.5H352.5C370.2 512.5 384.5 498.2 384.5 480.5C384.5 462.8 370.2 448.5 352.5 448.5H32.5Z" fill="#47535F"/>
</g>
<defs>
<clipPath id="clip0_104_1142">
<rect width="384" height="512" fill="white" transform="translate(0.5 0.5)"/>
</clipPath>
</defs>
</svg>
