<svg width="577" height="513" viewBox="0 0 577 513" fill="none" xmlns="http://www.w3.org/2000/svg">
<g clip-path="url(#clip0_104_1144)">
<path d="M96.5 64.5C96.5 29.2 125.2 0.5 160.5 0.5H416.5C451.8 0.5 480.5 29.2 480.5 64.5V448.5H544.5C562.2 448.5 576.5 462.8 576.5 480.5C576.5 498.2 562.2 512.5 544.5 512.5H432.5H144.5H32.5C14.8 512.5 0.5 498.2 0.5 480.5C0.5 462.8 14.8 448.5 32.5 448.5H96.5V64.5ZM384.5 288.5C392.987 288.5 401.126 285.129 407.127 279.127C413.129 273.126 416.5 264.987 416.5 256.5C416.5 248.013 413.129 239.874 407.127 233.873C401.126 227.871 392.987 224.5 384.5 224.5C376.013 224.5 367.874 227.871 361.873 233.873C355.871 239.874 352.5 248.013 352.5 256.5C352.5 264.987 355.871 273.126 361.873 279.127C367.874 285.129 376.013 288.5 384.5 288.5Z" fill="#47535F"/>
</g>
<defs>
<clipPath id="clip0_104_1144">
<rect width="576" height="512" fill="white" transform="translate(0.5 0.5)"/>
</clipPath>
</defs>
</svg>
