<svg width="577" height="513" viewBox="0 0 577 513" fill="none" xmlns="http://www.w3.org/2000/svg">
<g clip-path="url(#clip0_104_1146)">
<path d="M320.5 32.5C320.5 22.6 316 13.3 308.2 7.29998C300.4 1.29998 290.3 -0.900018 280.7 1.49998L100.8 46.5C79.5 51.8 64.5 71 64.5 93V448.5H32.5C14.8 448.5 0.5 462.8 0.5 480.5C0.5 498.2 14.8 512.5 32.5 512.5H96.5H288.5H320.5V480.5V32.5ZM256.5 256.5C256.5 274.2 245.8 288.5 232.5 288.5C219.2 288.5 208.5 274.2 208.5 256.5C208.5 238.8 219.2 224.5 232.5 224.5C245.8 224.5 256.5 238.8 256.5 256.5ZM352.5 128.5H448.5V480.5C448.5 498.2 462.8 512.5 480.5 512.5H544.5C562.2 512.5 576.5 498.2 576.5 480.5C576.5 462.8 562.2 448.5 544.5 448.5H512.5V128.5C512.5 93.2 483.8 64.5 448.5 64.5H352.5V128.5Z" fill="#47535F"/>
</g>
<defs>
<clipPath id="clip0_104_1146">
<rect width="576" height="512" fill="white" transform="translate(0.5 0.5)"/>
</clipPath>
</defs>
</svg>
