<svg width="513" height="513" viewBox="0 0 513 513" fill="none" xmlns="http://www.w3.org/2000/svg">
<g clip-path="url(#clip0_104_1148)">
<path d="M161.301 97C175.301 114 192.301 127.9 210.801 139.2C236.701 155 264.501 165.1 288.501 170.8V139.3C266.301 109 250.501 72 249.101 28.5C248.701 17.2 241.601 6.99996 230.701 4.09996C223.101 2.09996 214.901 3.89996 209.701 9.89996C196.401 25.3 177.001 54.5 161.301 97.1V97ZM320.501 144.5V175.1V176.4V208.5C259.701 203.4 135.501 164.7 101.201 51.3C97.9009 40.5 88.4009 32.5 77.1009 32.5C69.2009 32.5 61.8009 36.4 58.3009 43.5C47.3009 66.4 32.5009 112.6 32.5009 176.5C32.5009 293.4 112.601 357 150.901 379.3L12.3009 417.1C7.20092 418.5 3.10092 422.3 1.40092 427.3C-0.29908 432.3 0.60092 437.9 3.70092 442.1C22.2009 466.7 77.8009 512.5 160.501 512.5C164.101 512.5 167.701 511.3 170.501 509L246.101 448.5H320.501C408.901 448.5 480.501 376.9 480.501 288.5V128.5L510.401 83.6C511.701 81.6 512.501 79.2 512.501 76.8C512.501 70 507.001 64.5 500.201 64.5H400.501C356.301 64.5 320.501 100.3 320.501 144.5ZM400.501 128.5C404.744 128.5 408.814 130.186 411.815 133.186C414.815 136.187 416.501 140.256 416.501 144.5C416.501 148.743 414.815 152.813 411.815 155.814C408.814 158.814 404.744 160.5 400.501 160.5C396.257 160.5 392.188 158.814 389.187 155.814C386.187 152.813 384.501 148.743 384.501 144.5C384.501 140.256 386.187 136.187 389.187 133.186C392.188 130.186 396.257 128.5 400.501 128.5Z" fill="#47535F"/>
</g>
<defs>
<clipPath id="clip0_104_1148">
<rect width="512" height="512" fill="white" transform="translate(0.5 0.5)"/>
</clipPath>
</defs>
</svg>
