<svg width="321" height="513" viewBox="0 0 321 513" fill="none" xmlns="http://www.w3.org/2000/svg">
<g clip-path="url(#clip0_104_1154)">
<path d="M2.49957 335C-1.30043 343.8 0.499571 354 7.09957 361L143.1 505C147.6 509.8 153.9 512.5 160.5 512.5C167.1 512.5 173.4 509.8 177.9 505L313.9 361C320.5 354 322.3 343.8 318.5 335C314.7 326.2 306 320.5 296.5 320.5H224.5V32.5C224.5 14.8 210.2 0.5 192.5 0.5H128.5C110.8 0.5 96.4996 14.8 96.4996 32.5V320.5H24.4996C14.8996 320.5 6.29957 326.2 2.49957 335Z" fill="#47535F"/>
</g>
<defs>
<clipPath id="clip0_104_1154">
<rect width="320" height="512" fill="white" transform="translate(0.5 0.5)"/>
</clipPath>
</defs>
</svg>
