<svg width="513" height="513" viewBox="0 0 513 513" fill="none" xmlns="http://www.w3.org/2000/svg">
<g clip-path="url(#clip0_104_1150)">
<path d="M439.499 7.49995C448.899 -1.90005 464.099 -1.90005 473.399 7.49995L505.399 39.5C514.799 48.9 514.799 64.1 505.399 73.4L418.399 160.4L457.399 199.4C464.299 206.3 466.299 216.6 462.599 225.6C458.899 234.6 450.099 240.4 440.399 240.4H296.499C283.199 240.4 272.499 229.7 272.499 216.4V72.5C272.499 62.8 278.299 53.9999 287.299 50.2999C296.299 46.5999 306.599 48.6 313.499 55.5L352.499 94.5L439.499 7.49995ZM72.4992 272.5H216.499C229.799 272.5 240.499 283.2 240.499 296.5V440.5C240.499 450.2 234.699 459 225.699 462.7C216.699 466.4 206.399 464.4 199.499 457.5L160.499 418.5L73.4992 505.5C64.0992 514.9 48.8992 514.9 39.5992 505.5L7.49922 473.5C-1.90078 464.1 -1.90078 448.9 7.49922 439.6L94.4992 352.6L55.4992 313.5C48.5992 306.6 46.5992 296.3 50.2992 287.3C53.9992 278.3 62.7992 272.5 72.4992 272.5Z" fill="#47535F"/>
</g>
<defs>
<clipPath id="clip0_104_1150">
<rect width="512" height="512" fill="white" transform="translate(0.5 0.5)"/>
</clipPath>
</defs>
</svg>
