<svg width="513" height="513" viewBox="0 0 513 513" fill="none" xmlns="http://www.w3.org/2000/svg">
<g clip-path="url(#clip0_104_1152)">
<path d="M288.5 32.5C288.5 14.8 274.2 0.5 256.5 0.5C238.8 0.5 224.5 14.8 224.5 32.5V275.2L151.1 201.8C138.6 189.3 118.3 189.3 105.8 201.8C93.3 214.3 93.3 234.6 105.8 247.1L233.8 375.1C246.3 387.6 266.6 387.6 279.1 375.1L407.1 247.1C419.6 234.6 419.6 214.3 407.1 201.8C394.6 189.3 374.3 189.3 361.8 201.8L288.5 275.2V32.5ZM64.5 352.5C29.2 352.5 0.5 381.2 0.5 416.5V448.5C0.5 483.8 29.2 512.5 64.5 512.5H448.5C483.8 512.5 512.5 483.8 512.5 448.5V416.5C512.5 381.2 483.8 352.5 448.5 352.5H347L301.7 397.8C276.7 422.8 236.2 422.8 211.2 397.8L166 352.5H64.5ZM432.5 408.5C438.865 408.5 444.97 411.029 449.471 415.529C453.971 420.03 456.5 426.135 456.5 432.5C456.5 438.865 453.971 444.97 449.471 449.471C444.97 453.971 438.865 456.5 432.5 456.5C426.135 456.5 420.03 453.971 415.529 449.471C411.029 444.97 408.5 438.865 408.5 432.5C408.5 426.135 411.029 420.03 415.529 415.529C420.03 411.029 426.135 408.5 432.5 408.5Z" fill="#47535F"/>
</g>
<defs>
<clipPath id="clip0_104_1152">
<rect width="512" height="512" fill="white" transform="translate(0.5 0.5)"/>
</clipPath>
</defs>
</svg>
