<svg width="641" height="513" viewBox="0 0 641 513" fill="none" xmlns="http://www.w3.org/2000/svg">
<g clip-path="url(#clip0_104_1156)">
<path d="M352.5 125L300.6 112C294.1 110.4 289.3 104.9 288.6 98.2C287.9 91.5 291.4 85.1 297.3 82.1L338.1 61.7L294.9 29.3C289.4 25.2 287.1 18 289.3 11.4C291.5 4.8 297.6 0.5 304.5 0.5H416.5H448.5H464.5C494.7 0.5 523.2 14.7 541.3 38.9L598.901 115.7C605.101 124 608.5 134.1 608.5 144.5C608.5 171 587 192.5 560.5 192.5H539C522 192.5 505.701 185.8 493.701 173.8L480.5 160.5H448.5V182C448.5 206.8 461.3 229.9 482.3 243.1L588.901 309.7C621.001 329.8 640.5 364.9 640.5 402.8C640.5 463.4 591.401 512.5 530.701 512.5H496.5H432.5H32.8005C29.5005 512.5 26.2005 512.1 23.2005 511.1C14.0005 508.3 6.50049 501.5 2.90049 492.6C1.50049 489.2 0.70049 485.7 0.50049 481.9C0.30049 478.2 0.80049 474.6 1.80049 471.2C4.60049 462 11.4005 454.5 20.4005 450.8C23.4005 449.6 26.6005 448.8 29.9005 448.6L433.8 412.5C442.1 411.8 448.5 404.8 448.5 396.4C448.5 392.1 446.8 388 443.8 385L399.4 340.6C369.4 310.6 352.5 269.9 352.5 227.5V182V125ZM512.5 72.8C512.5 72.7 512.5 72.6 512.5 72.5C512.5 72.4 512.5 72.3 512.5 72.2V72.8ZM511.201 80.2L464.8 68.6C464.6 69.9 464.5 71.2 464.5 72.5C464.5 85.8 475.2 96.5 488.5 96.5C499.1 96.5 508.001 89.7 511.201 80.2ZM131.4 117C147.7 102.5 171.8 100.8 189.9 112.9L320.5 199.9V227.5C320.5 260.3 328.9 292.3 344.5 320.5H112.5C105.8 320.5 99.8005 316.3 97.5005 310.1C95.2005 303.9 97.0005 296.8 102.1 292.4L171.5 232.8L18.9005 256.3C11.9005 257.4 5.00049 253.7 2.00049 247.3C-0.99951 240.9 0.50049 233.2 5.80049 228.5L131.4 117Z" fill="#47535F"/>
</g>
<defs>
<clipPath id="clip0_104_1156">
<rect width="640" height="512" fill="white" transform="translate(0.5 0.5)"/>
</clipPath>
</defs>
</svg>
