<svg width="449" height="513" viewBox="0 0 449 513" fill="none" xmlns="http://www.w3.org/2000/svg">
<g clip-path="url(#clip0_104_1158)">
<path d="M96.5 151.9V361.1C106.2 366.7 114.3 374.8 119.9 384.5H329.1C329.1 384.4 329.2 384.3 329.2 384.2L324.7 376.3L292.7 320.3C291.3 320.4 289.9 320.4 288.5 320.4C253.2 320.4 224.5 291.7 224.5 256.4C224.5 221.1 253.2 192.4 288.5 192.4C289.9 192.4 291.3 192.4 292.7 192.5L324.7 136.5L329.2 128.6L329.1 128.3H119.9C114.3 138 106.2 146.1 96.5 151.7V151.9ZM384.8 352.5C420 352.7 448.5 381.2 448.5 416.5C448.5 451.8 419.8 480.5 384.5 480.5C360.8 480.5 340.1 467.6 329.1 448.5H119.9C108.8 467.6 88.2 480.5 64.5 480.5C29.2 480.5 0.5 451.8 0.5 416.5C0.5 392.8 13.4 372.1 32.5 361.1V151.9C13.4 140.9 0.5 120.2 0.5 96.5C0.5 61.2 29.2 32.5 64.5 32.5C88.2 32.5 108.9 45.4 119.9 64.5H329.1C340.2 45.4 360.8 32.5 384.5 32.5C419.8 32.5 448.5 61.2 448.5 96.5C448.5 131.8 420 160.3 384.8 160.5L380.3 168.4L348.3 224.4L346 228.4C350.2 236.9 352.5 246.4 352.5 256.5C352.5 266.6 350.2 276.1 346 284.6L348.3 288.6L380.3 344.6L384.8 352.5Z" fill="#47535F"/>
</g>
<defs>
<clipPath id="clip0_104_1158">
<rect width="448" height="512" fill="white" transform="translate(0.5 0.5)"/>
</clipPath>
</defs>
</svg>
