<svg width="641" height="513" viewBox="0 0 641 513" fill="none" xmlns="http://www.w3.org/2000/svg">
<g clip-path="url(#clip0_104_1162)">
<path d="M320.5 512.5C373.7 512.5 421.9 490.9 456.6 455.9L158.3 220.9C140.5 257.6 128.5 292.8 128.5 320.5C128.5 426.5 214.5 512.5 320.5 512.5ZM505.7 371.2C510.1 355.1 512.5 338.1 512.5 320.5C512.5 229.3 382.3 58.2 345.9 12.2C339.9 4.70001 331 0.500006 321.4 0.500006H319.6C310 0.500006 301.1 4.70001 295.1 12.2C278.3 33.5 241.2 81.8 206.3 136.5L39.2998 5.60001C28.8998 -2.59999 13.7998 -0.699994 5.59976 9.70001C-2.60024 20.1 -0.700238 35.2 9.69976 43.4L601.7 507.4C612.1 515.6 627.2 513.7 635.4 503.3C643.6 492.9 641.7 477.8 631.3 469.6L505.7 371.2ZM224.5 336.5C224.5 380.7 260.3 416.5 304.5 416.5C313.3 416.5 320.5 423.7 320.5 432.5C320.5 441.3 313.3 448.5 304.5 448.5C242.6 448.5 192.5 398.4 192.5 336.5C192.5 327.7 199.7 320.5 208.5 320.5C217.3 320.5 224.5 327.7 224.5 336.5Z" fill="#47535F"/>
</g>
<defs>
<clipPath id="clip0_104_1162">
<rect width="640" height="512" fill="white" transform="translate(0.5 0.5)"/>
</clipPath>
</defs>
</svg>
