<svg width="385" height="513" viewBox="0 0 385 513" fill="none" xmlns="http://www.w3.org/2000/svg">
<g clip-path="url(#clip0_104_1160)">
<path d="M192.5 512.5C86.5 512.5 0.5 426.5 0.5 320.5C0.5 229.3 130.7 58.2 167.1 12.2C173.1 4.7 182 0.5 191.6 0.5H193.4C203 0.5 211.9 4.7 217.9 12.2C254.3 58.2 384.5 229.3 384.5 320.5C384.5 426.5 298.5 512.5 192.5 512.5ZM96.5 336.5C96.5 327.7 89.3 320.5 80.5 320.5C71.7 320.5 64.5 327.7 64.5 336.5C64.5 398.4 114.6 448.5 176.5 448.5C185.3 448.5 192.5 441.3 192.5 432.5C192.5 423.7 185.3 416.5 176.5 416.5C132.3 416.5 96.5 380.7 96.5 336.5Z" fill="#47535F"/>
</g>
<defs>
<clipPath id="clip0_104_1160">
<rect width="384" height="512" fill="white" transform="translate(0.5 0.5)"/>
</clipPath>
</defs>
</svg>
