<svg width="577" height="513" viewBox="0 0 577 513" fill="none" xmlns="http://www.w3.org/2000/svg">
<g clip-path="url(#clip0_104_1166)">
<path d="M288.5 32.5C447.6 32.5 576.5 80.5 576.5 160.5V352.5C576.5 432.5 447.6 480.5 288.5 480.5C129.4 480.5 0.5 432.5 0.5 352.5V160.5C0.5 80.5 129.4 32.5 288.5 32.5ZM528.5 160.5C528.5 150.6 520.5 130.6 473.5 110.7C454.9 102.8 432.6 96.3 407.5 91.3L379.7 134.9C372.4 146.4 368.5 159.7 368.5 173.3C368.5 190.8 374.9 207.7 386.6 220.8L396.4 231.8C426.2 226.6 452.3 219.3 473.6 210.3C520.7 190.4 528.6 170.4 528.6 160.5H528.5ZM349.7 237.8C341.7 211.6 317.3 192.5 288.5 192.5C259.7 192.5 235.2 211.6 227.3 237.8C246.7 239.5 267.2 240.5 288.5 240.5C309.8 240.5 330.3 239.6 349.7 237.8ZM169.5 91.3C144.3 96.3 122.1 102.9 103.5 110.7C56.5 130.6 48.5 150.6 48.5 160.5C48.5 170.4 56.5 190.4 103.5 210.3C124.8 219.3 150.9 226.6 180.7 231.8L190.5 220.8C202.1 207.7 208.6 190.8 208.6 173.3C208.6 159.7 204.7 146.4 197.4 134.9L169.5 91.3ZM225.8 83.3C225 87.5 224.5 92 224.5 96.5C224.5 131.8 253.2 160.5 288.5 160.5C323.8 160.5 352.5 131.8 352.5 96.5C352.5 92 352 87.5 351.1 83.3C331.3 81.5 310.3 80.5 288.5 80.5C266.7 80.5 245.7 81.5 225.9 83.3H225.8Z" fill="#47535F"/>
</g>
<defs>
<clipPath id="clip0_104_1166">
<rect width="576" height="512" fill="white" transform="translate(0.5 0.5)"/>
</clipPath>
</defs>
</svg>
