<svg width="513" height="513" viewBox="0 0 513 513" fill="none" xmlns="http://www.w3.org/2000/svg">
<g clip-path="url(#clip0_104_1164)">
<path d="M501.7 76.6C512.8 69.3 515.9 54.5 508.6 43.4C501.3 32.3 486.5 29.2 475.4 36.5L370.7 105C336.3 99.2 297.5 96.5 256.5 96.5C115.1 96.5 0.5 128.5 0.5 208.5V368.5C0.5 399.8 27.9 427.3 72.5 447.2V344.5C72.5 331.2 83.2 320.5 96.5 320.5C109.8 320.5 120.5 331.2 120.5 344.5V463.9C153.5 472.8 191.6 478.4 232.5 480V376.5C232.5 363.2 243.2 352.5 256.5 352.5C269.8 352.5 280.5 363.2 280.5 376.5V480C321.4 478.4 359.5 472.8 392.5 463.9V344.5C392.5 331.2 403.2 320.5 416.5 320.5C429.8 320.5 440.5 331.2 440.5 344.5V447.2C485.1 427.3 512.5 399.8 512.5 368.5V208.5C512.5 167.4 482.3 139 433.7 121.1L501.6 76.6H501.7ZM307.9 146.1L243.3 188.4C232.2 195.7 229.1 210.5 236.4 221.6C243.7 232.7 258.5 235.8 269.6 228.5L380.7 155.7C395.4 158.9 408.6 162.7 420.1 167.2C458.9 182.3 464.5 197.9 464.5 208.5C464.5 209.3 461.8 225.7 418.5 244.4C379.6 261.2 322.5 272.5 256.5 272.5C190.5 272.5 133.4 261.2 94.5 244.4C51.2 225.7 48.5 209.3 48.5 208.5C48.5 197.9 54.1 182.3 92.9 167.2C131.1 152.4 188.3 144.5 256.5 144.5C274.5 144.5 291.6 145 307.9 146.1Z" fill="#47535F"/>
</g>
<defs>
<clipPath id="clip0_104_1164">
<rect width="512" height="512" fill="white" transform="translate(0.5 0.5)"/>
</clipPath>
</defs>
</svg>
