<svg width="513" height="513" viewBox="0 0 513 513" fill="none" xmlns="http://www.w3.org/2000/svg">
<g clip-path="url(#clip0_104_1168)">
<path d="M160.5 265.7C160.5 274.2 157.1 282.3 151.1 288.3L124.3 315.1C112 327.4 91.8 326.5 74.9 322.3C70.3 321.1 65.5 320.5 60.5 320.5C27.4 320.5 0.5 347.4 0.5 380.5C0.5 413.6 27.4 440.5 60.5 440.5C66.8 440.5 72.5 446.2 72.5 452.5C72.5 485.6 99.4 512.5 132.5 512.5C165.6 512.5 192.5 485.6 192.5 452.5C192.5 447.5 191.9 442.7 190.7 438C186.5 421.1 185.5 400.9 197.9 388.6L224.7 361.8C230.7 355.8 238.8 352.4 247.3 352.4H336.5C342.8 352.4 348.9 352.1 355 351.4C366.9 350.2 371.4 335.9 365.8 325.4C357.3 309.6 352.5 291.6 352.5 272.4C352.5 210.5 402.6 160.4 464.5 160.4C472.5 160.4 480.2 161.2 487.7 162.8C499.4 165.3 511.8 156.9 509.7 145.2C495 63 423 0.5 336.5 0.5C239.3 0.5 160.5 79.3 160.5 176.5V265.7Z" fill="#47535F"/>
</g>
<defs>
<clipPath id="clip0_104_1168">
<rect width="512" height="512" fill="white" transform="translate(0.5 0.5)"/>
</clipPath>
</defs>
</svg>
