<svg width="641" height="513" viewBox="0 0 641 513" fill="none" xmlns="http://www.w3.org/2000/svg">
<g clip-path="url(#clip0_104_1170)">
<path d="M96.5 64.5C96.5 46.8 110.8 32.5 128.5 32.5H160.5C178.2 32.5 192.5 46.8 192.5 64.5V224.5V288.5V448.5C192.5 466.2 178.2 480.5 160.5 480.5H128.5C110.8 480.5 96.5 466.2 96.5 448.5V384.5H64.5C46.8 384.5 32.5 370.2 32.5 352.5V288.5C14.8 288.5 0.5 274.2 0.5 256.5C0.5 238.8 14.8 224.5 32.5 224.5V160.5C32.5 142.8 46.8 128.5 64.5 128.5H96.5V64.5ZM544.5 64.5V128.5H576.5C594.2 128.5 608.5 142.8 608.5 160.5V224.5C626.2 224.5 640.5 238.8 640.5 256.5C640.5 274.2 626.2 288.5 608.5 288.5V352.5C608.5 370.2 594.2 384.5 576.5 384.5H544.5V448.5C544.5 466.2 530.2 480.5 512.5 480.5H480.5C462.8 480.5 448.5 466.2 448.5 448.5V288.5V224.5V64.5C448.5 46.8 462.8 32.5 480.5 32.5H512.5C530.2 32.5 544.5 46.8 544.5 64.5ZM416.5 224.5V288.5H224.5V224.5H416.5Z" fill="#47535F"/>
</g>
<defs>
<clipPath id="clip0_104_1170">
<rect width="640" height="512" fill="white" transform="translate(0.5 0.5)"/>
</clipPath>
</defs>
</svg>
