<svg width="641" height="513" viewBox="0 0 641 513" fill="none" xmlns="http://www.w3.org/2000/svg">
<g clip-path="url(#clip0_104_1174)">
<path d="M50.2 32.5C39.7 32.5 30.4 39.4 27.3 49.4L1.4 133.5C0.8 135.5 0.5 137.6 0.5 139.6C0.5 151.2 9.8 160.5 21.4 160.5H115.4L141 32.5H50.2ZM272.5 160.5V32.5H173.6L148 160.5H272.5ZM304.5 160.5H362.5C377.6 142.4 394.6 124.8 413 108.4C414.5 107 416.2 105.8 417.8 104.6L403.4 32.5H304.5V160.5ZM514.4 136.8C531.8 121 558.3 120.6 576.1 135.6C576 134.9 575.8 134.2 575.6 133.5L549.7 49.4C546.6 39.4 537.3 32.5 526.8 32.5H436L448.8 96.7C458.4 97.7 467.8 101.6 475.4 108.5C487.1 119.1 498.4 130.1 509.3 141.6C510.9 140 512.6 138.4 514.3 136.8H514.4ZM325.7 211.2C329.5 205 333.6 198.7 338 192.5H32.5L36.5 224.5H32.5C14.8 224.5 0.5 238.8 0.5 256.5C0.5 274.2 14.8 288.5 32.5 288.5H44.5L64.5 448.5C64.5 466.2 78.8 480.5 96.5 480.5C114.2 480.5 128.5 466.2 128.5 448.5H338.1C307.1 413.8 288.5 367.9 288.5 318.6C288.5 283.4 304.8 245 325.7 211.2ZM454.1 132.3C451.3 129.8 447.8 128.6 444.3 128.5C440.7 128.5 437.1 129.7 434.3 132.2C401.1 161.9 372.9 195.6 352.9 228C333.2 259.9 320.5 294.2 320.5 320.6C320.5 408.4 390.8 480.5 480.5 480.5C569.2 480.5 640.5 408.5 640.5 320.7C640.5 300.5 630.9 269.8 616.3 241.7C601.5 213.2 580.6 183.2 555.9 160.6C550.3 155.5 541.5 155.4 535.9 160.6C526.3 169.4 517.3 180.2 509.4 190.1C492.1 169.4 473.6 150.2 453.9 132.4L454.1 132.3ZM530.5 401.5C515.5 411.5 499.5 416.5 481.5 416.5C436.5 416.5 400.5 387.5 400.5 338.5C400.5 314.5 415.5 293.5 445.5 256.5C449.5 261.5 507.5 335.5 507.5 335.5L543.5 293.5C546.5 297.5 548.5 301.5 550.5 305.5C568.5 338.5 560.5 380.5 530.5 401.5Z" fill="#47535F"/>
</g>
<defs>
<clipPath id="clip0_104_1174">
<rect width="640" height="512" fill="white" transform="translate(0.5 0.5)"/>
</clipPath>
</defs>
</svg>
