<svg width="577" height="513" viewBox="0 0 577 513" fill="none" xmlns="http://www.w3.org/2000/svg">
<g clip-path="url(#clip0_104_1172)">
<path d="M50.2 32.5C39.7 32.5 30.4 39.4 27.3 49.4L1.4 133.5C0.8 135.5 0.5 137.6 0.5 139.6C0.5 151.2 9.8 160.5 21.4 160.5H115.4L141 32.5H50.2ZM272.5 160.5V32.5H173.6L148 160.5H272.5ZM304.5 160.5H429L403.4 32.5H304.5V160.5ZM461.6 160.5H555.6C567.1 160.5 576.5 151.2 576.5 139.6C576.5 137.5 576.2 135.5 575.6 133.5L549.7 49.4C546.6 39.4 537.3 32.5 526.8 32.5H436L461.6 160.5ZM32.5 192.5L36.5 224.5H32.5C14.8 224.5 0.5 238.8 0.5 256.5C0.5 274.2 14.8 288.5 32.5 288.5H44.5L64.5 448.5C64.5 466.2 78.8 480.5 96.5 480.5C114.2 480.5 128.5 466.2 128.5 448.5H448.5C448.5 466.2 462.8 480.5 480.5 480.5C498.2 480.5 512.5 466.2 512.5 448.5L532.5 288.5H544.5C562.2 288.5 576.5 274.2 576.5 256.5C576.5 238.8 562.2 224.5 544.5 224.5H540.5L544.5 192.5H32.5Z" fill="#47535F"/>
</g>
<defs>
<clipPath id="clip0_104_1172">
<rect width="576" height="512" fill="white" transform="translate(0.5 0.5)"/>
</clipPath>
</defs>
</svg>
