<svg width="513" height="513" viewBox="0 0 513 513" fill="none" xmlns="http://www.w3.org/2000/svg">
<g clip-path="url(#clip0_104_1176)">
<path d="M337.1 157C338.4 158.1 339.8 159.2 341 160.3C350.3 168.5 364 170.8 374.4 163.9L442 118.8C453.4 111.2 456.2 95.6 447.1 85.4C430.5 67.1 411.4 51.1 390.2 38.1C378.3 30.8 363.3 36.7 358.1 49.7L327.6 125.9C323.1 137 327.8 149.5 337.1 157.1V157ZM328.5 37.3C333.6 24.5 326.9 9.9 313.5 6.8C295.2 2.7 276.1 0.5 256.5 0.5C236.9 0.5 217.8 2.7 199.5 6.9C186 9.9 179.3 24.5 184.5 37.3L214.8 113.1C219.3 124.4 231.6 130.3 243.8 129.1C248 128.7 252.2 128.5 256.5 128.5C260.8 128.5 265.1 128.7 269.2 129.1C281.3 130.3 293.6 124.4 298.2 113.1L328.5 37.3ZM66 85.5C56.9 95.7 59.7 111.3 71.1 118.9L138.7 164C149 170.9 162.8 168.6 172.1 160.4C173.4 159.3 174.7 158.1 176.1 157.1C185.4 149.6 190 137 185.6 125.9L154.9 49.7C149.7 36.8 134.6 30.9 122.8 38.1C101.6 51.1 82.5 67.1 66 85.5ZM380 222.6C380.9 225.9 381.7 229.2 382.3 232.6C384.8 245.6 395.3 256.5 408.5 256.5H488.5C501.8 256.5 512.6 245.7 511.4 232.5C508.9 205.3 502.1 179.3 491.7 155.2C486.2 142.3 470.3 138.6 458.6 146.3L390 192C380.2 198.5 376.8 211.2 380 222.5V222.6ZM54.4 146.3C42.8 138.5 26.8 142.3 21.3 155.2C10.9 179.3 4.1 205.3 1.6 232.5C0.4 245.7 11.2 256.5 24.5 256.5H104.5C117.8 256.5 128.3 245.7 130.7 232.6C131.3 229.2 132.1 225.9 133 222.6C136.1 211.2 132.8 198.6 123 192.1L54.4 146.3ZM104.5 288.5H24.5C11.2 288.5 0.5 299.2 0.5 312.5V360.5C0.5 373.8 11.2 384.5 24.5 384.5H104.5C117.8 384.5 128.5 373.8 128.5 360.5V312.5C128.5 299.2 117.8 288.5 104.5 288.5ZM408.5 288.5C395.2 288.5 384.5 299.2 384.5 312.5V360.5C384.5 373.8 395.2 384.5 408.5 384.5H488.5C501.8 384.5 512.5 373.8 512.5 360.5V312.5C512.5 299.2 501.8 288.5 488.5 288.5H408.5ZM24.5 416.5C11.2 416.5 0.5 427.2 0.5 440.5V488.5C0.5 501.8 11.2 512.5 24.5 512.5H104.5C117.8 512.5 128.5 501.8 128.5 488.5V440.5C128.5 427.2 117.8 416.5 104.5 416.5H24.5ZM408.5 416.5C395.2 416.5 384.5 427.2 384.5 440.5V488.5C384.5 501.8 395.2 512.5 408.5 512.5H488.5C501.8 512.5 512.5 501.8 512.5 488.5V440.5C512.5 427.2 501.8 416.5 488.5 416.5H408.5ZM272.5 192.5C272.5 183.7 265.3 176.5 256.5 176.5C247.7 176.5 240.5 183.7 240.5 192.5V464.5C240.5 473.3 247.7 480.5 256.5 480.5C265.3 480.5 272.5 473.3 272.5 464.5V192.5ZM208.5 224.5C208.5 215.7 201.3 208.5 192.5 208.5C183.7 208.5 176.5 215.7 176.5 224.5V464.5C176.5 473.3 183.7 480.5 192.5 480.5C201.3 480.5 208.5 473.3 208.5 464.5V224.5ZM336.5 224.5C336.5 215.7 329.3 208.5 320.5 208.5C311.7 208.5 304.5 215.7 304.5 224.5V464.5C304.5 473.3 311.7 480.5 320.5 480.5C329.3 480.5 336.5 473.3 336.5 464.5V224.5Z" fill="#47535F"/>
</g>
<defs>
<clipPath id="clip0_104_1176">
<rect width="512" height="512" fill="white" transform="translate(0.5 0.5)"/>
</clipPath>
</defs>
</svg>
