<svg width="321" height="513" viewBox="0 0 321 513" fill="none" xmlns="http://www.w3.org/2000/svg">
<g clip-path="url(#clip0_104_1178)">
<path d="M64.5 32.5C29.2 32.5 0.5 61.2 0.5 96.5V256.5V416.5C0.5 451.8 29.2 480.5 64.5 480.5H288.5C306.2 480.5 320.5 466.2 320.5 448.5C320.5 430.8 306.2 416.5 288.5 416.5H64.5V288.5H224.5C242.2 288.5 256.5 274.2 256.5 256.5C256.5 238.8 242.2 224.5 224.5 224.5H64.5V96.5H288.5C306.2 96.5 320.5 82.2 320.5 64.5C320.5 46.8 306.2 32.5 288.5 32.5H64.5Z" fill="#47535F"/>
</g>
<defs>
<clipPath id="clip0_104_1178">
<rect width="320" height="512" fill="white" transform="translate(0.5 0.5)"/>
</clipPath>
</defs>
</svg>
