<svg width="513" height="513" viewBox="0 0 513 513" fill="none" xmlns="http://www.w3.org/2000/svg">
<g clip-path="url(#clip0_104_1182)">
<path d="M398.8 3.90002C383 -3.99998 363.8 2.40002 355.9 18.2C348 34 354.4 53.1 370.1 61.1L370.5 61.3C370.9 61.5 371.6 61.9 372.6 62.5C374.6 63.7 377.6 65.5 381.3 68.1C388.8 73.3 398.9 81.3 409 92.3C429 113.9 448.5 146.5 448.5 192.5C448.5 210.2 462.8 224.5 480.5 224.5C498.2 224.5 512.5 210.2 512.5 192.5C512.5 126.5 484 79.1 456 48.8C442.1 33.7 428.2 22.7 417.8 15.5C412.5 11.8 408.1 9.10002 404.8 7.20002C403.2 6.20002 401.8 5.50002 400.8 5.00002C400.3 4.70002 399.9 4.50002 399.6 4.30002L399.2 4.10002L399 4.00002H398.9C398.9 4.00002 398.9 4.00001 384.6 32.6L398.8 3.90002ZM129.2 228C135.4 172 182.9 128.5 240.5 128.5C302.4 128.5 352.5 178.6 352.5 240.5C352.5 269.8 341.3 296.4 322.9 316.4C305.9 334.8 288.5 361.5 288.5 394.4V400.5C288.5 427 267 448.5 240.5 448.5C222.8 448.5 208.5 462.8 208.5 480.5C208.5 498.2 222.8 512.5 240.5 512.5C302.4 512.5 352.5 462.4 352.5 400.5V394.4C352.5 384.6 357.9 372.7 369.9 359.7C398.8 328.4 416.5 286.5 416.5 240.5C416.5 143.3 337.7 64.5 240.5 64.5C149.9 64.5 75.3 133 65.6 221C63.7 238.6 76.3 254.4 93.9 256.3C111.5 258.2 127.3 245.6 129.2 228ZM32.5 512.5C40.9869 512.5 49.1263 509.129 55.1274 503.127C61.1286 497.126 64.5 488.987 64.5 480.5C64.5 472.013 61.1286 463.874 55.1274 457.873C49.1263 451.871 40.9869 448.5 32.5 448.5C24.0131 448.5 15.8737 451.871 9.87258 457.873C3.87142 463.874 0.5 472.013 0.5 480.5C0.5 488.987 3.87142 497.126 9.87258 503.127C15.8737 509.129 24.0131 512.5 32.5 512.5ZM192.5 352.5C192.5 344.013 189.129 335.874 183.127 329.873C177.126 323.871 168.987 320.5 160.5 320.5C152.013 320.5 143.874 323.871 137.873 329.873C131.871 335.874 128.5 344.013 128.5 352.5C128.5 360.987 131.871 369.126 137.873 375.127C143.874 381.129 152.013 384.5 160.5 384.5C168.987 384.5 177.126 381.129 183.127 375.127C189.129 369.126 192.5 360.987 192.5 352.5ZM41.9 361.9C29.4 374.4 29.4 394.7 41.9 407.2L105.9 471.2C118.4 483.7 138.7 483.7 151.2 471.2C163.7 458.7 163.7 438.4 151.2 425.9L87.2 361.9C74.7 349.4 54.4 349.4 41.9 361.9ZM208.5 240.5C208.5 222.8 222.8 208.5 240.5 208.5C258.2 208.5 272.5 222.8 272.5 240.5C272.5 253.8 283.2 264.5 296.5 264.5C309.8 264.5 320.5 253.8 320.5 240.5C320.5 196.3 284.7 160.5 240.5 160.5C196.3 160.5 160.5 196.3 160.5 240.5C160.5 253.8 171.2 264.5 184.5 264.5C197.8 264.5 208.5 253.8 208.5 240.5Z" fill="#47535F"/>
</g>
<defs>
<clipPath id="clip0_104_1182">
<rect width="512" height="512" fill="white" transform="translate(0.5 0.5)"/>
</clipPath>
</defs>
</svg>
