<svg width="513" height="513" viewBox="0 0 513 513" fill="none" xmlns="http://www.w3.org/2000/svg">
<g clip-path="url(#clip0_104_1180)">
<path d="M503.1 55.1L463.1 95.1C450.6 107.6 430.3 107.6 417.8 95.1C405.3 82.6 405.3 62.3 417.8 49.8L457.8 9.80005C470.3 -2.69995 490.6 -2.69995 503.1 9.80005C515.6 22.3 515.6 42.6 503.1 55.1ZM183.1 375.1L55.1 503.1C42.6 515.6 22.3 515.6 9.80005 503.1C-2.69995 490.6 -2.69995 470.3 9.80005 457.8L137.8 329.8C150.3 317.3 170.6 317.3 183.1 329.8C195.6 342.3 195.6 362.6 183.1 375.1ZM240.5 128.5C182.9 128.5 135.4 172.1 129.2 228C127.3 245.6 111.4 258.2 93.9 256.3C76.4 254.4 63.7 238.5 65.6 221C75.3 133 149.9 64.5 240.5 64.5C337.7 64.5 416.5 143.3 416.5 240.5C416.5 286.5 398.8 328.4 369.9 359.8C357.9 372.8 352.5 384.6 352.5 394.5V400.5C352.5 462.4 302.4 512.5 240.5 512.5C222.8 512.5 208.5 498.2 208.5 480.5C208.5 462.8 222.8 448.5 240.5 448.5C267 448.5 288.5 427 288.5 400.5V394.4C288.5 361.5 305.9 334.8 322.9 316.4C341.3 296.4 352.5 269.8 352.5 240.5C352.5 178.6 302.4 128.5 240.5 128.5ZM240.5 208.5C222.8 208.5 208.5 222.8 208.5 240.5C208.5 253.8 197.8 264.5 184.5 264.5C171.2 264.5 160.5 253.8 160.5 240.5C160.5 196.3 196.3 160.5 240.5 160.5C284.7 160.5 320.5 196.3 320.5 240.5C320.5 253.8 309.8 264.5 296.5 264.5C283.2 264.5 272.5 253.8 272.5 240.5C272.5 222.8 258.2 208.5 240.5 208.5Z" fill="#47535F"/>
</g>
<defs>
<clipPath id="clip0_104_1180">
<rect width="512" height="512" fill="white" transform="translate(0.5 0.5)"/>
</clipPath>
</defs>
</svg>
