<svg width="513" height="513" viewBox="0 0 513 513" fill="none" xmlns="http://www.w3.org/2000/svg">
<g clip-path="url(#clip0_104_1190)">
<path d="M266.8 48.8L233 74.1C227.6 78.1 224.5 84.5 224.5 91.2V100.3C224.5 107.1 230 112.6 236.8 112.6C239.2 112.6 241.6 111.9 243.6 110.5L285.4 82.6C287.4 81.3 289.8 80.5 292.2 80.5H293.2C299.4 80.5 304.5 85.6 304.5 91.8C304.5 94.8 303.3 97.7 301.2 99.8L281.3 119.7C275.5 125.5 268.4 129.9 260.6 132.5L234.1 141.3C228.3 143.2 224.5 148.6 224.5 154.7C224.5 158.4 223 162 220.4 164.7L202.5 182.6C196.1 189 192.6 197.6 192.6 206.6V210.9C192.6 227.3 206.2 240.6 222.5 240.6C233.5 240.6 243.7 234.4 248.6 224.6L252.6 216.5C255 211.7 260 208.6 265.4 208.6C269.9 208.6 274.1 210.7 276.8 214.3L293.1 236C295.2 238.9 298.6 240.5 302.2 240.5C310.6 240.5 316.1 231.6 312.3 224.1L311.2 221.8C307.7 214.8 311.2 206.3 318.7 203.8L339.9 196.7C347.5 194.2 352.6 187.1 352.6 179.1C352.6 168.8 360.9 160.5 371.2 160.5H400.5C409.3 160.5 416.5 167.7 416.5 176.5C416.5 185.3 409.3 192.5 400.5 192.5H379.8C372.6 192.5 365.6 195.4 360.5 200.5L355.8 205.2C353.7 207.3 352.5 210.2 352.5 213.2C352.5 219.4 357.6 224.5 363.8 224.5H375.1C381.1 224.5 386.9 226.9 391.1 231.1L397.6 237.6C399.4 239.4 400.4 241.9 400.4 244.4C400.4 246.9 399.4 249.4 397.6 251.2L390.1 258.7C386.5 262.5 384.5 267.4 384.5 272.5C384.5 277.6 386.5 282.5 390.2 286.2L408.5 304.5C418.7 314.7 432.6 320.5 447.1 320.5H454.5C461 300.3 464.5 278.8 464.5 256.5C464.5 145.1 376.9 54.1 266.8 48.8ZM438.8 356.7C435.1 354.1 430.6 352.6 425.8 352.6C419.8 352.6 414 350.2 409.8 346L396.5 332.5C388.8 324.8 378.5 320.5 367.6 320.5C357.9 320.5 348.4 317 341 310.7L314.5 287.9C302.9 278 288.1 272.5 272.8 272.5H251.9C239.3 272.5 226.9 276.2 216.4 283.2L189 301.5C171.2 313.4 160.5 333.4 160.5 354.8V358C160.5 375 167.2 391.3 179.2 403.3L195.2 419.3C203.7 427.8 215.2 432.6 227.2 432.6H248.5C261.8 432.6 272.5 443.3 272.5 456.6C272.5 459.1 272.9 461.6 273.6 463.9C344.9 458.1 406.1 416.3 438.8 356.7ZM0.5 256.5C0.5 188.605 27.4714 123.49 75.4807 75.4807C123.49 27.4714 188.605 0.5 256.5 0.5C324.395 0.5 389.51 27.4714 437.519 75.4807C485.529 123.49 512.5 188.605 512.5 256.5C512.5 324.395 485.529 389.51 437.519 437.519C389.51 485.529 324.395 512.5 256.5 512.5C188.605 512.5 123.49 485.529 75.4807 437.519C27.4714 389.51 0.5 324.395 0.5 256.5ZM187.8 101.2C181.6 95 171.4 95 165.2 101.2L133.2 133.2C127 139.4 127 149.6 133.2 155.8C139.4 162 149.6 162 155.8 155.8L187.8 123.8C194 117.6 194 107.4 187.8 101.2Z" fill="#47535F"/>
</g>
<defs>
<clipPath id="clip0_104_1190">
<rect width="512" height="512" fill="white" transform="translate(0.5 0.5)"/>
</clipPath>
</defs>
</svg>
