<svg width="513" height="513" viewBox="0 0 513 513" fill="none" xmlns="http://www.w3.org/2000/svg">
<g clip-path="url(#clip0_104_1192)">
<path d="M256.5 512.5C324.395 512.5 389.51 485.529 437.519 437.519C485.529 389.51 512.5 324.395 512.5 256.5C512.5 188.605 485.529 123.49 437.519 75.4807C389.51 27.4714 324.395 0.5 256.5 0.5C188.605 0.5 123.49 27.4714 75.4807 75.4807C27.4714 123.49 0.5 188.605 0.5 256.5C0.5 324.395 27.4714 389.51 75.4807 437.519C123.49 485.529 188.605 512.5 256.5 512.5ZM209.1 357.8L170.1 344.3C163.6 342.1 156.5 342 150 344L134.7 348.9C116.2 354.8 96.2 346.5 87.2 329.4L83.9 323.2C73.3 303.1 81.6 278.2 102.1 268.5L137.4 251.7C139.7 250.6 141.8 248.9 143.3 246.9L148.6 239.9C155.8 230.3 167.2 224.6 179.2 224.6C191.2 224.6 202.6 230.3 209.8 239.9L214.4 246C216.4 248.6 219.3 250.5 222.5 251.1C230.3 252.7 238.2 249.6 242.9 243.2L253.3 229C255.3 226.2 258.6 224.6 262 224.6C266.4 224.6 270.4 227.3 272 231.4L282.1 257.3C284.9 264.5 288.8 271.3 293.6 277.5L311.5 300.3C317.3 307.7 320.5 316.9 320.5 326.3C320.5 335.7 317.3 344.9 311.5 352.3L299.5 367.7C291.2 378.3 278.5 384.5 265.1 384.5C256.7 384.5 248.5 382.1 241.4 377.5L216 361.1C213.8 359.7 211.5 358.6 209.1 357.7V357.8ZM274.3 143L296.5 165.2C306.6 175.3 299.4 192.5 285.2 192.5H255.3C249.7 192.5 244.2 191.3 239.1 189.1L196.3 170.1C182 163.8 184.4 142.8 199.7 139.8L238.2 132.1C251.3 129.5 264.9 133.6 274.3 143ZM248.5 432.5C248.5 423.7 255.7 416.5 264.5 416.5H280.5C289.3 416.5 296.5 423.7 296.5 432.5C296.5 441.3 289.3 448.5 280.5 448.5H264.5C255.7 448.5 248.5 441.3 248.5 432.5ZM431.7 299.4L439.7 323.4C442.5 331.8 438 340.8 429.6 343.6C421.2 346.4 412.2 341.9 409.4 333.5L401.4 309.5C398.6 301.1 403.1 292.1 411.5 289.3C419.9 286.5 428.9 291 431.7 299.4ZM411.8 379.8L379.8 411.8C373.6 418 363.4 418 357.2 411.8C351 405.6 351 395.4 357.2 389.2L389.2 357.2C395.4 351 405.6 351 411.8 357.2C418 363.4 418 373.6 411.8 379.8Z" fill="#47535F"/>
</g>
<defs>
<clipPath id="clip0_104_1192">
<rect width="512" height="512" fill="white" transform="translate(0.5 0.5)"/>
</clipPath>
</defs>
</svg>
