<svg width="513" height="513" viewBox="0 0 513 513" fill="none" xmlns="http://www.w3.org/2000/svg">
<g clip-path="url(#clip0_104_1184)">
<path d="M178.3 63.7L188.3 81.1C191.1 85.9 192.5 91.4 192.5 97V138.4C192.5 142.3 194.1 146.1 196.8 148.8C203 155 213.3 154.5 218.8 147.6L232.4 130.6C237.1 124.7 245.3 122.9 252 126.3L267.2 133.9C270.6 135.6 274.4 136.5 278.2 136.5C284.7 136.5 291 133.9 295.6 129.3L299.5 125.4C302.4 122.5 306.8 121.8 310.5 123.6L339.7 138.2C347.5 142.1 352.3 150 352.3 158.7C352.3 169.2 345.2 178.3 335 180.9L299.6 189.7C292.2 191.5 284.5 191.2 277.2 188.8L245.2 178.1C241.9 177 238.5 176.4 235 176.4C228 176.4 221.2 178.7 215.6 182.9L176.5 212.5C166.4 220.1 160.5 231.9 160.5 244.5V272.5C160.5 299 182 320.5 208.5 320.5H240.5C249.3 320.5 256.5 327.7 256.5 336.5V384.5C256.5 402.2 270.8 416.5 288.5 416.5C298.6 416.5 308.1 411.8 314.1 403.7L339.7 369.6C348 358.5 352.5 345 352.5 331.2V319.1C352.5 315.2 355.1 311.8 358.9 310.9L364.2 309.6C376.1 306.6 384.5 295.9 384.5 283.6C384.5 276.5 381.7 269.7 376.7 264.7L343.2 231.2C339.5 227.5 339.5 221.5 343.2 217.8C348.9 212.1 357.3 210.1 365 212.7L379.1 217.4C391.4 221.5 404.8 215.9 410.6 204.4C414.1 197.4 421.8 193.6 429.5 195.2L456.9 200.7C432.5 112.9 352 48.5 256.5 48.5C228.8 48.5 202.5 53.9 178.3 63.7ZM0.5 256.5C0.5 188.605 27.4714 123.49 75.4807 75.4807C123.49 27.4714 188.605 0.5 256.5 0.5C324.395 0.5 389.51 27.4714 437.519 75.4807C485.529 123.49 512.5 188.605 512.5 256.5C512.5 324.395 485.529 389.51 437.519 437.519C389.51 485.529 324.395 512.5 256.5 512.5C188.605 512.5 123.49 485.529 75.4807 437.519C27.4714 389.51 0.5 324.395 0.5 256.5Z" fill="#47535F"/>
</g>
<defs>
<clipPath id="clip0_104_1184">
<rect width="512" height="512" fill="white" transform="translate(0.5 0.5)"/>
</clipPath>
</defs>
</svg>
