<svg width="513" height="513" viewBox="0 0 513 513" fill="none" xmlns="http://www.w3.org/2000/svg">
<g clip-path="url(#clip0_104_1188)">
<path d="M52.2 295.6L83.9 301.9C91.8 303.5 99.9 301 105.6 295.3L121 279.9C132.6 268.3 152.1 271.5 159.4 286.1L168.7 304.6C173.5 314.2 183.3 320.3 194.1 320.3C209.3 320.3 220.2 305.7 215.8 291.1L209.8 271.2C205.2 255.8 216.7 240.3 232.8 240.3H235.1C248.5 240.3 261 233.6 268.4 222.5L279.1 206.4C284.7 197.9 284.4 186.8 278.3 178.7L262.2 157.2C251.9 143.5 258.9 123.7 275.6 119.5L292.6 115.2C300.1 113.3 306.2 108 309.1 100.8L325.5 59.9C303.9 52.6 280.7 48.5 256.5 48.5C141.6 48.5 48.5 141.6 48.5 256.5C48.5 269.9 49.8 283 52.2 295.6ZM459.9 300.2C456.9 299.9 453.9 300.1 450.9 301L435.1 305.4C428.4 307.3 421.3 304.5 417.6 298.7L415.6 295.6C409.6 286.2 399.2 280.5 388 280.5C376.8 280.5 366.4 286.2 360.4 295.6L354.3 305.1C352.9 307.3 350.9 309.2 348.6 310.4L312.5 330.6C294.4 340.7 287 363 295.5 381.9L301 394.3C309.6 413.5 331.7 422.8 351.5 415.4L354.1 414.4C364.1 410.7 375.4 412.2 384 418.5L385.5 419.6C422.7 390.1 449.6 348.2 459.9 300.1V300.2ZM0.5 256.5C0.5 188.605 27.4714 123.49 75.4807 75.4807C123.49 27.4714 188.605 0.5 256.5 0.5C324.395 0.5 389.51 27.4714 437.519 75.4807C485.529 123.49 512.5 188.605 512.5 256.5C512.5 324.395 485.529 389.51 437.519 437.519C389.51 485.529 324.395 512.5 256.5 512.5C188.605 512.5 123.49 485.529 75.4807 437.519C27.4714 389.51 0.5 324.395 0.5 256.5ZM145 348.6C142.9 357.2 148.1 365.9 156.6 368L188.6 376C197.2 378.1 205.9 372.9 208 364.4C210.1 355.9 204.9 347.1 196.4 345L164.4 337C155.8 334.9 147.1 340.1 145 348.6ZM237 328.6C234.9 337.2 240.1 345.9 248.6 348C257.1 350.1 265.9 344.9 268 336.4L276 304.4C278.1 295.8 272.9 287.1 264.4 285C255.9 282.9 247.1 288.1 245 296.6L237 328.6ZM343.7 114.2C335.8 110.2 326.2 113.5 322.2 121.4L306.2 153.4C302.2 161.3 305.5 170.9 313.4 174.9C321.3 178.9 330.9 175.6 334.9 167.7L350.9 135.7C354.9 127.8 351.6 118.2 343.7 114.2Z" fill="#47535F"/>
</g>
<defs>
<clipPath id="clip0_104_1188">
<rect width="512" height="512" fill="white" transform="translate(0.5 0.5)"/>
</clipPath>
</defs>
</svg>
