<svg width="513" height="513" viewBox="0 0 513 513" fill="none" xmlns="http://www.w3.org/2000/svg">
<g clip-path="url(#clip0_104_1186)">
<path d="M58.2 193.5L67.6 209.9C75.9 224.4 89.5 235.1 105.6 239.7L163.5 256.2C180.7 261.1 192.5 276.8 192.5 294.7V334.6C192.5 345.6 198.7 355.6 208.5 360.5C218.3 365.4 224.5 375.4 224.5 386.4V425.4C224.5 441 239.4 452.3 254.4 448C270.5 443.4 283 430.5 287.1 414.2L289.9 403C294.1 386.1 305.1 371.6 320.2 363L328.3 358.4C343.3 349.9 352.5 333.9 352.5 316.7V308.4C352.5 295.7 347.4 283.5 338.4 274.5L334.5 270.6C325.5 261.6 313.3 256.5 300.6 256.5H257.5C246.4 256.5 235.4 253.6 225.7 248.1L191.2 228.4C186.9 225.9 183.6 221.9 182 217.2C178.8 207.6 183.1 197.2 192.2 192.7L198.1 189.7C204.7 186.4 212.4 185.8 219.4 188.2L242.6 195.9C250.8 198.6 259.8 195.5 264.5 188.4C269.2 181.4 268.7 172.1 263.3 165.6L249.7 149.3C239.7 137.3 239.8 119.8 250 108L265.7 89.7C274.5 79.4 275.9 64.7 269.2 53L266.8 48.8C263.3 48.6 259.9 48.5 256.4 48.5C163.6 48.5 84.9 109.4 58.2 193.5ZM464.5 256.5C464.5 219.7 454.9 185.1 438.1 155L412.5 165.3C396.8 171.6 388.7 189.1 394 205.1L410.9 255.8C414.4 266.2 422.9 274.1 433.5 276.7L462.6 284C463.8 275 464.4 265.8 464.4 256.5H464.5ZM0.5 256.5C0.5 188.605 27.4714 123.49 75.4807 75.4807C123.49 27.4714 188.605 0.5 256.5 0.5C324.395 0.5 389.51 27.4714 437.519 75.4807C485.529 123.49 512.5 188.605 512.5 256.5C512.5 324.395 485.529 389.51 437.519 437.519C389.51 485.529 324.395 512.5 256.5 512.5C188.605 512.5 123.49 485.529 75.4807 437.519C27.4714 389.51 0.5 324.395 0.5 256.5Z" fill="#47535F"/>
</g>
<defs>
<clipPath id="clip0_104_1186">
<rect width="512" height="512" fill="white" transform="translate(0.5 0.5)"/>
</clipPath>
</defs>
</svg>
