<svg width="385" height="513" viewBox="0 0 385 513" fill="none" xmlns="http://www.w3.org/2000/svg">
<g clip-path="url(#clip0_104_1194)">
<path d="M192.5 496.5C86.5 496.5 0.5 394.5 0.5 288.5C0.5 176.5 64.5 16.5 192.5 16.5C320.5 16.5 384.5 176.5 384.5 288.5C384.5 394.5 298.5 496.5 192.5 496.5ZM155.3 134.5C161.8 128.5 162.3 118.4 156.3 111.9C150.3 105.4 140.2 104.9 133.7 110.9C109.8 132.7 92.6 163.6 81.4 195.1C70.2 226.6 64.5 260.2 64.5 288.5C64.5 297.3 71.7 304.5 80.5 304.5C89.3 304.5 96.5 297.3 96.5 288.5C96.5 264 101.5 234.1 111.6 205.7C121.7 177.2 136.6 151.6 155.3 134.5Z" fill="#47535F"/>
</g>
<defs>
<clipPath id="clip0_104_1194">
<rect width="384" height="512" fill="white" transform="translate(0.5 0.5)"/>
</clipPath>
</defs>
</svg>
