<svg width="449" height="513" viewBox="0 0 449 513" fill="none" xmlns="http://www.w3.org/2000/svg">
<g clip-path="url(#clip0_104_1196)">
<path d="M224.5 32.5C238 32.5 250.8 38.1 259.9 48.1L435.9 240.1C448.8 254.1 452.1 274.4 444.5 291.9C436.9 309.4 419.5 320.5 400.5 320.5H48.5C29.5 320.5 12.2 309.3 4.6 291.8C-3 274.3 0.3 254.1 13.2 240L189.2 48C198.2 38.1 211 32.5 224.5 32.5ZM0.5 432.5C0.5 406 22 384.5 48.5 384.5H400.5C427 384.5 448.5 406 448.5 432.5C448.5 459 427 480.5 400.5 480.5H48.5C22 480.5 0.5 459 0.5 432.5Z" fill="#47535F"/>
</g>
<defs>
<clipPath id="clip0_104_1196">
<rect width="448" height="512" fill="white" transform="translate(0.5 0.5)"/>
</clipPath>
</defs>
</svg>
