<svg width="513" height="513" viewBox="0 0 513 513" fill="none" xmlns="http://www.w3.org/2000/svg">
<g clip-path="url(#clip0_104_1198)">
<path d="M133.2 5.2L69.2 69.2C64.6 73.8 63.3 80.7 65.7 86.6C68.1 92.5 74 96.5 80.5 96.5H208.5C215 96.5 220.8 92.6 223.3 86.6C225.8 80.6 224.4 73.7 219.8 69.2L155.8 5.2C149.6 -1 139.4 -1 133.2 5.2ZM64.5 128.5C29.2 128.5 0.5 157.2 0.5 192.5V448.5C0.5 483.8 29.2 512.5 64.5 512.5H448.5C483.8 512.5 512.5 483.8 512.5 448.5V192.5C512.5 157.2 483.8 128.5 448.5 128.5H64.5ZM160.5 224.5C173.23 224.5 185.439 229.557 194.441 238.559C203.443 247.561 208.5 259.77 208.5 272.5C208.5 285.23 203.443 297.439 194.441 306.441C185.439 315.443 173.23 320.5 160.5 320.5C147.77 320.5 135.561 315.443 126.559 306.441C117.557 297.439 112.5 285.23 112.5 272.5C112.5 259.77 117.557 247.561 126.559 238.559C135.561 229.557 147.77 224.5 160.5 224.5ZM80.5 400.5C80.5 374 102 352.5 128.5 352.5H192.5C219 352.5 240.5 374 240.5 400.5V416.5C240.5 434.2 226.2 448.5 208.5 448.5H112.5C94.8 448.5 80.5 434.2 80.5 416.5V400.5ZM272.5 400.5C272.5 374 294 352.5 320.5 352.5H384.5C411 352.5 432.5 374 432.5 400.5V416.5C432.5 434.2 418.2 448.5 400.5 448.5H304.5C286.8 448.5 272.5 434.2 272.5 416.5V400.5ZM304.5 272.5C304.5 266.197 305.742 259.955 308.154 254.131C310.566 248.308 314.102 243.016 318.559 238.559C323.016 234.102 328.308 230.566 334.131 228.154C339.955 225.742 346.197 224.5 352.5 224.5C358.803 224.5 365.045 225.742 370.869 228.154C376.692 230.566 381.984 234.102 386.441 238.559C390.898 243.016 394.434 248.308 396.846 254.131C399.258 259.955 400.5 266.197 400.5 272.5C400.5 278.803 399.258 285.045 396.846 290.869C394.434 296.692 390.898 301.984 386.441 306.441C381.984 310.898 376.692 314.434 370.869 316.846C365.045 319.258 358.803 320.5 352.5 320.5C346.197 320.5 339.955 319.258 334.131 316.846C328.308 314.434 323.016 310.898 318.559 306.441C314.102 301.984 310.566 296.692 308.154 290.869C305.742 285.045 304.5 278.803 304.5 272.5ZM357.2 91.8C363.4 98 373.6 98 379.8 91.8L443.8 27.8C448.4 23.2 449.7 16.3 447.3 10.4C444.9 4.5 439 0.5 432.5 0.5H304.5C298 0.5 292.2 4.4 289.7 10.4C287.2 16.4 288.6 23.3 293.2 27.8L357.2 91.8Z" fill="#47535F"/>
</g>
<defs>
<clipPath id="clip0_104_1198">
<rect width="512" height="512" fill="white" transform="translate(0.5 0.5)"/>
</clipPath>
</defs>
</svg>
