<svg width="449" height="513" viewBox="0 0 449 513" fill="none" xmlns="http://www.w3.org/2000/svg">
<path d="M8.5 256.5C8.5 241.648 14.4 227.404 24.902 216.902C35.4041 206.4 49.6479 200.5 64.5 200.5C79.3521 200.5 93.5959 206.4 104.098 216.902C114.6 227.404 120.5 241.648 120.5 256.5C120.5 271.352 114.6 285.596 104.098 296.098C93.5959 306.6 79.3521 312.5 64.5 312.5C49.6479 312.5 35.4041 306.6 24.902 296.098C14.4 285.596 8.5 271.352 8.5 256.5ZM168.5 256.5C168.5 241.648 174.4 227.404 184.902 216.902C195.404 206.4 209.648 200.5 224.5 200.5C239.352 200.5 253.596 206.4 264.098 216.902C274.6 227.404 280.5 241.648 280.5 256.5C280.5 271.352 274.6 285.596 264.098 296.098C253.596 306.6 239.352 312.5 224.5 312.5C209.648 312.5 195.404 306.6 184.902 296.098C174.4 285.596 168.5 271.352 168.5 256.5ZM384.5 200.5C399.352 200.5 413.596 206.4 424.098 216.902C434.6 227.404 440.5 241.648 440.5 256.5C440.5 271.352 434.6 285.596 424.098 296.098C413.596 306.6 399.352 312.5 384.5 312.5C369.648 312.5 355.404 306.6 344.902 296.098C334.4 285.596 328.5 271.352 328.5 256.5C328.5 241.648 334.4 227.404 344.902 216.902C355.404 206.4 369.648 200.5 384.5 200.5Z" fill="#47535F"/>
</svg>
