<svg width="129" height="513" viewBox="0 0 129 513" fill="none" xmlns="http://www.w3.org/2000/svg">
<path d="M64.5 360.5C49.6479 360.5 35.4041 366.4 24.902 376.902C14.4 387.404 8.5 401.648 8.5 416.5C8.5 431.352 14.4 445.596 24.902 456.098C35.4041 466.6 49.6479 472.5 64.5 472.5C79.3521 472.5 93.5959 466.6 104.098 456.098C114.6 445.596 120.5 431.352 120.5 416.5C120.5 401.648 114.6 387.404 104.098 376.902C93.5959 366.4 79.3521 360.5 64.5 360.5ZM64.5 200.5C49.6479 200.5 35.4041 206.4 24.902 216.902C14.4 227.404 8.5 241.648 8.5 256.5C8.5 271.352 14.4 285.596 24.902 296.098C35.4041 306.6 49.6479 312.5 64.5 312.5C79.3521 312.5 93.5959 306.6 104.098 296.098C114.6 285.596 120.5 271.352 120.5 256.5C120.5 241.648 114.6 227.404 104.098 216.902C93.5959 206.4 79.3521 200.5 64.5 200.5ZM120.5 96.5C120.5 81.6479 114.6 67.4041 104.098 56.902C93.5959 46.4 79.3521 40.5 64.5 40.5C49.6479 40.5 35.4041 46.4 24.902 56.902C14.4 67.4041 8.5 81.6479 8.5 96.5C8.5 111.352 14.4 125.596 24.902 136.098C35.4041 146.6 49.6479 152.5 64.5 152.5C79.3521 152.5 93.5959 146.6 104.098 136.098C114.6 125.596 120.5 111.352 120.5 96.5Z" fill="#47535F"/>
</svg>
