<svg width="641" height="513" viewBox="0 0 641 513" fill="none" xmlns="http://www.w3.org/2000/svg">
<g clip-path="url(#clip0_104_1212)">
<path d="M128.5 0.5C110.8 0.5 96.5 14.8 96.5 32.5V224.5H192.5V192.5C192.5 157.2 221.2 128.5 256.5 128.5H480.5V32.5C480.5 14.8 466.2 0.5 448.5 0.5H128.5ZM256.5 160.5C238.8 160.5 224.5 174.8 224.5 192.5V224.5H320.5C355.8 224.5 384.5 253.2 384.5 288.5V416.5H576.5C594.2 416.5 608.5 402.2 608.5 384.5V192.5C608.5 174.8 594.2 160.5 576.5 160.5H256.5ZM496.5 224.5H528.5C537.3 224.5 544.5 231.7 544.5 240.5V272.5C544.5 281.3 537.3 288.5 528.5 288.5H496.5C487.7 288.5 480.5 281.3 480.5 272.5V240.5C480.5 231.7 487.7 224.5 496.5 224.5ZM64.5 256.5C46.8 256.5 32.5 270.8 32.5 288.5V301.5L187.6 416.4C189 417.4 190.7 418 192.5 418C194.3 418 196 417.4 197.4 416.4L352.5 301.5V288.5C352.5 270.8 338.2 256.5 320.5 256.5H64.5ZM352.5 341.3L216.5 442.1C209.6 447.2 201.2 450 192.5 450C183.8 450 175.5 447.2 168.5 442.1L32.5 341.3V480.5C32.5 498.2 46.8 512.5 64.5 512.5H320.5C338.2 512.5 352.5 498.2 352.5 480.5V341.3Z" fill="#47535F"/>
</g>
<defs>
<clipPath id="clip0_104_1212">
<rect width="640" height="512" fill="white" transform="translate(0.5 0.5)"/>
</clipPath>
</defs>
</svg>
