<svg width="641" height="513" viewBox="0 0 641 513" fill="none" xmlns="http://www.w3.org/2000/svg">
<g clip-path="url(#clip0_104_1206)">
<path d="M48.5 64.5C22 64.5 0.5 86 0.5 112.5C0.5 127.6 7.6 141.8 19.7 150.9L237.3 314.1C248.7 322.6 264.3 322.6 275.7 314.1L333.1 271.1C357 211.3 412.8 167.8 479.4 161.3L493.3 150.9C505.4 141.8 512.5 127.6 512.5 112.5C512.5 86 491 64.5 464.5 64.5H48.5ZM294.9 339.7C272.1 356.8 240.9 356.8 218.1 339.7L0.5 176.5V384.5C0.5 419.8 29.2 448.5 64.5 448.5H360.7C335.6 418.1 320.5 379 320.5 336.5C320.5 330.9 320.8 325.4 321.3 319.9L294.9 339.7ZM640.5 336.5C640.5 298.309 625.329 261.682 598.323 234.677C571.318 207.671 534.691 192.5 496.5 192.5C458.309 192.5 421.682 207.671 394.677 234.677C367.671 261.682 352.5 298.309 352.5 336.5C352.5 374.691 367.671 411.318 394.677 438.323C421.682 465.329 458.309 480.5 496.5 480.5C534.691 480.5 571.318 465.329 598.323 438.323C625.329 411.318 640.5 374.691 640.5 336.5ZM563.8 293.2C570 299.4 570 309.6 563.8 315.8L491.8 387.8C485.6 394 475.4 394 469.2 387.8L429.2 347.8C423 341.6 423 331.4 429.2 325.2C435.4 319 445.6 319 451.8 325.2L480.5 353.9L541.2 293.2C547.4 287 557.6 287 563.8 293.2Z" fill="#47535F"/>
</g>
<defs>
<clipPath id="clip0_104_1206">
<rect width="640" height="512" fill="white" transform="translate(0.5 0.5)"/>
</clipPath>
</defs>
</svg>
