<svg width="513" height="513" viewBox="0 0 513 513" fill="none" xmlns="http://www.w3.org/2000/svg">
<g clip-path="url(#clip0_104_1210)">
<path d="M215.9 96.5H144.5H108.3H96.5V105.3V144.5V184.9V273.9L0.7 203C2.3 184.9 11.6 168.1 26.4 157.2L48.5 140.8V96.5C48.5 70 70 48.5 96.5 48.5H173.1L223 11.6C232.7 4.4 244.4 0.5 256.5 0.5C268.6 0.5 280.3 4.4 290 11.5L339.9 48.5H416.5C443 48.5 464.5 70 464.5 96.5V140.8L486.6 157.2C501.4 168.1 510.7 184.9 512.3 203L416.5 273.9V184.9V144.5V105.3V96.5H404.7H368.5H297.1H215.9ZM0.5 448.5V242.6L218.1 403.8C229.2 412 242.7 416.5 256.5 416.5C270.3 416.5 283.8 412.1 294.9 403.8L512.5 242.6V448.5C512.5 483.8 483.8 512.5 448.5 512.5H64.5C29.2 512.5 0.5 483.8 0.5 448.5ZM176.5 160.5H336.5C345.3 160.5 352.5 167.7 352.5 176.5C352.5 185.3 345.3 192.5 336.5 192.5H176.5C167.7 192.5 160.5 185.3 160.5 176.5C160.5 167.7 167.7 160.5 176.5 160.5ZM176.5 224.5H336.5C345.3 224.5 352.5 231.7 352.5 240.5C352.5 249.3 345.3 256.5 336.5 256.5H176.5C167.7 256.5 160.5 249.3 160.5 240.5C160.5 231.7 167.7 224.5 176.5 224.5Z" fill="#47535F"/>
</g>
<defs>
<clipPath id="clip0_104_1210">
<rect width="512" height="512" fill="white" transform="translate(0.5 0.5)"/>
</clipPath>
</defs>
</svg>
