<svg width="513" height="513" viewBox="0 0 513 513" fill="none" xmlns="http://www.w3.org/2000/svg">
<g clip-path="url(#clip0_104_1204)">
<path d="M48.5 64.5C22 64.5 0.5 86 0.5 112.5C0.5 127.6 7.6 141.8 19.7 150.9L237.3 314.1C248.7 322.6 264.3 322.6 275.7 314.1L493.3 150.9C505.4 141.8 512.5 127.6 512.5 112.5C512.5 86 491 64.5 464.5 64.5H48.5ZM0.5 176.5V384.5C0.5 419.8 29.2 448.5 64.5 448.5H448.5C483.8 448.5 512.5 419.8 512.5 384.5V176.5L294.9 339.7C272.1 356.8 240.9 356.8 218.1 339.7L0.5 176.5Z" fill="#47535F"/>
</g>
<defs>
<clipPath id="clip0_104_1204">
<rect width="512" height="512" fill="white" transform="translate(0.5 0.5)"/>
</clipPath>
</defs>
</svg>
