<svg width="513" height="513" viewBox="0 0 513 513" fill="none" xmlns="http://www.w3.org/2000/svg">
<g clip-path="url(#clip0_104_1208)">
<path d="M64.5 208.6L256.5 66.4L448.5 208.6V256L290 373.5C280.3 380.7 268.6 384.5 256.5 384.5C244.4 384.5 232.7 380.6 223 373.5L64.5 256V208.6ZM256.5 0.5C244.4 0.5 232.7 4.4 223 11.5L26.4 157.2C10.1 169.3 0.5 188.3 0.5 208.6V448.5C0.5 483.8 29.2 512.5 64.5 512.5H448.5C483.8 512.5 512.5 483.8 512.5 448.5V208.6C512.5 188.3 502.9 169.2 486.6 157.2L290 11.5C280.3 4.4 268.6 0.5 256.5 0.5Z" fill="#47535F"/>
</g>
<defs>
<clipPath id="clip0_104_1208">
<rect width="512" height="512" fill="white" transform="translate(0.5 0.5)"/>
</clipPath>
</defs>
</svg>
