<svg width="577" height="513" viewBox="0 0 577 513" fill="none" xmlns="http://www.w3.org/2000/svg">
<path d="M291.2 57.8999L57.9004 291.2C32.9004 316.2 32.9004 356.7 57.9004 381.7L137.9 461.7C149.9 473.7 166.2 480.4 183.2 480.4H288.5H297.9H512.5C530.2 480.4 544.5 466.1 544.5 448.4C544.5 430.7 530.2 416.4 512.5 416.4H388.4L519.1 285.8C544.1 260.8 544.1 220.3 519.1 195.3L381.8 57.8999C356.8 32.8999 316.3 32.8999 291.3 57.8999H291.2ZM297.9 416.5H288.5H183.1L103.1 336.5L227.8 211.8L365.2 349.2L297.9 416.5Z" fill="#47535F"/>
</svg>
