<svg width="513" height="513" viewBox="0 0 513 513" fill="none" xmlns="http://www.w3.org/2000/svg">
<g clip-path="url(#clip0_104_1218)">
<path d="M0.5 224.5V416.5C0.5 434.2 14.8 448.5 32.5 448.5H96.5V336.5C96.5 327.7 103.7 320.5 112.5 320.5C121.3 320.5 128.5 327.7 128.5 336.5V448.5H192.5V336.5C192.5 327.7 199.7 320.5 208.5 320.5C217.3 320.5 224.5 327.7 224.5 336.5V448.5H288.5V336.5C288.5 327.7 295.7 320.5 304.5 320.5C313.3 320.5 320.5 327.7 320.5 336.5V448.5H384.5V336.5C384.5 327.7 391.7 320.5 400.5 320.5C409.3 320.5 416.5 327.7 416.5 336.5V448.5H480.5C498.2 448.5 512.5 434.2 512.5 416.5V224.5C512.5 206.8 498.2 192.5 480.5 192.5H448.5V160.5C448.5 142.8 434.2 128.5 416.5 128.5H384.5V96.5C384.5 78.8 370.2 64.5 352.5 64.5H160.5C142.8 64.5 128.5 78.8 128.5 96.5V128.5H96.5C78.8 128.5 64.5 142.8 64.5 160.5V192.5H32.5C14.8 192.5 0.5 206.8 0.5 224.5Z" fill="#47535F"/>
</g>
<defs>
<clipPath id="clip0_104_1218">
<rect width="512" height="512" fill="white" transform="translate(0.5 0.5)"/>
</clipPath>
</defs>
</svg>
