<svg width="321" height="513" viewBox="0 0 321 513" fill="none" xmlns="http://www.w3.org/2000/svg">
<g clip-path="url(#clip0_104_1220)">
<path d="M48.6 240.5C48.5 243.2 48.5 245.8 48.5 248.5V264.5C48.5 267.2 48.5 269.8 48.6 272.5H32.5C14.8 272.5 0.5 286.8 0.5 304.5C0.5 322.2 14.8 336.5 32.5 336.5H60.8C90.4 420.4 170.5 480.5 264.5 480.5H288.5C306.2 480.5 320.5 466.2 320.5 448.5C320.5 430.8 306.2 416.5 288.5 416.5H264.5C206.6 416.5 156.3 384.1 130.6 336.5H256.5C274.2 336.5 288.5 322.2 288.5 304.5C288.5 286.8 274.2 272.5 256.5 272.5H112.7C112.6 269.9 112.5 267.2 112.5 264.5V248.5C112.5 245.8 112.6 243.1 112.7 240.5H256.5C274.2 240.5 288.5 226.2 288.5 208.5C288.5 190.8 274.2 176.5 256.5 176.5H130.6C156.3 128.9 206.6 96.5 264.5 96.5H288.5C306.2 96.5 320.5 82.2 320.5 64.5C320.5 46.8 306.2 32.5 288.5 32.5H264.5C170.5 32.5 90.4 92.6 60.8 176.5H32.5C14.8 176.5 0.5 190.8 0.5 208.5C0.5 226.2 14.8 240.5 32.5 240.5H48.6Z" fill="#47535F"/>
</g>
<defs>
<clipPath id="clip0_104_1220">
<rect width="320" height="512" fill="white" transform="translate(0.5 0.5)"/>
</clipPath>
</defs>
</svg>
