<svg width="65" height="513" viewBox="0 0 65 513" fill="none" xmlns="http://www.w3.org/2000/svg">
<g clip-path="url(#clip0_104_1222)">
<path d="M64.5 64.5C64.5 46.8 50.2 32.5 32.5 32.5C14.8 32.5 0.5 46.8 0.5 64.5V320.5C0.5 338.2 14.8 352.5 32.5 352.5C50.2 352.5 64.5 338.2 64.5 320.5V64.5ZM32.5 480.5C43.1087 480.5 53.2828 476.286 60.7843 468.784C68.2857 461.283 72.5 451.109 72.5 440.5C72.5 429.891 68.2857 419.717 60.7843 412.216C53.2828 404.714 43.1087 400.5 32.5 400.5C21.8913 400.5 11.7172 404.714 4.21573 412.216C-3.28573 419.717 -7.5 429.891 -7.5 440.5C-7.5 451.109 -3.28573 461.283 4.21573 468.784C11.7172 476.286 21.8913 480.5 32.5 480.5Z" fill="#47535F"/>
</g>
<defs>
<clipPath id="clip0_104_1222">
<rect width="64" height="512" fill="white" transform="translate(0.5 0.5)"/>
</clipPath>
</defs>
</svg>
