<svg width="449" height="513" viewBox="0 0 449 513" fill="none" xmlns="http://www.w3.org/2000/svg">
<g clip-path="url(#clip0_104_1224)">
<path d="M32.5 32.5C14.8 32.5 0.5 46.8 0.5 64.5V160.5C0.5 178.2 14.8 192.5 32.5 192.5C50.2 192.5 64.5 178.2 64.5 160.5V96.5H128.5C146.2 96.5 160.5 82.2 160.5 64.5C160.5 46.8 146.2 32.5 128.5 32.5H32.5ZM64.5 352.5C64.5 334.8 50.2 320.5 32.5 320.5C14.8 320.5 0.5 334.8 0.5 352.5V448.5C0.5 466.2 14.8 480.5 32.5 480.5H128.5C146.2 480.5 160.5 466.2 160.5 448.5C160.5 430.8 146.2 416.5 128.5 416.5H64.5V352.5ZM320.5 32.5C302.8 32.5 288.5 46.8 288.5 64.5C288.5 82.2 302.8 96.5 320.5 96.5H384.5V160.5C384.5 178.2 398.8 192.5 416.5 192.5C434.2 192.5 448.5 178.2 448.5 160.5V64.5C448.5 46.8 434.2 32.5 416.5 32.5H320.5ZM448.5 352.5C448.5 334.8 434.2 320.5 416.5 320.5C398.8 320.5 384.5 334.8 384.5 352.5V416.5H320.5C302.8 416.5 288.5 430.8 288.5 448.5C288.5 466.2 302.8 480.5 320.5 480.5H416.5C434.2 480.5 448.5 466.2 448.5 448.5V352.5Z" fill="#47535F"/>
</g>
<defs>
<clipPath id="clip0_104_1224">
<rect width="448" height="512" fill="white" transform="translate(0.5 0.5)"/>
</clipPath>
</defs>
</svg>
