<svg width="577" height="513" viewBox="0 0 577 513" fill="none" xmlns="http://www.w3.org/2000/svg">
<g clip-path="url(#clip0_104_1226)">
<path d="M500.1 11.8001C506.8 1.10009 520.6 -2.69991 531.8 3.30009C543 9.30009 547.6 22.8001 542.4 34.3001L405.3 339.1C407.5 341.4 409.6 343.8 411.6 346.2L508.8 291.5C519.3 285.6 532.4 288.4 539.7 297.9C547 307.4 546 320.9 537.5 329.4L450.5 416.4H379C365.8 379.1 330.3 352.4 288.5 352.4C246.7 352.4 211.1 379.1 198 416.4H118.3L42.8 364.2C33.1 357.5 29.7 344.6 34.9 333.9C40.1 323.2 52.3 318 63.6 321.5L160.8 351.9C163.8 348 166.9 344.2 170.2 340.6L107.9 236.8C101.8 226.7 104 213.7 113 206.1C122 198.5 135.2 198.6 144.1 206.2L246.5 294.1C248 293.7 249.5 293.3 251 293L264.6 150.3C265.8 138 276.1 128.6 288.5 128.6C300.9 128.6 311.2 138 312.4 150.3L325.9 292.2L500.1 11.8001ZM64.5 448.5H512.5H544.5C562.2 448.5 576.5 462.8 576.5 480.5C576.5 498.2 562.2 512.5 544.5 512.5H32.5C14.8 512.5 0.5 498.2 0.5 480.5C0.5 462.8 14.8 448.5 32.5 448.5H64.5ZM288.5 0.500086C301.8 0.500086 312.5 11.2001 312.5 24.5001V72.5001C312.5 85.8001 301.8 96.5001 288.5 96.5001C275.2 96.5001 264.5 85.8001 264.5 72.5001V24.5001C264.5 11.2001 275.2 0.500086 288.5 0.500086Z" fill="#47535F"/>
</g>
<defs>
<clipPath id="clip0_104_1226">
<rect width="576" height="512" fill="white" transform="translate(0.5 0.5)"/>
</clipPath>
</defs>
</svg>
