<svg width="641" height="513" viewBox="0 0 641 513" fill="none" xmlns="http://www.w3.org/2000/svg">
<g clip-path="url(#clip0_104_1232)">
<path d="M39.2998 5.60001C28.8998 -2.59999 13.7998 -0.699994 5.59976 9.70001C-2.60024 20.1 -0.700238 35.2 9.69976 43.4L601.7 507.4C612.1 515.6 627.2 513.7 635.4 503.3C643.6 492.9 641.7 477.8 631.3 469.6L526.1 387.2C565.7 346.6 592.5 301.1 606 268.8C609.3 260.9 609.3 252.1 606 244.2C591.1 208.5 559.8 156.5 513 113.1C466 69.3 401.3 32.5 320.5 32.5C252.3 32.5 195.5 58.8 151.2 93.3L39.2998 5.60001ZM223.5 150C272.1 105.7 346.5 99.2 402.8 138.3C463.6 180.7 481.7 261.5 447 325.2L408.5 295C416.9 275.7 419.1 253.6 413.3 231.7C402.2 190.2 365.5 162.3 324.7 160.6C318.9 160.4 315.5 166.7 317.3 172.3C319.4 178.7 320.6 185.5 320.6 192.6C320.6 202.8 318.2 212.4 314 220.9L223.5 150ZM446.6 448L83.5998 162C72.5998 176.4 63.0998 190.7 55.1998 204.2L394.2 469.9C412.9 464.4 430.4 456.9 446.8 448.1L446.6 448ZM34.9998 268.8C49.8998 304.5 81.1998 356.5 128 399.9C175 443.7 239.7 480.5 320.5 480.5C323.6 480.5 326.6 480.4 329.7 480.3L33.5998 248.3C31.7998 255.1 32.2998 262.3 34.9998 268.8Z" fill="#47535F"/>
</g>
<defs>
<clipPath id="clip0_104_1232">
<rect width="640" height="512" fill="white" transform="translate(0.5 0.5)"/>
</clipPath>
</defs>
</svg>
