<svg width="513" height="513" viewBox="0 0 513 513" fill="none" xmlns="http://www.w3.org/2000/svg">
<g clip-path="url(#clip0_104_1230)">
<path d="M342.1 29.6999L240.6 131.3L231.2 121.9C218.7 109.4 198.4 109.4 185.9 121.9C173.4 134.4 173.4 154.7 185.9 167.2L345.9 327.2C358.4 339.7 378.7 339.7 391.2 327.2C403.7 314.7 403.7 294.4 391.2 281.9L381.8 272.5L483.3 170.9C522.3 131.9 522.3 68.6999 483.3 29.7999C444.3 -9.10009 381.1 -9.20008 342.2 29.7999L342.1 29.6999ZM55.8998 323.8C40.8998 338.8 32.4998 359.2 32.4998 380.4V422.8L5.89976 462.7C-2.60024 475.4 -0.900237 492.3 9.89976 503.1C20.6998 513.9 37.5998 515.6 50.2998 507.1L90.1998 480.5H132.6C153.8 480.5 174.2 472.1 189.2 457.1L309.9 336.4L264.6 291.1L143.9 411.8C140.9 414.8 136.8 416.5 132.6 416.5H96.4998V380.4C96.4998 376.2 98.1998 372.1 101.2 369.1L221.9 248.4L176.6 203.1L55.8998 323.8Z" fill="#47535F"/>
</g>
<defs>
<clipPath id="clip0_104_1230">
<rect width="512" height="512" fill="white" transform="translate(0.5 0.5)"/>
</clipPath>
</defs>
</svg>
