<svg width="577" height="513" viewBox="0 0 577 513" fill="none" xmlns="http://www.w3.org/2000/svg">
<g clip-path="url(#clip0_104_1228)">
<path d="M288.5 32.5C207.7 32.5 143 69.3 95.9004 113.1C49.1004 156.5 17.8004 208.5 3.00039 244.2C-0.299609 252.1 -0.299609 260.9 3.00039 268.8C17.8004 304.5 49.1004 356.5 95.9004 399.9C143 443.7 207.7 480.5 288.5 480.5C369.3 480.5 434 443.7 481.1 399.9C527.9 356.4 559.2 304.5 574.1 268.8C577.4 260.9 577.4 252.1 574.1 244.2C559.2 208.5 527.9 156.5 481.1 113.1C434 69.3 369.3 32.5 288.5 32.5ZM144.5 256.5C144.5 218.309 159.672 181.682 186.677 154.677C213.682 127.671 250.309 112.5 288.5 112.5C326.692 112.5 363.319 127.671 390.324 154.677C417.329 181.682 432.5 218.309 432.5 256.5C432.5 294.691 417.329 331.318 390.324 358.323C363.319 385.329 326.692 400.5 288.5 400.5C250.309 400.5 213.682 385.329 186.677 358.323C159.672 331.318 144.5 294.691 144.5 256.5ZM288.5 192.5C288.5 227.8 259.8 256.5 224.5 256.5C217.4 256.5 210.6 255.3 204.2 253.2C198.7 251.4 192.3 254.8 192.5 260.6C192.8 267.5 193.8 274.4 195.7 281.3C209.4 332.5 262.1 362.9 313.3 349.2C364.5 335.5 394.9 282.8 381.2 231.6C370.1 190.1 333.4 162.2 292.6 160.5C286.8 160.3 283.4 166.6 285.2 172.2C287.3 178.6 288.5 185.4 288.5 192.5Z" fill="#47535F"/>
</g>
<defs>
<clipPath id="clip0_104_1228">
<rect width="576" height="512" fill="white" transform="translate(0.5 0.5)"/>
</clipPath>
</defs>
</svg>
