<svg width="513" height="513" viewBox="0 0 513 513" fill="none" xmlns="http://www.w3.org/2000/svg">
<g clip-path="url(#clip0_104_1278)">
<path d="M256.5 512.5C324.395 512.5 389.51 485.529 437.519 437.519C485.529 389.51 512.5 324.395 512.5 256.5C512.5 188.605 485.529 123.49 437.519 75.4807C389.51 27.4714 324.395 0.5 256.5 0.5C188.605 0.5 123.49 27.4714 75.4807 75.4807C27.4714 123.49 0.5 188.605 0.5 256.5C0.5 324.395 27.4714 389.51 75.4807 437.519C123.49 485.529 188.605 512.5 256.5 512.5ZM305.2 314.2C309.5 319.3 312.5 325.6 312.5 332.5C312.5 339.4 309.4 345.7 305.2 350.8C300.9 356 295.1 360.5 288.5 364.2C285.8 365.7 282.8 367.2 279.8 368.5C282.9 369.8 285.8 371.2 288.5 372.8C295.1 376.5 301 381 305.2 386.2C309.5 391.3 312.5 397.6 312.5 404.5C312.5 411.4 309.4 417.7 305.2 422.8C300.9 428 295.1 432.5 288.5 436.2C275.2 443.6 257.9 448.5 240.5 448.5C236.9 448.5 233.7 446 232.8 442.5C231.9 439 233.4 435.3 236.6 433.5L236.8 433.4C237 433.3 237.3 433.1 237.7 432.9C238.5 432.4 239.7 431.7 241.1 430.8C243.9 428.9 247.6 426.3 251.3 423.2C255 420.1 258.5 416.6 260.9 413.1C263.4 409.6 264.4 406.7 264.4 404.5C264.4 402.3 263.4 399.5 260.9 395.9C258.4 392.4 255 389 251.3 385.8C247.6 382.7 243.9 380.1 241.1 378.2C239.7 377.3 238.5 376.6 237.7 376.1C237.3 375.9 237 375.7 236.8 375.6L236.6 375.5C234.1 374.1 232.5 371.4 232.5 368.5C232.5 365.6 234.1 362.9 236.6 361.5L236.8 361.4L237.1 361.2L237.7 360.8C238.5 360.3 239.7 359.6 241.1 358.7C243.9 356.8 247.6 354.2 251.3 351.1C255 348 258.5 344.5 260.9 341C263.4 337.5 264.4 334.6 264.4 332.4C264.4 330.2 263.4 327.4 260.9 323.8C258.4 320.3 255 316.9 251.3 313.7C247.6 310.6 243.9 308 241.1 306.1C239.7 305.2 238.5 304.5 237.7 304L237.3 303.7L236.8 303.4L236.6 303.3C233.4 301.5 231.9 297.8 232.8 294.3C233.7 290.8 236.9 288.3 240.5 288.3C257.9 288.3 275.2 293.2 288.4 300.6C295 304.3 300.9 308.8 305.1 314L305.2 314.2ZM218.1 229.3L217.9 229.1C217.7 228.9 217.5 228.6 217.2 228.2C216.6 227.4 215.6 226.2 214.4 224.8C211.9 222 208.4 218.2 204.2 214.5C195.4 206.7 185.4 200.5 176.5 200.5C167.6 200.5 157.6 206.7 148.8 214.5C144.6 218.2 141.1 222 138.6 224.8C137.4 226.2 136.4 227.4 135.8 228.2C135.5 228.6 135.2 228.9 135.1 229.1L134.9 229.3C132.8 232.1 129.2 233.2 126 232.1C122.8 231 120.5 228 120.5 224.5C120.5 206.6 127.2 188.9 137.1 175.7C146.9 162.7 161 152.5 176.5 152.5C192 152.5 206.1 162.7 215.9 175.7C225.8 188.9 232.5 206.6 232.5 224.5C232.5 227.9 230.3 231 227 232.1C223.7 233.2 220.1 232.1 218.1 229.3ZM378.1 229.3L377.9 229.1C377.7 228.9 377.5 228.6 377.2 228.2C376.6 227.4 375.6 226.2 374.4 224.8C371.9 222 368.4 218.2 364.2 214.5C355.4 206.7 345.4 200.5 336.5 200.5C327.6 200.5 317.6 206.7 308.8 214.5C304.6 218.2 301.1 222 298.6 224.8C297.4 226.2 296.4 227.4 295.8 228.2C295.5 228.6 295.2 228.9 295.1 229.1L294.9 229.3C292.8 232.1 289.2 233.2 286 232.1C282.8 231 280.5 228 280.5 224.5C280.5 206.6 287.2 188.9 297.1 175.7C306.9 162.7 321 152.5 336.5 152.5C352 152.5 366.1 162.7 375.9 175.7C385.8 188.9 392.5 206.6 392.5 224.5C392.5 227.9 390.3 231 387 232.1C383.7 233.2 380.1 232.1 378.1 229.3Z" fill="#47535F"/>
</g>
<defs>
<clipPath id="clip0_104_1278">
<rect width="512" height="512" fill="white" transform="translate(0.5 0.5)"/>
</clipPath>
</defs>
</svg>
