<svg width="513" height="513" viewBox="0 0 513 513" fill="none" xmlns="http://www.w3.org/2000/svg">
<g clip-path="url(#clip0_104_1240)">
<path d="M256.5 512.5C324.395 512.5 389.51 485.529 437.519 437.519C485.529 389.51 512.5 324.395 512.5 256.5C512.5 188.605 485.529 123.49 437.519 75.4807C389.51 27.4714 324.395 0.5 256.5 0.5C188.605 0.5 123.49 27.4714 75.4807 75.4807C27.4714 123.49 0.5 188.605 0.5 256.5C0.5 324.395 27.4714 389.51 75.4807 437.519C123.49 485.529 188.605 512.5 256.5 512.5ZM256.5 288.5C273.474 288.5 289.752 295.243 301.755 307.245C313.757 319.248 320.5 335.526 320.5 352.5C320.5 369.474 313.757 385.752 301.755 397.755C289.752 409.757 273.474 416.5 256.5 416.5C239.526 416.5 223.247 409.757 211.245 397.755C199.243 385.752 192.5 369.474 192.5 352.5C192.5 335.526 199.243 319.248 211.245 307.245C223.247 295.243 239.526 288.5 256.5 288.5ZM101.2 133.2C107.4 127 117.6 127 123.8 133.2L160.5 169.9L197.2 133.2C203.4 127 213.6 127 219.8 133.2C226 139.4 226 149.6 219.8 155.8L183.1 192.5L219.8 229.2C226 235.4 226 245.6 219.8 251.8C213.6 258 203.4 258 197.2 251.8L160.5 215.1L123.8 251.8C117.6 258 107.4 258 101.2 251.8C95 245.6 95 235.4 101.2 229.2L137.9 192.5L101.2 155.8C95 149.6 95 139.4 101.2 133.2ZM293.2 133.2C299.4 127 309.6 127 315.8 133.2L352.5 169.9L389.2 133.2C395.4 127 405.6 127 411.8 133.2C418 139.4 418 149.6 411.8 155.8L375.1 192.5L411.8 229.2C418 235.4 418 245.6 411.8 251.8C405.6 258 395.4 258 389.2 251.8L352.5 215.1L315.8 251.8C309.6 258 299.4 258 293.2 251.8C287 245.6 287 235.4 293.2 229.2L329.9 192.5L293.2 155.8C287 149.6 287 139.4 293.2 133.2Z" fill="#47535F"/>
</g>
<defs>
<clipPath id="clip0_104_1240">
<rect width="512" height="512" fill="white" transform="translate(0.5 0.5)"/>
</clipPath>
</defs>
</svg>
