<svg width="513" height="513" viewBox="0 0 513 513" fill="none" xmlns="http://www.w3.org/2000/svg">
<g clip-path="url(#clip0_104_1292)">
<path d="M0.5 256.5C0.5 188.605 27.4714 123.49 75.4807 75.4807C123.49 27.4714 188.605 0.5 256.5 0.5C324.395 0.5 389.51 27.4714 437.519 75.4807C485.529 123.49 512.5 188.605 512.5 256.5C512.5 324.395 485.529 389.51 437.519 437.519C389.51 485.529 324.395 512.5 256.5 512.5C188.605 512.5 123.49 485.529 75.4807 437.519C27.4714 389.51 0.5 324.395 0.5 256.5ZM208.9 208.5C208.9 200.013 205.529 191.874 199.527 185.873C193.526 179.871 185.387 176.5 176.9 176.5C168.413 176.5 160.274 179.871 154.273 185.873C148.271 191.874 144.9 200.013 144.9 208.5C144.9 216.987 148.271 225.126 154.273 231.127C160.274 237.129 168.413 240.5 176.9 240.5C185.387 240.5 193.526 237.129 199.527 231.127C205.529 225.126 208.9 216.987 208.9 208.5ZM336.9 240.5C345.387 240.5 353.526 237.129 359.527 231.127C365.529 225.126 368.9 216.987 368.9 208.5C368.9 200.013 365.529 191.874 359.527 185.873C353.526 179.871 345.387 176.5 336.9 176.5C328.413 176.5 320.274 179.871 314.273 185.873C308.271 191.874 304.9 200.013 304.9 208.5C304.9 216.987 308.271 225.126 314.273 231.127C320.274 237.129 328.413 240.5 336.9 240.5Z" fill="#47535F"/>
</g>
<defs>
<clipPath id="clip0_104_1292">
<rect width="512" height="512" fill="white" transform="translate(0.5 0.5)"/>
</clipPath>
</defs>
</svg>
