<svg width="513" height="513" viewBox="0 0 513 513" fill="none" xmlns="http://www.w3.org/2000/svg">
<g clip-path="url(#clip0_104_1260)">
<path d="M427.299 14.7001C446.499 -4.49989 477.999 -4.09989 497.599 15.4001C517.199 34.9001 517.599 66.4001 498.299 85.7001C491.499 92.5001 476.899 98.1001 460.899 102.4C444.599 106.8 426.799 109.9 414.599 111.7C412.999 111.9 411.499 112.2 409.999 112.3C405.099 113.1 400.899 109.5 400.499 104.9C400.399 104.2 400.499 103.5 400.599 102.8C402.199 91.6001 405.199 73.2001 409.599 55.8001C409.899 54.5001 410.299 53.2001 410.599 51.9001C414.899 36.0001 420.399 21.4001 427.299 14.5001V14.7001ZM382.599 33.7001C381.099 38.5001 379.699 43.3001 378.499 48.0001C373.699 66.9001 370.499 86.5001 368.799 98.3001C364.799 125.1 387.699 148 414.499 144.1C426.399 142.5 445.999 139.3 464.899 134.4C469.599 133.2 474.399 131.9 479.199 130.3C534.699 228 520.699 354.3 437.499 437.5C354.299 520.7 227.999 534.7 130.299 479.3C131.799 474.5 133.099 469.7 134.299 465C139.099 446.1 142.299 426.5 143.999 414.7C147.999 387.9 125.099 365 98.2994 368.9C86.3994 370.5 66.7994 373.7 47.8994 378.6C43.1994 379.8 38.3994 381.1 33.5994 382.7C-21.7006 285 -7.7006 158.7 75.4994 75.5001C158.699 -7.79989 284.999 -21.6999 382.699 33.7001H382.599ZM51.9994 410.6C70.4994 405.6 90.7994 402.3 102.899 400.6C103.299 400.5 103.599 400.5 103.899 400.5C108.999 400.3 113.099 404.8 112.299 410.1C110.599 422.2 107.299 442.5 102.299 461C98.0994 476.9 92.4994 491.5 85.6994 498.3C66.4994 517.5 34.9994 517.1 15.3994 497.6C-4.2006 478.1 -4.6006 446.6 14.6994 427.3C21.4994 420.5 36.0994 414.9 52.0994 410.6H51.9994ZM417.399 209.5C412.699 197.6 396.599 198.5 390.599 209.8C371.599 245.3 345.599 280.6 313.099 313.1C280.599 345.6 245.299 371.6 209.799 390.5C198.499 396.5 197.599 412.6 209.499 417.3C267.099 440.2 335.299 428.3 381.799 381.8C428.299 335.3 440.199 267 417.299 209.5H417.399ZM87.5994 285.6C89.5994 287.6 92.1994 288.8 94.8994 289L150.999 294.1L156.099 350.2C156.399 353 157.599 355.6 159.499 357.5C165.799 363.8 176.699 361.1 179.299 352.6L208.999 255.2C212.499 243.6 201.699 232.7 189.999 236.2L92.4994 265.8C83.8994 268.4 81.1994 279.2 87.5994 285.6ZM265.799 92.5001L236.099 189.9C232.599 201.5 243.399 212.4 255.099 208.9L352.499 179.2C361.099 176.6 363.799 165.8 357.399 159.4C355.399 157.4 352.799 156.2 350.099 156L293.999 150.9L288.899 94.8001C288.599 92.0001 287.399 89.4001 285.499 87.5001C279.199 81.2001 268.299 83.9001 265.699 92.4001L265.799 92.5001Z" fill="#47535F"/>
</g>
<defs>
<clipPath id="clip0_104_1260">
<rect width="512" height="512" fill="white" transform="translate(0.5 0.5)"/>
</clipPath>
</defs>
</svg>
