<svg width="513" height="513" viewBox="0 0 513 513" fill="none" xmlns="http://www.w3.org/2000/svg">
<g clip-path="url(#clip0_104_1304)">
<path d="M256.5 512.5C324.395 512.5 389.51 485.529 437.519 437.519C485.529 389.51 512.5 324.395 512.5 256.5C512.5 188.605 485.529 123.49 437.519 75.4807C389.51 27.4714 324.395 0.5 256.5 0.5C188.605 0.5 123.49 27.4714 75.4807 75.4807C27.4714 123.49 0.5 188.605 0.5 256.5C0.5 324.395 27.4714 389.51 75.4807 437.519C123.49 485.529 188.605 512.5 256.5 512.5ZM164.6 326C182.5 346.7 213.1 368.5 256.5 368.5C299.9 368.5 330.5 346.7 348.4 326C354.2 319.3 364.3 318.6 371 324.4C377.7 330.2 378.4 340.3 372.6 347C350.3 372.6 311.6 400.5 256.5 400.5C201.4 400.5 162.7 372.6 140.4 347C134.6 340.3 135.3 330.2 142 324.4C148.7 318.6 158.8 319.3 164.6 326ZM144.9 208.5C144.9 200.013 148.271 191.874 154.273 185.873C160.274 179.871 168.413 176.5 176.9 176.5C185.387 176.5 193.526 179.871 199.527 185.873C205.529 191.874 208.9 200.013 208.9 208.5C208.9 216.987 205.529 225.126 199.527 231.127C193.526 237.129 185.387 240.5 176.9 240.5C168.413 240.5 160.274 237.129 154.273 231.127C148.271 225.126 144.9 216.987 144.9 208.5ZM301.3 234.1C296 241.2 286 242.6 278.9 237.3C271.8 232 270.4 222 275.7 214.9C306.1 174.4 366.9 174.4 397.3 214.9C402.6 222 401.2 232 394.1 237.3C387 242.6 377 241.2 371.7 234.1C354.1 210.6 318.9 210.6 301.3 234.1Z" fill="#47535F"/>
</g>
<defs>
<clipPath id="clip0_104_1304">
<rect width="512" height="512" fill="white" transform="translate(0.5 0.5)"/>
</clipPath>
</defs>
</svg>
