<svg width="513" height="513" viewBox="0 0 513 513" fill="none" xmlns="http://www.w3.org/2000/svg">
<g clip-path="url(#clip0_104_1284)">
<path d="M256.5 512.5C324.395 512.5 389.51 485.529 437.519 437.519C485.529 389.51 512.5 324.395 512.5 256.5C512.5 188.605 485.529 123.49 437.519 75.4807C389.51 27.4714 324.395 0.5 256.5 0.5C188.605 0.5 123.49 27.4714 75.4807 75.4807C27.4714 123.49 0.5 188.605 0.5 256.5C0.5 324.395 27.4714 389.51 75.4807 437.519C123.49 485.529 188.605 512.5 256.5 512.5ZM97.3 314.6C93.5 300.9 104.7 288.5 118.9 288.5H394.1C408.3 288.5 419.6 300.9 415.7 314.6C396.7 382.5 332.6 432.5 256.5 432.5C180.4 432.5 116.3 382.5 97.3 314.6ZM218.1 213.3L217.9 213.1C217.7 212.9 217.5 212.6 217.2 212.2C216.6 211.4 215.6 210.2 214.4 208.8C211.9 206 208.4 202.2 204.2 198.5C195.4 190.7 185.4 184.5 176.5 184.5C167.6 184.5 157.6 190.7 148.8 198.5C144.6 202.2 141.1 206 138.6 208.8C137.4 210.2 136.4 211.4 135.8 212.2C135.5 212.6 135.2 212.9 135.1 213.1L134.9 213.3C132.8 216.1 129.2 217.2 126 216.1C122.8 215 120.5 212 120.5 208.5C120.5 190.6 127.2 172.9 137.1 159.7C146.9 146.7 161 136.5 176.5 136.5C192 136.5 206.1 146.7 215.9 159.7C225.8 172.9 232.5 190.6 232.5 208.5C232.5 211.9 230.3 215 227 216.1C223.7 217.2 220.1 216.1 218.1 213.3ZM378.1 213.3L377.9 213.1C377.7 212.9 377.5 212.6 377.2 212.2C376.6 211.4 375.6 210.2 374.4 208.8C371.9 206 368.4 202.2 364.2 198.5C355.4 190.7 345.4 184.5 336.5 184.5C327.6 184.5 317.6 190.7 308.8 198.5C304.6 202.2 301.1 206 298.6 208.8C297.4 210.2 296.4 211.4 295.8 212.2C295.5 212.6 295.2 212.9 295.1 213.1L294.9 213.3C292.8 216.1 289.2 217.2 286 216.1C282.8 215 280.5 212 280.5 208.5C280.5 190.6 287.2 172.9 297.1 159.7C306.9 146.7 321 136.5 336.5 136.5C352 136.5 366.1 146.7 375.9 159.7C385.8 172.9 392.5 190.6 392.5 208.5C392.5 211.9 390.3 215 387 216.1C383.7 217.2 380.1 216.1 378.1 213.3Z" fill="#47535F"/>
</g>
<defs>
<clipPath id="clip0_104_1284">
<rect width="512" height="512" fill="white" transform="translate(0.5 0.5)"/>
</clipPath>
</defs>
</svg>
