<svg width="513" height="513" viewBox="0 0 513 513" fill="none" xmlns="http://www.w3.org/2000/svg">
<g clip-path="url(#clip0_104_1296)">
<path d="M352.5 493.9C322.9 505.9 290.4 512.5 256.5 512.5C222.6 512.5 190.1 505.9 160.5 493.9V288.5C160.5 279.7 153.3 272.5 144.5 272.5C135.7 272.5 128.5 279.7 128.5 288.5V478.3C52 434 0.5 351.3 0.5 256.5C0.5 115.1 115.1 0.5 256.5 0.5C397.9 0.5 512.5 115.1 512.5 256.5C512.5 351.3 461 434 384.5 478.3V288.5C384.5 279.7 377.3 272.5 368.5 272.5C359.7 272.5 352.5 279.7 352.5 288.5V493.9ZM195.7 234.1C201 241.2 211 242.6 218.1 237.3C225.2 232 226.6 222 221.3 214.9C190.9 174.4 130.1 174.4 99.7 214.9C94.4 222 95.8 232 102.9 237.3C110 242.6 120 241.2 125.3 234.1C142.9 210.6 178.1 210.6 195.7 234.1ZM317.3 234.1C334.9 210.6 370.1 210.6 387.7 234.1C393 241.2 403 242.6 410.1 237.3C417.2 232 418.6 222 413.3 214.9C382.9 174.4 322.1 174.4 291.7 214.9C286.4 222 287.8 232 294.9 237.3C302 242.6 312 241.2 317.3 234.1ZM208.5 336.5V368.5C208.5 395 230 416.5 256.5 416.5C283 416.5 304.5 395 304.5 368.5V336.5C304.5 310 283 288.5 256.5 288.5C230 288.5 208.5 310 208.5 336.5Z" fill="#47535F"/>
</g>
<defs>
<clipPath id="clip0_104_1296">
<rect width="512" height="512" fill="white" transform="translate(0.5 0.5)"/>
</clipPath>
</defs>
</svg>
