<svg width="641" height="513" viewBox="0 0 641 513" fill="none" xmlns="http://www.w3.org/2000/svg">
<g clip-path="url(#clip0_104_1264)">
<path d="M549.101 371.9C506.901 455.3 420.401 512.5 320.501 512.5C220.601 512.5 134.101 455.3 91.9007 371.9C96.4007 369 100.601 365.6 104.601 361.6C112.701 353.5 117.801 343 121.101 335C124.701 326.2 127.601 316.6 129.901 307.5C134.501 289.3 137.601 270.5 139.201 259.3C143.101 232.8 120.401 210.1 94.0007 213.9C87.2007 214.8 77.8007 216.3 67.4007 218.3C85.8007 95 192.101 0.5 320.501 0.5C448.901 0.5 555.201 95 573.701 218.2C563.401 216.2 553.901 214.7 547.101 213.8C520.601 209.9 497.901 232.6 501.901 259.2C503.501 270.5 506.501 289.2 511.201 307.4C513.501 316.5 516.401 326.2 520.001 334.9C523.301 343 528.401 353.4 536.501 361.5C540.401 365.4 544.701 368.9 549.201 371.8L549.101 371.9ZM107.501 254.6C104.401 276.1 96.1007 324.8 82.0007 339C81.1007 340 80.1007 340.8 79.1007 341.7C60.5007 357.2 32.5007 356 14.8007 338.2C-3.89929 319.5 -4.29929 289.4 14.1007 271C22.7007 262.4 44.2007 255.9 64.6007 251.4C77.6007 248.6 90.1007 246.6 98.5007 245.4C103.901 244.6 108.401 249.1 107.501 254.4V254.6ZM562.001 341.7C561.201 341.1 560.501 340.4 559.701 339.7C559.501 339.5 559.201 339.3 559.001 339C544.901 324.9 536.501 276.1 533.501 254.6C532.701 249.2 537.201 244.7 542.501 245.6C543.501 245.7 544.701 245.9 545.801 246.1C554.001 247.3 565.001 249.1 576.401 251.6C596.801 256 618.301 262.5 626.901 271.2C645.301 289.6 644.901 319.7 626.201 338.4C608.501 356.1 580.501 357.4 562.001 341.8V341.7ZM471.901 332C476.901 320.2 464.901 309.5 452.601 313.3C412.901 325.5 368.201 332.3 320.801 332.3C273.401 332.3 228.701 325.5 189.001 313.3C176.701 309.5 164.701 320.2 169.701 332C194.701 391.1 252.901 432.5 320.801 432.5C388.701 432.5 447.001 391.1 471.901 332ZM282.101 229.3C284.201 232.1 287.801 233.2 291.001 232.1C294.201 231 296.501 228 296.501 224.5C296.501 206.6 289.801 188.9 279.901 175.7C270.101 162.7 256.001 152.5 240.501 152.5C225.001 152.5 210.901 162.7 201.101 175.7C191.201 188.9 184.501 206.6 184.501 224.5C184.501 227.9 186.701 231 190.001 232.1C193.301 233.2 196.901 232.1 198.901 229.3L199.101 229.1C199.301 228.9 199.501 228.6 199.801 228.2C200.401 227.4 201.401 226.2 202.601 224.8C205.101 222 208.601 218.2 212.801 214.5C221.601 206.7 231.601 200.5 240.501 200.5C249.401 200.5 259.401 206.7 268.201 214.5C272.401 218.2 275.901 222 278.401 224.8C279.601 226.2 280.601 227.4 281.201 228.2C281.501 228.6 281.801 228.9 281.901 229.1L282.101 229.3ZM442.101 229.3C444.201 232.1 447.801 233.2 451.001 232.1C454.201 231 456.501 228 456.501 224.5C456.501 206.6 449.801 188.9 439.901 175.7C430.101 162.7 416.001 152.5 400.501 152.5C385.001 152.5 370.901 162.7 361.101 175.7C351.201 188.9 344.501 206.6 344.501 224.5C344.501 227.9 346.701 231 350.001 232.1C353.301 233.2 356.901 232.1 358.901 229.3L359.101 229.1C359.301 228.9 359.501 228.6 359.801 228.2C360.401 227.4 361.401 226.2 362.601 224.8C365.101 222 368.601 218.2 372.801 214.5C381.601 206.7 391.601 200.5 400.501 200.5C409.401 200.5 419.401 206.7 428.201 214.5C432.401 218.2 435.901 222 438.401 224.8C439.601 226.2 440.601 227.4 441.201 228.2C441.501 228.6 441.801 228.9 441.901 229.1L442.101 229.3Z" fill="#47535F"/>
</g>
<defs>
<clipPath id="clip0_104_1264">
<rect width="640" height="512" fill="white" transform="translate(0.5 0.5)"/>
</clipPath>
</defs>
</svg>
