<svg width="513" height="513" viewBox="0 0 513 513" fill="none" xmlns="http://www.w3.org/2000/svg">
<g clip-path="url(#clip0_104_1242)">
<path d="M0.5 256.5C0.5 188.605 27.4714 123.49 75.4807 75.4807C123.49 27.4714 188.605 0.5 256.5 0.5C324.395 0.5 389.51 27.4714 437.519 75.4807C485.529 123.49 512.5 188.605 512.5 256.5C512.5 324.395 485.529 389.51 437.519 437.519C389.51 485.529 324.395 512.5 256.5 512.5C188.605 512.5 123.49 485.529 75.4807 437.519C27.4714 389.51 0.5 324.395 0.5 256.5ZM176.5 384.5C176.5 393.3 183.7 400.5 192.5 400.5H320.5C329.3 400.5 336.5 393.3 336.5 384.5C336.5 375.7 329.3 368.5 320.5 368.5H192.5C183.7 368.5 176.5 375.7 176.5 384.5ZM160.5 296.5C169.955 296.5 179.318 294.638 188.053 291.019C196.789 287.401 204.726 282.098 211.412 275.412C218.098 268.726 223.401 260.789 227.019 252.053C230.638 243.318 232.5 233.955 232.5 224.5C232.5 215.045 230.638 205.682 227.019 196.947C223.401 188.211 218.098 180.274 211.412 173.588C204.726 166.902 196.789 161.599 188.053 157.981C179.318 154.362 169.955 152.5 160.5 152.5C151.045 152.5 141.682 154.362 132.947 157.981C124.211 161.599 116.274 166.902 109.588 173.588C102.902 180.274 97.599 188.211 93.9807 196.947C90.3623 205.682 88.5 215.045 88.5 224.5C88.5 233.955 90.3623 243.318 93.9807 252.053C97.599 260.789 102.902 268.726 109.588 275.412C116.274 282.098 124.211 287.401 132.947 291.019C141.682 294.638 151.045 296.5 160.5 296.5ZM424.5 224.5C424.5 215.045 422.638 205.682 419.019 196.947C415.401 188.211 410.098 180.274 403.412 173.588C396.726 166.902 388.789 161.599 380.053 157.981C371.318 154.362 361.955 152.5 352.5 152.5C343.045 152.5 333.682 154.362 324.947 157.981C316.211 161.599 308.274 166.902 301.588 173.588C294.902 180.274 289.599 188.211 285.981 196.947C282.362 205.682 280.5 215.045 280.5 224.5C280.5 233.955 282.362 243.318 285.981 252.053C289.599 260.789 294.902 268.726 301.588 275.412C308.274 282.098 316.211 287.401 324.947 291.019C333.682 294.638 343.045 296.5 352.5 296.5C361.955 296.5 371.318 294.638 380.053 291.019C388.789 287.401 396.726 282.098 403.412 275.412C410.098 268.726 415.401 260.789 419.019 252.053C422.638 243.318 424.5 233.955 424.5 224.5ZM136.5 224.5C136.5 218.135 139.029 212.03 143.529 207.529C148.03 203.029 154.135 200.5 160.5 200.5C166.865 200.5 172.97 203.029 177.471 207.529C181.971 212.03 184.5 218.135 184.5 224.5C184.5 230.865 181.971 236.97 177.471 241.471C172.97 245.971 166.865 248.5 160.5 248.5C154.135 248.5 148.03 245.971 143.529 241.471C139.029 236.97 136.5 230.865 136.5 224.5ZM328.5 224.5C328.5 218.135 331.029 212.03 335.529 207.529C340.03 203.029 346.135 200.5 352.5 200.5C358.865 200.5 364.97 203.029 369.471 207.529C373.971 212.03 376.5 218.135 376.5 224.5C376.5 230.865 373.971 236.97 369.471 241.471C364.97 245.971 358.865 248.5 352.5 248.5C346.135 248.5 340.03 245.971 335.529 241.471C331.029 236.97 328.5 230.865 328.5 224.5Z" fill="#47535F"/>
</g>
<defs>
<clipPath id="clip0_104_1242">
<rect width="512" height="512" fill="white" transform="translate(0.5 0.5)"/>
</clipPath>
</defs>
</svg>
