<svg width="513" height="513" viewBox="0 0 513 513" fill="none" xmlns="http://www.w3.org/2000/svg">
<g clip-path="url(#clip0_104_1238)">
<path d="M0.5 256.5C0.5 188.605 27.4714 123.49 75.4807 75.4807C123.49 27.4714 188.605 0.5 256.5 0.5C324.395 0.5 389.51 27.4714 437.519 75.4807C485.529 123.49 512.5 188.605 512.5 256.5C512.5 324.395 485.529 389.51 437.519 437.519C389.51 485.529 324.395 512.5 256.5 512.5C188.605 512.5 123.49 485.529 75.4807 437.519C27.4714 389.51 0.5 324.395 0.5 256.5ZM339.2 396.4C345.8 390.5 346.3 380.4 340.4 373.8C324.3 355.9 296.2 336.5 256.5 336.5C216.8 336.5 188.7 355.9 172.6 373.8C166.7 380.4 167.2 390.5 173.8 396.4C180.4 402.3 190.5 401.8 196.4 395.2C208.1 382.2 228 368.5 256.5 368.5C285 368.5 304.9 382.2 316.6 395.2C322.5 401.8 332.6 402.3 339.2 396.4ZM176.9 272.5C194.6 272.5 208.9 258.2 208.9 240.5C208.9 239 208.8 237.5 208.6 236.1L219.5 239.7C227.9 242.5 236.9 238 239.7 229.6C242.5 221.2 238 212.2 229.6 209.4L133.6 177.4C125.2 174.6 116.2 179.1 113.4 187.5C110.6 195.9 115.1 204.9 123.5 207.7L154.2 217.9C148.4 223.7 144.9 231.7 144.9 240.5C144.9 258.2 159.2 272.5 176.9 272.5ZM368.9 240.5C368.9 231.6 365.3 223.5 359.4 217.7L389.6 207.6C398 204.8 402.5 195.7 399.7 187.4C396.9 179.1 387.8 174.5 379.5 177.3L283.5 209.3C275.1 212.1 270.6 221.2 273.4 229.5C276.2 237.8 285.3 242.4 293.6 239.6L305.3 235.7C305.1 237.2 305 238.8 305 240.4C305 258.1 319.3 272.4 337 272.4C354.7 272.4 369 258.1 369 240.4L368.9 240.5Z" fill="#47535F"/>
</g>
<defs>
<clipPath id="clip0_104_1238">
<rect width="512" height="512" fill="white" transform="translate(0.5 0.5)"/>
</clipPath>
</defs>
</svg>
