<svg width="513" height="513" viewBox="0 0 513 513" fill="none" xmlns="http://www.w3.org/2000/svg">
<g clip-path="url(#clip0_104_1270)">
<path d="M175 499.3C73.6 465.2 0.5 369.4 0.5 256.5C0.5 115.1 115.1 0.5 256.5 0.5C397.9 0.5 512.5 115.1 512.5 256.5C512.5 369.4 439.4 465.2 338 499.3C347.2 484.5 352.5 467.1 352.5 448.5V401.6C376.8 384.1 396.1 360 407.9 332C412.9 320.2 400.9 309.5 388.6 313.3C348.9 325.5 304.1 332.3 256.8 332.3C209.5 332.3 164.7 325.5 125 313.3C112.7 309.5 100.7 320.2 105.7 332C117.4 359.8 136.5 383.7 160.5 401.2V448.5C160.5 467.1 165.8 484.5 175 499.3ZM195.7 234.1C201 241.2 211 242.6 218.1 237.3C225.2 232 226.6 222 221.3 214.9C190.9 174.4 130.1 174.4 99.7 214.9C94.4 222 95.8 232 102.9 237.3C110 242.6 120 241.2 125.3 234.1C142.9 210.6 178.1 210.6 195.7 234.1ZM336.5 272.5C353.474 272.5 369.752 265.757 381.755 253.755C393.757 241.753 400.5 225.474 400.5 208.5C400.5 191.526 393.757 175.247 381.755 163.245C369.752 151.243 353.474 144.5 336.5 144.5C319.526 144.5 303.248 151.243 291.245 163.245C279.243 175.247 272.5 191.526 272.5 208.5C272.5 225.474 279.243 241.753 291.245 253.755C303.248 265.757 319.526 272.5 336.5 272.5ZM320.5 403.1V448.5C320.5 483.8 291.8 512.5 256.5 512.5C221.2 512.5 192.5 483.8 192.5 448.5V403.1C192.5 388.4 204.4 376.5 219.1 376.5H221.1C232.4 376.5 242.2 384.4 244.7 395.4C247.5 408 265.5 408 268.3 395.4C270.8 384.3 280.6 376.5 291.9 376.5H293.9C308.6 376.5 320.5 388.4 320.5 403.1ZM336.5 184.5C342.865 184.5 348.97 187.029 353.471 191.529C357.971 196.03 360.5 202.135 360.5 208.5C360.5 214.865 357.971 220.97 353.471 225.471C348.97 229.971 342.865 232.5 336.5 232.5C330.135 232.5 324.03 229.971 319.529 225.471C315.029 220.97 312.5 214.865 312.5 208.5C312.5 202.135 315.029 196.03 319.529 191.529C324.03 187.029 330.135 184.5 336.5 184.5Z" fill="#47535F"/>
</g>
<defs>
<clipPath id="clip0_104_1270">
<rect width="512" height="512" fill="white" transform="translate(0.5 0.5)"/>
</clipPath>
</defs>
</svg>
