<svg width="513" height="513" viewBox="0 0 513 513" fill="none" xmlns="http://www.w3.org/2000/svg">
<g clip-path="url(#clip0_104_1266)">
<path d="M0.5 256.5C0.5 369.4 73.6 465.2 175 499.3C165.8 484.5 160.5 467.1 160.5 448.5V401.2C136.5 383.7 117.4 359.8 105.7 332C100.7 320.2 112.7 309.5 125 313.3C164.7 325.5 209.5 332.3 256.8 332.3C304.1 332.3 348.9 325.5 388.6 313.3C400.9 309.5 412.9 320.2 407.9 332C396.1 360 376.8 384 352.5 401.6V448.5C352.5 467.1 347.2 484.5 338 499.3C439.4 465.2 512.5 369.4 512.5 256.5C512.5 115.1 397.9 0.5 256.5 0.5C115.1 0.5 0.5 115.1 0.5 256.5ZM176.9 176.5C185.387 176.5 193.526 179.871 199.527 185.873C205.529 191.874 208.9 200.013 208.9 208.5C208.9 216.987 205.529 225.126 199.527 231.127C193.526 237.129 185.387 240.5 176.9 240.5C168.413 240.5 160.274 237.129 154.273 231.127C148.271 225.126 144.9 216.987 144.9 208.5C144.9 200.013 148.271 191.874 154.273 185.873C160.274 179.871 168.413 176.5 176.9 176.5ZM304.9 208.5C304.9 200.013 308.271 191.874 314.273 185.873C320.274 179.871 328.413 176.5 336.9 176.5C345.387 176.5 353.526 179.871 359.527 185.873C365.529 191.874 368.9 200.013 368.9 208.5C368.9 216.987 365.529 225.126 359.527 231.127C353.526 237.129 345.387 240.5 336.9 240.5C328.413 240.5 320.274 237.129 314.273 231.127C308.271 225.126 304.9 216.987 304.9 208.5ZM320.5 448.5V403.1C320.5 388.4 308.6 376.5 293.9 376.5H291.9C280.6 376.5 270.8 384.4 268.3 395.4C265.5 408 247.5 408 244.7 395.4C242.2 384.3 232.4 376.5 221.1 376.5H219.1C204.4 376.5 192.5 388.4 192.5 403.1V448.5C192.5 483.8 221.2 512.5 256.5 512.5C291.8 512.5 320.5 483.8 320.5 448.5Z" fill="#47535F"/>
</g>
<defs>
<clipPath id="clip0_104_1266">
<rect width="512" height="512" fill="white" transform="translate(0.5 0.5)"/>
</clipPath>
</defs>
</svg>
