<svg width="513" height="513" viewBox="0 0 513 513" fill="none" xmlns="http://www.w3.org/2000/svg">
<g clip-path="url(#clip0_104_1288)">
<path d="M256.5 512.5C324.395 512.5 389.51 485.529 437.519 437.519C485.529 389.51 512.5 324.395 512.5 256.5C512.5 188.605 485.529 123.49 437.519 75.4807C389.51 27.4714 324.395 0.5 256.5 0.5C188.605 0.5 123.49 27.4714 75.4807 75.4807C27.4714 123.49 0.5 188.605 0.5 256.5C0.5 324.395 27.4714 389.51 75.4807 437.519C123.49 485.529 188.605 512.5 256.5 512.5ZM97.3 314.6C93.5 300.9 104.7 288.5 118.9 288.5H394.1C408.3 288.5 419.6 300.9 415.7 314.6C396.7 382.5 332.6 432.5 256.5 432.5C180.4 432.5 116.3 382.5 97.3 314.6ZM144.9 192.5C144.9 184.013 148.271 175.874 154.273 169.873C160.274 163.871 168.413 160.5 176.9 160.5C185.387 160.5 193.526 163.871 199.527 169.873C205.529 175.874 208.9 184.013 208.9 192.5C208.9 200.987 205.529 209.126 199.527 215.127C193.526 221.129 185.387 224.5 176.9 224.5C168.413 224.5 160.274 221.129 154.273 215.127C148.271 209.126 144.9 200.987 144.9 192.5ZM301.3 218.1C296 225.2 286 226.6 278.9 221.3C271.8 216 270.4 206 275.7 198.9C306.1 158.4 366.9 158.4 397.3 198.9C402.6 206 401.2 216 394.1 221.3C387 226.6 377 225.2 371.7 218.1C354.1 194.6 318.9 194.6 301.3 218.1Z" fill="#47535F"/>
</g>
<defs>
<clipPath id="clip0_104_1288">
<rect width="512" height="512" fill="white" transform="translate(0.5 0.5)"/>
</clipPath>
</defs>
</svg>
