<svg width="513" height="513" viewBox="0 0 513 513" fill="none" xmlns="http://www.w3.org/2000/svg">
<g clip-path="url(#clip0_104_1298)">
<path d="M0.5 256.5C0.5 324.395 27.4714 389.51 75.4807 437.519C123.49 485.529 188.605 512.5 256.5 512.5C324.395 512.5 389.51 485.529 437.519 437.519C485.529 389.51 512.5 324.395 512.5 256.5C512.5 188.605 485.529 123.49 437.519 75.4807C389.51 27.4714 324.395 0.5 256.5 0.5C188.605 0.5 123.49 27.4714 75.4807 75.4807C27.4714 123.49 0.5 188.605 0.5 256.5ZM240.5 336.5C240.5 327.7 247.7 320.5 256.5 320.5C301.5 320.5 342.1 341 372.2 373.6C378.2 380.1 377.8 390.2 371.3 396.2C364.8 402.2 354.7 401.8 348.7 395.3C323.7 368.2 291.3 352.4 256.4 352.4C247.6 352.4 240.4 345.2 240.4 336.4L240.5 336.5ZM160.5 416.5C134 416.5 112.5 395.5 112.5 369.5C112.5 349.5 141.1 309.1 154.1 291.8C157.3 287.4 163.7 287.4 166.9 291.8C180.1 309.1 208.5 349.5 208.5 369.5C208.5 395.5 187 416.5 160.5 416.5ZM368.1 208.5C368.1 216.987 364.729 225.126 358.727 231.127C352.726 237.129 344.587 240.5 336.1 240.5C327.613 240.5 319.474 237.129 313.473 231.127C307.471 225.126 304.1 216.987 304.1 208.5C304.1 200.013 307.471 191.874 313.473 185.873C319.474 179.871 327.613 176.5 336.1 176.5C344.587 176.5 352.726 179.871 358.727 185.873C364.729 191.874 368.1 200.013 368.1 208.5ZM176.1 176.5C184.587 176.5 192.726 179.871 198.727 185.873C204.729 191.874 208.1 200.013 208.1 208.5C208.1 216.987 204.729 225.126 198.727 231.127C192.726 237.129 184.587 240.5 176.1 240.5C167.613 240.5 159.474 237.129 153.473 231.127C147.471 225.126 144.1 216.987 144.1 208.5C144.1 200.013 147.471 191.874 153.473 185.873C159.474 179.871 167.613 176.5 176.1 176.5Z" fill="#47535F"/>
</g>
<defs>
<clipPath id="clip0_104_1298">
<rect width="512" height="512" fill="white" transform="translate(0.5 0.5)"/>
</clipPath>
</defs>
</svg>
