<svg width="513" height="513" viewBox="0 0 513 513" fill="none" xmlns="http://www.w3.org/2000/svg">
<g clip-path="url(#clip0_104_1258)">
<path d="M256.5 512.5C324.395 512.5 389.51 485.529 437.519 437.519C485.529 389.51 512.5 324.395 512.5 256.5C512.5 188.605 485.529 123.49 437.519 75.4807C389.51 27.4714 324.395 0.5 256.5 0.5C188.605 0.5 123.49 27.4714 75.4807 75.4807C27.4714 123.49 0.5 188.605 0.5 256.5C0.5 324.395 27.4714 389.51 75.4807 437.519C123.49 485.529 188.605 512.5 256.5 512.5ZM388.6 313.3C400.9 309.5 412.9 320.2 407.9 332C382.9 391.1 324.7 432.5 256.8 432.5C188.9 432.5 130.6 391.1 105.7 332C100.7 320.2 112.7 309.5 125 313.3C164.7 325.5 209.5 332.3 256.8 332.3C304.1 332.3 348.9 325.5 388.6 313.3ZM134 147.2L223.9 195.1C234.6 200.8 234.6 216.2 223.9 221.9L134 269.8C126.1 274 116.5 268.3 116.5 259.3C116.5 256.5 117.5 253.8 119.3 251.7L155.3 208.5L119.3 165.3C117.5 163.2 116.5 160.5 116.5 157.7C116.5 148.7 126.1 143 134 147.2ZM396.5 157.6C396.5 160.4 395.5 163.1 393.7 165.2L357.7 208.4L393.7 251.6C395.5 253.7 396.5 256.4 396.5 259.2C396.5 268.2 386.9 273.9 379 269.7L289.1 221.8C278.4 216.1 278.4 200.7 289.1 195L379 147.1C386.9 142.9 396.5 148.6 396.5 157.6Z" fill="#47535F"/>
</g>
<defs>
<clipPath id="clip0_104_1258">
<rect width="512" height="512" fill="white" transform="translate(0.5 0.5)"/>
</clipPath>
</defs>
</svg>
