<svg width="513" height="513" viewBox="0 0 513 513" fill="none" xmlns="http://www.w3.org/2000/svg">
<g clip-path="url(#clip0_104_1268)">
<path d="M0.5 256.5C0.5 369.4 73.6 465.2 175 499.3C165.8 484.5 160.5 467.1 160.5 448.5V401.2C136.5 383.7 117.4 359.8 105.7 332C100.7 320.2 112.7 309.5 125 313.3C164.7 325.5 209.5 332.3 256.8 332.3C304.1 332.3 348.9 325.5 388.6 313.3C400.9 309.5 412.9 320.2 407.9 332C396.1 360 376.8 384 352.5 401.6V448.5C352.5 467.1 347.2 484.5 338 499.3C439.4 465.2 512.5 369.4 512.5 256.5C512.5 115.1 397.9 0.5 256.5 0.5C115.1 0.5 0.5 115.1 0.5 256.5ZM116.5 141.6C116.5 132.6 126.1 126.9 134 131.1L223.9 179C234.6 184.7 234.6 200.1 223.9 205.8L134 253.7C126.1 257.9 116.5 252.2 116.5 243.2C116.5 240.4 117.5 237.7 119.3 235.6L155.3 192.4L119.3 149.2C117.5 147.1 116.5 144.4 116.5 141.6ZM379 131.1C386.9 126.9 396.5 132.6 396.5 141.6C396.5 144.4 395.5 147.1 393.7 149.2L357.7 192.4L393.7 235.6C395.5 237.7 396.5 240.4 396.5 243.2C396.5 252.2 386.9 257.9 379 253.7L289.1 205.8C278.4 200.1 278.4 184.7 289.1 179L379 131.1ZM320.5 448.5V403.1C320.5 388.4 308.6 376.5 293.9 376.5H291.9C280.6 376.5 270.8 384.4 268.3 395.4C265.5 408 247.5 408 244.7 395.4C242.2 384.3 232.4 376.5 221.1 376.5H219.1C204.4 376.5 192.5 388.4 192.5 403.1V448.5C192.5 483.8 221.2 512.5 256.5 512.5C291.8 512.5 320.5 483.8 320.5 448.5Z" fill="#47535F"/>
</g>
<defs>
<clipPath id="clip0_104_1268">
<rect width="512" height="512" fill="white" transform="translate(0.5 0.5)"/>
</clipPath>
</defs>
</svg>
