<svg width="513" height="513" viewBox="0 0 513 513" fill="none" xmlns="http://www.w3.org/2000/svg">
<g clip-path="url(#clip0_104_1286)">
<path d="M256.5 512.5C324.395 512.5 389.51 485.529 437.519 437.519C485.529 389.51 512.5 324.395 512.5 256.5C512.5 188.605 485.529 123.49 437.519 75.4807C389.51 27.4714 324.395 0.5 256.5 0.5C188.605 0.5 123.49 27.4714 75.4807 75.4807C27.4714 123.49 0.5 188.605 0.5 256.5C0.5 324.395 27.4714 389.51 75.4807 437.519C123.49 485.529 188.605 512.5 256.5 512.5ZM97.3 314.6C93.5 300.9 104.7 288.5 118.9 288.5H394.1C408.3 288.5 419.6 300.9 415.7 314.6C396.7 382.5 332.6 432.5 256.5 432.5C180.4 432.5 116.3 382.5 97.3 314.6ZM134 115.2L223.9 163.1C234.6 168.8 234.6 184.2 223.9 189.9L134 237.8C126.1 242 116.5 236.3 116.5 227.3C116.5 224.5 117.5 221.8 119.3 219.7L155.3 176.5L119.3 133.3C117.5 131.2 116.5 128.5 116.5 125.7C116.5 116.7 126.1 111 134 115.2ZM396.5 125.6C396.5 128.4 395.5 131.1 393.7 133.2L357.7 176.4L393.7 219.6C395.5 221.7 396.5 224.4 396.5 227.2C396.5 236.2 386.9 241.9 379 237.7L289.1 189.8C278.4 184.1 278.4 168.7 289.1 163L379 115.1C386.9 110.9 396.5 116.6 396.5 125.6Z" fill="#47535F"/>
</g>
<defs>
<clipPath id="clip0_104_1286">
<rect width="512" height="512" fill="white" transform="translate(0.5 0.5)"/>
</clipPath>
</defs>
</svg>
