<svg width="513" height="513" viewBox="0 0 513 513" fill="none" xmlns="http://www.w3.org/2000/svg">
<g clip-path="url(#clip0_104_1256)">
<path d="M256.5 512.5C324.395 512.5 389.51 485.529 437.519 437.519C485.529 389.51 512.5 324.395 512.5 256.5C512.5 188.605 485.529 123.49 437.519 75.4807C389.51 27.4714 324.395 0.5 256.5 0.5C188.605 0.5 123.49 27.4714 75.4807 75.4807C27.4714 123.49 0.5 188.605 0.5 256.5C0.5 324.395 27.4714 389.51 75.4807 437.519C123.49 485.529 188.605 512.5 256.5 512.5ZM388.6 313.3C400.9 309.5 412.9 320.2 407.9 332C382.9 391.1 324.7 432.5 256.8 432.5C188.9 432.5 130.6 391.1 105.7 332C100.7 320.2 112.7 309.5 125 313.3C164.7 325.5 209.5 332.3 256.8 332.3C304.1 332.3 348.9 325.5 388.6 313.3ZM199.8 129.6C217.6 134.4 228.2 152.7 223.4 170.4L206 235.4C203.7 243.9 194.9 249 186.4 246.7L121.3 229.3C103.5 224.5 92.9 206.2 97.7 188.5C102.5 170.8 120.8 160.1 138.5 164.9L154.6 169.2L158.9 153.1C163.7 135.3 182 124.7 199.7 129.5L199.8 129.6ZM354.1 153.2L358.4 169.3L374.5 165C392.3 160.2 410.6 170.8 415.3 188.6C420 206.4 409.5 224.7 391.7 229.4L326.6 246.8C318.1 249.1 309.3 244 307 235.5L289.6 170.5C284.8 152.7 295.4 134.4 313.2 129.7C331 125 349.3 135.5 354.1 153.3V153.2Z" fill="#47535F"/>
</g>
<defs>
<clipPath id="clip0_104_1256">
<rect width="512" height="512" fill="white" transform="translate(0.5 0.5)"/>
</clipPath>
</defs>
</svg>
