<svg width="513" height="513" viewBox="0 0 513 513" fill="none" xmlns="http://www.w3.org/2000/svg">
<g clip-path="url(#clip0_104_1302)">
<path d="M256.5 512.5C324.395 512.5 389.51 485.529 437.519 437.519C485.529 389.51 512.5 324.395 512.5 256.5C512.5 188.605 485.529 123.49 437.519 75.4807C389.51 27.4714 324.395 0.5 256.5 0.5C188.605 0.5 123.49 27.4714 75.4807 75.4807C27.4714 123.49 0.5 188.605 0.5 256.5C0.5 324.395 27.4714 389.51 75.4807 437.519C123.49 485.529 188.605 512.5 256.5 512.5ZM164.6 326C182.5 346.7 213.1 368.5 256.5 368.5C299.9 368.5 330.5 346.7 348.4 326C354.2 319.3 364.3 318.6 371 324.4C377.7 330.2 378.4 340.3 372.6 347C350.3 372.6 311.6 400.5 256.5 400.5C201.4 400.5 162.7 372.6 140.4 347C134.6 340.3 135.3 330.2 142 324.4C148.7 318.6 158.8 319.3 164.6 326ZM218.1 229.3L217.9 229.1C217.7 228.9 217.5 228.6 217.2 228.2C216.6 227.4 215.6 226.2 214.4 224.8C211.9 222 208.4 218.2 204.2 214.5C195.4 206.7 185.4 200.5 176.5 200.5C167.6 200.5 157.6 206.7 148.8 214.5C144.6 218.2 141.1 222 138.6 224.8C137.4 226.2 136.4 227.4 135.8 228.2C135.5 228.6 135.2 228.9 135.1 229.1L134.9 229.3C132.8 232.1 129.2 233.2 126 232.1C122.8 231 120.5 228 120.5 224.5C120.5 206.6 127.2 188.9 137.1 175.7C146.9 162.7 161 152.5 176.5 152.5C192 152.5 206.1 162.7 215.9 175.7C225.8 188.9 232.5 206.6 232.5 224.5C232.5 227.9 230.3 231 227 232.1C223.7 233.2 220.1 232.1 218.1 229.3ZM378.1 229.3L377.9 229.1C377.7 228.9 377.5 228.6 377.2 228.2C376.6 227.4 375.6 226.2 374.4 224.8C371.9 222 368.4 218.2 364.2 214.5C355.4 206.7 345.4 200.5 336.5 200.5C327.6 200.5 317.6 206.7 308.8 214.5C304.6 218.2 301.1 222 298.6 224.8C297.4 226.2 296.4 227.4 295.8 228.2C295.5 228.6 295.2 228.9 295.1 229.1L294.9 229.3C292.8 232.1 289.2 233.2 286 232.1C282.8 231 280.5 228 280.5 224.5C280.5 206.6 287.2 188.9 297.1 175.7C306.9 162.7 321 152.5 336.5 152.5C352 152.5 366.1 162.7 375.9 175.7C385.8 188.9 392.5 206.6 392.5 224.5C392.5 227.9 390.3 231 387 232.1C383.7 233.2 380.1 232.1 378.1 229.3Z" fill="#47535F"/>
</g>
<defs>
<clipPath id="clip0_104_1302">
<rect width="512" height="512" fill="white" transform="translate(0.5 0.5)"/>
</clipPath>
</defs>
</svg>
