<svg width="513" height="513" viewBox="0 0 513 513" fill="none" xmlns="http://www.w3.org/2000/svg">
<g clip-path="url(#clip0_104_1280)">
<path d="M498.5 340.2C507.6 314 512.5 285.8 512.5 256.5C512.5 115.1 397.9 0.5 256.5 0.5C115.1 0.5 0.5 115.1 0.5 256.5C0.5 397.9 115.1 512.5 256.5 512.5C291.9 512.5 325.6 505.3 356.2 492.3C351.4 486.8 347.7 480.1 345.8 472.6L322.9 383.3C312.9 344.3 334.7 302.4 374.7 291.2C411.9 280.8 448.5 301.3 462.2 335.2C474.9 333.6 487.3 335.6 498.4 340.2H498.5ZM296.5 332.5C296.5 339.4 293.4 345.7 289.2 350.8C284.9 356 279.1 360.5 272.5 364.2C269.8 365.7 266.8 367.2 263.8 368.5C266.9 369.8 269.8 371.2 272.5 372.8C279.1 376.5 285 381 289.2 386.2C293.5 391.3 296.5 397.6 296.5 404.5C296.5 411.4 293.4 417.7 289.2 422.8C284.9 428 279.1 432.5 272.5 436.2C259.2 443.6 241.9 448.5 224.5 448.5C220.9 448.5 217.7 446 216.8 442.5C215.9 439 217.4 435.3 220.6 433.5L220.8 433.4C221 433.3 221.3 433.1 221.7 432.9C222.5 432.4 223.7 431.7 225.1 430.8C227.9 428.9 231.6 426.3 235.3 423.2C239 420.1 242.5 416.6 244.9 413.1C247.4 409.6 248.4 406.7 248.4 404.5C248.4 402.3 247.4 399.5 244.9 395.9C242.4 392.4 239 389 235.3 385.8C231.6 382.7 227.9 380.1 225.1 378.2C223.7 377.3 222.5 376.6 221.7 376.1L221.1 375.7L220.8 375.5L220.6 375.4C218.1 374 216.5 371.3 216.5 368.4C216.5 365.5 218.1 362.8 220.6 361.4L220.8 361.3C221 361.2 221.3 361 221.7 360.8C222.5 360.3 223.7 359.6 225.1 358.7C227.9 356.8 231.6 354.2 235.3 351.1C239 348 242.5 344.5 244.9 341C247.4 337.5 248.4 334.6 248.4 332.4C248.4 330.2 247.4 327.4 244.9 323.8C242.4 320.3 239 316.9 235.3 313.7C231.6 310.6 227.9 308 225.1 306.1C223.7 305.2 222.5 304.5 221.7 304C221.3 303.8 221 303.6 220.8 303.5L220.6 303.4C217.4 301.6 215.9 297.9 216.8 294.4C217.7 290.9 220.9 288.4 224.5 288.4C241.9 288.4 259.2 293.3 272.4 300.7C279 304.4 284.9 308.9 289.1 314.1C293.4 319.2 296.4 325.5 296.4 332.4L296.5 332.5ZM176.9 176.5C185.387 176.5 193.526 179.871 199.527 185.873C205.529 191.874 208.9 200.013 208.9 208.5C208.9 216.987 205.529 225.126 199.527 231.127C193.526 237.129 185.387 240.5 176.9 240.5C168.413 240.5 160.274 237.129 154.273 231.127C148.271 225.126 144.9 216.987 144.9 208.5C144.9 200.013 148.271 191.874 154.273 185.873C160.274 179.871 168.413 176.5 176.9 176.5ZM371.7 234.1C354.1 210.6 318.9 210.6 301.3 234.1C296 241.2 286 242.6 278.9 237.3C271.8 232 270.4 222 275.7 214.9C306.1 174.4 366.9 174.4 397.3 214.9C402.6 222 401.2 232 394.1 237.3C387 242.6 377 241.2 371.7 234.1ZM434.5 352.8C428.5 329.6 405.7 315.8 383.4 322C361.1 328.2 348 352.1 353.9 375.4L376.8 464.7C379 473.4 388 478.6 396.6 476.1L481.5 452.3C503.7 446.1 516.9 422.2 511 398.9C505.1 375.6 482.2 361.9 459.9 368.1L439.7 373.7L434.3 352.7L434.5 352.8Z" fill="#47535F"/>
</g>
<defs>
<clipPath id="clip0_104_1280">
<rect width="512" height="512" fill="white" transform="translate(0.5 0.5)"/>
</clipPath>
</defs>
</svg>
