<svg width="513" height="513" viewBox="0 0 513 513" fill="none" xmlns="http://www.w3.org/2000/svg">
<g clip-path="url(#clip0_104_1254)">
<path d="M477.3 126.8C473.2 127.9 468.9 128.5 464.5 128.5C438 128.5 416.5 107.5 416.5 81.5C416.5 76.5 418.3 70.2 421.1 63.4C421.4 62.7 421.7 62 422 61.3C431 41.1 448.5 16.4 458 3.8C461.2 -0.6 467.6 -0.6 470.8 3.8C483.9 21.1 512.5 61.5 512.5 81.5C512.5 103.2 497.6 121.3 477.3 126.8ZM256.5 0.5C307.9 0.5 355.8 15.7 395.9 41.7C394.4 44.8 392.9 47.9 391.6 51C388.2 59 384.5 70 384.5 81.5C384.5 125.8 421.1 160.5 464.5 160.5C474.1 160.5 483.3 158.8 491.9 155.7C505.2 186.6 512.5 220.7 512.5 256.5C512.5 397.9 397.9 512.5 256.5 512.5C115.1 512.5 0.5 397.9 0.5 256.5C0.5 115.1 115.1 0.5 256.5 0.5ZM384.3 318.3C345.8 329.9 302.4 336.5 256.5 336.5C210.6 336.5 167.2 329.9 128.7 318.3C116.4 314.6 104.4 325.3 109.5 337C134 393.9 190.6 433.7 256.5 433.7C322.4 433.7 379 393.9 403.5 337C408.6 325.2 396.6 314.6 384.3 318.3ZM218.1 229.3C220.2 232.1 223.8 233.2 227 232.1C230.2 231 232.5 228 232.5 224.5C232.5 206.6 225.8 188.9 215.9 175.7C206.1 162.7 192 152.5 176.5 152.5C161 152.5 146.9 162.7 137.1 175.7C127.2 188.9 120.5 206.6 120.5 224.5C120.5 227.9 122.7 231 126 232.1C129.3 233.2 132.9 232.1 134.9 229.3L135.1 229.1C135.3 228.9 135.5 228.6 135.8 228.2C136.4 227.4 137.4 226.2 138.6 224.8C141.1 222 144.6 218.2 148.8 214.5C157.6 206.7 167.6 200.5 176.5 200.5C185.4 200.5 195.4 206.7 204.2 214.5C208.4 218.2 211.9 222 214.4 224.8C215.6 226.2 216.6 227.4 217.2 228.2C217.5 228.6 217.8 228.9 217.9 229.1L218.1 229.3ZM378.1 229.3C380.2 232.1 383.8 233.2 387 232.1C390.2 231 392.5 228 392.5 224.5C392.5 206.6 385.8 188.9 375.9 175.7C366.1 162.7 352 152.5 336.5 152.5C321 152.5 306.9 162.7 297.1 175.7C287.2 188.9 280.5 206.6 280.5 224.5C280.5 227.9 282.7 231 286 232.1C289.3 233.2 292.9 232.1 294.9 229.3L295.1 229.1C295.3 228.9 295.5 228.6 295.8 228.2C296.4 227.4 297.4 226.2 298.6 224.8C301.1 222 304.6 218.2 308.8 214.5C317.6 206.7 327.6 200.5 336.5 200.5C345.4 200.5 355.4 206.7 364.2 214.5C368.4 218.2 371.9 222 374.4 224.8C375.6 226.2 376.6 227.4 377.2 228.2C377.5 228.6 377.8 228.9 377.9 229.1L378.1 229.3Z" fill="#47535F"/>
</g>
<defs>
<clipPath id="clip0_104_1254">
<rect width="512" height="512" fill="white" transform="translate(0.5 0.5)"/>
</clipPath>
</defs>
</svg>
