<svg width="513" height="513" viewBox="0 0 513 513" fill="none" xmlns="http://www.w3.org/2000/svg">
<g clip-path="url(#clip0_104_1262)">
<path d="M0.5 256.5C0.5 188.605 27.4714 123.49 75.4807 75.4807C123.49 27.4714 188.605 0.5 256.5 0.5C324.395 0.5 389.51 27.4714 437.519 75.4807C485.529 123.49 512.5 188.605 512.5 256.5C512.5 324.395 485.529 389.51 437.519 437.519C389.51 485.529 324.395 512.5 256.5 512.5C188.605 512.5 123.49 485.529 75.4807 437.519C27.4714 389.51 0.5 324.395 0.5 256.5ZM407.9 332C412.9 320.2 400.9 309.5 388.6 313.3C348.9 325.5 304.1 332.3 256.8 332.3C209.5 332.3 164.7 325.5 125 313.3C112.7 309.5 100.7 320.2 105.7 332C130.7 391.1 188.9 432.5 256.8 432.5C324.7 432.5 383 391.1 407.9 332ZM160.5 120.5C157.4 120.5 154.6 122.3 153.3 125.1L136.7 159.8L98.6 164.8C95.5 165.2 93 167.3 92 170.3C91 173.3 91.9 176.5 94.1 178.6L122 205.1L115 242.9C114.4 245.9 115.7 249 118.2 250.8C120.7 252.6 124 252.8 126.7 251.4L160.5 233L194.3 251.3C197 252.8 200.3 252.6 202.8 250.7C205.3 248.8 206.5 245.8 206 242.8L199 205L226.9 178.5C229.1 176.4 230 173.2 229 170.2C228 167.2 225.5 165.1 222.4 164.7L184.3 159.7L167.7 125C166.4 122.2 163.6 120.4 160.5 120.4V120.5ZM352.5 120.5C349.4 120.5 346.6 122.3 345.3 125.1L328.7 159.8L290.6 164.8C287.5 165.2 285 167.3 284 170.3C283 173.3 283.9 176.5 286.1 178.6L314 205.1L307 242.9C306.4 245.9 307.7 249 310.2 250.8C312.7 252.6 316 252.8 318.7 251.4L352.5 233L386.3 251.3C389 252.8 392.3 252.6 394.8 250.7C397.3 248.8 398.5 245.8 398 242.8L391 205L418.9 178.5C421.1 176.4 422 173.2 421 170.2C420 167.2 417.5 165.1 414.4 164.7L376.3 159.7L359.7 125C358.4 122.2 355.6 120.4 352.5 120.4V120.5Z" fill="#47535F"/>
</g>
<defs>
<clipPath id="clip0_104_1262">
<rect width="512" height="512" fill="white" transform="translate(0.5 0.5)"/>
</clipPath>
</defs>
</svg>
