<svg width="513" height="513" viewBox="0 0 513 513" fill="none" xmlns="http://www.w3.org/2000/svg">
<g clip-path="url(#clip0_104_1310)">
<path d="M259.1 0.5C257.4 0.5 255.7 0.6 254 1C168.5 17.5 116.1 102.8 131 189.8C133.9 206.8 139.4 222.7 146.9 237.2L32.5 224.5H29.9C13.7 224.5 0.5 237.7 0.5 253.9C0.5 255.6 0.6 257.3 1 259C17.5 344.5 102.8 396.9 189.8 382C206.8 379.1 222.7 373.6 237.2 366.1L224.5 480.5V483.1C224.5 499.3 237.7 512.5 253.9 512.5C255.6 512.5 257.3 512.4 259 512C344.5 495.5 396.9 410.2 382 323.2C379.1 306.2 373.6 290.3 366.1 275.8L480.5 288.5H483.1C499.3 288.5 512.5 275.3 512.5 259.1C512.5 257.4 512.4 255.7 512 254C495.5 168.5 410.2 116.1 323.2 131C306.2 133.9 290.3 139.4 275.8 146.9L288.5 32.5V29.9C288.5 13.7 275.3 0.5 259.1 0.5ZM256.5 224.5C264.987 224.5 273.126 227.871 279.127 233.873C285.129 239.874 288.5 248.013 288.5 256.5C288.5 264.987 285.129 273.126 279.127 279.127C273.126 285.129 264.987 288.5 256.5 288.5C248.013 288.5 239.874 285.129 233.873 279.127C227.871 273.126 224.5 264.987 224.5 256.5C224.5 248.013 227.871 239.874 233.873 233.873C239.874 227.871 248.013 224.5 256.5 224.5Z" fill="#47535F"/>
</g>
<defs>
<clipPath id="clip0_104_1310">
<rect width="512" height="512" fill="white" transform="translate(0.5 0.5)"/>
</clipPath>
</defs>
</svg>
