<svg width="513" height="513" viewBox="0 0 513 513" fill="none" xmlns="http://www.w3.org/2000/svg">
<g clip-path="url(#clip0_104_1312)">
<path d="M192.5 96.5V108.5L96.5 96.5C78.8 96.5 64.5 110.8 64.5 128.5C64.5 146.2 78.8 160.5 96.5 160.5L192.5 148.5L223.5 144.6L224.5 144.5L225.5 144.6L256.5 148.5L352.5 160.5C370.2 160.5 384.5 146.2 384.5 128.5C384.5 110.8 370.2 96.5 352.5 96.5L256.5 108.5V96.5C256.5 78.8 242.2 64.5 224.5 64.5C206.8 64.5 192.5 78.8 192.5 96.5ZM32.5 256.5C14.8 256.5 0.5 270.8 0.5 288.5V352.5C0.5 370.2 14.8 384.5 32.5 384.5H132.6C152.8 413.5 186.5 432.5 224.5 432.5C262.5 432.5 296.2 413.5 316.4 384.5H352.5C370.2 384.5 384.5 398.8 384.5 416.5C384.5 434.2 398.8 448.5 416.5 448.5H480.5C498.2 448.5 512.5 434.2 512.5 416.5C512.5 328.1 440.9 256.5 352.5 256.5H320.5L297.9 233.9C291.9 227.9 283.8 224.5 275.3 224.5H256.5V180.7L224.5 176.7L192.5 180.7V224.5H173.8C165.3 224.5 157.2 227.9 151.2 233.9L128.5 256.5H32.5Z" fill="#47535F"/>
</g>
<defs>
<clipPath id="clip0_104_1312">
<rect width="512" height="512" fill="white" transform="translate(0.5 0.5)"/>
</clipPath>
</defs>
</svg>
