<svg width="513" height="513" viewBox="0 0 513 513" fill="none" xmlns="http://www.w3.org/2000/svg">
<g clip-path="url(#clip0_104_1314)">
<path d="M224.5 0.5C242.2 0.5 256.5 14.8 256.5 32.5V44.5L352.5 32.5C370.2 32.5 384.5 46.8 384.5 64.5C384.5 82.2 370.2 96.5 352.5 96.5L256.5 84.5L225.5 80.6L224.5 80.5L223.5 80.6L192.5 84.5L96.5 96.5C78.8 96.5 64.5 82.2 64.5 64.5C64.5 46.8 78.8 32.5 96.5 32.5L192.5 44.5V32.5C192.5 14.8 206.8 0.5 224.5 0.5ZM0.5 224.5C0.5 206.8 14.8 192.5 32.5 192.5H128.5L151.1 169.9C157.1 163.9 165.2 160.5 173.7 160.5H192.5V116.7L224.5 112.7L256.5 116.7V160.5H275.2C283.7 160.5 291.8 163.9 297.8 169.9L320.5 192.5H352.5C440.9 192.5 512.5 264.1 512.5 352.5C512.5 370.2 498.2 384.5 480.5 384.5H416.5C398.8 384.5 384.5 370.2 384.5 352.5C384.5 334.8 370.2 320.5 352.5 320.5H316.4C296.2 349.5 262.5 368.5 224.5 368.5C186.5 368.5 152.8 349.5 132.6 320.5H32.5C14.8 320.5 0.5 306.2 0.5 288.5V224.5ZM437.3 423.9C439.2 419.4 443.6 416.5 448.5 416.5C453.4 416.5 457.7 419.4 459.7 423.9L477.9 466.3C479.7 470.4 480.6 474.9 480.6 479.4V480.5C480.6 498.2 466.3 512.5 448.6 512.5C430.9 512.5 416.6 498.2 416.6 480.5V479.3C416.6 474.8 417.5 470.4 419.3 466.2L437.5 423.8L437.3 423.9Z" fill="#47535F"/>
</g>
<defs>
<clipPath id="clip0_104_1314">
<rect width="512" height="512" fill="white" transform="translate(0.5 0.5)"/>
</clipPath>
</defs>
</svg>
