<svg width="513" height="513" viewBox="0 0 513 513" fill="none" xmlns="http://www.w3.org/2000/svg">
<g clip-path="url(#clip0_104_1316)">
<path d="M128.5 64.5V160.5H192.5V64.5H387.2L416.5 93.8V160.5H480.5V93.8C480.5 76.8 473.8 60.5 461.8 48.5L432.5 19.2C420.5 7.2 404.2 0.5 387.2 0.5H192.5C157.2 0.5 128.5 29.2 128.5 64.5ZM0.5 160.5V480.5C0.5 498.2 14.8 512.5 32.5 512.5H64.5C82.2 512.5 96.5 498.2 96.5 480.5V160.5C96.5 142.8 82.2 128.5 64.5 128.5H32.5C14.8 128.5 0.5 142.8 0.5 160.5ZM480.5 192.5H128.5V480.5C128.5 498.2 142.8 512.5 160.5 512.5H480.5C498.2 512.5 512.5 498.2 512.5 480.5V224.5C512.5 206.8 498.2 192.5 480.5 192.5ZM256.5 256.5C264.987 256.5 273.126 259.871 279.127 265.873C285.129 271.874 288.5 280.013 288.5 288.5C288.5 296.987 285.129 305.126 279.127 311.127C273.126 317.129 264.987 320.5 256.5 320.5C248.013 320.5 239.874 317.129 233.873 311.127C227.871 305.126 224.5 296.987 224.5 288.5C224.5 280.013 227.871 271.874 233.873 265.873C239.874 259.871 248.013 256.5 256.5 256.5ZM352.5 288.5C352.5 280.013 355.871 271.874 361.873 265.873C367.874 259.871 376.013 256.5 384.5 256.5C392.987 256.5 401.126 259.871 407.127 265.873C413.129 271.874 416.5 280.013 416.5 288.5C416.5 296.987 413.129 305.126 407.127 311.127C401.126 317.129 392.987 320.5 384.5 320.5C376.013 320.5 367.874 317.129 361.873 311.127C355.871 305.126 352.5 296.987 352.5 288.5ZM384.5 384.5C392.987 384.5 401.126 387.871 407.127 393.873C413.129 399.874 416.5 408.013 416.5 416.5C416.5 424.987 413.129 433.126 407.127 439.127C401.126 445.129 392.987 448.5 384.5 448.5C376.013 448.5 367.874 445.129 361.873 439.127C355.871 433.126 352.5 424.987 352.5 416.5C352.5 408.013 355.871 399.874 361.873 393.873C367.874 387.871 376.013 384.5 384.5 384.5ZM224.5 416.5C224.5 408.013 227.871 399.874 233.873 393.873C239.874 387.871 248.013 384.5 256.5 384.5C264.987 384.5 273.126 387.871 279.127 393.873C285.129 399.874 288.5 408.013 288.5 416.5C288.5 424.987 285.129 433.126 279.127 439.127C273.126 445.129 264.987 448.5 256.5 448.5C248.013 448.5 239.874 445.129 233.873 439.127C227.871 433.126 224.5 424.987 224.5 416.5Z" fill="#47535F"/>
</g>
<defs>
<clipPath id="clip0_104_1316">
<rect width="512" height="512" fill="white" transform="translate(0.5 0.5)"/>
</clipPath>
</defs>
</svg>
