<svg width="513" height="513" viewBox="0 0 513 513" fill="none" xmlns="http://www.w3.org/2000/svg">
<g clip-path="url(#clip0_104_1320)">
<path d="M279 216.1L23.5002 471.5C14.1002 480.9 14.1002 496.1 23.5002 505.4C32.9002 514.7 48.1002 514.8 57.4002 505.4L132.2 430.6C139.6 435.2 147.5 438.8 156 441.1C200.8 453.3 270.5 455 338.5 409.9C350.7 401.8 344.3 384.5 329.7 384.5H313.6C308.5 384.5 304.4 380.4 304.4 375.3C304.4 371.2 307.1 367.7 310.9 366.5L408.6 337.2C412 336.2 415 334.1 417 331.1C421.4 324.7 425.6 318.2 429.6 311.5C435.8 301.2 428.1 288.5 416.1 288.5H377.5C372.4 288.5 368.3 284.4 368.3 279.3C368.3 275.2 371 271.7 374.8 270.5L455.7 246.2C460.3 244.8 464.1 241.4 465.9 236.9C495 163.5 508.3 86.6 512.4 37.3C513.2 27.4 509.4 17.7 502.4 10.7C495.4 3.70001 485.7 -0.0999863 475.8 0.700014C392 7.50001 229 41 137.9 132.1C57.8002 212.2 57.2002 302.8 71.8002 356.9C73.9002 364.8 83.8002 366.5 89.6002 360.7L254.1 196.3C260.3 190.1 270.5 190.1 276.7 196.3C282.1 201.7 282.8 209.9 278.9 216.1H279Z" fill="#47535F"/>
</g>
<defs>
<clipPath id="clip0_104_1320">
<rect width="512" height="512" fill="white" transform="translate(0.5 0.5)"/>
</clipPath>
</defs>
</svg>
