<svg width="513" height="513" viewBox="0 0 513 513" fill="none" xmlns="http://www.w3.org/2000/svg">
<g clip-path="url(#clip0_104_1318)">
<path d="M279 216.1L23.5002 471.5C14.1002 480.9 14.1002 496.1 23.5002 505.4C32.9002 514.7 48.1002 514.8 57.4002 505.4L114.4 448.4H182.4C232.1 448.4 280.3 434 321.4 407.4C332.5 400.2 326.9 384.4 313.6 384.4C308.5 384.4 304.4 380.3 304.4 375.2C304.4 371.1 307.1 367.6 310.9 366.4L391.9 342.1C394.4 341.3 396.7 340 398.6 338.1L421 315.7C431.1 305.6 423.9 288.4 409.7 288.4H377.5C372.4 288.4 368.3 284.3 368.3 279.2C368.3 275.1 371 271.6 374.8 270.4L486.8 236.8C490.8 235.6 494.2 232.9 496.1 229.1C506.9 208.1 512.5 184.6 512.5 160.5C512.5 119.5 496.2 80.2 467.2 51.2L461.7 45.7C432.8 16.8 393.5 0.5 352.5 0.5C311.5 0.5 272.2 16.8 243.2 45.8L139.5 149.5C91.5002 197.5 64.5002 262.6 64.5002 330.5V385.8L254.1 196.3C260.3 190.1 270.5 190.1 276.7 196.3C282.1 201.7 282.8 209.9 278.9 216.1H279Z" fill="#47535F"/>
</g>
<defs>
<clipPath id="clip0_104_1318">
<rect width="512" height="512" fill="white" transform="translate(0.5 0.5)"/>
</clipPath>
</defs>
</svg>
