<svg width="577" height="513" viewBox="0 0 577 513" fill="none" xmlns="http://www.w3.org/2000/svg">
<g clip-path="url(#clip0_104_1322)">
<path d="M224.5 0.5H352.5C370.2 0.5 384.5 14.8 384.5 32.5H459.6C480.2 32.5 491.2 56.8 477.7 72.3L456.5 96.5H120.5L99.2998 72.3C85.7998 56.8 96.7998 32.5 117.4 32.5H192.5C192.5 14.8 206.8 0.5 224.5 0.5ZM96.4998 128.5H480.5C498.2 128.5 512.5 142.8 512.5 160.5V284C512.5 297.3 508.3 310.3 500.6 321.2L449.2 393.1C447.3 394.2 445.5 395.3 443.7 396.6C428.2 407.3 409.7 414.6 392.7 416.5H376.1C359 414.7 341.1 407.5 325.3 396.6C303.2 381.1 273.7 381.1 251.6 396.6C236.8 406.8 219.1 414.6 201 416.5H184.4C167.4 414.7 148.8 407.3 133.4 396.6C131.6 395.3 129.7 394.2 127.8 393.1L76.3998 321.2C68.6998 310.3 64.4998 297.3 64.4998 284V160.5C64.4998 142.8 78.7998 128.5 96.4998 128.5ZM128.5 192.5V288.5H448.5V192.5H128.5ZM307 422.4C329.5 437.9 357 448.5 384.5 448.5C411.4 448.5 439.8 437.7 461.9 422.4C473.8 413.9 490 414.6 501.1 424.1C515.5 436 533.6 445.1 551.7 449.3C568.9 453.3 579.6 470.5 575.6 487.7C571.6 504.9 554.4 515.6 537.2 511.6C512.7 505.9 492.3 495.1 479 486.6C450 502.2 417.5 512.5 384.5 512.5C352.6 512.5 323.9 502.6 304.1 493.6C298.3 490.9 293 488.3 288.5 485.9C284 488.3 278.8 491 272.9 493.6C253.1 502.6 224.4 512.5 192.5 512.5C159.5 512.5 127 502.2 97.9998 486.7C84.5998 495.1 64.2998 506 39.7998 511.7C22.5998 515.7 5.39978 505 1.39978 487.8C-2.60022 470.6 8.09977 453.4 25.2998 449.4C43.3998 445.2 61.4998 436.1 75.8998 424.2C86.9998 414.8 103.2 414.1 115.1 422.5C137.2 437.7 165.6 448.5 192.5 448.5C220 448.5 247.5 437.9 270 422.4C281.1 414.5 295.9 414.5 307 422.4Z" fill="#47535F"/>
</g>
<defs>
<clipPath id="clip0_104_1322">
<rect width="576" height="512" fill="white" transform="translate(0.5 0.5)"/>
</clipPath>
</defs>
</svg>
