<svg width="385" height="513" viewBox="0 0 385 513" fill="none" xmlns="http://www.w3.org/2000/svg">
<g clip-path="url(#clip0_104_1350)">
<path d="M64.5 0.5C29.2 0.5 0.5 29.2 0.5 64.5V448.5C0.5 483.8 29.2 512.5 64.5 512.5H320.5C355.8 512.5 384.5 483.8 384.5 448.5V160.5H256.5C238.8 160.5 224.5 146.2 224.5 128.5V0.5H64.5ZM256.5 0.5V128.5H384.5L256.5 0.5ZM156.2 250.7L192.5 302.6L228.8 250.7C236.4 239.8 251.4 237.2 262.2 244.8C273 252.4 275.7 267.4 268.1 278.2L221.8 344.5L268.2 410.7C275.8 421.6 273.2 436.5 262.3 444.1C251.4 451.7 236.5 449.1 228.9 438.2L192.5 386.3L156.2 438.2C148.6 449.1 133.6 451.7 122.8 444.1C112 436.5 109.3 421.5 116.9 410.7L163.2 344.5L116.8 278.3C109.2 267.4 111.8 252.5 122.7 244.9C133.6 237.3 148.5 239.9 156.1 250.8L156.2 250.7Z" fill="#47535F"/>
</g>
<defs>
<clipPath id="clip0_104_1350">
<rect width="384" height="512" fill="white" transform="translate(0.5 0.5)"/>
</clipPath>
</defs>
</svg>
