<svg width="577" height="513" viewBox="0 0 577 513" fill="none" xmlns="http://www.w3.org/2000/svg">
<g clip-path="url(#clip0_104_1340)">
<path d="M0.5 64.5C0.5 29.2 29.2 0.5 64.5 0.5H224.5V128.5C224.5 146.2 238.8 160.5 256.5 160.5H384.5V199.1C310.6 220 256.5 287.9 256.5 368.5C256.5 427.6 285.6 479.8 330.2 511.8C327 512.3 323.8 512.5 320.5 512.5H64.5C29.2 512.5 0.5 483.8 0.5 448.5V64.5ZM384.5 128.5H256.5V0.5L384.5 128.5ZM432.5 224.5C470.691 224.5 507.318 239.671 534.323 266.677C561.329 293.682 576.5 330.309 576.5 368.5C576.5 406.691 561.329 443.318 534.323 470.323C507.318 497.329 470.691 512.5 432.5 512.5C394.309 512.5 357.682 497.329 330.677 470.323C303.671 443.318 288.5 406.691 288.5 368.5C288.5 330.309 303.671 293.682 330.677 266.677C357.682 239.671 394.309 224.5 432.5 224.5ZM432.5 464.5C438.865 464.5 444.97 461.971 449.471 457.471C453.971 452.97 456.5 446.865 456.5 440.5C456.5 434.135 453.971 428.03 449.471 423.529C444.97 419.029 438.865 416.5 432.5 416.5C426.135 416.5 420.03 419.029 415.529 423.529C411.029 428.03 408.5 434.135 408.5 440.5C408.5 446.865 411.029 452.97 415.529 457.471C420.03 461.971 426.135 464.5 432.5 464.5ZM368.5 322.1V328.5C368.5 337.3 375.7 344.5 384.5 344.5C393.3 344.5 400.5 337.3 400.5 328.5V322.1C400.5 316.8 404.8 312.5 410.1 312.5H450.6C458.3 312.5 464.5 318.7 464.5 326.4C464.5 331.6 461.6 336.3 457.1 338.7L425.1 355.5C419.8 358.3 416.5 363.7 416.5 369.7V384.5C416.5 393.3 423.7 400.5 432.5 400.5C441.3 400.5 448.5 393.3 448.5 384.5V379.4L472 367.1C487.1 359.2 496.5 343.5 496.5 326.5C496.5 301.1 475.9 280.6 450.6 280.6H410.1C387.1 280.6 368.5 299.2 368.5 322.2V322.1Z" fill="#47535F"/>
</g>
<defs>
<clipPath id="clip0_104_1340">
<rect width="576" height="512" fill="white" transform="translate(0.5 0.5)"/>
</clipPath>
</defs>
</svg>
