<svg width="385" height="513" viewBox="0 0 385 513" fill="none" xmlns="http://www.w3.org/2000/svg">
<g clip-path="url(#clip0_104_1328)">
<path d="M64.5 0.5C29.2 0.5 0.5 29.2 0.5 64.5V448.5C0.5 483.8 29.2 512.5 64.5 512.5H320.5C355.8 512.5 384.5 483.8 384.5 448.5V160.5H256.5C238.8 160.5 224.5 146.2 224.5 128.5V0.5H64.5ZM256.5 0.5V128.5H384.5L256.5 0.5ZM216.5 408.5C216.5 421.8 205.8 432.5 192.5 432.5C179.2 432.5 168.5 421.8 168.5 408.5V306.4L137.5 337.4C128.1 346.8 112.9 346.8 103.6 337.4C94.3 328 94.2 312.8 103.6 303.5L175.6 231.5C185 222.1 200.2 222.1 209.5 231.5L281.5 303.5C290.9 312.9 290.9 328.1 281.5 337.4C272.1 346.7 256.9 346.8 247.6 337.4L216.6 306.4V408.5H216.5Z" fill="#47535F"/>
</g>
<defs>
<clipPath id="clip0_104_1328">
<rect width="384" height="512" fill="white" transform="translate(0.5 0.5)"/>
</clipPath>
</defs>
</svg>
