<svg width="577" height="513" viewBox="0 0 577 513" fill="none" xmlns="http://www.w3.org/2000/svg">
<g clip-path="url(#clip0_104_1332)">
<path d="M0.5 64.5C0.5 29.2 29.2 0.5 64.5 0.5H224.5V128.5C224.5 146.2 238.8 160.5 256.5 160.5H384.5V199.1C310.6 220 256.5 287.9 256.5 368.5C256.5 427.6 285.6 479.8 330.2 511.8C327 512.3 323.8 512.5 320.5 512.5H64.5C29.2 512.5 0.5 483.8 0.5 448.5V64.5ZM384.5 128.5H256.5V0.5L384.5 128.5ZM288.5 368.5C288.5 330.309 303.671 293.682 330.677 266.677C357.682 239.671 394.309 224.5 432.5 224.5C470.691 224.5 507.318 239.671 534.323 266.677C561.329 293.682 576.5 330.309 576.5 368.5C576.5 406.691 561.329 443.318 534.323 470.323C507.318 497.329 470.691 512.5 432.5 512.5C394.309 512.5 357.682 497.329 330.677 470.323C303.671 443.318 288.5 406.691 288.5 368.5ZM499.8 325.2C493.6 319 483.4 319 477.2 325.2L416.5 385.9L387.8 357.2C381.6 351 371.4 351 365.2 357.2C359 363.4 359 373.6 365.2 379.8L405.2 419.8C411.4 426 421.6 426 427.8 419.8L499.8 347.8C506 341.6 506 331.4 499.8 325.2Z" fill="#47535F"/>
</g>
<defs>
<clipPath id="clip0_104_1332">
<rect width="576" height="512" fill="white" transform="translate(0.5 0.5)"/>
</clipPath>
</defs>
</svg>
