<svg width="385" height="513" viewBox="0 0 385 513" fill="none" xmlns="http://www.w3.org/2000/svg">
<g clip-path="url(#clip0_104_1354)">
<path d="M64.5 0.5C29.2 0.5 0.5 29.2 0.5 64.5V448.5C0.5 483.8 29.2 512.5 64.5 512.5H320.5C355.8 512.5 384.5 483.8 384.5 448.5V160.5H256.5C238.8 160.5 224.5 146.2 224.5 128.5V0.5H64.5ZM256.5 0.5V128.5H384.5L256.5 0.5ZM64.5 256.5C64.5 248.013 67.8714 239.874 73.8726 233.873C79.8737 227.871 88.0131 224.5 96.5 224.5C104.987 224.5 113.126 227.871 119.127 233.873C125.129 239.874 128.5 248.013 128.5 256.5C128.5 264.987 125.129 273.126 119.127 279.127C113.126 285.129 104.987 288.5 96.5 288.5C88.0131 288.5 79.8737 285.129 73.8726 279.127C67.8714 273.126 64.5 264.987 64.5 256.5ZM216.5 288.5C221.8 288.5 226.7 291.1 229.7 295.4L317.7 423.4C321.1 428.3 321.4 434.7 318.7 439.9C316 445.1 310.5 448.5 304.5 448.5H216.5H176.5H128.5H80.5C74.7 448.5 69.4 445.4 66.6 440.4C63.8 435.4 63.8 429.2 66.8 424.3L114.8 344.3C117.7 339.5 122.9 336.5 128.5 336.5C134.1 336.5 139.3 339.4 142.2 344.3L155 365.7L203.3 295.5C206.3 291.2 211.2 288.6 216.5 288.6V288.5Z" fill="#47535F"/>
</g>
<defs>
<clipPath id="clip0_104_1354">
<rect width="384" height="512" fill="white" transform="translate(0.5 0.5)"/>
</clipPath>
</defs>
</svg>
