<svg width="385" height="513" viewBox="0 0 385 513" fill="none" xmlns="http://www.w3.org/2000/svg">
<g clip-path="url(#clip0_104_1372)">
<path d="M64.5 0.5C29.2 0.5 0.5 29.2 0.5 64.5V448.5C0.5 483.8 29.2 512.5 64.5 512.5H320.5C355.8 512.5 384.5 483.8 384.5 448.5V160.5H256.5C238.8 160.5 224.5 146.2 224.5 128.5V0.5H64.5ZM256.5 0.5V128.5H384.5L256.5 0.5ZM104.5 196.5H176.5C209.6 196.5 236.5 223.4 236.5 256.5C236.5 282 220.6 303.7 198.2 312.4L241.2 352.7L275 321.7C283.1 314.2 295.8 314.8 303.3 322.9C310.8 331 310.2 343.7 302.1 351.2L270.5 380.2L302.2 409.9C310.3 417.5 310.7 430.1 303.1 438.2C295.5 446.3 282.9 446.7 274.8 439.1L240.9 407.3L206 439.3C197.9 446.8 185.2 446.2 177.7 438.1C170.2 430 170.8 417.3 178.9 409.8L211.5 379.9L146.7 319.1C145.8 318.3 145.1 317.4 144.4 316.5H124.5V360.5C124.5 371.5 115.5 380.5 104.5 380.5C93.5 380.5 84.5 371.5 84.5 360.5V296.5V216.5C84.5 205.5 93.5 196.5 104.5 196.5ZM176.5 276.5C187.5 276.5 196.5 267.5 196.5 256.5C196.5 245.5 187.5 236.5 176.5 236.5H124.5V276.5H176.5Z" fill="#47535F"/>
</g>
<defs>
<clipPath id="clip0_104_1372">
<rect width="384" height="512" fill="white" transform="translate(0.5 0.5)"/>
</clipPath>
</defs>
</svg>
