<svg width="385" height="513" viewBox="0 0 385 513" fill="none" xmlns="http://www.w3.org/2000/svg">
<g clip-path="url(#clip0_104_1384)">
<path d="M64.5 0.5C29.2 0.5 0.5 29.2 0.5 64.5V448.5C0.5 483.8 29.2 512.5 64.5 512.5H320.5C355.8 512.5 384.5 483.8 384.5 448.5V160.5H256.5C238.8 160.5 224.5 146.2 224.5 128.5V0.5H64.5ZM256.5 0.5V128.5H384.5L256.5 0.5ZM96.5 48.5C96.5 39.7 103.7 32.5 112.5 32.5H144.5C153.3 32.5 160.5 39.7 160.5 48.5C160.5 57.3 153.3 64.5 144.5 64.5H112.5C103.7 64.5 96.5 57.3 96.5 48.5ZM96.5 112.5C96.5 103.7 103.7 96.5 112.5 96.5H144.5C153.3 96.5 160.5 103.7 160.5 112.5C160.5 121.3 153.3 128.5 144.5 128.5H112.5C103.7 128.5 96.5 121.3 96.5 112.5ZM96.5 176.5C96.5 167.7 103.7 160.5 112.5 160.5H144.5C153.3 160.5 160.5 167.7 160.5 176.5C160.5 185.3 153.3 192.5 144.5 192.5H112.5C103.7 192.5 96.5 185.3 96.5 176.5ZM90.2 248.3C93.9 234.3 106.6 224.5 121.1 224.5H135.9C150.4 224.5 163.1 234.2 166.8 248.3L190.3 336.5C191.7 341.9 192.4 347.4 192.4 352.9C192.4 388.1 163.6 416.6 128.4 416.6C93.2 416.6 64.4 388.1 64.4 352.9C64.4 347.4 65.1 341.8 66.5 336.5L90 248.3H90.2ZM112.5 336.5C103.7 336.5 96.5 343.7 96.5 352.5C96.5 361.3 103.7 368.5 112.5 368.5H144.5C153.3 368.5 160.5 361.3 160.5 352.5C160.5 343.7 153.3 336.5 144.5 336.5H112.5Z" fill="#47535F"/>
</g>
<defs>
<clipPath id="clip0_104_1384">
<rect width="384" height="512" fill="white" transform="translate(0.5 0.5)"/>
</clipPath>
</defs>
</svg>
