<svg width="385" height="513" viewBox="0 0 385 513" fill="none" xmlns="http://www.w3.org/2000/svg">
<g clip-path="url(#clip0_104_1344)">
<path d="M64.5 0.5C29.2 0.5 0.5 29.2 0.5 64.5V448.5C0.5 483.8 29.2 512.5 64.5 512.5H320.5C355.8 512.5 384.5 483.8 384.5 448.5V160.5H256.5C238.8 160.5 224.5 146.2 224.5 128.5V0.5H64.5ZM256.5 0.5V128.5H384.5L256.5 0.5ZM153.5 289.5L122.5 320.5L153.5 351.5C162.9 360.9 162.9 376.1 153.5 385.4C144.1 394.7 128.9 394.8 119.6 385.4L71.5 337.5C62.1 328.1 62.1 312.9 71.5 303.6L119.5 255.6C128.9 246.2 144.1 246.2 153.4 255.6C162.7 265 162.8 280.2 153.4 289.5H153.5ZM265.5 255.5L313.5 303.5C322.9 312.9 322.9 328.1 313.5 337.4L265.5 385.4C256.1 394.8 240.9 394.8 231.6 385.4C222.3 376 222.2 360.8 231.6 351.5L262.6 320.5L231.6 289.5C222.2 280.1 222.2 264.9 231.6 255.6C241 246.3 256.2 246.2 265.5 255.6V255.5Z" fill="#47535F"/>
</g>
<defs>
<clipPath id="clip0_104_1344">
<rect width="384" height="512" fill="white" transform="translate(0.5 0.5)"/>
</clipPath>
</defs>
</svg>
