<svg width="577" height="513" viewBox="0 0 577 513" fill="none" xmlns="http://www.w3.org/2000/svg">
<g clip-path="url(#clip0_104_1368)">
<path d="M0.5 64.5C0.5 29.2 29.2 0.5 64.5 0.5H224.5V128.5C224.5 146.2 238.8 160.5 256.5 160.5H384.5V286.2L297.7 373C287.4 383.3 280.2 396.1 276.7 410.2L258 485.1C255.7 494.3 256.2 503.9 259.3 512.6H64.5C29.2 512.6 0.5 483.9 0.5 448.6V64.5ZM384.5 128.5H256.5V0.5L384.5 128.5ZM550.3 236.2L564.7 250.6C580.3 266.2 580.3 291.5 564.7 307.2L535.3 336.6L464.3 265.6L493.7 236.2C509.3 220.6 534.6 220.6 550.3 236.2ZM312.4 417.5L441.6 288.3L512.6 359.3L383.4 488.4C379.3 492.5 374.2 495.4 368.5 496.8L308.4 511.8C302.9 513.2 297.2 511.6 293.2 507.6C289.2 503.6 287.6 497.9 289 492.4L304 432.3C305.4 426.7 308.3 421.5 312.4 417.4V417.5Z" fill="#47535F"/>
</g>
<defs>
<clipPath id="clip0_104_1368">
<rect width="576" height="512" fill="white" transform="translate(0.5 0.5)"/>
</clipPath>
</defs>
</svg>
