<svg width="577" height="513" viewBox="0 0 577 513" fill="none" xmlns="http://www.w3.org/2000/svg">
<g clip-path="url(#clip0_104_1374)">
<path d="M0.5 64.5C0.5 29.2 29.2 0.5 64.5 0.5H224.5V128.5C224.5 146.2 238.8 160.5 256.5 160.5H384.5V207.5L291.7 244.6C270.4 253.1 256.5 273.7 256.5 296.6C256.5 353.2 275.4 444.6 350.7 504.9C341.7 509.7 331.4 512.5 320.5 512.5H64.5C29.2 512.5 0.5 483.8 0.5 448.5V64.5ZM384.5 128.5H256.5V0.5L384.5 128.5ZM423.6 226.2C429.3 223.9 435.7 223.9 441.4 226.2L561.4 274.2C570.5 277.9 576.5 286.7 576.5 296.5C576.5 359.8 550.6 465.3 441.7 510.7C435.8 513.2 429.1 513.2 423.2 510.7C314.4 465.3 288.5 359.8 288.5 296.5C288.5 286.7 294.5 277.9 303.6 274.2L423.6 226.2ZM527.9 312.5L432.5 274.3V462.2C500.7 429.2 524 363.2 527.9 312.5Z" fill="#47535F"/>
</g>
<defs>
<clipPath id="clip0_104_1374">
<rect width="576" height="512" fill="white" transform="translate(0.5 0.5)"/>
</clipPath>
</defs>
</svg>
