<svg width="513" height="513" viewBox="0 0 513 513" fill="none" xmlns="http://www.w3.org/2000/svg">
<g clip-path="url(#clip0_104_1356)">
<path d="M128.5 64.5C128.5 29.2 157.2 0.5 192.5 0.5H352.5V128.5C352.5 146.2 366.8 160.5 384.5 160.5H512.5V448.5C512.5 483.8 483.8 512.5 448.5 512.5H192.5C157.2 512.5 128.5 483.8 128.5 448.5V336.5H302.6L263.6 375.5C254.2 384.9 254.2 400.1 263.6 409.4C273 418.7 288.2 418.8 297.5 409.4L377.5 329.4C386.9 320 386.9 304.8 377.5 295.5L297.5 215.5C288.1 206.1 272.9 206.1 263.6 215.5C254.3 224.9 254.2 240.1 263.6 249.4L302.6 288.4H128.5V64.5ZM128.5 288.5V336.5H24.5C11.2 336.5 0.5 325.8 0.5 312.5C0.5 299.2 11.2 288.5 24.5 288.5H128.5ZM512.5 128.5H384.5V0.5L512.5 128.5Z" fill="#47535F"/>
</g>
<defs>
<clipPath id="clip0_104_1356">
<rect width="512" height="512" fill="white" transform="translate(0.5 0.5)"/>
</clipPath>
</defs>
</svg>
