<svg width="385" height="513" viewBox="0 0 385 513" fill="none" xmlns="http://www.w3.org/2000/svg">
<g clip-path="url(#clip0_104_1360)">
<path d="M64.5 0.5C29.2 0.5 0.5 29.2 0.5 64.5V448.5C0.5 483.8 29.2 512.5 64.5 512.5H320.5C355.8 512.5 384.5 483.8 384.5 448.5V160.5H256.5C238.8 160.5 224.5 146.2 224.5 128.5V0.5H64.5ZM256.5 0.5V128.5H384.5L256.5 0.5ZM64.5 80.5C64.5 71.7 71.7 64.5 80.5 64.5H144.5C153.3 64.5 160.5 71.7 160.5 80.5C160.5 89.3 153.3 96.5 144.5 96.5H80.5C71.7 96.5 64.5 89.3 64.5 80.5ZM64.5 144.5C64.5 135.7 71.7 128.5 80.5 128.5H144.5C153.3 128.5 160.5 135.7 160.5 144.5C160.5 153.3 153.3 160.5 144.5 160.5H80.5C71.7 160.5 64.5 153.3 64.5 144.5ZM192.5 216.5C201.3 216.5 208.5 223.7 208.5 232.5V249.8C217 251 225.2 252.9 232.6 254.9C241.1 257.2 246.2 265.9 243.9 274.5C241.6 283.1 232.9 288.1 224.3 285.8C213.2 282.8 202.3 280.6 192.2 280.5C183.8 280.4 174.8 282.3 168.6 286C162.9 289.4 160.5 293.3 160.5 298.8C160.5 302.5 161.8 305.3 167.8 308.9C174.7 313 184.4 316 197 319.8L197.5 319.9C208.8 323.3 222.8 327.5 233.8 334.5C245.9 342.1 256.2 354.2 256.5 372.7C256.8 392 246.9 406 233.6 414.3C225.9 419.1 217.2 421.9 208.5 423.4V440.5C208.5 449.3 201.3 456.5 192.5 456.5C183.7 456.5 176.5 449.3 176.5 440.5V422.7C165.3 420.6 154.8 417 145.6 413.8C143.5 413.1 141.4 412.4 139.4 411.7C131 408.9 126.5 399.8 129.3 391.5C132.1 383.2 141.2 378.6 149.5 381.4C152 382.2 154.3 383 156.6 383.8C170.2 388.4 181.2 392.2 192.9 392.5C202 392.8 210.8 390.8 216.6 387.2C221.7 384 224.5 379.9 224.4 373.2C224.3 368.6 222.6 365.4 216.7 361.6C209.9 357.3 200.2 354.2 187.7 350.4L186.1 349.9C175.1 346.6 161.8 342.6 151.3 336.2C139.3 329 128.7 317.3 128.6 298.9C128.5 279.5 139.4 266.1 152.4 258.4C159.9 254 168.2 251.2 176.5 249.7V232.5C176.5 223.7 183.7 216.5 192.5 216.5Z" fill="#47535F"/>
</g>
<defs>
<clipPath id="clip0_104_1360">
<rect width="384" height="512" fill="white" transform="translate(0.5 0.5)"/>
</clipPath>
</defs>
</svg>
