<svg width="577" height="513" viewBox="0 0 577 513" fill="none" xmlns="http://www.w3.org/2000/svg">
<g clip-path="url(#clip0_104_1352)">
<path d="M0.5 64.5C0.5 29.2 29.2 0.5 64.5 0.5H224.5V128.5C224.5 146.2 238.8 160.5 256.5 160.5H384.5V288.5H216.5C203.2 288.5 192.5 299.2 192.5 312.5C192.5 325.8 203.2 336.5 216.5 336.5H384.5V448.5C384.5 483.8 355.8 512.5 320.5 512.5H64.5C29.2 512.5 0.5 483.8 0.5 448.5V64.5ZM384.5 336.5V288.5H494.6L455.6 249.5C446.2 240.1 446.2 224.9 455.6 215.6C465 206.3 480.2 206.2 489.5 215.6L569.5 295.6C578.9 305 578.9 320.2 569.5 329.5L489.5 409.5C480.1 418.9 464.9 418.9 455.6 409.5C446.3 400.1 446.2 384.9 455.6 375.6L494.6 336.6H384.5V336.5ZM384.5 128.5H256.5V0.5L384.5 128.5Z" fill="#47535F"/>
</g>
<defs>
<clipPath id="clip0_104_1352">
<rect width="576" height="512" fill="white" transform="translate(0.5 0.5)"/>
</clipPath>
</defs>
</svg>
