<svg width="385" height="513" viewBox="0 0 385 513" fill="none" xmlns="http://www.w3.org/2000/svg">
<g clip-path="url(#clip0_104_1382)">
<path d="M64.5 0.5C29.2 0.5 0.5 29.2 0.5 64.5V448.5C0.5 483.8 29.2 512.5 64.5 512.5H320.5C355.8 512.5 384.5 483.8 384.5 448.5V160.5H256.5C238.8 160.5 224.5 146.2 224.5 128.5V0.5H64.5ZM256.5 0.5V128.5H384.5L256.5 0.5ZM111.5 257.6L138.3 346.8L169.9 256.5C173.3 246.9 182.4 240.4 192.6 240.4C202.8 240.4 211.9 246.8 215.3 256.5L246.9 346.8L273.5 257.6C277.3 244.9 290.7 237.7 303.4 241.5C316.1 245.3 323.3 258.7 319.5 271.4L271.5 431.4C268.5 441.4 259.5 448.3 249.1 448.5C238.7 448.7 229.3 442.3 225.9 432.4L192.5 337.1L159.2 432.4C155.8 442.2 146.4 448.7 136 448.5C125.6 448.3 116.5 441.4 113.6 431.4L65.6 271.4C61.8 258.7 69 245.3 81.7 241.5C94.4 237.7 107.8 244.9 111.6 257.6H111.5Z" fill="#47535F"/>
</g>
<defs>
<clipPath id="clip0_104_1382">
<rect width="384" height="512" fill="white" transform="translate(0.5 0.5)"/>
</clipPath>
</defs>
</svg>
