<svg width="385" height="513" viewBox="0 0 385 513" fill="none" xmlns="http://www.w3.org/2000/svg">
<g clip-path="url(#clip0_104_1346)">
<path d="M64.5 0.5C29.2 0.5 0.5 29.2 0.5 64.5V448.5C0.5 483.8 29.2 512.5 64.5 512.5H320.5C355.8 512.5 384.5 483.8 384.5 448.5V160.5H256.5C238.8 160.5 224.5 146.2 224.5 128.5V0.5H64.5ZM256.5 0.5V128.5H384.5L256.5 0.5ZM80.5 64.5H144.5C153.3 64.5 160.5 71.7 160.5 80.5C160.5 89.3 153.3 96.5 144.5 96.5H80.5C71.7 96.5 64.5 89.3 64.5 80.5C64.5 71.7 71.7 64.5 80.5 64.5ZM80.5 128.5H144.5C153.3 128.5 160.5 135.7 160.5 144.5C160.5 153.3 153.3 160.5 144.5 160.5H80.5C71.7 160.5 64.5 153.3 64.5 144.5C64.5 135.7 71.7 128.5 80.5 128.5ZM134.7 382.3C128.6 402.6 109.9 416.5 88.7 416.5H80.5C71.7 416.5 64.5 409.3 64.5 400.5C64.5 391.7 71.7 384.5 80.5 384.5H88.7C95.8 384.5 102 379.9 104 373.1L118.9 323.6C122.3 312.3 132.7 304.5 144.5 304.5C156.3 304.5 166.7 312.2 170.1 323.6L181.7 362.2C189.1 356 198.5 352.5 208.5 352.5C224.4 352.5 238.9 361.5 246 375.7L250.4 384.5H304.5C313.3 384.5 320.5 391.7 320.5 400.5C320.5 409.3 313.3 416.5 304.5 416.5H240.5C234.4 416.5 228.9 413.1 226.2 407.7L217.4 390C215.7 386.6 212.3 384.5 208.6 384.5C204.9 384.5 201.4 386.6 199.8 390L191 407.7C188.1 413.6 181.8 417.1 175.3 416.5C168.8 415.9 163.2 411.4 161.4 405.2L144.5 349.5L134.7 382.3Z" fill="#47535F"/>
</g>
<defs>
<clipPath id="clip0_104_1346">
<rect width="384" height="512" fill="white" transform="translate(0.5 0.5)"/>
</clipPath>
</defs>
</svg>
