<svg width="385" height="513" viewBox="0 0 385 513" fill="none" xmlns="http://www.w3.org/2000/svg">
<g clip-path="url(#clip0_104_1378)">
<path d="M64.5 0.5C29.2 0.5 0.5 29.2 0.5 64.5V448.5C0.5 483.8 29.2 512.5 64.5 512.5H320.5C355.8 512.5 384.5 483.8 384.5 448.5V160.5H256.5C238.8 160.5 224.5 146.2 224.5 128.5V0.5H64.5ZM256.5 0.5V128.5H384.5L256.5 0.5ZM64.5 288.5C64.5 270.8 78.8 256.5 96.5 256.5H192.5C210.2 256.5 224.5 270.8 224.5 288.5V384.5C224.5 402.2 210.2 416.5 192.5 416.5H96.5C78.8 416.5 64.5 402.2 64.5 384.5V288.5ZM301.4 398.4L256.5 368.5V304.5L301.4 274.6C303.4 273.3 305.8 272.5 308.2 272.5C315 272.5 320.5 278 320.5 284.8V388.2C320.5 395 315 400.5 308.2 400.5C305.8 400.5 303.4 399.8 301.4 398.4Z" fill="#47535F"/>
</g>
<defs>
<clipPath id="clip0_104_1378">
<rect width="384" height="512" fill="white" transform="translate(0.5 0.5)"/>
</clipPath>
</defs>
</svg>
