<svg width="577" height="513" viewBox="0 0 577 513" fill="none" xmlns="http://www.w3.org/2000/svg">
<g clip-path="url(#clip0_104_1376)">
<path d="M64.5 0.5C29.2 0.5 0.5 29.2 0.5 64.5V448.5C0.5 483.8 29.2 512.5 64.5 512.5H320.5C355.8 512.5 384.5 483.8 384.5 448.5V429.2C381.8 430.3 379.1 431.2 376.3 431.9L316.2 446.9C313.2 447.6 310.2 448.1 307.2 448.3C306.3 448.4 305.4 448.5 304.5 448.5H240.5C234.4 448.5 228.9 445.1 226.2 439.7L217.4 422C215.7 418.6 212.3 416.5 208.6 416.5C204.9 416.5 201.4 418.6 199.8 422L191 439.7C188.1 445.6 181.8 449.1 175.3 448.5C168.8 447.9 163.2 443.4 161.4 437.2L144.5 381.5L134.7 414.3C128.6 434.6 109.9 448.5 88.7 448.5H80.5C71.7 448.5 64.5 441.3 64.5 432.5C64.5 423.7 71.7 416.5 80.5 416.5H88.7C95.8 416.5 102 411.9 104 405.1L118.9 355.6C122.3 344.3 132.7 336.5 144.5 336.5C156.3 336.5 166.7 344.3 170.1 355.6L181.7 394.2C189.1 388 198.5 384.5 208.5 384.5C224.4 384.5 238.9 393.5 246 407.7L250.4 416.5H259.3C256.2 407.7 255.6 398.1 257.9 388.7L272.9 328.6C275.7 317.3 281.5 307.1 289.7 298.9L384.5 204.1V160.5H256.5C238.8 160.5 224.5 146.2 224.5 128.5V0.5H64.5ZM256.5 0.5V128.5H384.5L256.5 0.5ZM550.3 140.2C534.7 124.6 509.4 124.6 493.7 140.2L464.3 169.6L535.3 240.6L564.7 211.2C580.3 195.6 580.3 170.3 564.7 154.6L550.3 140.2ZM312.4 321.5C308.3 325.6 305.4 330.7 304 336.4L289 396.5C287.6 402 289.2 407.7 293.2 411.7C297.2 415.7 302.9 417.3 308.4 415.9L368.5 400.9C374.1 399.5 379.3 396.6 383.4 392.5L512.6 263.2L441.6 192.2L312.4 321.5Z" fill="#47535F"/>
</g>
<defs>
<clipPath id="clip0_104_1376">
<rect width="576" height="512" fill="white" transform="translate(0.5 0.5)"/>
</clipPath>
</defs>
</svg>
