<svg width="385" height="513" viewBox="0 0 385 513" fill="none" xmlns="http://www.w3.org/2000/svg">
<g clip-path="url(#clip0_104_1358)">
<path d="M64.5 0.5C29.2 0.5 0.5 29.2 0.5 64.5V448.5C0.5 483.8 29.2 512.5 64.5 512.5H320.5C355.8 512.5 384.5 483.8 384.5 448.5V160.5H256.5C238.8 160.5 224.5 146.2 224.5 128.5V0.5H64.5ZM256.5 0.5V128.5H384.5L256.5 0.5ZM80.5 64.5H144.5C153.3 64.5 160.5 71.7 160.5 80.5C160.5 89.3 153.3 96.5 144.5 96.5H80.5C71.7 96.5 64.5 89.3 64.5 80.5C64.5 71.7 71.7 64.5 80.5 64.5ZM80.5 128.5H144.5C153.3 128.5 160.5 135.7 160.5 144.5C160.5 153.3 153.3 160.5 144.5 160.5H80.5C71.7 160.5 64.5 153.3 64.5 144.5C64.5 135.7 71.7 128.5 80.5 128.5ZM96.5 224.5H288.5C306.2 224.5 320.5 238.8 320.5 256.5V320.5C320.5 338.2 306.2 352.5 288.5 352.5H96.5C78.8 352.5 64.5 338.2 64.5 320.5V256.5C64.5 238.8 78.8 224.5 96.5 224.5ZM96.5 256.5V320.5H288.5V256.5H96.5ZM240.5 416.5H304.5C313.3 416.5 320.5 423.7 320.5 432.5C320.5 441.3 313.3 448.5 304.5 448.5H240.5C231.7 448.5 224.5 441.3 224.5 432.5C224.5 423.7 231.7 416.5 240.5 416.5Z" fill="#47535F"/>
</g>
<defs>
<clipPath id="clip0_104_1358">
<rect width="384" height="512" fill="white" transform="translate(0.5 0.5)"/>
</clipPath>
</defs>
</svg>
