<svg width="449" height="513" viewBox="0 0 449 513" fill="none" xmlns="http://www.w3.org/2000/svg">
<g clip-path="url(#clip0_104_1380)">
<path d="M96.5 0.5C61.2 0.5 32.5 29.2 32.5 64.5V288.5H144.5C150.6 288.5 156.1 291.9 158.8 297.3L176.5 332.7L226.2 233.3C228.9 227.9 234.5 224.5 240.5 224.5C246.5 224.5 252.1 227.9 254.8 233.3L282.4 288.5H352.5C361.3 288.5 368.5 295.7 368.5 304.5C368.5 313.3 361.3 320.5 352.5 320.5H272.5C266.4 320.5 260.9 317.1 258.2 311.7L240.5 276.3L190.8 375.7C188.1 381.1 182.5 384.5 176.5 384.5C170.5 384.5 164.9 381.1 162.2 375.7L134.6 320.5H32.5V448.5C32.5 483.8 61.2 512.5 96.5 512.5H352.5C387.8 512.5 416.5 483.8 416.5 448.5V160.5H288.5C270.8 160.5 256.5 146.2 256.5 128.5V0.5H96.5ZM288.5 0.5V128.5H416.5L288.5 0.5Z" fill="#47535F"/>
</g>
<defs>
<clipPath id="clip0_104_1380">
<rect width="448" height="512" fill="white" transform="translate(0.5 0.5)"/>
</clipPath>
</defs>
</svg>
