<svg width="385" height="513" viewBox="0 0 385 513" fill="none" xmlns="http://www.w3.org/2000/svg">
<g clip-path="url(#clip0_104_1370)">
<path d="M64.5 0.5C29.2 0.5 0.5 29.2 0.5 64.5V448.5C0.5 483.8 29.2 512.5 64.5 512.5H320.5C355.8 512.5 384.5 483.8 384.5 448.5V160.5H256.5C238.8 160.5 224.5 146.2 224.5 128.5V0.5H64.5ZM256.5 0.5V128.5H384.5L256.5 0.5ZM136.5 240.5H204.5C246.5 240.5 280.5 274.5 280.5 316.5C280.5 358.5 246.5 392.5 204.5 392.5H160.5V424.5C160.5 437.8 149.8 448.5 136.5 448.5C123.2 448.5 112.5 437.8 112.5 424.5V368.5V264.5C112.5 251.2 123.2 240.5 136.5 240.5ZM204.5 344.5C220 344.5 232.5 332 232.5 316.5C232.5 301 220 288.5 204.5 288.5H160.5V344.5H204.5Z" fill="#47535F"/>
</g>
<defs>
<clipPath id="clip0_104_1370">
<rect width="384" height="512" fill="white" transform="translate(0.5 0.5)"/>
</clipPath>
</defs>
</svg>
