<svg width="513" height="513" viewBox="0 0 513 513" fill="none" xmlns="http://www.w3.org/2000/svg">
<g clip-path="url(#clip0_104_1348)">
<path d="M0.5 64.5C0.5 29.2 29.2 0.5 64.5 0.5H224.5V128.5C224.5 146.2 238.8 160.5 256.5 160.5H384.5V304.5H176.5C141.2 304.5 112.5 333.2 112.5 368.5V512.5H64.5C29.2 512.5 0.5 483.8 0.5 448.5V64.5ZM384.5 128.5H256.5V0.5L384.5 128.5ZM200.5 352.5H216.5C238.6 352.5 256.5 370.4 256.5 392.5V400.5C256.5 409.3 249.3 416.5 240.5 416.5C231.7 416.5 224.5 409.3 224.5 400.5V392.5C224.5 388.1 220.9 384.5 216.5 384.5H200.5C196.1 384.5 192.5 388.1 192.5 392.5V472.5C192.5 476.9 196.1 480.5 200.5 480.5H216.5C220.9 480.5 224.5 476.9 224.5 472.5V464.5C224.5 455.7 231.7 448.5 240.5 448.5C249.3 448.5 256.5 455.7 256.5 464.5V472.5C256.5 494.6 238.6 512.5 216.5 512.5H200.5C178.4 512.5 160.5 494.6 160.5 472.5V392.5C160.5 370.4 178.4 352.5 200.5 352.5ZM333.6 352.5H368.5C377.3 352.5 384.5 359.7 384.5 368.5C384.5 377.3 377.3 384.5 368.5 384.5H333.6C326.4 384.5 320.5 390.4 320.5 397.6C320.5 402.8 323.5 407.5 328.3 409.6L365.7 426.2C382 433.4 392.5 449.6 392.5 467.4C392.5 492.3 372.3 512.5 347.4 512.5H304.5C295.7 512.5 288.5 505.3 288.5 496.5C288.5 487.7 295.7 480.5 304.5 480.5H347.4C354.6 480.5 360.5 474.6 360.5 467.4C360.5 462.2 357.5 457.5 352.7 455.4L315.3 438.8C299 431.6 288.5 415.4 288.5 397.6C288.5 372.7 308.7 352.5 333.6 352.5ZM432.5 352.5C441.3 352.5 448.5 359.7 448.5 368.5V400.1C448.5 423.1 454 445.7 464.5 466.1C475 445.8 480.5 423.2 480.5 400.1V368.5C480.5 359.7 487.7 352.5 496.5 352.5C505.3 352.5 512.5 359.7 512.5 368.5V400.1C512.5 434.8 502.2 468.8 482.9 497.7L477.8 505.4C474.8 509.9 469.8 512.5 464.5 512.5C459.2 512.5 454.2 509.8 451.2 505.4L446.1 497.7C426.8 468.8 416.5 434.8 416.5 400.1V368.5C416.5 359.7 423.7 352.5 432.5 352.5Z" fill="#47535F"/>
</g>
<defs>
<clipPath id="clip0_104_1348">
<rect width="512" height="512" fill="white" transform="translate(0.5 0.5)"/>
</clipPath>
</defs>
</svg>
