<svg width="385" height="513" viewBox="0 0 385 513" fill="none" xmlns="http://www.w3.org/2000/svg">
<g clip-path="url(#clip0_104_1362)">
<path d="M64.5 0.5C29.2 0.5 0.5 29.2 0.5 64.5V448.5C0.5 483.8 29.2 512.5 64.5 512.5H320.5C355.8 512.5 384.5 483.8 384.5 448.5V160.5H256.5C238.8 160.5 224.5 146.2 224.5 128.5V0.5H64.5ZM256.5 0.5V128.5H384.5L256.5 0.5ZM112.5 256.5H272.5C281.3 256.5 288.5 263.7 288.5 272.5C288.5 281.3 281.3 288.5 272.5 288.5H112.5C103.7 288.5 96.5 281.3 96.5 272.5C96.5 263.7 103.7 256.5 112.5 256.5ZM112.5 320.5H272.5C281.3 320.5 288.5 327.7 288.5 336.5C288.5 345.3 281.3 352.5 272.5 352.5H112.5C103.7 352.5 96.5 345.3 96.5 336.5C96.5 327.7 103.7 320.5 112.5 320.5ZM112.5 384.5H272.5C281.3 384.5 288.5 391.7 288.5 400.5C288.5 409.3 281.3 416.5 272.5 416.5H112.5C103.7 416.5 96.5 409.3 96.5 400.5C96.5 391.7 103.7 384.5 112.5 384.5Z" fill="#47535F"/>
</g>
<defs>
<clipPath id="clip0_104_1362">
<rect width="384" height="512" fill="white" transform="translate(0.5 0.5)"/>
</clipPath>
</defs>
</svg>
