<svg width="385" height="513" viewBox="0 0 385 513" fill="none" xmlns="http://www.w3.org/2000/svg">
<g clip-path="url(#clip0_104_1364)">
<path d="M64.5 0.5C29.2 0.5 0.5 29.2 0.5 64.5V448.5C0.5 483.8 29.2 512.5 64.5 512.5H320.5C355.8 512.5 384.5 483.8 384.5 448.5V160.5H256.5C238.8 160.5 224.5 146.2 224.5 128.5V0.5H64.5ZM256.5 0.5V128.5H384.5L256.5 0.5ZM160.5 240.5C160.5 231.7 167.7 224.5 176.5 224.5H208.5C217.3 224.5 224.5 231.7 224.5 240.5V288.5H272.5C281.3 288.5 288.5 295.7 288.5 304.5V336.5C288.5 345.3 281.3 352.5 272.5 352.5H224.5V400.5C224.5 409.3 217.3 416.5 208.5 416.5H176.5C167.7 416.5 160.5 409.3 160.5 400.5V352.5H112.5C103.7 352.5 96.5 345.3 96.5 336.5V304.5C96.5 295.7 103.7 288.5 112.5 288.5H160.5V240.5Z" fill="#47535F"/>
</g>
<defs>
<clipPath id="clip0_104_1364">
<rect width="384" height="512" fill="white" transform="translate(0.5 0.5)"/>
</clipPath>
</defs>
</svg>
