<svg width="385" height="513" viewBox="0 0 385 513" fill="none" xmlns="http://www.w3.org/2000/svg">
<g clip-path="url(#clip0_104_1326)">
<path d="M64.5 0.5C29.2 0.5 0.5 29.2 0.5 64.5V448.5C0.5 483.8 29.2 512.5 64.5 512.5H320.5C355.8 512.5 384.5 483.8 384.5 448.5V160.5H256.5C238.8 160.5 224.5 146.2 224.5 128.5V0.5H64.5ZM256.5 0.5V128.5H384.5L256.5 0.5ZM216.5 232.5V334.6L247.5 303.6C256.9 294.2 272.1 294.2 281.4 303.6C290.7 313 290.8 328.2 281.4 337.5L209.4 409.5C200 418.9 184.8 418.9 175.5 409.5L103.5 337.5C94.1 328.1 94.1 312.9 103.5 303.6C112.9 294.3 128.1 294.2 137.4 303.6L168.4 334.6V232.5C168.4 219.2 179.1 208.5 192.4 208.5C205.7 208.5 216.4 219.2 216.4 232.5H216.5Z" fill="#47535F"/>
</g>
<defs>
<clipPath id="clip0_104_1326">
<rect width="384" height="512" fill="white" transform="translate(0.5 0.5)"/>
</clipPath>
</defs>
</svg>
