<svg width="385" height="513" viewBox="0 0 385 513" fill="none" xmlns="http://www.w3.org/2000/svg">
<g clip-path="url(#clip0_104_1330)">
<path d="M64.5 0.5C29.2 0.5 0.5 29.2 0.5 64.5V448.5C0.5 483.8 29.2 512.5 64.5 512.5H320.5C355.8 512.5 384.5 483.8 384.5 448.5V160.5H256.5C238.8 160.5 224.5 146.2 224.5 128.5V0.5H64.5ZM256.5 0.5V128.5H384.5L256.5 0.5ZM258.5 226.8C295.6 249.2 320.5 289.9 320.5 336.5C320.5 383.1 295.6 423.8 258.5 446.2C250.9 450.8 241.1 448.3 236.5 440.8C231.9 433.3 234.4 423.4 241.9 418.8C269.9 402 288.5 371.4 288.5 336.5C288.5 301.6 269.9 271 242 254.2C234.4 249.6 232 239.8 236.6 232.2C241.2 224.6 251 222.2 258.6 226.8H258.5ZM166.6 257.7C172.6 260.2 176.5 266 176.5 272.5V400.5C176.5 407 172.6 412.8 166.6 415.3C160.6 417.8 153.7 416.4 149.2 411.8L113.9 376.5H80.5C71.7 376.5 64.5 369.3 64.5 360.5V312.5C64.5 303.7 71.7 296.5 80.5 296.5H113.9L149.2 261.2C153.8 256.6 160.7 255.3 166.6 257.7ZM217.6 292.6C224.2 286.7 234.3 287.3 240.2 293.9C250.3 305.1 256.5 320.1 256.5 336.5C256.5 352.9 250.3 367.9 240.2 379.2C234.3 385.8 224.2 386.3 217.6 380.5C211 374.7 210.5 364.5 216.3 357.9C221.4 352.2 224.4 344.8 224.4 336.6C224.4 328.4 221.3 320.9 216.3 315.3C210.4 308.7 211 298.6 217.6 292.7V292.6Z" fill="#47535F"/>
</g>
<defs>
<clipPath id="clip0_104_1330">
<rect width="384" height="512" fill="white" transform="translate(0.5 0.5)"/>
</clipPath>
</defs>
</svg>
