<svg width="577" height="513" viewBox="0 0 577 513" fill="none" xmlns="http://www.w3.org/2000/svg">
<g clip-path="url(#clip0_104_1388)">
<path d="M41.8996 9.90002C54.3996 -2.59998 74.5996 -2.59998 87.0996 9.90002L168.5 91.2L221.6 38.1C249.7 10 295.3 10 323.4 38.1L474.8 189.6C502.9 217.7 502.9 263.3 474.8 291.4L284.4 481.9C246.9 519.4 186.1 519.4 148.6 481.9L31.0996 364.4C-6.40039 326.9 -6.40039 266.1 31.0996 228.6L123.2 136.5L41.8996 55.1C29.3996 42.6 29.3996 22.3 41.8996 9.80002V9.90002ZM217.9 231.2L168.5 181.8L76.3996 273.9C72.1996 278.1 69.3996 283.2 67.9996 288.5H387.2L429.5 246.2C432.6 243.1 432.6 238 429.5 234.9L278.2 83.4C275.1 80.3 270 80.3 266.9 83.4L213.8 136.5L263.2 185.9C275.7 198.4 275.7 218.7 263.2 231.2C250.7 243.7 230.4 243.7 217.9 231.2ZM512.5 512.5C477.2 512.5 448.5 483.8 448.5 448.5C448.5 423.3 481.1 368.9 499.7 339.8C505.7 330.4 519.2 330.4 525.2 339.8C543.9 368.9 576.5 423.3 576.5 448.5C576.5 483.8 547.8 512.5 512.5 512.5Z" fill="#47535F"/>
</g>
<defs>
<clipPath id="clip0_104_1388">
<rect width="576" height="512" fill="white" transform="translate(0.5 0.5)"/>
</clipPath>
</defs>
</svg>
