<svg width="513" height="513" viewBox="0 0 513 513" fill="none" xmlns="http://www.w3.org/2000/svg">
<g clip-path="url(#clip0_104_1386)">
<path d="M87.0996 9.90002C74.5996 -2.59998 54.3996 -2.59998 41.8996 9.90002C29.3996 22.4 29.3996 42.7 41.8996 55.2L123.2 136.5L31.0996 228.6C-6.40039 266.1 -6.40039 326.9 31.0996 364.4L148.6 481.9C186.1 519.4 246.9 519.4 284.4 481.9L474.8 291.4C502.9 263.3 502.9 217.7 474.8 189.6L323.4 38.2C295.3 10.1 249.7 10.1 221.6 38.2L168.5 91.2L87.0996 9.90002ZM168.5 181.8L217.9 231.2C230.4 243.7 250.7 243.7 263.2 231.2C275.7 218.7 275.7 198.4 263.2 185.9L213.8 136.5L266.9 83.4C270 80.3 275.1 80.3 278.2 83.4L429.6 234.8C432.7 237.9 432.7 243 429.6 246.1L387.2 288.5H67.9996C69.3996 283.1 72.1996 278.1 76.3996 273.9L168.5 181.8Z" fill="#47535F"/>
</g>
<defs>
<clipPath id="clip0_104_1386">
<rect width="512" height="512" fill="white" transform="translate(0.5 0.5)"/>
</clipPath>
</defs>
</svg>
