<svg width="513" height="513" viewBox="0 0 513 513" fill="none" xmlns="http://www.w3.org/2000/svg">
<g clip-path="url(#clip0_104_1390)">
<path d="M0.5 96.5C0.5 61.2 29.2 32.5 64.5 32.5H448.5C483.8 32.5 512.5 61.2 512.5 96.5V416.5C512.5 451.8 483.8 480.5 448.5 480.5H64.5C29.2 480.5 0.5 451.8 0.5 416.5V96.5ZM48.5 368.5V400.5C48.5 409.3 55.7 416.5 64.5 416.5H96.5C105.3 416.5 112.5 409.3 112.5 400.5V368.5C112.5 359.7 105.3 352.5 96.5 352.5H64.5C55.7 352.5 48.5 359.7 48.5 368.5ZM416.5 352.5C407.7 352.5 400.5 359.7 400.5 368.5V400.5C400.5 409.3 407.7 416.5 416.5 416.5H448.5C457.3 416.5 464.5 409.3 464.5 400.5V368.5C464.5 359.7 457.3 352.5 448.5 352.5H416.5ZM48.5 240.5V272.5C48.5 281.3 55.7 288.5 64.5 288.5H96.5C105.3 288.5 112.5 281.3 112.5 272.5V240.5C112.5 231.7 105.3 224.5 96.5 224.5H64.5C55.7 224.5 48.5 231.7 48.5 240.5ZM416.5 224.5C407.7 224.5 400.5 231.7 400.5 240.5V272.5C400.5 281.3 407.7 288.5 416.5 288.5H448.5C457.3 288.5 464.5 281.3 464.5 272.5V240.5C464.5 231.7 457.3 224.5 448.5 224.5H416.5ZM48.5 112.5V144.5C48.5 153.3 55.7 160.5 64.5 160.5H96.5C105.3 160.5 112.5 153.3 112.5 144.5V112.5C112.5 103.7 105.3 96.5 96.5 96.5H64.5C55.7 96.5 48.5 103.7 48.5 112.5ZM416.5 96.5C407.7 96.5 400.5 103.7 400.5 112.5V144.5C400.5 153.3 407.7 160.5 416.5 160.5H448.5C457.3 160.5 464.5 153.3 464.5 144.5V112.5C464.5 103.7 457.3 96.5 448.5 96.5H416.5ZM160.5 128.5V192.5C160.5 210.2 174.8 224.5 192.5 224.5H320.5C338.2 224.5 352.5 210.2 352.5 192.5V128.5C352.5 110.8 338.2 96.5 320.5 96.5H192.5C174.8 96.5 160.5 110.8 160.5 128.5ZM192.5 288.5C174.8 288.5 160.5 302.8 160.5 320.5V384.5C160.5 402.2 174.8 416.5 192.5 416.5H320.5C338.2 416.5 352.5 402.2 352.5 384.5V320.5C352.5 302.8 338.2 288.5 320.5 288.5H192.5Z" fill="#47535F"/>
</g>
<defs>
<clipPath id="clip0_104_1390">
<rect width="512" height="512" fill="white" transform="translate(0.5 0.5)"/>
</clipPath>
</defs>
</svg>
