<svg width="577" height="513" viewBox="0 0 577 513" fill="none" xmlns="http://www.w3.org/2000/svg">
<g clip-path="url(#clip0_104_1396)">
<path d="M4.3999 23.4C10.9999 9.4 24.9999 0.5 40.4999 0.5H472.5C488 0.5 502 9.4 508.6 23.4C515.2 37.4 513.2 53.9 503.4 65.9L396.9 196.1C316.7 212.6 256.5 283.5 256.5 368.5C256.5 395.9 262.8 421.9 274 445C272.4 444.2 270.8 443.2 269.3 442.1L205.3 394.1C197.2 388.1 192.5 378.6 192.5 368.5V289.4L9.4999 65.8C-0.200099 53.9 -2.3001 37.3 4.3999 23.4ZM432.5 224.5C470.691 224.5 507.318 239.671 534.323 266.677C561.328 293.682 576.5 330.309 576.5 368.5C576.5 406.691 561.328 443.318 534.323 470.323C507.318 497.329 470.691 512.5 432.5 512.5C394.309 512.5 357.682 497.329 330.677 470.323C303.671 443.318 288.5 406.691 288.5 368.5C288.5 330.309 303.671 293.682 330.677 266.677C357.682 239.671 394.309 224.5 432.5 224.5ZM491.8 331.8C498 325.6 498 315.4 491.8 309.2C485.6 303 475.4 303 469.2 309.2L432.5 345.9L395.8 309.2C389.6 303 379.4 303 373.2 309.2C367 315.4 367 325.6 373.2 331.8L409.9 368.5L373.2 405.2C367 411.4 367 421.6 373.2 427.8C379.4 434 389.6 434 395.8 427.8L432.5 391.1L469.2 427.8C475.4 434 485.6 434 491.8 427.8C498 421.6 498 411.4 491.8 405.2L455.1 368.5L491.8 331.8Z" fill="#47535F"/>
</g>
<defs>
<clipPath id="clip0_104_1396">
<rect width="576" height="512" fill="white" transform="translate(0.5 0.5)"/>
</clipPath>
</defs>
</svg>
