<svg width="577" height="513" viewBox="0 0 577 513" fill="none" xmlns="http://www.w3.org/2000/svg">
<g clip-path="url(#clip0_104_1394)">
<path d="M4.40014 23.4C11.0001 9.4 25.0001 0.5 40.5001 0.5H472.5C488 0.5 502 9.4 508.6 23.4C515.2 37.4 513.2 53.9 503.4 65.9L396.9 196.1C316.7 212.6 256.5 283.5 256.5 368.5C256.5 395.9 262.8 421.9 274 445C272.4 444.2 270.8 443.2 269.3 442.1L205.3 394.1C197.2 388.1 192.5 378.6 192.5 368.5V289.4L9.50014 65.8C-0.199855 53.9 -2.29986 37.3 4.40014 23.4ZM288.5 368.5C288.5 330.309 303.672 293.682 330.677 266.677C357.682 239.671 394.309 224.5 432.5 224.5C470.691 224.5 507.318 239.671 534.323 266.677C561.329 293.682 576.5 330.309 576.5 368.5C576.5 406.691 561.329 443.318 534.323 470.323C507.318 497.329 470.691 512.5 432.5 512.5C394.309 512.5 357.682 497.329 330.677 470.323C303.672 443.318 288.5 406.691 288.5 368.5ZM409.3 335.9C409.9 335 411.1 333.8 413.5 332.5C418.6 329.8 426 328.4 432.2 328.5C440.4 328.6 449.3 330.3 458.6 332.6C467.2 334.7 475.9 329.5 478 320.9C480.1 312.3 474.9 303.6 466.3 301.5C460.7 300.1 454.7 298.8 448.4 297.8V288.5C448.4 279.7 441.2 272.5 432.4 272.5C423.6 272.5 416.4 279.7 416.4 288.5V298C410.3 299.2 404.1 301.2 398.4 304.3C386.6 310.6 375.4 322.7 376.6 341.5C377.6 357.5 388.3 366.8 398.2 372.2C407 376.9 417.9 380 426.8 382.5L428.6 383C438.9 385.9 446.5 388.2 451.8 391.3C456.3 394 456.5 395.5 456.5 396.9C456.6 399.3 456 400.6 455.5 401.4C454.9 402.4 453.7 403.6 451.5 404.7C446.8 407.2 439.7 408.5 433 408.3C423.5 408 414.5 405.2 403.1 401.5C401.2 400.9 399.3 400.3 397.3 399.7C388.9 397.1 379.9 401.8 377.3 410.2C374.7 418.6 379.4 427.6 387.8 430.2C389.4 430.7 391.1 431.2 392.8 431.8C399.8 434.1 407.9 436.6 416.5 438.4V449.8C416.5 458.6 423.7 465.8 432.5 465.8C441.3 465.8 448.5 458.6 448.5 449.8V439.2C454.7 438.1 461 436.1 466.8 433C478.9 426.5 489.1 414.3 488.5 396.1C488 379.9 478.2 369.8 468 363.8C458.6 358.2 446.8 354.9 437.5 352.3H437.3C426.9 349.4 419 347.1 413.4 344.1C408.6 341.5 408.6 340.1 408.6 339.6V339.5C408.5 337.6 408.9 336.6 409.4 335.9H409.3Z" fill="#47535F"/>
</g>
<defs>
<clipPath id="clip0_104_1394">
<rect width="576" height="512" fill="white" transform="translate(0.5 0.5)"/>
</clipPath>
</defs>
</svg>
