<svg width="513" height="513" viewBox="0 0 513 513" fill="none" xmlns="http://www.w3.org/2000/svg">
<g clip-path="url(#clip0_104_1398)">
<path d="M48.5 256.5C48.5 141.6 141.6 48.5 256.5 48.5C319.6 48.5 376.1 76.6 414.3 121C422.9 131.1 438.1 132.2 448.1 123.6C458.1 115 459.3 99.8 450.7 89.8C403.8 35.1 334.2 0.5 256.5 0.5C115.1 0.5 0.5 115.1 0.5 256.5V296.5C0.5 309.8 11.2 320.5 24.5 320.5C37.8 320.5 48.5 309.8 48.5 296.5V256.5ZM507 203.6C504.3 190.6 491.5 182.3 478.6 185.1C465.7 187.9 457.3 200.6 460.1 213.5C463 227.4 464.6 241.8 464.6 256.6V296.6C464.6 309.9 475.3 320.6 488.6 320.6C501.9 320.6 512.6 309.9 512.6 296.6V256.5C512.6 238.4 510.7 220.7 507.1 203.6H507ZM256.5 80.5C237.5 80.5 219.1 83.5 202 89.1C186.8 94.1 183.3 112.8 193.7 125C200.8 133.3 212.5 135.8 223.1 132.9C233.7 130 244.9 128.5 256.5 128.5C327.2 128.5 384.5 185.8 384.5 256.5V281.4C384.5 306.6 383 331.7 380.1 356.7C378.4 371.3 389.5 384.5 404.3 384.5C416.1 384.5 426.2 375.9 427.6 364.2C430.9 336.8 432.6 309.2 432.6 281.5V256.5C432.6 159.3 353.8 80.5 256.6 80.5H256.5ZM151.2 149.2C142.1 138.6 125.9 137.8 117.3 148.8C94.2 178.5 80.5 215.9 80.5 256.5V281.4C80.5 305.6 77.9 329.8 72.7 353.3C69.3 368.9 80.6 384.5 96.6 384.5C107.1 384.5 116.5 377.5 118.8 367.2C125.2 339.1 128.5 310.4 128.5 281.4V256.5C128.5 229.3 137 204.1 151.4 183.4C158.6 173 159.4 158.8 151.2 149.2ZM256.5 160.5C203.5 160.5 160.5 203.5 160.5 256.5V281.4C160.5 317.3 155.9 352.9 146.7 387.5C142.9 401.8 153.4 416.5 168.2 416.5C177.7 416.5 186.1 410.3 188.6 401.1C199.1 362.1 204.5 321.9 204.5 281.4V256.5C204.5 227.8 227.8 204.5 256.5 204.5C285.2 204.5 308.5 227.8 308.5 256.5V281.4C308.5 317.7 305 353.8 298.1 389.3C295.4 403.2 305.8 416.5 319.9 416.5C330.1 416.5 338.9 409.5 340.9 399.5C348.6 360.7 352.5 321.2 352.5 281.4V256.5C352.5 203.5 309.5 160.5 256.5 160.5ZM280.5 256.5C280.5 243.2 269.8 232.5 256.5 232.5C243.2 232.5 232.5 243.2 232.5 256.5V281.4C232.5 341.3 221.5 400.7 200 456.6L194.1 471.9C189.3 484.3 195.5 498.2 207.9 502.9C220.3 507.6 234.2 501.5 238.9 489.1L244.8 473.8C268.4 412.4 280.5 347.2 280.5 281.4V256.5Z" fill="#47535F"/>
</g>
<defs>
<clipPath id="clip0_104_1398">
<rect width="512" height="512" fill="white" transform="translate(0.5 0.5)"/>
</clipPath>
</defs>
</svg>
