<svg width="641" height="513" viewBox="0 0 641 513" fill="none" xmlns="http://www.w3.org/2000/svg">
<g clip-path="url(#clip0_104_1402)">
<path d="M294 4.29997C313.7 22.1 332.2 41.3 349.5 62C357.4 52.1 366.3 41.3 376 32.5C381.6 27.4 390.4 27.4 396 32.5C420.7 55.2 441.6 85.2 456.4 113.6C470.9 141.6 480.6 172.4 480.6 192.6C480.5 280.5 409.2 352.5 320.5 352.5C230.8 352.5 160.5 280.4 160.5 192.7C160.5 166.3 173.2 132 192.9 100.1C212.9 67.7 241 34 274.3 4.29997C277.1 1.79997 280.7 0.499971 284.3 0.599971C287.8 0.599971 291.3 1.89997 294.1 4.39997L294 4.29997ZM370.5 273.5C400.5 252.5 408.5 210.5 390.5 177.5C388.5 173.5 386.5 169.5 383.5 165.5L347.5 207.5C347.5 207.5 289.5 133.5 285.5 128.5C255.5 165.5 240.5 186.5 240.5 210.5C240.5 259.5 276.5 288.5 321.5 288.5C339.5 288.5 355.5 283.5 370.5 273.5ZM32.5 288.5C32.5 270.8 46.8 256.5 64.5 256.5H96.5C114.2 256.5 128.5 270.8 128.5 288.5C128.5 306.2 114.2 320.5 96.5 320.5V384.5H544.5V320.5C526.8 320.5 512.5 306.2 512.5 288.5C512.5 270.8 526.8 256.5 544.5 256.5H576.5C594.2 256.5 608.5 270.8 608.5 288.5V384.5C626.2 384.5 640.5 398.8 640.5 416.5V480.5C640.5 498.2 626.2 512.5 608.5 512.5H32.5C14.8 512.5 0.5 498.2 0.5 480.5V416.5C0.5 398.8 14.8 384.5 32.5 384.5V288.5ZM320.5 480.5C328.987 480.5 337.126 477.129 343.127 471.127C349.129 465.126 352.5 456.987 352.5 448.5C352.5 440.013 349.129 431.874 343.127 425.873C337.126 419.871 328.987 416.5 320.5 416.5C312.013 416.5 303.874 419.871 297.873 425.873C291.871 431.874 288.5 440.013 288.5 448.5C288.5 456.987 291.871 465.126 297.873 471.127C303.874 477.129 312.013 480.5 320.5 480.5ZM480.5 448.5C480.5 440.013 477.129 431.874 471.127 425.873C465.126 419.871 456.987 416.5 448.5 416.5C440.013 416.5 431.874 419.871 425.873 425.873C419.871 431.874 416.5 440.013 416.5 448.5C416.5 456.987 419.871 465.126 425.873 471.127C431.874 477.129 440.013 480.5 448.5 480.5C456.987 480.5 465.126 477.129 471.127 471.127C477.129 465.126 480.5 456.987 480.5 448.5ZM192.5 480.5C200.987 480.5 209.126 477.129 215.127 471.127C221.129 465.126 224.5 456.987 224.5 448.5C224.5 440.013 221.129 431.874 215.127 425.873C209.126 419.871 200.987 416.5 192.5 416.5C184.013 416.5 175.874 419.871 169.873 425.873C163.871 431.874 160.5 440.013 160.5 448.5C160.5 456.987 163.871 465.126 169.873 471.127C175.874 477.129 184.013 480.5 192.5 480.5Z" fill="#47535F"/>
</g>
<defs>
<clipPath id="clip0_104_1402">
<rect width="640" height="512" fill="white" transform="translate(0.5 0.5)"/>
</clipPath>
</defs>
</svg>
