<svg width="449" height="513" viewBox="0 0 449 513" fill="none" xmlns="http://www.w3.org/2000/svg">
<g clip-path="url(#clip0_104_1400)">
<path d="M159.8 5.89999C167.6 -1.40001 179.7 -1.30001 187.5 5.99999C215.1 31.9 241 59.8 265.2 90C276.2 75.6 288.7 59.9 302.2 47.1C310.1 39.7 322.3 39.7 330.2 47.2C364.8 80.2 394.1 123.8 414.7 165.2C435 206 448.5 247.7 448.5 277.1C448.5 404.7 348.7 512.5 224.5 512.5C98.9 512.5 0.5 404.6 0.5 277C0.5 238.6 18.3 191.7 45.9 145.3C73.8 98.2 113.2 49.1 159.8 5.89999ZM226.2 416.5C251.5 416.5 273.9 409.5 295 395.5C337.1 366.1 348.4 307.3 323.1 261.1C318.6 252.1 307.1 251.5 300.6 259.1L275.4 288.4C268.8 296 256.9 295.8 250.7 287.9C234.2 266.9 204.7 229.4 187.9 208.1C181.6 200.1 169.6 200 163.2 208C129.4 250.5 112.4 277.3 112.4 307.4C112.5 375.9 163.1 416.5 226.2 416.5Z" fill="#47535F"/>
</g>
<defs>
<clipPath id="clip0_104_1400">
<rect width="448" height="512" fill="white" transform="translate(0.5 0.5)"/>
</clipPath>
</defs>
</svg>
