<svg width="513" height="513" viewBox="0 0 513 513" fill="none" xmlns="http://www.w3.org/2000/svg">
<g clip-path="url(#clip0_104_1404)">
<path d="M500.8 7.80006C508.2 13.8001 512.5 22.9001 512.5 32.5001V128.5C512.5 138.1 508.2 147.2 500.8 153.2C493.4 159.2 483.6 161.7 474.2 159.8L314.2 127.8C302 125.4 292.5 116.2 289.5 104.5H224.5V139.3C262.3 157.3 288.5 195.8 288.5 240.5V384.5H64.5V240.5C64.5 195.8 90.7 157.3 128.5 139.3V110.5C92.3 121.6 62.5 147.4 46.2 181C40.4 192.9 26 197.9 14.1 192.1C2.19999 186.3 -2.80001 171.9 2.99999 160C27.2 110.3 73.2 73.1001 128.5 60.9001V32.5001C128.5 14.8001 142.8 0.500055 160.5 0.500055H192.5C210.2 0.500055 224.5 14.8001 224.5 32.5001V56.5001H289.5C292.5 44.8001 302 35.6001 314.2 33.1001L474.2 1.10006C483.6 -0.799945 493.3 1.70006 500.8 7.70006V7.80006ZM288.5 416.5V448.5C288.5 483.8 259.8 512.5 224.5 512.5H128.5C93.2 512.5 64.5 483.8 64.5 448.5V416.5H288.5ZM176.5 96.5001C180.743 96.5001 184.813 94.8143 187.814 91.8138C190.814 88.8132 192.5 84.7435 192.5 80.5001C192.5 76.2566 190.814 72.1869 187.814 69.1863C184.813 66.1858 180.743 64.5001 176.5 64.5001C172.257 64.5001 168.187 66.1858 165.186 69.1863C162.186 72.1869 160.5 76.2566 160.5 80.5001C160.5 84.7435 162.186 88.8132 165.186 91.8138C168.187 94.8143 172.257 96.5001 176.5 96.5001Z" fill="#47535F"/>
</g>
<defs>
<clipPath id="clip0_104_1404">
<rect width="512" height="512" fill="white" transform="translate(0.5 0.5)"/>
</clipPath>
</defs>
</svg>
