<svg width="385" height="513" viewBox="0 0 385 513" fill="none" xmlns="http://www.w3.org/2000/svg">
<g clip-path="url(#clip0_104_1408)">
<path d="M373 257L372.3 255.1C338.3 161.3 282.5 77 209.6 9L206.3 6C202.6 2.5 197.6 0.5 192.5 0.5C187.4 0.5 182.4 2.5 178.7 6L175.4 9C102.5 77 46.7 161.3 12.7 255.1L12 257C4.4 277.8 0.5 299.9 0.5 322.1C0.5 427.2 87.3 512.5 192.5 512.5C297.7 512.5 384.5 427.2 384.5 322.1C384.5 299.9 380.6 277.9 373 257ZM282.2 306.5C286.3 315.8 288.4 325.9 288.4 336C288.4 389 245.4 432.5 192.4 432.5C139.4 432.5 96.4 389 96.4 336C96.4 325.9 98.5 315.7 102.6 306.5L104.5 302.2C120.3 266.8 142.4 234.5 169.8 207.1L178.7 198.2C182.3 194.6 187.2 192.6 192.3 192.6C197.4 192.6 202.3 194.6 205.9 198.2L214.8 207.1C242.2 234.5 264.4 266.8 280.1 302.2L282 306.5H282.2Z" fill="#47535F"/>
</g>
<defs>
<clipPath id="clip0_104_1408">
<rect width="384" height="512" fill="white" transform="translate(0.5 0.5)"/>
</clipPath>
</defs>
</svg>
