<svg width="385" height="513" viewBox="0 0 385 513" fill="none" xmlns="http://www.w3.org/2000/svg">
<g clip-path="url(#clip0_104_1406)">
<path d="M154.1 30.4L170.1 9.1C174.1 3.7 180.5 0.5 187.2 0.5C198.9 0.5 208.5 10.1 208.5 21.8V44C208.5 57.1 213.9 69.7 223.4 78.7L308.1 159.5C356.9 206.1 384.5 270.7 384.5 338.2C384.5 434.5 306.5 512.5 210.2 512.5H192.5C86.5 512.5 0.5 426.5 0.5 320.5V316.7C0.5 267.9 19.9 221.1 54.4 186.6L57.9 183.1C62.1 178.9 67.9 176.5 73.9 176.5C86.4 176.5 96.5 186.6 96.5 199.1V288.5C96.5 323.8 125.2 352.5 160.5 352.5C195.8 352.5 224.5 323.8 224.5 288.5V284.6C224.5 266.6 217.3 249.3 204.6 236.6L166 198C142 174 128.5 141.3 128.5 107.3C128.5 79.6 137.5 52.5 154.1 30.4Z" fill="#47535F"/>
</g>
<defs>
<clipPath id="clip0_104_1406">
<rect width="384" height="512" fill="white" transform="translate(0.5 0.5)"/>
</clipPath>
</defs>
</svg>
