<svg width="577" height="513" viewBox="0 0 577 513" fill="none" xmlns="http://www.w3.org/2000/svg">
<g clip-path="url(#clip0_104_1412)">
<path d="M275.7 38.9C265.1 30.9 250.7 30.4 239.4 37.4C228.1 44.4 222.5 57.8 225.1 70.8L234.8 119.4C215.4 128.4 197.9 139.3 182.4 150.9C167.1 162.4 153.4 174.8 141.7 187.2L48.6 132.9C36.1 125.6 20.2 127.6 9.89999 137.8C-0.400006 148 -2.50001 163.8 4.69999 176.4L50.5 256.5L4.69999 336.6C-2.50001 349.2 -0.300006 365 9.99999 375.2C20.3 385.4 36.1 387.4 48.7 380.1L141.8 325.8C153.6 338.1 167.2 350.6 182.5 362.1C198 373.7 215.5 384.6 234.9 393.6L225.2 442.2C222.6 455.2 228.3 468.5 239.5 475.5C250.7 482.5 265.1 482 275.8 474L353.4 415.8C408.3 411.8 454.9 388.8 490.6 362C529.8 332.6 557.8 297.3 572.2 272.5C578 262.6 578 250.3 572.2 240.4C557.8 215.6 529.7 180.3 490.6 150.9C454.8 124.1 408.3 101.1 353.4 97.1L275.7 38.9ZM384.5 256.5C384.5 248.013 387.871 239.874 393.873 233.873C399.874 227.871 408.013 224.5 416.5 224.5C424.987 224.5 433.126 227.871 439.127 233.873C445.129 239.874 448.5 248.013 448.5 256.5C448.5 264.987 445.129 273.126 439.127 279.127C433.126 285.129 424.987 288.5 416.5 288.5C408.013 288.5 399.874 285.129 393.873 279.127C387.871 273.126 384.5 264.987 384.5 256.5Z" fill="#47535F"/>
</g>
<defs>
<clipPath id="clip0_104_1412">
<rect width="576" height="512" fill="white" transform="translate(0.5 0.5)"/>
</clipPath>
</defs>
</svg>
