<svg width="577" height="513" viewBox="0 0 577 513" fill="none" xmlns="http://www.w3.org/2000/svg">
<g clip-path="url(#clip0_104_1410)">
<path d="M181 142C220.2 109 273.1 80.5 336.5 80.5C399.9 80.5 452.8 109 492 142C531.1 175 558.9 214.4 573 241.8C577.7 251 577.7 261.9 573 271.1C558.9 298.5 531.1 337.9 492 370.9C452.8 404 399.9 432.5 336.5 432.5C273.1 432.5 220.2 404 181 371C164.8 357.3 150.5 342.5 138.3 327.9L48.6 380.1C36.1 387.4 20.2 385.4 9.89999 375.2C-0.400006 365 -2.50001 349.2 4.69999 336.6L50.5 256.5L4.69999 176.4C-2.50001 163.8 -0.300006 148 9.99999 137.8C20.3 127.6 36.1 125.6 48.7 132.9L138.4 185.2C150.6 170.6 164.9 155.8 181.1 142.1L181 142ZM448.5 256.5C448.5 248.013 445.129 239.874 439.127 233.873C433.126 227.871 424.987 224.5 416.5 224.5C408.013 224.5 399.874 227.871 393.873 233.873C387.871 239.874 384.5 248.013 384.5 256.5C384.5 264.987 387.871 273.126 393.873 279.127C399.874 285.129 408.013 288.5 416.5 288.5C424.987 288.5 433.126 285.129 439.127 279.127C445.129 273.126 448.5 264.987 448.5 256.5Z" fill="#47535F"/>
</g>
<defs>
<clipPath id="clip0_104_1410">
<rect width="576" height="512" fill="white" transform="translate(0.5 0.5)"/>
</clipPath>
</defs>
</svg>
