<svg width="449" height="513" viewBox="0 0 449 513" fill="none" xmlns="http://www.w3.org/2000/svg">
<g clip-path="url(#clip0_104_1414)">
<path d="M64.5 32.5C64.5 14.8 50.2 0.5 32.5 0.5C14.8 0.5 0.5 14.8 0.5 32.5V64.5V368.5V480.5C0.5 498.2 14.8 512.5 32.5 512.5C50.2 512.5 64.5 498.2 64.5 480.5V352.5L128.8 336.4C169.9 326.1 213.4 330.9 251.3 349.8C295.5 371.9 346.8 374.6 393 357.2L427.7 344.2C440.2 339.5 448.5 327.6 448.5 314.2V66.6C448.5 43.6 424.3 28.6 403.7 38.9L394.1 43.7C347.8 66.9 293.3 66.9 247 43.7C211.9 26.1 171.6 21.7 133.5 31.2L64.5 48.5V32.5Z" fill="#47535F"/>
</g>
<defs>
<clipPath id="clip0_104_1414">
<rect width="448" height="512" fill="white" transform="translate(0.5 0.5)"/>
</clipPath>
</defs>
</svg>
