<svg width="449" height="513" viewBox="0 0 449 513" fill="none" xmlns="http://www.w3.org/2000/svg">
<g clip-path="url(#clip0_104_1416)">
<path d="M32.5 0.5C50.2 0.5 64.5 14.8 64.5 32.5V48.5L133.5 31.3C171.6 21.8 211.8 26.2 247 43.8C293.3 67 347.8 67 394.1 43.8L403.7 39C424.3 28.6 448.5 43.6 448.5 66.6V346.3C448.5 359.6 440.2 371.6 427.7 376.3L393 389.3C346.8 406.6 295.4 403.9 251.3 381.9C213.4 362.9 170 358.2 128.8 368.5L64.5 384.5V480.5C64.5 498.2 50.2 512.5 32.5 512.5C14.8 512.5 0.5 498.2 0.5 480.5V400.5V334.5V64.5V32.5C0.5 14.8 14.8 0.5 32.5 0.5ZM64.5 187.6L128.5 173.7V239.2L64.5 253.1V318.5L113.3 306.3C118.4 305 123.4 303.9 128.5 303V239.2L167.4 230.8C175.7 229 184.1 228.3 192.5 228.7V164.7C206.1 165.1 219.7 167.3 232.9 171.1L256.5 178V244.7L214.8 232.4C207.5 230.3 200 229 192.5 228.6V300C214.3 301.9 235.8 306.7 256.5 314.4V244.7L279.2 251.4C292.7 255.4 306.5 257.8 320.5 258.8V194.5C312.7 193.7 304.9 192.2 297.3 190L256.5 178V116C243.5 112.2 230.7 107.2 218.3 101C210.1 96.9 201.4 94 192.5 92.2V164.6C179.5 164.2 166.5 165.4 153.8 168.2L128.5 173.7V98.5L64.5 114.5V187.6ZM320.5 336.2C337.3 337.7 354.4 335.5 370.5 329.4L384.5 324.2V252.4L376.6 254.2C358.2 258.5 339.3 259.9 320.5 258.7V336.1V336.2ZM384.5 186.8V115.9C363.6 122 342.1 125 320.5 125V194.5C334.4 195.9 348.5 195 362.2 191.9L384.5 186.7V186.8Z" fill="#47535F"/>
</g>
<defs>
<clipPath id="clip0_104_1416">
<rect width="448" height="512" fill="white" transform="translate(0.5 0.5)"/>
</clipPath>
</defs>
</svg>
