<svg width="449" height="513" viewBox="0 0 449 513" fill="none" xmlns="http://www.w3.org/2000/svg">
<g clip-path="url(#clip0_104_1418)">
<path d="M32.5 0.5C50.2 0.5 64.5 14.8 64.5 32.5V48.5L133.5 31.3C171.6 21.8 211.8 26.2 247 43.8C293.3 67 347.8 67 394.1 43.8L403.7 39C424.3 28.6 448.5 43.6 448.5 66.6V102.7L403.8 118.9C361 134.5 313.8 132.8 272.2 114.3L256.1 107.1C235.8 98.1 214.3 92.4 192.5 90.2V122.4C209.9 124.5 226.9 129.1 243.1 136.3L259.2 143.5C308.4 165.4 364.2 167.3 414.8 148.9L448.5 136.8V198.8L403.8 215C361 230.6 313.8 228.9 272.2 210.4L256.1 203.2C215.9 185.3 171.1 180.7 128 189.9L64.5 203.6V236.3L134.7 221.2C171.1 213.4 209 217.3 243.1 232.5L259.2 239.7C308.4 261.6 364.2 263.5 414.8 245.1L448.5 232.8V294.8L403.8 311C361 326.6 313.8 324.9 272.2 306.4L256.1 299.2C215.9 281.3 171.1 276.7 128 285.9L64.5 299.6V332.3L134.7 317.2C171.1 309.4 209 313.3 243.1 328.5L259.2 335.7C308.4 357.6 364.2 359.5 414.8 341.1L448.5 328.8V362.3C448.5 375.6 440.2 387.6 427.7 392.3L393 405.3C346.8 422.6 295.4 419.9 251.3 397.9C213.4 378.9 170 374.2 128.8 384.5L64.5 400.5V480.5C64.5 498.2 50.2 512.5 32.5 512.5C14.8 512.5 0.5 498.2 0.5 480.5V416.5V346V313.3V250V217.3V154V121.3V64.5V32.5C0.5 14.8 14.8 0.5 32.5 0.5ZM112.5 96.5C112.5 92.2565 110.814 88.1869 107.814 85.1863C104.813 82.1857 100.743 80.5 96.5 80.5C92.2565 80.5 88.1869 82.1857 85.1863 85.1863C82.1857 88.1869 80.5 92.2565 80.5 96.5C80.5 100.743 82.1857 104.813 85.1863 107.814C88.1869 110.814 92.2565 112.5 96.5 112.5C100.743 112.5 104.813 110.814 107.814 107.814C110.814 104.813 112.5 100.743 112.5 96.5ZM144.5 96.5C148.743 96.5 152.813 94.8143 155.814 91.8137C158.814 88.8131 160.5 84.7435 160.5 80.5C160.5 76.2565 158.814 72.1869 155.814 69.1863C152.813 66.1857 148.743 64.5 144.5 64.5C140.257 64.5 136.187 66.1857 133.186 69.1863C130.186 72.1869 128.5 76.2565 128.5 80.5C128.5 84.7435 130.186 88.8131 133.186 91.8137C136.187 94.8143 140.257 96.5 144.5 96.5ZM112.5 144.5C112.5 140.257 110.814 136.187 107.814 133.186C104.813 130.186 100.743 128.5 96.5 128.5C92.2565 128.5 88.1869 130.186 85.1863 133.186C82.1857 136.187 80.5 140.257 80.5 144.5C80.5 148.743 82.1857 152.813 85.1863 155.814C88.1869 158.814 92.2565 160.5 96.5 160.5C100.743 160.5 104.813 158.814 107.814 155.814C110.814 152.813 112.5 148.743 112.5 144.5ZM144.5 144.5C148.743 144.5 152.813 142.814 155.814 139.814C158.814 136.813 160.5 132.743 160.5 128.5C160.5 124.257 158.814 120.187 155.814 117.186C152.813 114.186 148.743 112.5 144.5 112.5C140.257 112.5 136.187 114.186 133.186 117.186C130.186 120.187 128.5 124.257 128.5 128.5C128.5 132.743 130.186 136.813 133.186 139.814C136.187 142.814 140.257 144.5 144.5 144.5Z" fill="#47535F"/>
</g>
<defs>
<clipPath id="clip0_104_1418">
<rect width="448" height="512" fill="white" transform="translate(0.5 0.5)"/>
</clipPath>
</defs>
</svg>
