<svg width="449" height="513" viewBox="0 0 449 513" fill="none" xmlns="http://www.w3.org/2000/svg">
<g clip-path="url(#clip0_104_1420)">
<path d="M288.5 0.5H160.5H128.5C110.8 0.5 96.5 14.8 96.5 32.5C96.5 50.2 110.8 64.5 128.5 64.5V197.3C128.5 209.1 125.2 220.8 119 230.8L10.8 406.7C4.1 417.7 0.5 430.2 0.5 443.1C0.5 481.4 31.6 512.5 69.9 512.5H379.1C417.4 512.5 448.5 481.4 448.5 443.1C448.5 430.3 444.9 417.7 438.2 406.7L330 230.9C323.8 220.8 320.5 209.2 320.5 197.4V64.5C338.2 64.5 352.5 50.2 352.5 32.5C352.5 14.8 338.2 0.5 320.5 0.5H288.5ZM192.5 197.3V64.5H256.5V197.3C256.5 221 263.1 244.2 275.5 264.4L310 320.5H139L173.5 264.4C185.9 244.2 192.5 221 192.5 197.3Z" fill="#47535F"/>
</g>
<defs>
<clipPath id="clip0_104_1420">
<rect width="448" height="512" fill="white" transform="translate(0.5 0.5)"/>
</clipPath>
</defs>
</svg>
