<svg width="449" height="513" viewBox="0 0 449 513" fill="none" xmlns="http://www.w3.org/2000/svg">
<g clip-path="url(#clip0_104_1424)">
<path d="M64.5 32.5C29.2 32.5 0.5 61.2 0.5 96.5V416.5C0.5 451.8 29.2 480.5 64.5 480.5H384.5C419.8 480.5 448.5 451.8 448.5 416.5V173.8C448.5 156.8 441.8 140.5 429.8 128.5L352.5 51.2C340.5 39.2 324.2 32.5 307.2 32.5H64.5ZM64.5 128.5C64.5 110.8 78.8 96.5 96.5 96.5H288.5C306.2 96.5 320.5 110.8 320.5 128.5V192.5C320.5 210.2 306.2 224.5 288.5 224.5H96.5C78.8 224.5 64.5 210.2 64.5 192.5V128.5ZM224.5 288.5C241.474 288.5 257.752 295.243 269.755 307.245C281.757 319.248 288.5 335.526 288.5 352.5C288.5 369.474 281.757 385.752 269.755 397.755C257.752 409.757 241.474 416.5 224.5 416.5C207.526 416.5 191.247 409.757 179.245 397.755C167.243 385.752 160.5 369.474 160.5 352.5C160.5 335.526 167.243 319.248 179.245 307.245C191.247 295.243 207.526 288.5 224.5 288.5Z" fill="#47535F"/>
</g>
<defs>
<clipPath id="clip0_104_1424">
<rect width="448" height="512" fill="white" transform="translate(0.5 0.5)"/>
</clipPath>
</defs>
</svg>
