<svg width="385" height="513" viewBox="0 0 385 513" fill="none" xmlns="http://www.w3.org/2000/svg">
<g clip-path="url(#clip0_104_1426)">
<path d="M315.2 32.5C276.4 32.5 241.5 55.8 226.6 91.6L171.2 224.5H64.5C46.8 224.5 32.5 238.8 32.5 256.5C32.5 274.2 46.8 288.5 64.5 288.5H144.5L99.4 396.8C94.4 408.7 82.8 416.5 69.9 416.5H32.5C14.8 416.5 0.5 430.8 0.5 448.5C0.5 466.2 14.8 480.5 32.5 480.5H69.8C108.6 480.5 143.5 457.2 158.4 421.4L213.8 288.5H320.5C338.2 288.5 352.5 274.2 352.5 256.5C352.5 238.8 338.2 224.5 320.5 224.5H240.5L285.6 116.2C290.6 104.3 302.2 96.5 315.1 96.5H352.5C370.2 96.5 384.5 82.2 384.5 64.5C384.5 46.8 370.2 32.5 352.5 32.5H315.2Z" fill="#47535F"/>
</g>
<defs>
<clipPath id="clip0_104_1426">
<rect width="384" height="512" fill="white" transform="translate(0.5 0.5)"/>
</clipPath>
</defs>
</svg>
