<svg width="577" height="513" viewBox="0 0 577 513" fill="none" xmlns="http://www.w3.org/2000/svg">
<g clip-path="url(#clip0_104_1434)">
<path d="M89.2 224.3L0.5 376.3V96.5C0.5 61.2 29.2 32.5 64.5 32.5H182C199 32.5 215.3 39.2 227.3 51.2L253.8 77.7C265.8 89.7 282.1 96.4 299.1 96.4H416.5C451.8 96.4 480.5 125.1 480.5 160.4V192.4H144.5C121.7 192.4 100.7 204.5 89.2 224.2V224.3ZM116.8 240.4C122.6 230.5 133.1 224.5 144.5 224.5H544.5C556 224.5 566.5 230.6 572.2 240.6C577.9 250.6 577.9 262.8 572.1 272.7L460.1 464.7C454.4 474.5 443.9 480.5 432.5 480.5H32.5C21 480.5 10.5 474.4 4.8 464.4C-0.9 454.4 -0.9 442.2 4.9 432.3L116.9 240.3L116.8 240.4Z" fill="#47535F"/>
</g>
<defs>
<clipPath id="clip0_104_1434">
<rect width="576" height="512" fill="white" transform="translate(0.5 0.5)"/>
</clipPath>
</defs>
</svg>
