<svg width="513" height="513" viewBox="0 0 513 513" fill="none" xmlns="http://www.w3.org/2000/svg">
<g clip-path="url(#clip0_104_1432)">
<path d="M448.5 480.5H64.5C29.2 480.5 0.5 451.8 0.5 416.5V96.5C0.5 61.2 29.2 32.5 64.5 32.5H192.5C212.6 32.5 231.6 42 243.7 58.1L262.9 83.7C268.9 91.8 278.4 96.5 288.5 96.5H448.5C483.8 96.5 512.5 125.2 512.5 160.5V416.5C512.5 451.8 483.8 480.5 448.5 480.5ZM184.5 272.5C171.2 272.5 160.5 283.2 160.5 296.5C160.5 309.8 171.2 320.5 184.5 320.5H328.5C341.8 320.5 352.5 309.8 352.5 296.5C352.5 283.2 341.8 272.5 328.5 272.5H184.5Z" fill="#47535F"/>
</g>
<defs>
<clipPath id="clip0_104_1432">
<rect width="512" height="512" fill="white" transform="translate(0.5 0.5)"/>
</clipPath>
</defs>
</svg>
