<svg width="513" height="513" viewBox="0 0 513 513" fill="none" xmlns="http://www.w3.org/2000/svg">
<g clip-path="url(#clip0_104_1436)">
<path d="M512.5 416.5C512.5 451.8 483.8 480.5 448.5 480.5H64.5C29.2 480.5 0.5 451.8 0.5 416.5V96.5C0.5 61.2 29.2 32.5 64.5 32.5H192.5C212.6 32.5 231.6 42 243.7 58.1L262.9 83.7C268.9 91.8 278.4 96.5 288.5 96.5H448.5C483.8 96.5 512.5 125.2 512.5 160.5V416.5ZM232.5 376.5C232.5 389.8 243.2 400.5 256.5 400.5C269.8 400.5 280.5 389.8 280.5 376.5V312.5H344.5C357.8 312.5 368.5 301.8 368.5 288.5C368.5 275.2 357.8 264.5 344.5 264.5H280.5V200.5C280.5 187.2 269.8 176.5 256.5 176.5C243.2 176.5 232.5 187.2 232.5 200.5V264.5H168.5C155.2 264.5 144.5 275.2 144.5 288.5C144.5 301.8 155.2 312.5 168.5 312.5H232.5V376.5Z" fill="#47535F"/>
</g>
<defs>
<clipPath id="clip0_104_1436">
<rect width="512" height="512" fill="white" transform="translate(0.5 0.5)"/>
</clipPath>
</defs>
</svg>
