<svg width="449" height="513" viewBox="0 0 449 513" fill="none" xmlns="http://www.w3.org/2000/svg">
<g clip-path="url(#clip0_104_1440)">
<path d="M254.5 53.3C249.8 40.8 237.8 32.5 224.5 32.5C211.2 32.5 199.2 40.8 194.5 53.3L58.3 416.5H32.5C14.8 416.5 0.5 430.8 0.5 448.5C0.5 466.2 14.8 480.5 32.5 480.5H128.5C146.2 480.5 160.5 466.2 160.5 448.5C160.5 430.8 146.2 416.5 128.5 416.5H126.7L144.7 368.5H304.3L322.3 416.5H320.5C302.8 416.5 288.5 430.8 288.5 448.5C288.5 466.2 302.8 480.5 320.5 480.5H416.5C434.2 480.5 448.5 466.2 448.5 448.5C448.5 430.8 434.2 416.5 416.5 416.5H390.7L254.5 53.3ZM280.3 304.5H168.7L224.5 155.6L280.3 304.5Z" fill="#47535F"/>
</g>
<defs>
<clipPath id="clip0_104_1440">
<rect width="448" height="512" fill="white" transform="translate(0.5 0.5)"/>
</clipPath>
</defs>
</svg>
