<svg width="449" height="513" viewBox="0 0 449 513" fill="none" xmlns="http://www.w3.org/2000/svg">
<g clip-path="url(#clip0_104_1442)">
<path d="M448.5 48.5V384.5C385.4 407 366.2 416.5 329 416.5C266.2 416.5 242.4 384.5 179.7 384.5C159.1 384.5 143.1 388.1 128.5 392.7V328.7C143.1 324.1 159.1 320.5 179.7 320.5C242.4 320.5 266.2 352.5 329 352.5C349.4 352.5 364.6 349.5 384.5 343.2V135.2C364.6 141.5 349.4 144.5 329 144.5C266.2 144.5 242.4 112.5 179.7 112.5C128.9 112.5 104.8 133.1 64.5 141.2V448.5C64.5 466.2 50.2 480.5 32.5 480.5C14.8 480.5 0.5 466.2 0.5 448.5V64.5C0.5 46.8 14.8 32.5 32.5 32.5C50.2 32.5 64.5 46.8 64.5 64.5V77.2C104.8 69.2 128.9 48.5 179.7 48.5C242.4 48.5 266.2 80.5 329 80.5C366.1 80.5 385.4 71 448.5 48.5Z" fill="#47535F"/>
</g>
<defs>
<clipPath id="clip0_104_1442">
<rect width="448" height="512" fill="white" transform="translate(0.5 0.5)"/>
</clipPath>
</defs>
</svg>
