<svg width="513" height="513" viewBox="0 0 513 513" fill="none" xmlns="http://www.w3.org/2000/svg">
<path d="M248 25.9C234.5 29.2 221.6 33.1 209.4 37.6C143.4 62.1 97.1999 104.1 66.4999 154.1C48.1999 183.9 35.5999 216.4 27.2999 249.5L265 487.1C278.5 483.8 291.4 479.9 303.6 475.4C369.6 450.9 415.8 408.9 446.5 358.9C464.8 329.1 477.4 296.6 485.6 263.6L248 25.9ZM495.7 205.8C501.8 149 497.1 93.6 488 49.4C485.3 36.5 475 26.5 461.9 24.3C403.7 14.6 352 12.3 306.3 16.4L495.7 205.8ZM206.6 496.5L17.2999 307.2C11.1999 364 15.8999 419.4 24.9999 463.6C27.6999 476.5 37.9999 486.5 51.0999 488.7C109.3 498.4 161 500.7 206.7 496.6L206.6 496.5ZM261.2 165.2C267.4 159 277.6 159 283.8 165.2L347.8 229.2C354 235.4 354 245.6 347.8 251.8C341.6 258 331.4 258 325.2 251.8L261.2 187.8C255 181.6 255 171.4 261.2 165.2ZM213.2 213.2C219.4 207 229.6 207 235.8 213.2L299.8 277.2C306 283.4 306 293.6 299.8 299.8C293.6 306 283.4 306 277.2 299.8L213.2 235.8C207 229.6 207 219.4 213.2 213.2ZM165.2 261.2C171.4 255 181.6 255 187.8 261.2L251.8 325.2C258 331.4 258 341.6 251.8 347.8C245.6 354 235.4 354 229.2 347.8L165.2 283.8C159 277.6 159 267.4 165.2 261.2Z" fill="#47535F"/>
</svg>
