<svg width="513" height="513" viewBox="0 0 513 513" fill="none" xmlns="http://www.w3.org/2000/svg">
<g clip-path="url(#clip0_104_1448)">
<path d="M18.9 445.5C30.1 450.8 43.4 449.1 53 441.1L224.5 298.2V416.5C224.5 428.9 231.7 440.2 242.9 445.5C254.1 450.8 267.4 449.1 277 441.1L448.5 298.2V416.5C448.5 434.2 462.8 448.5 480.5 448.5C498.2 448.5 512.5 434.2 512.5 416.5V96.5C512.5 78.8 498.2 64.5001 480.5 64.5001C462.8 64.5001 448.5 78.8 448.5 96.5V214.8L277 71.9001C267.5 64.0001 254.2 62.2001 242.9 67.5001C231.6 72.8001 224.5 84.1 224.5 96.5V214.8L53 71.9001C43.5 64.0001 30.2 62.2001 18.9 67.5001C7.6 72.8001 0.5 84.1 0.5 96.5V416.5C0.5 428.9 7.7 440.2 18.9 445.5Z" fill="#47535F"/>
</g>
<defs>
<clipPath id="clip0_104_1448">
<rect width="512" height="512" fill="white" transform="translate(0.5 0.5)"/>
</clipPath>
</defs>
</svg>
