<svg width="321" height="513" viewBox="0 0 321 513" fill="none" xmlns="http://www.w3.org/2000/svg">
<g clip-path="url(#clip0_104_1450)">
<path d="M53 441.1C43.5 449 30.2 450.8 18.9 445.5C7.6 440.2 0.5 428.9 0.5 416.5V96.5C0.5 84.1 7.7 72.8 18.9 67.5C30.1 62.2 43.4 63.9 53 71.9L245 231.9L256.5 241.5V96.5C256.5 78.8 270.8 64.5 288.5 64.5C306.2 64.5 320.5 78.8 320.5 96.5V416.5C320.5 434.2 306.2 448.5 288.5 448.5C270.8 448.5 256.5 434.2 256.5 416.5V271.5L245 281.1L53 441.1Z" fill="#47535F"/>
</g>
<defs>
<clipPath id="clip0_104_1450">
<rect width="320" height="512" fill="white" transform="translate(0.5 0.5)"/>
</clipPath>
</defs>
</svg>
