<svg width="513" height="513" viewBox="0 0 513 513" fill="none" xmlns="http://www.w3.org/2000/svg">
<g clip-path="url(#clip0_104_1446)">
<path d="M53 441.1C43.5 449 30.2 450.8 18.9 445.5C7.6 440.2 0.5 428.9 0.5 416.5V96.5C0.5 84.1 7.7 72.8 18.9 67.5C30.1 62.2 43.4 63.9 53 71.9L224.5 214.8V256.5V298.2L53 441.1ZM256.5 352.5V256.5V128.5V96.5C256.5 84.1 263.7 72.8 274.9 67.5C286.1 62.2 299.4 63.9 309 71.9L501 231.9C508.3 238 512.5 247 512.5 256.5C512.5 266 508.3 275 501 281.1L309 441.1C299.5 449 286.2 450.8 274.9 445.5C263.6 440.2 256.5 428.9 256.5 416.5V352.5Z" fill="#47535F"/>
</g>
<defs>
<clipPath id="clip0_104_1446">
<rect width="512" height="512" fill="white" transform="translate(0.5 0.5)"/>
</clipPath>
</defs>
</svg>
