<svg width="321" height="513" viewBox="0 0 321 513" fill="none" xmlns="http://www.w3.org/2000/svg">
<g clip-path="url(#clip0_104_1452)">
<path d="M80.5 32.5C62.8 32.5 48.5 46.8 48.5 64.5V224.5V320.5H32.5C14.8 320.5 0.5 334.8 0.5 352.5C0.5 370.2 14.8 384.5 32.5 384.5H48.5V448.5C48.5 466.2 62.8 480.5 80.5 480.5C98.2 480.5 112.5 466.2 112.5 448.5V384.5H192.5C210.2 384.5 224.5 370.2 224.5 352.5C224.5 334.8 210.2 320.5 192.5 320.5H112.5V256.5H256.5C274.2 256.5 288.5 242.2 288.5 224.5C288.5 206.8 274.2 192.5 256.5 192.5H112.5V96.5H288.5C306.2 96.5 320.5 82.2 320.5 64.5C320.5 46.8 306.2 32.5 288.5 32.5H80.5Z" fill="#47535F"/>
</g>
<defs>
<clipPath id="clip0_104_1452">
<rect width="320" height="512" fill="white" transform="translate(0.5 0.5)"/>
</clipPath>
</defs>
</svg>
