<svg width="577" height="513" viewBox="0 0 577 513" fill="none" xmlns="http://www.w3.org/2000/svg">
<g clip-path="url(#clip0_104_1454)">
<path d="M368.5 32.5C410.2 32.5 444.4 64.3 448.2 105L533.8 131.3C559.2 139.1 576.6 162.6 576.6 189.2C576.6 211 564.9 231.1 545.9 241.9L401.3 324L493.8 416.5H544.5C562.2 416.5 576.5 430.8 576.5 448.5C576.5 466.2 562.2 480.5 544.5 480.5H480.5C472 480.5 463.9 477.1 457.9 471.1L347.4 360.7C359.1 324.7 350.6 283.6 322 255C281.4 214.4 215.7 214.4 175.1 254.9L101.5 324.9C95.1 331 94.8 341.1 100.9 347.5C107 353.9 117.1 354.1 123.5 348.1L197.3 277.9L197.4 277.8L197.5 277.7C201 274.2 204.8 271.1 208.8 268.5C236.7 250 274.7 253.1 299.3 277.7C324 302.4 327 340.6 308.3 368.6C305.7 372.4 302.7 376.1 299.3 379.5L262.3 416.5H352.5C370.2 416.5 384.5 430.8 384.5 448.5C384.5 466.2 370.2 480.5 352.5 480.5H64.5C29.2 480.5 0.5 451.8 0.5 416.5C0.5 250.1 127.5 113.4 289.8 98C296.7 60.7 329.3 32.5 368.5 32.5ZM368.5 136.5C371.652 136.5 374.773 135.879 377.684 134.673C380.596 133.467 383.242 131.699 385.471 129.471C387.699 127.242 389.467 124.596 390.673 121.684C391.879 118.773 392.5 115.652 392.5 112.5C392.5 109.348 391.879 106.227 390.673 103.316C389.467 100.404 387.699 97.758 385.471 95.5294C383.242 93.3008 380.596 91.533 377.684 90.3269C374.773 89.1208 371.652 88.5 368.5 88.5C365.348 88.5 362.227 89.1208 359.316 90.3269C356.404 91.533 353.758 93.3008 351.529 95.5294C349.301 97.758 347.533 100.404 346.327 103.316C345.121 106.227 344.5 109.348 344.5 112.5C344.5 115.652 345.121 118.773 346.327 121.684C347.533 124.596 349.301 127.242 351.529 129.471C353.758 131.699 356.404 133.467 359.316 134.673C362.227 135.879 365.348 136.5 368.5 136.5Z" fill="#47535F"/>
</g>
<defs>
<clipPath id="clip0_104_1454">
<rect width="576" height="512" fill="white" transform="translate(0.5 0.5)"/>
</clipPath>
</defs>
</svg>
