<svg width="513" height="513" viewBox="0 0 513 513" fill="none" xmlns="http://www.w3.org/2000/svg">
<g clip-path="url(#clip0_104_1456)">
<path d="M417.8 360.6L346.2 355.8C341 355.5 335.9 356.9 331.7 360C327.5 363.1 324.5 367.4 323.3 372.5L305.7 442.1C290 446.3 273.5 448.5 256.5 448.5C239.5 448.5 223 446.3 207.3 442.1L189.7 372.5C188.4 367.5 185.4 363.1 181.3 360C177.2 356.9 172 355.5 166.8 355.8L95.2 360.6C77.6 333.4 66.7 301.4 64.8 267L125.5 228.8C129.9 226 133.1 221.8 134.7 216.9C136.3 212 136.1 206.7 134.2 201.9L107.5 135.3C128.5 109.7 155.8 89.5 187.2 77.4L242.4 123.4C246.4 126.7 251.4 128.5 256.5 128.5C261.6 128.5 266.7 126.7 270.6 123.4L325.8 77.4C357.1 89.5 384.5 109.7 405.4 135.3L378.7 201.9C376.8 206.7 376.6 212 378.2 216.9C379.8 221.8 383.1 226 387.4 228.8L448.1 267C446.2 301.4 435.3 333.4 417.7 360.6H417.8ZM256.5 512.5C324.395 512.5 389.51 485.529 437.519 437.519C485.529 389.51 512.5 324.395 512.5 256.5C512.5 188.605 485.529 123.49 437.519 75.4807C389.51 27.4714 324.395 0.5 256.5 0.5C188.605 0.5 123.49 27.4714 75.4807 75.4807C27.4714 123.49 0.5 188.605 0.5 256.5C0.5 324.395 27.4714 389.51 75.4807 437.519C123.49 485.529 188.605 512.5 256.5 512.5ZM270.6 186.8C262.2 180.7 250.8 180.7 242.4 186.8L194.5 221.5C186.1 227.6 182.6 238.4 185.8 248.3L204.1 304.6C207.3 314.5 216.5 321.2 226.9 321.2H286.1C296.5 321.2 305.7 314.5 308.9 304.6L327.2 248.3C330.4 238.4 326.9 227.6 318.5 221.5L270.6 186.7V186.8Z" fill="#47535F"/>
</g>
<defs>
<clipPath id="clip0_104_1456">
<rect width="512" height="512" fill="white" transform="translate(0.5 0.5)"/>
</clipPath>
</defs>
</svg>
