<svg width="449" height="513" viewBox="0 0 449 513" fill="none" xmlns="http://www.w3.org/2000/svg">
<g clip-path="url(#clip0_104_1458)">
<path d="M224.5 96.5C136.1 96.5 64.5 168.1 64.5 256.5C64.5 344.9 136.1 416.5 224.5 416.5C301.9 416.5 366.5 361.5 381.3 288.5H256.5C238.8 288.5 224.5 274.2 224.5 256.5C224.5 238.8 238.8 224.5 256.5 224.5H400.5C426.3 224.5 450.1 245.9 447.7 275.1C438.3 390.1 341.9 480.5 224.5 480.5C100.8 480.5 0.5 380.2 0.5 256.5C0.5 132.8 100.8 32.5 224.5 32.5C281.9 32.5 334.2 54.1 373.8 89.5C387 101.3 388.1 121.5 376.3 134.7C364.5 147.9 344.3 149 331.1 137.2C302.8 111.9 265.5 96.5 224.5 96.5Z" fill="#47535F"/>
</g>
<defs>
<clipPath id="clip0_104_1458">
<rect width="448" height="512" fill="white" transform="translate(0.5 0.5)"/>
</clipPath>
</defs>
</svg>
