<svg width="513" height="513" viewBox="0 0 513 513" fill="none" xmlns="http://www.w3.org/2000/svg">
<g clip-path="url(#clip0_104_1462)">
<path d="M32.5 64.5C32.5 29.2 61.2 0.5 96.5 0.5H256.5C291.8 0.5 320.5 29.2 320.5 64.5V256.5H328.5C377.1 256.5 416.5 295.9 416.5 344.5V376.5C416.5 389.8 427.2 400.5 440.5 400.5C453.8 400.5 464.5 389.8 464.5 376.5V222.5C436.9 215.4 416.5 190.3 416.5 160.5V96.5L384.5 64.5C375.7 55.7 375.7 41.3 384.5 32.5C393.3 23.7 407.7 23.7 416.5 32.5L493.8 109.8C505.8 121.8 512.5 138.1 512.5 155.1V168.5V192.5V224.5V376.5C512.5 416.3 480.3 448.5 440.5 448.5C400.7 448.5 368.5 416.3 368.5 376.5V344.5C368.5 322.4 350.6 304.5 328.5 304.5H320.5V448.5C338.2 448.5 352.5 462.8 352.5 480.5C352.5 498.2 338.2 512.5 320.5 512.5H32.5C14.8 512.5 0.5 498.2 0.5 480.5C0.5 462.8 14.8 448.5 32.5 448.5V64.5ZM96.5 80.5V176.5C96.5 185.3 103.7 192.5 112.5 192.5H240.5C249.3 192.5 256.5 185.3 256.5 176.5V80.5C256.5 71.7 249.3 64.5 240.5 64.5H112.5C103.7 64.5 96.5 71.7 96.5 80.5Z" fill="#47535F"/>
</g>
<defs>
<clipPath id="clip0_104_1462">
<rect width="512" height="512" fill="white" transform="translate(0.5 0.5)"/>
</clipPath>
</defs>
</svg>
