<svg width="513" height="513" viewBox="0 0 513 513" fill="none" xmlns="http://www.w3.org/2000/svg">
<g clip-path="url(#clip0_104_1466)">
<path d="M0.5 256.5C0.5 188.605 27.4714 123.49 75.4807 75.4807C123.49 27.4714 188.605 0.5 256.5 0.5C324.395 0.5 389.51 27.4714 437.519 75.4807C485.529 123.49 512.5 188.605 512.5 256.5C512.5 324.395 485.529 389.51 437.519 437.519C389.51 485.529 324.395 512.5 256.5 512.5C188.605 512.5 123.49 485.529 75.4807 437.519C27.4714 389.51 0.5 324.395 0.5 256.5ZM288.5 96.5C288.5 88.0131 285.129 79.8737 279.127 73.8726C273.126 67.8714 264.987 64.5 256.5 64.5C248.013 64.5 239.874 67.8714 233.873 73.8726C227.871 79.8737 224.5 88.0131 224.5 96.5C224.5 104.987 227.871 113.126 233.873 119.127C239.874 125.129 248.013 128.5 256.5 128.5C264.987 128.5 273.126 125.129 279.127 119.127C285.129 113.126 288.5 104.987 288.5 96.5ZM256.5 416.5C291.8 416.5 320.5 387.8 320.5 352.5C320.5 335.1 313.6 319.4 302.4 307.9L366.5 162.2C371.8 150.1 366.3 135.9 354.2 130.6C342.1 125.3 327.9 130.8 322.6 142.9L258.4 288.5C257.8 288.5 257.1 288.5 256.5 288.5C221.2 288.5 192.5 317.2 192.5 352.5C192.5 387.8 221.2 416.5 256.5 416.5ZM176.5 144.5C176.5 136.013 173.129 127.874 167.127 121.873C161.126 115.871 152.987 112.5 144.5 112.5C136.013 112.5 127.874 115.871 121.873 121.873C115.871 127.874 112.5 136.013 112.5 144.5C112.5 152.987 115.871 161.126 121.873 167.127C127.874 173.129 136.013 176.5 144.5 176.5C152.987 176.5 161.126 173.129 167.127 167.127C173.129 161.126 176.5 152.987 176.5 144.5ZM96.5 288.5C104.987 288.5 113.126 285.129 119.127 279.127C125.129 273.126 128.5 264.987 128.5 256.5C128.5 248.013 125.129 239.874 119.127 233.873C113.126 227.871 104.987 224.5 96.5 224.5C88.0131 224.5 79.8737 227.871 73.8726 233.873C67.8714 239.874 64.5 248.013 64.5 256.5C64.5 264.987 67.8714 273.126 73.8726 279.127C79.8737 285.129 88.0131 288.5 96.5 288.5ZM448.5 256.5C448.5 248.013 445.129 239.874 439.127 233.873C433.126 227.871 424.987 224.5 416.5 224.5C408.013 224.5 399.874 227.871 393.873 233.873C387.871 239.874 384.5 248.013 384.5 256.5C384.5 264.987 387.871 273.126 393.873 279.127C399.874 285.129 408.013 288.5 416.5 288.5C424.987 288.5 433.126 285.129 439.127 279.127C445.129 273.126 448.5 264.987 448.5 256.5Z" fill="#47535F"/>
</g>
<defs>
<clipPath id="clip0_104_1466">
<rect width="512" height="512" fill="white" transform="translate(0.5 0.5)"/>
</clipPath>
</defs>
</svg>
