<svg width="513" height="513" viewBox="0 0 513 513" fill="none" xmlns="http://www.w3.org/2000/svg">
<g clip-path="url(#clip0_104_1472)">
<path d="M319.101 9.90002C306.601 -2.59998 286.301 -2.59998 273.801 9.90002L153.801 129.9C141.301 142.4 141.301 162.7 153.801 175.2L169.801 191.2C182.301 203.7 202.601 203.7 215.101 191.2L219.101 187.2L325.901 293.9L321.901 297.9C309.401 310.4 309.401 330.7 321.901 343.2L337.901 359.2C350.401 371.7 370.701 371.7 383.201 359.2L503.201 239.2C515.701 226.7 515.701 206.4 503.201 193.9L487.201 177.9C474.701 165.4 454.401 165.4 441.901 177.9L437.901 181.9L331.101 75.1L335.101 71.1C347.601 58.6 347.601 38.3 335.101 25.8L319.101 9.80002V9.90002ZM167.101 297.9C154.601 285.4 134.301 285.4 121.801 297.9L9.80078 409.9C-2.69922 422.4 -2.69922 442.7 9.80078 455.2L57.8008 503.2C70.3008 515.7 90.6008 515.7 103.101 503.2L215.101 391.2C227.601 378.7 227.601 358.4 215.101 345.9L213.701 344.5L272.501 285.8L227.201 240.5L168.501 299.2L167.101 297.8V297.9Z" fill="#47535F"/>
</g>
<defs>
<clipPath id="clip0_104_1472">
<rect width="512" height="512" fill="white" transform="translate(0.5 0.5)"/>
</clipPath>
</defs>
</svg>
