<svg width="641" height="513" viewBox="0 0 641 513" fill="none" xmlns="http://www.w3.org/2000/svg">
<path d="M309 135.8C316.1 129.5 318.9 119.6 315.2 110.8C312.9 105.5 310.4 100.3 307.6 95.3L304.5 89.9C301.5 84.9 298.2 80 294.7 75.3C289 67.7 279 65.2 270 68.2L241.8 77.5C231.1 68.7 218.8 61.5 205.6 56.6L199.5 27.6C197.6 18.3 190.4 10.9 181 9.8C174.4 8.9 167.7 8.5 160.9 8.5H160.2C153.4 8.5 146.7 8.9 140.1 9.7C130.7 10.8 123.5 18.3 121.6 27.5L115.5 56.6C102.2 61.6 90.0004 68.7 79.3004 77.5L51.0004 68.3C42.0004 65.3 32.0004 67.8 26.3004 75.4C22.8004 80.1 19.5004 85 16.4004 90L13.4004 95.3C10.6004 100.3 8.10042 105.5 5.80042 110.9C2.10042 119.6 4.90042 129.5 12.0004 135.9L34.2004 155.7C33.1004 162.4 32.5004 169.4 32.5004 176.5C32.5004 183.6 33.1004 190.6 34.2004 197.4L12.0004 217.2C4.90042 223.5 2.10042 233.4 5.80042 242.2C8.10042 247.5 10.6004 252.7 13.4004 257.8L16.4004 263C19.4004 268.1 22.7004 272.9 26.3004 277.6C32.0004 285.2 42.0004 287.7 51.0004 284.7L79.2004 275.4C89.9004 284.2 102.2 291.4 115.4 296.3L121.5 325.4C123.4 334.7 130.6 342.1 140 343.2C146.7 344 153.5 344.4 160.4 344.4C167.3 344.4 174.1 344 180.8 343.2C190.2 342.1 197.4 334.6 199.3 325.4L205.4 296.3C218.7 291.3 230.9 284.2 241.6 275.4L269.8 284.7C278.8 287.7 288.8 285.2 294.5 277.6C298 272.9 301.3 268.1 304.3 263L307.4 257.6C310.2 252.6 312.7 247.4 315 242.1C318.7 233.4 315.9 223.5 308.8 217.1L286.6 197.3C287.7 190.5 288.3 183.5 288.3 176.4C288.3 169.3 287.7 162.3 286.6 155.5L308.8 135.7L309 135.8ZM112.5 176.5C112.5 163.77 117.558 151.561 126.559 142.559C135.561 133.557 147.77 128.5 160.5 128.5C173.231 128.5 185.44 133.557 194.442 142.559C203.443 151.561 208.5 163.77 208.5 176.5C208.5 189.23 203.443 201.439 194.442 210.441C185.44 219.443 173.231 224.5 160.5 224.5C147.77 224.5 135.561 219.443 126.559 210.441C117.558 201.439 112.5 189.23 112.5 176.5ZM505.2 501C511.5 508.1 521.4 510.9 530.2 507.2C535.5 504.9 540.7 502.4 545.7 499.6L551.1 496.5C556.1 493.5 561 490.2 565.7 486.7C573.3 481 575.8 471 572.8 462L563.5 433.8C572.3 423.1 579.5 410.8 584.4 397.6L613.5 391.5C622.8 389.6 630.2 382.4 631.3 373C632.1 366.3 632.5 359.5 632.5 352.6C632.5 345.7 632.1 338.9 631.3 332.2C630.2 322.8 622.7 315.6 613.5 313.7L584.4 307.5C579.4 294.2 572.3 282 563.5 271.3L572.8 243.1C575.8 234.1 573.3 224.1 565.7 218.4C561 214.9 556.1 211.6 551.1 208.5L545.8 205.5C540.8 202.7 535.6 200.2 530.2 197.9C521.5 194.2 511.6 197 505.2 204.1L485.4 226.3C478.6 225.2 471.6 224.6 464.5 224.6C457.4 224.6 450.4 225.2 443.6 226.3L423.8 204.1C417.5 197 407.6 194.2 398.8 197.9C393.5 200.2 388.3 202.7 383.2 205.5L378 208.5C372.9 211.5 368.1 214.8 363.4 218.4C355.8 224.1 353.3 234.1 356.3 243.1L365.6 271.3C356.8 282 349.6 294.3 344.7 307.5L315.6 313.5C306.3 315.4 298.9 322.6 297.8 332C297 338.7 296.6 345.5 296.6 352.4C296.6 359.3 297 366.1 297.8 372.8C298.9 382.2 306.4 389.4 315.6 391.3L344.7 397.4C349.7 410.7 356.8 422.9 365.6 433.6L356.3 461.8C353.3 470.8 355.8 480.8 363.4 486.5C368.1 490 372.9 493.3 378 496.3L383.4 499.4C388.4 502.2 393.6 504.7 398.9 507C407.6 510.7 417.5 507.9 423.9 500.8L443.7 478.6C450.5 479.7 457.5 480.3 464.6 480.3C471.7 480.3 478.7 479.7 485.5 478.6L505.3 500.8L505.2 501ZM464.5 304.5C470.804 304.5 477.046 305.742 482.869 308.154C488.693 310.566 493.984 314.102 498.442 318.559C502.899 323.016 506.434 328.308 508.847 334.131C511.259 339.955 512.5 346.197 512.5 352.5C512.5 358.803 511.259 365.045 508.847 370.869C506.434 376.692 502.899 381.984 498.442 386.441C493.984 390.898 488.693 394.434 482.869 396.846C477.046 399.258 470.804 400.5 464.5 400.5C458.197 400.5 451.955 399.258 446.132 396.846C440.308 394.434 435.017 390.898 430.559 386.441C426.102 381.984 422.566 376.692 420.154 370.869C417.742 365.045 416.5 358.803 416.5 352.5C416.5 346.197 417.742 339.955 420.154 334.131C422.566 328.308 426.102 323.016 430.559 318.559C435.017 314.102 440.308 310.566 446.132 308.154C451.955 305.742 458.197 304.5 464.5 304.5Z" fill="#47535F"/>
</svg>
