<svg width="513" height="513" viewBox="0 0 513 513" fill="none" xmlns="http://www.w3.org/2000/svg">
<g clip-path="url(#clip0_104_1474)">
<path d="M496.4 167.1C499.6 175.8 496.9 185.5 490 191.7L446.7 231.1C447.8 239.4 448.4 247.9 448.4 256.5C448.4 265.1 447.8 273.6 446.7 281.9L490 321.3C496.9 327.5 499.6 337.2 496.4 345.9C492 357.8 486.7 369.2 480.6 380.2L475.9 388.3C469.3 399.3 461.9 409.7 453.8 419.5C447.9 426.7 438.1 429.1 429.3 426.3L373.6 408.6C360.2 418.9 345.4 427.5 329.6 434L317.1 491.1C315.1 500.2 308.1 507.4 298.9 508.9C285.1 511.2 270.9 512.4 256.4 512.4C241.9 512.4 227.7 511.2 213.9 508.9C204.7 507.4 197.7 500.2 195.7 491.1L183.2 434C167.4 427.5 152.6 418.9 139.2 408.6L83.5999 426.4C74.7999 429.2 64.9999 426.7 59.0999 419.6C50.9999 409.8 43.5999 399.4 36.9999 388.4L32.2999 380.3C26.1999 369.3 20.8999 357.9 16.4999 346C13.2999 337.3 15.9999 327.6 22.8999 321.4L66.1999 282C65.0999 273.6 64.4999 265.1 64.4999 256.5C64.4999 247.9 65.0999 239.4 66.1999 231.1L22.8999 191.7C15.9999 185.5 13.2999 175.8 16.4999 167.1C20.8999 155.2 26.1999 143.8 32.2999 132.8L36.9999 124.7C43.5999 113.7 50.9999 103.3 59.0999 93.5C64.9999 86.3 74.7999 83.9 83.5999 86.7L139.3 104.4C152.7 94.1 167.5 85.5 183.3 79L195.8 21.9C197.8 12.8 204.8 5.6 214 4.1C227.8 1.7 242 0.5 256.5 0.5C271 0.5 285.2 1.7 299 4C308.2 5.5 315.2 12.7 317.2 21.8L329.7 78.9C345.5 85.4 360.3 94 373.7 104.3L429.4 86.6C438.2 83.8 448 86.3 453.9 93.4C462 103.2 469.4 113.6 476 124.6L480.7 132.7C486.8 143.7 492.1 155.1 496.5 167L496.4 167.1ZM256.5 336.5C277.717 336.5 298.066 328.071 313.068 313.069C328.071 298.066 336.5 277.717 336.5 256.5C336.5 235.283 328.071 214.934 313.068 199.931C298.066 184.929 277.717 176.5 256.5 176.5C235.283 176.5 214.934 184.929 199.931 199.931C184.928 214.934 176.5 235.283 176.5 256.5C176.5 277.717 184.928 298.066 199.931 313.069C214.934 328.071 235.283 336.5 256.5 336.5Z" fill="#47535F"/>
</g>
<defs>
<clipPath id="clip0_104_1474">
<rect width="512" height="512" fill="white" transform="translate(0.5 0.5)"/>
</clipPath>
</defs>
</svg>
