<svg width="513" height="513" viewBox="0 0 513 513" fill="none" xmlns="http://www.w3.org/2000/svg">
<g clip-path="url(#clip0_104_1478)">
<path d="M117.2 34.3C121.7 28.2 128.9 24.5 136.5 24.5H376.5C384.1 24.5 391.3 28.1 395.8 34.3L507.8 186.3C514.6 195.5 513.9 208.2 506.3 216.7L274.3 472.7C269.8 477.7 263.3 480.6 256.5 480.6C249.7 480.6 243.3 477.7 238.7 472.7L6.70037 216.7C-0.999626 208.2 -1.59963 195.5 5.20037 186.3L117.2 34.3ZM155.7 74.1C152.4 76.6 151.5 81.1 153.6 84.6L211 180.2L63.8004 192.5C59.7004 192.8 56.5004 196.3 56.5004 200.5C56.5004 204.7 59.7004 208.1 63.8004 208.5L255.8 224.5C256.2 224.5 256.7 224.5 257.1 224.5L449.1 208.5C453.2 208.2 456.4 204.7 456.4 200.5C456.4 196.3 453.2 192.9 449.1 192.5L302 180.3L359.4 84.7C361.5 81.2 360.6 76.6 357.3 74.2C354 71.8 349.4 72.2 346.6 75.2L256.5 172.7L166.4 75.1C163.6 72.1 159 71.7 155.7 74.1Z" fill="#47535F"/>
</g>
<defs>
<clipPath id="clip0_104_1478">
<rect width="512" height="512" fill="white" transform="translate(0.5 0.5)"/>
</clipPath>
</defs>
</svg>
