<svg width="385" height="513" viewBox="0 0 385 513" fill="none" xmlns="http://www.w3.org/2000/svg">
<path d="M192.5 144.5C222.204 144.5 250.692 156.3 271.696 177.304C292.7 198.308 304.5 226.796 304.5 256.5C304.5 286.204 292.7 314.692 271.696 335.696C250.692 356.7 222.204 368.5 192.5 368.5C162.796 368.5 134.308 356.7 113.304 335.696C92.3 314.692 80.5 286.204 80.5 256.5C80.5 226.796 92.3 198.308 113.304 177.304C134.308 156.3 162.796 144.5 192.5 144.5ZM192.5 432.5C239.178 432.5 283.944 413.957 316.951 380.951C349.957 347.944 368.5 303.178 368.5 256.5C368.5 209.822 349.957 165.056 316.951 132.049C283.944 99.0428 239.178 80.5 192.5 80.5C145.822 80.5 101.056 99.0428 68.0492 132.049C35.0428 165.056 16.5 209.822 16.5 256.5C16.5 303.178 35.0428 347.944 68.0492 380.951C101.056 413.957 145.822 432.5 192.5 432.5Z" fill="#47535F"/>
</svg>
