<svg width="385" height="513" viewBox="0 0 385 513" fill="none" xmlns="http://www.w3.org/2000/svg">
<g clip-path="url(#clip0_104_1482)">
<path d="M40.6 467.6L29.4 476.6C26.2 479.1 22.3 480.5 18.3 480.5C8.5 480.5 0.5 472.5 0.5 462.7V192.5C0.5 86.5 86.5 0.5 192.5 0.5C298.5 0.5 384.5 86.5 384.5 192.5V462.7C384.5 472.5 376.5 480.5 366.7 480.5C362.7 480.5 358.8 479.1 355.6 476.6L344.4 467.6C331 456.9 311.6 458.6 300.3 471.5L269.8 506.5C266.5 510.3 261.6 512.5 256.5 512.5C251.4 512.5 246.6 510.3 243.2 506.5L216.6 476C203.9 461.4 181.2 461.4 168.4 476L141.8 506.5C138.5 510.3 133.6 512.5 128.5 512.5C123.4 512.5 118.6 510.3 115.2 506.5L84.7 471.5C73.4 458.6 54 456.9 40.6 467.6ZM160.5 192.5C160.5 184.013 157.129 175.874 151.127 169.873C145.126 163.871 136.987 160.5 128.5 160.5C120.013 160.5 111.874 163.871 105.873 169.873C99.8714 175.874 96.5 184.013 96.5 192.5C96.5 200.987 99.8714 209.126 105.873 215.127C111.874 221.129 120.013 224.5 128.5 224.5C136.987 224.5 145.126 221.129 151.127 215.127C157.129 209.126 160.5 200.987 160.5 192.5ZM256.5 224.5C264.987 224.5 273.126 221.129 279.127 215.127C285.129 209.126 288.5 200.987 288.5 192.5C288.5 184.013 285.129 175.874 279.127 169.873C273.126 163.871 264.987 160.5 256.5 160.5C248.013 160.5 239.874 163.871 233.873 169.873C227.871 175.874 224.5 184.013 224.5 192.5C224.5 200.987 227.871 209.126 233.873 215.127C239.874 221.129 248.013 224.5 256.5 224.5Z" fill="#47535F"/>
</g>
<defs>
<clipPath id="clip0_104_1482">
<rect width="384" height="512" fill="white" transform="translate(0.5 0.5)"/>
</clipPath>
</defs>
</svg>
