<svg width="513" height="513" viewBox="0 0 513 513" fill="none" xmlns="http://www.w3.org/2000/svg">
<g clip-path="url(#clip0_104_1484)">
<path d="M191 69.3L225.8 128.5H224.5H152.5C130.4 128.5 112.5 110.6 112.5 88.5C112.5 66.4 130.4 48.5 152.5 48.5H154.7C169.6 48.5 183.5 56.4 191 69.3ZM64.5 88.5C64.5 102.9 68 116.5 74.1 128.5H32.5C14.8 128.5 0.5 142.8 0.5 160.5V224.5C0.5 242.2 14.8 256.5 32.5 256.5H480.5C498.2 256.5 512.5 242.2 512.5 224.5V160.5C512.5 142.8 498.2 128.5 480.5 128.5H438.9C445 116.5 448.5 102.9 448.5 88.5C448.5 39.9 409.1 0.5 360.5 0.5H358.3C326.4 0.5 296.8 17.4 280.6 44.9L256.5 86L232.4 45C216.2 17.4 186.6 0.5 154.7 0.5H152.5C103.9 0.5 64.5 39.9 64.5 88.5ZM400.5 88.5C400.5 110.6 382.6 128.5 360.5 128.5H288.5H287.2L322 69.3C329.6 56.4 343.4 48.5 358.3 48.5H360.5C382.6 48.5 400.5 66.4 400.5 88.5ZM32.5 288.5V464.5C32.5 491 54 512.5 80.5 512.5H224.5V288.5H32.5ZM288.5 512.5H432.5C459 512.5 480.5 491 480.5 464.5V288.5H288.5V512.5Z" fill="#47535F"/>
</g>
<defs>
<clipPath id="clip0_104_1484">
<rect width="512" height="512" fill="white" transform="translate(0.5 0.5)"/>
</clipPath>
</defs>
</svg>
