<svg width="641" height="513" viewBox="0 0 641 513" fill="none" xmlns="http://www.w3.org/2000/svg">
<g clip-path="url(#clip0_104_1486)">
<path d="M201.1 32.5C205.5 20 199 6.29998 186.5 1.89998C174 -2.50002 160.3 3.99998 155.9 16.5L145.2 46.7L135.3 16.9C131.1 4.29998 117.5 -2.50002 104.9 1.69998C92.3 5.89998 85.5 19.5 89.7 32.1L98 57.1L70.6 37.1C59.9 29.3 44.9 31.7 37.1 42.4C29.3 53.1 31.7 68.1 42.4 75.9L70.7 96.5H48.5C22 96.5 0.5 118 0.5 144.5V464.5C0.5 491 22 512.5 48.5 512.5H201.1C195.7 503.1 192.5 492.2 192.5 480.5V256.5C192.5 226.6 213 201.5 240.7 194.5C242.5 163.5 257.8 136.3 280.8 118.4C272.2 105.2 257.4 96.5 240.5 96.5H218.3L246.6 75.9C257.3 68.1 259.7 53.1 251.9 42.4C244.1 31.7 229.1 29.3 218.4 37.1L193 55.6L201.1 32.5ZM364 186L393.6 224.5H344.5C331.2 224.5 320.5 213.8 320.5 200.5C320.5 187.4 331.3 176.5 344.7 176.5C352.3 176.5 359.4 180 364 186ZM272.5 200.5C272.5 208.9 273.9 217 276.6 224.5H272.5C246 224.5 224.5 246 224.5 272.5V352.5H416.5V256.5H448.5V352.5H640.5V272.5C640.5 246 619 224.5 592.5 224.5H588.4C591.1 217 592.5 208.9 592.5 200.5C592.5 160.6 560 128.5 520.3 128.5C497.9 128.5 476.7 138.9 463 156.7L432.5 196.3L402 156.7C388.3 138.9 367 128.5 344.7 128.5C305 128.5 272.5 160.6 272.5 200.5ZM224.5 464.5C224.5 491 246 512.5 272.5 512.5H416.5V384.5H224.5V464.5ZM448.5 512.5H592.5C619 512.5 640.5 491 640.5 464.5V384.5H448.5V512.5ZM544.5 200.5C544.5 213.8 533.8 224.5 520.5 224.5H471.4L501 186C505.6 180.1 512.7 176.5 520.3 176.5C533.7 176.5 544.5 187.4 544.5 200.5Z" fill="#47535F"/>
</g>
<defs>
<clipPath id="clip0_104_1486">
<rect width="640" height="512" fill="white" transform="translate(0.5 0.5)"/>
</clipPath>
</defs>
</svg>
