<svg width="385" height="513" viewBox="0 0 385 513" fill="none" xmlns="http://www.w3.org/2000/svg">
<g clip-path="url(#clip0_104_1490)">
<path d="M32.5009 0.5C23.6009 0.5 15.1009 4.2 9.1009 10.7C3.1009 17.2 -0.0990993 25.9 0.600901 34.8L29.4009 438.2C32.4009 480.1 67.2009 512.5 109.201 512.5H275.801C317.801 512.5 352.601 480.1 355.601 438.2L384.401 34.8C385.001 25.9 382.001 17.2 375.901 10.7C369.801 4.2 361.401 0.5 352.501 0.5H32.5009ZM73.5009 157L66.9009 64.5H318.101L311.501 157L287.301 169.1C267.901 178.8 245.101 178.8 225.701 169.1C204.801 158.7 180.201 158.7 159.301 169.1C139.901 178.8 117.101 178.8 97.7009 169.1L73.5009 157Z" fill="#47535F"/>
</g>
<defs>
<clipPath id="clip0_104_1490">
<rect width="384" height="512" fill="white" transform="translate(0.5 0.5)"/>
</clipPath>
</defs>
</svg>
