<svg width="577" height="513" viewBox="0 0 577 513" fill="none" xmlns="http://www.w3.org/2000/svg">
<g clip-path="url(#clip0_104_1488)">
<path d="M119.1 80.5C107.6 80.5 97.7 88.4 95.1 99.6L57.5 260.8C78 254.6 105.8 248.5 136.2 248.5C168.5 248.5 198 255.4 219 262C229.6 265.3 238.3 268.7 244.4 271.2C247.5 272.5 249.9 273.6 251.7 274.4C252.6 274.8 253.3 275.1 253.8 275.4L254.4 275.7L254.6 275.8H254.7C254.7 275.8 254.7 275.8 248.4 288.5L254.7 275.8C260.5 278.7 265.1 283.1 268.2 288.5H308.8C311.9 283.2 316.5 278.7 322.3 275.8L328.6 288.5C322.3 275.8 322.3 275.8 322.3 275.8H322.4L322.6 275.7L323.2 275.4C323.7 275.2 324.4 274.8 325.3 274.4C327.1 273.6 329.5 272.5 332.6 271.2C338.7 268.6 347.4 265.3 358 262C379 255.4 408.4 248.5 440.8 248.5C471.2 248.5 499 254.6 519.5 260.8L481.9 99.6C479.3 88.4 469.3 80.5 457.9 80.5C454.8 80.5 451.7 81.1 448.7 82.3L417.4 94.8C405.1 99.7 391.1 93.7 386.2 81.4C381.3 69.1 387.3 55.1 399.6 50.2L430.9 37.7C439.5 34.3 448.6 32.5 457.9 32.5C491.7 32.5 521 55.8 528.7 88.7L572.6 276.7C574.3 284 575.5 291.4 576.1 298.8C576.4 300.7 576.6 302.6 576.6 304.5V311.2V352.5V368.5C576.6 430.4 526.5 480.5 464.6 480.5H420.2C360.8 480.5 311.7 434.1 308.4 374.7L307.1 352.5H269.9L268.7 374.7C265.4 434.1 216.3 480.5 156.8 480.5H112.5C50.6 480.5 0.5 430.4 0.5 368.5V352.5V311.2V304.5C0.5 302.6 0.7 300.7 1 298.8C1.6 291.4 2.8 284 4.5 276.7L48.4 88.7C56 55.8 85.3 32.5 119.1 32.5C128.3 32.5 137.5 34.3 146.1 37.7L177.4 50.2C189.7 55.1 195.7 69.1 190.8 81.4C185.9 93.7 171.9 99.7 159.6 94.8L128.3 82.3C125.4 81.1 122.3 80.5 119.1 80.5ZM64.5 325.9V368.5C64.5 395 86 416.5 112.5 416.5H156.8C182.3 416.5 203.3 396.6 204.7 371.2L207.2 325.6C204.9 324.8 202.3 323.9 199.7 323.1C182.5 317.7 159.8 312.6 136.1 312.6C112.4 312.6 89.9 317.7 72.9 323.1C69.8 324.1 67 325 64.4 326L64.5 325.9ZM512.5 368.5V325.9C509.9 325 507 324 504 323C487 317.6 464.5 312.5 440.8 312.5C417.1 312.5 394.4 317.6 377.2 323C374.5 323.8 372 324.7 369.7 325.5L372.2 371.1C373.6 396.5 394.7 416.4 420.1 416.4H464.5C491 416.4 512.5 394.9 512.5 368.4V368.5Z" fill="#47535F"/>
</g>
<defs>
<clipPath id="clip0_104_1488">
<rect width="576" height="512" fill="white" transform="translate(0.5 0.5)"/>
</clipPath>
</defs>
</svg>
