<svg width="385" height="513" viewBox="0 0 385 513" fill="none" xmlns="http://www.w3.org/2000/svg">
<g clip-path="url(#clip0_104_1492)">
<path d="M32.5009 0.5C23.6009 0.5 15.1009 4.2 9.1009 10.7C3.1009 17.2 -0.0990993 25.9 0.600901 34.8L29.4009 438.2C32.4009 480.1 67.2009 512.5 109.201 512.5H275.801C317.801 512.5 352.601 480.1 355.601 438.2L384.401 34.8C385.001 25.9 382.001 17.2 375.901 10.7C369.801 4.2 361.401 0.5 352.501 0.5H32.5009ZM83.5009 298L66.9009 64.5H318.101L301.501 298L288.501 304.5C268.401 314.6 244.601 314.6 224.501 304.5C204.401 294.4 180.601 294.4 160.501 304.5C140.401 314.6 116.601 314.6 96.5009 304.5L83.5009 298ZM256.501 196.5C256.501 172.5 222.801 126.4 204.301 103C198.201 95.3 186.801 95.3 180.701 103C162.201 126.4 128.501 172.5 128.501 196.5C128.501 229.6 157.201 256.5 192.501 256.5C227.801 256.5 256.501 229.6 256.501 196.5Z" fill="#47535F"/>
</g>
<defs>
<clipPath id="clip0_104_1492">
<rect width="384" height="512" fill="white" transform="translate(0.5 0.5)"/>
</clipPath>
</defs>
</svg>
