<svg width="513" height="513" viewBox="0 0 513 513" fill="none" xmlns="http://www.w3.org/2000/svg">
<g clip-path="url(#clip0_104_1494)">
<path d="M352.5 256.5C352.5 278.7 351.3 300.1 349.2 320.5H163.8C161.6 300.1 160.5 278.7 160.5 256.5C160.5 234.3 161.7 212.9 163.8 192.5H349.2C351.4 212.9 352.5 234.3 352.5 256.5ZM381.3 192.5H504.4C509.7 213 512.5 234.4 512.5 256.5C512.5 278.6 509.7 300 504.4 320.5H381.3C383.4 299.9 384.5 278.5 384.5 256.5C384.5 234.5 383.4 213.1 381.3 192.5ZM493.9 160.5H377.2C367.2 96.6 347.4 43.1 321.9 8.9C400.2 29.6 463.9 86.4 493.8 160.5H493.9ZM344.8 160.5H168.2C174.3 124.1 183.7 91.9 195.2 65.8C205.7 42.2 217.4 25.1 228.7 14.3C239.9 3.7 249.2 0.5 256.5 0.5C263.8 0.5 273.1 3.7 284.3 14.3C295.6 25.1 307.3 42.2 317.8 65.8C329.4 91.8 338.7 124 344.8 160.5ZM135.8 160.5H19.1C49.1 86.4 112.7 29.6 191.1 8.9C165.6 43.1 145.8 96.6 135.8 160.5ZM8.6 192.5H131.7C129.6 213.1 128.5 234.5 128.5 256.5C128.5 278.5 129.6 299.9 131.7 320.5H8.6C3.3 300 0.5 278.6 0.5 256.5C0.5 234.4 3.3 213 8.6 192.5ZM195.2 447.1C183.6 421.1 174.3 388.9 168.2 352.5H344.8C338.7 388.9 329.3 421.1 317.8 447.1C307.3 470.7 295.6 487.8 284.3 498.6C273.1 509.3 263.8 512.5 256.5 512.5C249.2 512.5 239.9 509.3 228.7 498.7C217.4 487.9 205.7 470.8 195.2 447.2V447.1ZM135.8 352.5C145.8 416.4 165.6 469.9 191.1 504.1C112.7 483.4 49.1 426.6 19.1 352.5H135.8ZM493.9 352.5C463.9 426.6 400.3 483.4 322 504.1C347.5 469.9 367.2 416.4 377.3 352.5H493.9Z" fill="#47535F"/>
</g>
<defs>
<clipPath id="clip0_104_1494">
<rect width="512" height="512" fill="white" transform="translate(0.5 0.5)"/>
</clipPath>
</defs>
</svg>
