<svg width="385" height="513" viewBox="0 0 385 513" fill="none" xmlns="http://www.w3.org/2000/svg">
<g clip-path="url(#clip0_104_1496)">
<path d="M384.5 192.5C384.5 259.3 350.4 318.1 298.7 352.5H86.3C34.6 318.1 0.5 259.3 0.5 192.5C0.5 86.5 86.5 0.5 192.5 0.5C298.5 0.5 384.5 86.5 384.5 192.5ZM242.6 257.1C242.6 275.6 227.6 290.6 209.1 290.6C204.2 290.6 200 295.7 203.7 299C209.6 304.2 217.4 307.4 225.8 307.4C244.3 307.4 259.3 292.4 259.3 273.9C259.3 265.4 256.1 257.7 250.9 251.8C247.6 248.1 242.5 252.3 242.5 257.2L242.6 257.1ZM190.3 207.8C185.4 207.8 181.2 212.9 184.9 216.2C190.8 221.4 198.6 224.6 207 224.6C225.5 224.6 240.5 209.6 240.5 191.1C240.5 182.6 237.3 174.9 232.1 169C228.8 165.3 223.7 169.5 223.7 174.4C223.7 192.9 208.7 207.9 190.2 207.9L190.3 207.8ZM303.8 190.3C303.8 208.8 288.8 223.8 270.3 223.8C265.4 223.8 261.2 228.9 264.9 232.2C270.8 237.4 278.6 240.6 287 240.6C305.5 240.6 320.5 225.6 320.5 207.1C320.5 198.6 317.3 190.9 312.1 185C308.8 181.3 303.7 185.5 303.7 190.4L303.8 190.3ZM96.5 416.5C96.5 398.8 110.8 384.5 128.5 384.5H192.5H256.5C274.2 384.5 288.5 398.8 288.5 416.5C288.5 434.2 274.2 448.5 256.5 448.5H240.5C231.7 448.5 224.5 455.7 224.5 464.5V480.5C224.5 498.2 210.2 512.5 192.5 512.5C174.8 512.5 160.5 498.2 160.5 480.5V464.5C160.5 455.7 153.3 448.5 144.5 448.5H128.5C110.8 448.5 96.5 434.2 96.5 416.5Z" fill="#47535F"/>
</g>
<defs>
<clipPath id="clip0_104_1496">
<rect width="384" height="512" fill="white" transform="translate(0.5 0.5)"/>
</clipPath>
</defs>
</svg>
