<svg width="513" height="513" viewBox="0 0 513 513" fill="none" xmlns="http://www.w3.org/2000/svg">
<g clip-path="url(#clip0_104_1498)">
<path d="M120.5 0.5C133.8 0.5 144.5 11.2 144.5 24.5V32.5H184.5V24.5C184.5 11.2 195.2 0.5 208.5 0.5C221.8 0.5 232.5 11.2 232.5 24.5V32.5H280.5V24.5C280.5 11.2 291.2 0.5 304.5 0.5C317.8 0.5 328.5 11.2 328.5 24.5V32.5H368.5V24.5C368.5 11.2 379.2 0.5 392.5 0.5C405.8 0.5 416.5 11.2 416.5 24.5V32.5V64.5V128.5C434.2 128.5 448.5 142.8 448.5 160.5V224.5C466.2 224.5 480.5 238.8 480.5 256.5V352.5C498.2 352.5 512.5 366.8 512.5 384.5V480.5C512.5 498.2 498.2 512.5 480.5 512.5H416.5V352.5H384.5V224.5H352.5V128.5H320.5V224.5H352.5V352.5H384.5V512.5H304.5V464.5C304.5 438 283 416.5 256.5 416.5C230 416.5 208.5 438 208.5 464.5V512.5H128.5V352.5H160.5V224.5H192.5V128.5H160.5V224.5H128.5V352.5H96.5V512.5H32.5C14.8 512.5 0.5 498.2 0.5 480.5V384.5C0.5 366.8 14.8 352.5 32.5 352.5V256.5C32.5 238.8 46.8 224.5 64.5 224.5V160.5C64.5 142.8 78.8 128.5 96.5 128.5V64.5V32.5V24.5C96.5 11.2 107.2 0.5 120.5 0.5ZM256.5 272.5C238.8 272.5 224.5 286.8 224.5 304.5V352.5H288.5V304.5C288.5 286.8 274.2 272.5 256.5 272.5ZM224.5 192.5V224.5H288.5V192.5C288.5 174.8 274.2 160.5 256.5 160.5C238.8 160.5 224.5 174.8 224.5 192.5Z" fill="#47535F"/>
</g>
<defs>
<clipPath id="clip0_104_1498">
<rect width="512" height="512" fill="white" transform="translate(0.5 0.5)"/>
</clipPath>
</defs>
</svg>
