<svg width="641" height="513" viewBox="0 0 641 513" fill="none" xmlns="http://www.w3.org/2000/svg">
<g clip-path="url(#clip0_104_1500)">
<path d="M320.5 32.5C312.4 32.5 304.4 33.9 296.8 36.6L16.2998 137.9C6.79977 141.4 0.499767 150.4 0.499767 160.5C0.499767 170.6 6.79977 179.6 16.2998 183.1L74.1998 204C57.7998 229.8 48.4998 260.3 48.4998 292.4V320.5C48.4998 348.9 37.6998 378.2 26.1998 401.3C19.6998 414.3 12.2998 427.1 3.69977 438.9C0.499767 443.2 -0.400233 448.8 1.39977 453.9C3.19977 459 7.39977 462.8 12.5998 464.1L76.5998 480.1C80.7998 481.2 85.2998 480.4 88.9998 478.1C92.6998 475.8 95.2998 472 96.0998 467.7C104.7 424.9 100.4 386.5 93.9998 359C90.7998 344.8 86.4998 330.3 80.4998 317V292.4C80.4998 262.2 90.6998 233.7 108.4 210.9C121.3 195.4 138 182.9 157.6 175.2L314.6 113.5C322.8 110.3 332.1 114.3 335.3 122.5C338.5 130.7 334.5 140 326.3 143.2L169.3 204.9C156.9 209.8 146 217.3 137.1 226.5L296.7 284.1C304.3 286.8 312.3 288.2 320.4 288.2C328.5 288.2 336.5 286.8 344.1 284.1L624.7 183.1C634.2 179.7 640.5 170.6 640.5 160.5C640.5 150.4 634.2 141.4 624.7 137.9L344.2 36.6C336.6 33.9 328.6 32.5 320.5 32.5ZM128.5 408.5C128.5 443.8 214.5 480.5 320.5 480.5C426.5 480.5 512.5 443.8 512.5 408.5L497.2 263.1L355 314.5C343.9 318.5 332.2 320.5 320.5 320.5C308.8 320.5 297 318.5 286 314.5L143.8 263.1L128.5 408.5Z" fill="#47535F"/>
</g>
<defs>
<clipPath id="clip0_104_1500">
<rect width="640" height="512" fill="white" transform="translate(0.5 0.5)"/>
</clipPath>
</defs>
</svg>
