<svg width="449" height="513" viewBox="0 0 449 513" fill="none" xmlns="http://www.w3.org/2000/svg">
<g clip-path="url(#clip0_104_1504)">
<path d="M52.6 94.2C36.2 87.6 28.2 69 34.8 52.6C41.4 36.2 60 28.2 76.4 34.8L396.4 162.8C408.5 167.6 416.5 179.4 416.5 192.5C416.5 205.6 408.5 217.4 396.4 222.2L76.4 350.2C60 356.8 41.4 348.8 34.8 332.4C28.2 316 36.2 297.4 52.6 290.8L298.3 192.5L52.6 94.2ZM416.5 416.5C434.2 416.5 448.5 430.8 448.5 448.5C448.5 466.2 434.2 480.5 416.5 480.5H32.5C14.8 480.5 0.5 466.2 0.5 448.5C0.5 430.8 14.8 416.5 32.5 416.5H416.5Z" fill="#47535F"/>
</g>
<defs>
<clipPath id="clip0_104_1504">
<rect width="448" height="512" fill="white" transform="translate(0.5 0.5)"/>
</clipPath>
</defs>
</svg>
