<svg width="449" height="513" viewBox="0 0 449 513" fill="none" xmlns="http://www.w3.org/2000/svg">
<g clip-path="url(#clip0_104_1508)">
<path d="M32.5 288.5C14.8 288.5 0.5 302.8 0.5 320.5C0.5 338.2 14.8 352.5 32.5 352.5H416.5C434.2 352.5 448.5 338.2 448.5 320.5C448.5 302.8 434.2 288.5 416.5 288.5H32.5ZM32.5 160.5C14.8 160.5 0.5 174.8 0.5 192.5C0.5 210.2 14.8 224.5 32.5 224.5H416.5C434.2 224.5 448.5 210.2 448.5 192.5C448.5 174.8 434.2 160.5 416.5 160.5H32.5Z" fill="#47535F"/>
</g>
<defs>
<clipPath id="clip0_104_1508">
<rect width="448" height="512" fill="white" transform="translate(0.5 0.5)"/>
</clipPath>
</defs>
</svg>
