<svg width="321" height="513" viewBox="0 0 321 513" fill="none" xmlns="http://www.w3.org/2000/svg">
<g clip-path="url(#clip0_104_1512)">
<path d="M40.5 352.5H88.5C110.6 352.5 128.5 370.4 128.5 392.5V440.5C128.5 462.6 110.6 480.5 88.5 480.5H40.5C18.4 480.5 0.5 462.6 0.5 440.5V392.5C0.5 370.4 18.4 352.5 40.5 352.5ZM232.5 352.5H280.5C302.6 352.5 320.5 370.4 320.5 392.5V440.5C320.5 462.6 302.6 480.5 280.5 480.5H232.5C210.4 480.5 192.5 462.6 192.5 440.5V392.5C192.5 370.4 210.4 352.5 232.5 352.5ZM40.5 320.5C18.4 320.5 0.5 302.6 0.5 280.5V232.5C0.5 210.4 18.4 192.5 40.5 192.5H88.5C110.6 192.5 128.5 210.4 128.5 232.5V280.5C128.5 302.6 110.6 320.5 88.5 320.5H40.5ZM232.5 192.5H280.5C302.6 192.5 320.5 210.4 320.5 232.5V280.5C320.5 302.6 302.6 320.5 280.5 320.5H232.5C210.4 320.5 192.5 302.6 192.5 280.5V232.5C192.5 210.4 210.4 192.5 232.5 192.5ZM40.5 160.5C18.4 160.5 0.5 142.6 0.5 120.5V72.5C0.5 50.4 18.4 32.5 40.5 32.5H88.5C110.6 32.5 128.5 50.4 128.5 72.5V120.5C128.5 142.6 110.6 160.5 88.5 160.5H40.5ZM232.5 32.5H280.5C302.6 32.5 320.5 50.4 320.5 72.5V120.5C320.5 142.6 302.6 160.5 280.5 160.5H232.5C210.4 160.5 192.5 142.6 192.5 120.5V72.5C192.5 50.4 210.4 32.5 232.5 32.5Z" fill="#47535F"/>
</g>
<defs>
<clipPath id="clip0_104_1512">
<rect width="320" height="512" fill="white" transform="translate(0.5 0.5)"/>
</clipPath>
</defs>
</svg>
