<svg width="449" height="513" viewBox="0 0 449 513" fill="none" xmlns="http://www.w3.org/2000/svg">
<g clip-path="url(#clip0_104_1506)">
<path d="M128.5 136.5C128.5 114.4 110.6 96.5 88.5 96.5H40.5C18.4 96.5 0.5 114.4 0.5 136.5V184.5C0.5 206.6 18.4 224.5 40.5 224.5H88.5C110.6 224.5 128.5 206.6 128.5 184.5V136.5ZM128.5 328.5C128.5 306.4 110.6 288.5 88.5 288.5H40.5C18.4 288.5 0.5 306.4 0.5 328.5V376.5C0.5 398.6 18.4 416.5 40.5 416.5H88.5C110.6 416.5 128.5 398.6 128.5 376.5V328.5ZM160.5 136.5V184.5C160.5 206.6 178.4 224.5 200.5 224.5H248.5C270.6 224.5 288.5 206.6 288.5 184.5V136.5C288.5 114.4 270.6 96.5 248.5 96.5H200.5C178.4 96.5 160.5 114.4 160.5 136.5ZM288.5 328.5C288.5 306.4 270.6 288.5 248.5 288.5H200.5C178.4 288.5 160.5 306.4 160.5 328.5V376.5C160.5 398.6 178.4 416.5 200.5 416.5H248.5C270.6 416.5 288.5 398.6 288.5 376.5V328.5ZM320.5 136.5V184.5C320.5 206.6 338.4 224.5 360.5 224.5H408.5C430.6 224.5 448.5 206.6 448.5 184.5V136.5C448.5 114.4 430.6 96.5 408.5 96.5H360.5C338.4 96.5 320.5 114.4 320.5 136.5ZM448.5 328.5C448.5 306.4 430.6 288.5 408.5 288.5H360.5C338.4 288.5 320.5 306.4 320.5 328.5V376.5C320.5 398.6 338.4 416.5 360.5 416.5H408.5C430.6 416.5 448.5 398.6 448.5 376.5V328.5Z" fill="#47535F"/>
</g>
<defs>
<clipPath id="clip0_104_1506">
<rect width="448" height="512" fill="white" transform="translate(0.5 0.5)"/>
</clipPath>
</defs>
</svg>
