<svg width="193" height="513" viewBox="0 0 193 513" fill="none" xmlns="http://www.w3.org/2000/svg">
<g clip-path="url(#clip0_104_1510)">
<path d="M64.5 64.5C64.5 46.8 50.2 32.5 32.5 32.5C14.8 32.5 0.5 46.8 0.5 64.5V448.5C0.5 466.2 14.8 480.5 32.5 480.5C50.2 480.5 64.5 466.2 64.5 448.5V64.5ZM192.5 64.5C192.5 46.8 178.2 32.5 160.5 32.5C142.8 32.5 128.5 46.8 128.5 64.5V448.5C128.5 466.2 142.8 480.5 160.5 480.5C178.2 480.5 192.5 466.2 192.5 448.5V64.5Z" fill="#47535F"/>
</g>
<defs>
<clipPath id="clip0_104_1510">
<rect width="192" height="512" fill="white" transform="translate(0.5 0.5)"/>
</clipPath>
</defs>
</svg>
