<svg width="513" height="513" viewBox="0 0 513 513" fill="none" xmlns="http://www.w3.org/2000/svg">
<path d="M201.6 72.4C218.5 67.4 228.2 49.5 223.1 32.6C218 15.7 200.2 5.99999 183.3 11.1C161.8 17.5 141.5 26.6 122.7 38.1C114.8 34.5 105.9 32.5 96.5 32.5C61.2 32.5 32.5 61.2 32.5 96.5C32.5 105.9 34.5 114.8 38.1 122.8C26.6 141.5 17.5 161.8 11.1 183.4C6.10002 200.3 15.7 218.2 32.6 223.2C49.5 228.2 67.4 218.6 72.4 201.7C76.7 187.1 82.8 173.2 90.3 160.3C92.3 160.5 94.4 160.6 96.4 160.6C131.7 160.6 160.4 131.9 160.4 96.6C160.4 94.5 160.3 92.5 160.1 90.5C173 83 186.9 76.9 201.5 72.6L201.6 72.4ZM329.6 11.1C312.7 6.09999 294.8 15.7 289.8 32.6C284.8 49.5 294.4 67.4 311.3 72.4C325.9 76.7 339.8 82.8 352.7 90.3C352.5 92.3 352.4 94.4 352.4 96.4C352.4 131.7 381.1 160.4 416.4 160.4C418.5 160.4 420.5 160.3 422.6 160.1C430.1 173 436.2 186.9 440.5 201.5C445.5 218.4 463.4 228.1 480.3 223C497.2 217.9 506.9 200.1 501.8 183.2C495.4 161.7 486.3 141.4 474.8 122.6C478.4 114.6 480.4 105.7 480.4 96.3C480.4 61 451.7 32.3 416.4 32.3C407 32.3 398.1 34.3 390.1 37.9C371.4 26.4 351.1 17.3 329.5 10.9L329.6 11.1ZM72.4 311.4C67.4 294.5 49.5 284.8 32.6 289.9C15.7 295 6.00002 312.8 11.1 329.7C17.5 351.2 26.6 371.5 38.1 390.3C34.5 398.2 32.5 407.1 32.5 416.5C32.5 451.8 61.2 480.5 96.5 480.5C105.9 480.5 114.8 478.5 122.8 474.9C141.5 486.4 161.8 495.5 183.4 501.9C200.3 506.9 218.2 497.3 223.2 480.4C228.2 463.5 218.6 445.6 201.7 440.6C187.1 436.3 173.2 430.2 160.3 422.7C160.5 420.7 160.6 418.6 160.6 416.5C160.6 381.2 131.9 352.5 96.6 352.5C94.5 352.5 92.5 352.6 90.4 352.8C82.9 339.9 76.8 326 72.5 311.4H72.4ZM501.8 329.7C506.8 312.8 497.2 294.9 480.3 289.9C463.4 284.9 445.5 294.5 440.5 311.4C436.2 326 430.1 339.9 422.6 352.8C420.6 352.6 418.5 352.5 416.4 352.5C381.1 352.5 352.4 381.2 352.4 416.5C352.4 418.6 352.5 420.6 352.7 422.7C339.8 430.2 325.9 436.3 311.3 440.6C294.4 445.6 284.7 463.5 289.8 480.4C294.9 497.3 312.7 507 329.6 501.9C351.1 495.5 371.4 486.4 390.2 474.9C398.2 478.5 407.1 480.5 416.5 480.5C451.8 480.5 480.5 451.8 480.5 416.5C480.5 407.1 478.5 398.2 474.9 390.2C486.4 371.5 495.5 351.2 501.9 329.6L501.8 329.7ZM193.3 257.3C193.3 241.7 198.9 227.4 208.2 216.2L223.5 231.5C230.1 238.1 241.3 233.4 241.3 224.1V163.7C241.3 158 236.6 153.3 230.9 153.3H170.4C161.1 153.3 156.5 164.5 163 171.1L174.2 182.3C156.3 202.1 145.3 228.5 145.3 257.4C145.3 301 170.2 338.7 206.4 357.2C218.2 363.2 232.7 358.6 238.7 346.8C244.7 335 240.1 320.5 228.3 314.5C207.5 303.9 193.4 282.3 193.4 257.5L193.3 257.3ZM286.4 198.7C307.2 209.3 321.3 230.9 321.3 255.7C321.3 271.3 315.7 285.6 306.4 296.8L291.1 281.5C284.5 274.9 273.3 279.6 273.3 288.9V349.4C273.3 355.1 278 359.8 283.7 359.8H344.2C353.5 359.8 358.1 348.6 351.6 342L340.4 330.8C358.3 311 369.3 284.6 369.3 255.7C369.3 212.1 344.4 174.4 308.2 155.9C296.4 149.9 281.9 154.5 275.9 166.3C269.9 178.1 274.5 192.6 286.3 198.6L286.4 198.7Z" fill="#47535F"/>
</svg>
