<svg width="385" height="513" viewBox="0 0 385 513" fill="none" xmlns="http://www.w3.org/2000/svg">
<g clip-path="url(#clip0_104_1516)">
<path d="M192.5 0.5C174.8 0.5 160.5 14.8 160.5 32.5V67.2C69.7 82.4 0.5 161.4 0.5 256.5C0.5 351.6 69.7 430.6 160.5 445.8V480.5C160.5 498.2 174.8 512.5 192.5 512.5C210.2 512.5 224.5 498.2 224.5 480.5V445.8C315.3 430.6 384.5 351.6 384.5 256.5C384.5 238.8 370.2 224.5 352.5 224.5H224.5V132.5C246.6 138.2 266.3 149.6 282.1 165.1C294.7 177.5 315 177.3 327.4 164.7C339.8 152.1 339.6 131.8 326.9 119.4C299.5 92.5 264 73.8 224.5 67.2V32.5C224.5 14.8 210.2 0.5 192.5 0.5ZM160.5 132.5V380.5C105.3 366.3 64.5 316.2 64.5 256.5C64.5 196.8 105.3 146.7 160.5 132.5ZM224.5 380.5V288.5H316.5C304.9 333.5 269.5 368.9 224.5 380.5Z" fill="#47535F"/>
</g>
<defs>
<clipPath id="clip0_104_1516">
<rect width="384" height="512" fill="white" transform="translate(0.5 0.5)"/>
</clipPath>
</defs>
</svg>
