<svg width="513" height="513" viewBox="0 0 513 513" fill="none" xmlns="http://www.w3.org/2000/svg">
<g clip-path="url(#clip0_104_1518)">
<path d="M465.5 7.50001C456.1 -1.89999 440.9 -1.89999 431.6 7.50001L383.5 55.5C381.1 57.9 379.2 60.8 378 64L362.6 105L285.1 182.6C240 153.2 185.8 152.4 154.1 184.2C143.1 195.2 136.1 208.8 132.7 223.8C129 240.4 113.6 254.5 96.6 255.4C71 256.7 47.3 266.1 29.3 284C-15.5 328.9 -7.10001 409.9 48 465C103.1 520.1 184.1 528.5 228.9 483.7C246.8 465.8 256.3 442 257.5 416.4C258.4 399.4 272.5 384.1 289.1 380.3C304.1 376.9 317.7 369.8 328.7 358.9C360.5 327.1 359.7 273 330.3 227.9L407.9 150.3L448.9 134.9C452.1 133.7 455 131.8 457.4 129.4L505.4 81.4C514.8 72 514.8 56.8 505.4 47.5L465.5 7.50001ZM208.5 256.5C221.23 256.5 233.439 261.557 242.441 270.559C251.443 279.561 256.5 291.77 256.5 304.5C256.5 317.23 251.443 329.439 242.441 338.441C233.439 347.443 221.23 352.5 208.5 352.5C195.77 352.5 183.561 347.443 174.559 338.441C165.557 329.439 160.5 317.23 160.5 304.5C160.5 291.77 165.557 279.561 174.559 270.559C183.561 261.557 195.77 256.5 208.5 256.5Z" fill="#47535F"/>
</g>
<defs>
<clipPath id="clip0_104_1518">
<rect width="512" height="512" fill="white" transform="translate(0.5 0.5)"/>
</clipPath>
</defs>
</svg>
