<svg width="577" height="513" viewBox="0 0 577 513" fill="none" xmlns="http://www.w3.org/2000/svg">
<g clip-path="url(#clip0_104_1520)">
<path d="M528.5 56.5C528.5 43.2 517.8 32.5 504.5 32.5C491.2 32.5 480.5 43.2 480.5 56.5V64.5H32.5C14.8 64.5 0.5 78.8 0.5 96.5V208.5C0.5 226.2 14.8 240.5 32.5 240.5H42.5C63.3 240.5 78.6 260.1 73.5 280.3L33.5 440.7C31.1 450.3 33.3 460.4 39.3 468.2C45.3 476 54.6 480.5 64.5 480.5H160.5C175.2 480.5 188 470.5 191.5 456.3L217.5 352.5H321.9C345.6 352.5 366.7 337.6 374.6 315.3L401.4 240.5H432.5C441 240.5 449.1 237.1 455.1 231.1L477.8 208.5H544.5C562.2 208.5 576.5 194.2 576.5 176.5V96.5C576.5 78.8 562.2 64.5 544.5 64.5H528.5V56.5ZM321.9 304.5H229.5L245.5 240.5H350.5L329.5 299.2C328.4 302.4 325.3 304.5 322 304.5H321.9ZM80.5 128.5H464.5C473.3 128.5 480.5 135.7 480.5 144.5C480.5 153.3 473.3 160.5 464.5 160.5H80.5C71.7 160.5 64.5 153.3 64.5 144.5C64.5 135.7 71.7 128.5 80.5 128.5Z" fill="#47535F"/>
</g>
<defs>
<clipPath id="clip0_104_1520">
<rect width="576" height="512" fill="white" transform="translate(0.5 0.5)"/>
</clipPath>
</defs>
</svg>
