<svg width="385" height="513" viewBox="0 0 385 513" fill="none" xmlns="http://www.w3.org/2000/svg">
<g clip-path="url(#clip0_104_1522)">
<path d="M320.5 256.5V448.5C320.5 466.2 334.8 480.5 352.5 480.5C370.2 480.5 384.5 466.2 384.5 448.5V224.5V64.5C384.5 46.8 370.2 32.5 352.5 32.5C334.8 32.5 320.5 46.8 320.5 64.5V192.5H64.5V64.5C64.5 46.8 50.2 32.5 32.5 32.5C14.8 32.5 0.5 46.8 0.5 64.5V448.5C0.5 466.2 14.8 480.5 32.5 480.5C50.2 480.5 64.5 466.2 64.5 448.5V256.5H320.5Z" fill="#47535F"/>
</g>
<defs>
<clipPath id="clip0_104_1522">
<rect width="384" height="512" fill="white" transform="translate(0.5 0.5)"/>
</clipPath>
</defs>
</svg>
