<svg width="577" height="513" viewBox="0 0 577 513" fill="none" xmlns="http://www.w3.org/2000/svg">
<g clip-path="url(#clip0_104_1524)">
<path d="M414 238C385.8 242.8 355.8 234.4 334 212.6L295.9 174.5C280.9 159.5 272.5 139.3 272.5 118.1V106L192.8 62.5C187.5 59.6 184.2 53.9 184.5 47.8C184.8 41.7 188.4 36.3 194 33.8L241.2 12.8C259.6 4.7 279.5 0.5 299.7 0.5H317.8C354.5 0.5 389.8 14.5 416.5 39.6L461.1 81.6C485.3 104.4 494.3 137.3 487.7 167.6L503.5 183.5L511.5 175.5C520.9 166.1 536.1 166.1 545.4 175.5L569.4 199.5C578.8 208.9 578.8 224.1 569.4 233.4L481.4 321.4C472 330.8 456.8 330.8 447.5 321.4L423.5 297.4C414.1 288 414.1 272.8 423.5 263.5L431.5 255.5L414 238ZM27.9 377.6L261.4 183.1C264.9 188 268.9 192.7 273.2 197.1L311.3 235.2C317.3 241.2 323.7 246.4 330.5 250.9L135.4 485.1C120.9 502.5 99.4 512.5 76.8 512.5C34.6 512.5 0.5 478.3 0.5 436.2C0.5 413.6 10.6 392.1 27.9 377.6Z" fill="#47535F"/>
</g>
<defs>
<clipPath id="clip0_104_1524">
<rect width="576" height="512" fill="white" transform="translate(0.5 0.5)"/>
</clipPath>
</defs>
</svg>
