<svg width="513" height="513" viewBox="0 0 513 513" fill="none" xmlns="http://www.w3.org/2000/svg">
<g clip-path="url(#clip0_104_1526)">
<path d="M35.1 288.5H80.5C89.3 288.5 96.5 281.3 96.5 272.5V72.5C96.5 50.4 114.4 32.5 136.5 32.5C158.6 32.5 176.5 50.4 176.5 72.5V204.5C176.5 215.5 185.5 224.5 196.5 224.5C207.5 224.5 216.5 215.5 216.5 204.5V40.5C216.5 18.4 234.4 0.5 256.5 0.5C278.6 0.5 296.5 18.4 296.5 40.5V204.5C296.5 215.5 305.5 224.5 316.5 224.5C327.5 224.5 336.5 215.5 336.5 204.5V72.5C336.5 50.4 354.4 32.5 376.5 32.5C398.6 32.5 416.5 50.4 416.5 72.5V272.5C416.5 281.3 423.7 288.5 432.5 288.5H477.9C497 288.5 512.5 304 512.5 323.1C512.5 331.7 509.3 340 503.5 346.4L417.1 441.5C376 486.7 317.7 512.5 256.5 512.5C195.3 512.5 137.1 486.7 95.9 441.5L9.5 346.4C3.7 340 0.5 331.7 0.5 323.1C0.5 304 16 288.5 35.1 288.5ZM256.5 288.5C218.1 288.5 179.7 324.3 165.9 338.7C162.3 342.4 160.5 347.4 160.5 352.5C160.5 357.6 162.3 362.6 165.9 366.3C179.7 380.7 218.1 416.5 256.5 416.5C294.9 416.5 333.3 380.7 347.1 366.3C350.7 362.6 352.5 357.6 352.5 352.5C352.5 347.4 350.7 342.4 347.1 338.7C333.3 324.3 294.9 288.5 256.5 288.5ZM256.5 320.5C264.987 320.5 273.126 323.871 279.127 329.873C285.129 335.874 288.5 344.013 288.5 352.5C288.5 360.987 285.129 369.126 279.127 375.127C273.126 381.129 264.987 384.5 256.5 384.5C248.013 384.5 239.874 381.129 233.873 375.127C227.871 369.126 224.5 360.987 224.5 352.5C224.5 344.013 227.871 335.874 233.873 329.873C239.874 323.871 248.013 320.5 256.5 320.5Z" fill="#47535F"/>
</g>
<defs>
<clipPath id="clip0_104_1526">
<rect width="512" height="512" fill="white" transform="translate(0.5 0.5)"/>
</clipPath>
</defs>
</svg>
