<svg width="385" height="513" viewBox="0 0 385 513" fill="none" xmlns="http://www.w3.org/2000/svg">
<g clip-path="url(#clip0_104_1556)">
<path d="M32.5 480.5C32.5 498.2 46.8 512.5 64.5 512.5C82.2 512.5 96.5 498.2 96.5 480.5V272.5H32.5V480.5ZM224.5 320.5C224.5 338.2 238.8 352.5 256.5 352.5C274.2 352.5 288.5 338.2 288.5 320.5V256.5C288.5 238.8 274.2 224.5 256.5 224.5C238.8 224.5 224.5 238.8 224.5 256.5V320.5ZM160.5 384.5C178.2 384.5 192.5 370.2 192.5 352.5V304.5C192.5 286.8 178.2 272.5 160.5 272.5C142.8 272.5 128.5 286.8 128.5 304.5V352.5C128.5 370.2 142.8 384.5 160.5 384.5ZM320.5 288.5C320.5 306.2 334.8 320.5 352.5 320.5C370.2 320.5 384.5 306.2 384.5 288.5V224.5C384.5 206.8 370.2 192.5 352.5 192.5C334.8 192.5 320.5 206.8 320.5 224.5V288.5ZM224.5 200.5V201.1C233.9 195.7 244.8 192.5 256.5 192.5C269.7 192.5 281.9 196.5 292.1 203.3C300.8 178.4 324.6 160.5 352.5 160.5C364.2 160.5 375.1 163.6 384.5 169.1V160.5C384.5 72.1 312.9 0.5 224.5 0.5H162.8C120.3 0.5 79.6 17.4 49.6 47.4L38 59C14 83 0.5 115.6 0.5 149.5V176.5C0.5 211.8 29.2 240.5 64.5 240.5H152.5C174.6 240.5 192.5 222.6 192.5 200.5C192.5 178.4 174.6 160.5 152.5 160.5H96.5C87.7 160.5 80.5 153.3 80.5 144.5C80.5 135.7 87.7 128.5 96.5 128.5H152.5C192.3 128.5 224.5 160.7 224.5 200.5Z" fill="#47535F"/>
</g>
<defs>
<clipPath id="clip0_104_1556">
<rect width="384" height="512" fill="white" transform="translate(0.5 0.5)"/>
</clipPath>
</defs>
</svg>
