<svg width="513" height="513" viewBox="0 0 513 513" fill="none" xmlns="http://www.w3.org/2000/svg">
<g clip-path="url(#clip0_104_1554)">
<path d="M224.5 0.5C242.2 0.5 256.5 14.8 256.5 32.5V240.5H192.5V32.5C192.5 14.8 206.8 0.5 224.5 0.5ZM320.5 160.5C338.2 160.5 352.5 174.8 352.5 192.5V256.5C352.5 274.2 338.2 288.5 320.5 288.5C302.8 288.5 288.5 274.2 288.5 256.5V192.5C288.5 174.8 302.8 160.5 320.5 160.5ZM384.5 224.5C384.5 206.8 398.8 192.5 416.5 192.5C434.2 192.5 448.5 206.8 448.5 224.5V288.5C448.5 306.2 434.2 320.5 416.5 320.5C398.8 320.5 384.5 306.2 384.5 288.5V224.5ZM93.7997 51.7L176.4 240.5H106.6L35.1997 77.3C28.0997 61.1 35.4997 42.3 51.6997 35.2C67.8997 28.1 86.7997 35.5 93.7997 51.7ZM120.8 273L120.6 272.5H190.5H216.5C238.6 272.5 256.5 290.4 256.5 312.5C256.5 334.6 238.6 352.5 216.5 352.5H160.5C151.7 352.5 144.5 359.7 144.5 368.5C144.5 377.3 151.7 384.5 160.5 384.5H216.5C256.3 384.5 288.5 352.3 288.5 312.5V311.9C297.9 317.3 308.8 320.5 320.5 320.5C333.7 320.5 345.9 316.5 356.1 309.7C364.8 334.6 388.6 352.5 416.5 352.5C428.2 352.5 439.1 349.4 448.5 343.9V352.5C448.5 440.9 376.9 512.5 288.5 512.5H226.8C184.4 512.5 143.7 495.6 113.7 465.6L102.1 454C77.9997 430 64.4997 397.4 64.4997 363.5V336.5C64.4997 303.8 89.0997 276.8 120.8 273Z" fill="#47535F"/>
</g>
<defs>
<clipPath id="clip0_104_1554">
<rect width="512" height="512" fill="white" transform="translate(0.5 0.5)"/>
</clipPath>
</defs>
</svg>
