<svg width="641" height="513" viewBox="0 0 641 513" fill="none" xmlns="http://www.w3.org/2000/svg">
<g clip-path="url(#clip0_104_1582)">
<path d="M323.9 85.7L227.1 164.1C211 177.1 207.9 200.5 220.1 217.2C233 235 258.1 238.5 275.4 225L374.7 147.8C381.7 142.4 391.7 143.6 397.2 150.6C402.7 157.6 401.4 167.6 394.4 173.1L373.5 189.3L550.7 352.5H592.5C619 352.5 640.5 331 640.5 304.5V176.5C640.5 150 619 128.5 592.5 128.5H516.5H512.5H511.8L507.9 126L435.3 79.5C420 69.7 402.1 64.5 383.9 64.5C362.1 64.5 340.9 72 323.9 85.7ZM346.7 210.1L295 250.3C263.5 274.9 217.8 268.5 194.2 236.1C172 205.6 177.6 163 206.9 139.3L290.1 72C278.5 67.1 266 64.6 253.3 64.6C234.5 64.5 216.2 70.1 200.5 80.5L128.5 128.5H48.5C22 128.5 0.5 150 0.5 176.5V304.5C0.5 331 22 352.5 48.5 352.5H156.7L248.1 435.9C267.7 453.8 298 452.4 315.9 432.8C321.4 426.7 325.1 419.6 327 412.2L344 427.8C363.5 445.7 393.9 444.4 411.8 424.9C416.3 420 419.6 414.3 421.7 408.4C441.1 421.4 467.5 418.7 483.8 400.9C501.7 381.4 500.4 351 480.9 333.1L346.7 210.1Z" fill="#47535F"/>
</g>
<defs>
<clipPath id="clip0_104_1582">
<rect width="640" height="512" fill="white" transform="translate(0.5 0.5)"/>
</clipPath>
</defs>
</svg>
