<svg width="513" height="513" viewBox="0 0 513 513" fill="none" xmlns="http://www.w3.org/2000/svg">
<g clip-path="url(#clip0_104_1528)">
<path d="M288.5 32.5C288.5 14.8 274.2 0.5 256.5 0.5C238.8 0.5 224.5 14.8 224.5 32.5V240.5C224.5 249.3 217.3 256.5 208.5 256.5C199.7 256.5 192.5 249.3 192.5 240.5V64.5C192.5 46.8 178.2 32.5 160.5 32.5C142.8 32.5 128.5 46.8 128.5 64.5V336.5C128.5 338 128.5 339.6 128.6 341.1L68.0999 283.5C52.0999 268.3 26.7999 268.9 11.4999 284.9C-3.80008 300.9 -3.10008 326.2 12.8999 341.5L125.3 448.5C168.4 489.6 225.7 512.5 285.3 512.5H304.5C401.7 512.5 480.5 433.7 480.5 336.5V128.5C480.5 110.8 466.2 96.5 448.5 96.5C430.8 96.5 416.5 110.8 416.5 128.5V240.5C416.5 249.3 409.3 256.5 400.5 256.5C391.7 256.5 384.5 249.3 384.5 240.5V64.5C384.5 46.8 370.2 32.5 352.5 32.5C334.8 32.5 320.5 46.8 320.5 64.5V240.5C320.5 249.3 313.3 256.5 304.5 256.5C295.7 256.5 288.5 249.3 288.5 240.5V32.5Z" fill="#47535F"/>
</g>
<defs>
<clipPath id="clip0_104_1528">
<rect width="512" height="512" fill="white" transform="translate(0.5 0.5)"/>
</clipPath>
</defs>
</svg>
