<svg width="641" height="513" viewBox="0 0 641 513" fill="none" xmlns="http://www.w3.org/2000/svg">
<g clip-path="url(#clip0_104_1590)">
<path d="M320.5 0.5C331.109 0.5 341.283 4.71427 348.784 12.2157C356.286 19.7172 360.5 29.8913 360.5 40.5C360.5 51.1087 356.286 61.2828 348.784 68.7843C341.283 76.2857 331.109 80.5 320.5 80.5C309.891 80.5 299.717 76.2857 292.216 68.7843C284.714 61.2828 280.5 51.1087 280.5 40.5C280.5 29.8913 284.714 19.7172 292.216 12.2157C299.717 4.71427 309.891 0.5 320.5 0.5ZM365.2 164.8L376.3 253.5C377.9 266.7 368.6 278.6 355.5 280.3C342.4 282 330.4 272.6 328.7 259.5L324.3 224.5H316.7L312.3 259.5C310.7 272.7 298.7 282 285.5 280.3C272.3 278.6 263 266.7 264.7 253.5L275.8 164.7L256 181.5C245.9 190.1 230.7 188.8 222.2 178.7C213.7 168.6 214.9 153.4 225 144.9L252.9 121.3C271.8 105.3 295.8 96.5 320.5 96.5C345.2 96.5 369.2 105.3 388.1 121.2L416 144.8C426.1 153.4 427.4 168.5 418.8 178.6C410.2 188.7 395.1 190 385 181.4L365.2 164.7V164.8ZM40.5 64.5C62.6 64.5 80.5 82.4 80.5 104.5V144.5V224.5V264.7C80.5 281.7 87.2 298 99.2 310L150.3 361.1C158.6 369.4 171.6 370.7 181.3 364.2C194.2 355.6 196 337.3 185 326.4L169.8 311.2L137.8 279.2C125.3 266.7 125.3 246.4 137.8 233.9C150.3 221.4 170.6 221.4 183.1 233.9L215.1 265.9L230.3 281.1L255.6 306.4C276.6 327.4 288.4 355.9 288.4 385.6V464.5C288.4 491 266.9 512.5 240.4 512.5H173.8C156.8 512.5 140.5 505.8 128.5 493.8L28.6 393.9C10.6 375.9 0.5 351.5 0.5 326V224.5V160.5V104.5C0.5 82.4 18.4 64.5 40.5 64.5ZM600.5 64.5C622.6 64.5 640.5 82.4 640.5 104.5V160.5V224.5V326C640.5 351.5 630.4 375.9 612.4 393.9L512.5 493.8C500.5 505.8 484.2 512.5 467.2 512.5H400.5C374 512.5 352.5 491 352.5 464.5V385.6C352.5 355.9 364.3 327.4 385.3 306.4L410.6 281.1L425.8 265.9L457.8 233.9C470.3 221.4 490.6 221.4 503.1 233.9C515.6 246.4 515.6 266.7 503.1 279.2L471.1 311.2L455.9 326.4C444.9 337.4 446.7 355.6 459.6 364.2C469.3 370.7 482.3 369.4 490.6 361.1L541.7 310C553.7 298 560.4 281.7 560.4 264.7V224.5V144.5V104.5C560.4 82.4 578.3 64.5 600.4 64.5H600.5Z" fill="#47535F"/>
</g>
<defs>
<clipPath id="clip0_104_1590">
<rect width="640" height="512" fill="white" transform="translate(0.5 0.5)"/>
</clipPath>
</defs>
</svg>
