<svg width="449" height="513" viewBox="0 0 449 513" fill="none" xmlns="http://www.w3.org/2000/svg">
<g clip-path="url(#clip0_104_1558)">
<path d="M128.5 40.5C128.5 18.4 146.4 0.5 168.5 0.5C190.6 0.5 208.5 18.4 208.5 40.5V188.7C217 181.1 228.2 176.5 240.5 176.5C261.1 176.5 278.7 189.5 285.5 207.7C294.3 198.4 306.7 192.5 320.5 192.5C345.8 192.5 366.5 212 368.4 236.8C376.9 229.1 388.2 224.5 400.5 224.5C427 224.5 448.5 246 448.5 272.5V320.5V336.5V384.5C448.5 455.2 391.2 512.5 320.5 512.5H304.5H240.5H240.4H235.2C230.2 512.5 225.3 512.2 220.5 511.5C165.2 505.9 114.3 477.5 80.5004 432.5L8.50037 336.5C-4.79963 318.8 -1.19963 293.8 16.5004 280.5C34.2004 267.2 59.2004 270.8 72.5004 288.5L128.5 363.2V40.5ZM240.5 304.5C240.5 295.7 233.3 288.5 224.5 288.5C215.7 288.5 208.5 295.7 208.5 304.5V400.5C208.5 409.3 215.7 416.5 224.5 416.5C233.3 416.5 240.5 409.3 240.5 400.5V304.5ZM288.5 288.5C279.7 288.5 272.5 295.7 272.5 304.5V400.5C272.5 409.3 279.7 416.5 288.5 416.5C297.3 416.5 304.5 409.3 304.5 400.5V304.5C304.5 295.7 297.3 288.5 288.5 288.5ZM368.5 304.5C368.5 295.7 361.3 288.5 352.5 288.5C343.7 288.5 336.5 295.7 336.5 304.5V400.5C336.5 409.3 343.7 416.5 352.5 416.5C361.3 416.5 368.5 409.3 368.5 400.5V304.5Z" fill="#47535F"/>
</g>
<defs>
<clipPath id="clip0_104_1558">
<rect width="448" height="512" fill="white" transform="translate(0.5 0.5)"/>
</clipPath>
</defs>
</svg>
