<svg width="641" height="513" viewBox="0 0 641 513" fill="none" xmlns="http://www.w3.org/2000/svg">
<path d="M544.5 248.5V251.8L614.2 182.1C636.1 160.2 636.1 124.8 614.2 102.9L536.1 24.9C514.2 3.00001 478.8 3.00001 456.9 24.9L416.8 65C414.1 64.7 411.3 64.5 408.5 64.5H296.5C259.4 64.5 228.9 92.5 224.9 128.5H224.5V248.5C224.5 270.6 242.4 288.5 264.5 288.5C286.6 288.5 304.5 270.6 304.5 248.5V176.5V176.4V160.5H320.5H456.5C456.5 160.5 456.5 160.5 456.6 160.5H464.5C508.7 160.5 544.5 196.3 544.5 240.5V248.5ZM336.5 192.5V248.5C336.5 288.3 304.3 320.5 264.5 320.5C224.7 320.5 192.5 288.3 192.5 248.5V129.9C156.6 136.1 126.7 162.2 116.5 198.1L100 255.7L26.8 328.9C4.9 350.8 4.9 386.2 26.8 408.1L104.9 486.2C126.8 508.1 162.2 508.1 184.1 486.2L221.8 448.5C222.7 448.5 223.6 448.6 224.5 448.6H384.5C411 448.6 432.5 427.1 432.5 400.6C432.5 395 431.5 389.6 429.8 384.6H432.5C459 384.6 480.5 363.1 480.5 336.6C480.5 323.8 475.5 312.2 467.3 303.6C493 298.6 512.4 276 512.5 248.8V248.4C512.4 217.6 487.4 192.6 456.5 192.6H336.5V192.5Z" fill="#47535F"/>
</svg>
