<svg width="641" height="513" viewBox="0 0 641 513" fill="none" xmlns="http://www.w3.org/2000/svg">
<g clip-path="url(#clip0_104_1570)">
<path d="M96.5 32.5C96.5 14.8 82.2 0.5 64.5 0.5C46.8 0.5 32.5 14.8 32.5 32.5V96.5V155.6V156.3V192.5V214.4C32.5 228.6 37.6 242.3 46.8 253.1L132.1 352.5H128.5C115.2 352.5 104.5 363.2 104.5 376.5C104.5 389.8 115.2 400.5 128.5 400.5H160.5H288.5H352.5H480.5H512.5C525.8 400.5 536.5 389.8 536.5 376.5C536.5 363.2 525.8 352.5 512.5 352.5H508.9L594.2 253C603.4 242.2 608.5 228.5 608.5 214.3V192.5V156.3V155.6V96.5V32.5C608.5 14.8 594.2 0.5 576.5 0.5C558.8 0.5 544.5 14.8 544.5 32.5V96.5V145.3L475.2 237.7C469.5 245.3 459.1 247.3 451 242.5C441.3 236.8 438.9 223.8 445.9 215L473.5 180.5C484.3 167 482.4 147.2 469.1 136C455.8 124.8 436.1 126.2 424.6 139.2L377.9 191.7C361.5 210.2 352.5 233.9 352.5 258.6V320.5V352.5H288.5V320.5V258.6C288.5 234 279.5 210.2 263.1 191.8L216.4 139.3C204.9 126.3 185.1 124.9 171.9 136.1C158.7 147.3 156.7 167 167.5 180.6L195.1 215.1C202.1 223.9 199.8 236.9 190 242.6C181.9 247.4 171.4 245.3 165.8 237.8L96.5 145.3V96.5V32.5ZM160.5 480.5V512.5H288.5V480.5H352.5V512.5H480.5V480.5H512.5C525.8 480.5 536.5 469.8 536.5 456.5C536.5 443.2 525.8 432.5 512.5 432.5H480.5H352.5H288.5H160.5H128.5C115.2 432.5 104.5 443.2 104.5 456.5C104.5 469.8 115.2 480.5 128.5 480.5H160.5Z" fill="#47535F"/>
</g>
<defs>
<clipPath id="clip0_104_1570">
<rect width="640" height="512" fill="white" transform="translate(0.5 0.5)"/>
</clipPath>
</defs>
</svg>
