<svg width="641" height="513" viewBox="0 0 641 513" fill="none" xmlns="http://www.w3.org/2000/svg">
<g clip-path="url(#clip0_104_1598)">
<path d="M351.7 5.30001C354.9 3.30001 358.3 2.00001 361.7 1.20001C366.4 0.20001 371.3 0.30001 375.8 1.30001C383.5 3.10001 390.6 7.80001 395.2 14.9L515.1 194.7C523.9 207.8 528.5 223.3 528.5 239.1V312.6C528.5 319.5 532.9 325.6 539.4 327.8L618.6 354.2C631.7 358.5 640.5 370.7 640.5 384.5V480.5C640.5 490.4 635.9 499.8 628 505.9C620.1 512 609.9 514 600.3 511.4L431.5 466.4C375.5 451.5 336.5 400.7 336.5 342.7V224.5C336.5 206.8 350.8 192.5 368.5 192.5C386.2 192.5 400.5 206.8 400.5 224.5V304.5C400.5 313.3 407.7 320.5 416.5 320.5C425.3 320.5 432.5 313.3 432.5 304.5V219.6C432.5 212.6 430.7 205.8 427.2 199.8L340.8 48.6C339.1 45.6 337.9 42.5 337.2 39.3C336.2 34.6 336.2 29.7 337.3 25.2C339.2 17.2 344.1 10 351.6 5.30001H351.7ZM289.3 5.30001C296.8 9.90001 301.7 17.2 303.6 25.2C304.7 29.8 304.8 34.6 303.7 39.3C303 42.5 301.8 45.6 300.1 48.6L213.8 199.8C210.3 205.8 208.5 212.7 208.5 219.6V304.5C208.5 313.3 215.7 320.5 224.5 320.5C233.3 320.5 240.5 313.3 240.5 304.5V224.5C240.5 206.8 254.8 192.5 272.5 192.5C290.2 192.5 304.5 206.8 304.5 224.5V342.8C304.5 400.8 265.5 451.5 209.5 466.5L40.8 511.5C31.2 514.1 20.9 512 13.1 506C5.3 500 0.5 490.5 0.5 480.5V384.5C0.5 370.7 9.3 358.5 22.4 354.1L101.6 327.7C108.1 325.5 112.5 319.4 112.5 312.5V239C112.5 223.2 117.2 207.8 125.9 194.6L245.7 15C250.3 7.90001 257.4 3.20001 265.1 1.40001C269.7 0.30001 274.5 0.20001 279.2 1.30001C282.7 2.10001 286.1 3.40001 289.2 5.40001L289.3 5.30001Z" fill="#47535F"/>
</g>
<defs>
<clipPath id="clip0_104_1598">
<rect width="640" height="512" fill="white" transform="translate(0.5 0.5)"/>
</clipPath>
</defs>
</svg>
