<svg width="449" height="513" viewBox="0 0 449 513" fill="none" xmlns="http://www.w3.org/2000/svg">
<g clip-path="url(#clip0_104_1530)">
<path d="M144.5 0.5C118 0.5 96.5 22 96.5 48.5V96.5V125V176.5C96.5 185.3 89.3 192.5 80.5 192.5C71.7 192.5 64.5 185.3 64.5 176.5V149.8L55.5 157.3C40.9 169.5 32.5 187.5 32.5 206.5V244.5C32.5 282.5 49.4 318.5 78.6 342.8L128.5 384.5V480.5C128.5 498.2 142.8 512.5 160.5 512.5H320.5C338.2 512.5 352.5 498.2 352.5 480.5V375.2C399.4 356.2 432.5 310.2 432.5 256.5V176.5V160.5V144.5C432.5 118 411 96.5 384.5 96.5C372.1 96.5 360.9 101.2 352.4 108.8C350.5 84 329.8 64.5 304.5 64.5C292.1 64.5 280.9 69.2 272.4 76.8C270.5 52 249.8 32.5 224.5 32.5C212.1 32.5 200.9 37.2 192.4 44.8C190.5 20 169.8 0.5 144.5 0.5Z" fill="#47535F"/>
</g>
<defs>
<clipPath id="clip0_104_1530">
<rect width="448" height="512" fill="white" transform="translate(0.5 0.5)"/>
</clipPath>
</defs>
</svg>
