<svg width="449" height="513" viewBox="0 0 449 513" fill="none" xmlns="http://www.w3.org/2000/svg">
<g clip-path="url(#clip0_104_1552)">
<path d="M232.5 0.5C210.4 0.5 192.5 18.4 192.5 40.5V204.7C184 197.1 172.8 192.5 160.5 192.5C134 192.5 112.5 214 112.5 240.5V247.5V320.5C112.5 329.3 105.3 336.5 96.5 336.5C87.7 336.5 80.5 329.3 80.5 320.5V264.8C78.5 266.2 76.6 267.8 74.7 269.3L55.5 285.3C40.9 297.5 32.5 315.5 32.5 334.5V372.5C32.5 410.5 49.4 446.5 78.6 470.8L84 475.3C112.8 499.3 149 512.4 186.4 512.4H304.5C375.2 512.4 432.5 455.1 432.5 384.4V320.5V288.5C432.5 262 411 240.5 384.5 240.5C372.1 240.5 360.9 245.2 352.4 252.8C350.5 228 329.8 208.5 304.5 208.5C292.2 208.5 281 213.1 272.5 220.7V40.5C272.5 18.4 254.6 0.5 232.5 0.5Z" fill="#47535F"/>
</g>
<defs>
<clipPath id="clip0_104_1552">
<rect width="448" height="512" fill="white" transform="translate(0.5 0.5)"/>
</clipPath>
</defs>
</svg>
