<svg width="577" height="513" viewBox="0 0 577 513" fill="none" xmlns="http://www.w3.org/2000/svg">
<g clip-path="url(#clip0_104_1548)">
<path d="M224.5 24.5V80.5H168.5C155.2 80.5 144.5 91.2 144.5 104.5V152.5C144.5 165.8 155.2 176.5 168.5 176.5H224.5V232.5C224.5 245.8 235.2 256.5 248.5 256.5H296.5C309.8 256.5 320.5 245.8 320.5 232.5V176.5H376.5C389.8 176.5 400.5 165.8 400.5 152.5V104.5C400.5 91.2 389.8 80.5 376.5 80.5H320.5V24.5C320.5 11.2 309.8 0.5 296.5 0.5H248.5C235.2 0.5 224.5 11.2 224.5 24.5ZM560.2 392.7C578 379.6 581.8 354.6 568.7 336.8C555.6 319 530.6 315.2 512.8 328.3L393.1 416.5H272.5C263.7 416.5 256.5 409.3 256.5 400.5C256.5 391.7 263.7 384.5 272.5 384.5H288.5H352.5C370.2 384.5 384.5 370.2 384.5 352.5C384.5 334.8 370.2 320.5 352.5 320.5H288.5H272.5H194.2C165.1 320.5 136.9 330.4 114.2 348.5L69.3 384.5H32.5C14.8 384.5 0.5 398.8 0.5 416.5V480.5C0.5 498.2 14.8 512.5 32.5 512.5H192.5H353C382 512.5 410.3 503.2 433.7 486L560.3 392.7H560.2ZM193.2 384.5H194.1C193.8 384.5 193.5 384.5 193.2 384.5Z" fill="#47535F"/>
</g>
<defs>
<clipPath id="clip0_104_1548">
<rect width="576" height="512" fill="white" transform="translate(0.5 0.5)"/>
</clipPath>
</defs>
</svg>
