<svg width="577" height="513" viewBox="0 0 577 513" fill="none" xmlns="http://www.w3.org/2000/svg">
<g clip-path="url(#clip0_104_1540)">
<path d="M312.5 24.5V35C318.9 36.2 325.1 37.7 330.7 39.2C343.5 42.6 351.1 55.8 347.7 68.6C344.3 81.4 331.1 89 318.3 85.6C307.4 82.7 297.2 80.7 288.1 80.6C280.8 80.5 273.4 82.3 268.7 85C266.6 86.3 265.6 87.4 265.2 88C264.9 88.5 264.5 89.2 264.5 90.8C264.5 91.1 264.5 91.3 264.5 91.4C264.7 91.6 265.4 92.6 267.8 94C273.6 97.5 282.2 100.2 295.2 104.1L296.1 104.4C307.2 107.7 322 112.2 334 119.7C347.7 128.3 360.1 142.6 360.4 164.6C360.7 187.1 349 203.5 333.7 213.1C327 217.2 319.8 220.1 312.4 221.9V232.5C312.4 245.8 301.7 256.5 288.4 256.5C275.1 256.5 264.4 245.8 264.4 232.5V221.1C254.9 218.8 246.2 215.8 238.8 213.3C236.7 212.6 234.7 211.9 232.8 211.3C220.2 207.1 213.4 193.5 217.6 180.9C221.8 168.3 235.4 161.5 248 165.7C250.6 166.6 253 167.4 255.3 168.2C268.9 172.8 278.7 176.1 289.2 176.5C297.2 176.8 304.3 174.9 308.4 172.4C310.3 171.2 311.2 170.2 311.6 169.5C312 168.9 312.5 167.7 312.4 165.4V165.2C312.4 164.2 312.4 163.1 308.4 160.6C302.7 157 294.1 154.2 281.3 150.3L279.4 149.7C268.6 146.5 254.4 142.2 243 135.3C229.5 127.2 216.5 113.3 216.4 91.2C216.3 68.3 229.3 52.6 244.1 43.8C250.5 40 257.4 37.4 264.3 35.6V24.5C264.3 11.2 275 0.5 288.3 0.5C301.6 0.5 312.3 11.2 312.3 24.5H312.5ZM568.7 336.8C581.8 354.6 578 379.6 560.2 392.7L433.6 486C410.2 503.2 382 512.5 352.9 512.5H192.5H32.5C14.8 512.5 0.5 498.2 0.5 480.5V416.5C0.5 398.8 14.8 384.5 32.5 384.5H69.3L114.2 348.5C136.9 330.3 165.1 320.5 194.2 320.5H272.5H288.5H352.5C370.2 320.5 384.5 334.8 384.5 352.5C384.5 370.2 370.2 384.5 352.5 384.5H288.5H272.5C263.7 384.5 256.5 391.7 256.5 400.5C256.5 409.3 263.7 416.5 272.5 416.5H393.1L512.8 328.3C530.6 315.2 555.6 319 568.7 336.8ZM194.1 384.5H193.2C193.5 384.5 193.8 384.5 194.1 384.5Z" fill="#47535F"/>
</g>
<defs>
<clipPath id="clip0_104_1540">
<rect width="576" height="512" fill="white" transform="translate(0.5 0.5)"/>
</clipPath>
</defs>
</svg>
