<svg width="513" height="513" viewBox="0 0 513 513" fill="none" xmlns="http://www.w3.org/2000/svg">
<g clip-path="url(#clip0_104_1574)">
<path d="M40.5 208.5C18.4 208.5 0.5 226.4 0.5 248.5C0.5 270.6 18.4 288.5 40.5 288.5H220.7C213.1 297 208.5 308.2 208.5 320.5C208.5 345.8 228 366.5 252.8 368.4C245.1 376.9 240.5 388.2 240.5 400.5C240.5 427 262 448.5 288.5 448.5H320.5H384.5C455.2 448.5 512.5 391.2 512.5 320.5V207.4C512.5 167.2 496.5 128.6 468.1 100.1C445.3 77.3 414.4 64.5 382.2 64.5H336.5C315.2 64.5 297.2 78.4 290.9 97.6L365.4 121.3C373.8 124 378.5 133 375.8 141.4C373.1 149.8 364.1 154.5 355.7 151.8L288.5 130.4V130.5L84.5 66.3C63.4 59.7 41 71.4 34.3 92.5C27.6 113.6 39.4 136 60.5 142.7L270 208.5H40.5Z" fill="#47535F"/>
</g>
<defs>
<clipPath id="clip0_104_1574">
<rect width="512" height="512" fill="white" transform="translate(0.5 0.5)"/>
</clipPath>
</defs>
</svg>
