<svg width="513" height="513" viewBox="0 0 513 513" fill="none" xmlns="http://www.w3.org/2000/svg">
<g clip-path="url(#clip0_104_1534)">
<path d="M288.5 32.5C288.5 14.8 274.2 0.5 256.5 0.5C238.8 0.5 224.5 14.8 224.5 32.5V240.5C224.5 249.3 217.3 256.5 208.5 256.5C199.7 256.5 192.5 249.3 192.5 240.5V64.5C192.5 46.8 178.2 32.5 160.5 32.5C142.8 32.5 128.5 46.8 128.5 64.5V336.5C128.5 338 128.5 339.6 128.6 341.1L68.0999 283.5C52.0999 268.3 26.7999 268.9 11.4999 284.9C-3.80008 300.9 -3.10008 326.2 12.8999 341.5L125.3 448.5C168.4 489.6 225.7 512.5 285.3 512.5H304.5C401.7 512.5 480.5 433.7 480.5 336.5V128.5C480.5 110.8 466.2 96.5 448.5 96.5C430.8 96.5 416.5 110.8 416.5 128.5V240.5C416.5 249.3 409.3 256.5 400.5 256.5C391.7 256.5 384.5 249.3 384.5 240.5V64.5C384.5 46.8 370.2 32.5 352.5 32.5C334.8 32.5 320.5 46.8 320.5 64.5V240.5C320.5 249.3 313.3 256.5 304.5 256.5C295.7 256.5 288.5 249.3 288.5 240.5V32.5ZM240.5 336.5C240.5 332.257 242.186 328.187 245.186 325.186C248.187 322.186 252.256 320.5 256.5 320.5C260.743 320.5 264.813 322.186 267.814 325.186C270.814 328.187 272.5 332.257 272.5 336.5C272.5 340.743 270.814 344.813 267.814 347.814C264.813 350.814 260.743 352.5 256.5 352.5C252.256 352.5 248.187 350.814 245.186 347.814C242.186 344.813 240.5 340.743 240.5 336.5ZM320.5 352.5C324.743 352.5 328.813 354.186 331.814 357.186C334.814 360.187 336.5 364.257 336.5 368.5C336.5 372.743 334.814 376.813 331.814 379.814C328.813 382.814 324.743 384.5 320.5 384.5C316.256 384.5 312.187 382.814 309.186 379.814C306.186 376.813 304.5 372.743 304.5 368.5C304.5 364.257 306.186 360.187 309.186 357.186C312.187 354.186 316.256 352.5 320.5 352.5ZM368.5 336.5C368.5 332.257 370.186 328.187 373.186 325.186C376.187 322.186 380.256 320.5 384.5 320.5C388.743 320.5 392.813 322.186 395.814 325.186C398.814 328.187 400.5 332.257 400.5 336.5C400.5 340.743 398.814 344.813 395.814 347.814C392.813 350.814 388.743 352.5 384.5 352.5C380.256 352.5 376.187 350.814 373.186 347.814C370.186 344.813 368.5 340.743 368.5 336.5ZM352.5 416.5C356.743 416.5 360.813 418.186 363.814 421.186C366.814 424.187 368.5 428.257 368.5 432.5C368.5 436.743 366.814 440.813 363.814 443.814C360.813 446.814 356.743 448.5 352.5 448.5C348.256 448.5 344.187 446.814 341.186 443.814C338.186 440.813 336.5 436.743 336.5 432.5C336.5 428.257 338.186 424.187 341.186 421.186C344.187 418.186 348.256 416.5 352.5 416.5ZM240.5 432.5C240.5 428.257 242.186 424.187 245.186 421.186C248.187 418.186 252.256 416.5 256.5 416.5C260.743 416.5 264.813 418.186 267.814 421.186C270.814 424.187 272.5 428.257 272.5 432.5C272.5 436.743 270.814 440.813 267.814 443.814C264.813 446.814 260.743 448.5 256.5 448.5C252.256 448.5 248.187 446.814 245.186 443.814C242.186 440.813 240.5 436.743 240.5 432.5ZM192.5 384.5C196.743 384.5 200.813 386.186 203.814 389.186C206.814 392.187 208.5 396.257 208.5 400.5C208.5 404.743 206.814 408.813 203.814 411.814C200.813 414.814 196.743 416.5 192.5 416.5C188.256 416.5 184.187 414.814 181.186 411.814C178.186 408.813 176.5 404.743 176.5 400.5C176.5 396.257 178.186 392.187 181.186 389.186C184.187 386.186 188.256 384.5 192.5 384.5Z" fill="#47535F"/>
</g>
<defs>
<clipPath id="clip0_104_1534">
<rect width="512" height="512" fill="white" transform="translate(0.5 0.5)"/>
</clipPath>
</defs>
</svg>
