<svg width="577" height="513" viewBox="0 0 577 513" fill="none" xmlns="http://www.w3.org/2000/svg">
<g clip-path="url(#clip0_104_1596)">
<path d="M247.4 24.2C242.8 7.10002 225.3 -2.99998 208.2 1.60001C191.1 6.20001 181 23.7 185.6 40.8L238.5 238.3C241 247.5 234 256.5 224.5 256.5C218.1 256.5 212.5 252.3 210.6 246.2L167.1 103.2C162 86.3 144.1 76.8 127.2 81.9C110.3 87 100.8 104.9 105.9 121.8L168.7 328.2C171.1 336.1 161.5 342 155.5 336.3L100.1 283.5C84.0999 268.3 58.7999 268.9 43.4999 284.9C28.1999 300.9 28.8999 326.2 44.8999 341.5L157.3 448.5C200.4 489.6 257.7 512.5 317.3 512.5H328.2H336.4C336.5 512.5 336.5 512.4 336.5 512.4C336.5 512.3 336.6 512.3 336.6 512.3C394.9 508.8 445.2 469.1 461.9 412.6L543.1 137.6C548.1 120.7 538.4 102.9 521.5 97.8C504.6 92.7 486.8 102.5 481.7 119.4L444 247.6C442.4 252.9 437.6 256.5 432 256.5C424.1 256.5 418.2 249.2 419.8 241.4L455.8 71.1C459.5 53.8 448.4 36.8 431.1 33.2C413.8 29.6 396.8 40.6 393.2 57.9L355.6 235.6C353 247.8 342.3 256.5 329.8 256.5C317.9 256.5 307.4 248.5 304.4 237L247.4 24.2Z" fill="#47535F"/>
</g>
<defs>
<clipPath id="clip0_104_1596">
<rect width="576" height="512" fill="white" transform="translate(0.5 0.5)"/>
</clipPath>
</defs>
</svg>
