<svg width="641" height="513" viewBox="0 0 641 513" fill="none" xmlns="http://www.w3.org/2000/svg">
<g clip-path="url(#clip0_104_1568)">
<path d="M157.1 46.8C165 31 158.6 11.8 142.8 3.90001C127 -3.99999 107.8 2.40001 99.9 18.2L14 189.9C5.1 207.7 0.5 227.3 0.5 247.2V256.5C0.5 327.2 57.8 384.5 128.5 384.5H200.5H208.5V384.2C243.7 381.5 273.9 361.4 290.6 332.5C299.4 317.2 294.2 297.6 278.9 288.8C263.6 280 244 285.2 235.2 300.5C228.2 312.5 215.3 320.5 200.5 320.5C178.4 320.5 160.5 302.6 160.5 280.5C160.5 258.4 178.4 240.5 200.5 240.5C215.3 240.5 228.2 248.5 235.2 260.5C244 275.8 263.6 281 278.9 272.2C294.2 263.4 299.4 243.8 290.6 228.5C277.8 206.4 257 189.4 232.2 181.4L313 159.4C330 154.8 340.1 137.2 335.5 120.1C330.9 103 313.3 93 296.2 97.6L195.4 125.1L277 57.1C290.6 45.8 292.4 25.6 281.1 12C269.8 -1.59999 249.6 -3.39999 236 7.90001L134.1 92.8L157.1 46.8ZM483.9 466.2C476 482 482.4 501.2 498.2 509.1C514 517 533.2 510.6 541.1 494.8L627 323.1C635.9 305.3 640.5 285.7 640.5 265.9V256.5C640.5 185.8 583.2 128.5 512.5 128.5H440.5H432.5V128.8C397.3 131.5 367.1 151.6 350.4 180.5C341.5 195.8 346.8 215.4 362.1 224.2C377.4 233 397 227.8 405.8 212.5C412.8 200.5 425.7 192.5 440.5 192.5C462.6 192.5 480.5 210.4 480.5 232.5C480.5 254.6 462.6 272.5 440.5 272.5C425.7 272.5 412.8 264.5 405.8 252.5C396.9 237.2 377.4 232 362.1 240.8C346.8 249.6 341.6 269.2 350.4 284.5C363.2 306.6 384 323.6 408.8 331.6L328 353.6C310.9 358.3 300.9 375.8 305.5 392.9C310.1 410 327.7 420 344.8 415.4L445.5 387.9L363.9 455.9C350.3 467.2 348.5 487.4 359.8 501C371.1 514.6 391.3 516.4 404.9 505.1L506.8 420.2L483.8 466.2H483.9Z" fill="#47535F"/>
</g>
<defs>
<clipPath id="clip0_104_1568">
<rect width="640" height="512" fill="white" transform="translate(0.5 0.5)"/>
</clipPath>
</defs>
</svg>
