<svg width="513" height="513" viewBox="0 0 513 513" fill="none" xmlns="http://www.w3.org/2000/svg">
<g clip-path="url(#clip0_104_1550)">
<path d="M0.5 112.5C0.5 86 22 64.5 48.5 64.5H160.5H240.5H287C323.8 64.5 358.2 82.5 379.1 112.7L492.6 276.7C505.6 295.4 512.5 317.7 512.5 340.5V352.5V368.5V416.5C512.5 434.2 498.2 448.5 480.5 448.5H384.5C366.8 448.5 352.5 434.2 352.5 416.5V402.7L274.4 352.5H240.5H160.5H112.5C86 352.5 64.5 331 64.5 304.5C64.5 278 86 256.5 112.5 256.5H160.5H240.5C267 256.5 288.5 235 288.5 208.5C288.5 182 267 160.5 240.5 160.5H160.5H48.5C22 160.5 0.5 139 0.5 112.5Z" fill="#47535F"/>
</g>
<defs>
<clipPath id="clip0_104_1550">
<rect width="512" height="512" fill="white" transform="translate(0.5 0.5)"/>
</clipPath>
</defs>
</svg>
