<svg width="513" height="513" viewBox="0 0 513 513" fill="none" xmlns="http://www.w3.org/2000/svg">
<g clip-path="url(#clip0_104_1562)">
<path d="M480.5 96.5C498.2 96.5 512.5 110.8 512.5 128.5C512.5 146.2 498.2 160.5 480.5 160.5H272.5V96.5H480.5ZM320.5 288.5C338.2 288.5 352.5 302.8 352.5 320.5C352.5 338.2 338.2 352.5 320.5 352.5H256.5C238.8 352.5 224.5 338.2 224.5 320.5C224.5 302.8 238.8 288.5 256.5 288.5H320.5ZM384.5 224.5C384.5 242.2 370.2 256.5 352.5 256.5H304.5C286.8 256.5 272.5 242.2 272.5 224.5C272.5 206.8 286.8 192.5 304.5 192.5H352.5C370.2 192.5 384.5 206.8 384.5 224.5ZM288.5 384.5C306.2 384.5 320.5 398.8 320.5 416.5C320.5 434.2 306.2 448.5 288.5 448.5H224.5C206.8 448.5 192.5 434.2 192.5 416.5C192.5 398.8 206.8 384.5 224.5 384.5H288.5ZM200.5 288.5H201.1C195.7 297.9 192.5 308.8 192.5 320.5C192.5 333.7 196.5 345.9 203.3 356.1C178.4 364.8 160.5 388.6 160.5 416.5C160.5 428.2 163.6 439.1 169.1 448.5H160.5C72.1 448.5 0.5 376.9 0.5 288.5V226.8C0.5 184.4 17.4 143.7 47.4 113.7L59 102.1C83 78 115.6 64.5 149.5 64.5H176.5C211.8 64.5 240.5 93.2 240.5 128.5V216.5C240.5 238.6 222.6 256.5 200.5 256.5C178.4 256.5 160.5 238.6 160.5 216.5V160.5C160.5 151.7 153.3 144.5 144.5 144.5C135.7 144.5 128.5 151.7 128.5 160.5V216.5C128.5 256.3 160.7 288.5 200.5 288.5Z" fill="#47535F"/>
</g>
<defs>
<clipPath id="clip0_104_1562">
<rect width="512" height="512" fill="white" transform="translate(0.5 0.5)"/>
</clipPath>
</defs>
</svg>
