<svg width="641" height="513" viewBox="0 0 641 513" fill="none" xmlns="http://www.w3.org/2000/svg">
<g clip-path="url(#clip0_104_1586)">
<path d="M39.2998 5.60001C28.8998 -2.59999 13.7998 -0.699994 5.59976 9.70001C-2.60024 20.1 -0.700238 35.2 9.69976 43.4L601.7 507.4C612.1 515.6 627.2 513.7 635.4 503.3C643.6 492.9 641.7 477.8 631.3 469.6L496.3 363.8C495.2 352.5 490 341.5 481 333.1L346.8 210.1L323.4 228.3L297.4 208L374.6 147.9C381.6 142.5 391.6 143.7 397.1 150.7C402.6 157.7 401.3 167.7 394.3 173.2L373.4 189.4L512.5 317.3V128.5H511.8L507.9 126L435.3 79.5C420 69.7 402.1 64.5 383.9 64.5C362.1 64.5 340.9 72 323.9 85.7L234.2 158.3L208.4 138L290.2 71.8C278.6 66.9 266.1 64.4 253.4 64.4C234.5 64.5 216.2 70.1 200.5 80.5L165 104.2L39.2998 5.60001ZM414.1 422.4L128.5 197.3V352.5H156.7L248.1 435.9C267.7 453.8 298 452.4 315.9 432.8C321.4 426.7 325.1 419.6 327 412.2L344 427.8C363.5 445.7 393.9 444.4 411.8 424.9C412.6 424.1 413.3 423.2 414 422.3L414.1 422.4ZM96.4998 172.1L41.0998 128.5H16.4998C7.69976 128.5 0.499762 135.7 0.499762 144.5V352.5C0.499762 370.2 14.7998 384.5 32.4998 384.5H64.4998C82.1998 384.5 96.4998 370.2 96.4998 352.5V172.1ZM48.4998 320.5C52.7432 320.5 56.8129 322.186 59.8135 325.186C62.8141 328.187 64.4998 332.257 64.4998 336.5C64.4998 340.743 62.8141 344.813 59.8135 347.814C56.8129 350.814 52.7432 352.5 48.4998 352.5C44.2563 352.5 40.1866 350.814 37.1861 347.814C34.1855 344.813 32.4998 340.743 32.4998 336.5C32.4998 332.257 34.1855 328.187 37.1861 325.186C40.1866 322.186 44.2563 320.5 48.4998 320.5ZM544.5 128.5V352.5C544.5 370.2 558.8 384.5 576.5 384.5H608.5C626.2 384.5 640.5 370.2 640.5 352.5V144.5C640.5 135.7 633.3 128.5 624.5 128.5H544.5ZM576.5 336.5C576.5 332.257 578.185 328.187 581.186 325.186C584.187 322.186 588.256 320.5 592.5 320.5C596.743 320.5 600.813 322.186 603.813 325.186C606.814 328.187 608.5 332.257 608.5 336.5C608.5 340.743 606.814 344.813 603.813 347.814C600.813 350.814 596.743 352.5 592.5 352.5C588.256 352.5 584.187 350.814 581.186 347.814C578.185 344.813 576.5 340.743 576.5 336.5Z" fill="#47535F"/>
</g>
<defs>
<clipPath id="clip0_104_1586">
<rect width="640" height="512" fill="white" transform="translate(0.5 0.5)"/>
</clipPath>
</defs>
</svg>
