<svg width="641" height="513" viewBox="0 0 641 513" fill="none" xmlns="http://www.w3.org/2000/svg">
<g clip-path="url(#clip0_104_1578)">
<path d="M323.9 85.7L227.1 164.1C211 177.1 207.9 200.5 220.1 217.2C233 235 258.1 238.5 275.4 225L374.7 147.8C381.7 142.4 391.7 143.6 397.2 150.6C402.7 157.6 401.4 167.6 394.4 173.1L373.5 189.3L512.5 317.3V128.5H511.8L507.9 126L435.3 79.5C420 69.7 402.1 64.5 383.9 64.5C362.1 64.5 340.9 72 323.9 85.7ZM346.7 210.1L295 250.3C263.5 274.9 217.8 268.5 194.2 236.1C172 205.6 177.6 163 206.9 139.3L290.1 72C278.5 67.1 266 64.6 253.3 64.6C234.5 64.5 216.2 70.1 200.5 80.5L128.5 128.5V352.5H156.7L248.1 435.9C267.7 453.8 298 452.4 315.9 432.8C321.4 426.7 325.1 419.6 327 412.2L344 427.8C363.5 445.7 393.9 444.4 411.8 424.9C416.3 420 419.6 414.3 421.7 408.4C441.1 421.4 467.5 418.7 483.8 400.9C501.7 381.4 500.4 351 480.9 333.1L346.7 210.1ZM16.5 128.5C7.7 128.5 0.5 135.7 0.5 144.5V352.5C0.5 370.2 14.8 384.5 32.5 384.5H64.5C82.2 384.5 96.5 370.2 96.5 352.5V128.5H16.5ZM48.5 320.5C52.7435 320.5 56.8131 322.186 59.8137 325.186C62.8143 328.187 64.5 332.257 64.5 336.5C64.5 340.743 62.8143 344.813 59.8137 347.814C56.8131 350.814 52.7435 352.5 48.5 352.5C44.2565 352.5 40.1869 350.814 37.1863 347.814C34.1857 344.813 32.5 340.743 32.5 336.5C32.5 332.257 34.1857 328.187 37.1863 325.186C40.1869 322.186 44.2565 320.5 48.5 320.5ZM544.5 128.5V352.5C544.5 370.2 558.8 384.5 576.5 384.5H608.5C626.2 384.5 640.5 370.2 640.5 352.5V144.5C640.5 135.7 633.3 128.5 624.5 128.5H544.5ZM576.5 336.5C576.5 332.257 578.186 328.187 581.186 325.186C584.187 322.186 588.257 320.5 592.5 320.5C596.743 320.5 600.813 322.186 603.814 325.186C606.814 328.187 608.5 332.257 608.5 336.5C608.5 340.743 606.814 344.813 603.814 347.814C600.813 350.814 596.743 352.5 592.5 352.5C588.257 352.5 584.187 350.814 581.186 347.814C578.186 344.813 576.5 340.743 576.5 336.5Z" fill="#47535F"/>
</g>
<defs>
<clipPath id="clip0_104_1578">
<rect width="640" height="512" fill="white" transform="translate(0.5 0.5)"/>
</clipPath>
</defs>
</svg>
