<svg width="513" height="513" viewBox="0 0 513 513" fill="none" xmlns="http://www.w3.org/2000/svg">
<g clip-path="url(#clip0_104_1576)">
<path d="M336.499 16.5V80.5C336.499 89.3 329.299 96.5 320.499 96.5C311.699 96.5 304.499 89.3 304.499 80.5V16.5C304.499 7.7 311.699 0.5 320.499 0.5C329.299 0.5 336.499 7.7 336.499 16.5ZM237.799 23.6L269.799 71.6C274.699 79 272.699 88.9 265.399 93.8C258.099 98.7 248.099 96.7 243.199 89.4L211.199 41.4C206.299 34 208.299 24.1 215.599 19.2C222.899 14.3 232.899 16.3 237.799 23.6ZM135.499 119.5C144.899 110.1 160.099 110.1 169.399 119.5L293.199 243.2C303.299 253.3 320.499 246.1 320.499 231.9V192.5C320.499 174.8 334.799 160.5 352.499 160.5C370.199 160.5 384.499 174.8 384.499 192.5V346.1C384.499 403.2 354.499 456.1 305.599 485.5C241.599 523.9 159.799 513.8 107.099 461.1L7.49922 361.5C-1.90078 352.1 -1.90078 336.9 7.49922 327.6C16.8992 318.3 32.0992 318.2 41.3992 327.6L94.3992 380.6C100.499 386.7 110.399 386.7 116.499 380.6C122.599 374.5 122.599 364.6 116.499 358.5L23.4992 265.5C14.0992 256.1 14.0992 240.9 23.4992 231.6C32.8992 222.3 48.0992 222.2 57.3992 231.6L150.399 324.6C156.499 330.7 166.399 330.7 172.499 324.6C178.599 318.5 178.599 308.6 172.499 302.5L55.4992 185.5C46.0992 176.1 46.0992 160.9 55.4992 151.6C64.8992 142.3 80.0992 142.2 89.3992 151.6L206.399 268.6C212.499 274.7 222.399 274.7 228.499 268.6C234.599 262.5 234.599 252.6 228.499 246.5L135.499 153.5C126.099 144.1 126.099 128.9 135.499 119.6V119.5ZM433.599 485.4C409.399 499.9 382.699 507.5 355.899 508.5C403.999 468.9 432.499 409.5 432.499 346.1V248C440.699 247.9 448.499 241.6 448.499 232V192.5C448.499 174.8 462.799 160.5 480.499 160.5C498.199 160.5 512.499 174.8 512.499 192.5V346.1C512.499 403.2 482.499 456.1 433.599 485.5V485.4ZM425.399 19.2C432.799 24.1 434.699 34 429.799 41.4L397.799 89.4C392.899 96.8 382.999 98.7 375.599 93.8C368.199 88.9 366.299 79 371.199 71.6L403.199 23.6C408.099 16.2 417.999 14.3 425.399 19.2Z" fill="#47535F"/>
</g>
<defs>
<clipPath id="clip0_104_1576">
<rect width="512" height="512" fill="white" transform="translate(0.5 0.5)"/>
</clipPath>
</defs>
</svg>
