<svg width="577" height="513" viewBox="0 0 577 513" fill="none" xmlns="http://www.w3.org/2000/svg">
<g clip-path="url(#clip0_104_1572)">
<path d="M416.5 64.5C424.987 64.5 433.126 61.1286 439.127 55.1274C445.129 49.1263 448.5 40.9869 448.5 32.5C448.5 24.0131 445.129 15.8737 439.127 9.87258C433.126 3.87142 424.987 0.5 416.5 0.5C408.013 0.5 399.874 3.87142 393.873 9.87258C387.871 15.8737 384.5 24.0131 384.5 32.5C384.5 40.9869 387.871 49.1263 393.873 55.1274C399.874 61.1286 408.013 64.5 416.5 64.5ZM512.5 192.5C520.987 192.5 529.126 189.129 535.127 183.127C541.129 177.126 544.5 168.987 544.5 160.5C544.5 152.013 541.129 143.874 535.127 137.873C529.126 131.871 520.987 128.5 512.5 128.5C504.013 128.5 495.874 131.871 489.873 137.873C483.871 143.874 480.5 152.013 480.5 160.5C480.5 168.987 483.871 177.126 489.873 183.127C495.874 189.129 504.013 192.5 512.5 192.5ZM160.5 464.5C160.5 458.197 159.258 451.955 156.846 446.131C154.434 440.308 150.898 435.016 146.441 430.559C141.984 426.102 136.692 422.566 130.869 420.154C125.045 417.742 118.803 416.5 112.5 416.5C106.197 416.5 99.9548 417.742 94.1312 420.154C88.3076 422.566 83.0161 426.102 78.5589 430.559C74.1017 435.016 70.566 440.308 68.1538 446.131C65.7416 451.955 64.5 458.197 64.5 464.5C64.5 470.803 65.7416 477.045 68.1538 482.869C70.566 488.692 74.1017 493.984 78.5589 498.441C83.0161 502.898 88.3076 506.434 94.1312 508.846C99.9548 511.258 106.197 512.5 112.5 512.5C118.803 512.5 125.045 511.258 130.869 508.846C136.692 506.434 141.984 502.898 146.441 498.441C150.898 493.984 154.434 488.692 156.846 482.869C159.258 477.045 160.5 470.803 160.5 464.5ZM32.5 160.5L32.6 233.1C32.7 285.3 56.6 334.1 96.6 366.2C96.5 364.3 96.5 362.4 96.5 360.5V352.5C96.5 280.7 133.5 213.9 194.4 175.8L254.6 138.2C263.2 132.8 272.5 129.8 281.9 128.8L327.8 49.3C334.4 37.8 330.5 23.1 319 16.5C307.5 9.9 292.8 13.8 286.2 25.3L208.2 160.4C204.9 166.1 197.5 168.1 191.8 164.8C186.1 161.5 184.1 154.1 187.4 148.4L249.4 41C256 29.5 252.1 14.8 240.6 8.2C229.1 1.6 214.5 5.5 207.9 17L139.9 134.8L96.6 209.8L96.5 160.5C96.5 142.8 82.1 128.5 64.5 128.5C46.9 128.5 32.5 142.9 32.5 160.5ZM332.6 89L308 131.5C321.9 136 334.4 145.2 342.7 158.5C343.6 160 344.4 161.4 345.2 162.9L374.1 112.9C380.7 101.4 376.8 86.7 365.3 80.1C353.8 73.5 339.1 77.4 332.5 88.9L332.6 89ZM379 152.7L352.2 199.1C351.6 205.1 350.1 210.9 347.9 216.5H352.5H365.8H397.5L420.5 176.7C427.1 165.2 423.2 150.5 411.7 143.9C400.2 137.3 385.5 141.2 378.9 152.7H379ZM315.6 175.5C306.2 160.5 286.5 156 271.5 165.3L211.3 202.9C159.8 235.2 128.5 291.7 128.5 352.5V360.5C128.5 369.4 129.3 378.1 130.7 386.6C166.1 394.8 192.5 426.6 192.5 464.5C192.5 470.8 191.8 477 190.4 482.9C215.6 501.5 246.8 512.5 280.5 512.5H456.5C469.8 512.5 480.5 501.8 480.5 488.5C480.5 475.2 469.8 464.5 456.5 464.5H364.5C357.9 464.5 352.5 459.1 352.5 452.5C352.5 445.9 357.9 440.5 364.5 440.5H488.5C501.8 440.5 512.5 429.8 512.5 416.5C512.5 403.2 501.8 392.5 488.5 392.5H364.5C357.9 392.5 352.5 387.1 352.5 380.5C352.5 373.9 357.9 368.5 364.5 368.5H520.5C533.8 368.5 544.5 357.8 544.5 344.5C544.5 331.2 533.8 320.5 520.5 320.5H364.5C357.9 320.5 352.5 315.1 352.5 308.5C352.5 301.9 357.9 296.5 364.5 296.5H488.5C501.8 296.5 512.5 285.8 512.5 272.5C512.5 259.2 501.8 248.5 488.5 248.5H352.5H259.3L305.5 219.6C320.5 210.2 325 190.5 315.7 175.5H315.6Z" fill="#47535F"/>
</g>
<defs>
<clipPath id="clip0_104_1572">
<rect width="576" height="512" fill="white" transform="translate(0.5 0.5)"/>
</clipPath>
</defs>
</svg>
