<svg width="641" height="513" viewBox="0 0 641 513" fill="none" xmlns="http://www.w3.org/2000/svg">
<g clip-path="url(#clip0_104_1584)">
<path d="M39.2998 5.60001C28.8998 -2.59999 13.7998 -0.699994 5.59976 9.70001C-2.60024 20.1 -0.700238 35.2 9.69976 43.4L601.7 507.4C612.1 515.6 627.2 513.7 635.4 503.3C643.6 492.9 641.7 477.8 631.3 469.6L496.3 363.8C495.2 352.5 490 341.5 481 333.1L346.8 210.1L323.4 228.3L297.4 208L374.6 147.9C381.6 142.5 391.6 143.7 397.1 150.7C402.6 157.7 401.3 167.7 394.3 173.2L373.4 189.4L550.7 352.5H592.5C619 352.5 640.5 331 640.5 304.5V176.5C640.5 150 619 128.5 592.5 128.5H516.5H512.5H511.8L507.9 126L435.3 79.5C420 69.7 402.1 64.5 383.9 64.5C362.1 64.5 340.9 72 323.9 85.7L234.2 158.3L208.4 138L290.2 71.8C278.6 66.9 266.1 64.4 253.4 64.4C234.5 64.5 216.2 70.1 200.5 80.5L165 104.2L39.2998 5.60001ZM414.1 422.4L41.6998 129C18.3998 132.3 0.499762 152.3 0.499762 176.5V304.5C0.499762 331 21.9998 352.5 48.4998 352.5H156.7L248.1 435.9C267.7 453.8 298 452.4 315.9 432.8C321.4 426.7 325.1 419.6 327 412.2L344 427.8C363.5 445.7 393.9 444.4 411.8 424.9C412.6 424.1 413.3 423.2 414 422.3L414.1 422.4Z" fill="#47535F"/>
</g>
<defs>
<clipPath id="clip0_104_1584">
<rect width="640" height="512" fill="white" transform="translate(0.5 0.5)"/>
</clipPath>
</defs>
</svg>
