<svg width="513" height="513" viewBox="0 0 513 513" fill="none" xmlns="http://www.w3.org/2000/svg">
<g clip-path="url(#clip0_104_1560)">
<path d="M32.5 96.5C14.8 96.5 0.5 110.8 0.5 128.5C0.5 146.2 14.8 160.5 32.5 160.5H240.5V96.5H32.5ZM192.5 288.5C174.8 288.5 160.5 302.8 160.5 320.5C160.5 338.2 174.8 352.5 192.5 352.5H256.5C274.2 352.5 288.5 338.2 288.5 320.5C288.5 302.8 274.2 288.5 256.5 288.5H192.5ZM128.5 224.5C128.5 242.2 142.8 256.5 160.5 256.5H208.5C226.2 256.5 240.5 242.2 240.5 224.5C240.5 206.8 226.2 192.5 208.5 192.5H160.5C142.8 192.5 128.5 206.8 128.5 224.5ZM224.5 384.5C206.8 384.5 192.5 398.8 192.5 416.5C192.5 434.2 206.8 448.5 224.5 448.5H288.5C306.2 448.5 320.5 434.2 320.5 416.5C320.5 398.8 306.2 384.5 288.5 384.5H224.5ZM312.5 288.5H311.9C317.3 297.9 320.5 308.8 320.5 320.5C320.5 333.7 316.5 345.9 309.7 356.1C334.6 364.8 352.5 388.6 352.5 416.5C352.5 428.2 349.4 439.1 343.9 448.5H352.5C440.9 448.5 512.5 376.9 512.5 288.5V226.8C512.5 184.4 495.6 143.7 465.6 113.7L454 102.1C430 78 397.4 64.5 363.5 64.5H336.5C301.2 64.5 272.5 93.2 272.5 128.5V216.5C272.5 238.6 290.4 256.5 312.5 256.5C334.6 256.5 352.5 238.6 352.5 216.5V160.5C352.5 151.7 359.7 144.5 368.5 144.5C377.3 144.5 384.5 151.7 384.5 160.5V216.5C384.5 256.3 352.3 288.5 312.5 288.5Z" fill="#47535F"/>
</g>
<defs>
<clipPath id="clip0_104_1560">
<rect width="512" height="512" fill="white" transform="translate(0.5 0.5)"/>
</clipPath>
</defs>
</svg>
