<svg width="577" height="513" viewBox="0 0 577 513" fill="none" xmlns="http://www.w3.org/2000/svg">
<g clip-path="url(#clip0_104_1544)">
<path d="M8.3 208.2C-4.8 190.4 -1 165.4 16.8 152.3L143.4 59C166.7 41.8 195 32.5 224 32.5H384.5H544.5C562.2 32.5 576.5 46.8 576.5 64.5V128.5C576.5 146.2 562.2 160.5 544.5 160.5H507.7L462.8 196.5C440.1 214.7 411.9 224.5 382.8 224.5H304.5H288.5H224.5C206.8 224.5 192.5 210.2 192.5 192.5C192.5 174.8 206.8 160.5 224.5 160.5H288.5H304.5C313.3 160.5 320.5 153.3 320.5 144.5C320.5 135.7 313.3 128.5 304.5 128.5H183.9L64.2 216.7C46.4 229.8 21.4 226 8.3 208.2ZM382.9 160.5H383.8C383.5 160.5 383.2 160.5 382.9 160.5ZM568.7 304.8C581.8 322.6 578 347.6 560.2 360.7L433.6 454C410.2 471.2 382 480.5 352.9 480.5H192.5H32.5C14.8 480.5 0.5 466.2 0.5 448.5V384.5C0.5 366.8 14.8 352.5 32.5 352.5H69.3L114.2 316.5C136.9 298.3 165.1 288.5 194.2 288.5H272.5H288.5H352.5C370.2 288.5 384.5 302.8 384.5 320.5C384.5 338.2 370.2 352.5 352.5 352.5H288.5H272.5C263.7 352.5 256.5 359.7 256.5 368.5C256.5 377.3 263.7 384.5 272.5 384.5H393.1L512.8 296.3C530.6 283.2 555.6 287 568.7 304.8ZM194.1 352.5H193.2C193.5 352.5 193.8 352.5 194.1 352.5Z" fill="#47535F"/>
</g>
<defs>
<clipPath id="clip0_104_1544">
<rect width="576" height="512" fill="white" transform="translate(0.5 0.5)"/>
</clipPath>
</defs>
</svg>
