<svg width="449" height="513" viewBox="0 0 449 513" fill="none" xmlns="http://www.w3.org/2000/svg">
<g clip-path="url(#clip0_104_1536)">
<path d="M192.5 0.5C210.2 0.5 224.5 14.8 224.5 32.5V144.5H160.5V32.5C160.5 14.8 174.8 0.5 192.5 0.5ZM64.5 64.5C64.5 46.8 78.8 32.5 96.5 32.5C114.2 32.5 128.5 46.8 128.5 64.5V144.5H64.5V64.5ZM256.5 64.5C256.5 46.8 270.8 32.5 288.5 32.5C306.2 32.5 320.5 46.8 320.5 64.5V160.5C320.5 178.2 306.2 192.5 288.5 192.5C270.8 192.5 256.5 178.2 256.5 160.5V64.5ZM352.5 128.5C352.5 110.8 366.8 96.5 384.5 96.5C402.2 96.5 416.5 110.8 416.5 128.5V192.5C416.5 210.2 402.2 224.5 384.5 224.5C366.8 224.5 352.5 210.2 352.5 192.5V128.5ZM256.5 216.5V215.9C265.9 221.3 276.8 224.5 288.5 224.5C301.7 224.5 313.9 220.5 324.1 213.7C332.8 238.6 356.6 256.5 384.5 256.5C396.2 256.5 407.1 253.4 416.5 247.9V256.5C416.5 308.8 391.4 355.3 352.5 384.5V480.5C352.5 498.2 338.2 512.5 320.5 512.5H160.5C142.8 512.5 128.5 498.2 128.5 480.5V402.1C111.2 394.2 95.3 383.3 81.6 369.6L70 358C46 334 32.5 301.4 32.5 267.5V240.5C32.5 205.2 61.2 176.5 96.5 176.5H184.5C206.6 176.5 224.5 194.4 224.5 216.5C224.5 238.6 206.6 256.5 184.5 256.5H128.5C119.7 256.5 112.5 263.7 112.5 272.5C112.5 281.3 119.7 288.5 128.5 288.5H184.5C224.3 288.5 256.5 256.3 256.5 216.5Z" fill="#47535F"/>
</g>
<defs>
<clipPath id="clip0_104_1536">
<rect width="448" height="512" fill="white" transform="translate(0.5 0.5)"/>
</clipPath>
</defs>
</svg>
