<svg width="577" height="513" viewBox="0 0 577 513" fill="none" xmlns="http://www.w3.org/2000/svg">
<g clip-path="url(#clip0_104_1538)">
<path d="M560.2 392.7C578 379.6 581.8 354.6 568.7 336.8C555.6 319 530.6 315.2 512.8 328.3L393.1 416.5H272.5C263.7 416.5 256.5 409.3 256.5 400.5C256.5 391.7 263.7 384.5 272.5 384.5H288.5H352.5C370.2 384.5 384.5 370.2 384.5 352.5C384.5 334.8 370.2 320.5 352.5 320.5H288.5H272.5H194.2C165.1 320.5 136.9 330.4 114.2 348.5L69.3 384.5H32.5C14.8 384.5 0.5 398.8 0.5 416.5V480.5C0.5 498.2 14.8 512.5 32.5 512.5H192.5H353C382 512.5 410.3 503.2 433.7 486L560.3 392.7H560.2ZM194.1 384.4C194.144 384.472 194.169 384.554 194.173 384.638C194.177 384.722 194.159 384.805 194.122 384.881C194.085 384.956 194.03 385.021 193.961 385.07C193.892 385.118 193.812 385.148 193.729 385.158C193.645 385.167 193.56 385.155 193.483 385.123C193.405 385.091 193.336 385.04 193.284 384.974C193.231 384.908 193.196 384.831 193.181 384.748C193.166 384.665 193.173 384.58 193.2 384.5C193.156 384.428 193.131 384.347 193.127 384.262C193.123 384.178 193.141 384.095 193.178 384.019C193.215 383.944 193.27 383.879 193.339 383.83C193.408 383.782 193.488 383.752 193.571 383.742C193.655 383.733 193.74 383.745 193.817 383.777C193.895 383.809 193.964 383.86 194.016 383.926C194.069 383.992 194.104 384.069 194.119 384.152C194.134 384.235 194.127 384.32 194.1 384.4Z" fill="#47535F"/>
</g>
<defs>
<clipPath id="clip0_104_1538">
<rect width="576" height="512" fill="white" transform="translate(0.5 0.5)"/>
</clipPath>
</defs>
</svg>
