<svg width="577" height="513" viewBox="0 0 577 513" fill="none" xmlns="http://www.w3.org/2000/svg">
<g clip-path="url(#clip0_104_1566)">
<path d="M544.5 160.5L544.4 233.1C544.3 285.3 520.4 334.1 480.4 366.2C480.5 364.3 480.5 362.4 480.5 360.5V352.5C480.5 280.7 443.5 213.9 382.6 175.8L322.4 138.2C313.8 132.8 304.5 129.8 295.1 128.8L249.2 49.3C242.6 37.8 246.5 23.1 258 16.5C269.5 9.90001 284.2 13.8 290.8 25.3L368.8 160.4C372.1 166.1 379.5 168.1 385.2 164.8C390.9 161.5 392.9 154.1 389.6 148.4L327.6 41C321 29.5 324.9 14.8 336.4 8.20001C347.9 1.60001 362.5 5.50001 369.1 17L437.1 134.8L480.4 209.8L480.5 160.5C480.5 142.8 494.9 128.5 512.5 128.5C530.1 128.5 544.5 142.9 544.5 160.5ZM244.4 89L269 131.5C255.1 136 242.6 145.2 234.3 158.5C233.4 159.9 232.6 161.4 231.8 162.9L202.9 112.9C196.3 101.4 200.2 86.7 211.7 80.1C223.2 73.5 237.9 77.4 244.5 88.9L244.4 89ZM198 152.7L224.8 199.1C225.4 205.1 226.9 210.9 229.1 216.5H224.5H211.2H179.5L156.5 176.7C149.9 165.2 153.8 150.5 165.3 143.9C176.8 137.3 191.5 141.2 198.1 152.7H198ZM261.4 175.5C270.8 160.5 290.5 156 305.5 165.3L365.7 202.9C417.2 235.2 448.5 291.7 448.5 352.5V360.5C448.5 444.4 380.4 512.5 296.5 512.5H120.5C107.2 512.5 96.5 501.8 96.5 488.5C96.5 475.2 107.2 464.5 120.5 464.5H212.5C219.1 464.5 224.5 459.1 224.5 452.5C224.5 445.9 219.1 440.5 212.5 440.5H88.5C75.2 440.5 64.5 429.8 64.5 416.5C64.5 403.2 75.2 392.5 88.5 392.5H212.5C219.1 392.5 224.5 387.1 224.5 380.5C224.5 373.9 219.1 368.5 212.5 368.5H56.5C43.2 368.5 32.5 357.8 32.5 344.5C32.5 331.2 43.2 320.5 56.5 320.5H212.5C219.1 320.5 224.5 315.1 224.5 308.5C224.5 301.9 219.1 296.5 212.5 296.5H88.5C75.2 296.5 64.5 285.8 64.5 272.5C64.5 259.2 75.2 248.5 88.5 248.5H224.5H317.7L271.5 219.6C256.5 210.2 252 190.5 261.3 175.5H261.4Z" fill="#47535F"/>
</g>
<defs>
<clipPath id="clip0_104_1566">
<rect width="576" height="512" fill="white" transform="translate(0.5 0.5)"/>
</clipPath>
</defs>
</svg>
