<svg width="641" height="513" viewBox="0 0 641 513" fill="none" xmlns="http://www.w3.org/2000/svg">
<g clip-path="url(#clip0_104_1588)">
<path d="M80.5 104.5C80.5 82.4 62.6 64.5 40.5 64.5C18.4 64.5 0.5 82.4 0.5 104.5V160.5V224.5V326C0.5 351.5 10.6 375.9 28.6 393.9L128.5 493.8C140.5 505.8 156.8 512.5 173.8 512.5H240.5C267 512.5 288.5 491 288.5 464.5V385.6C288.5 355.9 276.7 327.4 255.7 306.4L230.4 281.1L215.2 265.9L183.2 233.9C170.7 221.4 150.4 221.4 137.9 233.9C125.4 246.4 125.4 266.7 137.9 279.2L169.9 311.2L185.1 326.4C196.1 337.4 194.3 355.6 181.4 364.2C171.7 370.7 158.7 369.4 150.4 361.1L99.2 310C87.2 298 80.5 281.7 80.5 264.7V224.5V144.5V104.5ZM560.5 104.5V144.5V224.5V264.7C560.5 281.7 553.8 298 541.8 310L490.7 361.1C482.4 369.4 469.4 370.7 459.7 364.2C446.8 355.6 445 337.3 456 326.4L471.2 311.2L503.2 279.2C515.7 266.7 515.7 246.4 503.2 233.9C490.7 221.4 470.4 221.4 457.9 233.9L425.9 265.9L410.7 281.1L385.4 306.4C364.4 327.4 352.6 355.9 352.6 385.6V464.5C352.6 491 374.1 512.5 400.6 512.5H467.3C484.3 512.5 500.6 505.8 512.6 493.8L612.5 393.9C630.5 375.9 640.6 351.5 640.6 326V224.5V160.5V104.5C640.6 82.4 622.7 64.5 600.6 64.5C578.5 64.5 560.6 82.4 560.6 104.5H560.5Z" fill="#47535F"/>
</g>
<defs>
<clipPath id="clip0_104_1588">
<rect width="640" height="512" fill="white" transform="translate(0.5 0.5)"/>
</clipPath>
</defs>
</svg>
