<svg width="577" height="513" viewBox="0 0 577 513" fill="none" xmlns="http://www.w3.org/2000/svg">
<g clip-path="url(#clip0_104_1542)">
<path d="M276 7.1C278.8 3 283.5 0.5 288.5 0.5C293.5 0.5 298.2 3 301 7.1L367.3 103.5C378.5 119.8 384.5 139.1 384.5 158.8V160.5C384.5 213.5 341.5 256.5 288.5 256.5C235.5 256.5 192.5 213.5 192.5 160.5V158.8C192.5 139 198.5 119.8 209.7 103.5L276 7.1ZM568.7 336.8C581.8 354.6 578 379.6 560.2 392.7L433.6 486C410.2 503.2 382 512.5 352.9 512.5H192.5H32.5C14.8 512.5 0.5 498.2 0.5 480.5V416.5C0.5 398.8 14.8 384.5 32.5 384.5H69.3L114.2 348.5C136.9 330.3 165.1 320.5 194.2 320.5H272.5H288.5H352.5C370.2 320.5 384.5 334.8 384.5 352.5C384.5 370.2 370.2 384.5 352.5 384.5H288.5H272.5C263.7 384.5 256.5 391.7 256.5 400.5C256.5 409.3 263.7 416.5 272.5 416.5H393.1L512.8 328.3C530.6 315.2 555.6 319 568.7 336.8ZM194.1 384.5H193.2C193.5 384.5 193.8 384.5 194.1 384.5Z" fill="#47535F"/>
</g>
<defs>
<clipPath id="clip0_104_1542">
<rect width="576" height="512" fill="white" transform="translate(0.5 0.5)"/>
</clipPath>
</defs>
</svg>
