<svg width="641" height="513" viewBox="0 0 641 513" fill="none" xmlns="http://www.w3.org/2000/svg">
<g clip-path="url(#clip0_104_1532)">
<path d="M240.5 32.5C240.5 24.0131 243.871 15.8737 249.873 9.87258C255.874 3.87142 264.013 0.5 272.5 0.5C280.987 0.5 289.126 3.87142 295.127 9.87258C301.129 15.8737 304.5 24.0131 304.5 32.5C304.5 40.9869 301.129 49.1263 295.127 55.1274C289.126 61.1286 280.987 64.5 272.5 64.5C264.013 64.5 255.874 61.1286 249.873 55.1274C243.871 49.1263 240.5 40.9869 240.5 32.5ZM192.5 48.5C200.987 48.5 209.126 51.8714 215.127 57.8726C221.129 63.8737 224.5 72.0131 224.5 80.5C224.5 88.9869 221.129 97.1263 215.127 103.127C209.126 109.129 200.987 112.5 192.5 112.5C184.013 112.5 175.874 109.129 169.873 103.127C163.871 97.1263 160.5 88.9869 160.5 80.5C160.5 72.0131 163.871 63.8737 169.873 57.8726C175.874 51.8714 184.013 48.5 192.5 48.5ZM160.5 128.5C178.2 128.5 192.5 142.8 192.5 160.5H200.5C213.8 160.5 224.5 171.2 224.5 184.5V200.5C224.5 202.2 224.3 203.9 224 205.6C280.8 230.1 320.5 286.7 320.5 352.5C320.5 440.9 248.9 512.5 160.5 512.5C72.1 512.5 0.5 440.9 0.5 352.5C0.5 286.7 40.2 230.1 97 205.6C96.6 204 96.5 202.3 96.5 200.5V184.5C96.5 171.2 107.2 160.5 120.5 160.5H128.5C128.5 142.8 142.8 128.5 160.5 128.5ZM160.5 448.5C173.107 448.5 185.59 446.017 197.238 441.192C208.885 436.368 219.468 429.297 228.382 420.382C237.297 411.468 244.368 400.885 249.192 389.238C254.017 377.59 256.5 365.107 256.5 352.5C256.5 339.893 254.017 327.41 249.192 315.762C244.368 304.115 237.297 293.532 228.382 284.618C219.468 275.703 208.885 268.632 197.238 263.808C185.59 258.983 173.107 256.5 160.5 256.5C147.893 256.5 135.41 258.983 123.762 263.808C112.115 268.632 101.532 275.703 92.6177 284.618C83.7033 293.532 76.632 304.115 71.8076 315.762C66.9831 327.41 64.5 339.893 64.5 352.5C64.5 365.107 66.9831 377.59 71.8076 389.238C76.632 400.885 83.7033 411.468 92.6177 420.382C101.532 429.297 112.115 436.368 123.762 441.192C135.41 446.017 147.893 448.5 160.5 448.5ZM352.5 352.5C352.5 326.6 347.4 302 338.1 279.4C355 246.5 382.9 220.3 417 205.5C416.6 203.9 416.5 202.2 416.5 200.4V184.5C416.5 171.2 427.2 160.5 440.5 160.5H448.5C448.5 142.8 462.8 128.5 480.5 128.5C498.2 128.5 512.5 142.8 512.5 160.5H520.5C533.8 160.5 544.5 171.2 544.5 184.5V200.5C544.5 202.2 544.3 203.9 544 205.6C600.8 230.1 640.5 286.7 640.5 352.5C640.5 440.9 568.9 512.5 480.5 512.5C418.5 512.5 364.7 477.2 338.1 425.6C347.4 403.1 352.5 378.4 352.5 352.5ZM576.5 352.5C576.5 327.039 566.386 302.621 548.382 284.618C530.379 266.614 505.961 256.5 480.5 256.5C455.039 256.5 430.621 266.614 412.618 284.618C394.614 302.621 384.5 327.039 384.5 352.5C384.5 377.961 394.614 402.379 412.618 420.382C430.621 438.386 455.039 448.5 480.5 448.5C505.961 448.5 530.379 438.386 548.382 420.382C566.386 402.379 576.5 377.961 576.5 352.5ZM368.5 0.5C376.987 0.5 385.126 3.87142 391.127 9.87258C397.129 15.8737 400.5 24.0131 400.5 32.5C400.5 40.9869 397.129 49.1263 391.127 55.1274C385.126 61.1286 376.987 64.5 368.5 64.5C360.013 64.5 351.874 61.1286 345.873 55.1274C339.871 49.1263 336.5 40.9869 336.5 32.5C336.5 24.0131 339.871 15.8737 345.873 9.87258C351.874 3.87142 360.013 0.5 368.5 0.5ZM448.5 48.5C456.987 48.5 465.126 51.8714 471.127 57.8726C477.129 63.8737 480.5 72.0131 480.5 80.5C480.5 88.9869 477.129 97.1263 471.127 103.127C465.126 109.129 456.987 112.5 448.5 112.5C440.013 112.5 431.874 109.129 425.873 103.127C419.871 97.1263 416.5 88.9869 416.5 80.5C416.5 72.0131 419.871 63.8737 425.873 57.8726C431.874 51.8714 440.013 48.5 448.5 48.5Z" fill="#47535F"/>
</g>
<defs>
<clipPath id="clip0_104_1532">
<rect width="640" height="512" fill="white" transform="translate(0.5 0.5)"/>
</clipPath>
</defs>
</svg>
