<svg width="385" height="513" viewBox="0 0 385 513" fill="none" xmlns="http://www.w3.org/2000/svg">
<g clip-path="url(#clip0_104_1564)">
<path d="M32.5 32.5C32.5 14.8 46.8 0.5 64.5 0.5C82.2 0.5 96.5 14.8 96.5 32.5V240.5H32.5V32.5ZM224.5 192.5C224.5 174.8 238.8 160.5 256.5 160.5C274.2 160.5 288.5 174.8 288.5 192.5V256.5C288.5 274.2 274.2 288.5 256.5 288.5C238.8 288.5 224.5 274.2 224.5 256.5V192.5ZM160.5 128.5C178.2 128.5 192.5 142.8 192.5 160.5V208.5C192.5 226.2 178.2 240.5 160.5 240.5C142.8 240.5 128.5 226.2 128.5 208.5V160.5C128.5 142.8 142.8 128.5 160.5 128.5ZM320.5 224.5C320.5 206.8 334.8 192.5 352.5 192.5C370.2 192.5 384.5 206.8 384.5 224.5V288.5C384.5 306.2 370.2 320.5 352.5 320.5C334.8 320.5 320.5 306.2 320.5 288.5V224.5ZM224.5 312.5V311.9C233.9 317.3 244.8 320.5 256.5 320.5C269.7 320.5 281.9 316.5 292.1 309.7C300.8 334.6 324.6 352.5 352.5 352.5C364.2 352.5 375.1 349.4 384.5 343.9V352.5C384.5 440.9 312.9 512.5 224.5 512.5H162.8C120.4 512.5 79.7 495.6 49.7 465.6L38 454C14 430 0.5 397.4 0.5 363.5V336.5C0.5 301.2 29.2 272.5 64.5 272.5H152.5C174.6 272.5 192.5 290.4 192.5 312.5C192.5 334.6 174.6 352.5 152.5 352.5H96.5C87.7 352.5 80.5 359.7 80.5 368.5C80.5 377.3 87.7 384.5 96.5 384.5H152.5C192.3 384.5 224.5 352.3 224.5 312.5Z" fill="#47535F"/>
</g>
<defs>
<clipPath id="clip0_104_1564">
<rect width="384" height="512" fill="white" transform="translate(0.5 0.5)"/>
</clipPath>
</defs>
</svg>
