<svg width="641" height="513" viewBox="0 0 641 513" fill="none" xmlns="http://www.w3.org/2000/svg">
<g clip-path="url(#clip0_104_1594)">
<path d="M320.5 0.5C338.2 0.5 352.5 14.8 352.5 32.5V240.5C352.5 249.3 359.7 256.5 368.5 256.5C377.3 256.5 384.5 249.3 384.5 240.5V64.5C384.5 46.8 398.8 32.5 416.5 32.5C434.2 32.5 448.5 46.8 448.5 64.5V240.5C448.5 249.3 455.7 256.5 464.5 256.5C473.3 256.5 480.5 249.3 480.5 240.5V128.5C480.5 110.8 494.8 96.5 512.5 96.5C530.2 96.5 544.5 110.8 544.5 128.5V323.6C532.6 328.4 523.2 338.5 519.5 351.4L510.6 382.6L479.4 391.5C461.1 396.8 448.5 413.5 448.5 432.5C448.5 451.4 461 468.1 479.1 473.4C448.9 497.9 410.4 512.5 368.5 512.5H349.3C289.7 512.5 232.4 489.6 189.3 448.5L76.9 341.5C60.9 326.3 60.3 300.9 75.5 284.9C90.7 268.9 116.1 268.3 132.1 283.5L192.6 341.1C192.6 339.6 192.5 338 192.5 336.5V64.5C192.5 46.8 206.8 32.5 224.5 32.5C242.2 32.5 256.5 46.8 256.5 64.5V240.5C256.5 249.3 263.7 256.5 272.5 256.5C281.3 256.5 288.5 249.3 288.5 240.5V32.5C288.5 14.8 302.8 0.5 320.5 0.5ZM313.2 327.1C312.1 323.2 308.5 320.5 304.5 320.5C300.5 320.5 296.9 323.2 295.8 327.1L288.5 352.5L263.1 359.8C259.2 360.9 256.5 364.5 256.5 368.5C256.5 372.5 259.2 376.1 263.1 377.2L288.5 384.5L295.8 409.9C296.9 413.8 300.5 416.5 304.5 416.5C308.5 416.5 312.1 413.8 313.2 409.9L320.5 384.5L345.9 377.2C349.8 376.1 352.5 372.5 352.5 368.5C352.5 364.5 349.8 360.9 345.9 359.8L320.5 352.5L313.2 327.1ZM104.5 120.5L152.8 134.3C157.4 135.6 160.5 139.8 160.5 144.5C160.5 149.2 157.4 153.4 152.8 154.7L104.5 168.5L90.7 216.8C89.4 221.4 85.2 224.5 80.5 224.5C75.8 224.5 71.6 221.4 70.3 216.8L56.5 168.5L8.2 154.7C3.6 153.4 0.5 149.2 0.5 144.5C0.5 139.8 3.6 135.6 8.2 134.3L56.5 120.5L70.3 72.2C71.6 67.6 75.8 64.5 80.5 64.5C85.2 64.5 89.4 67.6 90.7 72.2L104.5 120.5ZM584.5 408.5L632.8 422.3C637.4 423.6 640.5 427.8 640.5 432.5C640.5 437.2 637.4 441.4 632.8 442.7L584.5 456.5L570.7 504.8C569.4 509.4 565.2 512.5 560.5 512.5C555.8 512.5 551.6 509.4 550.3 504.8L536.5 456.5L488.2 442.7C483.6 441.4 480.5 437.2 480.5 432.5C480.5 427.8 483.6 423.6 488.2 422.3L536.5 408.5L550.3 360.2C551.6 355.6 555.8 352.5 560.5 352.5C565.2 352.5 569.4 355.6 570.7 360.2L584.5 408.5Z" fill="#47535F"/>
</g>
<defs>
<clipPath id="clip0_104_1594">
<rect width="640" height="512" fill="white" transform="translate(0.5 0.5)"/>
</clipPath>
</defs>
</svg>
