<svg width="641" height="513" viewBox="0 0 641 513" fill="none" xmlns="http://www.w3.org/2000/svg">
<g clip-path="url(#clip0_104_1600)">
<path d="M314.7 3.8C309.6 12.6 296.5 37.1 296.5 56.5C296.5 69.8 307.2 80.5 320.5 80.5C333.8 80.5 344.5 69.8 344.5 56.5C344.5 37.1 331.4 12.6 326.3 3.8C325.1 1.7 322.9 0.5 320.5 0.5C318.1 0.5 315.9 1.7 314.7 3.8ZM26.7 51.8C21.6 60.6 8.5 85.1 8.5 104.5C8.5 117.8 19.2 128.5 32.5 128.5C45.8 128.5 56.5 117.8 56.5 104.5C56.5 85.1 43.4 60.6 38.3 51.8C37.1 49.7 34.9 48.5 32.5 48.5C30.1 48.5 27.9 49.7 26.7 51.8ZM88.5 104.5C88.5 117.8 99.2 128.5 112.5 128.5C125.8 128.5 136.5 117.8 136.5 104.5C136.5 85.1 123.4 60.6 118.3 51.8C117.1 49.7 114.9 48.5 112.5 48.5C110.1 48.5 107.9 49.7 106.7 51.8C101.6 60.6 88.5 85.1 88.5 104.5ZM170.7 51.8C165.6 60.6 152.5 85.1 152.5 104.5C152.5 117.8 163.2 128.5 176.5 128.5C189.8 128.5 200.5 117.8 200.5 104.5C200.5 85.1 187.4 60.6 182.3 51.8C181.1 49.7 178.9 48.5 176.5 48.5C174.1 48.5 171.9 49.7 170.7 51.8ZM216.5 104.5C216.5 117.8 227.2 128.5 240.5 128.5C253.8 128.5 264.5 117.8 264.5 104.5C264.5 85.1 251.4 60.6 246.3 51.8C245.1 49.7 242.9 48.5 240.5 48.5C238.1 48.5 235.9 49.7 234.7 51.8C229.6 60.6 216.5 85.1 216.5 104.5ZM394.7 51.8C389.6 60.6 376.5 85.1 376.5 104.5C376.5 117.8 387.2 128.5 400.5 128.5C413.8 128.5 424.5 117.8 424.5 104.5C424.5 85.1 411.4 60.6 406.3 51.8C405.1 49.7 402.9 48.5 400.5 48.5C398.1 48.5 395.9 49.7 394.7 51.8ZM440.5 104.5C440.5 117.8 451.2 128.5 464.5 128.5C477.8 128.5 488.5 117.8 488.5 104.5C488.5 85.1 475.4 60.6 470.3 51.8C469.1 49.7 466.9 48.5 464.5 48.5C462.1 48.5 459.9 49.7 458.7 51.8C453.6 60.6 440.5 85.1 440.5 104.5ZM522.7 51.8C517.6 60.6 504.5 85.1 504.5 104.5C504.5 117.8 515.2 128.5 528.5 128.5C541.8 128.5 552.5 117.8 552.5 104.5C552.5 85.1 539.4 60.6 534.3 51.8C533.1 49.7 530.9 48.5 528.5 48.5C526.1 48.5 523.9 49.7 522.7 51.8ZM584.5 104.5C584.5 117.8 595.2 128.5 608.5 128.5C621.8 128.5 632.5 117.8 632.5 104.5C632.5 85.1 619.4 60.6 614.3 51.8C613.1 49.7 610.9 48.5 608.5 48.5C606.1 48.5 603.9 49.7 602.7 51.8C597.6 60.6 584.5 85.1 584.5 104.5ZM112.5 160.5C103.7 160.5 96.5 167.7 96.5 176.5V272.5V288.5H128.5V272.5V176.5C128.5 167.7 121.3 160.5 112.5 160.5ZM176.5 160.5C167.7 160.5 160.5 167.7 160.5 176.5V272.5V288.5H192.5V272.5V176.5C192.5 167.7 185.3 160.5 176.5 160.5ZM240.5 160.5C231.7 160.5 224.5 167.7 224.5 176.5V272.5V288.5H256.5V272.5V176.5C256.5 167.7 249.3 160.5 240.5 160.5ZM400.5 160.5C391.7 160.5 384.5 167.7 384.5 176.5V272.5V288.5H416.5V272.5V176.5C416.5 167.7 409.3 160.5 400.5 160.5ZM464.5 160.5C455.7 160.5 448.5 167.7 448.5 176.5V272.5V288.5H480.5V272.5V176.5C480.5 167.7 473.3 160.5 464.5 160.5ZM528.5 160.5C519.7 160.5 512.5 167.7 512.5 176.5V272.5V288.5H544.5V272.5V176.5C544.5 167.7 537.3 160.5 528.5 160.5ZM352.5 144.5C352.5 126.8 338.2 112.5 320.5 112.5C302.8 112.5 288.5 126.8 288.5 144.5V320.5H96.5C78.8 320.5 64.5 306.2 64.5 288.5V192.5C64.5 174.8 50.2 160.5 32.5 160.5C14.8 160.5 0.5 174.8 0.5 192.5V288.5C0.5 341.5 43.5 384.5 96.5 384.5H288.5V448.5H160.5C142.8 448.5 128.5 462.8 128.5 480.5C128.5 498.2 142.8 512.5 160.5 512.5H320.5H480.5C498.2 512.5 512.5 498.2 512.5 480.5C512.5 462.8 498.2 448.5 480.5 448.5H352.5V384.5H544.5C597.5 384.5 640.5 341.5 640.5 288.5V192.5C640.5 174.8 626.2 160.5 608.5 160.5C590.8 160.5 576.5 174.8 576.5 192.5V288.5C576.5 306.2 562.2 320.5 544.5 320.5H352.5V144.5Z" fill="#47535F"/>
</g>
<defs>
<clipPath id="clip0_104_1600">
<rect width="640" height="512" fill="white" transform="translate(0.5 0.5)"/>
</clipPath>
</defs>
</svg>
