<svg width="513" height="513" viewBox="0 0 513 513" fill="none" xmlns="http://www.w3.org/2000/svg">
<g clip-path="url(#clip0_104_1602)">
<path d="M0.5 96.5C0.5 61.2 29.2 32.5 64.5 32.5H448.5C483.8 32.5 512.5 61.2 512.5 96.5V280.9C495.5 265.7 473.1 256.5 448.5 256.5H64.5C39.9 256.5 17.5 265.7 0.5 280.9V96.5ZM64.5 288.5H448.5C483.8 288.5 512.5 317.2 512.5 352.5V416.5C512.5 451.8 483.8 480.5 448.5 480.5H64.5C29.2 480.5 0.5 451.8 0.5 416.5V352.5C0.5 317.2 29.2 288.5 64.5 288.5ZM320.5 416.5C328.987 416.5 337.126 413.129 343.127 407.127C349.129 401.126 352.5 392.987 352.5 384.5C352.5 376.013 349.129 367.874 343.127 361.873C337.126 355.871 328.987 352.5 320.5 352.5C312.013 352.5 303.874 355.871 297.873 361.873C291.871 367.874 288.5 376.013 288.5 384.5C288.5 392.987 291.871 401.126 297.873 407.127C303.874 413.129 312.013 416.5 320.5 416.5ZM448.5 384.5C448.5 376.013 445.129 367.874 439.127 361.873C433.126 355.871 424.987 352.5 416.5 352.5C408.013 352.5 399.874 355.871 393.873 361.873C387.871 367.874 384.5 376.013 384.5 384.5C384.5 392.987 387.871 401.126 393.873 407.127C399.874 413.129 408.013 416.5 416.5 416.5C424.987 416.5 433.126 413.129 439.127 407.127C445.129 401.126 448.5 392.987 448.5 384.5Z" fill="#47535F"/>
</g>
<defs>
<clipPath id="clip0_104_1602">
<rect width="512" height="512" fill="white" transform="translate(0.5 0.5)"/>
</clipPath>
</defs>
</svg>
