<svg width="449" height="513" viewBox="0 0 449 513" fill="none" xmlns="http://www.w3.org/2000/svg">
<g clip-path="url(#clip0_104_1604)">
<path d="M181.8 32.9C199.2 35.8 211 52.3 208.1 69.7L198.3 128.5H293.4L304.9 59.2C307.8 41.8 324.3 30 341.7 32.9C359.1 35.8 370.9 52.3 368 69.7L358.3 128.5H416.5C434.2 128.5 448.5 142.8 448.5 160.5C448.5 178.2 434.2 192.5 416.5 192.5H347.6L326.3 320.5H384.5C402.2 320.5 416.5 334.8 416.5 352.5C416.5 370.2 402.2 384.5 384.5 384.5H315.6L304.1 453.8C301.2 471.2 284.7 483 267.3 480.1C249.9 477.2 238.1 460.7 241 443.3L250.8 384.6H155.6L144.1 453.9C141.2 471.3 124.7 483.1 107.3 480.2C89.9 477.3 78.1 460.8 81 443.4L90.7 384.5H32.5C14.8 384.5 0.5 370.2 0.5 352.5C0.5 334.8 14.8 320.5 32.5 320.5H101.4L122.7 192.5H64.5C46.8 192.5 32.5 178.2 32.5 160.5C32.5 142.8 46.8 128.5 64.5 128.5H133.4L144.9 59.2C147.8 41.8 164.3 30 181.7 32.9H181.8ZM187.6 192.5L166.3 320.5H261.4L282.7 192.5H187.6Z" fill="#47535F"/>
</g>
<defs>
<clipPath id="clip0_104_1604">
<rect width="448" height="512" fill="white" transform="translate(0.5 0.5)"/>
</clipPath>
</defs>
</svg>
