<svg width="641" height="513" viewBox="0 0 641 513" fill="none" xmlns="http://www.w3.org/2000/svg">
<g clip-path="url(#clip0_104_1606)">
<path d="M320.5 64.5C334.9 64.5 342.8 57.5 351.3 50.1C360.9 41.6 371.2 32.5 392.5 32.5C441.8 32.5 476.9 184.7 490.4 254.4C448.3 272.6 391.4 288.5 320.5 288.5C249.6 288.5 192.7 272.6 150.6 254.4C164.1 184.7 199.2 32.5 248.5 32.5C269.8 32.5 280.1 41.6 289.7 50.1C298.2 57.5 306.1 64.5 320.5 64.5ZM111.6 271.2C158.8 295.7 229.1 320.5 320.6 320.5C412.1 320.5 482.4 295.7 529.5 271.2C554.3 258.3 579.3 242.9 599.6 223.5C607.5 215.6 619.8 214.3 629.2 220.2C638.7 226.1 642.7 238.1 639.1 248.7C625.6 286.4 600.7 321 573 349.3C524.2 399.4 444.1 448.5 320.5 448.5C196.9 448.5 116.9 399.4 68.0001 349.3C40.3001 320.9 15.4001 286.3 1.90011 248.6C-1.69989 238 2.30011 226 11.8001 220.1C21.3001 214.2 33.5001 215.6 41.4001 223.4C61.8001 242.8 86.7001 258.2 111.5 271.1L111.6 271.2Z" fill="#47535F"/>
</g>
<defs>
<clipPath id="clip0_104_1606">
<rect width="640" height="512" fill="white" transform="translate(0.5 0.5)"/>
</clipPath>
</defs>
</svg>
