<svg width="513" height="513" viewBox="0 0 513 513" fill="none" xmlns="http://www.w3.org/2000/svg">
<g clip-path="url(#clip0_104_1610)">
<path d="M64.5 416.5L169.1 181.2C184.4 146.8 209.4 117.7 241.1 97.5L388 3.5C391 1.6 394.5 0.6 398 0.6C408.2 0.5 416.5 8.8 416.5 19.1V20.7C416.5 23.3 416 25.8 415.1 28.2L355.3 177.4C353.4 182.1 352.5 187.1 352.5 192.1C352.5 197.6 353.7 203.1 355.9 208.2L448.5 416.5H241.4L253.2 381.1L293.6 367.6C300.1 365.4 304.5 359.3 304.5 352.4C304.5 345.5 300.1 339.4 293.6 337.2L253.2 323.7L239.7 283.3C237.5 276.9 231.4 272.5 224.5 272.5C217.6 272.5 211.5 276.9 209.3 283.4L195.8 323.8L155.4 337.3C148.9 339.5 144.5 345.6 144.5 352.5C144.5 359.4 148.9 365.5 155.4 367.7L195.8 381.2L207.6 416.5H64.5ZM280.1 142C279 138.7 276 136.5 272.5 136.5C269 136.5 266 138.7 264.9 142L258.2 162.2L238 168.9C234.7 170 232.5 173 232.5 176.5C232.5 180 234.7 183 238 184.1L258.2 190.8L264.9 211C266 214.3 269 216.5 272.5 216.5C276 216.5 279 214.3 280.1 211L286.8 190.8L307 184.1C310.3 183 312.5 180 312.5 176.5C312.5 173 310.3 170 307 168.9L286.8 162.2L280.1 142ZM32.5 448.5H480.5C498.2 448.5 512.5 462.8 512.5 480.5C512.5 498.2 498.2 512.5 480.5 512.5H32.5C14.8 512.5 0.5 498.2 0.5 480.5C0.5 462.8 14.8 448.5 32.5 448.5Z" fill="#47535F"/>
</g>
<defs>
<clipPath id="clip0_104_1610">
<rect width="512" height="512" fill="white" transform="translate(0.5 0.5)"/>
</clipPath>
</defs>
</svg>
