<svg width="641" height="513" viewBox="0 0 641 513" fill="none" xmlns="http://www.w3.org/2000/svg">
<g clip-path="url(#clip0_104_1608)">
<path d="M153.2 136.4L142.8 193.6C149.6 192.9 156.4 192.5 163.3 192.5H174C213.4 192.5 251.8 204.6 284.1 227.2L562.9 422.3L598 446.9C622.4 440.9 640.5 418.8 640.5 392.5C640.5 316.7 545.8 265.9 505.9 247.8L474.5 84.4C468.7 54.3 442.3 32.5 411.6 32.5H408.9C403.3 32.5 397.8 33.2 392.4 34.7L199.7 86C175.8 92.4 157.7 112 153.2 136.4ZM0.5 384.5C0.5 419.8 29.2 448.5 64.5 448.5H544.5L265.8 253.4C238.9 234.6 206.9 224.5 174 224.5H163.4C102.8 224.5 47.4 258.7 20.3 312.9L14 325.5C5.1 343.2 0.5 362.8 0.5 382.7V384.5Z" fill="#47535F"/>
</g>
<defs>
<clipPath id="clip0_104_1608">
<rect width="640" height="512" fill="white" transform="translate(0.5 0.5)"/>
</clipPath>
</defs>
</svg>
