<svg width="449" height="513" viewBox="0 0 449 513" fill="none" xmlns="http://www.w3.org/2000/svg">
<g clip-path="url(#clip0_104_1612)">
<path d="M0.5 64.5C0.5 46.8 14.8 32.5 32.5 32.5H80.5H128.5C146.2 32.5 160.5 46.8 160.5 64.5C160.5 82.2 146.2 96.5 128.5 96.5H112.5V208.5H336.5V96.5H320.5C302.8 96.5 288.5 82.2 288.5 64.5C288.5 46.8 302.8 32.5 320.5 32.5H368.5H416.5C434.2 32.5 448.5 46.8 448.5 64.5C448.5 82.2 434.2 96.5 416.5 96.5H400.5V240.5V416.5H416.5C434.2 416.5 448.5 430.8 448.5 448.5C448.5 466.2 434.2 480.5 416.5 480.5H368.5H320.5C302.8 480.5 288.5 466.2 288.5 448.5C288.5 430.8 302.8 416.5 320.5 416.5H336.5V272.5H112.5V416.5H128.5C146.2 416.5 160.5 430.8 160.5 448.5C160.5 466.2 146.2 480.5 128.5 480.5H80.5H32.5C14.8 480.5 0.5 466.2 0.5 448.5C0.5 430.8 14.8 416.5 32.5 416.5H48.5V240.5V96.5H32.5C14.8 96.5 0.5 82.2 0.5 64.5Z" fill="#47535F"/>
</g>
<defs>
<clipPath id="clip0_104_1612">
<rect width="448" height="512" fill="white" transform="translate(0.5 0.5)"/>
</clipPath>
</defs>
</svg>
