<svg width="513" height="513" viewBox="0 0 513 513" fill="none" xmlns="http://www.w3.org/2000/svg">
<g clip-path="url(#clip0_104_1626)">
<path d="M0.5 224.7C0.5 101.1 100.7 0.5 224.5 0.5H248.5C343.7 0.5 429.7 69.8 445.8 160.7C448.1 173.7 452.6 186.4 460.9 196.7L502.9 249.3C509.1 257.1 512.5 266.7 512.5 276.7C512.5 300.9 492.9 320.5 468.7 320.5H448.5V384.5C448.5 419.8 419.8 448.5 384.5 448.5H320.5V480.5C320.5 498.2 306.2 512.5 288.5 512.5H96.5C78.8 512.5 64.5 498.2 64.5 480.5V407.8C64.5 391.1 57.6 375.3 47.4 362C17.1 322.9 0.5 274.6 0.5 224.7ZM224.5 64.5C215.7 64.5 208.5 71.7 208.5 80.5C208.5 113.5 168.6 130 145.3 106.7C139.1 100.5 128.9 100.5 122.7 106.7C116.5 112.9 116.5 123.1 122.7 129.3C146 152.6 129.5 192.5 96.5 192.5C87.7 192.5 80.5 199.7 80.5 208.5C80.5 217.3 87.7 224.5 96.5 224.5C129.5 224.5 146 264.4 122.7 287.7C116.5 293.9 116.5 304.1 122.7 310.3C128.9 316.5 139.1 316.5 145.3 310.3C168.6 287 208.5 303.5 208.5 336.5C208.5 345.3 215.7 352.5 224.5 352.5C233.3 352.5 240.5 345.3 240.5 336.5C240.5 303.5 280.4 287 303.7 310.3C309.9 316.5 320.1 316.5 326.3 310.3C332.5 304.1 332.5 293.9 326.3 287.7C303 264.4 319.5 224.5 352.5 224.5C361.3 224.5 368.5 217.3 368.5 208.5C368.5 199.7 361.3 192.5 352.5 192.5C319.5 192.5 303 152.6 326.3 129.3C332.5 123.1 332.5 112.9 326.3 106.7C320.1 100.5 309.9 100.5 303.7 106.7C280.4 130 240.5 113.5 240.5 80.5C240.5 71.7 233.3 64.5 224.5 64.5ZM200.5 160.5C206.865 160.5 212.97 163.029 217.471 167.529C221.971 172.03 224.5 178.135 224.5 184.5C224.5 190.865 221.971 196.97 217.471 201.471C212.97 205.971 206.865 208.5 200.5 208.5C194.135 208.5 188.03 205.971 183.529 201.471C179.029 196.97 176.5 190.865 176.5 184.5C176.5 178.135 179.029 172.03 183.529 167.529C188.03 163.029 194.135 160.5 200.5 160.5ZM240.5 240.5C240.5 236.257 242.186 232.187 245.186 229.186C248.187 226.186 252.257 224.5 256.5 224.5C260.743 224.5 264.813 226.186 267.814 229.186C270.814 232.187 272.5 236.257 272.5 240.5C272.5 244.743 270.814 248.813 267.814 251.814C264.813 254.814 260.743 256.5 256.5 256.5C252.257 256.5 248.187 254.814 245.186 251.814C242.186 248.813 240.5 244.743 240.5 240.5Z" fill="#47535F"/>
</g>
<defs>
<clipPath id="clip0_104_1626">
<rect width="512" height="512" fill="white" transform="translate(0.5 0.5)"/>
</clipPath>
</defs>
</svg>
