<svg width="577" height="513" viewBox="0 0 577 513" fill="none" xmlns="http://www.w3.org/2000/svg">
<g clip-path="url(#clip0_104_1624)">
<path d="M32.5 224.7C32.5 202.5 35.7 181.1 41.7 160.8L262.7 321.5C258.7 331 256.5 341.5 256.5 352.5V512.5H128.5C110.8 512.5 96.5 498.2 96.5 480.5V407.8C96.5 391.1 89.6 375.3 79.4 362C49.1 322.9 32.5 274.6 32.5 224.7ZM280.8 295.1L53.5 129.8C89.2 53.5 166.7 0.5 256.5 0.5H280.5C375.7 0.5 461.7 69.8 477.8 160.7C480.1 173.7 484.6 186.4 492.9 196.7L534.9 249.3C540.3 256 543.5 264.1 544.3 272.5H336.5C314.8 272.5 295.2 281.1 280.8 295.1ZM336.5 304.5H534.5H544.5L524.8 368.5H368.5C359.7 368.5 352.5 375.7 352.5 384.5C352.5 393.3 359.7 400.5 368.5 400.5H515L505.2 432.5H368.5C359.7 432.5 352.5 439.7 352.5 448.5C352.5 457.3 359.7 464.5 368.5 464.5H495.3L494.4 467.3C486.1 494.2 461.3 512.5 433.2 512.5H288.5V352.5C288.5 338.5 294.5 325.8 304.1 317.1C312.6 309.3 324 304.5 336.5 304.5ZM384.5 224.5C392.987 224.5 401.126 221.129 407.127 215.127C413.129 209.126 416.5 200.987 416.5 192.5C416.5 184.013 413.129 175.874 407.127 169.873C401.126 163.871 392.987 160.5 384.5 160.5C376.013 160.5 367.874 163.871 361.873 169.873C355.871 175.874 352.5 184.013 352.5 192.5C352.5 200.987 355.871 209.126 361.873 215.127C367.874 221.129 376.013 224.5 384.5 224.5Z" fill="#47535F"/>
</g>
<defs>
<clipPath id="clip0_104_1624">
<rect width="576" height="512" fill="white" transform="translate(0.5 0.5)"/>
</clipPath>
</defs>
</svg>
