<svg width="513" height="513" viewBox="0 0 513 513" fill="none" xmlns="http://www.w3.org/2000/svg">
<g clip-path="url(#clip0_104_1614)">
<path d="M256.5 80.5C150.4 80.5 62.9 159.9 50.1 262.5C59.5 258.7 69.7 256.5 80.5 256.5C107 256.5 128.5 278 128.5 304.5V432.5C128.5 459 107 480.5 80.5 480.5C36.3 480.5 0.5 444.7 0.5 400.5V384.5V336.5V288.5C0.5 147.1 115.1 32.5 256.5 32.5C397.9 32.5 512.5 147.1 512.5 288.5V336.5V384.5V400.5C512.5 444.7 476.7 480.5 432.5 480.5C406 480.5 384.5 459 384.5 432.5V304.5C384.5 278 406 256.5 432.5 256.5C443.3 256.5 453.5 258.6 462.9 262.5C450.1 159.9 362.6 80.5 256.5 80.5Z" fill="#47535F"/>
</g>
<defs>
<clipPath id="clip0_104_1614">
<rect width="512" height="512" fill="white" transform="translate(0.5 0.5)"/>
</clipPath>
</defs>
</svg>
