<svg width="641" height="513" viewBox="0 0 641 513" fill="none" xmlns="http://www.w3.org/2000/svg">
<g clip-path="url(#clip0_104_1620)">
<path d="M0.5 224.7C0.5 101.1 100.7 0.5 224.5 0.5H248.5C343.7 0.5 429.7 69.8 445.8 160.7C448.1 173.7 452.6 186.4 460.9 196.7L502.9 249.3C509.1 257.1 512.5 266.7 512.5 276.7C512.5 300.9 492.9 320.5 468.7 320.5H448.5V352.5L339.7 366.1C328.7 367.5 320.5 376.8 320.5 387.9C320.5 399.5 329.5 409.1 341.1 409.8L448.5 416.5V432.5C448.5 459 427 480.5 400.5 480.5H320.5V488.5C320.5 501.8 309.8 512.5 296.5 512.5H256.5H96.5C78.8 512.5 64.5 498.2 64.5 480.5V407.8C64.5 391.1 57.6 375.3 47.4 362C17.1 322.9 0.5 274.6 0.5 224.7ZM352.5 224.5C360.987 224.5 369.126 221.129 375.127 215.127C381.129 209.126 384.5 200.987 384.5 192.5C384.5 184.013 381.129 175.874 375.127 169.873C369.126 163.871 360.987 160.5 352.5 160.5C344.013 160.5 335.874 163.871 329.873 169.873C323.871 175.874 320.5 184.013 320.5 192.5C320.5 200.987 323.871 209.126 329.873 215.127C335.874 221.129 344.013 224.5 352.5 224.5ZM464.5 384.5C464.5 378.135 467.029 372.03 471.529 367.529C476.03 363.029 482.135 360.5 488.5 360.5C494.865 360.5 500.97 363.029 505.471 367.529C509.971 372.03 512.5 378.135 512.5 384.5C512.5 390.865 509.971 396.97 505.471 401.471C500.97 405.971 494.865 408.5 488.5 408.5C482.135 408.5 476.03 405.971 471.529 401.471C467.029 396.97 464.5 390.865 464.5 384.5ZM616.5 360.5C622.865 360.5 628.97 363.029 633.471 367.529C637.971 372.03 640.5 378.135 640.5 384.5C640.5 390.865 637.971 396.97 633.471 401.471C628.97 405.971 622.865 408.5 616.5 408.5C610.135 408.5 604.03 405.971 599.529 401.471C595.029 396.97 592.5 390.865 592.5 384.5C592.5 378.135 595.029 372.03 599.529 367.529C604.03 363.029 610.135 360.5 616.5 360.5ZM592.5 480.5C592.5 474.135 595.029 468.03 599.529 463.529C604.03 459.029 610.135 456.5 616.5 456.5C622.865 456.5 628.97 459.029 633.471 463.529C637.971 468.03 640.5 474.135 640.5 480.5C640.5 486.865 637.971 492.97 633.471 497.471C628.97 501.971 622.865 504.5 616.5 504.5C610.135 504.5 604.03 501.971 599.529 497.471C595.029 492.97 592.5 486.865 592.5 480.5ZM552.5 312.5C558.865 312.5 564.97 315.029 569.471 319.529C573.971 324.03 576.5 330.135 576.5 336.5C576.5 342.865 573.971 348.97 569.471 353.471C564.97 357.971 558.865 360.5 552.5 360.5C546.135 360.5 540.03 357.971 535.529 353.471C531.029 348.97 528.5 342.865 528.5 336.5C528.5 330.135 531.029 324.03 535.529 319.529C540.03 315.029 546.135 312.5 552.5 312.5ZM592.5 288.5C592.5 282.135 595.029 276.03 599.529 271.529C604.03 267.029 610.135 264.5 616.5 264.5C622.865 264.5 628.97 267.029 633.471 271.529C637.971 276.03 640.5 282.135 640.5 288.5C640.5 294.865 637.971 300.97 633.471 305.471C628.97 309.971 622.865 312.5 616.5 312.5C610.135 312.5 604.03 309.971 599.529 305.471C595.029 300.97 592.5 294.865 592.5 288.5ZM552.5 408.5C558.865 408.5 564.97 411.029 569.471 415.529C573.971 420.03 576.5 426.135 576.5 432.5C576.5 438.865 573.971 444.97 569.471 449.471C564.97 453.971 558.865 456.5 552.5 456.5C546.135 456.5 540.03 453.971 535.529 449.471C531.029 444.97 528.5 438.865 528.5 432.5C528.5 426.135 531.029 420.03 535.529 415.529C540.03 411.029 546.135 408.5 552.5 408.5Z" fill="#47535F"/>
</g>
<defs>
<clipPath id="clip0_104_1620">
<rect width="640" height="512" fill="white" transform="translate(0.5 0.5)"/>
</clipPath>
</defs>
</svg>
