<svg width="641" height="513" viewBox="0 0 641 513" fill="none" xmlns="http://www.w3.org/2000/svg">
<g clip-path="url(#clip0_104_1622)">
<path d="M448.5 326.3L492.5 360.8C500.6 362.2 507.3 367.6 510.5 374.9L553.4 408.5C564 408.9 572.9 416.1 575.6 425.9L614.7 456.5C615.3 456.5 615.9 456.4 616.5 456.4C627.6 456.4 636.9 463.9 639.7 474.2H635.8C642 482.7 642.2 494.6 635.4 503.2C627.2 513.6 612.1 515.5 601.7 507.3L9.70001 43.4C-0.699994 35.2 -2.59999 20.1 5.60001 9.70001C13.8 -0.699994 28.9 -2.59999 39.3 5.60001L90.1 45.4C127.5 17.2 174 0.500006 224.5 0.500006H248.5C343.7 0.500006 429.7 69.8 445.8 160.7C448.1 173.7 452.6 186.4 460.9 196.7L502.9 249.3C509.1 257.1 512.5 266.7 512.5 276.7C512.5 300.9 492.9 320.5 468.7 320.5H448.5V326.3ZM0.500006 224.7C0.500006 186 10.3 149.6 27.6 117.8L342.3 365.8L339.8 366.1C328.8 367.5 320.6 376.8 320.6 387.9C320.6 399.5 329.6 409.1 341.2 409.8L403.2 413.7L446.2 447.6C439.8 466.7 421.7 480.5 400.5 480.5H320.5V488.5C320.5 501.8 309.8 512.5 296.5 512.5H256.5H96.5C78.8 512.5 64.5 498.2 64.5 480.5V407.8C64.5 391.1 57.6 375.3 47.4 362C17.1 322.9 0.500006 274.6 0.500006 224.7ZM616.5 360.5C622.865 360.5 628.97 363.029 633.471 367.529C637.971 372.03 640.5 378.135 640.5 384.5C640.5 390.865 637.971 396.97 633.471 401.471C628.97 405.971 622.865 408.5 616.5 408.5C610.135 408.5 604.03 405.971 599.529 401.471C595.029 396.97 592.5 390.865 592.5 384.5C592.5 378.135 595.029 372.03 599.529 367.529C604.03 363.029 610.135 360.5 616.5 360.5ZM552.5 312.5C558.865 312.5 564.97 315.029 569.471 319.529C573.971 324.03 576.5 330.135 576.5 336.5C576.5 342.865 573.971 348.97 569.471 353.471C564.97 357.971 558.865 360.5 552.5 360.5C546.135 360.5 540.03 357.971 535.529 353.471C531.029 348.97 528.5 342.865 528.5 336.5C528.5 330.135 531.029 324.03 535.529 319.529C540.03 315.029 546.135 312.5 552.5 312.5ZM592.5 288.5C592.5 282.135 595.029 276.03 599.529 271.529C604.03 267.029 610.135 264.5 616.5 264.5C622.865 264.5 628.97 267.029 633.471 271.529C637.971 276.03 640.5 282.135 640.5 288.5C640.5 294.865 637.971 300.97 633.471 305.471C628.97 309.971 622.865 312.5 616.5 312.5C610.135 312.5 604.03 309.971 599.529 305.471C595.029 300.97 592.5 294.865 592.5 288.5Z" fill="#47535F"/>
</g>
<defs>
<clipPath id="clip0_104_1622">
<rect width="640" height="512" fill="white" transform="translate(0.5 0.5)"/>
</clipPath>
</defs>
</svg>
