<svg width="513" height="513" viewBox="0 0 513 513" fill="none" xmlns="http://www.w3.org/2000/svg">
<g clip-path="url(#clip0_104_1616)">
<path d="M256.5 80.5C141.6 80.5 48.5 173.6 48.5 288.5V392.5C48.5 405.8 37.8 416.5 24.5 416.5C11.2 416.5 0.5 405.8 0.5 392.5V288.5C0.5 147.1 115.1 32.5 256.5 32.5C397.9 32.5 512.5 147.1 512.5 288.5V392.5C512.5 405.8 501.8 416.5 488.5 416.5C475.2 416.5 464.5 405.8 464.5 392.5V288.5C464.5 173.6 371.4 80.5 256.5 80.5ZM80.5 352.5C80.5 317.2 109.2 288.5 144.5 288.5H160.5C178.2 288.5 192.5 302.8 192.5 320.5V448.5C192.5 466.2 178.2 480.5 160.5 480.5H144.5C109.2 480.5 80.5 451.8 80.5 416.5V352.5ZM368.5 288.5C403.8 288.5 432.5 317.2 432.5 352.5V416.5C432.5 451.8 403.8 480.5 368.5 480.5H352.5C334.8 480.5 320.5 466.2 320.5 448.5V320.5C320.5 302.8 334.8 288.5 352.5 288.5H368.5Z" fill="#47535F"/>
</g>
<defs>
<clipPath id="clip0_104_1616">
<rect width="512" height="512" fill="white" transform="translate(0.5 0.5)"/>
</clipPath>
</defs>
</svg>
