<svg width="513" height="513" viewBox="0 0 513 513" fill="none" xmlns="http://www.w3.org/2000/svg">
<g clip-path="url(#clip0_104_1618)">
<path d="M256.5 48.5C141.6 48.5 48.5 141.6 48.5 256.5V296.5C48.5 309.8 37.8 320.5 24.5 320.5C11.2 320.5 0.5 309.8 0.5 296.5V256.5C0.5 115.1 115.1 0.5 256.5 0.5C397.9 0.5 512.5 115.1 512.5 256.5V400.6C512.5 449.2 473.1 488.6 424.4 488.6L314.1 488.5C305.8 502.8 290.3 512.5 272.5 512.5H240.5C214 512.5 192.5 491 192.5 464.5C192.5 438 214 416.5 240.5 416.5H272.5C290.3 416.5 305.8 426.2 314.1 440.5L424.5 440.6C446.6 440.6 464.5 422.7 464.5 400.6V256.5C464.5 141.6 371.4 48.5 256.5 48.5ZM144.5 208.5H160.5C178.2 208.5 192.5 222.8 192.5 240.5V352.5C192.5 370.2 178.2 384.5 160.5 384.5H144.5C109.2 384.5 80.5 355.8 80.5 320.5V272.5C80.5 237.2 109.2 208.5 144.5 208.5ZM368.5 208.5C403.8 208.5 432.5 237.2 432.5 272.5V320.5C432.5 355.8 403.8 384.5 368.5 384.5H352.5C334.8 384.5 320.5 370.2 320.5 352.5V240.5C320.5 222.8 334.8 208.5 352.5 208.5H368.5Z" fill="#47535F"/>
</g>
<defs>
<clipPath id="clip0_104_1618">
<rect width="512" height="512" fill="white" transform="translate(0.5 0.5)"/>
</clipPath>
</defs>
</svg>
