<svg width="577" height="513" viewBox="0 0 577 513" fill="none" xmlns="http://www.w3.org/2000/svg">
<g clip-path="url(#clip0_104_1632)">
<path d="M48.1 300.9L228.8 469.6C236.3 476.6 246.2 480.5 256.5 480.5C266.8 480.5 276.7 476.6 284.2 469.6L286.8 467.2C267.7 439.1 256.5 405.1 256.5 368.5C256.5 271.3 335.3 192.5 432.5 192.5C460.8 192.5 487.5 199.2 511.2 211C512.1 204.5 512.5 198 512.5 191.4V185.6C512.5 115.7 462 56.1 393.1 44.6C347.5 37 301.1 51.9 268.5 84.5L256.5 96.5L244.5 84.5C211.9 51.9 165.5 37 119.9 44.6C51 56.1 0.5 115.7 0.5 185.6V191.4C0.5 232.9 17.7 272.6 48.1 300.9ZM576.5 368.5C576.5 330.309 561.329 293.682 534.323 266.677C507.318 239.671 470.691 224.5 432.5 224.5C394.309 224.5 357.682 239.671 330.677 266.677C303.671 293.682 288.5 330.309 288.5 368.5C288.5 406.691 303.671 443.318 330.677 470.323C357.682 497.329 394.309 512.5 432.5 512.5C470.691 512.5 507.318 497.329 534.323 470.323C561.329 443.318 576.5 406.691 576.5 368.5ZM499.8 325.2C506 331.4 506 341.6 499.8 347.8L427.8 419.8C421.6 426 411.4 426 405.2 419.8L365.2 379.8C359 373.6 359 363.4 365.2 357.2C371.4 351 381.6 351 387.8 357.2L416.5 385.9L477.2 325.2C483.4 319 493.6 319 499.8 325.2Z" fill="#47535F"/>
</g>
<defs>
<clipPath id="clip0_104_1632">
<rect width="576" height="512" fill="white" transform="translate(0.5 0.5)"/>
</clipPath>
</defs>
</svg>
