<svg width="513" height="513" viewBox="0 0 513 513" fill="none" xmlns="http://www.w3.org/2000/svg">
<g clip-path="url(#clip0_104_1628)">
<path d="M48.1 300.9L228.8 469.6C236.3 476.6 246.2 480.5 256.5 480.5C266.8 480.5 276.7 476.6 284.2 469.6L464.9 300.9C495.3 272.6 512.5 232.9 512.5 191.4V185.6C512.5 115.7 462 56.1 393.1 44.6C347.5 37 301.1 51.9 268.5 84.5L256.5 96.5L244.5 84.5C211.9 51.9 165.5 37 119.9 44.6C51 56.1 0.5 115.7 0.5 185.6V191.4C0.5 232.9 17.7 272.6 48.1 300.9Z" fill="#47535F"/>
</g>
<defs>
<clipPath id="clip0_104_1628">
<rect width="512" height="512" fill="white" transform="translate(0.5 0.5)"/>
</clipPath>
</defs>
</svg>
