<svg width="577" height="513" viewBox="0 0 577 513" fill="none" xmlns="http://www.w3.org/2000/svg">
<g clip-path="url(#clip0_104_1634)">
<path d="M48.1 300.9L228.8 469.6C236.3 476.6 246.2 480.5 256.5 480.5C266.8 480.5 276.7 476.6 284.2 469.6L286.8 467.2C267.7 439.1 256.5 405.1 256.5 368.5C256.5 271.3 335.3 192.5 432.5 192.5C460.8 192.5 487.5 199.2 511.2 211C512.1 204.5 512.5 198 512.5 191.4V185.6C512.5 115.7 462 56.1 393.1 44.6C347.5 37 301.1 51.9 268.5 84.5L256.5 96.5L244.5 84.5C211.9 51.9 165.5 37 119.9 44.6C51 56.1 0.5 115.7 0.5 185.6V191.4C0.5 232.9 17.7 272.6 48.1 300.9ZM432.5 512.5C470.691 512.5 507.318 497.329 534.323 470.323C561.329 443.318 576.5 406.691 576.5 368.5C576.5 330.309 561.329 293.682 534.323 266.677C507.318 239.671 470.691 224.5 432.5 224.5C394.309 224.5 357.682 239.671 330.677 266.677C303.671 293.682 288.5 330.309 288.5 368.5C288.5 406.691 303.671 443.318 330.677 470.323C357.682 497.329 394.309 512.5 432.5 512.5ZM432.5 416.5C438.865 416.5 444.97 419.029 449.471 423.529C453.971 428.03 456.5 434.135 456.5 440.5C456.5 446.865 453.971 452.97 449.471 457.471C444.97 461.971 438.865 464.5 432.5 464.5C426.135 464.5 420.03 461.971 415.529 457.471C411.029 452.97 408.5 446.865 408.5 440.5C408.5 434.135 411.029 428.03 415.529 423.529C420.03 419.029 426.135 416.5 432.5 416.5ZM432.5 272.5C441.3 272.5 448.5 279.7 448.5 288.5V368.5C448.5 377.3 441.3 384.5 432.5 384.5C423.7 384.5 416.5 377.3 416.5 368.5V288.5C416.5 279.7 423.7 272.5 432.5 272.5Z" fill="#47535F"/>
</g>
<defs>
<clipPath id="clip0_104_1634">
<rect width="576" height="512" fill="white" transform="translate(0.5 0.5)"/>
</clipPath>
</defs>
</svg>
