<svg width="513" height="513" viewBox="0 0 513 513" fill="none" xmlns="http://www.w3.org/2000/svg">
<g clip-path="url(#clip0_104_1642)">
<path d="M119.9 44.6C143.2 40.7 166.7 42.7 188.5 49.9L238.3 127.4L162.9 202.8C161.4 204.3 160.5 206.4 160.6 208.6C160.7 210.8 161.6 212.8 163.2 214.3L275.2 318.3C278.1 321 282.6 321.2 285.7 318.6C288.8 316 289.5 311.6 287.4 308.2L227 210.1L317.7 134.5C320.3 132.4 321.2 128.8 320.1 125.7L297.3 62.3C325.8 45.6 359.7 39.1 393 44.7C462 56.1 512.5 115.7 512.5 185.6V191.4C512.5 232.9 495.3 272.6 464.9 300.9L284.2 469.6C276.7 476.6 266.8 480.5 256.5 480.5C246.2 480.5 236.3 476.6 228.8 469.6L48.1 300.9C17.7 272.6 0.5 232.9 0.5 191.4V185.6C0.5 115.7 51 56.1 119.9 44.6Z" fill="#47535F"/>
</g>
<defs>
<clipPath id="clip0_104_1642">
<rect width="512" height="512" fill="white" transform="translate(0.5 0.5)"/>
</clipPath>
</defs>
</svg>
