<svg width="513" height="513" viewBox="0 0 513 513" fill="none" xmlns="http://www.w3.org/2000/svg">
<g clip-path="url(#clip0_104_1644)">
<path d="M228.8 469.6L48.1 300.9C43.9 297 39.9 292.8 36.2 288.5H123.2C145.8 288.5 166.2 274.9 174.9 254L185.4 228.8L234.7 338.3C238.5 346.8 246.8 352.3 256.1 352.4C265.4 352.5 273.9 347.4 278.1 339.1L320.5 254.2L322.2 257.6C331.7 276.6 351.1 288.6 372.3 288.6H476.8C473.1 292.9 469.1 297.1 464.9 301L284.2 469.6C276.7 476.6 266.8 480.5 256.5 480.5C246.2 480.5 236.3 476.6 228.8 469.6ZM504.2 240.5H372.2C369.2 240.5 366.4 238.8 365 236.1L341.8 189.8C337.7 181.7 329.4 176.5 320.3 176.5C311.2 176.5 302.9 181.6 298.8 189.8L257.4 272.6L206.4 158.7C202.5 150 193.7 144.4 184.2 144.6C174.7 144.8 166.1 150.5 162.4 159.4L130.6 235.7C129.4 238.7 126.4 240.6 123.2 240.6H16.5C13.9 240.6 11.5 241 9.2 241.7C3.5 225.7 0.5 208.7 0.5 191.4V185.6C0.5 115.7 51 56.1 119.9 44.6C165.5 37 211.9 51.9 244.5 84.5L256.5 96.5L268.5 84.5C301.1 51.9 347.5 37 393.1 44.6C462 56.1 512.5 115.7 512.5 185.6V191.4C512.5 208.3 509.7 224.9 504.2 240.5Z" fill="#47535F"/>
</g>
<defs>
<clipPath id="clip0_104_1644">
<rect width="512" height="512" fill="white" transform="translate(0.5 0.5)"/>
</clipPath>
</defs>
</svg>
