<svg width="513" height="513" viewBox="0 0 513 513" fill="none" xmlns="http://www.w3.org/2000/svg">
<path d="M445.8 224.5H510.5C496.1 108.7 404.3 16.9 288.5 2.5V67.2C368.9 80.6 432.4 144.1 445.8 224.5ZM510.5 288.5H445.8C432.4 368.9 368.9 432.4 288.5 445.9V510.5C404.3 496.1 496.1 404.3 510.5 288.5ZM2.5 288.5C16.9 404.3 108.7 496.1 224.5 510.5V445.9C144.1 432.4 80.6 368.9 67.2 288.5H2.5ZM2.5 224.5H67.2C80.6 144.1 144.1 80.6 224.5 67.2V2.5C108.7 16.9 16.9 108.7 2.5 224.5ZM208.5 160.5C208.5 142.8 194.2 128.5 176.5 128.5C158.8 128.5 144.5 142.8 144.5 160.5V352.5C144.5 370.2 158.8 384.5 176.5 384.5C194.2 384.5 208.5 370.2 208.5 352.5V288.5H304.5V352.5C304.5 370.2 318.8 384.5 336.5 384.5C354.2 384.5 368.5 370.2 368.5 352.5V160.5C368.5 142.8 354.2 128.5 336.5 128.5C318.8 128.5 304.5 142.8 304.5 160.5V224.5H208.5V160.5Z" fill="#47535F"/>
</svg>
