<svg width="641" height="513" viewBox="0 0 641 513" fill="none" xmlns="http://www.w3.org/2000/svg">
<g clip-path="url(#clip0_104_1646)">
<path d="M128.5 32.5C128.5 14.8 142.8 0.5 160.5 0.5H544.5C562.2 0.5 576.5 14.8 576.5 32.5C576.5 50.2 562.2 64.5 544.5 64.5H384.5V128.5H416.5C504.9 128.5 576.5 200.1 576.5 288.5V352.5C576.5 370.2 562.2 384.5 544.5 384.5H384.5H320.5C300.4 384.5 281.4 375 269.3 358.9L197.9 263.7C194.4 259 189.6 255.4 184.2 253.2L47.6999 198.6C38.1999 194.8 30.9999 186.6 28.4999 176.6L5.4999 84.4C2.8999 74.3 10.5999 64.5 20.9999 64.5H48.4999C58.5999 64.5 68.0999 69.2 74.0999 77.3L112.5 128.5H320.5V64.5H160.5C142.8 64.5 128.5 50.2 128.5 32.5ZM384.5 320.5H512.5V288.5C512.5 235.5 469.5 192.5 416.5 192.5H384.5V320.5ZM631.1 425.9C643.6 438.4 643.6 458.7 631.1 471.2L627.2 475.1C603.2 499.1 570.6 512.6 536.7 512.6H256.5C238.8 512.6 224.5 498.3 224.5 480.6C224.5 462.9 238.8 448.6 256.5 448.6H536.7C553.7 448.6 570 441.9 582 429.9L585.9 426C598.4 413.5 618.7 413.5 631.2 426L631.1 425.9Z" fill="#47535F"/>
</g>
<defs>
<clipPath id="clip0_104_1646">
<rect width="640" height="512" fill="white" transform="translate(0.5 0.5)"/>
</clipPath>
</defs>
</svg>
