<svg width="577" height="513" viewBox="0 0 577 513" fill="none" xmlns="http://www.w3.org/2000/svg">
<g clip-path="url(#clip0_104_1650)">
<path d="M256.5 32.5C238.8 32.5 224.5 46.8 224.5 64.5V66.8V166.4C224.5 172 220 176.5 214.4 176.5C210.8 176.5 207.4 174.6 205.6 171.4L157.6 87.5C83.5 124 32.5 200.3 32.5 288.5V352.5H544.5V286.1C543.6 198.9 492.8 123.7 419.4 87.5L371.4 171.4C369.6 174.6 366.2 176.5 362.6 176.5C357 176.5 352.5 172 352.5 166.4V66.8V64.5C352.5 46.8 338.2 32.5 320.5 32.5H256.5ZM17.1 384.5C7.9 384.5 0.5 391.9 0.5 401.1C0.5 405.8 2.5 410.3 6.3 413C28 428.9 112.3 480.5 288.5 480.5C464.7 480.5 549 428.9 570.7 413C574.5 410.2 576.5 405.8 576.5 401.1C576.5 391.9 569.1 384.5 559.9 384.5H17.1Z" fill="#47535F"/>
</g>
<defs>
<clipPath id="clip0_104_1650">
<rect width="576" height="512" fill="white" transform="translate(0.5 0.5)"/>
</clipPath>
</defs>
</svg>
