<svg width="513" height="513" viewBox="0 0 513 513" fill="none" xmlns="http://www.w3.org/2000/svg">
<g clip-path="url(#clip0_104_1652)">
<path d="M480 224.5C471.7 99.4 367.7 0.5 240.5 0.5C108 0.5 0.5 108 0.5 240.5V296.8C0.5 345.3 39.7 384.5 88.2 384.5H200.5H215.4L344 505.9C348.5 510.1 354.4 512.5 360.5 512.5H456.5C469.8 512.5 480.5 501.8 480.5 488.5C480.5 475.2 469.8 464.5 456.5 464.5H370L368.5 463V288.5H448.5H480.5C498.2 288.5 512.5 274.2 512.5 256.5C512.5 238.8 498.2 224.5 480.5 224.5H480ZM320.5 417.7L242.5 344L274.9 288.5H320.5V417.7ZM285.8 103.6L320.5 155.6V112.5C320.5 103.7 327.7 96.5 336.5 96.5C345.3 96.5 352.5 103.7 352.5 112.5V208.5C352.5 215.6 347.9 221.8 341.1 223.8C334.3 225.8 327.1 223.2 323.2 217.4L288.5 165.4V208.5C288.5 217.3 281.3 224.5 272.5 224.5C263.7 224.5 256.5 217.3 256.5 208.5V112.5C256.5 105.4 261.1 99.2 267.9 97.2C274.7 95.2 281.9 97.8 285.8 103.6ZM160.5 112.5V176.5C160.5 185.3 167.7 192.5 176.5 192.5C185.3 192.5 192.5 185.3 192.5 176.5V112.5C192.5 103.7 199.7 96.5 208.5 96.5C217.3 96.5 224.5 103.7 224.5 112.5V176.5C224.5 203 203 224.5 176.5 224.5C150 224.5 128.5 203 128.5 176.5V112.5C128.5 103.7 135.7 96.5 144.5 96.5C153.3 96.5 160.5 103.7 160.5 112.5Z" fill="#47535F"/>
</g>
<defs>
<clipPath id="clip0_104_1652">
<rect width="512" height="512" fill="white" transform="translate(0.5 0.5)"/>
</clipPath>
</defs>
</svg>
