<svg width="577" height="513" viewBox="0 0 577 513" fill="none" xmlns="http://www.w3.org/2000/svg">
<g clip-path="url(#clip0_104_1654)">
<path d="M315.5 315.5L473.9 100.5L444.6 71.1L229.5 229.5L315.5 315.5ZM128.5 320.5V248.8C128.5 233.5 135.7 219.2 148 210.2L421.1 8.9C428.5 3.4 437.5 0.5 446.7 0.5C458.1 0.5 469.1 5 477.2 13.1L532 67.9C540.1 76 544.6 86.9 544.6 98.4C544.6 107.6 541.7 116.6 536.2 124L334.9 397C325.9 409.3 311.5 416.5 296.3 416.5H224.5L199.1 441.9C186.6 454.4 166.3 454.4 153.8 441.9L103.1 391.2C90.6 378.7 90.6 358.4 103.1 345.9L128.5 320.5ZM7.5 466.8L70.5 403.8L141.1 474.4L110.1 505.4C105.6 509.9 99.5 512.4 93.1 512.4H24.5C11.2 512.4 0.5 501.7 0.5 488.4V483.7C0.5 477.3 3 471.2 7.5 466.7V466.8Z" fill="#47535F"/>
</g>
<defs>
<clipPath id="clip0_104_1654">
<rect width="576" height="512" fill="white" transform="translate(0.5 0.5)"/>
</clipPath>
</defs>
</svg>
