<svg width="577" height="513" viewBox="0 0 577 513" fill="none" xmlns="http://www.w3.org/2000/svg">
<g clip-path="url(#clip0_104_1658)">
<path d="M252.9 104.3L279.9 152.3C282.7 157.3 288.1 160.5 293.8 160.5H347.1C352.9 160.5 358.2 157.4 361 152.3L388 104.3C390.7 99.4 390.7 93.5 388 88.6L361 40.6C358.2 35.6 352.8 32.4 347.1 32.4H293.9C288.1 32.4 282.8 35.5 280 40.6L253 88.6C250.3 93.5 250.3 99.4 253 104.3H252.9ZM68.8 87.5C43.6 62.3 0.5 80.2 0.5 115.8V432.5C0.5 476.7 36.3 512.5 80.5 512.5H397.2C432.8 512.5 450.7 469.4 425.5 444.2L68.8 87.5ZM504.7 404.1C509.6 406.8 515.5 406.8 520.4 404.1L568.4 377.1C573.4 374.3 576.6 368.9 576.6 363.2V309.9C576.6 304.1 573.5 298.8 568.4 296L520.4 269C515.5 266.3 509.6 266.3 504.7 269L456.7 296C451.7 298.8 448.5 304.2 448.5 309.9V363.2C448.5 369 451.6 374.3 456.7 377.1L504.7 404.1ZM192.5 64.5C192.5 56.0131 189.129 47.8737 183.127 41.8726C177.126 35.8714 168.987 32.5 160.5 32.5C152.013 32.5 143.874 35.8714 137.873 41.8726C131.871 47.8737 128.5 56.0131 128.5 64.5C128.5 72.9869 131.871 81.1262 137.873 87.1274C143.874 93.1286 152.013 96.5 160.5 96.5C168.987 96.5 177.126 93.1286 183.127 87.1274C189.129 81.1262 192.5 72.9869 192.5 64.5ZM384.5 288.5C392.987 288.5 401.126 285.129 407.127 279.127C413.129 273.126 416.5 264.987 416.5 256.5C416.5 248.013 413.129 239.874 407.127 233.873C401.126 227.871 392.987 224.5 384.5 224.5C376.013 224.5 367.874 227.871 361.873 233.873C355.871 239.874 352.5 248.013 352.5 256.5C352.5 264.987 355.871 273.126 361.873 279.127C367.874 285.129 376.013 288.5 384.5 288.5Z" fill="#47535F"/>
</g>
<defs>
<clipPath id="clip0_104_1658">
<rect width="576" height="512" fill="white" transform="translate(0.5 0.5)"/>
</clipPath>
</defs>
</svg>
