<svg width="577" height="513" viewBox="0 0 577 513" fill="none" xmlns="http://www.w3.org/2000/svg">
<g clip-path="url(#clip0_104_1656)">
<path d="M440.2 402.4C474.4 425.5 521.3 421.9 551.6 391.6C586 357.2 586 301.5 551.6 267.2C523.8 239.4 482.1 234.1 449 251.2C437.2 257.3 432.6 271.8 438.7 283.5C444.8 295.2 459.3 299.9 471 293.8C486.1 286 505 288.5 517.6 301.1C533.2 316.7 533.2 342 517.6 357.7C502 373.4 476.7 373.3 461 357.7L379.3 276C401.7 261.8 416.5 236.9 416.5 208.5C416.5 174.6 395.4 145.6 365.6 134C367.5 127.2 368.5 120 368.5 112.5C368.5 68.3 332.7 32.5 288.5 32.5C261.2 32.5 237 46.2 222.6 67.1C216.8 47.1 198.4 32.5 176.5 32.5C150 32.5 128.5 54 128.5 80.5C128.5 84.5 129 88.4 129.9 92.1L440.2 402.4ZM480.5 64.5C480.5 56.0131 477.129 47.8737 471.127 41.8726C465.126 35.8714 456.987 32.5 448.5 32.5C440.013 32.5 431.874 35.8714 425.873 41.8726C419.871 47.8737 416.5 56.0131 416.5 64.5C416.5 72.9869 419.871 81.1263 425.873 87.1274C431.874 93.1286 440.013 96.5 448.5 96.5C456.987 96.5 465.126 93.1286 471.127 87.1274C477.129 81.1263 480.5 72.9869 480.5 64.5ZM480.5 192.5C488.987 192.5 497.126 189.129 503.127 183.127C509.129 177.126 512.5 168.987 512.5 160.5C512.5 152.013 509.129 143.874 503.127 137.873C497.126 131.871 488.987 128.5 480.5 128.5C472.013 128.5 463.874 131.871 457.873 137.873C451.871 143.874 448.5 152.013 448.5 160.5C448.5 168.987 451.871 177.126 457.873 183.127C463.874 189.129 472.013 192.5 480.5 192.5ZM68.8 87.5C43.6 62.3 0.5 80.2 0.5 115.8V432.5C0.5 476.7 36.3 512.5 80.5 512.5H397.2C432.8 512.5 450.7 469.4 425.5 444.2L68.8 87.5Z" fill="#47535F"/>
</g>
<defs>
<clipPath id="clip0_104_1656">
<rect width="576" height="512" fill="white" transform="translate(0.5 0.5)"/>
</clipPath>
</defs>
</svg>
