<svg width="641" height="513" viewBox="0 0 641 513" fill="none" xmlns="http://www.w3.org/2000/svg">
<g clip-path="url(#clip0_104_1660)">
<path d="M407.5 47.5C416.9 38.1 432.1 38.1 441.4 47.5L458.6 64.7C460.5 64.6 462.5 64.5 464.4 64.5H496.4C507.6 64.5 518.3 66.8 528 71L543.5 55.5C552.9 46.1 568.1 46.1 577.4 55.5C586.7 64.9 586.8 80.1 577.4 89.4L564.5 102.4C572.1 114.6 576.5 129.1 576.5 144.5C576.5 154.7 583.9 163.3 593.2 167.5C621.1 180 640.5 208 640.5 240.5C640.5 266.7 627.9 289.9 608.5 304.5V336.5C608.5 345.3 601.3 352.5 592.5 352.5H560.5C551.7 352.5 544.5 345.3 544.5 336.5V320.5H480.5V336.5C480.5 345.3 473.3 352.5 464.5 352.5H432.5C423.7 352.5 416.5 345.3 416.5 336.5V318.9C404.7 316.5 393.8 311.5 384.5 304.5C383 303.4 381.6 302.2 380.2 301C363.2 286.3 352.5 264.6 352.5 240.5C352.5 231.7 345.3 224.5 336.5 224.5C327.7 224.5 320.5 231.7 320.5 240.5C320.5 285.2 346.7 323.7 384.5 341.7V352.5C384.5 370.2 398.8 384.5 416.5 384.5H448.5V448.5C448.5 466.2 434.2 480.5 416.5 480.5H352.5C334.8 480.5 320.5 466.2 320.5 448.5V372.5C300.7 380.2 279.1 384.5 256.5 384.5C233.9 384.5 212.3 380.2 192.5 372.5V448.5C192.5 466.2 178.2 480.5 160.5 480.5H96.5C78.8 480.5 64.5 466.2 64.5 448.5V329.6L46.4 370.2C41 382.3 26.8 387.8 14.7 382.4C2.59997 377 -2.80003 362.9 2.59997 350.8L24.5 301.4C29.8 289.5 32.5 276.7 32.5 263.7C32.5 156.2 117.7 68.5 224.3 64.6L224.5 64.5H231.7H256.5H288.5C330.2 64.5 371.9 76.6 405.7 90.2C407.4 88.4 409.2 86.6 411 85L407.5 81.5C398.1 72.1 398.1 56.9 407.5 47.6V47.5ZM480.5 232.5C480.5 226.135 477.971 220.03 473.471 215.529C468.97 211.029 462.865 208.5 456.5 208.5C450.135 208.5 444.03 211.029 439.529 215.529C435.029 220.03 432.5 226.135 432.5 232.5C432.5 238.865 435.029 244.97 439.529 249.471C444.03 253.971 450.135 256.5 456.5 256.5C462.865 256.5 468.97 253.971 473.471 249.471C477.971 244.97 480.5 238.865 480.5 232.5ZM568.5 256.5C574.865 256.5 580.97 253.971 585.471 249.471C589.971 244.97 592.5 238.865 592.5 232.5C592.5 226.135 589.971 220.03 585.471 215.529C580.97 211.029 574.865 208.5 568.5 208.5C562.135 208.5 556.03 211.029 551.529 215.529C547.029 220.03 544.5 226.135 544.5 232.5C544.5 238.865 547.029 244.97 551.529 249.471C556.03 253.971 562.135 256.5 568.5 256.5ZM480.5 144.5C480.5 140.257 478.814 136.187 475.814 133.186C472.813 130.186 468.743 128.5 464.5 128.5C460.257 128.5 456.187 130.186 453.186 133.186C450.186 136.187 448.5 140.257 448.5 144.5C448.5 148.743 450.186 152.813 453.186 155.814C456.187 158.814 460.257 160.5 464.5 160.5C468.743 160.5 472.813 158.814 475.814 155.814C478.814 152.813 480.5 148.743 480.5 144.5ZM528.5 160.5C532.743 160.5 536.813 158.814 539.814 155.814C542.814 152.813 544.5 148.743 544.5 144.5C544.5 140.257 542.814 136.187 539.814 133.186C536.813 130.186 532.743 128.5 528.5 128.5C524.257 128.5 520.187 130.186 517.186 133.186C514.186 136.187 512.5 140.257 512.5 144.5C512.5 148.743 514.186 152.813 517.186 155.814C520.187 158.814 524.257 160.5 528.5 160.5Z" fill="#47535F"/>
</g>
<defs>
<clipPath id="clip0_104_1660">
<rect width="640" height="512" fill="white" transform="translate(0.5 0.5)"/>
</clipPath>
</defs>
</svg>
