<svg width="513" height="513" viewBox="0 0 513 513" fill="none" xmlns="http://www.w3.org/2000/svg">
<g clip-path="url(#clip0_104_1662)">
<path d="M256.5 256.5C115.1 256.5 0.5 213.5 0.5 160.5C0.5 107.5 115.1 64.5 256.5 64.5C397.9 64.5 512.5 107.5 512.5 160.5C512.5 213.5 397.9 256.5 256.5 256.5ZM448.8 258.3C473.5 249 495.7 237.3 512.5 222.7V352.5C512.5 405.5 397.9 448.5 256.5 448.5C115.1 448.5 0.5 405.5 0.5 352.5V222.8C17.3 237.4 39.5 249.1 64.2 258.4C115 277.4 183 288.5 256.5 288.5C330 288.5 398 277.4 448.8 258.3Z" fill="#47535F"/>
</g>
<defs>
<clipPath id="clip0_104_1662">
<rect width="512" height="512" fill="white" transform="translate(0.5 0.5)"/>
</clipPath>
</defs>
</svg>
