<svg width="513" height="513" viewBox="0 0 513 513" fill="none" xmlns="http://www.w3.org/2000/svg">
<g clip-path="url(#clip0_104_1664)">
<path d="M256.501 96.5C269.231 96.5 281.44 91.4429 290.442 82.4411C299.444 73.4394 304.501 61.2304 304.501 48.5C304.501 35.7696 299.444 23.5606 290.442 14.5589C281.44 5.55713 269.231 0.5 256.501 0.5C243.77 0.5 231.561 5.55713 222.56 14.5589C213.558 23.5606 208.501 35.7696 208.501 48.5C208.501 61.2304 213.558 73.4394 222.56 82.4411C231.561 91.4429 243.77 96.5 256.501 96.5ZM176.501 192.5C189.231 192.5 201.44 187.443 210.442 178.441C219.444 169.439 224.501 157.23 224.501 144.5C224.501 131.77 219.444 119.561 210.442 110.559C201.44 101.557 189.231 96.5 176.501 96.5C163.77 96.5 151.561 101.557 142.56 110.559C133.558 119.561 128.501 131.77 128.501 144.5C128.501 157.23 133.558 169.439 142.56 178.441C151.561 187.443 163.77 192.5 176.501 192.5ZM277.301 384.3C278.301 384.4 279.401 384.5 280.501 384.5C320.301 384.5 352.501 416.7 352.501 456.5V479.2C352.501 495.6 368.501 507.1 384.101 502L396.901 497.7C414.901 491.7 434.201 491.2 452.501 496.2L471.901 501.5C489.801 506.4 506.301 489.9 501.401 472L496.101 452.5C491.101 434.2 491.701 414.9 497.601 396.9L501.901 384.1C507.101 368.6 495.501 352.5 479.101 352.5C444.501 352.5 416.401 324.4 416.401 289.8V257.8C416.401 241.4 400.401 229.9 384.801 235L372.001 239.3C354.001 245.3 334.701 245.8 316.401 240.8L286.801 232.7C283.901 231.9 280.901 231.7 278.101 232C282.301 241.7 283.901 252.8 281.801 264.3L275.501 299.2C274.001 307.6 274.101 316.2 276.001 324.5L281.301 348.4C284.101 361.1 282.401 373.6 277.301 384.3ZM128.101 235C112.601 229.8 96.5007 241.4 96.5007 257.8V289.8C96.5007 324.4 68.4007 352.5 33.8007 352.5C17.4007 352.5 5.90073 368.5 11.0007 384.1L15.3007 396.9C21.3007 414.9 21.8007 434.2 16.8007 452.5L11.5007 471.9C6.70073 489.9 23.1007 506.3 41.0007 501.5L60.5007 496.1C78.8007 491.1 98.1007 491.6 116.101 497.6L128.901 501.9C144.401 507.1 160.501 495.5 160.501 479.1V447.1C160.501 412.5 188.601 384.4 223.201 384.4C239.601 384.4 251.101 368.4 246.001 352.8L241.701 340C235.701 322 235.201 302.7 240.201 284.4L245.501 265C250.401 247.1 233.901 230.6 216.001 235.5L196.501 240.9C178.201 245.9 158.901 245.3 140.901 239.4L128.101 235.1V235ZM384.501 144.5C384.501 131.77 379.444 119.561 370.442 110.559C361.44 101.557 349.231 96.5 336.501 96.5C323.77 96.5 311.561 101.557 302.56 110.559C293.558 119.561 288.501 131.77 288.501 144.5C288.501 157.23 293.558 169.439 302.56 178.441C311.561 187.443 323.77 192.5 336.501 192.5C349.231 192.5 361.44 187.443 370.442 178.441C379.444 169.439 384.501 157.23 384.501 144.5Z" fill="#47535F"/>
</g>
<defs>
<clipPath id="clip0_104_1664">
<rect width="512" height="512" fill="white" transform="translate(0.5 0.5)"/>
</clipPath>
</defs>
</svg>
