<svg width="577" height="513" viewBox="0 0 577 513" fill="none" xmlns="http://www.w3.org/2000/svg">
<g clip-path="url(#clip0_104_1666)">
<path d="M448.5 238.6V160.5H464.5L474.3 180.1C486.8 205.2 516.5 216.5 542.6 206.1C563.1 197.9 576.5 178.1 576.5 156V80.5C576.5 61.4 568.1 44.2 554.8 32.5H560.5C569.3 32.5 576.5 25.3 576.5 16.5C576.5 7.7 569.3 0.5 560.5 0.5H480.5H448.5C377.8 0.5 320.5 57.8 320.5 128.5H224.5H203.7H149.3C118.6 128.5 91.7 144.8 76.8 169.3C33.7 175 0.5 211.9 0.5 256.5V312.5C0.5 325.8 11.2 336.5 24.5 336.5C37.8 336.5 48.5 325.8 48.5 312.5V256.5C48.5 243.1 55.1 231.3 65.2 224C66.8 237 71.5 249.4 78.8 260.4L107 302.8C115.3 315.2 113.4 331.5 105.8 344.4C89.3 372.4 85.2 406.6 95.8 438.3L113.3 490.7C117.7 503.8 129.9 512.6 143.7 512.6H177.4C199.2 512.6 214.7 491.2 207.8 470.5L187 408C184.9 401.6 186.5 394.6 191.3 389.8L204 377.1C217.2 363.9 224.6 346 224.6 327.4C224.6 325.1 224.5 322.8 224.3 320.5L308.3 344.5C312.4 345.7 316.5 346.6 320.6 347.3V480.5C320.6 498.2 334.9 512.5 352.6 512.5H384.6C402.3 512.5 416.6 498.2 416.6 480.5V316.2C435.8 297 448.1 270.5 448.6 240.5V238.6H448.5ZM496.5 64.5C500.743 64.5 504.813 66.1857 507.814 69.1863C510.814 72.1869 512.5 76.2565 512.5 80.5C512.5 84.7435 510.814 88.8131 507.814 91.8137C504.813 94.8143 500.743 96.5 496.5 96.5C492.257 96.5 488.187 94.8143 485.186 91.8137C482.186 88.8131 480.5 84.7435 480.5 80.5C480.5 76.2565 482.186 72.1869 485.186 69.1863C488.187 66.1857 492.257 64.5 496.5 64.5Z" fill="#47535F"/>
</g>
<defs>
<clipPath id="clip0_104_1666">
<rect width="576" height="512" fill="white" transform="translate(0.5 0.5)"/>
</clipPath>
</defs>
</svg>
