<svg width="641" height="513" viewBox="0 0 641 513" fill="none" xmlns="http://www.w3.org/2000/svg">
<g clip-path="url(#clip0_104_1668)">
<path d="M64.5 464.5V317.4C64.5 209 132.8 112.3 235 76.1L404.7 16C426.1 8.4 448.5 24.3 448.5 46.9C448.5 57.9 443 68.1 433.9 74.2L400.5 96.5C448.6 96.5 491.7 126.3 508.6 171.4L557.2 300.9C569 332.3 561.3 367.7 537.6 391.4C521.6 407.4 499.8 416.5 477.1 416.5H473.7C447.6 416.5 422.8 404.9 406.1 384.8L373.8 346.1C362.1 350.2 349.6 352.5 336.5 352.5H336.4C330.1 352.5 323.9 352 317.8 351C314.2 350.4 310.6 349.6 307.1 348.7C278.2 340.9 254 321.9 239.3 296.5C234.9 288.9 225.1 286.2 217.4 290.7C209.7 295.2 207.1 304.9 211.6 312.6C235.6 354.1 279.9 382.6 330.9 384.5L378.1 455.3C382.1 461.4 384.3 468.5 384.3 475.7C384.3 496 367.8 512.5 347.5 512.5H112.5C86 512.5 64.5 491 64.5 464.5ZM392.5 224.5C395.652 224.5 398.773 223.879 401.684 222.673C404.596 221.467 407.242 219.699 409.471 217.471C411.699 215.242 413.467 212.596 414.673 209.684C415.879 206.773 416.5 203.652 416.5 200.5C416.5 197.348 415.879 194.227 414.673 191.316C413.467 188.404 411.699 185.758 409.471 183.529C407.242 181.301 404.596 179.533 401.684 178.327C398.773 177.121 395.652 176.5 392.5 176.5C389.348 176.5 386.227 177.121 383.316 178.327C380.404 179.533 377.758 181.301 375.529 183.529C373.301 185.758 371.533 188.404 370.327 191.316C369.121 194.227 368.5 197.348 368.5 200.5C368.5 203.652 369.121 206.773 370.327 209.684C371.533 212.596 373.301 215.242 375.529 217.471C377.758 219.699 380.404 221.467 383.316 222.673C386.227 223.879 389.348 224.5 392.5 224.5Z" fill="#47535F"/>
</g>
<defs>
<clipPath id="clip0_104_1668">
<rect width="640" height="512" fill="white" transform="translate(0.5 0.5)"/>
</clipPath>
</defs>
</svg>
