<svg width="577" height="513" viewBox="0 0 577 513" fill="none" xmlns="http://www.w3.org/2000/svg">
<g clip-path="url(#clip0_104_1672)">
<path d="M48.5 0.5C22 0.5 0.5 22 0.5 48.5V256.5H144.5C153.3 256.5 160.5 263.7 160.5 272.5C160.5 281.3 153.3 288.5 144.5 288.5H0.5V352.5H144.5C153.3 352.5 160.5 359.7 160.5 368.5C160.5 377.3 153.3 384.5 144.5 384.5H0.5V464.5C0.5 491 22 512.5 48.5 512.5H266.4C260.1 502.3 256.5 490.3 256.5 477.4C256.5 430.5 282.3 389.6 320.5 368.2V272.3V48.5C320.5 22 299 0.5 272.5 0.5H48.5ZM152.5 64.5H168.5C177.3 64.5 184.5 71.7 184.5 80.5V104.5H208.5C217.3 104.5 224.5 111.7 224.5 120.5V136.5C224.5 145.3 217.3 152.5 208.5 152.5H184.5V176.5C184.5 185.3 177.3 192.5 168.5 192.5H152.5C143.7 192.5 136.5 185.3 136.5 176.5V152.5H112.5C103.7 152.5 96.5 145.3 96.5 136.5V120.5C96.5 111.7 103.7 104.5 112.5 104.5H136.5V80.5C136.5 71.7 143.7 64.5 152.5 64.5ZM512.5 272.5C512.5 251.283 504.071 230.934 489.069 215.931C474.066 200.929 453.717 192.5 432.5 192.5C411.283 192.5 390.934 200.929 375.931 215.931C360.929 230.934 352.5 251.283 352.5 272.5C352.5 293.717 360.929 314.066 375.931 329.069C390.934 344.071 411.283 352.5 432.5 352.5C453.717 352.5 474.066 344.071 489.069 329.069C504.071 314.066 512.5 293.717 512.5 272.5ZM288.5 477.6C288.5 496.9 304.1 512.5 323.4 512.5H541.6C560.9 512.5 576.5 496.9 576.5 477.6C576.5 426.2 534.8 384.5 483.4 384.5H381.6C330.2 384.5 288.5 426.2 288.5 477.6Z" fill="#47535F"/>
</g>
<defs>
<clipPath id="clip0_104_1672">
<rect width="576" height="512" fill="white" transform="translate(0.5 0.5)"/>
</clipPath>
</defs>
</svg>
