<svg width="641" height="513" viewBox="0 0 641 513" fill="none" xmlns="http://www.w3.org/2000/svg">
<g clip-path="url(#clip0_104_1670)">
<path d="M192.5 48.5C192.5 22 214 0.5 240.5 0.5H400.5C427 0.5 448.5 22 448.5 48.5V512.5H368.5V432.5C368.5 406 347 384.5 320.5 384.5C294 384.5 272.5 406 272.5 432.5V512.5H192.5V48.5ZM48.5 96.5H160.5V512.5H48.5C22 512.5 0.5 491 0.5 464.5V320.5H80.5C89.3 320.5 96.5 313.3 96.5 304.5C96.5 295.7 89.3 288.5 80.5 288.5H0.5V224.5H80.5C89.3 224.5 96.5 217.3 96.5 208.5C96.5 199.7 89.3 192.5 80.5 192.5H0.5V144.5C0.5 118 22 96.5 48.5 96.5ZM592.5 96.5C619 96.5 640.5 118 640.5 144.5V192.5H560.5C551.7 192.5 544.5 199.7 544.5 208.5C544.5 217.3 551.7 224.5 560.5 224.5H640.5V288.5H560.5C551.7 288.5 544.5 295.7 544.5 304.5C544.5 313.3 551.7 320.5 560.5 320.5H640.5V464.5C640.5 491 619 512.5 592.5 512.5H480.5V96.5H592.5ZM312.5 64.5C303.7 64.5 296.5 71.7 296.5 80.5V104.5H272.5C263.7 104.5 256.5 111.7 256.5 120.5V136.5C256.5 145.3 263.7 152.5 272.5 152.5H296.5V176.5C296.5 185.3 303.7 192.5 312.5 192.5H328.5C337.3 192.5 344.5 185.3 344.5 176.5V152.5H368.5C377.3 152.5 384.5 145.3 384.5 136.5V120.5C384.5 111.7 377.3 104.5 368.5 104.5H344.5V80.5C344.5 71.7 337.3 64.5 328.5 64.5H312.5Z" fill="#47535F"/>
</g>
<defs>
<clipPath id="clip0_104_1670">
<rect width="640" height="512" fill="white" transform="translate(0.5 0.5)"/>
</clipPath>
</defs>
</svg>
