<svg width="513" height="513" viewBox="0 0 513 513" fill="none" xmlns="http://www.w3.org/2000/svg">
<g clip-path="url(#clip0_104_1678)">
<path d="M272.5 24.5C272.5 11.2 261.8 0.5 248.5 0.5C235.2 0.5 224.5 11.2 224.5 24.5V29.7C224.5 63.7 238.9 96.1 264.2 118.9L280.6 133.7C295.8 147.4 304.4 166.8 304.4 187.2V200.5C304.4 213.8 315.1 224.5 328.4 224.5C341.7 224.5 352.4 213.8 352.4 200.5V187.3C352.4 153.3 338 120.9 312.7 98.1L296.3 83.3C281.2 69.6 272.5 50.2 272.5 29.7V24.5ZM0.5 320.5V336.5V448.5C0.5 483.8 29.2 512.5 64.5 512.5H448.5C483.8 512.5 512.5 483.8 512.5 448.5V320.5C512.5 285.2 483.8 256.5 448.5 256.5H277.8C264 256.5 250.5 252 239.4 243.7L154.1 179.7C137.5 167.2 117.3 160.5 96.5 160.5C43.5 160.5 0.5 203.5 0.5 256.5V320.5ZM128.5 336.5V432.5C128.5 441.3 121.3 448.5 112.5 448.5C103.7 448.5 96.5 441.3 96.5 432.5V336.5C96.5 327.7 103.7 320.5 112.5 320.5C121.3 320.5 128.5 327.7 128.5 336.5ZM208.5 320.5C217.3 320.5 224.5 327.7 224.5 336.5V432.5C224.5 441.3 217.3 448.5 208.5 448.5C199.7 448.5 192.5 441.3 192.5 432.5V336.5C192.5 327.7 199.7 320.5 208.5 320.5ZM320.5 336.5V432.5C320.5 441.3 313.3 448.5 304.5 448.5C295.7 448.5 288.5 441.3 288.5 432.5V336.5C288.5 327.7 295.7 320.5 304.5 320.5C313.3 320.5 320.5 327.7 320.5 336.5ZM400.5 320.5C409.3 320.5 416.5 327.7 416.5 336.5V432.5C416.5 441.3 409.3 448.5 400.5 448.5C391.7 448.5 384.5 441.3 384.5 432.5V336.5C384.5 327.7 391.7 320.5 400.5 320.5ZM360.5 0.5C347.2 0.5 336.5 11.2 336.5 24.5V29.7C336.5 63.7 350.9 96.1 376.2 118.9L392.6 133.7C407.8 147.4 416.4 166.8 416.4 187.2V200.5C416.4 213.8 427.1 224.5 440.4 224.5C453.7 224.5 464.4 213.8 464.4 200.5V187.3C464.4 153.3 450 120.9 424.7 98.1L408.3 83.3C393.2 69.6 384.5 50.2 384.5 29.7V24.5C384.5 11.2 373.8 0.5 360.5 0.5ZM64.5 128.5C81.4739 128.5 97.7525 121.757 109.755 109.755C121.757 97.7525 128.5 81.4739 128.5 64.5C128.5 47.5261 121.757 31.2475 109.755 19.2452C97.7525 7.24284 81.4739 0.5 64.5 0.5C47.5261 0.5 31.2475 7.24284 19.2452 19.2452C7.24284 31.2475 0.5 47.5261 0.5 64.5C0.5 81.4739 7.24284 97.7525 19.2452 109.755C31.2475 121.757 47.5261 128.5 64.5 128.5Z" fill="#47535F"/>
</g>
<defs>
<clipPath id="clip0_104_1678">
<rect width="512" height="512" fill="white" transform="translate(0.5 0.5)"/>
</clipPath>
</defs>
</svg>
