<svg width="513" height="513" viewBox="0 0 513 513" fill="none" xmlns="http://www.w3.org/2000/svg">
<g clip-path="url(#clip0_104_1674)">
<path d="M489.1 23.9C520.3 55.1 520.3 105.8 489.1 137L137.1 489C105.9 520.2 55.2 520.2 24 489C-7.2 457.8 -7.2 407.1 24 375.9L376 23.9C407.2 -7.3 457.9 -7.3 489.1 23.9ZM443.8 93.2C437.6 87 427.4 87 421.2 93.2C408.7 105.7 397.4 108.3 383.7 110.8L381.2 111.2C367.4 113.7 349.6 116.8 333.2 133.2C316.5 149.9 312.3 169.2 309.1 184.1L308.9 185.1C305.5 200.7 302.9 211.5 293.2 221.2C283.5 230.9 272.7 233.5 257.1 236.9L256.1 237.1C241.2 240.3 221.9 244.5 205.2 261.2C188.5 277.9 184.3 297.2 181.1 312.1L180.9 313.1C177.5 328.7 174.9 339.5 165.2 349.2C156 358.4 147.2 360 132.5 362.6L131.6 362.8C116 365.6 96.7 369.7 77.2 389.2C71 395.4 71 405.6 77.2 411.8C83.4 418 93.6 418 99.8 411.8C112.3 399.3 123.6 396.7 137.3 394.2L139.8 393.8C153.6 391.3 171.4 388.2 187.8 371.8C204.5 355.1 208.7 335.8 211.9 320.9L212.1 319.9C215.5 304.3 218.1 293.5 227.8 283.8C237.5 274.1 248.3 271.5 263.9 268.1L264.9 267.9C279.8 264.7 299.1 260.5 315.8 243.8C332.5 227.1 336.7 207.8 339.9 192.9L340.1 191.9C343.5 176.3 346.1 165.5 355.8 155.8C365 146.6 373.8 145 388.5 142.4L389.4 142.2C405 139.4 424.3 135.3 443.8 115.8C450 109.6 450 99.4 443.8 93.2ZM191.7 479.7L479.7 191.7L495.5 207.5C506.4 218.4 512.5 233.1 512.5 248.5C512.5 263.9 506.4 278.6 495.5 289.5L289.5 495.5C278.6 506.4 263.9 512.5 248.5 512.5C233.1 512.5 218.4 506.4 207.5 495.5L191.7 479.7ZM17.5 305.5C6.6 294.6 0.5 279.9 0.5 264.5C0.5 249.1 6.6 234.4 17.5 223.5L223.5 17.5C234.4 6.6 249.1 0.500001 264.5 0.500001C279.9 0.500001 294.6 6.6 305.5 17.5L321.3 33.3L33.3 321.3L17.5 305.5Z" fill="#47535F"/>
</g>
<defs>
<clipPath id="clip0_104_1674">
<rect width="512" height="512" fill="white" transform="translate(0.5 0.5)"/>
</clipPath>
</defs>
</svg>
