<svg width="513" height="513" viewBox="0 0 513 513" fill="none" xmlns="http://www.w3.org/2000/svg">
<g clip-path="url(#clip0_104_1676)">
<path d="M0.5 32.5C0.5 14.8 14.8 0.5 32.5 0.5H480.5C498.2 0.5 512.5 14.8 512.5 32.5C512.5 50.2 498.2 64.5 480.5 64.5V448.5C498.2 448.5 512.5 462.8 512.5 480.5C512.5 498.2 498.2 512.5 480.5 512.5H304.5V464.5C304.5 438 283 416.5 256.5 416.5C230 416.5 208.5 438 208.5 464.5V512.5H32.5C14.8 512.5 0.5 498.2 0.5 480.5C0.5 462.8 14.8 448.5 32.5 448.5V64.5C14.8 64.5 0.5 50.2 0.5 32.5ZM96.5 112.5V144.5C96.5 153.3 103.7 160.5 112.5 160.5H144.5C153.3 160.5 160.5 153.3 160.5 144.5V112.5C160.5 103.7 153.3 96.5 144.5 96.5H112.5C103.7 96.5 96.5 103.7 96.5 112.5ZM240.5 96.5C231.7 96.5 224.5 103.7 224.5 112.5V144.5C224.5 153.3 231.7 160.5 240.5 160.5H272.5C281.3 160.5 288.5 153.3 288.5 144.5V112.5C288.5 103.7 281.3 96.5 272.5 96.5H240.5ZM352.5 112.5V144.5C352.5 153.3 359.7 160.5 368.5 160.5H400.5C409.3 160.5 416.5 153.3 416.5 144.5V112.5C416.5 103.7 409.3 96.5 400.5 96.5H368.5C359.7 96.5 352.5 103.7 352.5 112.5ZM112.5 192.5C103.7 192.5 96.5 199.7 96.5 208.5V240.5C96.5 249.3 103.7 256.5 112.5 256.5H144.5C153.3 256.5 160.5 249.3 160.5 240.5V208.5C160.5 199.7 153.3 192.5 144.5 192.5H112.5ZM224.5 208.5V240.5C224.5 249.3 231.7 256.5 240.5 256.5H272.5C281.3 256.5 288.5 249.3 288.5 240.5V208.5C288.5 199.7 281.3 192.5 272.5 192.5H240.5C231.7 192.5 224.5 199.7 224.5 208.5ZM368.5 192.5C359.7 192.5 352.5 199.7 352.5 208.5V240.5C352.5 249.3 359.7 256.5 368.5 256.5H400.5C409.3 256.5 416.5 249.3 416.5 240.5V208.5C416.5 199.7 409.3 192.5 400.5 192.5H368.5ZM328.5 384.5C341.8 384.5 352.8 373.6 349.5 360.7C338.9 319.2 301.3 288.5 256.5 288.5C211.7 288.5 174 319.2 163.5 360.7C160.2 373.5 171.3 384.5 184.5 384.5H328.5Z" fill="#47535F"/>
</g>
<defs>
<clipPath id="clip0_104_1676">
<rect width="512" height="512" fill="white" transform="translate(0.5 0.5)"/>
</clipPath>
</defs>
</svg>
