<svg width="385" height="513" viewBox="0 0 385 513" fill="none" xmlns="http://www.w3.org/2000/svg">
<g clip-path="url(#clip0_104_1686)">
<path d="M32.5 0.5C14.8 0.5 0.5 14.8 0.5 32.5C0.5 50.2 14.8 64.5 32.5 64.5V75.5C32.5 117.9 49.4 158.6 79.4 188.6L147.2 256.5L79.4 324.4C49.4 354.4 32.5 395.1 32.5 437.5V448.5C14.8 448.5 0.5 462.8 0.5 480.5C0.5 498.2 14.8 512.5 32.5 512.5H64.5H320.5H352.5C370.2 512.5 384.5 498.2 384.5 480.5C384.5 462.8 370.2 448.5 352.5 448.5V437.5C352.5 395.1 335.6 354.4 305.6 324.4L237.8 256.5L305.7 188.6C335.7 158.6 352.6 117.9 352.6 75.5V64.5C370.3 64.5 384.6 50.2 384.6 32.5C384.6 14.8 370.3 0.5 352.6 0.5H320.5H64.5H32.5ZM288.5 437.5V448.5H96.5V437.5C96.5 412 106.6 387.6 124.6 369.6L192.5 301.8L260.4 369.7C278.4 387.7 288.5 412.1 288.5 437.6V437.5Z" fill="#47535F"/>
</g>
<defs>
<clipPath id="clip0_104_1686">
<rect width="384" height="512" fill="white" transform="translate(0.5 0.5)"/>
</clipPath>
</defs>
</svg>
