<svg width="385" height="513" viewBox="0 0 385 513" fill="none" xmlns="http://www.w3.org/2000/svg">
<g clip-path="url(#clip0_104_1680)">
<path d="M0.5 32.5C0.5 14.8 14.8 0.5 32.5 0.5H64.5H320.5H352.5C370.2 0.5 384.5 14.8 384.5 32.5C384.5 50.2 370.2 64.5 352.5 64.5V75.5C352.5 117.9 335.6 158.6 305.6 188.6L237.8 256.5L305.7 324.4C335.7 354.4 352.6 395.1 352.6 437.5V448.5C370.3 448.5 384.6 462.8 384.6 480.5C384.6 498.2 370.3 512.5 352.6 512.5H320.5H64.5H32.5C14.8 512.5 0.5 498.2 0.5 480.5C0.5 462.8 14.8 448.5 32.5 448.5V437.5C32.5 395.1 49.4 354.4 79.4 324.4L147.2 256.5L79.4 188.6C49.4 158.6 32.5 117.9 32.5 75.5V64.5C14.8 64.5 0.5 50.2 0.5 32.5ZM96.5 64.5V75.5C96.5 101 106.6 125.4 124.6 143.4L192.5 211.2L260.4 143.3C278.4 125.3 288.5 100.9 288.5 75.4V64.5H96.5ZM96.5 448.5H288.5V437.5C288.5 412 278.4 387.6 260.4 369.6L192.5 301.8L124.6 369.7C106.6 387.7 96.5 412.1 96.5 437.6V448.6V448.5Z" fill="#47535F"/>
</g>
<defs>
<clipPath id="clip0_104_1680">
<rect width="384" height="512" fill="white" transform="translate(0.5 0.5)"/>
</clipPath>
</defs>
</svg>
