<svg width="641" height="513" viewBox="0 0 641 513" fill="none" xmlns="http://www.w3.org/2000/svg">
<g clip-path="url(#clip0_104_1710)">
<path d="M480.5 0.5C462.8 0.5 448.5 14.8 448.5 32.5V192.5V512.5H512.5V192.5H624.5C633.3 192.5 640.5 185.3 640.5 176.5V48.5C640.5 39.7 633.3 32.5 624.5 32.5H512.5C512.5 14.8 498.2 0.5 480.5 0.5ZM416.5 159.5L277.3 40.2C265.3 29.9 247.6 29.9 235.6 40.2L11.6 232.2C1.50003 240.9 -2.19997 255 2.50003 267.6C7.20003 280.2 19.1 288.5 32.5 288.5H64.5V480.5C64.5 498.2 78.8 512.5 96.5 512.5H160.5C178.2 512.5 192.5 498.2 192.5 480.5V384.5C192.5 366.8 206.8 352.5 224.5 352.5H288.5C306.2 352.5 320.5 366.8 320.5 384.5V480.5C320.5 498.2 334.8 512.5 352.5 512.5H417.2H417.4H416.4V159.5H416.5Z" fill="#47535F"/>
</g>
<defs>
<clipPath id="clip0_104_1710">
<rect width="640" height="512" fill="white" transform="translate(0.5 0.5)"/>
</clipPath>
</defs>
</svg>
