<svg width="577" height="513" viewBox="0 0 577 513" fill="none" xmlns="http://www.w3.org/2000/svg">
<g clip-path="url(#clip0_104_1732)">
<path d="M81.3 137C105.4 94.3 153.1 64.5 209.5 64.5C226.4 64.5 242.6 67.2 257.7 72.2C274.5 77.7 292.6 68.6 298.1 51.8C303.6 35 294.5 16.9 277.7 11.4C256.3 4.3 233.3 0.5 209.5 0.5C95.7 0.5 0.5 88.5 0.5 200.5C0.5 292.1 54 372.6 142.7 394.6C156.1 398.4 170.2 400.5 184.9 400.5C185.6 400.5 186.3 400.5 187 400.4C188.8 400.4 190.7 400.5 192.5 400.5C224.4 400.5 253.1 390.6 272.9 381.6C278.7 378.9 284 376.3 288.5 373.9C293 376.3 298.2 379 304.1 381.6C323.9 390.6 352.6 400.5 384.5 400.5C417.5 400.5 450 390.2 479 374.7C492.4 383.1 512.7 394 537.2 399.7C554.4 403.7 571.6 393 575.6 375.8C579.6 358.6 568.9 341.4 551.7 337.4C533.6 333.2 515.5 324.1 501.1 312.2C490 302.7 473.8 302.1 461.9 310.5C439.9 325.7 411.4 336.5 384.5 336.5C357 336.5 329.5 325.9 307 310.4C295.9 302.5 281.1 302.5 270 310.4C247.6 325.9 220.1 336.5 192.6 336.5H192.5C180.1 336.5 168.5 335 157.6 332.2C122.1 320.7 96.5 287.5 96.5 248.5C96.5 200 136 160.5 184.9 160.5C198.4 160.5 211 163.5 222.4 168.8C238.4 176.3 257.5 169.4 264.9 153.3C272.3 137.2 265.5 118.2 249.4 110.8C229.8 101.6 207.9 96.5 184.9 96.5C144.9 96.5 108.5 111.9 81.3 137ZM333.3 118.9C325.2 124.9 320.5 134.4 320.5 144.5V265.5C322.1 266.5 323.8 267.5 325.3 268.6C343.7 281.3 364.9 288.9 384.5 288.9C403.5 288.9 425.7 281 443.7 268.6C467.5 251.9 499.5 253.3 521.8 272C532.4 280.8 546 287.6 559.1 290.6C564.9 292 570.3 294 575.3 296.8C576 294.1 576.4 291.3 576.4 288.4L576 144.4C576 134.4 571.3 125 563.3 118.9L467.8 46.9C456.4 38.3 440.7 38.3 429.3 46.9L333.3 118.9ZM384.5 448.5C357 448.5 329.5 437.9 307 422.4C295.9 414.5 281.1 414.5 270 422.4C247.5 437.9 220 448.5 192.5 448.5C165.6 448.5 137.2 437.7 115.1 422.4C103.2 413.9 87 414.6 75.9 424.1C61.5 436 43.4 445.1 25.3 449.3C8.1 453.3 -2.6 470.5 1.4 487.7C5.4 504.9 22.6 515.6 39.8 511.6C64.3 505.9 84.7 495.1 98 486.6C127 502.2 159.5 512.5 192.5 512.5C224.4 512.5 253.1 502.6 272.9 493.6C278.7 490.9 284 488.3 288.5 485.9C293 488.3 298.2 491 304.1 493.6C323.9 502.6 352.6 512.5 384.5 512.5C417.5 512.5 450 502.2 479 486.7C492.4 495.1 512.7 506 537.2 511.7C554.4 515.7 571.6 505 575.6 487.8C579.6 470.6 568.9 453.4 551.7 449.4C533.6 445.2 515.5 436.1 501.1 424.2C490 414.8 473.8 414.1 461.9 422.5C439.9 437.7 411.4 448.5 384.5 448.5Z" fill="#47535F"/>
</g>
<defs>
<clipPath id="clip0_104_1732">
<rect width="576" height="512" fill="white" transform="translate(0.5 0.5)"/>
</clipPath>
</defs>
</svg>
