<svg width="641" height="513" viewBox="0 0 641 513" fill="none" xmlns="http://www.w3.org/2000/svg">
<g clip-path="url(#clip0_104_1718)">
<path d="M384.5 480.5C384.5 492.2 387.6 503.1 393.1 512.5H392.5C370.4 512.5 352.5 494.6 352.5 472.5V448.5V384.5C352.5 366.8 338.2 352.5 320.5 352.5H256.5C238.8 352.5 224.5 366.8 224.5 384.5V448.5V472.5C224.5 494.6 206.6 512.5 184.5 512.5H160.5H128.6C127.1 512.5 125.6 512.4 124.1 512.3C122.9 512.4 121.7 512.5 120.5 512.5H104.5C82.4 512.5 64.5 494.6 64.5 472.5V360.5C64.5 359.6 64.5 358.6 64.6 357.7V288.1H32.5C14.5 288.1 0.5 274.1 0.5 256C0.5 247 3.5 239 10.5 232L266.9 8.5C273.9 1.5 281.9 0.5 288.9 0.5C295.9 0.5 303.9 2.5 309.9 7.5L491.2 166.8C447.7 182.2 416.5 223.7 416.5 272.5V297.1C397.4 308.2 384.5 328.8 384.5 352.5V480.5ZM528.5 240.5C510.8 240.5 496.5 254.8 496.5 272.5V320.5H560.5V272.5C560.5 254.8 546.2 240.5 528.5 240.5ZM448.5 272.5C448.5 228.3 484.3 192.5 528.5 192.5C572.7 192.5 608.5 228.3 608.5 272.5V320.5C626.2 320.5 640.5 334.8 640.5 352.5V480.5C640.5 498.2 626.2 512.5 608.5 512.5H448.5C430.8 512.5 416.5 498.2 416.5 480.5V352.5C416.5 334.8 430.8 320.5 448.5 320.5V272.5Z" fill="#47535F"/>
</g>
<defs>
<clipPath id="clip0_104_1718">
<rect width="640" height="512" fill="white" transform="translate(0.5 0.5)"/>
</clipPath>
</defs>
</svg>
