<svg width="577" height="513" viewBox="0 0 577 513" fill="none" xmlns="http://www.w3.org/2000/svg">
<g clip-path="url(#clip0_104_1688)">
<path d="M576.3 256C576.3 274 561.3 288.1 544.3 288.1H512.3L513 448.3C513 451 512.8 453.7 512.5 456.4V472.5C512.5 494.6 494.6 512.5 472.5 512.5H456.5C455.4 512.5 454.3 512.5 453.2 512.4C451.8 512.5 450.4 512.5 449 512.5H416.5H392.5C370.4 512.5 352.5 494.6 352.5 472.5V448.5V384.5C352.5 366.8 338.2 352.5 320.5 352.5H256.5C238.8 352.5 224.5 366.8 224.5 384.5V448.5V472.5C224.5 494.6 206.6 512.5 184.5 512.5H160.5H128.6C127.1 512.5 125.6 512.4 124.1 512.3C122.9 512.4 121.7 512.5 120.5 512.5H104.5C82.4 512.5 64.5 494.6 64.5 472.5V360.5C64.5 359.6 64.5 358.6 64.6 357.7V288.1H32.5C14.5 288.1 0.5 274.1 0.5 256C0.5 247 3.5 239 10.5 232L266.9 8.5C273.9 1.5 281.9 0.5 288.9 0.5C295.9 0.5 303.9 2.5 309.9 7.5L565.3 232C573.3 239 577.3 247 576.3 256Z" fill="#47535F"/>
</g>
<defs>
<clipPath id="clip0_104_1688">
<rect width="576" height="512" fill="white" transform="translate(0.5 0.5)"/>
</clipPath>
</defs>
</svg>
