<svg width="577" height="513" viewBox="0 0 577 513" fill="none" xmlns="http://www.w3.org/2000/svg">
<g clip-path="url(#clip0_104_1694)">
<path d="M576.3 256C576.3 274 561.3 288.1 544.3 288.1H512.3L513 448.3C513.2 483.8 484.5 512.6 449 512.6H128.6C93.3 512.6 64.6 483.9 64.6 448.6V288.1H32.5C14.5 288.1 0.5 274.1 0.5 256C0.5 247 3.5 239 10.5 232L266.9 8.5C273.9 1.5 281.9 0.5 288.9 0.5C295.9 0.5 303.9 2.5 309.9 7.5L416.5 101.2V64.5C416.5 46.8 430.8 32.5 448.5 32.5H480.5C498.2 32.5 512.5 46.8 512.5 64.5V185.5L565.3 231.9C573.3 238.9 577.3 246.9 576.3 255.9V256ZM272.5 192.5C263.7 192.5 256.5 199.7 256.5 208.5V256.5H208.5C199.7 256.5 192.5 263.7 192.5 272.5V304.5C192.5 313.3 199.7 320.5 208.5 320.5H256.5V368.5C256.5 377.3 263.7 384.5 272.5 384.5H304.5C313.3 384.5 320.5 377.3 320.5 368.5V320.5H368.5C377.3 320.5 384.5 313.3 384.5 304.5V272.5C384.5 263.7 377.3 256.5 368.5 256.5H320.5V208.5C320.5 199.7 313.3 192.5 304.5 192.5H272.5Z" fill="#47535F"/>
</g>
<defs>
<clipPath id="clip0_104_1694">
<rect width="576" height="512" fill="white" transform="translate(0.5 0.5)"/>
</clipPath>
</defs>
</svg>
