<svg width="577" height="513" viewBox="0 0 577 513" fill="none" xmlns="http://www.w3.org/2000/svg">
<g clip-path="url(#clip0_104_1690)">
<path d="M544.3 288.1C561.3 288.1 576.3 274.1 576.3 256C577.3 247 573.3 239 565.3 232L512.5 185.5V64.5C512.5 46.8 498.2 32.5 480.5 32.5H448.5C430.8 32.5 416.5 46.8 416.5 64.5V101.2L310 7.5C304 2.5 296 0.5 289 0.5C282 0.5 274 1.5 267 8.5L10.5 232C3.5 239 0.5 247 0.5 256C0.5 274 14.5 288.1 32.5 288.1H64.5V357.8C64.4 358.7 64.4 359.6 64.4 360.6V472.5C64.4 494.6 82.3 512.5 104.4 512.5H120.4C121.6 512.5 122.8 512.4 124 512.3C125.5 512.4 127 512.5 128.5 512.5H160.5H184.5C206.6 512.5 224.5 494.6 224.5 472.5V448.5V384.5C224.5 366.8 238.8 352.5 256.5 352.5H320.5C338.2 352.5 352.5 366.8 352.5 384.5V448.5V472.5C352.5 494.6 370.4 512.5 392.5 512.5H416.5H449C450.4 512.5 451.8 512.5 453.2 512.4C454.3 512.5 455.4 512.5 456.5 512.5H472.5C494.6 512.5 512.5 494.6 512.5 472.5V456.3C512.8 453.7 513 451 513 448.2L512.3 288H544.3V288.1Z" fill="#47535F"/>
</g>
<defs>
<clipPath id="clip0_104_1690">
<rect width="576" height="512" fill="white" transform="translate(0.5 0.5)"/>
</clipPath>
</defs>
</svg>
