<svg width="641" height="513" viewBox="0 0 641 513" fill="none" xmlns="http://www.w3.org/2000/svg">
<g clip-path="url(#clip0_104_1714)">
<path d="M288.5 144.5C288.5 106.309 273.329 69.6819 246.323 42.6766C219.318 15.6714 182.691 0.5 144.5 0.5C106.309 0.5 69.6819 15.6714 42.6766 42.6766C15.6714 69.6819 0.5 106.309 0.5 144.5C0.5 182.691 15.6714 219.318 42.6766 246.323C69.6819 273.329 106.309 288.5 144.5 288.5C182.691 288.5 219.318 273.329 246.323 246.323C273.329 219.318 288.5 182.691 288.5 144.5ZM141.2 77.2C147.4 71 157.6 71 163.8 77.2L219.8 133.2C226 139.4 226 149.6 219.8 155.8L163.8 211.8C157.6 218 147.4 218 141.2 211.8C135 205.6 135 195.4 141.2 189.2L169.9 160.5H80.5C71.7 160.5 64.5 153.3 64.5 144.5C64.5 135.7 71.7 128.5 80.5 128.5H169.9L141.2 99.8C135 93.6 135 83.4 141.2 77.2ZM320.5 144.5C320.5 201.8 293.1 252.7 250.7 284.8C262.5 281.2 273.7 275.4 283.7 268.6C305.8 253.1 335.3 253.1 357.4 268.6C375.8 281.3 397 288.9 416.6 288.9C435.6 288.9 457.8 281 475.8 268.6C499.6 251.9 531.6 253.2 553.9 272C556 273.7 558.1 275.3 560.4 276.9L560.1 192.5H576.5C590.4 192.5 602.6 183.6 606.9 170.4C611.2 157.2 606.5 142.8 595.3 134.6L419.3 6.6C408.1 -1.5 392.9 -1.5 381.7 6.6L301.5 64.9C313.6 88.8 320.5 115.8 320.5 144.5ZM339 310.4C327.9 302.5 313.1 302.5 302 310.4C279.5 325.9 252 336.5 224.5 336.5C197.6 336.5 169.2 325.7 147.1 310.4C135.2 301.9 119 302.6 107.9 312.1C93.5 324 75.4 333.1 57.3 337.3C40.1 341.3 29.4 358.5 33.4 375.7C37.4 392.9 54.6 403.6 71.8 399.6C96.3 393.9 116.7 383.1 130 374.6C159 390.2 191.5 400.5 224.5 400.5C256.4 400.5 285.1 390.6 304.9 381.6C310.7 378.9 316 376.3 320.5 373.9C325 376.3 330.2 379 336.1 381.6C355.9 390.6 384.7 400.5 416.5 400.5C449.5 400.5 482 390.2 511 374.7C524.4 383.1 544.7 394 569.2 399.7C586.4 403.7 603.6 393 607.6 375.8C611.6 358.6 600.9 341.4 583.7 337.4C565.6 333.2 547.5 324.1 533.1 312.2C522 302.7 505.8 302.1 493.9 310.5C471.9 325.7 443.4 336.5 416.5 336.5C389 336.5 361.5 325.9 339 310.4ZM339 422.4C327.9 414.5 313.1 414.5 302 422.4C279.5 437.9 252 448.5 224.5 448.5C197.6 448.5 169.2 437.7 147.1 422.4C135.2 413.9 119 414.6 107.9 424.1C93.5 436 75.4 445.1 57.3 449.3C40.1 453.3 29.4 470.5 33.4 487.7C37.4 504.9 54.6 515.6 71.8 511.6C96.3 505.9 116.7 495.1 130 486.6C159 502.2 191.5 512.5 224.5 512.5C256.4 512.5 285.1 502.6 304.9 493.6C310.7 490.9 316 488.3 320.5 485.9C325 488.3 330.2 491 336.1 493.6C355.9 502.6 384.7 512.5 416.5 512.5C449.5 512.5 482 502.2 511 486.7C524.4 495.1 544.7 506 569.2 511.7C586.4 515.7 603.6 505 607.6 487.8C611.6 470.6 600.9 453.4 583.7 449.4C565.6 445.2 547.5 436.1 533.1 424.2C522 414.8 505.8 414.1 493.9 422.5C471.9 437.7 443.4 448.5 416.5 448.5C389 448.5 361.5 437.9 339 422.4Z" fill="#47535F"/>
</g>
<defs>
<clipPath id="clip0_104_1714">
<rect width="640" height="512" fill="white" transform="translate(0.5 0.5)"/>
</clipPath>
</defs>
</svg>
