<svg width="577" height="513" viewBox="0 0 577 513" fill="none" xmlns="http://www.w3.org/2000/svg">
<g clip-path="url(#clip0_104_1712)">
<path d="M307.3 6.60002C296.1 -1.49998 280.9 -1.49998 269.7 6.60002L93.7 134.6C82.5 142.8 77.8 157.2 82.1 170.4C86.4 183.6 98.6 192.5 112.5 192.5H128.5V265.5C130.2 266.5 131.8 267.5 133.4 268.6C151.4 281 173.5 288.9 192.6 288.9C213.7 288.9 234.6 280.4 251.8 268.6C273.9 253.1 303.4 253.1 325.5 268.6C343.9 281.3 365.1 288.9 384.7 288.9C403.7 288.9 425.9 281 443.9 268.6C445.4 267.6 446.9 266.6 448.4 265.7L448.1 192.5H464.5C478.4 192.5 490.6 183.6 494.9 170.4C499.2 157.2 494.5 142.8 483.3 134.6L307.3 6.60002ZM270 310.4C247.5 325.9 220 336.5 192.5 336.5C165.6 336.5 137.2 325.7 115.1 310.4C103.2 301.9 87 302.6 75.9 312.1C61.5 324 43.4 333.1 25.3 337.3C8.10002 341.3 -2.59998 358.5 1.40002 375.7C5.40002 392.9 22.6 403.6 39.8 399.6C64.3 393.9 84.7 383.1 98 374.6C127 390.2 159.5 400.5 192.5 400.5C224.4 400.5 253.1 390.6 272.9 381.6C278.7 378.9 284 376.3 288.5 373.9C293 376.3 298.2 379 304.1 381.6C323.9 390.6 352.6 400.5 384.5 400.5C417.5 400.5 450 390.2 479 374.7C492.4 383.1 512.7 394 537.2 399.7C554.4 403.7 571.6 393 575.6 375.8C579.6 358.6 568.9 341.4 551.7 337.4C533.6 333.2 515.5 324.1 501.1 312.2C490 302.7 473.8 302.1 461.9 310.5C439.9 325.7 411.4 336.5 384.5 336.5C357 336.5 329.5 325.9 307 310.4C295.9 302.5 281.1 302.5 270 310.4ZM384.5 448.5C357 448.5 329.5 437.9 307 422.4C295.9 414.5 281.1 414.5 270 422.4C247.5 437.9 220 448.5 192.5 448.5C165.6 448.5 137.2 437.7 115.1 422.4C103.2 413.9 87 414.6 75.9 424.1C61.5 436 43.4 445.1 25.3 449.3C8.10002 453.3 -2.59998 470.5 1.40002 487.7C5.40002 504.9 22.6 515.6 39.8 511.6C64.3 505.9 84.7 495.1 98 486.6C127 502.2 159.5 512.5 192.5 512.5C224.4 512.5 253.1 502.6 272.9 493.6C278.7 490.9 284 488.3 288.5 485.9C293 488.3 298.2 491 304.1 493.6C323.9 502.6 352.6 512.5 384.5 512.5C417.5 512.5 450 502.2 479 486.7C492.4 495.1 512.7 506 537.2 511.7C554.4 515.7 571.6 505 575.6 487.8C579.6 470.6 568.9 453.4 551.7 449.4C533.6 445.2 515.5 436.1 501.1 424.2C490 414.8 473.8 414.1 461.9 422.5C439.9 437.7 411.4 448.5 384.5 448.5Z" fill="#47535F"/>
</g>
<defs>
<clipPath id="clip0_104_1712">
<rect width="576" height="512" fill="white" transform="translate(0.5 0.5)"/>
</clipPath>
</defs>
</svg>
