<svg width="577" height="513" viewBox="0 0 577 513" fill="none" xmlns="http://www.w3.org/2000/svg">
<g clip-path="url(#clip0_104_1698)">
<path d="M576.3 256C576.3 274 561.3 288.1 544.3 288.1H512.3L513 448.3C513.2 483.8 484.5 512.6 449 512.6H128.6C93.3 512.6 64.6 483.9 64.6 448.6V288.1H32.5C14.5 288.1 0.5 274.1 0.5 256C0.5 247 3.5 239 10.5 232L266.9 8.5C273.9 1.5 281.9 0.5 288.9 0.5C295.9 0.5 303.9 2.5 309.9 7.5L416.5 101.2V64.5C416.5 46.8 430.8 32.5 448.5 32.5H480.5C498.2 32.5 512.5 46.8 512.5 64.5V185.5L565.3 231.9C573.3 238.9 577.3 246.9 576.3 255.9V256ZM248.5 192.5C235.2 192.5 224.5 203.2 224.5 216.5V296.5C224.5 309.8 235.2 320.5 248.5 320.5H328.5C341.8 320.5 352.5 309.8 352.5 296.5V216.5C352.5 203.2 341.8 192.5 328.5 192.5H248.5Z" fill="#47535F"/>
</g>
<defs>
<clipPath id="clip0_104_1698">
<rect width="576" height="512" fill="white" transform="translate(0.5 0.5)"/>
</clipPath>
</defs>
</svg>
