<svg width="577" height="513" viewBox="0 0 577 513" fill="none" xmlns="http://www.w3.org/2000/svg">
<g clip-path="url(#clip0_104_1692)">
<path d="M576.3 256C576.3 274 561.3 288.1 544.3 288.1H512.3L513 448.3C513.2 483.8 484.5 512.6 449 512.6H326.9L288.5 448.5L369.3 381.2C377.1 374.7 376.9 362.6 368.9 356.3L251.1 263.7C236.5 252.2 217.3 270.7 228.3 285.7L288.5 368.5L203 439.7C196.9 444.7 195.5 453.5 199.5 460.2L230.9 512.5H128.6C93.3 512.5 64.6 483.8 64.6 448.5V288.1H32.5C14.5 288.1 0.5 274.1 0.5 256C0.5 247 3.5 239 10.5 232L266.9 8.5C273.9 1.5 281.9 0.5 288.9 0.5C295.9 0.5 303.9 2.5 309.9 7.5L416.5 101.2V64.5C416.5 46.8 430.8 32.5 448.5 32.5H480.5C498.2 32.5 512.5 46.8 512.5 64.5V185.5L565.3 231.9C573.3 238.9 577.3 246.9 576.3 255.9V256Z" fill="#47535F"/>
</g>
<defs>
<clipPath id="clip0_104_1692">
<rect width="576" height="512" fill="white" transform="translate(0.5 0.5)"/>
</clipPath>
</defs>
</svg>
