<svg width="577" height="513" viewBox="0 0 577 513" fill="none" xmlns="http://www.w3.org/2000/svg">
<g clip-path="url(#clip0_104_1706)">
<path d="M544.3 288.1C561.3 288.1 576.3 274.1 576.3 256C577.3 247 573.3 239 565.3 232L310 7.5C304 2.5 296 0.5 289 0.5C282 0.5 274 1.5 267 8.5L10.5 232C3.5 239 0.5 247 0.5 256C0.5 274 14.5 288.1 32.5 288.1H64.5V448.5C64.5 483.8 93.2 512.5 128.5 512.5H230.9L199.6 460.3C195.5 453.5 197 444.8 203.1 439.8L288.5 368.5L228.3 285.7C217.4 270.7 236.5 252.2 251.1 263.7L369 356.3C377 362.6 377.2 374.7 369.4 381.2L288.5 448.5L326.9 512.5H449C484.5 512.5 513.2 483.7 513 448.2L512.3 288H544.3V288.1Z" fill="#47535F"/>
</g>
<defs>
<clipPath id="clip0_104_1706">
<rect width="576" height="512" fill="white" transform="translate(0.5 0.5)"/>
</clipPath>
</defs>
</svg>
