<svg width="641" height="513" viewBox="0 0 641 513" fill="none" xmlns="http://www.w3.org/2000/svg">
<g clip-path="url(#clip0_104_1722)">
<path d="M320.5 368.5C320.5 428 350 480.6 395.3 512.5H128.6C93.3 512.5 64.6 483.8 64.6 448.5V288.1H32.5C14.5 288.1 0.5 274.1 0.5 256C0.5 247 3.5 239 10.5 232L266.9 8.5C273.9 1.5 281.9 0.5 288.9 0.5C295.9 0.5 303.9 2.5 309.9 7.5L522.6 194.4C514.1 193.1 505.3 192.5 496.5 192.5C441.8 192.5 393 217.4 360.7 256.5H320.5V208.5C320.5 199.7 313.3 192.5 304.5 192.5H272.5C263.7 192.5 256.5 199.7 256.5 208.5V256.5H208.5C199.7 256.5 192.5 263.7 192.5 272.5V304.5C192.5 313.3 199.7 320.5 208.5 320.5H256.5V368.5C256.5 377.3 263.7 384.5 272.5 384.5H304.5C313.3 384.5 320.5 377.3 320.5 368.5ZM352.5 368.5C352.5 330.309 367.671 293.682 394.677 266.677C421.682 239.671 458.309 224.5 496.5 224.5C534.691 224.5 571.318 239.671 598.323 266.677C625.329 293.682 640.5 330.309 640.5 368.5C640.5 406.691 625.329 443.318 598.323 470.323C571.318 497.329 534.691 512.5 496.5 512.5C458.309 512.5 421.682 497.329 394.677 470.323C367.671 443.318 352.5 406.691 352.5 368.5ZM563.8 325.2C557.6 319 547.4 319 541.2 325.2L480.5 385.9L451.8 357.2C445.6 351 435.4 351 429.2 357.2C423 363.4 423 373.6 429.2 379.8L469.2 419.8C475.4 426 485.6 426 491.8 419.8L563.8 347.8C570 341.6 570 331.4 563.8 325.2Z" fill="#47535F"/>
</g>
<defs>
<clipPath id="clip0_104_1722">
<rect width="640" height="512" fill="white" transform="translate(0.5 0.5)"/>
</clipPath>
</defs>
</svg>
