<svg width="577" height="513" viewBox="0 0 577 513" fill="none" xmlns="http://www.w3.org/2000/svg">
<g clip-path="url(#clip0_104_1734)">
<path d="M576.3 256C576.3 274 561.3 288.1 544.3 288.1H512.3L513 448.3C513.2 483.8 484.5 512.6 449 512.6H128.6C93.3 512.6 64.6 483.9 64.6 448.6V288.1H32.5C14.5 288.1 0.5 274.1 0.5 256C0.5 247 3.5 239 10.5 232L266.9 8.5C273.9 1.5 281.9 0.5 288.9 0.5C295.9 0.5 303.9 2.5 309.9 7.5L565.3 232C573.3 239 577.3 247 576.3 256ZM352.5 224.5C352.5 207.526 345.757 191.247 333.755 179.245C321.752 167.243 305.474 160.5 288.5 160.5C271.526 160.5 255.247 167.243 243.245 179.245C231.243 191.247 224.5 207.526 224.5 224.5C224.5 241.474 231.243 257.752 243.245 269.755C255.247 281.757 271.526 288.5 288.5 288.5C305.474 288.5 321.752 281.757 333.755 269.755C345.757 257.752 352.5 241.474 352.5 224.5ZM256.5 320.5C212.3 320.5 176.5 356.3 176.5 400.5C176.5 409.3 183.7 416.5 192.5 416.5H384.5C393.3 416.5 400.5 409.3 400.5 400.5C400.5 356.3 364.7 320.5 320.5 320.5H256.5Z" fill="#47535F"/>
</g>
<defs>
<clipPath id="clip0_104_1734">
<rect width="576" height="512" fill="white" transform="translate(0.5 0.5)"/>
</clipPath>
</defs>
</svg>
