<svg width="641" height="513" viewBox="0 0 641 513" fill="none" xmlns="http://www.w3.org/2000/svg">
<g clip-path="url(#clip0_104_1716)">
<path d="M218.8 9.00002C231.1 -2.29998 250 -2.29998 262.2 9.00002L470.2 201C476.9 207.2 480.5 215.8 480.5 224.5H336.5C317.4 224.5 300.2 232.9 288.5 246.2V208.5C288.5 199.7 281.3 192.5 272.5 192.5H208.5C199.7 192.5 192.5 199.7 192.5 208.5V272.5C192.5 281.3 199.7 288.5 208.5 288.5H272.5V416.5H112.5C86 416.5 64.5 395 64.5 368.5V256.5H32.5C19.3 256.5 7.49999 248.4 2.69999 236.2C-2.10001 224 1.09999 210 10.8 201L218.8 9.00002ZM352.5 304.5V448.5H544.5V304.5H352.5ZM304.5 288.5C304.5 270.8 318.8 256.5 336.5 256.5H560.5C578.2 256.5 592.5 270.8 592.5 288.5V448.5H624.5C633.3 448.5 640.5 455.7 640.5 464.5C640.5 491 619 512.5 592.5 512.5H544.5H352.5H304.5C278 512.5 256.5 491 256.5 464.5C256.5 455.7 263.7 448.5 272.5 448.5H304.5V288.5Z" fill="#47535F"/>
</g>
<defs>
<clipPath id="clip0_104_1716">
<rect width="640" height="512" fill="white" transform="translate(0.5 0.5)"/>
</clipPath>
</defs>
</svg>
