<svg width="641" height="513" viewBox="0 0 641 513" fill="none" xmlns="http://www.w3.org/2000/svg">
<g clip-path="url(#clip0_104_1708)">
<path d="M288.5 350.6V352.5H256.5C238.8 352.5 224.5 366.8 224.5 384.5V448.5V472.5C224.5 494.6 206.6 512.5 184.5 512.5H160.5H128.6C127.1 512.5 125.6 512.4 124.1 512.3C122.9 512.4 121.7 512.5 120.5 512.5H104.5C82.4 512.5 64.5 494.6 64.5 472.5V360.5C64.5 359.6 64.5 358.6 64.6 357.7V288.1H32.5C14.5 288.1 0.5 274.1 0.5 256C0.5 247 3.5 239 10.5 232L266.9 8.5C273.9 1.5 281.9 0.5 288.9 0.5C295.9 0.5 303.9 2.5 309.9 7.5L447.8 128.6C435.5 127.6 422.8 131.6 413 140.3C377.6 171.9 347.4 208 325.7 243.1C304.8 277 288.5 315.4 288.5 350.6ZM454 164.3C473.7 182.1 492.2 201.3 509.5 222C517.4 212.1 526.3 201.3 536 192.5C541.6 187.4 550.4 187.4 556 192.5C580.7 215.2 601.6 245.2 616.4 273.6C630.9 301.6 640.6 332.4 640.6 352.6C640.5 440.5 569.2 512.5 480.5 512.5C390.8 512.5 320.5 440.4 320.5 352.7C320.5 326.3 333.2 292 352.9 260.1C372.9 227.7 401 194 434.3 164.3C437.1 161.8 440.7 160.5 444.3 160.6C447.8 160.6 451.3 161.9 454.1 164.4L454 164.3ZM530.5 433.5C560.5 412.5 568.5 370.5 550.5 337.5C548.5 333.5 546.5 329.5 543.5 325.5L507.5 367.5C507.5 367.5 449.5 293.5 445.5 288.5C415.5 325.5 400.5 346.5 400.5 370.5C400.5 419.5 436.5 448.5 481.5 448.5C499.5 448.5 515.5 443.5 530.5 433.5Z" fill="#47535F"/>
</g>
<defs>
<clipPath id="clip0_104_1708">
<rect width="640" height="512" fill="white" transform="translate(0.5 0.5)"/>
</clipPath>
</defs>
</svg>
