<svg width="641" height="513" viewBox="0 0 641 513" fill="none" xmlns="http://www.w3.org/2000/svg">
<g clip-path="url(#clip0_104_1728)">
<path d="M480.5 0.5C498.2 0.5 512.5 14.8 512.5 32.5H624.5C633.3 32.5 640.5 39.7 640.5 48.5V176.5C640.5 185.3 633.3 192.5 624.5 192.5H512.5V512.5H448.5V192.5V32.5C448.5 14.8 462.8 0.5 480.5 0.5ZM277.3 40.2L416.5 159.5V512.5H417.5H417.3H96.5C78.8 512.5 64.5 498.2 64.5 480.5V288.5H32.5C19.1 288.5 7.10004 280.2 2.50004 267.6C-2.09996 255 1.50004 240.9 11.7 232.2L235.7 40.2C247.7 29.9 265.4 29.9 277.4 40.2H277.3ZM224.5 208.5V256.5H176.5C167.7 256.5 160.5 263.7 160.5 272.5V304.5C160.5 313.3 167.7 320.5 176.5 320.5H224.5V368.5C224.5 377.3 231.7 384.5 240.5 384.5H272.5C281.3 384.5 288.5 377.3 288.5 368.5V320.5H336.5C345.3 320.5 352.5 313.3 352.5 304.5V272.5C352.5 263.7 345.3 256.5 336.5 256.5H288.5V208.5C288.5 199.7 281.3 192.5 272.5 192.5H240.5C231.7 192.5 224.5 199.7 224.5 208.5Z" fill="#47535F"/>
</g>
<defs>
<clipPath id="clip0_104_1728">
<rect width="640" height="512" fill="white" transform="translate(0.5 0.5)"/>
</clipPath>
</defs>
</svg>
