<svg width="577" height="513" viewBox="0 0 577 513" fill="none" xmlns="http://www.w3.org/2000/svg">
<g clip-path="url(#clip0_104_1730)">
<path d="M358.2 9.00002C345.9 -2.29998 327 -2.29998 314.8 9.00002L106.8 201C97.4 209.6 94.1 223 98.3 235C185.4 260.3 253.9 329.2 278.6 416.6H464.5C491 416.6 512.5 395.1 512.5 368.6V256.5H544.5C557.7 256.5 569.5 248.4 574.3 236.2C579.1 224 575.9 210 566.2 201L358.2 9.00002ZM288.5 208.5C288.5 199.7 295.7 192.5 304.5 192.5H368.5C377.3 192.5 384.5 199.7 384.5 208.5V272.5C384.5 281.3 377.3 288.5 368.5 288.5H304.5C295.7 288.5 288.5 281.3 288.5 272.5V208.5ZM24.5 256.5C11.2 256.5 0.5 267.2 0.5 280.5C0.5 293.8 11.2 304.5 24.5 304.5C126.1 304.5 208.5 386.9 208.5 488.5C208.5 501.8 219.2 512.5 232.5 512.5C245.8 512.5 256.5 501.8 256.5 488.5C256.5 360.4 152.6 256.5 24.5 256.5ZM32.5 512.5C40.9869 512.5 49.1263 509.129 55.1274 503.127C61.1286 497.126 64.5 488.987 64.5 480.5C64.5 472.013 61.1286 463.874 55.1274 457.873C49.1263 451.871 40.9869 448.5 32.5 448.5C24.0131 448.5 15.8737 451.871 9.87258 457.873C3.87142 463.874 0.5 472.013 0.5 480.5C0.5 488.987 3.87142 497.126 9.87258 503.127C15.8737 509.129 24.0131 512.5 32.5 512.5ZM0.5 376.5C0.5 389.8 11.2 400.5 24.5 400.5C73.1 400.5 112.5 439.9 112.5 488.5C112.5 501.8 123.2 512.5 136.5 512.5C149.8 512.5 160.5 501.8 160.5 488.5C160.5 413.4 99.6 352.5 24.5 352.5C11.2 352.5 0.5 363.2 0.5 376.5Z" fill="#47535F"/>
</g>
<defs>
<clipPath id="clip0_104_1730">
<rect width="576" height="512" fill="white" transform="translate(0.5 0.5)"/>
</clipPath>
</defs>
</svg>
