<svg width="577" height="513" viewBox="0 0 577 513" fill="none" xmlns="http://www.w3.org/2000/svg">
<g clip-path="url(#clip0_104_1720)">
<path d="M544.3 288.1C561.3 288.1 576.3 274.1 576.3 256C577.3 247 573.3 239 565.3 232L310 7.5C304 2.5 296 0.5 289 0.5C282 0.5 274 1.5 267 8.5L10.5 232C3.5 239 0.5 247 0.5 256C0.5 274 14.5 288.1 32.5 288.1H64.5V448.5C64.5 483.8 93.2 512.5 128.5 512.5H449C484.5 512.5 513.2 483.7 513 448.2L512.3 288H544.3V288.1ZM256.5 208.5C256.5 199.7 263.7 192.5 272.5 192.5H304.5C313.3 192.5 320.5 199.7 320.5 208.5V256.5H368.5C377.3 256.5 384.5 263.7 384.5 272.5V304.5C384.5 313.3 377.3 320.5 368.5 320.5H320.5V368.5C320.5 377.3 313.3 384.5 304.5 384.5H272.5C263.7 384.5 256.5 377.3 256.5 368.5V320.5H208.5C199.7 320.5 192.5 313.3 192.5 304.5V272.5C192.5 263.7 199.7 256.5 208.5 256.5H256.5V208.5Z" fill="#47535F"/>
</g>
<defs>
<clipPath id="clip0_104_1720">
<rect width="576" height="512" fill="white" transform="translate(0.5 0.5)"/>
</clipPath>
</defs>
</svg>
