<svg width="641" height="513" viewBox="0 0 641 513" fill="none" xmlns="http://www.w3.org/2000/svg">
<g clip-path="url(#clip0_104_1724)">
<path d="M320.5 368.5C320.5 428 350 480.6 395.3 512.5H128.6C93.3 512.5 64.6 483.8 64.6 448.5V288.1H32.5C14.5 288.1 0.5 274.1 0.5 256C0.5 247 3.5 239 10.5 232L266.9 8.5C273.9 1.5 281.9 0.5 288.9 0.5C295.9 0.5 303.9 2.5 309.9 7.5L522.6 194.4C514.1 193.1 505.3 192.5 496.5 192.5C441.8 192.5 393 217.4 360.7 256.5H320.5V208.5C320.5 199.7 313.3 192.5 304.5 192.5H272.5C263.7 192.5 256.5 199.7 256.5 208.5V256.5H208.5C199.7 256.5 192.5 263.7 192.5 272.5V304.5C192.5 313.3 199.7 320.5 208.5 320.5H256.5V368.5C256.5 377.3 263.7 384.5 272.5 384.5H304.5C313.3 384.5 320.5 377.3 320.5 368.5ZM496.5 224.5C534.691 224.5 571.318 239.671 598.323 266.677C625.329 293.682 640.5 330.309 640.5 368.5C640.5 406.691 625.329 443.318 598.323 470.323C571.318 497.329 534.691 512.5 496.5 512.5C458.309 512.5 421.682 497.329 394.677 470.323C367.671 443.318 352.5 406.691 352.5 368.5C352.5 330.309 367.671 293.682 394.677 266.677C421.682 239.671 458.309 224.5 496.5 224.5ZM496.5 464.5C502.865 464.5 508.97 461.971 513.471 457.471C517.971 452.97 520.5 446.865 520.5 440.5C520.5 434.135 517.971 428.03 513.471 423.529C508.97 419.029 502.865 416.5 496.5 416.5C490.135 416.5 484.03 419.029 479.529 423.529C475.029 428.03 472.5 434.135 472.5 440.5C472.5 446.865 475.029 452.97 479.529 457.471C484.03 461.971 490.135 464.5 496.5 464.5ZM496.5 272.5C487.7 272.5 480.5 279.7 480.5 288.5V368.5C480.5 377.3 487.7 384.5 496.5 384.5C505.3 384.5 512.5 377.3 512.5 368.5V288.5C512.5 279.7 505.3 272.5 496.5 272.5Z" fill="#47535F"/>
</g>
<defs>
<clipPath id="clip0_104_1724">
<rect width="640" height="512" fill="white" transform="translate(0.5 0.5)"/>
</clipPath>
</defs>
</svg>
