<svg width="577" height="513" viewBox="0 0 577 513" fill="none" xmlns="http://www.w3.org/2000/svg">
<g clip-path="url(#clip0_104_1696)">
<path d="M544.3 288.1C561.3 288.1 576.3 274.1 576.3 256C577.3 247 573.3 239 565.3 232L512.5 185.5V64.5C512.5 46.8 498.2 32.5 480.5 32.5H448.5C430.8 32.5 416.5 46.8 416.5 64.5V101.2L310 7.5C304 2.5 296 0.5 289 0.5C282 0.5 274 1.5 267 8.5L10.5 232C3.5 239 0.5 247 0.5 256C0.5 274 14.5 288.1 32.5 288.1H64.5V448.5C64.5 483.8 93.2 512.5 128.5 512.5H449C484.5 512.5 513.2 483.7 513 448.2L512.3 288H544.3V288.1ZM288.5 160.5C305.474 160.5 321.752 167.243 333.755 179.245C345.757 191.247 352.5 207.526 352.5 224.5C352.5 241.474 345.757 257.752 333.755 269.755C321.752 281.757 305.474 288.5 288.5 288.5C271.526 288.5 255.247 281.757 243.245 269.755C231.243 257.752 224.5 241.474 224.5 224.5C224.5 207.526 231.243 191.247 243.245 179.245C255.247 167.243 271.526 160.5 288.5 160.5ZM176.5 400.5C176.5 356.3 212.3 320.5 256.5 320.5H320.5C364.7 320.5 400.5 356.3 400.5 400.5C400.5 409.3 393.3 416.5 384.5 416.5H192.5C183.7 416.5 176.5 409.3 176.5 400.5Z" fill="#47535F"/>
</g>
<defs>
<clipPath id="clip0_104_1696">
<rect width="576" height="512" fill="white" transform="translate(0.5 0.5)"/>
</clipPath>
</defs>
</svg>
