<svg width="385" height="513" viewBox="0 0 385 513" fill="none" xmlns="http://www.w3.org/2000/svg">
<g clip-path="url(#clip0_104_1736)">
<path d="M122.4 116.7C138.8 103.6 159.2 96.5 180.1 96.5H223.5C250.6 96.5 272.5 118.4 272.5 145.5C272.5 157 268.5 167.9 261.4 176.5H32.5C14.8 176.5 0.5 190.8 0.5 208.5C0.5 226.2 14.8 240.5 32.5 240.5H156L105.4 269.4C103.7 270.4 102 271.4 100.3 272.5H32.5C14.8 272.5 0.5 286.8 0.5 304.5C0.5 322.2 14.8 336.5 32.5 336.5H52.8C50 346.4 48.5 356.9 48.5 367.5C48.5 429.9 99.1 480.5 161.5 480.5H204.9C240.4 480.5 274.9 468.4 302.6 446.2L308.5 441.5C322.3 430.5 324.5 410.3 313.5 396.5C302.5 382.7 282.3 380.5 268.5 391.5L262.6 396.2C246.2 409.3 225.9 416.4 204.9 416.4H161.5C134.4 416.4 112.5 394.5 112.5 367.4C112.5 355.9 116.5 345 123.6 336.4H352.5C370.2 336.4 384.5 322.1 384.5 304.4C384.5 286.7 370.2 272.4 352.5 272.4H229L279.6 243.5C281.3 242.5 283 241.5 284.7 240.4H352.5C370.2 240.4 384.5 226.1 384.5 208.4C384.5 190.7 370.2 176.4 352.5 176.4H332.2C335 166.4 336.5 156 336.5 145.4C336.5 83 285.9 32.4 223.5 32.4H180.1C144.6 32.4 110.1 44.5 82.4 66.7L76.5 71.5C62.7 82.5 60.5 102.7 71.5 116.5C82.5 130.3 102.7 132.5 116.5 121.5L122.4 116.8V116.7Z" fill="#47535F"/>
</g>
<defs>
<clipPath id="clip0_104_1736">
<rect width="384" height="512" fill="white" transform="translate(0.5 0.5)"/>
</clipPath>
</defs>
</svg>
