<svg width="385" height="513" viewBox="0 0 385 513" fill="none" xmlns="http://www.w3.org/2000/svg">
<g clip-path="url(#clip0_104_1738)">
<path d="M0.5 208.5C0.5 104.9 76.2 19 175.4 3.10001C184.5 1.70001 192.5 9.10001 192.5 18.4V81.7C192.5 90.1 199 97 207.2 98.2C307.5 113 384.5 199.5 384.5 303.9C384.5 407.5 308.8 493.4 209.6 509.3C200.4 510.8 192.5 503.4 192.5 494.1V430.7C192.5 422.3 186 415.4 177.8 414.2C77.5 399.4 0.5 312.9 0.5 208.5ZM288.5 256.5C288.5 231.039 278.386 206.621 260.382 188.618C242.379 170.614 217.961 160.5 192.5 160.5C167.039 160.5 142.621 170.614 124.618 188.618C106.614 206.621 96.5 231.039 96.5 256.5C96.5 281.961 106.614 306.379 124.618 324.382C142.621 342.386 167.039 352.5 192.5 352.5C217.961 352.5 242.379 342.386 260.382 324.382C278.386 306.379 288.5 281.961 288.5 256.5ZM192.5 224.5C200.987 224.5 209.126 227.871 215.127 233.873C221.129 239.874 224.5 248.013 224.5 256.5C224.5 264.987 221.129 273.126 215.127 279.127C209.126 285.129 200.987 288.5 192.5 288.5C184.013 288.5 175.874 285.129 169.873 279.127C163.871 273.126 160.5 264.987 160.5 256.5C160.5 248.013 163.871 239.874 169.873 233.873C175.874 227.871 184.013 224.5 192.5 224.5Z" fill="#47535F"/>
</g>
<defs>
<clipPath id="clip0_104_1738">
<rect width="384" height="512" fill="white" transform="translate(0.5 0.5)"/>
</clipPath>
</defs>
</svg>
