<svg width="321" height="513" viewBox="0 0 321 513" fill="none" xmlns="http://www.w3.org/2000/svg">
<g clip-path="url(#clip0_104_1740)">
<path d="M32.5 32.5C14.8 32.5 0.5 46.8 0.5 64.5C0.5 82.2 14.8 96.5 32.5 96.5H128.5V416.5H32.5C14.8 416.5 0.5 430.8 0.5 448.5C0.5 466.2 14.8 480.5 32.5 480.5H288.5C306.2 480.5 320.5 466.2 320.5 448.5C320.5 430.8 306.2 416.5 288.5 416.5H192.5V96.5H288.5C306.2 96.5 320.5 82.2 320.5 64.5C320.5 46.8 306.2 32.5 288.5 32.5H160.5H32.5Z" fill="#47535F"/>
</g>
<defs>
<clipPath id="clip0_104_1740">
<rect width="320" height="512" fill="white" transform="translate(0.5 0.5)"/>
</clipPath>
</defs>
</svg>
