<svg width="449" height="513" viewBox="0 0 449 513" fill="none" xmlns="http://www.w3.org/2000/svg">
<g clip-path="url(#clip0_104_1742)">
<path d="M367.6 160.5C368.2 155.2 368.5 149.9 368.5 144.5C368.5 65 304 0.5 224.5 0.5C145 0.5 80.5 65 80.5 144.5C80.5 149.9 80.8 155.2 81.4 160.5H80.5C54 160.5 32.5 182 32.5 208.5C32.5 235 54 256.5 80.5 256.5H134H315H368.5C395 256.5 416.5 235 416.5 208.5C416.5 182 395 160.5 368.5 160.5H367.6ZM96.5 288.5L201.3 498.2C205.7 507 214.6 512.5 224.5 512.5C234.4 512.5 243.3 507 247.7 498.2L352.5 288.5H96.5Z" fill="#47535F"/>
</g>
<defs>
<clipPath id="clip0_104_1742">
<rect width="448" height="512" fill="white" transform="translate(0.5 0.5)"/>
</clipPath>
</defs>
</svg>
