<svg width="513" height="513" viewBox="0 0 513 513" fill="none" xmlns="http://www.w3.org/2000/svg">
<g clip-path="url(#clip0_104_1744)">
<path d="M76.3 305.3L1.5 36.2C0.8 33.7 0.5 31.2 0.5 28.7C0.5 13.1 13.1 0.5 28.7 0.5H482.9C499.3 0.5 512.5 13.7 512.5 30.1C512.5 31.7 512.4 33.4 512.1 35L435.1 496.6C433.6 505.8 425.6 512.5 416.3 512.5C407.1 512.5 399.2 505.9 397.6 496.9L336.5 160.5L307.7 304.4C305.8 313.7 297.6 320.5 288.1 320.5C278.9 320.5 270.9 314.3 268.7 305.4L240.5 192.5L211.1 368.7C209.6 377.8 201.7 384.5 192.5 384.5C183.3 384.5 175.4 377.8 173.9 368.7L144.5 192.5L116.4 304.8C114.1 314 105.8 320.5 96.3 320.5C87 320.5 78.8 314.3 76.3 305.3Z" fill="#47535F"/>
</g>
<defs>
<clipPath id="clip0_104_1744">
<rect width="512" height="512" fill="white" transform="translate(0.5 0.5)"/>
</clipPath>
</defs>
</svg>
