<svg width="513" height="513" viewBox="0 0 513 513" fill="none" xmlns="http://www.w3.org/2000/svg">
<g clip-path="url(#clip0_104_1746)">
<path d="M500.8 7.79998C508.2 13.8 512.5 22.9 512.5 32.5V176.5C512.5 203 483.8 224.5 448.5 224.5C413.2 224.5 384.5 203 384.5 176.5C384.5 150 413.2 128.5 448.5 128.5V71.5L352.5 90.7V208.5C352.5 235 323.8 256.5 288.5 256.5C253.2 256.5 224.5 235 224.5 208.5C224.5 182 253.2 160.5 288.5 160.5V64.5C288.5 49.2 299.3 36.1 314.2 33.1L474.2 1.09998C483.6 -0.800015 493.3 1.69998 500.8 7.69998V7.79998ZM75.2 304.5L87 286.7C92.9 277.8 102.9 272.5 113.6 272.5H175.3C186 272.5 196 277.8 201.9 286.7L213.8 304.5H240.5C267 304.5 288.5 326 288.5 352.5V464.5C288.5 491 267 512.5 240.5 512.5H48.5C22 512.5 0.5 491 0.5 464.5V352.5C0.5 326 22 304.5 48.5 304.5H75.2ZM192.5 408.5C192.5 395.77 187.443 383.561 178.441 374.559C169.439 365.557 157.23 360.5 144.5 360.5C131.77 360.5 119.561 365.557 110.559 374.559C101.557 383.561 96.5 395.77 96.5 408.5C96.5 421.23 101.557 433.439 110.559 442.441C119.561 451.443 131.77 456.5 144.5 456.5C157.23 456.5 169.439 451.443 178.441 442.441C187.443 433.439 192.5 421.23 192.5 408.5ZM479.2 278.8L440.8 368.5H496.5C503.2 368.5 509.1 372.6 511.5 378.9C513.9 385.2 512.1 392.2 507.1 396.6L379.1 508.6C373.5 513.5 365.2 513.9 359.2 509.5C353.2 505.1 351 497.1 353.9 490.3L392.2 400.5H336.5C329.8 400.5 323.9 396.4 321.5 390.1C319.1 383.8 320.9 376.8 325.9 372.4L453.9 260.4C459.5 255.5 467.8 255.1 473.8 259.5C479.8 263.9 482 271.9 479.1 278.7L479.2 278.8ZM140.2 219.6C133.7 226.1 123.2 226.1 117.2 219.6L20.4 119.7C-7.6 90.7 -6.1 42.8 25.4 15.8C52.4 -7.70002 93.8 -3.20002 118.8 22.3L128.8 32.8L138.3 22.3C163.3 -3.20002 204.2 -7.70002 232.2 15.8C263.2 42.8 264.7 90.7 236.7 119.7L140.3 219.6H140.2Z" fill="#47535F"/>
</g>
<defs>
<clipPath id="clip0_104_1746">
<rect width="512" height="512" fill="white" transform="translate(0.5 0.5)"/>
</clipPath>
</defs>
</svg>
