<svg width="577" height="513" viewBox="0 0 577 513" fill="none" xmlns="http://www.w3.org/2000/svg">
<g clip-path="url(#clip0_104_1754)">
<path d="M256.5 0.5H320.5C338.2 0.5 352.5 14.8 352.5 32.5V96.5C352.5 114.2 338.2 128.5 320.5 128.5H256.5C238.8 128.5 224.5 114.2 224.5 96.5V32.5C224.5 14.8 238.8 0.5 256.5 0.5ZM64.5 64.5H192.5V112.5C192.5 139 214 160.5 240.5 160.5H336.5C363 160.5 384.5 139 384.5 112.5V64.5H512.5C547.8 64.5 576.5 93.2 576.5 128.5V448.5C576.5 483.8 547.8 512.5 512.5 512.5H64.5C29.2 512.5 0.5 483.8 0.5 448.5V128.5C0.5 93.2 29.2 64.5 64.5 64.5ZM176.5 437.8C176.5 443.7 181.3 448.5 187.2 448.5H389.8C395.7 448.5 400.5 443.7 400.5 437.8C400.5 408.3 376.6 384.5 347.2 384.5H229.8C200.3 384.5 176.5 408.4 176.5 437.8ZM288.5 352.5C305.474 352.5 321.752 345.757 333.755 333.755C345.757 321.752 352.5 305.474 352.5 288.5C352.5 271.526 345.757 255.247 333.755 243.245C321.752 231.243 305.474 224.5 288.5 224.5C271.526 224.5 255.247 231.243 243.245 243.245C231.243 255.247 224.5 271.526 224.5 288.5C224.5 305.474 231.243 321.752 243.245 333.755C255.247 345.757 271.526 352.5 288.5 352.5Z" fill="#47535F"/>
</g>
<defs>
<clipPath id="clip0_104_1754">
<rect width="576" height="512" fill="white" transform="translate(0.5 0.5)"/>
</clipPath>
</defs>
</svg>
