<svg width="577" height="513" viewBox="0 0 577 513" fill="none" xmlns="http://www.w3.org/2000/svg">
<g clip-path="url(#clip0_104_1752)">
<path d="M0.5 96.5H576.5C576.5 61.2 547.8 32.5 512.5 32.5H64.5C29.2 32.5 0.5 61.2 0.5 96.5ZM0.5 128.5V416.5C0.5 451.8 29.2 480.5 64.5 480.5H512.5C547.8 480.5 576.5 451.8 576.5 416.5V128.5H0.5ZM64.5 405.8C64.5 376.3 88.4 352.5 117.8 352.5H235.2C264.7 352.5 288.5 376.4 288.5 405.8C288.5 411.7 283.7 416.5 277.8 416.5H75.2C69.3 416.5 64.5 411.7 64.5 405.8ZM176.5 192.5C193.474 192.5 209.753 199.243 221.755 211.245C233.757 223.247 240.5 239.526 240.5 256.5C240.5 273.474 233.757 289.752 221.755 301.755C209.753 313.757 193.474 320.5 176.5 320.5C159.526 320.5 143.247 313.757 131.245 301.755C119.243 289.752 112.5 273.474 112.5 256.5C112.5 239.526 119.243 223.247 131.245 211.245C143.247 199.243 159.526 192.5 176.5 192.5ZM352.5 208.5C352.5 199.7 359.7 192.5 368.5 192.5H496.5C505.3 192.5 512.5 199.7 512.5 208.5C512.5 217.3 505.3 224.5 496.5 224.5H368.5C359.7 224.5 352.5 217.3 352.5 208.5ZM352.5 272.5C352.5 263.7 359.7 256.5 368.5 256.5H496.5C505.3 256.5 512.5 263.7 512.5 272.5C512.5 281.3 505.3 288.5 496.5 288.5H368.5C359.7 288.5 352.5 281.3 352.5 272.5ZM352.5 336.5C352.5 327.7 359.7 320.5 368.5 320.5H496.5C505.3 320.5 512.5 327.7 512.5 336.5C512.5 345.3 505.3 352.5 496.5 352.5H368.5C359.7 352.5 352.5 345.3 352.5 336.5Z" fill="#47535F"/>
</g>
<defs>
<clipPath id="clip0_104_1752">
<rect width="576" height="512" fill="white" transform="translate(0.5 0.5)"/>
</clipPath>
</defs>
</svg>
