<svg width="577" height="513" viewBox="0 0 577 513" fill="none" xmlns="http://www.w3.org/2000/svg">
<g clip-path="url(#clip0_104_1756)">
<path d="M320.5 34.3V160.5H49C100.7 83.3 188.6 32.5 288.5 32.5C299.3 32.5 310 33.1 320.5 34.3ZM352.5 160.5V39.6C425.4 56.2 487.7 100.3 528 160.5H352.5ZM30.4 192.5H96.5V320.5H0.5C0.5 274.5 11.3 231.1 30.4 192.5ZM192.5 320.5H128.5V192.5H448.5V320.5H384.5V352.5H576.5V432.5C576.5 459 555 480.5 528.5 480.5H352.5V352.5C352.5 317.2 323.8 288.5 288.5 288.5C253.2 288.5 224.5 317.2 224.5 352.5V480.5H48.5C22 480.5 0.5 459 0.5 432.5V352.5H192.5V320.5ZM480.5 320.5V192.5H546.6C565.8 231.1 576.5 274.5 576.5 320.5H480.5Z" fill="#47535F"/>
</g>
<defs>
<clipPath id="clip0_104_1756">
<rect width="576" height="512" fill="white" transform="translate(0.5 0.5)"/>
</clipPath>
</defs>
</svg>
