<svg width="577" height="513" viewBox="0 0 577 513" fill="none" xmlns="http://www.w3.org/2000/svg">
<g clip-path="url(#clip0_104_1762)">
<path d="M160.5 32.5C125.2 32.5 96.5 61.2 96.5 96.5V320.5C96.5 355.8 125.2 384.5 160.5 384.5H512.5C547.8 384.5 576.5 355.8 576.5 320.5V96.5C576.5 61.2 547.8 32.5 512.5 32.5H160.5ZM396.5 139.2L492.5 283.2C497.4 290.6 497.9 300 493.7 307.8C489.5 315.6 481.4 320.5 472.5 320.5H328.5H280.5H200.5C191.3 320.5 182.9 315.2 178.9 306.9C174.9 298.6 176 288.7 181.8 281.5L245.8 201.5C250.4 195.8 257.2 192.5 264.5 192.5C271.8 192.5 278.7 195.8 283.2 201.5L300.5 223.1L356.5 139.1C361 132.5 368.5 128.5 376.5 128.5C384.5 128.5 392 132.5 396.5 139.2ZM192.5 128.5C192.5 120.013 195.871 111.874 201.873 105.873C207.874 99.8714 216.013 96.5 224.5 96.5C232.987 96.5 241.126 99.8714 247.127 105.873C253.129 111.874 256.5 120.013 256.5 128.5C256.5 136.987 253.129 145.126 247.127 151.127C241.126 157.129 232.987 160.5 224.5 160.5C216.013 160.5 207.874 157.129 201.873 151.127C195.871 145.126 192.5 136.987 192.5 128.5ZM48.5 120.5C48.5 107.2 37.8 96.5 24.5 96.5C11.2 96.5 0.5 107.2 0.5 120.5V344.5C0.5 419.6 61.4 480.5 136.5 480.5H456.5C469.8 480.5 480.5 469.8 480.5 456.5C480.5 443.2 469.8 432.5 456.5 432.5H136.5C87.9 432.5 48.5 393.1 48.5 344.5V120.5Z" fill="#47535F"/>
</g>
<defs>
<clipPath id="clip0_104_1762">
<rect width="576" height="512" fill="white" transform="translate(0.5 0.5)"/>
</clipPath>
</defs>
</svg>
