<svg width="513" height="513" viewBox="0 0 513 513" fill="none" xmlns="http://www.w3.org/2000/svg">
<g clip-path="url(#clip0_104_1758)">
<path d="M0.5 96.5C0.5 61.2 29.2 32.5 64.5 32.5H448.5C483.8 32.5 512.5 61.2 512.5 96.5V416.5C512.5 451.8 483.8 480.5 448.5 480.5H64.5C29.2 480.5 0.5 451.8 0.5 416.5V96.5ZM324.3 203C319.8 196.4 312.4 192.5 304.5 192.5C296.6 192.5 289.1 196.4 284.7 203L197.7 330.6L171.2 297.5C166.6 291.8 159.7 288.5 152.5 288.5C145.3 288.5 138.3 291.8 133.8 297.5L69.8 377.5C64 384.7 62.9 394.6 66.9 402.9C70.9 411.2 79.3 416.5 88.5 416.5H184.5H216.5H424.5C433.4 416.5 441.6 411.6 445.7 403.7C449.8 395.8 449.3 386.3 444.3 379L324.3 203ZM112.5 192.5C125.23 192.5 137.439 187.443 146.441 178.441C155.443 169.439 160.5 157.23 160.5 144.5C160.5 131.77 155.443 119.561 146.441 110.559C137.439 101.557 125.23 96.5 112.5 96.5C99.7696 96.5 87.5606 101.557 78.5589 110.559C69.5571 119.561 64.5 131.77 64.5 144.5C64.5 157.23 69.5571 169.439 78.5589 178.441C87.5606 187.443 99.7696 192.5 112.5 192.5Z" fill="#47535F"/>
</g>
<defs>
<clipPath id="clip0_104_1758">
<rect width="512" height="512" fill="white" transform="translate(0.5 0.5)"/>
</clipPath>
</defs>
</svg>
