<svg width="385" height="513" viewBox="0 0 385 513" fill="none" xmlns="http://www.w3.org/2000/svg">
<g clip-path="url(#clip0_104_1760)">
<path d="M384.5 64.5C384.5 29.2 355.8 0.5 320.5 0.5H64.5C29.2 0.5 0.5 29.2 0.5 64.5V448.5C0.5 483.8 29.2 512.5 64.5 512.5H320.5C355.8 512.5 384.5 483.8 384.5 448.5V64.5ZM128.5 192.5C128.5 175.526 135.243 159.247 147.245 147.245C159.247 135.243 175.526 128.5 192.5 128.5C209.474 128.5 225.753 135.243 237.755 147.245C249.757 159.247 256.5 175.526 256.5 192.5C256.5 209.474 249.757 225.753 237.755 237.755C225.753 249.757 209.474 256.5 192.5 256.5C175.526 256.5 159.247 249.757 147.245 237.755C135.243 225.753 128.5 209.474 128.5 192.5ZM80.5 357.1C80.5 319.2 111.2 288.5 149.1 288.5H236C273.9 288.5 304.6 319.2 304.6 357.1C304.6 372.2 292.3 384.5 277.2 384.5H107.9C92.8 384.5 80.5 372.2 80.5 357.1Z" fill="#47535F"/>
</g>
<defs>
<clipPath id="clip0_104_1760">
<rect width="384" height="512" fill="white" transform="translate(0.5 0.5)"/>
</clipPath>
</defs>
</svg>
