<svg width="513" height="513" viewBox="0 0 513 513" fill="none" xmlns="http://www.w3.org/2000/svg">
<g clip-path="url(#clip0_104_1764)">
<path d="M121.5 32.5C92.1 32.5 66.5 52.5 59.4 81L2.4 308.9C1.1 314 0.5 319.2 0.5 324.4V416.5C0.5 451.8 29.2 480.5 64.5 480.5H448.5C483.8 480.5 512.5 451.8 512.5 416.5V324.4C512.5 319.2 511.9 314 510.6 308.9L453.6 81C446.5 52.5 420.9 32.5 391.5 32.5H121.5ZM121.5 96.5H391.5L439.5 288.5H388.3C376.2 288.5 365.1 295.3 359.7 306.2L345.4 334.8C340 345.6 328.9 352.5 316.8 352.5H196.3C184.2 352.5 173.1 345.7 167.7 334.8L153.4 306.2C148 295.4 136.9 288.5 124.8 288.5H73.5L121.5 96.5Z" fill="#47535F"/>
</g>
<defs>
<clipPath id="clip0_104_1764">
<rect width="512" height="512" fill="white" transform="translate(0.5 0.5)"/>
</clipPath>
</defs>
</svg>
