<svg width="321" height="513" viewBox="0 0 321 513" fill="none" xmlns="http://www.w3.org/2000/svg">
<g clip-path="url(#clip0_104_1768)">
<path d="M0.499505 64.5C0.499505 46.8 14.7995 32.5 32.4995 32.5H96.4995H112.5H288.5C306.2 32.5 320.5 46.8 320.5 64.5C320.5 82.2 306.2 96.5 288.5 96.5H232.3C241.9 110.9 249 127.1 253 144.5H288.5C306.2 144.5 320.5 158.8 320.5 176.5C320.5 194.2 306.2 208.5 288.5 208.5H252.9C239.7 266.8 191 311.7 130.7 319.4L275.1 422.5C289.5 432.8 292.8 452.8 282.5 467.1C272.2 481.4 252.2 484.8 237.9 474.5L13.8995 314.5C2.5995 306.5 -2.20049 292 1.99951 278.7C6.1995 265.4 18.5995 256.5 32.4995 256.5H112.5C145.3 256.5 173.5 236.8 185.8 208.5H32.4995C14.7995 208.5 0.499505 194.2 0.499505 176.5C0.499505 158.8 14.7995 144.5 32.4995 144.5H185.8C173.5 116.2 145.3 96.5 112.5 96.5H96.4995H32.4995C14.7995 96.5 0.499505 82.2 0.499505 64.5Z" fill="#47535F"/>
</g>
<defs>
<clipPath id="clip0_104_1768">
<rect width="320" height="512" fill="white" transform="translate(0.5 0.5)"/>
</clipPath>
</defs>
</svg>
