<svg width="641" height="513" viewBox="0 0 641 513" fill="none" xmlns="http://www.w3.org/2000/svg">
<g clip-path="url(#clip0_104_1772)">
<path d="M0.5 241.6C0.5 161.5 65.5 96.5 145.6 96.5C184.1 96.5 221 111.8 248.2 139L320.5 211.2L392.7 139C420 111.8 456.9 96.5 495.4 96.5C575.5 96.5 640.5 161.5 640.5 241.6V271.3C640.5 351.5 575.5 416.5 495.4 416.5C456.9 416.5 420 401.2 392.8 374L320.5 301.8L248.3 374C221 401.2 184.1 416.5 145.6 416.5C65.5 416.5 0.5 351.5 0.5 271.4V241.6ZM275.2 256.5L203 184.3C187.8 169.1 167.1 160.5 145.6 160.5C100.8 160.5 64.5 196.8 64.5 241.6V271.3C64.5 316.1 100.8 352.4 145.6 352.4C167.1 352.4 187.8 343.9 203 328.6L275.2 256.5ZM365.7 256.5L437.9 328.7C453.1 343.9 473.8 352.5 495.3 352.5C540.1 352.5 576.4 316.2 576.4 271.4V241.6C576.4 196.8 540.1 160.5 495.3 160.5C473.8 160.5 453.1 169 437.9 184.3L365.8 256.5H365.7Z" fill="#47535F"/>
</g>
<defs>
<clipPath id="clip0_104_1772">
<rect width="640" height="512" fill="white" transform="translate(0.5 0.5)"/>
</clipPath>
</defs>
</svg>
