<svg width="193" height="513" viewBox="0 0 193 513" fill="none" xmlns="http://www.w3.org/2000/svg">
<g clip-path="url(#clip0_104_1774)">
<path d="M48.5 80.5C48.5 67.7696 53.5571 55.5606 62.5589 46.5589C71.5606 37.5571 83.7696 32.5 96.5 32.5C109.23 32.5 121.439 37.5571 130.441 46.5589C139.443 55.5606 144.5 67.7696 144.5 80.5C144.5 93.2304 139.443 105.439 130.441 114.441C121.439 123.443 109.23 128.5 96.5 128.5C83.7696 128.5 71.5606 123.443 62.5589 114.441C53.5571 105.439 48.5 93.2304 48.5 80.5ZM0.5 224.5C0.5 206.8 14.8 192.5 32.5 192.5H96.5C114.2 192.5 128.5 206.8 128.5 224.5V448.5H160.5C178.2 448.5 192.5 462.8 192.5 480.5C192.5 498.2 178.2 512.5 160.5 512.5H32.5C14.8 512.5 0.5 498.2 0.5 480.5C0.5 462.8 14.8 448.5 32.5 448.5H64.5V256.5H32.5C14.8 256.5 0.5 242.2 0.5 224.5Z" fill="#47535F"/>
</g>
<defs>
<clipPath id="clip0_104_1774">
<rect width="192" height="512" fill="white" transform="translate(0.5 0.5)"/>
</clipPath>
</defs>
</svg>
