<svg width="385" height="513" viewBox="0 0 385 513" fill="none" xmlns="http://www.w3.org/2000/svg">
<g clip-path="url(#clip0_104_1776)">
<path d="M128.5 64.5C128.5 46.8 142.8 32.5 160.5 32.5H352.5C370.2 32.5 384.5 46.8 384.5 64.5C384.5 82.2 370.2 96.5 352.5 96.5H293.8L160.5 416.5H224.5C242.2 416.5 256.5 430.8 256.5 448.5C256.5 466.2 242.2 480.5 224.5 480.5H32.5C14.8 480.5 0.5 466.2 0.5 448.5C0.5 430.8 14.8 416.5 32.5 416.5H91.2L224.5 96.5H160.5C142.8 96.5 128.5 82.2 128.5 64.5Z" fill="#47535F"/>
</g>
<defs>
<clipPath id="clip0_104_1776">
<rect width="384" height="512" fill="white" transform="translate(0.5 0.5)"/>
</clipPath>
</defs>
</svg>
