<svg width="321" height="513" viewBox="0 0 321 513" fill="none" xmlns="http://www.w3.org/2000/svg">
<g clip-path="url(#clip0_104_1778)">
<path d="M288.5 32.5C306.2 32.5 320.5 46.8 320.5 64.5V320.5C320.5 408.9 248.9 480.5 160.5 480.5C72.1 480.5 0.5 408.9 0.5 320.5V288.5C0.5 270.8 14.8 256.5 32.5 256.5C50.2 256.5 64.5 270.8 64.5 288.5V320.5C64.5 373.5 107.5 416.5 160.5 416.5C213.5 416.5 256.5 373.5 256.5 320.5V64.5C256.5 46.8 270.8 32.5 288.5 32.5Z" fill="#47535F"/>
</g>
<defs>
<clipPath id="clip0_104_1778">
<rect width="320" height="512" fill="white" transform="translate(0.5 0.5)"/>
</clipPath>
</defs>
</svg>
