<svg width="321" height="513" viewBox="0 0 321 513" fill="none" xmlns="http://www.w3.org/2000/svg">
<g clip-path="url(#clip0_104_1782)">
<path d="M32.5 32.5C32.5 14.8 46.8 0.5 64.5 0.5H256.5C274.2 0.5 288.5 14.8 288.5 32.5C288.5 50.2 274.2 64.5 256.5 64.5H64.5C46.8 64.5 32.5 50.2 32.5 32.5ZM0.5 160.5C0.5 125.2 29.2 96.5 64.5 96.5H256.5C291.8 96.5 320.5 125.2 320.5 160.5V448.5C320.5 483.8 291.8 512.5 256.5 512.5H64.5C29.2 512.5 0.5 483.8 0.5 448.5V160.5ZM112.5 160.5H70.3C67.1 160.5 64.5 163.1 64.5 166.3C64.5 198.5 90.5 224.5 122.7 224.5H144.5H176.5H198.3C230.4 224.5 256.5 198.5 256.5 166.3C256.5 163.1 253.9 160.5 250.7 160.5H208.5C189.4 160.5 172.2 168.9 160.5 182.2C148.8 168.9 131.6 160.5 112.5 160.5ZM160.5 278.2C148.8 264.9 131.6 256.5 112.5 256.5H70.3C67.1 256.5 64.5 259.1 64.5 262.3C64.5 294.5 90.5 320.5 122.7 320.5H144.5H176.5H198.3C230.4 320.5 256.5 294.5 256.5 262.3C256.5 259.1 253.9 256.5 250.7 256.5H208.5C189.4 256.5 172.2 264.9 160.5 278.2ZM112.5 352.5H70.3C67.1 352.5 64.5 355.1 64.5 358.3C64.5 390.5 90.5 416.5 122.7 416.5H144.5V448.5C144.5 457.3 151.7 464.5 160.5 464.5C169.3 464.5 176.5 457.3 176.5 448.5V416.5H198.3C230.4 416.5 256.5 390.5 256.5 358.3C256.5 355.1 253.9 352.5 250.7 352.5H208.5C189.4 352.5 172.2 360.9 160.5 374.2C148.8 360.9 131.6 352.5 112.5 352.5Z" fill="#47535F"/>
</g>
<defs>
<clipPath id="clip0_104_1782">
<rect width="320" height="512" fill="white" transform="translate(0.5 0.5)"/>
</clipPath>
</defs>
</svg>
