<svg width="321" height="513" viewBox="0 0 321 513" fill="none" xmlns="http://www.w3.org/2000/svg">
<g clip-path="url(#clip0_104_1780)">
<path d="M32.5 32.5C32.5 14.8 46.8 0.5 64.5 0.5H256.5C274.2 0.5 288.5 14.8 288.5 32.5C288.5 50.2 274.2 64.5 256.5 64.5H64.5C46.8 64.5 32.5 50.2 32.5 32.5ZM0.5 160.5C0.5 125.2 29.2 96.5 64.5 96.5H256.5C291.8 96.5 320.5 125.2 320.5 160.5V448.5C320.5 483.8 291.8 512.5 256.5 512.5H64.5C29.2 512.5 0.5 483.8 0.5 448.5V160.5ZM96.5 224.5C78.8 224.5 64.5 238.8 64.5 256.5V352.5C64.5 370.2 78.8 384.5 96.5 384.5H224.5C242.2 384.5 256.5 370.2 256.5 352.5V256.5C256.5 238.8 242.2 224.5 224.5 224.5H96.5Z" fill="#47535F"/>
</g>
<defs>
<clipPath id="clip0_104_1780">
<rect width="320" height="512" fill="white" transform="translate(0.5 0.5)"/>
</clipPath>
</defs>
</svg>
