<svg width="577" height="513" viewBox="0 0 577 513" fill="none" xmlns="http://www.w3.org/2000/svg">
<g clip-path="url(#clip0_104_1784)">
<path d="M246.5 316.2L225.3 284.3C223.2 281.1 223.6 276.9 226.3 274.2C229 271.5 233.2 271.1 236.4 273.2L265.9 292.9C268 294.3 270.8 292.9 270.9 290.3L280.2 8.5C280.3 4 284 0.5 288.5 0.5C293 0.5 296.6 4 296.8 8.5L306.2 290.4C306.3 292.9 309.1 294.3 311.2 293L340.7 273.3C343.9 271.2 348.1 271.6 350.8 274.3C353.5 277 353.9 281.2 351.8 284.4L330.5 316.2C329.2 318.1 330.3 320.7 332.5 321.1L370.1 328.6C373.8 329.3 376.5 332.6 376.5 336.4C376.5 340.2 373.8 343.5 370.1 344.2L332.5 351.9C330.3 352.3 329.2 354.9 330.5 356.8L351.7 388.7C353.8 391.9 353.4 396.1 350.7 398.8C348 401.5 343.8 401.9 340.6 399.8L314.3 382.2C312.1 380.8 309.2 382.4 309.3 385L311.4 446.5C371.1 435.7 416.5 383.4 416.5 320.5C416.5 283.5 400.8 250.1 375.7 226.8C368.7 220.3 369.2 208.2 376.7 202.4C410.6 176 432.5 134.8 432.5 88.5C432.5 71.7 429.6 55.5 424.3 40.5C419.7 27.5 434.5 10.5 445.7 18.5C499.2 56.5 538.4 113.3 553.5 179.2C554 181.3 553.3 183.5 551.8 185.1L523.4 213.5C519.4 217.5 522.2 224.4 527.9 224.4H553.9C557.3 224.4 560.1 227 560.2 230.4C560.3 233.7 560.4 237 560.4 240.4C560.4 257.9 558.7 275.1 555.6 291.7C555.4 292.9 554.7 294.1 553.9 295L507.4 341.5C503.4 345.5 506.2 352.4 511.9 352.4H526.5C531.1 352.4 534.2 357.2 532.2 361.4C487.7 451 395.3 512.5 288.5 512.5C181.7 512.5 89.3 451 44.8 361.5C42.7 357.3 45.8 352.5 50.5 352.5H65C70.7 352.5 73.6 345.6 69.5 341.6L23.1 295.1C22.2 294.2 21.6 293.1 21.4 291.8C18.2 275.2 16.5 258 16.5 240.5C16.5 237.2 16.6 233.8 16.7 230.5C16.8 227.1 19.6 224.5 23 224.5H49C54.7 224.5 57.6 217.6 53.5 213.6L25.1 185.1C23.6 183.6 22.9 181.3 23.4 179.2C38.6 113.3 77.8 56.5 131.3 18.5C142.6 10.5 157.3 27.4 152.7 40.5C147.4 55.5 144.5 71.7 144.5 88.5C144.5 134.8 166.4 176 200.3 202.4C207.8 208.2 208.3 220.3 201.3 226.8C176.2 250.1 160.5 283.5 160.5 320.5C160.5 383.4 205.9 435.7 265.6 446.5L267.7 385C267.8 382.4 264.9 380.8 262.7 382.2L236.4 399.8C233.2 401.9 229 401.5 226.3 398.8C223.6 396.1 223.2 391.9 225.3 388.7L246.5 356.8C247.8 354.9 246.7 352.3 244.5 351.9L206.9 344.4C203.2 343.7 200.5 340.4 200.5 336.6C200.5 332.8 203.2 329.5 206.9 328.8L244.5 321.3C246.7 320.9 247.8 318.3 246.5 316.4V316.2Z" fill="#47535F"/>
</g>
<defs>
<clipPath id="clip0_104_1784">
<rect width="576" height="512" fill="white" transform="translate(0.5 0.5)"/>
</clipPath>
</defs>
</svg>
