<svg width="513" height="513" viewBox="0 0 513 513" fill="none" xmlns="http://www.w3.org/2000/svg">
<g clip-path="url(#clip0_104_1788)">
<path d="M271.2 10.2C268.7 4.3 262.9 0.5 256.5 0.5C250.1 0.5 244.3 4.3 241.8 10.2L197.7 113.1C194.3 121.1 192.5 129.6 192.5 138.3V215.3L48.5 299.3V280.5C48.5 267.2 37.8 256.5 24.5 256.5C11.2 256.5 0.5 267.2 0.5 280.5V336.5V368.5V392.5C0.5 405.8 11.2 416.5 24.5 416.5C37.8 416.5 48.5 405.8 48.5 392.5V384.5H192.5V417.2L134 468.5C130.5 471.5 128.5 475.9 128.5 480.5V496.5C128.5 505.3 135.7 512.5 144.5 512.5H240.5V448.5C240.5 439.7 247.7 432.5 256.5 432.5C265.3 432.5 272.5 439.7 272.5 448.5V512.5H368.5C377.3 512.5 384.5 505.3 384.5 496.5V480.5C384.5 475.9 382.5 471.5 379 468.5L320.5 417.2V384.5H464.5V392.5C464.5 405.8 475.2 416.5 488.5 416.5C501.8 416.5 512.5 405.8 512.5 392.5V368.5V336.5V280.5C512.5 267.2 501.8 256.5 488.5 256.5C475.2 256.5 464.5 267.2 464.5 280.5V299.3L320.5 215.3V138.3C320.5 129.6 318.7 121.1 315.3 113.1L271.2 10.2Z" fill="#47535F"/>
</g>
<defs>
<clipPath id="clip0_104_1788">
<rect width="512" height="512" fill="white" transform="translate(0.5 0.5)"/>
</clipPath>
</defs>
</svg>
