<svg width="641" height="513" viewBox="0 0 641 513" fill="none" xmlns="http://www.w3.org/2000/svg">
<g clip-path="url(#clip0_104_1790)">
<path d="M448.5 32.5C448.5 14.8 434.2 0.5 416.5 0.5C398.8 0.5 384.5 14.8 384.5 32.5V43.5C384.5 98.7 406.4 151.6 445.4 190.6L466.4 211.6C475.4 220.6 480.5 232.8 480.5 245.5V256.5C480.5 274.2 494.8 288.5 512.5 288.5C530.2 288.5 544.5 274.2 544.5 256.5V245.5C544.5 215.8 532.7 187.3 511.7 166.3L490.7 145.3C463.7 118.3 448.5 81.7 448.5 43.5V32.5ZM576.5 256.5C576.5 274.2 590.8 288.5 608.5 288.5C626.2 288.5 640.5 274.2 640.5 256.5V245.5C640.5 190.3 618.6 137.4 579.6 98.4L558.6 77.4C549.6 68.4 544.5 56.2 544.5 43.5V32.5C544.5 14.8 530.2 0.5 512.5 0.5C494.8 0.5 480.5 14.8 480.5 32.5V43.5C480.5 73.2 492.3 101.7 513.3 122.7L534.3 143.7C561.3 170.7 576.5 207.3 576.5 245.5V256.5ZM230.3 360.5C225.6 358.2 220.3 357.8 215.1 358.5C177.3 364.1 139.9 372.8 108.2 381.3C81.8 388.5 58.8 395.6 42.5 400.9C34.3 403.6 27.8 405.8 23.3 407.4C21 408.2 19.3 408.8 18.1 409.2L16.8 409.7C7.3 413 0.5 421.9 0.5 432.5C0.5 443.1 7.3 452 16.8 455.2L18.1 455.7C19.3 456.1 21.1 456.8 23.3 457.5C27.8 459.1 34.3 461.3 42.5 464C58.8 469.4 81.7 476.5 108.2 483.6C160.8 497.8 229.3 512.5 288.5 512.5H355.8C359.9 512.5 362.1 507.4 359.4 504.2L257 381.3C249.6 372.4 240.5 365.4 230.3 360.5ZM445.5 512.5H464.5H515.8C519.9 512.5 522.1 507.4 519.4 504.2L417 381.3C401.8 363 379.3 352.5 355.5 352.5H336.5H288.5C287.4 352.5 286.2 352.5 285.1 352.5C281 352.5 278.9 357.6 281.6 360.8L384 483.7C399.2 502 421.7 512.5 445.5 512.5ZM441.6 360.8L544 483.7C558.6 501.2 579.9 511.6 602.6 512.4C623.7 511.3 640.5 493.8 640.5 472.5V392.5C640.5 370.4 622.6 352.5 600.5 352.5H445.2C441.1 352.5 438.9 357.6 441.6 360.8Z" fill="#47535F"/>
</g>
<defs>
<clipPath id="clip0_104_1790">
<rect width="640" height="512" fill="white" transform="translate(0.5 0.5)"/>
</clipPath>
</defs>
</svg>
