<svg width="385" height="513" viewBox="0 0 385 513" fill="none" xmlns="http://www.w3.org/2000/svg">
<g clip-path="url(#clip0_104_1792)">
<path d="M96.5 24.5C96.5 11.2 107.2 0.5 120.5 0.5H200.5C213.8 0.5 224.5 11.2 224.5 24.5V48.5H232.5C245.8 48.5 256.5 59.2 256.5 72.5C256.5 85.8 245.8 96.5 232.5 96.5H88.5C75.2 96.5 64.5 85.8 64.5 72.5C64.5 59.2 75.2 48.5 88.5 48.5H96.5V24.5ZM0.5 256.5C0.5 185.8 57.8 128.5 128.5 128.5H256.5C327.2 128.5 384.5 185.8 384.5 256.5V448.5C384.5 483.8 355.8 512.5 320.5 512.5H64.5C29.2 512.5 0.5 483.8 0.5 448.5V256.5ZM256.5 256.5V352.5C256.5 370.2 270.8 384.5 288.5 384.5C306.2 384.5 320.5 370.2 320.5 352.5V256.5C320.5 238.8 306.2 224.5 288.5 224.5C270.8 224.5 256.5 238.8 256.5 256.5Z" fill="#47535F"/>
</g>
<defs>
<clipPath id="clip0_104_1792">
<rect width="384" height="512" fill="white" transform="translate(0.5 0.5)"/>
</clipPath>
</defs>
</svg>
