<svg width="321" height="513" viewBox="0 0 321 513" fill="none" xmlns="http://www.w3.org/2000/svg">
<g clip-path="url(#clip0_104_1794)">
<path d="M311.5 86.8C323.8 74.1 323.5 53.9 310.8 41.6C298.1 29.3 277.9 29.6 265.6 42.3L110.4 202.3L64.5 249.5V64.5C64.5 46.8 50.2 32.5 32.5 32.5C14.8 32.5 0.5 46.8 0.5 64.5V328.5V448.5C0.5 466.2 14.8 480.5 32.5 480.5C50.2 480.5 64.5 466.2 64.5 448.5V341.5L129.2 274.8L262.2 466.8C272.3 481.3 292.2 484.9 306.7 474.9C321.2 464.9 324.8 444.9 314.8 430.4L174.6 227.9L311.5 86.8Z" fill="#47535F"/>
</g>
<defs>
<clipPath id="clip0_104_1794">
<rect width="320" height="512" fill="white" transform="translate(0.5 0.5)"/>
</clipPath>
</defs>
</svg>
