<svg width="577" height="513" viewBox="0 0 577 513" fill="none" xmlns="http://www.w3.org/2000/svg">
<g clip-path="url(#clip0_104_1796)">
<path d="M60.5 120.5L288.5 191.7L516.5 120.5L288.5 49.3L60.5 120.5ZM279 2.00001C285.2 0.100012 291.9 0.100012 298.1 2.00001L554.1 82C567.4 86.1 576.5 98.5 576.5 112.5V128.5V149.7L293.3 238.2C290.2 239.2 286.9 239.2 283.8 238.2L0.5 149.7V128.5V112.5C0.5 98.5 9.6 86.1 23 82L279 2.00001ZM302.9 268.8L576.5 183.3V229.8L523.7 246.3C515.3 248.9 510.6 257.9 513.2 266.3C515.8 274.7 524.8 279.4 533.2 276.8L576.5 263.3V400.5C576.5 414.5 567.4 426.9 554 431L298 511C291.8 512.9 285.1 512.9 278.9 511L22.9 431C9.6 426.9 0.5 414.5 0.5 400.5V263.3L43.7 276.8C52.1 279.4 61.1 274.7 63.7 266.3C66.3 257.9 61.6 248.9 53.2 246.3L0.5 229.7V183.3L274.2 268.8C283.5 271.7 293.5 271.7 302.8 268.8H302.9ZM117.4 266.2C109 263.6 100 268.3 97.4 276.7C94.8 285.1 99.5 294.1 107.9 296.7L171.9 316.7C180.3 319.3 189.3 314.6 191.9 306.2C194.5 297.8 189.8 288.8 181.4 286.2L117.4 266.2ZM469.4 296.7C477.8 294.1 482.5 285.1 479.9 276.7C477.3 268.3 468.3 263.6 459.9 266.2L395.9 286.2C387.5 288.8 382.8 297.8 385.4 306.2C388 314.6 397 319.3 405.4 316.7L469.4 296.7ZM245.4 306.2C237 303.6 228 308.3 225.4 316.7C222.8 325.1 227.5 334.1 235.9 336.7L274.4 348.7C283.7 351.6 293.7 351.6 303 348.7L341.5 336.7C349.9 334.1 354.6 325.1 352 316.7C349.4 308.3 340.4 303.6 332 306.2L293.5 318.2C290.4 319.2 287.1 319.2 284 318.2L245.5 306.2H245.4Z" fill="#47535F"/>
</g>
<defs>
<clipPath id="clip0_104_1796">
<rect width="576" height="512" fill="white" transform="translate(0.5 0.5)"/>
</clipPath>
</defs>
</svg>
