<svg width="513" height="513" viewBox="0 0 513 513" fill="none" xmlns="http://www.w3.org/2000/svg">
<g clip-path="url(#clip0_104_1798)">
<path d="M336.5 352.5C433.7 352.5 512.5 273.7 512.5 176.5C512.5 79.3 433.7 0.5 336.5 0.5C239.3 0.5 160.5 79.3 160.5 176.5C160.5 195.2 163.4 213.3 168.8 230.2L7.5 391.5C3 396 0.5 402.1 0.5 408.5V488.5C0.5 501.8 11.2 512.5 24.5 512.5H104.5C117.8 512.5 128.5 501.8 128.5 488.5V448.5H168.5C181.8 448.5 192.5 437.8 192.5 424.5V384.5H232.5C238.9 384.5 245 382 249.5 377.5L282.8 344.2C299.7 349.6 317.8 352.5 336.5 352.5ZM376.5 96.5C387.109 96.5 397.283 100.714 404.784 108.216C412.286 115.717 416.5 125.891 416.5 136.5C416.5 147.109 412.286 157.283 404.784 164.784C397.283 172.286 387.109 176.5 376.5 176.5C365.891 176.5 355.717 172.286 348.216 164.784C340.714 157.283 336.5 147.109 336.5 136.5C336.5 125.891 340.714 115.717 348.216 108.216C355.717 100.714 365.891 96.5 376.5 96.5Z" fill="#47535F"/>
</g>
<defs>
<clipPath id="clip0_104_1798">
<rect width="512" height="512" fill="white" transform="translate(0.5 0.5)"/>
</clipPath>
</defs>
</svg>
