<svg width="577" height="513" viewBox="0 0 577 513" fill="none" xmlns="http://www.w3.org/2000/svg">
<g clip-path="url(#clip0_104_1800)">
<path d="M64.5 64.5C29.2 64.5 0.5 93.2 0.5 128.5V384.5C0.5 419.8 29.2 448.5 64.5 448.5H512.5C547.8 448.5 576.5 419.8 576.5 384.5V128.5C576.5 93.2 547.8 64.5 512.5 64.5H64.5ZM80.5 128.5H112.5C121.3 128.5 128.5 135.7 128.5 144.5V176.5C128.5 185.3 121.3 192.5 112.5 192.5H80.5C71.7 192.5 64.5 185.3 64.5 176.5V144.5C64.5 135.7 71.7 128.5 80.5 128.5ZM64.5 240.5C64.5 231.7 71.7 224.5 80.5 224.5H112.5C121.3 224.5 128.5 231.7 128.5 240.5V272.5C128.5 281.3 121.3 288.5 112.5 288.5H80.5C71.7 288.5 64.5 281.3 64.5 272.5V240.5ZM80.5 320.5H112.5C121.3 320.5 128.5 327.7 128.5 336.5V368.5C128.5 377.3 121.3 384.5 112.5 384.5H80.5C71.7 384.5 64.5 377.3 64.5 368.5V336.5C64.5 327.7 71.7 320.5 80.5 320.5ZM160.5 144.5C160.5 135.7 167.7 128.5 176.5 128.5H208.5C217.3 128.5 224.5 135.7 224.5 144.5V176.5C224.5 185.3 217.3 192.5 208.5 192.5H176.5C167.7 192.5 160.5 185.3 160.5 176.5V144.5ZM176.5 224.5H208.5C217.3 224.5 224.5 231.7 224.5 240.5V272.5C224.5 281.3 217.3 288.5 208.5 288.5H176.5C167.7 288.5 160.5 281.3 160.5 272.5V240.5C160.5 231.7 167.7 224.5 176.5 224.5ZM160.5 336.5C160.5 327.7 167.7 320.5 176.5 320.5H400.5C409.3 320.5 416.5 327.7 416.5 336.5V368.5C416.5 377.3 409.3 384.5 400.5 384.5H176.5C167.7 384.5 160.5 377.3 160.5 368.5V336.5ZM272.5 128.5H304.5C313.3 128.5 320.5 135.7 320.5 144.5V176.5C320.5 185.3 313.3 192.5 304.5 192.5H272.5C263.7 192.5 256.5 185.3 256.5 176.5V144.5C256.5 135.7 263.7 128.5 272.5 128.5ZM256.5 240.5C256.5 231.7 263.7 224.5 272.5 224.5H304.5C313.3 224.5 320.5 231.7 320.5 240.5V272.5C320.5 281.3 313.3 288.5 304.5 288.5H272.5C263.7 288.5 256.5 281.3 256.5 272.5V240.5ZM368.5 128.5H400.5C409.3 128.5 416.5 135.7 416.5 144.5V176.5C416.5 185.3 409.3 192.5 400.5 192.5H368.5C359.7 192.5 352.5 185.3 352.5 176.5V144.5C352.5 135.7 359.7 128.5 368.5 128.5ZM352.5 240.5C352.5 231.7 359.7 224.5 368.5 224.5H400.5C409.3 224.5 416.5 231.7 416.5 240.5V272.5C416.5 281.3 409.3 288.5 400.5 288.5H368.5C359.7 288.5 352.5 281.3 352.5 272.5V240.5ZM464.5 128.5H496.5C505.3 128.5 512.5 135.7 512.5 144.5V176.5C512.5 185.3 505.3 192.5 496.5 192.5H464.5C455.7 192.5 448.5 185.3 448.5 176.5V144.5C448.5 135.7 455.7 128.5 464.5 128.5ZM448.5 240.5C448.5 231.7 455.7 224.5 464.5 224.5H496.5C505.3 224.5 512.5 231.7 512.5 240.5V272.5C512.5 281.3 505.3 288.5 496.5 288.5H464.5C455.7 288.5 448.5 281.3 448.5 272.5V240.5ZM464.5 320.5H496.5C505.3 320.5 512.5 327.7 512.5 336.5V368.5C512.5 377.3 505.3 384.5 496.5 384.5H464.5C455.7 384.5 448.5 377.3 448.5 368.5V336.5C448.5 327.7 455.7 320.5 464.5 320.5Z" fill="#47535F"/>
</g>
<defs>
<clipPath id="clip0_104_1800">
<rect width="576" height="512" fill="white" transform="translate(0.5 0.5)"/>
</clipPath>
</defs>
</svg>
