<svg width="513" height="513" viewBox="0 0 513 513" fill="none" xmlns="http://www.w3.org/2000/svg">
<g clip-path="url(#clip0_104_1802)">
<path d="M246.3 4.20002C252.2 -0.699975 260.9 -0.699975 266.8 4.20002L314.8 44.2C320.7 49.1 322.3 57.4 318.6 64.1L318.5 64.2L318.2 64.8C317.9 65.3 317.5 66.1 317 67.1C316 69.1 314.4 72.1 312.6 75.7C312.1 76.6 311.7 77.6 311.2 78.6C345.4 97.9 368.5 134.5 368.5 176.5C368.5 218.5 345.4 255.1 311.2 274.3C311.7 275.3 312.2 276.3 312.6 277.2C314.4 280.9 315.9 283.8 317 285.8C317.5 286.8 317.9 287.6 318.2 288.1L318.5 288.7L318.6 288.8C322.2 295.5 320.6 303.8 314.8 308.7L272.5 344V363.8L308.1 339.3L349.2 311.1C392 281.7 417.6 233.1 417.6 181.1C417.6 150 408.4 119.5 391.1 93.6L388.3 89.4C384.3 83.4 384.8 75.4 389.6 69.9C394.4 64.4 402.3 62.9 408.8 66.2L401.6 80.5C408.8 66.2 408.8 66.2 408.8 66.2H408.9L409.2 66.4L410.2 66.9C411 67.3 412.2 68 413.7 68.8C416.6 70.5 420.7 72.9 425.5 76.1C435.1 82.5 448 92.2 460.9 105.1C486.6 130.8 513.6 170.7 513.6 224.4C513.6 277.5 487.2 324.9 462.4 358C449.8 374.7 437.3 388.3 427.9 397.7C423.2 402.4 419.2 406.1 416.4 408.6C415 409.9 413.9 410.8 413.1 411.5L412.2 412.3L411.9 412.5L411.8 412.6C411.8 412.6 411.8 412.6 401.6 400.3L411.8 412.6C406.7 416.9 399.4 417.5 393.6 414.2L318 371.2L285.3 393.7L330.8 425C332.6 424.6 334.5 424.3 336.5 424.3C349.8 424.3 360.5 435 360.5 448.3C360.5 461.6 349.8 472.3 336.5 472.3C324.3 472.3 314.2 463.2 312.7 451.3L272.5 423.9V452.8C282.1 458.3 288.5 468.7 288.5 480.5C288.5 498.2 274.2 512.5 256.5 512.5C238.8 512.5 224.5 498.2 224.5 480.5C224.5 468.7 230.9 458.3 240.5 452.8V424.6L200.2 452.3C198.3 463.8 188.4 472.5 176.5 472.5C163.2 472.5 152.5 461.8 152.5 448.5C152.5 435.2 163.2 424.5 176.5 424.5C178.7 424.5 180.9 424.8 183 425.4L228.8 393.9L196.1 371.4L120.5 414.4C114.7 417.7 107.5 417.1 102.3 412.8L112.5 400.5C102.3 412.8 102.3 412.8 102.2 412.8L102.1 412.7L101.8 412.5L100.9 411.7C100.1 411 99 410 97.6 408.8C94.8 406.3 90.9 402.6 86.1 397.9C76.7 388.5 64.2 374.9 51.6 358.2C26.9 325 0.5 277.6 0.5 224.5C0.5 170.8 27.4 130.9 53.2 105.2C66.1 92.3 79 82.6 88.6 76.2C93.5 73 97.5 70.5 100.4 68.9C101.9 68.1 103 67.4 103.9 67L104.9 66.5L105.2 66.3H105.3C105.3 66.3 105.3 66.3 112.5 80.6L105.3 66.3C111.8 63.1 119.6 64.6 124.5 70C129.4 75.4 129.8 83.4 125.8 89.5L123 93.7C105.7 119.5 96.5 150 96.5 181.1C96.5 233 122.1 281.7 164.9 311.1L206 339.3L240.5 363.1V344L198.3 308.8C192.4 303.9 190.8 295.6 194.5 288.9L194.6 288.8L194.9 288.2C195.2 287.7 195.6 286.9 196.1 285.9C197.1 283.9 198.7 280.9 200.5 277.3C201 276.4 201.4 275.4 201.9 274.4C167.6 255.1 144.5 218.5 144.5 176.5C144.5 134.5 167.6 97.9 201.8 78.7C201.3 77.7 200.8 76.7 200.4 75.8C198.6 72.1 197.1 69.2 196 67.2C195.5 66.2 195.1 65.4 194.8 64.9L194.5 64.3L194.4 64.2C190.8 57.5 192.4 49.2 198.2 44.3L246.2 4.30002L246.3 4.20002ZM220.7 123.4C203.7 134.9 192.5 154.4 192.5 176.5C192.5 198.6 203.7 218.1 220.7 229.6C227.5 210.7 232.5 191.4 232.5 176.5C232.5 161.6 227.5 142.3 220.7 123.4ZM292.2 229.6C309.2 218.1 320.4 198.6 320.4 176.5C320.4 154.4 309.2 134.9 292.2 123.4C285.5 142.3 280.5 161.6 280.5 176.5C280.5 191.4 285.5 210.7 292.3 229.6H292.2Z" fill="#47535F"/>
</g>
<defs>
<clipPath id="clip0_104_1802">
<rect width="512" height="512" fill="white" transform="translate(0.5 0.5)"/>
</clipPath>
</defs>
</svg>
