<svg width="385" height="513" viewBox="0 0 385 513" fill="none" xmlns="http://www.w3.org/2000/svg">
<g clip-path="url(#clip0_104_1804)">
<path d="M341.3 88.8C354.7 77.3 356.3 57.1 344.8 43.7C333.3 30.3 313.1 28.7 299.7 40.2L128.5 186.9V64.5C128.5 46.8 114.2 32.5 96.5 32.5C78.8 32.5 64.5 46.8 64.5 64.5V224.5H32.5C14.8 224.5 0.5 238.8 0.5 256.5C0.5 274.2 14.8 288.5 32.5 288.5H64.5V448.5C64.5 466.2 78.8 480.5 96.5 480.5C114.2 480.5 128.5 466.2 128.5 448.5V326.1L299.7 472.8C313.1 484.3 333.3 482.7 344.8 469.3C356.3 455.9 354.7 435.7 341.3 424.2L183 288.5H352.5C370.2 288.5 384.5 274.2 384.5 256.5C384.5 238.8 370.2 224.5 352.5 224.5H183L341.3 88.8Z" fill="#47535F"/>
</g>
<defs>
<clipPath id="clip0_104_1804">
<rect width="384" height="512" fill="white" transform="translate(0.5 0.5)"/>
</clipPath>
</defs>
</svg>
