<svg width="577" height="513" viewBox="0 0 577 513" fill="none" xmlns="http://www.w3.org/2000/svg">
<g clip-path="url(#clip0_104_1808)">
<path d="M64.5 32.5C29.2 32.5 0.5 61.2 0.5 96.5V416.5C0.5 451.8 29.2 480.5 64.5 480.5H96.5V32.5H64.5ZM128.5 32.5V480.5H448.5V32.5H128.5ZM512.5 480.5C547.8 480.5 576.5 451.8 576.5 416.5V96.5C576.5 61.2 547.8 32.5 512.5 32.5H480.5V480.5H512.5ZM256.5 176.5C256.5 167.7 263.7 160.5 272.5 160.5H304.5C313.3 160.5 320.5 167.7 320.5 176.5V224.5H368.5C377.3 224.5 384.5 231.7 384.5 240.5V272.5C384.5 281.3 377.3 288.5 368.5 288.5H320.5V336.5C320.5 345.3 313.3 352.5 304.5 352.5H272.5C263.7 352.5 256.5 345.3 256.5 336.5V288.5H208.5C199.7 288.5 192.5 281.3 192.5 272.5V240.5C192.5 231.7 199.7 224.5 208.5 224.5H256.5V176.5Z" fill="#47535F"/>
</g>
<defs>
<clipPath id="clip0_104_1808">
<rect width="576" height="512" fill="white" transform="translate(0.5 0.5)"/>
</clipPath>
</defs>
</svg>
