<svg width="577" height="513" viewBox="0 0 577 513" fill="none" xmlns="http://www.w3.org/2000/svg">
<g clip-path="url(#clip0_104_1806)">
<path d="M240.5 144.5C240.5 119.039 230.386 94.6212 212.382 76.6178C194.379 58.6143 169.961 48.5 144.5 48.5C119.039 48.5 94.6212 58.6143 76.6178 76.6178C58.6143 94.6212 48.5 119.039 48.5 144.5C48.5 169.961 58.6143 194.379 76.6178 212.382C94.6212 230.386 119.039 240.5 144.5 240.5C169.961 240.5 194.379 230.386 212.382 212.382C230.386 194.379 240.5 169.961 240.5 144.5ZM284.9 176.5C270.4 240.6 213 288.5 144.5 288.5C65 288.5 0.5 224 0.5 144.5C0.5 65 65 0.5 144.5 0.5C213 0.5 270.4 48.4 284.9 112.5H356.7C365.5 102.7 378.3 96.5 392.5 96.5H496.5C523 96.5 544.5 118 544.5 144.5C544.5 171 523 192.5 496.5 192.5H392.5C378.3 192.5 365.5 186.3 356.7 176.5H284.9ZM144.5 80.5C161.474 80.5 177.753 87.2428 189.755 99.2452C201.757 111.247 208.5 127.526 208.5 144.5C208.5 161.474 201.757 177.753 189.755 189.755C177.753 201.757 161.474 208.5 144.5 208.5C127.526 208.5 111.247 201.757 99.2452 189.755C87.2428 177.753 80.5 161.474 80.5 144.5C80.5 127.526 87.2428 111.247 99.2452 99.2452C111.247 87.2428 127.526 80.5 144.5 80.5ZM400.5 240.5C413.8 240.5 424.5 251.2 424.5 264.5V272.5H520.5C533.8 272.5 544.5 283.2 544.5 296.5C544.5 309.8 533.8 320.5 520.5 320.5H280.5C267.2 320.5 256.5 309.8 256.5 296.5C256.5 283.2 267.2 272.5 280.5 272.5H376.5V264.5C376.5 251.2 387.2 240.5 400.5 240.5ZM288.5 464.5V352.5H512.5V464.5C512.5 491 491 512.5 464.5 512.5H336.5C310 512.5 288.5 491 288.5 464.5ZM48.5 320.5H128.5H144.5H176.5C203 320.5 224.5 342 224.5 368.5C224.5 395 203 416.5 176.5 416.5H160.5C160.5 434.2 146.2 448.5 128.5 448.5H64.5C46.8 448.5 32.5 434.2 32.5 416.5V336.5C32.5 327.7 39.7 320.5 48.5 320.5ZM176.5 384.5C185.3 384.5 192.5 377.3 192.5 368.5C192.5 359.7 185.3 352.5 176.5 352.5H160.5V384.5H176.5ZM24.5 464.5H200.5C213.8 464.5 224.5 475.2 224.5 488.5C224.5 501.8 213.8 512.5 200.5 512.5H24.5C11.2 512.5 0.5 501.8 0.5 488.5C0.5 475.2 11.2 464.5 24.5 464.5Z" fill="#47535F"/>
</g>
<defs>
<clipPath id="clip0_104_1806">
<rect width="576" height="512" fill="white" transform="translate(0.5 0.5)"/>
</clipPath>
</defs>
</svg>
