<svg width="577" height="513" viewBox="0 0 577 513" fill="none" xmlns="http://www.w3.org/2000/svg">
<g clip-path="url(#clip0_104_1810)">
<path d="M291.7 388.9C322.9 370.1 356.4 352.5 392.8 352.5H448.5C453.1 352.5 457.6 352.3 462.1 351.8L547.4 473.7C551.4 479.4 558.7 481.9 565.3 479.8C571.9 477.7 576.5 471.5 576.5 464.5V224.5C576.5 153.8 519.2 96.5 448.5 96.5H392.8C356.4 96.5 322.9 78.9 291.7 60.1C262.8 42.6 228.8 32.5 192.5 32.5C86.5 32.5 0.5 118.5 0.5 224.5C0.5 295.6 39.1 357.6 96.5 390.8V456.5C96.5 469.8 107.2 480.5 120.5 480.5C133.8 480.5 144.5 469.8 144.5 456.5V410.5C159.8 414.4 175.9 416.5 192.5 416.5C197.9 416.5 203.2 416.3 208.5 415.8V456.5C208.5 469.8 219.2 480.5 232.5 480.5C245.8 480.5 256.5 469.8 256.5 456.5V405.6C268.9 401.2 280.7 395.6 291.7 388.9ZM448.5 200.5C454.865 200.5 460.97 203.029 465.471 207.529C469.971 212.03 472.5 218.135 472.5 224.5C472.5 230.865 469.971 236.97 465.471 241.471C460.97 245.971 454.865 248.5 448.5 248.5C442.135 248.5 436.03 245.971 431.529 241.471C427.029 236.97 424.5 230.865 424.5 224.5C424.5 218.135 427.029 212.03 431.529 207.529C436.03 203.029 442.135 200.5 448.5 200.5Z" fill="#47535F"/>
</g>
<defs>
<clipPath id="clip0_104_1810">
<rect width="576" height="512" fill="white" transform="translate(0.5 0.5)"/>
</clipPath>
</defs>
</svg>
