<svg width="513" height="513" viewBox="0 0 513 513" fill="none" xmlns="http://www.w3.org/2000/svg">
<g clip-path="url(#clip0_104_1816)">
<path d="M248.5 0.5H264.5C277.8 0.5 288.5 11.2 288.5 24.5V35.2C368.9 48.6 432.4 112.1 445.8 192.5H448.5C466.2 192.5 480.5 206.8 480.5 224.5C480.5 242.2 466.2 256.5 448.5 256.5H64.5C46.8 256.5 32.5 242.2 32.5 224.5C32.5 206.8 46.8 192.5 64.5 192.5H67.2C80.6 112.1 144.1 48.6 224.5 35.2V24.5C224.5 11.2 235.2 0.5 248.5 0.5ZM64.5 288.5H128.5V416.5H168.5V288.5H232.5V416.5H280.5V288.5H344.5V416.5H384.5V288.5H448.5V420.8C449.1 421.1 449.7 421.5 450.2 421.9L498.2 453.9C509.9 461.7 515.2 476.3 511.1 489.8C507 503.3 494.6 512.5 480.5 512.5H32.5C18.4 512.5 5.99996 503.3 1.89996 489.8C-2.20004 476.3 2.99996 461.7 14.8 453.9L62.8 421.9C63.4 421.5 64 421.2 64.6 420.8V288.5H64.5Z" fill="#47535F"/>
</g>
<defs>
<clipPath id="clip0_104_1816">
<rect width="512" height="512" fill="white" transform="translate(0.5 0.5)"/>
</clipPath>
</defs>
</svg>
