<svg width="513" height="513" viewBox="0 0 513 513" fill="none" xmlns="http://www.w3.org/2000/svg">
<g clip-path="url(#clip0_104_1818)">
<path d="M272.5 0.5H352.5C361.3 0.5 368.5 7.7 368.5 16.5V80.5C368.5 89.3 361.3 96.5 352.5 96.5H272.5V128.5H464.5C482.2 128.5 496.5 142.8 496.5 160.5C496.5 178.2 482.2 192.5 464.5 192.5H48.5C30.8 192.5 16.5 178.2 16.5 160.5C16.5 142.8 30.8 128.5 48.5 128.5H240.5V16.5C240.5 7.7 247.7 0.5 256.5 0.5H272.5ZM64.5 224.5H128.5V416.5H168.5V224.5H232.5V416.5H280.5V224.5H344.5V416.5H384.5V224.5H448.5V420.8C449.1 421.1 449.7 421.5 450.3 421.9L498.3 453.9C510 461.7 515.3 476.3 511.2 489.8C507.1 503.3 494.6 512.5 480.5 512.5H32.5C18.4 512.5 6.00002 503.3 1.90002 489.8C-2.19998 476.3 3.00002 461.7 14.8 453.9L62.8 421.9C63.4 421.5 64 421.2 64.6 420.8V224.5H64.5Z" fill="#47535F"/>
</g>
<defs>
<clipPath id="clip0_104_1818">
<rect width="512" height="512" fill="white" transform="translate(0.5 0.5)"/>
</clipPath>
</defs>
</svg>
