<svg width="513" height="513" viewBox="0 0 513 513" fill="none" xmlns="http://www.w3.org/2000/svg">
<g clip-path="url(#clip0_104_1814)">
<path d="M240.6 4.7C250.4 -0.9 262.5 -0.9 272.4 4.7L444.2 102.8L448.5 104.5V105.4L496.4 132.8C509 140 515.2 154.8 511.5 168.8C507.8 182.8 495.1 192.6 480.6 192.6H32.5C18 192.6 5.29996 182.8 1.59996 168.8C-2.10004 154.8 4.09996 140 16.7 132.8L64.5 105.4V104.5L68.9 102.9L240.6 4.7ZM64.5 224.5H128.5V416.5H168.5V224.5H232.5V416.5H280.5V224.5H344.5V416.5H384.5V224.5H448.5V420.8C449.1 421.1 449.7 421.5 450.3 421.9L498.3 453.9C510 461.7 515.3 476.3 511.2 489.8C507.1 503.3 494.6 512.5 480.5 512.5H32.5C18.4 512.5 5.99996 503.3 1.89996 489.8C-2.20004 476.3 2.99996 461.7 14.8 453.9L62.8 421.9C63.4 421.5 64 421.2 64.6 420.8V224.5H64.5Z" fill="#47535F"/>
</g>
<defs>
<clipPath id="clip0_104_1814">
<rect width="512" height="512" fill="white" transform="translate(0.5 0.5)"/>
</clipPath>
</defs>
</svg>
