<svg width="641" height="513" viewBox="0 0 641 513" fill="none" xmlns="http://www.w3.org/2000/svg">
<g clip-path="url(#clip0_104_1820)">
<path d="M344.5 24.5V168.5C344.5 181.8 333.8 192.5 320.5 192.5C307.2 192.5 296.5 181.8 296.5 168.5V24.5C296.5 11.2 307.2 0.5 320.5 0.5C333.8 0.5 344.5 11.2 344.5 24.5ZM192.5 320.5C192.5 302.8 206.8 288.5 224.5 288.5H416.5C434.2 288.5 448.5 302.8 448.5 320.5V352.5H192.5V320.5ZM115.2 411C123.3 394.7 140 384.5 158.1 384.5H482.8C501 384.5 517.6 394.8 525.7 411L553.3 466.2C564 487.5 548.5 512.5 524.7 512.5H116.3C92.5 512.5 77 487.5 87.7 466.2L115.3 411H115.2ZM36.8 138.8C44.3 127.9 59.3 125.2 70.2 132.7L174.2 204.7C185.1 212.2 187.8 227.2 180.3 238.1C172.8 249 157.8 251.7 146.9 244.2L42.9 172.2C32 164.7 29.3 149.7 36.8 138.8ZM570.9 132.7C581.8 125.2 596.7 127.9 604.3 138.8C611.9 149.7 609.1 164.6 598.2 172.2L494.2 244.2C483.3 251.7 468.4 249 460.8 238.1C453.2 227.2 456 212.3 466.9 204.7L570.9 132.7Z" fill="#47535F"/>
</g>
<defs>
<clipPath id="clip0_104_1820">
<rect width="640" height="512" fill="white" transform="translate(0.5 0.5)"/>
</clipPath>
</defs>
</svg>
