<svg width="641" height="513" viewBox="0 0 641 513" fill="none" xmlns="http://www.w3.org/2000/svg">
<g clip-path="url(#clip0_104_1822)">
<path d="M0.5 128.5C0.5 93.2 29.2 64.5 64.5 64.5H256.5H304.5H320.5H576.5C611.8 64.5 640.5 93.2 640.5 128.5V384.5C640.5 419.8 611.8 448.5 576.5 448.5H320.5H304.5H256.5H64.5C29.2 448.5 0.5 419.8 0.5 384.5V128.5ZM320.5 128.5V384.5H576.5V128.5H320.5ZM178.8 176.4C175.6 169.2 168.4 164.5 160.5 164.5C152.6 164.5 145.4 169.2 142.2 176.4L78.2 320.4C73.7 330.5 78.3 342.3 88.4 346.8C98.5 351.3 110.3 346.7 114.8 336.6L123.7 316.5H197.3L206.2 336.6C210.7 346.7 222.5 351.2 232.6 346.8C242.7 342.4 247.2 330.5 242.8 320.4L178.8 176.4ZM160.5 233.7L179.5 276.5H141.5L160.5 233.7ZM448.5 164.5C459.5 164.5 468.5 173.5 468.5 184.5V188.5H512.5H528.5C539.5 188.5 548.5 197.5 548.5 208.5C548.5 219.5 539.5 228.5 528.5 228.5H526.5L524.9 233C516 257.4 502.5 279.6 485.3 298.4C486.2 299 487.1 299.5 488 300L506.9 311.3C516.4 317 519.4 329.3 513.8 338.7C508.2 348.1 495.8 351.2 486.4 345.6L467.5 334.3C463 331.6 458.7 328.8 454.4 325.8C443.8 333.3 432.5 339.8 420.4 345.2L416.8 346.8C406.7 351.3 394.9 346.7 390.4 336.6C385.9 326.5 390.5 314.7 400.6 310.2L404.2 308.6C410.6 305.7 416.8 302.5 422.7 298.8L410.5 286.6C402.7 278.8 402.7 266.1 410.5 258.3C418.3 250.5 431 250.5 438.8 258.3L453.4 272.9L453.9 273.4C466.3 260.3 476.4 245.1 483.7 228.4H448.5H376.5C365.5 228.4 356.5 219.4 356.5 208.4C356.5 197.4 365.5 188.4 376.5 188.4H428.5V184.4C428.5 173.4 437.5 164.4 448.5 164.4V164.5Z" fill="#47535F"/>
</g>
<defs>
<clipPath id="clip0_104_1822">
<rect width="640" height="512" fill="white" transform="translate(0.5 0.5)"/>
</clipPath>
</defs>
</svg>
