<svg width="641" height="513" viewBox="0 0 641 513" fill="none" xmlns="http://www.w3.org/2000/svg">
<g clip-path="url(#clip0_104_1830)">
<path d="M64.5 96.5C64.5 61.2 93.2 32.5 128.5 32.5H512.5C547.8 32.5 576.5 61.2 576.5 96.5V352.5H512.5V96.5H128.5V352.5H64.5V96.5ZM0.5 403.7C0.5 393.1 9.1 384.5 19.7 384.5H621.3C631.9 384.5 640.5 393.1 640.5 403.7C640.5 446.1 606.1 480.5 563.7 480.5H77.3C34.9 480.5 0.5 446.1 0.5 403.7ZM288.5 160.5C288.5 151.7 295.7 144.5 304.5 144.5H336.5C345.3 144.5 352.5 151.7 352.5 160.5V208.5H400.5C409.3 208.5 416.5 215.7 416.5 224.5V256.5C416.5 265.3 409.3 272.5 400.5 272.5H352.5V320.5C352.5 329.3 345.3 336.5 336.5 336.5H304.5C295.7 336.5 288.5 329.3 288.5 320.5V272.5H240.5C231.7 272.5 224.5 265.3 224.5 256.5V224.5C224.5 215.7 231.7 208.5 240.5 208.5H288.5V160.5Z" fill="#47535F"/>
</g>
<defs>
<clipPath id="clip0_104_1830">
<rect width="640" height="512" fill="white" transform="translate(0.5 0.5)"/>
</clipPath>
</defs>
</svg>
