<svg width="641" height="513" viewBox="0 0 641 513" fill="none" xmlns="http://www.w3.org/2000/svg">
<g clip-path="url(#clip0_104_1828)">
<path d="M128.5 0.5C93.2 0.5 64.5 29.2 64.5 64.5V288.5H19.7C9.1 288.5 0.5 297.1 0.5 307.7C0.5 350.1 34.9 384.5 77.3 384.5H320.5V288.5H128.5V64.5H448.5V96.5H512.5V64.5C512.5 29.2 483.8 0.5 448.5 0.5H128.5ZM512.5 128.5H400.5C374 128.5 352.5 150 352.5 176.5V464.5C352.5 491 374 512.5 400.5 512.5H592.5C619 512.5 640.5 491 640.5 464.5V256.5H544.5C526.8 256.5 512.5 242.2 512.5 224.5V128.5ZM544.5 128.5V224.5H640.5L544.5 128.5Z" fill="#47535F"/>
</g>
<defs>
<clipPath id="clip0_104_1828">
<rect width="640" height="512" fill="white" transform="translate(0.5 0.5)"/>
</clipPath>
</defs>
</svg>
