<svg width="641" height="513" viewBox="0 0 641 513" fill="none" xmlns="http://www.w3.org/2000/svg">
<g clip-path="url(#clip0_104_1826)">
<path d="M64.5 96.5C64.5 61.2 93.2 32.5 128.5 32.5H512.5C547.8 32.5 576.5 61.2 576.5 96.5V352.5H512.5V96.5H128.5V352.5H64.5V96.5ZM0.5 403.7C0.5 393.1 9.1 384.5 19.7 384.5H621.3C631.9 384.5 640.5 393.1 640.5 403.7C640.5 446.1 606.1 480.5 563.7 480.5H77.3C34.9 480.5 0.5 446.1 0.5 403.7ZM281.5 209.5L250.5 240.5L281.5 271.5C290.9 280.9 290.9 296.1 281.5 305.4C272.1 314.7 256.9 314.8 247.6 305.4L199.6 257.4C190.2 248 190.2 232.8 199.6 223.5L247.6 175.5C257 166.1 272.2 166.1 281.5 175.5C290.8 184.9 290.9 200.1 281.5 209.4V209.5ZM393.5 175.5L441.5 223.5C450.9 232.9 450.9 248.1 441.5 257.4L393.5 305.4C384.1 314.8 368.9 314.8 359.6 305.4C350.3 296 350.2 280.8 359.6 271.5L390.6 240.5L359.6 209.5C350.2 200.1 350.2 184.9 359.6 175.6C369 166.3 384.2 166.2 393.5 175.6V175.5Z" fill="#47535F"/>
</g>
<defs>
<clipPath id="clip0_104_1826">
<rect width="640" height="512" fill="white" transform="translate(0.5 0.5)"/>
</clipPath>
</defs>
</svg>
