<svg width="385" height="513" viewBox="0 0 385 513" fill="none" xmlns="http://www.w3.org/2000/svg">
<g clip-path="url(#clip0_104_1832)">
<path d="M144.5 32.5C162.2 32.5 176.5 46.8 176.5 64.5V97.2C181.8 96.8 187.1 96.5 192.5 96.5C197.9 96.5 203.2 96.7 208.5 97.2V64.5C208.5 46.8 222.8 32.5 240.5 32.5C258.2 32.5 272.5 46.8 272.5 64.5V113.9C327.4 139.1 368.3 189.4 380.7 250.1C384.2 267.4 373 284.3 355.7 287.8C338.4 291.3 321.5 280.1 318 262.8C311.9 232.9 295.5 206.9 272.6 188.5V256.5C272.6 274.2 258.3 288.5 240.6 288.5C222.9 288.5 208.6 274.2 208.6 256.5V161.5C203.4 160.8 198 160.5 192.6 160.5C187.2 160.5 181.8 160.8 176.6 161.5V256.5C176.6 274.2 162.3 288.5 144.6 288.5C126.9 288.5 112.6 274.2 112.6 256.5V188.6C83.2 212 64.5 248.1 64.5 288.5C64.5 359.2 121.8 416.5 192.5 416.5H352.5C370.2 416.5 384.5 430.8 384.5 448.5C384.5 466.2 370.2 480.5 352.5 480.5H192.5H32.5C14.8 480.5 0.5 466.2 0.5 448.5C0.5 430.8 14.8 416.5 32.5 416.5H49.4C19 382.5 0.5 337.7 0.5 288.5C0.5 211 46.4 144.2 112.5 113.9V64.5C112.5 46.8 126.8 32.5 144.5 32.5Z" fill="#47535F"/>
</g>
<defs>
<clipPath id="clip0_104_1832">
<rect width="384" height="512" fill="white" transform="translate(0.5 0.5)"/>
</clipPath>
</defs>
</svg>
