<svg width="577" height="513" viewBox="0 0 577 513" fill="none" xmlns="http://www.w3.org/2000/svg">
<g clip-path="url(#clip0_104_1834)">
<path d="M265 5.70002C279.9 -1.19998 297.1 -1.19998 312 5.70002L530.6 106.7C539.1 110.6 544.5 119.1 544.5 128.5C544.5 137.9 539.1 146.4 530.6 150.3L312 251.3C297.1 258.2 279.9 258.2 265 251.3L46.4 150.3C37.9 146.3 32.5 137.8 32.5 128.5C32.5 119.2 37.9 110.6 46.4 106.7L265 5.70002ZM477.4 210.1L530.6 234.7C539.1 238.6 544.5 247.1 544.5 256.5C544.5 265.9 539.1 274.4 530.6 278.3L312 379.3C297.1 386.2 279.9 386.2 265 379.3L46.4 278.3C37.9 274.3 32.5 265.8 32.5 256.5C32.5 247.2 37.9 238.6 46.4 234.7L99.6 210.1L251.6 280.3C275 291.1 302 291.1 325.4 280.3L477.4 210.1ZM325.4 408.3L477.4 338.1L530.6 362.7C539.1 366.6 544.5 375.1 544.5 384.5C544.5 393.9 539.1 402.4 530.6 406.3L312 507.3C297.1 514.2 279.9 514.2 265 507.3L46.4 406.3C37.9 402.3 32.5 393.8 32.5 384.5C32.5 375.2 37.9 366.6 46.4 362.7L99.6 338.1L251.6 408.3C275 419.1 302 419.1 325.4 408.3Z" fill="#47535F"/>
</g>
<defs>
<clipPath id="clip0_104_1834">
<rect width="576" height="512" fill="white" transform="translate(0.5 0.5)"/>
</clipPath>
</defs>
</svg>
