<svg width="513" height="513" viewBox="0 0 513 513" fill="none" xmlns="http://www.w3.org/2000/svg">
<g clip-path="url(#clip0_104_1836)">
<path d="M272.5 96.5C193.9 96.5 127.4 148 104.8 219C138.4 202 176.3 192.5 216.5 192.5H304.5C313.3 192.5 320.5 199.7 320.5 208.5C320.5 217.3 313.3 224.5 304.5 224.5H288.5H216.5C199.9 224.5 183.8 226.4 168.3 229.9C142.4 235.8 118.3 246.3 96.9 260.6C38.8 299.3 0.5 365.4 0.5 440.5V456.5C0.5 469.8 11.2 480.5 24.5 480.5C37.8 480.5 48.5 469.8 48.5 456.5V440.5C48.5 391.8 69.2 348 102.3 317.3C122.1 392.8 190.8 448.5 272.5 448.5H273.5C405.6 447.8 512.5 317.6 512.5 157.1C512.5 114.5 505 74 491.4 37.5C488.8 30.6 478.7 30.9 475.2 37.4C456.4 72.6 419.2 96.5 376.5 96.5H272.5Z" fill="#47535F"/>
</g>
<defs>
<clipPath id="clip0_104_1836">
<rect width="512" height="512" fill="white" transform="translate(0.5 0.5)"/>
</clipPath>
</defs>
</svg>
