<svg width="513" height="513" viewBox="0 0 513 513" fill="none" xmlns="http://www.w3.org/2000/svg">
<g clip-path="url(#clip0_104_1838)">
<path d="M178 414.5C169.2 418.3 159 416.5 152 409.9L8 273.9C3.2 269.4 0.5 263.1 0.5 256.5C0.5 249.9 3.2 243.6 8 239.1L152 103.1C159 96.5001 169.2 94.7001 178 98.5001C186.8 102.3 192.5 111 192.5 120.5V192.5H480.5C498.2 192.5 512.5 206.8 512.5 224.5V288.5C512.5 306.2 498.2 320.5 480.5 320.5H192.5V392.5C192.5 402.1 186.8 410.7 178 414.5Z" fill="#47535F"/>
</g>
<defs>
<clipPath id="clip0_104_1838">
<rect width="512" height="512" fill="white" transform="translate(0.5 0.5)"/>
</clipPath>
</defs>
</svg>
