<svg width="449" height="513" viewBox="0 0 449 513" fill="none" xmlns="http://www.w3.org/2000/svg">
<g clip-path="url(#clip0_104_1842)">
<path d="M448.5 96.5C448.5 61.2 419.8 32.5 384.5 32.5C377.9 32.5 371.5 33.5 365.5 35.4C343 42.4 317.4 50.3 294.5 44.4C219.3 25.3 138.1 55.4 80.8 112.7C23.5 170 -6.7 251.3 12.4 326.5C18.2 349.4 10.4 374.9 3.4 397.5C1.5 403.5 0.5 409.9 0.5 416.5C0.5 451.8 29.2 480.5 64.5 480.5C71.1 480.5 77.5 479.5 83.6 477.6C106.1 470.6 131.7 462.7 154.6 468.6C229.8 487.7 311 457.6 368.3 400.3C425.6 343 455.8 261.8 436.6 186.6C430.8 163.7 438.6 138.2 445.6 115.6C447.5 109.6 448.5 103.2 448.5 96.5ZM213 127.9C158.4 143.9 111.9 190.4 95.9 245C93.4 253.5 84.5 258.3 76 255.9C67.5 253.5 62.7 244.5 65.1 236C84.2 170.9 138.8 116.2 204 97.1C212.5 94.6 221.4 99.5 223.9 108C226.4 116.5 221.5 125.4 213 127.9Z" fill="#47535F"/>
</g>
<defs>
<clipPath id="clip0_104_1842">
<rect width="448" height="512" fill="white" transform="translate(0.5 0.5)"/>
</clipPath>
</defs>
</svg>
