<svg width="449" height="513" viewBox="0 0 449 513" fill="none" xmlns="http://www.w3.org/2000/svg">
<g clip-path="url(#clip0_104_1846)">
<path d="M396.4 94.2C412.8 87.6 420.8 69 414.2 52.6C407.6 36.2 389 28.2 372.6 34.8L52.6 162.8C40.5 167.6 32.5 179.4 32.5 192.5C32.5 205.6 40.5 217.4 52.6 222.2L372.6 350.2C389 356.8 407.6 348.8 414.2 332.4C420.8 316 412.8 297.4 396.4 290.8L150.7 192.5L396.4 94.2ZM32.5 416.5C14.8 416.5 0.5 430.8 0.5 448.5C0.5 466.2 14.8 480.5 32.5 480.5H416.5C434.2 480.5 448.5 466.2 448.5 448.5C448.5 430.8 434.2 416.5 416.5 416.5H32.5Z" fill="#47535F"/>
</g>
<defs>
<clipPath id="clip0_104_1846">
<rect width="448" height="512" fill="white" transform="translate(0.5 0.5)"/>
</clipPath>
</defs>
</svg>
