<svg width="513" height="513" viewBox="0 0 513 513" fill="none" xmlns="http://www.w3.org/2000/svg">
<g clip-path="url(#clip0_104_1848)">
<path d="M367.7 413C336.4 435.4 298 448.5 256.5 448.5C215 448.5 176.6 435.4 145.3 413L203.3 355C219.1 363.6 237.3 368.5 256.6 368.5C275.9 368.5 294 363.6 309.9 355L367.9 413H367.7ZM458.4 413.8C492.2 370.4 512.4 315.8 512.4 256.5C512.4 197.2 492.2 142.6 458.4 99.2C467.4 86.7 466.3 69.1 455 57.9C443.7 46.7 426.3 45.5 413.8 54.5C370.4 20.7 315.8 0.5 256.5 0.5C197.2 0.5 142.6 20.7 99.2 54.5C86.7 45.5 69.1 46.6 57.9 57.9C46.7 69.2 45.5 86.7 54.5 99.2C20.7 142.6 0.5 197.2 0.5 256.5C0.5 315.8 20.7 370.4 54.5 413.8C45.5 426.3 46.6 443.9 57.9 455.1C69.2 466.3 86.7 467.5 99.2 458.5C142.6 492.3 197.2 512.5 256.5 512.5C315.8 512.5 370.4 492.3 413.8 458.5C426.3 467.5 443.9 466.4 455.1 455.1C466.3 443.8 467.5 426.3 458.5 413.8H458.4ZM412.9 367.7L354.9 309.7C363.5 293.9 368.4 275.7 368.4 256.4C368.4 237.1 363.5 219 354.9 203.1L412.9 145.1C435.4 176.6 448.5 215 448.5 256.5C448.5 298 435.4 336.4 413 367.7H412.9ZM367.7 100L309.7 158C293.9 149.4 275.7 144.5 256.4 144.5C237.1 144.5 219 149.4 203.1 158L145.1 100C176.6 77.6 215 64.5 256.5 64.5C298 64.5 336.4 77.6 367.7 100ZM158 309.8L100 367.8C77.6 336.4 64.5 298 64.5 256.5C64.5 215 77.6 176.6 100 145.3L158 203.3C149.4 219.1 144.5 237.3 144.5 256.6C144.5 275.9 149.4 294 158 309.9V309.8ZM208.5 256.5C208.5 243.77 213.557 231.561 222.559 222.559C231.561 213.557 243.77 208.5 256.5 208.5C269.23 208.5 281.439 213.557 290.441 222.559C299.443 231.561 304.5 243.77 304.5 256.5C304.5 269.23 299.443 281.439 290.441 290.441C281.439 299.443 269.23 304.5 256.5 304.5C243.77 304.5 231.561 299.443 222.559 290.441C213.557 281.439 208.5 269.23 208.5 256.5Z" fill="#47535F"/>
</g>
<defs>
<clipPath id="clip0_104_1848">
<rect width="512" height="512" fill="white" transform="translate(0.5 0.5)"/>
</clipPath>
</defs>
</svg>
