<svg width="385" height="513" viewBox="0 0 385 513" fill="none" xmlns="http://www.w3.org/2000/svg">
<g clip-path="url(#clip0_104_1850)">
<path d="M272.5 384.5C282.1 352.6 302 325.4 321.7 298.3C326.9 291.2 332.1 284.1 337.1 276.9C356.9 248.4 368.5 213.9 368.5 176.6C368.5 79.3 289.7 0.5 192.5 0.5C95.3 0.5 16.5 79.3 16.5 176.5C16.5 213.8 28.1 248.4 47.9 276.8C52.9 284 58.1 291.1 63.3 298.2C83.1 325.3 103 352.6 112.5 384.4H272.5V384.5ZM192.5 512.5C236.7 512.5 272.5 476.7 272.5 432.5V416.5H112.5V432.5C112.5 476.7 148.3 512.5 192.5 512.5ZM112.5 176.5C112.5 185.3 105.3 192.5 96.5 192.5C87.7 192.5 80.5 185.3 80.5 176.5C80.5 114.6 130.6 64.5 192.5 64.5C201.3 64.5 208.5 71.7 208.5 80.5C208.5 89.3 201.3 96.5 192.5 96.5C148.3 96.5 112.5 132.3 112.5 176.5Z" fill="#47535F"/>
</g>
<defs>
<clipPath id="clip0_104_1850">
<rect width="384" height="512" fill="white" transform="translate(0.5 0.5)"/>
</clipPath>
</defs>
</svg>
