<svg width="385" height="513" viewBox="0 0 385 513" fill="none" xmlns="http://www.w3.org/2000/svg">
<g clip-path="url(#clip0_104_1852)">
<path d="M190.9 74.5999C196.5 57.7999 187.4 39.6999 170.7 34.0999C154 28.4999 135.8 37.5999 130.2 54.2999L2.19968 438.3C-3.40032 455.1 5.69967 473.2 22.3997 478.8C39.0997 484.4 57.2997 475.3 62.8997 458.6L190.9 74.5999ZM261.8 32.8999C244.4 29.9999 227.9 41.7999 225 59.1999L161 443.2C158.1 460.6 169.9 477.1 187.3 480C204.7 482.9 221.2 471.1 224.1 453.7L288.1 69.6999C291 52.2999 279.2 35.7999 261.8 32.8999ZM352.5 32.4999C334.8 32.4999 320.5 46.7999 320.5 64.4999V448.5C320.5 466.2 334.8 480.5 352.5 480.5C370.2 480.5 384.5 466.2 384.5 448.5V64.4999C384.5 46.7999 370.2 32.4999 352.5 32.4999Z" fill="#47535F"/>
</g>
<defs>
<clipPath id="clip0_104_1852">
<rect width="384" height="512" fill="white" transform="translate(0.5 0.5)"/>
</clipPath>
</defs>
</svg>
