<svg width="641" height="513" viewBox="0 0 641 513" fill="none" xmlns="http://www.w3.org/2000/svg">
<path d="M580.3 268.2C636.8 211.7 636.8 120.2 580.3 63.7C530.3 13.7 451.5 7.20002 394 48.3L392.4 49.4C378 59.7 374.7 79.7 385 94C395.3 108.3 415.3 111.7 429.6 101.4L431.2 100.3C463.3 77.4 507.2 81 535 108.9C566.5 140.4 566.5 191.4 535 222.9L422.8 335.3C391.3 366.8 340.3 366.8 308.8 335.3C280.9 307.4 277.3 263.5 300.2 231.5L301.3 229.9C311.6 215.5 308.2 195.5 293.9 185.3C279.6 175.1 259.5 178.4 249.3 192.7L248.2 194.3C207 251.7 213.5 330.5 263.5 380.5C320 437 411.5 437 468 380.5L580.3 268.2ZM60.7002 244.8C4.2002 301.3 4.2002 392.8 60.7002 449.3C110.7 499.3 189.5 505.8 247 464.7L248.6 463.6C263 453.3 266.3 433.3 256 419C245.7 404.7 225.7 401.3 211.4 411.6L209.8 412.7C177.7 435.6 133.8 432 106 404.1C74.5002 372.5 74.5002 321.5 106 290L218.2 177.7C249.7 146.2 300.7 146.2 332.2 177.7C360.1 205.6 363.7 249.5 340.8 281.6L339.7 283.2C329.4 297.6 332.8 317.6 347.1 327.8C361.4 338 381.5 334.7 391.7 320.4L392.8 318.8C434 261.3 427.5 182.5 377.5 132.5C321 76 229.5 76 173 132.5L60.7002 244.8Z" fill="#47535F"/>
</svg>
