<svg width="641" height="513" viewBox="0 0 641 513" fill="none" xmlns="http://www.w3.org/2000/svg">
<g clip-path="url(#clip0_104_1856)">
<path d="M39.2998 5.60001C28.8998 -2.59999 13.7998 -0.699994 5.59976 9.70001C-2.60024 20.1 -0.700238 35.2 9.69976 43.4L601.7 507.4C612.1 515.6 627.2 513.7 635.4 503.3C643.6 492.9 641.7 477.8 631.3 469.6L489.8 358.7L580.3 268.2C636.8 211.7 636.8 120.2 580.3 63.7C530.3 13.7 451.5 7.20001 394 48.3L392.4 49.4C378 59.7 374.7 79.7 385 94C395.3 108.3 415.3 111.7 429.6 101.4L431.2 100.3C463.3 77.4 507.2 81 535 108.9C566.5 140.4 566.5 191.4 535 222.9L439 318.9L407.1 293.9C431.4 240.1 420.6 175.6 377.5 132.5C325.3 80.2 243 76.3 186.2 120.8L39.2998 5.60001ZM239.5 162.5C269.6 147.6 307.2 152.6 332.3 177.8C352.3 197.8 359.8 226.1 354 252.3L239.5 162.5ZM407.1 416.9L221.4 270.5C219.3 310.3 233.6 350.6 263.6 380.5C302.5 419.4 358 431.5 407.2 416.8L407.1 416.9ZM117.1 188.4L60.6998 244.8C4.19976 301.3 4.19976 392.8 60.6998 449.3C110.7 499.3 189.5 505.8 247 464.7L248.6 463.6C263 453.3 266.3 433.3 256 419C245.7 404.7 225.7 401.3 211.4 411.6L209.8 412.7C177.7 435.6 133.8 432 106 404.1C74.4998 372.5 74.4998 321.5 106 290L167.8 228.2L117.2 188.3L117.1 188.4Z" fill="#47535F"/>
</g>
<defs>
<clipPath id="clip0_104_1856">
<rect width="640" height="512" fill="white" transform="translate(0.5 0.5)"/>
</clipPath>
</defs>
</svg>
