<svg width="513" height="513" viewBox="0 0 513 513" fill="none" xmlns="http://www.w3.org/2000/svg">
<g clip-path="url(#clip0_104_1866)">
<path d="M64.5 144.5C77.2304 144.5 89.4394 139.443 98.4411 130.441C107.443 121.439 112.5 109.23 112.5 96.5C112.5 83.7696 107.443 71.5606 98.4411 62.5589C89.4394 53.5571 77.2304 48.5 64.5 48.5C51.7696 48.5 39.5606 53.5571 30.5589 62.5589C21.5571 71.5606 16.5 83.7696 16.5 96.5C16.5 109.23 21.5571 121.439 30.5589 130.441C39.5606 139.443 51.7696 144.5 64.5 144.5ZM192.5 64.5C174.8 64.5 160.5 78.8 160.5 96.5C160.5 114.2 174.8 128.5 192.5 128.5H480.5C498.2 128.5 512.5 114.2 512.5 96.5C512.5 78.8 498.2 64.5 480.5 64.5H192.5ZM192.5 224.5C174.8 224.5 160.5 238.8 160.5 256.5C160.5 274.2 174.8 288.5 192.5 288.5H480.5C498.2 288.5 512.5 274.2 512.5 256.5C512.5 238.8 498.2 224.5 480.5 224.5H192.5ZM192.5 384.5C174.8 384.5 160.5 398.8 160.5 416.5C160.5 434.2 174.8 448.5 192.5 448.5H480.5C498.2 448.5 512.5 434.2 512.5 416.5C512.5 398.8 498.2 384.5 480.5 384.5H192.5ZM64.5 464.5C77.2304 464.5 89.4394 459.443 98.4411 450.441C107.443 441.439 112.5 429.23 112.5 416.5C112.5 403.77 107.443 391.561 98.4411 382.559C89.4394 373.557 77.2304 368.5 64.5 368.5C51.7696 368.5 39.5606 373.557 30.5589 382.559C21.5571 391.561 16.5 403.77 16.5 416.5C16.5 429.23 21.5571 441.439 30.5589 450.441C39.5606 459.443 51.7696 464.5 64.5 464.5ZM112.5 256.5C112.5 250.197 111.258 243.955 108.846 238.131C106.434 232.308 102.898 227.016 98.4411 222.559C93.9839 218.102 88.6924 214.566 82.8688 212.154C77.0452 209.742 70.8035 208.5 64.5 208.5C58.1965 208.5 51.9548 209.742 46.1312 212.154C40.3076 214.566 35.0161 218.102 30.5589 222.559C26.1017 227.016 22.566 232.308 20.1538 238.131C17.7416 243.955 16.5 250.197 16.5 256.5C16.5 262.803 17.7416 269.045 20.1538 274.869C22.566 280.692 26.1017 285.984 30.5589 290.441C35.0161 294.898 40.3076 298.434 46.1312 300.846C51.9548 303.258 58.1965 304.5 64.5 304.5C70.8035 304.5 77.0452 303.258 82.8688 300.846C88.6924 298.434 93.9839 294.898 98.4411 290.441C102.898 285.984 106.434 280.692 108.846 274.869C111.258 269.045 112.5 262.803 112.5 256.5Z" fill="#47535F"/>
</g>
<defs>
<clipPath id="clip0_104_1866">
<rect width="512" height="512" fill="white" transform="translate(0.5 0.5)"/>
</clipPath>
</defs>
</svg>
