<svg width="513" height="513" viewBox="0 0 513 513" fill="none" xmlns="http://www.w3.org/2000/svg">
<g clip-path="url(#clip0_104_1864)">
<path d="M24.5002 56.5C24.5002 43.2 35.2001 32.5 48.5001 32.5H80.5002C93.8002 32.5 104.5 43.2 104.5 56.5V176.5H120.5C133.8 176.5 144.5 187.2 144.5 200.5C144.5 213.8 133.8 224.5 120.5 224.5H40.5001C27.2001 224.5 16.5001 213.8 16.5001 200.5C16.5001 187.2 27.2001 176.5 40.5001 176.5H56.5001V80.5H48.5001C35.2001 80.5 24.5002 69.8 24.5002 56.5ZM87.2001 341.7C80.7001 334.3 68.9001 334.8 63.2001 342.9L52.0001 358.4C44.3001 369.2 29.3001 371.7 18.5001 364C7.70015 356.3 5.20015 341.3 12.9001 330.5L24.0001 314.9C47.7002 281.7 96.3001 279.3 123.2 310C144.5 334.4 144 370.9 122.1 394.7L87.3002 432.5H120.5C133.8 432.5 144.5 443.2 144.5 456.5C144.5 469.8 133.8 480.5 120.5 480.5H32.5002C23.0002 480.5 14.3001 474.9 10.5001 466.1C6.70015 457.3 8.40015 447.2 14.8001 440.2L86.8002 362.2C92.1002 356.4 92.2002 347.6 87.1002 341.7H87.2001ZM224.5 64.5H480.5C498.2 64.5 512.5 78.8 512.5 96.5C512.5 114.2 498.2 128.5 480.5 128.5H224.5C206.8 128.5 192.5 114.2 192.5 96.5C192.5 78.8 206.8 64.5 224.5 64.5ZM224.5 224.5H480.5C498.2 224.5 512.5 238.8 512.5 256.5C512.5 274.2 498.2 288.5 480.5 288.5H224.5C206.8 288.5 192.5 274.2 192.5 256.5C192.5 238.8 206.8 224.5 224.5 224.5ZM224.5 384.5H480.5C498.2 384.5 512.5 398.8 512.5 416.5C512.5 434.2 498.2 448.5 480.5 448.5H224.5C206.8 448.5 192.5 434.2 192.5 416.5C192.5 398.8 206.8 384.5 224.5 384.5Z" fill="#47535F"/>
</g>
<defs>
<clipPath id="clip0_104_1864">
<rect width="512" height="512" fill="white" transform="translate(0.5 0.5)"/>
</clipPath>
</defs>
</svg>
