<svg width="513" height="513" viewBox="0 0 513 513" fill="none" xmlns="http://www.w3.org/2000/svg">
<g clip-path="url(#clip0_104_1862)">
<path d="M152.6 38.6999C162.5 47.5999 163.3 62.6999 154.4 72.5999L82.4002 152.6C78.0002 157.5 71.8002 160.4 65.2002 160.5C58.6002 160.6 52.3002 158.1 47.6002 153.5L7.5002 113.5C-1.79981 104.1 -1.79981 88.8999 7.5002 79.4999C16.8002 70.0999 32.1002 70.0999 41.4002 79.4999L63.5002 101.6L118.6 40.3999C127.5 30.4999 142.6 29.6999 152.5 38.5999L152.6 38.6999ZM152.6 198.7C162.5 207.6 163.3 222.7 154.4 232.6L82.4002 312.6C78.0002 317.5 71.8002 320.4 65.2002 320.5C58.6002 320.6 52.3002 318.1 47.6002 313.5L7.5002 273.5C-1.8998 264.1 -1.8998 248.9 7.5002 239.6C16.9002 230.3 32.1002 230.2 41.4002 239.6L63.5002 261.7L118.6 200.5C127.5 190.6 142.6 189.8 152.5 198.7H152.6ZM224.5 96.4999C224.5 78.7999 238.8 64.4999 256.5 64.4999H480.5C498.2 64.4999 512.5 78.7999 512.5 96.4999C512.5 114.2 498.2 128.5 480.5 128.5H256.5C238.8 128.5 224.5 114.2 224.5 96.4999ZM224.5 256.5C224.5 238.8 238.8 224.5 256.5 224.5H480.5C498.2 224.5 512.5 238.8 512.5 256.5C512.5 274.2 498.2 288.5 480.5 288.5H256.5C238.8 288.5 224.5 274.2 224.5 256.5ZM160.5 416.5C160.5 398.8 174.8 384.5 192.5 384.5H480.5C498.2 384.5 512.5 398.8 512.5 416.5C512.5 434.2 498.2 448.5 480.5 448.5H192.5C174.8 448.5 160.5 434.2 160.5 416.5ZM48.5002 368.5C61.2306 368.5 73.4396 373.557 82.4413 382.559C91.4431 391.561 96.5002 403.77 96.5002 416.5C96.5002 429.23 91.4431 441.439 82.4413 450.441C73.4396 459.443 61.2306 464.5 48.5002 464.5C35.7698 464.5 23.5608 459.443 14.5591 450.441C5.55732 441.439 0.500195 429.23 0.500195 416.5C0.500195 403.77 5.55732 391.561 14.5591 382.559C23.5608 373.557 35.7698 368.5 48.5002 368.5Z" fill="#47535F"/>
</g>
<defs>
<clipPath id="clip0_104_1862">
<rect width="512" height="512" fill="white" transform="translate(0.5 0.5)"/>
</clipPath>
</defs>
</svg>
