<svg width="385" height="513" viewBox="0 0 385 513" fill="none" xmlns="http://www.w3.org/2000/svg">
<g clip-path="url(#clip0_104_1868)">
<path d="M128.499 64.5C128.499 46.8 114.199 32.5 96.4991 32.5C78.7991 32.5 64.4991 46.8 64.4991 64.5V214.1L23.6991 225.7C6.69915 230.6 -3.10086 248.3 1.69914 265.3C6.49914 282.3 24.2991 292.1 41.2991 287.3L64.4991 280.6V448.5C64.4991 466.2 78.7991 480.5 96.4991 480.5H352.499C370.199 480.5 384.499 466.2 384.499 448.5C384.499 430.8 370.199 416.5 352.499 416.5H128.499V262.4L265.299 223.3C282.299 218.4 292.099 200.7 287.299 183.7C282.499 166.7 264.699 156.9 247.699 161.7L128.499 195.8V64.5Z" fill="#47535F"/>
</g>
<defs>
<clipPath id="clip0_104_1868">
<rect width="384" height="512" fill="white" transform="translate(0.5 0.5)"/>
</clipPath>
</defs>
</svg>
