<svg width="513" height="513" viewBox="0 0 513 513" fill="none" xmlns="http://www.w3.org/2000/svg">
<g clip-path="url(#clip0_104_1872)">
<path d="M256.5 0.5C274.2 0.5 288.5 14.8 288.5 32.5V67.2C368.9 80.6 432.4 144.1 445.8 224.5H480.5C498.2 224.5 512.5 238.8 512.5 256.5C512.5 274.2 498.2 288.5 480.5 288.5H445.8C432.4 368.9 368.9 432.4 288.5 445.8V480.5C288.5 498.2 274.2 512.5 256.5 512.5C238.8 512.5 224.5 498.2 224.5 480.5V445.8C144.1 432.4 80.6 368.9 67.2 288.5H32.5C14.8 288.5 0.5 274.2 0.5 256.5C0.5 238.8 14.8 224.5 32.5 224.5H67.2C80.6 144.1 144.1 80.6 224.5 67.2V32.5C224.5 14.8 238.8 0.5 256.5 0.5ZM128.5 256.5C128.5 290.448 141.986 323.005 165.99 347.01C189.995 371.014 222.552 384.5 256.5 384.5C290.448 384.5 323.005 371.014 347.01 347.01C371.014 323.005 384.5 290.448 384.5 256.5C384.5 222.552 371.014 189.995 347.01 165.99C323.005 141.986 290.448 128.5 256.5 128.5C222.552 128.5 189.995 141.986 165.99 165.99C141.986 189.995 128.5 222.552 128.5 256.5ZM256.5 176.5C277.717 176.5 298.066 184.929 313.069 199.931C328.071 214.934 336.5 235.283 336.5 256.5C336.5 277.717 328.071 298.066 313.069 313.069C298.066 328.071 277.717 336.5 256.5 336.5C235.283 336.5 214.934 328.071 199.931 313.069C184.929 298.066 176.5 277.717 176.5 256.5C176.5 235.283 184.929 214.934 199.931 199.931C214.934 184.929 235.283 176.5 256.5 176.5Z" fill="#47535F"/>
</g>
<defs>
<clipPath id="clip0_104_1872">
<rect width="512" height="512" fill="white" transform="translate(0.5 0.5)"/>
</clipPath>
</defs>
</svg>
