<svg width="513" height="513" viewBox="0 0 513 513" fill="none" xmlns="http://www.w3.org/2000/svg">
<g clip-path="url(#clip0_104_1878)">
<path d="M216.2 499.7C227.2 485.9 241.3 468 256.5 447.4V352.5C256.5 328.8 269.4 308.1 288.5 297.1V272.5C288.5 216.9 329 170.8 382.1 162C367.5 70.5 288.2 0.5 192.5 0.5C86.5 0.5 0.5 86.5 0.5 192.5C0.5 279.9 117.5 435.5 168.8 499.7C181.1 515 203.9 515 216.2 499.7ZM192.5 128.5C209.474 128.5 225.753 135.243 237.755 147.245C249.757 159.247 256.5 175.526 256.5 192.5C256.5 209.474 249.757 225.753 237.755 237.755C225.753 249.757 209.474 256.5 192.5 256.5C175.526 256.5 159.247 249.757 147.245 237.755C135.243 225.753 128.5 209.474 128.5 192.5C128.5 175.526 135.243 159.247 147.245 147.245C159.247 135.243 175.526 128.5 192.5 128.5ZM400.5 240.5C418.2 240.5 432.5 254.8 432.5 272.5V320.5H368.5V272.5C368.5 254.8 382.8 240.5 400.5 240.5ZM320.5 272.5V320.5C302.8 320.5 288.5 334.8 288.5 352.5V480.5C288.5 498.2 302.8 512.5 320.5 512.5H480.5C498.2 512.5 512.5 498.2 512.5 480.5V352.5C512.5 334.8 498.2 320.5 480.5 320.5V272.5C480.5 228.3 444.7 192.5 400.5 192.5C356.3 192.5 320.5 228.3 320.5 272.5Z" fill="#47535F"/>
</g>
<defs>
<clipPath id="clip0_104_1878">
<rect width="512" height="512" fill="white" transform="translate(0.5 0.5)"/>
</clipPath>
</defs>
</svg>
