<svg width="449" height="513" viewBox="0 0 449 513" fill="none" xmlns="http://www.w3.org/2000/svg">
<g clip-path="url(#clip0_104_1880)">
<path d="M144.5 144.5V192.5H304.5V144.5C304.5 100.3 268.7 64.5 224.5 64.5C180.3 64.5 144.5 100.3 144.5 144.5ZM80.5 192.5V144.5C80.5 65 145 0.5 224.5 0.5C304 0.5 368.5 65 368.5 144.5V192.5H384.5C419.8 192.5 448.5 221.2 448.5 256.5V448.5C448.5 483.8 419.8 512.5 384.5 512.5H64.5C29.2 512.5 0.5 483.8 0.5 448.5V256.5C0.5 221.2 29.2 192.5 64.5 192.5H80.5Z" fill="#47535F"/>
</g>
<defs>
<clipPath id="clip0_104_1880">
<rect width="448" height="512" fill="white" transform="translate(0.5 0.5)"/>
</clipPath>
</defs>
</svg>
