<svg width="577" height="513" viewBox="0 0 577 513" fill="none" xmlns="http://www.w3.org/2000/svg">
<g clip-path="url(#clip0_104_1882)">
<path d="M352.5 144.5C352.5 100.3 388.3 64.5 432.5 64.5C476.7 64.5 512.5 100.3 512.5 144.5V192.5C512.5 210.2 526.8 224.5 544.5 224.5C562.2 224.5 576.5 210.2 576.5 192.5V144.5C576.5 65 512 0.5 432.5 0.5C353 0.5 288.5 65 288.5 144.5V192.5H64.5C29.2 192.5 0.5 221.2 0.5 256.5V448.5C0.5 483.8 29.2 512.5 64.5 512.5H384.5C419.8 512.5 448.5 483.8 448.5 448.5V256.5C448.5 221.2 419.8 192.5 384.5 192.5H352.5V144.5Z" fill="#47535F"/>
</g>
<defs>
<clipPath id="clip0_104_1882">
<rect width="576" height="512" fill="white" transform="translate(0.5 0.5)"/>
</clipPath>
</defs>
</svg>
