<svg width="577" height="513" viewBox="0 0 577 513" fill="none" xmlns="http://www.w3.org/2000/svg">
<g clip-path="url(#clip0_104_1884)">
<path d="M312.501 32.5C299.201 32.5 288.501 43.2 288.501 56.5C288.501 69.8 299.201 80.5 312.501 80.5H328.501C427.201 80.5 509.101 151.9 525.501 245.9C516.501 242.4 506.701 240.5 496.501 240.5H432.301L390.501 143C387.101 135.1 379.701 129.6 371.201 128.6C362.701 127.6 354.201 131.3 349.101 138.2L308.201 193.7L286.501 143C283.201 135.2 276.001 129.8 267.601 128.7C259.201 127.6 250.901 131 245.601 137.6L5.60093 441.6C-2.59907 452 -0.799069 467.1 9.60093 475.3C20.0009 483.5 35.1009 481.7 43.3009 471.3L122.701 370.8L165.701 387.2L125.201 442.2C117.301 452.9 119.601 467.9 130.301 475.8C141.001 483.7 156.001 481.4 163.901 470.7L215.601 400.5H290.101L260.801 442.8C253.301 453.7 256.001 468.6 266.901 476.2C277.801 483.8 292.701 481 300.301 470.1L348.501 400.5H428.901L467.701 468.4C474.301 479.9 488.901 483.9 500.401 477.3C511.901 470.7 515.901 456.1 509.301 444.6L484.101 400.5H496.501C540.601 400.5 576.301 364.8 576.501 320.8C576.501 320.7 576.501 320.6 576.501 320.5V280.5C576.501 143.5 465.501 32.5 328.501 32.5H312.501ZM363.001 200.5L380.101 240.5H333.501L363.001 200.5ZM275.301 238.6L273.901 240.5H225.601L258.301 199L275.201 238.5L275.301 238.6ZM89.3009 240.5C57.9009 240.5 32.5009 265.9 32.5009 297.3C32.5009 312.8 38.8009 327.3 49.4009 337.7L127.201 240.5H89.3009ZM496.501 288.5C500.744 288.5 504.814 290.186 507.815 293.186C510.815 296.187 512.501 300.257 512.501 304.5C512.501 308.743 510.815 312.813 507.815 315.814C504.814 318.814 500.744 320.5 496.501 320.5C492.257 320.5 488.188 318.814 485.187 315.814C482.187 312.813 480.501 308.743 480.501 304.5C480.501 300.257 482.187 296.187 485.187 293.186C488.188 290.186 492.257 288.5 496.501 288.5Z" fill="#47535F"/>
</g>
<defs>
<clipPath id="clip0_104_1884">
<rect width="576" height="512" fill="white" transform="translate(0.5 0.5)"/>
</clipPath>
</defs>
</svg>
