<svg width="641" height="513" viewBox="0 0 641 513" fill="none" xmlns="http://www.w3.org/2000/svg">
<g clip-path="url(#clip0_104_1888)">
<path d="M320.5 0.5C338.2 0.5 352.5 14.8 352.5 32.5V156.7C344 149.1 332.8 144.5 320.5 144.5C308.2 144.5 297 149.1 288.5 156.7V32.5C288.5 14.8 302.8 0.5 320.5 0.5ZM445 196C428.6 179.6 403.2 177.5 384.5 189.9V165.8C384.5 127.5 415.5 96.5 453.8 96.5C475.5 96.5 496.6 106.7 509.6 125.3C525 147.4 553.9 190.7 580.6 242.2C607.1 293.1 633 354.7 640.2 412.5C640.4 413.8 640.4 415.1 640.4 416.5V423.5C640.4 472.6 600.6 512.5 551.4 512.5C544.1 512.5 536.9 511.6 529.8 509.8L457.1 491.6C436.2 486.4 418.4 474.5 405.6 458.7C419.6 460.2 434.1 455.7 444.8 444.9C463.5 426.2 463.5 395.8 444.8 377C443.7 375.9 443.4 375 443.3 374.5C443.2 373.7 443.2 372.7 443.7 371.6C444.2 370.5 444.9 369.7 445.5 369.3C446 369 446.8 368.5 448.4 368.5C474.9 368.5 496.4 347 496.4 320.5C496.4 294 474.9 272.5 448.4 272.5C446.8 272.5 446 272.1 445.5 271.7C444.9 271.3 444.2 270.5 443.7 269.4C443.2 268.3 443.2 267.2 443.3 266.5C443.4 265.9 443.7 265.1 444.8 264C463.5 245.3 463.5 214.9 444.8 196.1L445 196ZM422.3 422.3C416.1 428.5 405.9 428.5 399.7 422.3C376.4 399 336.5 415.5 336.5 448.5C336.5 457.3 329.3 464.5 320.5 464.5C311.7 464.5 304.5 457.3 304.5 448.5C304.5 415.5 264.6 399 241.3 422.3C235.1 428.5 224.9 428.5 218.7 422.3C212.5 416.1 212.5 405.9 218.7 399.7C242 376.4 225.5 336.5 192.5 336.5C183.7 336.5 176.5 329.3 176.5 320.5C176.5 311.7 183.7 304.5 192.5 304.5C225.5 304.5 242 264.6 218.7 241.3C212.5 235.1 212.5 224.9 218.7 218.7C224.9 212.5 235.1 212.5 241.3 218.7C264.6 242 304.5 225.5 304.5 192.5C304.5 183.7 311.7 176.5 320.5 176.5C329.3 176.5 336.5 183.7 336.5 192.5C336.5 225.5 376.4 242 399.7 218.7C405.9 212.5 416.1 212.5 422.3 218.7C428.5 224.9 428.5 235.1 422.3 241.3C399 264.6 415.5 304.5 448.5 304.5C457.3 304.5 464.5 311.7 464.5 320.5C464.5 329.3 457.3 336.5 448.5 336.5C415.5 336.5 399 376.4 422.3 399.7C428.5 405.9 428.5 416.1 422.3 422.3ZM183.8 491.7L111.1 509.9C104 511.7 96.8 512.6 89.5 512.6C40.4 512.6 0.5 472.8 0.5 423.6V416.6C0.5 415.3 0.6 413.9 0.7 412.6C7.9 354.7 33.8 293.2 60.3 242.3C87.1 190.8 115.9 147.5 131.3 125.4C144.3 106.8 165.3 96.6 187.1 96.6C225.5 96.5 256.5 127.5 256.5 165.8V189.9C237.9 177.5 212.5 179.6 196 196C177.3 214.7 177.3 245.1 196 263.9C197.1 265 197.4 265.9 197.5 266.4C197.6 267.2 197.6 268.2 197.1 269.3C196.6 270.4 195.9 271.2 195.3 271.6C194.8 271.9 194 272.4 192.4 272.4C165.9 272.4 144.4 293.9 144.4 320.4C144.4 346.9 165.9 368.4 192.4 368.4C194 368.4 194.8 368.8 195.3 369.2C195.9 369.6 196.6 370.4 197.1 371.5C197.6 372.6 197.6 373.7 197.5 374.4C197.4 375 197.1 375.8 196 376.9C177.3 395.6 177.3 426 196 444.8C206.7 455.5 221.3 460.1 235.2 458.6C222.4 474.5 204.6 486.3 183.7 491.5L183.8 491.7ZM296.5 320.5C302.865 320.5 308.97 317.971 313.471 313.471C317.971 308.97 320.5 302.865 320.5 296.5C320.5 290.135 317.971 284.03 313.471 279.529C308.97 275.029 302.865 272.5 296.5 272.5C290.135 272.5 284.03 275.029 279.529 279.529C275.029 284.03 272.5 290.135 272.5 296.5C272.5 302.865 275.029 308.97 279.529 313.471C284.03 317.971 290.135 320.5 296.5 320.5ZM368.5 352.5C368.5 348.257 366.814 344.187 363.814 341.186C360.813 338.186 356.743 336.5 352.5 336.5C348.257 336.5 344.187 338.186 341.186 341.186C338.186 344.187 336.5 348.257 336.5 352.5C336.5 356.743 338.186 360.813 341.186 363.814C344.187 366.814 348.257 368.5 352.5 368.5C356.743 368.5 360.813 366.814 363.814 363.814C366.814 360.813 368.5 356.743 368.5 352.5Z" fill="#47535F"/>
</g>
<defs>
<clipPath id="clip0_104_1888">
<rect width="640" height="512" fill="white" transform="translate(0.5 0.5)"/>
</clipPath>
</defs>
</svg>
