<svg width="641" height="513" viewBox="0 0 641 513" fill="none" xmlns="http://www.w3.org/2000/svg">
<g clip-path="url(#clip0_104_1886)">
<path d="M320.5 0.5C338.2 0.5 352.5 14.8 352.5 32.5V164.6C352.5 181 360.9 196.3 374.7 205.1L384.5 211.3V165.8C384.5 127.5 415.5 96.5 453.8 96.5C475.5 96.5 496.6 106.7 509.6 125.3C525 147.4 553.9 190.7 580.6 242.2C607.1 293.1 633 354.7 640.2 412.5C640.4 413.8 640.4 415.1 640.4 416.5V423.5C640.4 472.6 600.6 512.5 551.4 512.5C544.1 512.5 536.9 511.6 529.8 509.8L457.1 491.6C414.5 481 384.5 442.6 384.5 398.5V325.5L475 383.1C482.5 387.8 492.3 385.6 497.1 378.2C501.9 370.8 499.6 360.9 492.2 356.1L384.5 287.6V287.2L340.4 259.1C333.1 254.5 326.5 249 320.5 243C314.6 249 307.9 254.5 300.6 259.1L256.5 287.2L161.7 347.5L148.2 356.1C148.2 356.1 148.2 356.1 148.1 356.1C140.7 360.9 138.5 370.7 143.3 378.2C148 385.7 157.9 387.9 165.4 383.1L256.5 325.1V398.5C256.5 442.6 226.5 481 183.8 491.6L111.1 509.8C104 511.6 96.8 512.5 89.5 512.5C40.4 512.5 0.5 472.7 0.5 423.5V416.5C0.5 415.2 0.6 413.8 0.7 412.5C7.9 354.6 33.8 293.1 60.3 242.2C87.1 190.7 115.9 147.4 131.3 125.3C144.3 106.7 165.3 96.5 187.1 96.5C225.5 96.5 256.5 127.5 256.5 165.8V211.3L266.3 205.1C280.1 196.3 288.5 181 288.5 164.6V32.5C288.5 14.8 302.8 0.5 320.5 0.5Z" fill="#47535F"/>
</g>
<defs>
<clipPath id="clip0_104_1886">
<rect width="640" height="512" fill="white" transform="translate(0.5 0.5)"/>
</clipPath>
</defs>
</svg>
