<svg width="449" height="513" viewBox="0 0 449 513" fill="none" xmlns="http://www.w3.org/2000/svg">
<g clip-path="url(#clip0_104_1890)">
<path d="M23.2 33.9C36.7 29.8 51.3 35 59.1 46.8L224.5 294.8L389.9 46.7C397.7 35 412.3 29.7 425.8 33.8C439.3 37.9 448.5 50.4 448.5 64.5V448.5C448.5 466.2 434.2 480.5 416.5 480.5C398.8 480.5 384.5 466.2 384.5 448.5V170.2L251.1 370.3C245.2 379.2 235.2 384.5 224.5 384.5C213.8 384.5 203.8 379.2 197.9 370.3L64.5 170.2V448.5C64.5 466.2 50.2 480.5 32.5 480.5C14.8 480.5 0.5 466.2 0.5 448.5V64.5C0.5 50.4 9.7 38 23.2 33.9Z" fill="#47535F"/>
</g>
<defs>
<clipPath id="clip0_104_1890">
<rect width="448" height="512" fill="white" transform="translate(0.5 0.5)"/>
</clipPath>
</defs>
</svg>
