<svg width="513" height="513" viewBox="0 0 513 513" fill="none" xmlns="http://www.w3.org/2000/svg">
<g clip-path="url(#clip0_104_1904)">
<path d="M416.5 208.5C416.5 254.4 401.6 296.8 376.5 331.2L503.1 457.9C515.6 470.4 515.6 490.7 503.1 503.2C490.6 515.7 470.3 515.7 457.8 503.2L331.2 376.5C296.8 401.7 254.4 416.5 208.5 416.5C93.6 416.5 0.5 323.4 0.5 208.5C0.5 93.6 93.6 0.5 208.5 0.5C323.4 0.5 416.5 93.6 416.5 208.5ZM136.5 184.5C123.2 184.5 112.5 195.2 112.5 208.5C112.5 221.8 123.2 232.5 136.5 232.5H280.5C293.8 232.5 304.5 221.8 304.5 208.5C304.5 195.2 293.8 184.5 280.5 184.5H136.5Z" fill="#47535F"/>
</g>
<defs>
<clipPath id="clip0_104_1904">
<rect width="512" height="512" fill="white" transform="translate(0.5 0.5)"/>
</clipPath>
</defs>
</svg>
