<svg width="513" height="513" viewBox="0 0 513 513" fill="none" xmlns="http://www.w3.org/2000/svg">
<g clip-path="url(#clip0_104_1900)">
<path d="M416.5 208.5C416.5 254.4 401.6 296.8 376.5 331.2L503.1 457.9C515.6 470.4 515.6 490.7 503.1 503.2C490.6 515.7 470.3 515.7 457.8 503.2L331.2 376.5C296.8 401.7 254.4 416.5 208.5 416.5C93.6 416.5 0.5 323.4 0.5 208.5C0.5 93.6 93.6 0.5 208.5 0.5C323.4 0.5 416.5 93.6 416.5 208.5ZM228.5 104.5C228.5 93.5 219.5 84.5 208.5 84.5C197.5 84.5 188.5 93.5 188.5 104.5V118.5C180.9 120.2 173.3 122.9 166.3 127C152.4 135.3 140.4 149.8 140.5 170.9C140.6 191.2 152.5 204 165.2 211.6C176.2 218.2 189.9 222.4 200.8 225.6L202.5 226.1C215.1 229.9 224.3 232.9 230.5 236.8C235.6 240 236.3 242.2 236.4 245C236.5 250 234.6 253 230.5 255.5C225.5 258.6 217.6 260.5 209.1 260.2C198 259.8 187.6 256.3 174 251.7C171.7 250.9 169.3 250.1 166.8 249.3C156.3 245.8 145 251.5 141.5 261.9C138 272.3 143.7 283.7 154.1 287.2C156 287.8 158.1 288.5 160.2 289.3C168.5 292.2 178.1 295.5 188.4 297.7V312.5C188.4 323.5 197.4 332.5 208.4 332.5C219.4 332.5 228.4 323.5 228.4 312.5V298.7C236.4 297 244.4 294.2 251.6 289.7C265.9 280.8 276.7 265.6 276.4 244.7C276.1 224.4 264.7 211.3 251.8 203.1C240.3 195.9 225.9 191.5 214.7 188.1L214 187.9C201.2 184 192.1 181.2 185.7 177.4C180.5 174.3 180.4 172.5 180.4 170.7C180.4 167 181.8 164.2 186.6 161.4C192 158.2 200.2 156.3 208.1 156.4C217.7 156.5 228.3 158.6 239.3 161.6C250 164.4 260.9 158.1 263.8 147.4C266.7 136.7 260.3 125.8 249.6 122.9C243.1 121.2 235.9 119.5 228.5 118.2V104.5Z" fill="#47535F"/>
</g>
<defs>
<clipPath id="clip0_104_1900">
<rect width="512" height="512" fill="white" transform="translate(0.5 0.5)"/>
</clipPath>
</defs>
</svg>
