<svg width="513" height="513" viewBox="0 0 513 513" fill="none" xmlns="http://www.w3.org/2000/svg">
<g clip-path="url(#clip0_104_1896)">
<path d="M416.5 208.5C416.5 254.4 401.6 296.8 376.5 331.2L503.1 457.9C515.6 470.4 515.6 490.7 503.1 503.2C490.6 515.7 470.3 515.7 457.8 503.2L331.2 376.5C296.8 401.7 254.4 416.5 208.5 416.5C93.6 416.5 0.5 323.4 0.5 208.5C0.5 93.6 93.6 0.5 208.5 0.5C323.4 0.5 416.5 93.6 416.5 208.5ZM241.5 119.5C232.1 110.1 216.9 110.1 207.6 119.5C198.3 128.9 198.2 144.1 207.6 153.4L238.6 184.4H120.5C107.2 184.4 96.5 195.1 96.5 208.4C96.5 221.7 107.2 232.4 120.5 232.4H238.6L207.6 263.4C198.2 272.8 198.2 288 207.6 297.3C217 306.6 232.2 306.7 241.5 297.3L313.5 225.3C322.9 215.9 322.9 200.7 313.5 191.4L241.5 119.4V119.5Z" fill="#47535F"/>
</g>
<defs>
<clipPath id="clip0_104_1896">
<rect width="512" height="512" fill="white" transform="translate(0.5 0.5)"/>
</clipPath>
</defs>
</svg>
