<svg width="513" height="513" viewBox="0 0 513 513" fill="none" xmlns="http://www.w3.org/2000/svg">
<g clip-path="url(#clip0_104_1902)">
<path d="M416.5 208.5C416.5 254.4 401.6 296.8 376.5 331.2L503.1 457.9C515.6 470.4 515.6 490.7 503.1 503.2C490.6 515.7 470.3 515.7 457.8 503.2L331.2 376.5C296.8 401.7 254.4 416.5 208.5 416.5C93.6 416.5 0.5 323.4 0.5 208.5C0.5 93.6 93.6 0.5 208.5 0.5C323.4 0.5 416.5 93.6 416.5 208.5ZM288.5 176.5C288.5 132.3 252.7 96.5 208.5 96.5C164.3 96.5 128.5 132.3 128.5 176.5C128.5 225.3 175 288.1 197.1 315.1C203.1 322.4 213.9 322.4 219.8 315.1C241.9 288.1 288.4 225.3 288.4 176.5H288.5ZM176.5 176.5C176.5 168.013 179.871 159.874 185.873 153.873C191.874 147.871 200.013 144.5 208.5 144.5C216.987 144.5 225.126 147.871 231.127 153.873C237.129 159.874 240.5 168.013 240.5 176.5C240.5 184.987 237.129 193.126 231.127 199.127C225.126 205.129 216.987 208.5 208.5 208.5C200.013 208.5 191.874 205.129 185.873 199.127C179.871 193.126 176.5 184.987 176.5 176.5Z" fill="#47535F"/>
</g>
<defs>
<clipPath id="clip0_104_1902">
<rect width="512" height="512" fill="white" transform="translate(0.5 0.5)"/>
</clipPath>
</defs>
</svg>
