<svg width="513" height="513" viewBox="0 0 513 513" fill="none" xmlns="http://www.w3.org/2000/svg">
<g clip-path="url(#clip0_104_1898)">
<path d="M416.5 208.5C416.5 254.4 401.6 296.8 376.5 331.2L503.1 457.9C515.6 470.4 515.6 490.7 503.1 503.2C490.6 515.7 470.3 515.7 457.8 503.2L331.2 376.5C296.8 401.7 254.4 416.5 208.5 416.5C93.6 416.5 0.5 323.4 0.5 208.5C0.5 93.6 93.6 0.5 208.5 0.5C323.4 0.5 416.5 93.6 416.5 208.5ZM104.5 216.5V280.5C104.5 293.8 115.2 304.5 128.5 304.5C141.8 304.5 152.5 293.8 152.5 280.5V216.5C152.5 203.2 141.8 192.5 128.5 192.5C115.2 192.5 104.5 203.2 104.5 216.5ZM184.5 120.5V280.5C184.5 293.8 195.2 304.5 208.5 304.5C221.8 304.5 232.5 293.8 232.5 280.5V120.5C232.5 107.2 221.8 96.5 208.5 96.5C195.2 96.5 184.5 107.2 184.5 120.5ZM264.5 184.5V280.5C264.5 293.8 275.2 304.5 288.5 304.5C301.8 304.5 312.5 293.8 312.5 280.5V184.5C312.5 171.2 301.8 160.5 288.5 160.5C275.2 160.5 264.5 171.2 264.5 184.5Z" fill="#47535F"/>
</g>
<defs>
<clipPath id="clip0_104_1898">
<rect width="512" height="512" fill="white" transform="translate(0.5 0.5)"/>
</clipPath>
</defs>
</svg>
