<svg width="513" height="513" viewBox="0 0 513 513" fill="none" xmlns="http://www.w3.org/2000/svg">
<g clip-path="url(#clip0_104_1894)">
<path d="M416.5 208.5C416.5 254.4 401.6 296.8 376.5 331.2L503.1 457.9C515.6 470.4 515.6 490.7 503.1 503.2C490.6 515.7 470.3 515.7 457.8 503.2L331.2 376.5C296.8 401.7 254.4 416.5 208.5 416.5C93.6 416.5 0.5 323.4 0.5 208.5C0.5 93.6 93.6 0.5 208.5 0.5C323.4 0.5 416.5 93.6 416.5 208.5ZM208.5 352.5C227.41 352.5 246.136 348.775 263.606 341.539C281.077 334.302 296.952 323.695 310.323 310.323C323.695 296.952 334.302 281.077 341.539 263.606C348.775 246.136 352.5 227.41 352.5 208.5C352.5 189.59 348.775 170.864 341.539 153.394C334.302 135.923 323.695 120.048 310.323 106.677C296.952 93.305 281.077 82.698 263.606 75.4613C246.136 68.2247 227.41 64.5 208.5 64.5C189.59 64.5 170.864 68.2247 153.394 75.4613C135.923 82.698 120.048 93.305 106.677 106.677C93.305 120.048 82.698 135.923 75.4613 153.394C68.2247 170.864 64.5 189.59 64.5 208.5C64.5 227.41 68.2247 246.136 75.4613 263.606C82.698 281.077 93.305 296.952 106.677 310.323C120.048 323.695 135.923 334.302 153.394 341.539C170.864 348.775 189.59 352.5 208.5 352.5Z" fill="#47535F"/>
</g>
<defs>
<clipPath id="clip0_104_1894">
<rect width="512" height="512" fill="white" transform="translate(0.5 0.5)"/>
</clipPath>
</defs>
</svg>
