<svg width="513" height="513" viewBox="0 0 513 513" fill="none" xmlns="http://www.w3.org/2000/svg">
<g clip-path="url(#clip0_104_1906)">
<path d="M416.5 208.5C416.5 254.4 401.6 296.8 376.5 331.2L503.1 457.9C515.6 470.4 515.6 490.7 503.1 503.2C490.6 515.7 470.3 515.7 457.8 503.2L331.2 376.5C296.8 401.7 254.4 416.5 208.5 416.5C93.6 416.5 0.5 323.4 0.5 208.5C0.5 93.6 93.6 0.5 208.5 0.5C323.4 0.5 416.5 93.6 416.5 208.5ZM184.5 296.5C184.5 309.8 195.2 320.5 208.5 320.5C221.8 320.5 232.5 309.8 232.5 296.5V232.5H296.5C309.8 232.5 320.5 221.8 320.5 208.5C320.5 195.2 309.8 184.5 296.5 184.5H232.5V120.5C232.5 107.2 221.8 96.5 208.5 96.5C195.2 96.5 184.5 107.2 184.5 120.5V184.5H120.5C107.2 184.5 96.5 195.2 96.5 208.5C96.5 221.8 107.2 232.5 120.5 232.5H184.5V296.5Z" fill="#47535F"/>
</g>
<defs>
<clipPath id="clip0_104_1906">
<rect width="512" height="512" fill="white" transform="translate(0.5 0.5)"/>
</clipPath>
</defs>
</svg>
