<svg width="385" height="513" viewBox="0 0 385 513" fill="none" xmlns="http://www.w3.org/2000/svg">
<g clip-path="url(#clip0_104_1908)">
<path d="M192.5 32.5C174.8 32.5 160.5 46.8 160.5 64.5V99.2C69.7 114.4 0.5 193.4 0.5 288.5V448.5C0.5 466.2 14.8 480.5 32.5 480.5C50.2 480.5 64.5 466.2 64.5 448.5V288.5C64.5 228.9 105.3 178.7 160.5 164.5V448.5C160.5 466.2 174.8 480.5 192.5 480.5C210.2 480.5 224.5 466.2 224.5 448.5V164.5C279.7 178.7 320.5 228.8 320.5 288.5V448.5C320.5 466.2 334.8 480.5 352.5 480.5C370.2 480.5 384.5 466.2 384.5 448.5V288.5C384.5 193.4 315.3 114.4 224.5 99.2V64.5C224.5 46.8 210.2 32.5 192.5 32.5Z" fill="#47535F"/>
</g>
<defs>
<clipPath id="clip0_104_1908">
<rect width="384" height="512" fill="white" transform="translate(0.5 0.5)"/>
</clipPath>
</defs>
</svg>
