<svg width="321" height="513" viewBox="0 0 321 513" fill="none" xmlns="http://www.w3.org/2000/svg">
<g clip-path="url(#clip0_104_1916)">
<path d="M16.5 144.5C16.5 106.309 31.6714 69.6819 58.6766 42.6766C85.6819 15.6714 122.309 0.5 160.5 0.5C198.691 0.5 235.318 15.6714 262.323 42.6766C289.329 69.6819 304.5 106.309 304.5 144.5C304.5 182.691 289.329 219.318 262.323 246.323C235.318 273.329 198.691 288.5 160.5 288.5C122.309 288.5 85.6819 273.329 58.6766 246.323C31.6714 219.318 16.5 182.691 16.5 144.5ZM160.5 80.5C169.3 80.5 176.5 73.3 176.5 64.5C176.5 55.7 169.3 48.5 160.5 48.5C107.5 48.5 64.5 91.5 64.5 144.5C64.5 153.3 71.7 160.5 80.5 160.5C89.3 160.5 96.5 153.3 96.5 144.5C96.5 109.2 125.2 80.5 160.5 80.5ZM128.5 480.5V317.6C138.9 319.5 149.6 320.5 160.5 320.5C171.4 320.5 182.1 319.5 192.5 317.6V480.5C192.5 498.2 178.2 512.5 160.5 512.5C142.8 512.5 128.5 498.2 128.5 480.5Z" fill="#47535F"/>
</g>
<defs>
<clipPath id="clip0_104_1916">
<rect width="320" height="512" fill="white" transform="translate(0.5 0.5)"/>
</clipPath>
</defs>
</svg>
