<svg width="577" height="513" viewBox="0 0 577 513" fill="none" xmlns="http://www.w3.org/2000/svg">
<g clip-path="url(#clip0_104_1912)">
<path d="M303.3 312.5C335.4 272.4 408.5 175.1 408.5 120.5C408.5 54.2 354.8 0.5 288.5 0.5C222.2 0.5 168.5 54.2 168.5 120.5C168.5 175.1 241.6 272.4 273.7 312.5C281.4 322.1 295.7 322.1 303.3 312.5ZM416.5 503.5L561.4 445.5C570.5 441.9 576.5 433 576.5 423.2V152.5C576.5 135.5 559.4 123.9 543.6 130.2L427.6 176.6C427.1 177.8 426.6 179.1 426.1 180.3C423.2 187.1 420 194 416.5 200.9V503.5ZM15.6 187.8C6.5 191.5 0.5 200.3 0.5 210.1V480.9C0.5 497.9 17.6 509.5 33.4 503.2L160.5 452.3V200.9C157 194 153.8 187.1 150.9 180.3C145.3 167.1 140.5 152.9 138.1 138.8L15.5 187.8H15.6ZM384.5 255.5C364 286.8 342.2 315.1 328.3 332.5C307.8 358.1 269.2 358.1 248.7 332.5C234.8 315.1 213 286.8 192.5 255.5V449.9L384.5 504.8V255.5Z" fill="#47535F"/>
</g>
<defs>
<clipPath id="clip0_104_1912">
<rect width="576" height="512" fill="white" transform="translate(0.5 0.5)"/>
</clipPath>
</defs>
</svg>
