<svg width="577" height="513" viewBox="0 0 577 513" fill="none" xmlns="http://www.w3.org/2000/svg">
<g clip-path="url(#clip0_104_1914)">
<path d="M408.5 120.5C408.5 175.1 335.4 272.4 303.3 312.5C295.6 322.1 281.3 322.1 273.7 312.5C241.6 272.4 168.5 175.1 168.5 120.5C168.5 54.2 222.2 0.5 288.5 0.5C354.8 0.5 408.5 54.2 408.5 120.5ZM416.5 200.9C420 194 423.2 187.1 426.1 180.3C426.6 179.1 427.1 177.8 427.6 176.6L543.6 130.2C559.4 123.9 576.5 135.5 576.5 152.5V423.3C576.5 433.1 570.5 441.9 561.4 445.6L416.5 503.5V200.9ZM138.1 138.8C140.5 152.9 145.3 167.1 150.9 180.3C153.8 187.1 157 194 160.5 200.9V452.3L33.4 503.2C17.6 509.5 0.5 497.9 0.5 480.9V210.1C0.5 200.3 6.5 191.5 15.6 187.8L138.2 138.8H138.1ZM328.3 332.5C342.2 315.1 364 286.8 384.5 255.5V504.8L192.5 449.9V255.5C213 286.8 234.8 315.1 248.7 332.5C269.2 358.1 307.8 358.1 328.3 332.5ZM288.5 152.5C299.109 152.5 309.283 148.286 316.784 140.784C324.286 133.283 328.5 123.109 328.5 112.5C328.5 101.891 324.286 91.7172 316.784 84.2157C309.283 76.7143 299.109 72.5 288.5 72.5C277.891 72.5 267.717 76.7143 260.216 84.2157C252.714 91.7172 248.5 101.891 248.5 112.5C248.5 123.109 252.714 133.283 260.216 140.784C267.717 148.286 277.891 152.5 288.5 152.5Z" fill="#47535F"/>
</g>
<defs>
<clipPath id="clip0_104_1914">
<rect width="576" height="512" fill="white" transform="translate(0.5 0.5)"/>
</clipPath>
</defs>
</svg>
