<svg width="513" height="513" viewBox="0 0 513 513" fill="none" xmlns="http://www.w3.org/2000/svg">
<g clip-path="url(#clip0_104_1918)">
<path d="M481.5 31.4999C445.6 -4.3001 387.4 -4.3001 351.5 31.4999L336.5 46.4999L323.4 33.4999C295.3 5.3999 249.7 5.3999 221.6 33.4999L135.5 119.5C126.1 128.9 126.1 144.1 135.5 153.4C144.9 162.7 160.1 162.8 169.4 153.4L255.5 67.3999C264.9 57.9999 280.1 57.9999 289.4 67.3999L302.6 80.4999L186.8 196.2L316.8 326.2L481.5 161.5C517.4 125.6 517.4 67.3999 481.5 31.5999V31.4999ZM294.2 348.8L164.2 218.8L100 283C52 331 19.2 392.2 5.90001 458.8L0.900008 483.8C-0.699992 491.7 1.80001 499.8 7.50001 505.5C13.2 511.2 21.3 513.6 29.2 512.1L54.2 507.1C120.8 493.8 182 461 230 413L294.2 348.8Z" fill="#47535F"/>
</g>
<defs>
<clipPath id="clip0_104_1918">
<rect width="512" height="512" fill="white" transform="translate(0.5 0.5)"/>
</clipPath>
</defs>
</svg>
