<svg width="641" height="513" viewBox="0 0 641 513" fill="none" xmlns="http://www.w3.org/2000/svg">
<g clip-path="url(#clip0_104_1924)">
<path d="M504.5 0.5C494.8 0.5 486 6.3 482.3 15.3C478.6 24.3 480.6 34.6 487.5 41.5L526.5 80.5L504.3 102.7C476.4 78.9 440.1 64.5 400.5 64.5C312.1 64.5 240.5 136.1 240.5 224.5C240.5 304.7 299.6 371.2 376.6 382.7C376.6 383.3 376.5 383.9 376.5 384.5V384.9V385.3V385.7V386.1V386.5V386.9V387.3V387.7V388.1V388.5V388.9V389.3V389.7V390.1V390.5V390.9V391.3V391.7V392.1V392.5V392.9V393.3V393.7V394.1V394.5V394.9V395.3V395.7V396.1V396.5V396.8V397.2V397.5V397.8V398.1V398.4V398.7V399V399.3V399.6V399.9V400.2V400.5V400.8V401.1V401.4V401.7V402V402.3V402.6V402.9V403.2V403.5V403.8V404.1V404.4V404.7V405V405.3V405.6V405.9V406.2V406.5V406.8V407.1V407.4V407.7V408V408.3H352.5C339.2 408.3 328.5 419 328.5 432.3C328.5 445.6 339.2 456.3 352.5 456.3H376.5V456.5V456.7V456.9V457.1V457.3V457.5V457.7V457.9V458.1V458.3V458.5V458.7V458.9V459.1V459.3V459.5V459.7V459.9V460.1V460.3V460.5V460.7V460.9V461.1V461.3V461.5V461.7V461.9V462.1V462.3V462.5V462.7V462.9V463.1V463.3V463.5V463.7V463.9V464.1V464.3V464.5V464.7V464.9V465.1V465.3V465.5V465.7V465.9V466.1V466.3V466.5V466.7V466.9V467.1V467.3V467.5V467.7V467.9V468.1V468.3V468.5V468.7V468.9V469.1V469.3V469.5V469.7V469.9V470.1V470.3V470.5V470.7V470.9V471.1V471.3V471.5V471.7V471.9V472.1V472.3V472.5V472.7V472.9V473.1V473.3V473.5V473.7V473.9V474.1V474.3V474.5V474.7V474.9V475.1V475.3V475.5V475.7V475.9V476.1V476.3V476.5V476.6V476.7V476.8V476.9V477V477.1V477.2V477.3V477.4V477.5V477.6V477.7V477.8V477.9V478V478.1V478.2V478.3V478.4V478.5V478.6V478.7V478.8V478.9V479V479.1V479.2V479.3V479.4V479.5V479.6V479.7V479.8V479.9V480V480.1V480.2V480.3V480.4V480.5V480.6V480.7V480.8V480.9V481V481.1V481.2V481.3V481.4V481.5V481.6V481.7V481.8V481.9V482V482.1V482.2V482.3V482.4V482.5V482.6V482.7V482.8V482.9V483V483.1V483.2V483.3V483.4V483.5V483.6V483.7V483.8V483.9V484V484.1V484.2V484.3V484.4V484.5V484.6V484.7V484.8V484.9V485V485.1V485.2V485.3V485.4V485.5V485.6V485.7V485.8V485.9V486V486.1V486.2V486.3V486.4V486.5V486.6V486.7V486.8V486.9V487V487.1V487.2V487.3V487.4V487.5V487.6V487.7V487.8V487.9V488V488.1V488.2C376.5 501.5 387.2 512.2 400.5 512.2C413.8 512.2 424.5 501.5 424.5 488.2V488.1V488V487.9V487.8V487.7V487.6V487.5V487.4V487.3V487.2V486.5V486.4V486.3V486.2V486.1V486V485.9V485.8V485.7V485.6V485.5V485.4V485.3V485.2V485.5V485.4V485.3V485.2V485.1V485V484.9V484.8V484.7V484.6V484.5V484.4V484.3V484.2V484.1V484V483.9V483.8V483.7V483.6V483.5V483.4V483.3V483.2V483.1V483V482.9V482.8V482.7V482.6V482.5V482.4V482.3V482.2V482.1V482V481.9V481.8V481.7V481.6V481.5V481.4V481.3V481.2V481.1V481V480.9V480.8V480.7V480.5V480.4V480.3V480.2V480.1V480V479.9V479.8V479.5V479.4V479.3V479.2V479.1V479V478.9V478.8V478.5V478.4V478.3V478.2V478.1V478V477.9V477.5V477.4V477.3V477.2V477.1V477V476.9V476.5V476.4V476.3V476.2V476.1V476V475.9V475.5V475.4V475.2V475V474.8V474.6V474.4V474.5V474.3V474.1V473.9V473.7V473.5V473.3V473.1V472.9V472.7V472.5V472.3V472.1V471.9V471.7V471.5V471.3V471.1V470.9V470.7V470.5V470.3V470.1V470.5V470.3V470.1V469.9V469.7V469.5V469.3V469.1V468.9V468.7V468.5V468.3V468.1V467.9V467.7V467.5V467.3V467.1V466.9V466.7V466.5V466.3V466.1V465.9V465.7V465.5V465.3V465.1V464.9V464.7V464.5V464.3V464.1V463.9V463.7V463.5V463.3V463.1V462.9V462.7V462.5V462.3V462.1V461.9V461.7V461.5V461.3V461.1V460.9V460.7V460.5V460.3V460.1V459.9V459.5V459.3V459.1V458.9V458.7V458.5V458.3V458.1V457.9V457.5V457.3V457.1V456.9V456.7V456.5H448.5C461.8 456.5 472.5 445.8 472.5 432.5C472.5 419.2 461.8 408.5 448.5 408.5H424.5V408.2V407.9V407.6V407.3V407V406.7V406.4V406.1V405.8V405.5V405.2V404.9V404.6V404.3V403.5V403.2V402.9V402.5V402.2V401.9V401.5V401.2V400.9V400.5V400.2V399.9V399.6V399.3V399V398.7V398.4V398.1V397.8V397.5V397.2V396.9V396.6V396.2V395.9V395.5V395.1V394.7V394.3V393.5V393.1V392.7V392.3V391.9V391.5V391.1V390.7V390.3V389.9V389.5V389.1V388.7V388.3V388.5V388.1V387.7V387.3V386.9V386.5V386.1V385.7V385.3V384.9V384.5C424.5 383.9 424.5 383.3 424.4 382.7C501.4 371.1 560.5 304.7 560.5 224.5C560.5 193.1 551.5 163.8 535.8 139.1L560.5 114.4L599.5 153.4C606.4 160.3 616.7 162.3 625.7 158.6C634.7 154.9 640.5 146.1 640.5 136.4V24.5C640.5 11.2 629.8 0.5 616.5 0.5H504.5ZM400.5 128.5C413.107 128.5 425.59 130.983 437.238 135.808C448.885 140.632 459.468 147.703 468.382 156.618C477.297 165.532 484.368 176.115 489.192 187.762C494.017 199.41 496.5 211.893 496.5 224.5C496.5 237.107 494.017 249.59 489.192 261.238C484.368 272.885 477.297 283.468 468.382 292.382C459.468 301.297 448.885 308.368 437.238 313.192C425.59 318.017 413.107 320.5 400.5 320.5C387.893 320.5 375.41 318.017 363.762 313.192C352.115 308.368 341.532 301.297 332.618 292.382C323.703 283.468 316.632 272.885 311.808 261.238C306.983 249.59 304.5 237.107 304.5 224.5C304.5 211.893 306.983 199.41 311.808 187.762C316.632 176.115 323.703 165.532 332.618 156.618C341.532 147.703 352.115 140.632 363.762 135.808C375.41 130.983 387.893 128.5 400.5 128.5ZM191.4 18.6C188.9 12.5 183.1 8.5 176.5 8.5C169.9 8.5 164.1 12.5 161.6 18.6L132.2 92.6L56.1 69.4C49.8 67.5 43 69.6 38.9 74.7C34.8 79.8 34.3 86.9 37.5 92.6L77 161.7L11.4 206.9C6.00001 210.6 3.40001 217.2 4.90001 223.6C6.40001 230 11.6 234.8 18 235.8L96.7 248L91.1 327.5C90.6 334 94.2 340.2 100.1 343C106 345.8 113 344.8 117.9 340.4L176.5 286.6L235.1 340.5C239.2 344.3 245 345.6 250.3 344.1C224.1 311.3 208.5 269.7 208.5 224.5C208.5 163.7 236.8 109.5 280.9 74.3L220.8 92.6L191.4 18.6Z" fill="#47535F"/>
</g>
<defs>
<clipPath id="clip0_104_1924">
<rect width="640" height="512" fill="white" transform="translate(0.5 0.5)"/>
</clipPath>
</defs>
</svg>
