<svg width="513" height="513" viewBox="0 0 513 513" fill="none" xmlns="http://www.w3.org/2000/svg">
<g clip-path="url(#clip0_104_1928)">
<path d="M376.5 0.5C366.8 0.5 358 6.3 354.3 15.3C350.6 24.3 352.6 34.6 359.5 41.5L392.9 74.9L370.8 96.9L345.5 71.5C336.1 62.1 320.9 62.1 311.6 71.5C302.3 80.9 302.2 96.1 311.6 105.4L337 130.8L308.3 159.5C279.9 140 245.6 128.5 208.5 128.5C111.3 128.5 32.5 207.3 32.5 304.5C32.5 401.7 111.3 480.5 208.5 480.5C305.7 480.5 384.5 401.7 384.5 304.5C384.5 267.5 373.1 233.1 353.5 204.7L382.1 176.1L407.5 201.5C416.9 210.9 432.1 210.9 441.4 201.5C450.7 192.1 450.8 176.9 441.4 167.6L416 142.2L438.1 120.1L471.5 153.5C478.4 160.4 488.7 162.4 497.7 158.7C506.7 155 512.5 146.2 512.5 136.5V24.5C512.5 11.2 501.8 0.5 488.5 0.5H376.5ZM96.5 304.5C96.5 289.792 99.397 275.228 105.025 261.639C110.654 248.051 118.904 235.704 129.304 225.304C139.704 214.904 152.051 206.654 165.639 201.025C179.228 195.397 193.792 192.5 208.5 192.5C223.208 192.5 237.772 195.397 251.361 201.025C264.949 206.654 277.296 214.904 287.696 225.304C298.096 235.704 306.346 248.051 311.975 261.639C317.603 275.228 320.5 289.792 320.5 304.5C320.5 319.208 317.603 333.772 311.975 347.361C306.346 360.949 298.096 373.296 287.696 383.696C277.296 394.096 264.949 402.346 251.361 407.975C237.772 413.603 223.208 416.5 208.5 416.5C193.792 416.5 179.228 413.603 165.639 407.975C152.051 402.346 139.704 394.096 129.304 383.696C118.904 373.296 110.654 360.949 105.025 347.361C99.397 333.772 96.5 319.208 96.5 304.5Z" fill="#47535F"/>
</g>
<defs>
<clipPath id="clip0_104_1928">
<rect width="512" height="512" fill="white" transform="translate(0.5 0.5)"/>
</clipPath>
</defs>
</svg>
