<svg width="641" height="513" viewBox="0 0 641 513" fill="none" xmlns="http://www.w3.org/2000/svg">
<g clip-path="url(#clip0_104_1926)">
<path d="M312.5 32.5C302.8 32.5 294 38.3 290.3 47.3C286.6 56.3 288.6 66.6 295.5 73.5L328.9 106.9L276.3 159.5C247.9 140 213.6 128.5 176.5 128.5C79.3 128.5 0.5 207.3 0.5 304.5C0.5 401.7 79.3 480.5 176.5 480.5C273.7 480.5 352.5 401.7 352.5 304.5C352.5 267.5 341.1 233.1 321.5 204.7L374.1 152.1L407.5 185.5C414.4 192.4 424.7 194.4 433.7 190.7C442.7 187 448.5 178.2 448.5 168.5V56.5C448.5 43.2 437.8 32.5 424.5 32.5H312.5ZM64.5 304.5C64.5 289.792 67.397 275.228 73.0255 261.639C78.654 248.051 86.9039 235.704 97.304 225.304C107.704 214.904 120.051 206.654 133.639 201.025C147.228 195.397 161.792 192.5 176.5 192.5C191.208 192.5 205.772 195.397 219.361 201.025C232.949 206.654 245.296 214.904 255.696 225.304C266.096 235.704 274.346 248.051 279.975 261.639C285.603 275.228 288.5 289.792 288.5 304.5C288.5 319.208 285.603 333.772 279.975 347.361C274.346 360.949 266.096 373.296 255.696 383.696C245.296 394.096 232.949 402.346 219.361 407.975C205.772 413.603 191.208 416.5 176.5 416.5C161.792 416.5 147.228 413.603 133.639 407.975C120.051 402.346 107.704 394.096 97.304 383.696C86.9039 373.296 78.654 360.949 73.0255 347.361C67.397 333.772 64.5 319.208 64.5 304.5ZM368.5 480.5C465.7 480.5 544.5 401.7 544.5 304.5C544.5 267.5 533.1 233.1 513.5 204.7L566.1 152.1L599.5 185.5C606.4 192.4 616.7 194.4 625.7 190.7C634.7 187 640.5 178.2 640.5 168.5V56.5C640.5 43.2 629.8 32.5 616.5 32.5H504.5C494.8 32.5 486 38.3 482.3 47.3C481.1 50.2 480.5 53.3 480.5 56.3V56.5V56.7C480.5 62.9 483 68.9 487.5 73.5L520.9 106.9L480.5 147.2V168.5C480.5 191.1 466.9 211.6 445.9 220.2C445.1 220.5 444.2 220.9 443.4 221.2C466.2 241.7 480.5 271.4 480.5 304.5C480.5 366.4 430.4 416.5 368.5 416.5C363.1 416.5 357.7 416.1 352.5 415.4C339.6 435.8 323.4 453.7 304.4 468.5C324.2 476.3 345.8 480.5 368.4 480.5H368.5Z" fill="#47535F"/>
</g>
<defs>
<clipPath id="clip0_104_1926">
<rect width="640" height="512" fill="white" transform="translate(0.5 0.5)"/>
</clipPath>
</defs>
</svg>
