<svg width="321" height="513" viewBox="0 0 321 513" fill="none" xmlns="http://www.w3.org/2000/svg">
<g clip-path="url(#clip0_104_1932)">
<path d="M149.2 5.20005C155.4 -0.999951 165.6 -0.999951 171.8 5.20005L235.8 69.2C240.4 73.8 241.7 80.7 239.3 86.6C236.9 92.5 231 96.5 224.5 96.5H184.5V120.5H216.5C229.8 120.5 240.5 131.2 240.5 144.5C240.5 157.8 229.8 168.5 216.5 168.5H184.5V192.5C184.5 193.1 184.5 193.7 184.4 194.3C261.4 205.9 320.5 272.3 320.5 352.5C320.5 440.9 248.9 512.5 160.5 512.5C72.1 512.5 0.5 440.9 0.5 352.5C0.5 272.3 59.6 205.8 136.6 194.3C136.6 193.7 136.5 193.1 136.5 192.5V168.5H104.5C91.2 168.5 80.5 157.8 80.5 144.5C80.5 131.2 91.2 120.5 104.5 120.5H136.5V96.5H96.5C90 96.5 84.2 92.6 81.7 86.6C79.2 80.6 80.6 73.7 85.2 69.2L149.2 5.20005ZM256.5 352.5C256.5 327.039 246.386 302.621 228.382 284.618C210.379 266.614 185.961 256.5 160.5 256.5C135.039 256.5 110.621 266.614 92.6178 284.618C74.6143 302.621 64.5 327.039 64.5 352.5C64.5 377.961 74.6143 402.379 92.6178 420.382C110.621 438.386 135.039 448.5 160.5 448.5C185.961 448.5 210.379 438.386 228.382 420.382C246.386 402.379 256.5 377.961 256.5 352.5Z" fill="#47535F"/>
</g>
<defs>
<clipPath id="clip0_104_1932">
<rect width="320" height="512" fill="white" transform="translate(0.5 0.5)"/>
</clipPath>
</defs>
</svg>
