<svg width="449" height="513" viewBox="0 0 449 513" fill="none" xmlns="http://www.w3.org/2000/svg">
<g clip-path="url(#clip0_104_1920)">
<path d="M290.3 47.3C294 38.3 302.8 32.5 312.5 32.5H424.5C437.8 32.5 448.5 43.2 448.5 56.5V168.5C448.5 178.2 442.7 187 433.7 190.7C424.7 194.4 414.4 192.4 407.5 185.5L374.1 152.1L321.5 204.7C341 233.1 352.5 267.4 352.5 304.5C352.5 401.7 273.7 480.5 176.5 480.5C79.3 480.5 0.5 401.7 0.5 304.5C0.5 207.3 79.3 128.5 176.5 128.5C213.5 128.5 247.9 139.9 276.3 159.5L328.9 106.9L295.5 73.5C288.6 66.6 286.6 56.3 290.3 47.3ZM176.5 416.5C191.208 416.5 205.772 413.603 219.361 407.975C232.949 402.346 245.296 394.096 255.696 383.696C266.096 373.296 274.346 360.949 279.975 347.361C285.603 333.772 288.5 319.208 288.5 304.5C288.5 289.792 285.603 275.228 279.975 261.639C274.346 248.051 266.096 235.704 255.696 225.304C245.296 214.904 232.949 206.654 219.361 201.025C205.772 195.397 191.208 192.5 176.5 192.5C161.792 192.5 147.228 195.397 133.639 201.025C120.051 206.654 107.704 214.904 97.304 225.304C86.9039 235.704 78.654 248.051 73.0255 261.639C67.397 275.228 64.5 289.792 64.5 304.5C64.5 319.208 67.397 333.772 73.0255 347.361C78.654 360.949 86.9039 373.296 97.304 383.696C107.704 394.096 120.051 402.346 133.639 407.975C147.228 413.603 161.792 416.5 176.5 416.5Z" fill="#47535F"/>
</g>
<defs>
<clipPath id="clip0_104_1920">
<rect width="448" height="512" fill="white" transform="translate(0.5 0.5)"/>
</clipPath>
</defs>
</svg>
