<svg width="641" height="513" viewBox="0 0 641 513" fill="none" xmlns="http://www.w3.org/2000/svg">
<path d="M208.5 368.5C238.204 368.5 266.692 356.7 287.696 335.696C308.7 314.692 320.5 286.204 320.5 256.5C320.5 226.796 308.7 198.308 287.696 177.304C266.692 156.3 238.204 144.5 208.5 144.5C178.796 144.5 150.308 156.3 129.304 177.304C108.3 198.308 96.5 226.796 96.5 256.5C96.5 286.204 108.3 314.692 129.304 335.696C150.308 356.7 178.796 368.5 208.5 368.5ZM382.9 280.5C371.2 366.3 297.6 432.5 208.5 432.5C111.3 432.5 32.5 353.7 32.5 256.5C32.5 159.3 111.3 80.5 208.5 80.5C297.6 80.5 371.2 146.7 382.9 232.5H416.5V176.5C416.5 163.2 427.2 152.5 440.5 152.5C453.8 152.5 464.5 163.2 464.5 176.5V232.5H496.5V176.5C496.5 166.8 502.3 158 511.3 154.3C520.3 150.6 530.6 152.6 537.5 159.5L617.5 239.5C626.9 248.9 626.9 264.1 617.5 273.4L537.5 353.4C530.6 360.3 520.3 362.3 511.3 358.6C502.3 354.9 496.5 346.1 496.5 336.4V280.5H464.5V336.5C464.5 349.8 453.8 360.5 440.5 360.5C427.2 360.5 416.5 349.8 416.5 336.5V280.5H382.9Z" fill="#47535F"/>
</svg>
