<svg width="577" height="513" viewBox="0 0 577 513" fill="none" xmlns="http://www.w3.org/2000/svg">
<g clip-path="url(#clip0_104_1936)">
<path d="M432.5 240.5C485.5 240.5 528.5 197.5 528.5 144.5C528.5 91.5 485.5 48.5 432.5 48.5C397 48.5 365.9 67.8 349.3 96.5H296.7C316.5 40.6 369.8 0.5 432.5 0.5C512 0.5 576.5 65 576.5 144.5C576.5 224 512 288.5 432.5 288.5C404.8 288.5 379 280.7 357 267.2L392.4 231.8C404.6 237.4 418.2 240.5 432.5 240.5ZM2.30011 143.3C6.00011 134.3 14.8001 128.5 24.5001 128.5H392.5C402.2 128.5 411 134.3 414.7 143.3C418.4 152.3 416.4 162.6 409.5 169.5L232.5 346.5V464.5H296.5C309.8 464.5 320.5 475.2 320.5 488.5C320.5 501.8 309.8 512.5 296.5 512.5H208.5H120.5C107.2 512.5 96.5001 501.8 96.5001 488.5C96.5001 475.2 107.2 464.5 120.5 464.5H184.5V346.4L7.50011 169.5C0.600106 162.6 -1.39989 152.3 2.30011 143.3Z" fill="#47535F"/>
</g>
<defs>
<clipPath id="clip0_104_1936">
<rect width="576" height="512" fill="white" transform="translate(0.5 0.5)"/>
</clipPath>
</defs>
</svg>
