<svg width="513" height="513" viewBox="0 0 513 513" fill="none" xmlns="http://www.w3.org/2000/svg">
<g clip-path="url(#clip0_104_1938)">
<path d="M32.5 0.5C19.6 0.5 7.90001 8.3 2.90001 20.3C-2.09999 32.3 0.700006 46 9.80001 55.2L224.5 269.8V448.5H160.5C142.8 448.5 128.5 462.8 128.5 480.5C128.5 498.2 142.8 512.5 160.5 512.5H256.5H352.5C370.2 512.5 384.5 498.2 384.5 480.5C384.5 462.8 370.2 448.5 352.5 448.5H288.5V269.8L503.1 55.1C512.3 45.9 515 32.2 510 20.2C505 8.2 493.4 0.5 480.5 0.5H32.5ZM256.5 211.2L109.8 64.5H403.2L256.5 211.2Z" fill="#47535F"/>
</g>
<defs>
<clipPath id="clip0_104_1938">
<rect width="512" height="512" fill="white" transform="translate(0.5 0.5)"/>
</clipPath>
</defs>
</svg>
