<svg width="641" height="513" viewBox="0 0 641 513" fill="none" xmlns="http://www.w3.org/2000/svg">
<g clip-path="url(#clip0_104_1942)">
<path d="M320.5 64.5C293.3 64.5 266.7 72.5 244.1 87.6L207 112.4C191.2 122.9 172.7 128.5 153.7 128.5H144.5H128.5H56.5C25.6 128.5 0.5 153.6 0.5 184.5V269.5C0.5 324.6 38 372.6 91.4 385.9L199.4 412.9C234.3 435.5 275.9 448.5 320.5 448.5C365.1 448.5 406.7 435.5 441.6 413L549.6 386C603 372.6 640.5 324.6 640.5 269.5V184.5C640.5 153.6 615.4 128.5 584.5 128.5H512.5H496.5H487.3C468.3 128.5 449.8 122.9 434 112.4L396.9 87.6C374.3 72.5 347.7 64.5 320.5 64.5ZM132.8 346.8L103 339.4C71 331.4 48.5 302.6 48.5 269.5V184.5C48.5 180.1 52.1 176.5 56.5 176.5H96.5V224.5C96.5 269.6 109.9 311.7 132.8 346.8ZM537.9 339.4L508.1 346.8C531.1 311.6 544.4 269.6 544.4 224.5V176.5H584.4C588.8 176.5 592.4 180.1 592.4 184.5V269.5C592.4 302.5 569.9 331.3 537.9 339.4ZM192.5 208.5C192.5 199.7 199.7 192.5 208.5 192.5H432.5C441.3 192.5 448.5 199.7 448.5 208.5C448.5 217.3 441.3 224.5 432.5 224.5H208.5C199.7 224.5 192.5 217.3 192.5 208.5ZM208.5 256.5H432.5C441.3 256.5 448.5 263.7 448.5 272.5C448.5 281.3 441.3 288.5 432.5 288.5H208.5C199.7 288.5 192.5 281.3 192.5 272.5C192.5 263.7 199.7 256.5 208.5 256.5ZM224.5 336.5C224.5 327.7 231.7 320.5 240.5 320.5H400.5C409.3 320.5 416.5 327.7 416.5 336.5C416.5 345.3 409.3 352.5 400.5 352.5H240.5C231.7 352.5 224.5 345.3 224.5 336.5Z" fill="#47535F"/>
</g>
<defs>
<clipPath id="clip0_104_1942">
<rect width="640" height="512" fill="white" transform="translate(0.5 0.5)"/>
</clipPath>
</defs>
</svg>
