<svg width="577" height="513" viewBox="0 0 577 513" fill="none" xmlns="http://www.w3.org/2000/svg">
<g clip-path="url(#clip0_104_1940)">
<path d="M288.5 64.5C64.5 64.5 0.5 160.5 0.5 272.5C0.5 384.5 80.5 448.5 176.5 448.5H184.9C209.1 448.5 231.3 434.8 242.1 413.1L265.3 366.8C269.7 358 278.6 352.5 288.5 352.5C298.4 352.5 307.3 358 311.7 366.8L334.9 413.1C345.7 434.8 367.9 448.5 392.1 448.5H400.5C496.5 448.5 576.5 384.5 576.5 272.5C576.5 160.5 512.5 64.5 288.5 64.5ZM96.5 256.5C96.5 239.526 103.243 223.247 115.245 211.245C127.247 199.243 143.526 192.5 160.5 192.5C177.474 192.5 193.753 199.243 205.755 211.245C217.757 223.247 224.5 239.526 224.5 256.5C224.5 273.474 217.757 289.752 205.755 301.755C193.753 313.757 177.474 320.5 160.5 320.5C143.526 320.5 127.247 313.757 115.245 301.755C103.243 289.752 96.5 273.474 96.5 256.5ZM416.5 192.5C433.474 192.5 449.752 199.243 461.755 211.245C473.757 223.247 480.5 239.526 480.5 256.5C480.5 273.474 473.757 289.752 461.755 301.755C449.752 313.757 433.474 320.5 416.5 320.5C399.526 320.5 383.248 313.757 371.245 301.755C359.243 289.752 352.5 273.474 352.5 256.5C352.5 239.526 359.243 223.247 371.245 211.245C383.248 199.243 399.526 192.5 416.5 192.5Z" fill="#47535F"/>
</g>
<defs>
<clipPath id="clip0_104_1940">
<rect width="576" height="512" fill="white" transform="translate(0.5 0.5)"/>
</clipPath>
</defs>
</svg>
