<svg width="641" height="513" viewBox="0 0 641 513" fill="none" xmlns="http://www.w3.org/2000/svg">
<g clip-path="url(#clip0_104_1946)">
<path d="M159.6 176.5C139.9 219.7 128.5 265.2 128.5 301.3C128.5 317.2 130.7 332.7 134.8 347.3L103 339.4C71 331.4 48.5 302.6 48.5 269.5V184.5C48.5 180.1 52.1 176.5 56.5 176.5H159.6ZM185.6 128.5H56.5C25.6 128.5 0.5 153.6 0.5 184.5V269.5C0.5 324.6 38 372.6 91.4 385.9L162.7 403.7C185.4 434.2 218.1 457.8 256.5 470.3V393.8C236.8 377.4 224.5 353.5 224.5 326.9C224.5 277.4 267.5 192.5 320.5 192.5C373 192.5 416.5 277.4 416.5 326.9C416.5 353.6 404.1 377.3 384.5 393.7V470.3C422.5 457.7 455.1 434.3 478 403.9L549.6 386C603 372.6 640.5 324.6 640.5 269.5V184.5C640.5 153.6 615.4 128.5 584.5 128.5H455C420.2 74.3 372.6 32.5 320.5 32.5C267.9 32.5 220.3 74.3 185.6 128.5ZM481.2 176.5H584.5C588.9 176.5 592.5 180.1 592.5 184.5V269.5C592.5 302.5 570 331.3 538 339.4L506.2 347.4C510.4 332.7 512.6 317.3 512.6 301.3C512.6 265.2 501 219.7 481.3 176.5H481.2ZM288.5 320.5V512.5H352.5V320.5C352.5 302.8 338.2 288.5 320.5 288.5C302.8 288.5 288.5 302.8 288.5 320.5Z" fill="#47535F"/>
</g>
<defs>
<clipPath id="clip0_104_1946">
<rect width="640" height="512" fill="white" transform="translate(0.5 0.5)"/>
</clipPath>
</defs>
</svg>
