<svg width="641" height="513" viewBox="0 0 641 513" fill="none" xmlns="http://www.w3.org/2000/svg">
<g clip-path="url(#clip0_104_1944)">
<path d="M75.0998 373.7C116.8 409.8 183.1 456.2 241.2 447.4C247.3 446.5 253.3 444.9 259.2 442.9C250 430.6 241.9 418.5 235 407.5C213.1 372.5 206.2 332.3 209.1 293.9C188.5 298 169.9 306.9 154.4 319.3C147.9 324.5 138.1 320.6 139.6 312.3C146 278.8 172.6 251.4 207.8 246C210.4 245.6 213.1 245.3 215.7 245.2L235.1 113.9C237.1 100.1 243.1 81.2 260.1 68C278.7 53.7 311 37.5 363.7 32.7C362.9 32 362.1 31.3 361.3 30.6C341.1 15 288.9 -11 176.2 6.09998C63.4998 23.2 20.9998 63.5 6.19977 84.4C0.499775 92.4 -0.300225 102.5 1.09977 112.3L25.2998 276.6C30.7998 313.9 46.7998 349.2 75.0998 373.8V373.7ZM162.8 154.1C167.2 151 173.6 152.1 174.6 157.4C174.7 157.9 174.8 158.5 174.9 159C178.1 180.8 163.3 201 141.8 204.3C120.3 207.6 100.3 192.5 97.0998 170.8C96.9998 170.3 96.9998 169.7 96.8998 169.2C96.2998 163.8 102.1 160.8 107.2 162.5C116.2 165.5 126 166.4 135.9 164.9C145.8 163.4 155 159.6 162.7 154.1H162.8ZM262.1 390.5C291.5 437.4 341.6 501.4 399.7 510.2C457.8 519 524.2 472.7 565.8 436.5C594.1 412 610.1 376.7 615.6 339.3L639.8 175C641.2 165.2 640.4 155.1 634.7 147.1C619.9 126.2 577.4 85.9 464.7 68.8C352 51.7 299.9 77.7 279.7 93.3C271.9 99.3 268.2 108.7 266.8 118.5L242.6 282.8C237.1 320.1 242.2 358.6 262.2 390.5H262.1ZM405 235.8C397.3 230.3 388.2 226.5 378.2 225C368.2 223.5 358.4 224.4 349.5 227.4C344.4 229.1 338.6 226.1 339.2 220.7C339.3 220.2 339.3 219.6 339.4 219.1C342.6 197.3 362.6 182.3 384.1 185.6C405.6 188.9 420.4 209.1 417.2 230.9C417.1 231.4 417 232 416.9 232.5C415.9 237.8 409.5 238.9 405.1 235.8H405ZM541.2 251.3C540.2 256.6 533.8 257.7 529.4 254.6C521.7 249.1 512.6 245.3 502.6 243.8C492.6 242.3 482.8 243.2 473.9 246.2C468.8 247.9 463 244.9 463.6 239.5C463.7 239 463.7 238.4 463.8 237.9C467 216.1 487 201.1 508.5 204.4C530 207.7 544.8 227.9 541.6 249.7C541.5 250.2 541.4 250.8 541.3 251.3H541.2ZM530.5 350.7C510.9 395.4 463.7 423.2 413.7 415.6C363.7 408 326.6 367.4 320.7 318.9C319.7 310.6 329.6 306.8 335.9 312.2C359.8 333 389.5 347.5 422.9 352.5C456.3 357.5 489 352.6 517.8 339.7C525.4 336.3 533.8 342.9 530.4 350.6L530.5 350.7Z" fill="#47535F"/>
</g>
<defs>
<clipPath id="clip0_104_1944">
<rect width="640" height="512" fill="white" transform="translate(0.5 0.5)"/>
</clipPath>
</defs>
</svg>
