<svg width="641" height="513" viewBox="0 0 641 513" fill="none" xmlns="http://www.w3.org/2000/svg">
<g clip-path="url(#clip0_104_1948)">
<path d="M256.5 64.5H64.5C29.2 64.5 0.5 93.2 0.5 128.5V384.5C0.5 419.8 29.2 448.5 64.5 448.5H256.5V64.5ZM288.5 448.5H576.5C611.8 448.5 640.5 419.8 640.5 384.5V128.5C640.5 93.2 611.8 64.5 576.5 64.5H288.5V448.5ZM64.5 160.5C64.5 142.8 78.8 128.5 96.5 128.5H160.5C178.2 128.5 192.5 142.8 192.5 160.5V352.5C192.5 370.2 178.2 384.5 160.5 384.5H96.5C78.8 384.5 64.5 370.2 64.5 352.5V160.5Z" fill="#47535F"/>
</g>
<defs>
<clipPath id="clip0_104_1948">
<rect width="640" height="512" fill="white" transform="translate(0.5 0.5)"/>
</clipPath>
</defs>
</svg>
