<svg width="513" height="513" viewBox="0 0 513 513" fill="none" xmlns="http://www.w3.org/2000/svg">
<g clip-path="url(#clip0_104_1952)">
<path d="M4.6 38.7C1.9 34.7 0.5 29.9 0.5 25.1C0.5 11.5 11.5 0.5 25.1 0.5H134.4C145.6 0.5 156.1 6.4 161.8 16L230.3 130.1C182.1 136.2 139 158.7 106.9 192L4.6 38.7ZM508.3 38.7L406.1 192C374 158.7 330.9 136.2 282.7 130.1L351.2 16C357 6.4 367.4 0.5 378.6 0.5H487.9C501.5 0.5 512.5 11.5 512.5 25.1C512.5 29.9 511.1 34.7 508.4 38.7H508.3ZM80.5 336.5C80.5 289.822 99.0428 245.056 132.049 212.049C165.056 179.043 209.822 160.5 256.5 160.5C303.178 160.5 347.944 179.043 380.951 212.049C413.957 245.056 432.5 289.822 432.5 336.5C432.5 383.178 413.957 427.944 380.951 460.951C347.944 493.957 303.178 512.5 256.5 512.5C209.822 512.5 165.056 493.957 132.049 460.951C99.0428 427.944 80.5 383.178 80.5 336.5ZM264.9 241.6C261.5 234.6 251.6 234.6 248.1 241.6L225.7 287C224.3 289.8 221.7 291.7 218.7 292.1L168.5 299.4C160.8 300.5 157.8 309.9 163.3 315.4L199.6 350.8C201.8 353 202.8 356 202.3 359.1L193.7 409C192.4 416.6 200.4 422.5 207.3 418.9L252.1 395.3C254.8 393.9 258.1 393.9 260.8 395.3L305.6 418.9C312.5 422.5 320.5 416.7 319.2 409L310.6 359.1C310.1 356.1 311.1 353 313.3 350.8L349.6 315.4C355.2 310 352.1 300.6 344.4 299.4L294.3 292.1C291.3 291.7 288.6 289.7 287.3 287L264.9 241.6Z" fill="#47535F"/>
</g>
<defs>
<clipPath id="clip0_104_1952">
<rect width="512" height="512" fill="white" transform="translate(0.5 0.5)"/>
</clipPath>
</defs>
</svg>
