<svg width="577" height="513" viewBox="0 0 577 513" fill="none" xmlns="http://www.w3.org/2000/svg">
<g clip-path="url(#clip0_104_1954)">
<path d="M64.5 64.5C29.2 64.5 0.5 93.2 0.5 128.5V135.9C0.5 142.7 4.9 148.5 10.6 152.2C23.8 160.8 32.5 175.6 32.5 192.5C32.5 209.4 23.8 224.2 10.6 232.8C4.9 236.5 0.5 242.3 0.5 249.1V320.5H576.5V249.1C576.5 242.3 572.1 236.5 566.4 232.8C553.2 224.2 544.5 209.4 544.5 192.5C544.5 175.6 553.2 160.8 566.4 152.2C572.1 148.5 576.5 142.7 576.5 135.9V128.5C576.5 93.2 547.8 64.5 512.5 64.5H64.5ZM576.5 352.5H0.5V416.5C0.5 434.2 14.8 448.5 32.5 448.5H80.5V416.5C80.5 407.7 87.7 400.5 96.5 400.5C105.3 400.5 112.5 407.7 112.5 416.5V448.5H208.5V416.5C208.5 407.7 215.7 400.5 224.5 400.5C233.3 400.5 240.5 407.7 240.5 416.5V448.5H336.5V416.5C336.5 407.7 343.7 400.5 352.5 400.5C361.3 400.5 368.5 407.7 368.5 416.5V448.5H464.5V416.5C464.5 407.7 471.7 400.5 480.5 400.5C489.3 400.5 496.5 407.7 496.5 416.5V448.5H544.5C562.2 448.5 576.5 434.2 576.5 416.5V352.5ZM192.5 160.5V224.5C192.5 242.2 178.2 256.5 160.5 256.5C142.8 256.5 128.5 242.2 128.5 224.5V160.5C128.5 142.8 142.8 128.5 160.5 128.5C178.2 128.5 192.5 142.8 192.5 160.5ZM320.5 160.5V224.5C320.5 242.2 306.2 256.5 288.5 256.5C270.8 256.5 256.5 242.2 256.5 224.5V160.5C256.5 142.8 270.8 128.5 288.5 128.5C306.2 128.5 320.5 142.8 320.5 160.5ZM448.5 160.5V224.5C448.5 242.2 434.2 256.5 416.5 256.5C398.8 256.5 384.5 242.2 384.5 224.5V160.5C384.5 142.8 398.8 128.5 416.5 128.5C434.2 128.5 448.5 142.8 448.5 160.5Z" fill="#47535F"/>
</g>
<defs>
<clipPath id="clip0_104_1954">
<rect width="576" height="512" fill="white" transform="translate(0.5 0.5)"/>
</clipPath>
</defs>
</svg>
