<svg width="641" height="513" viewBox="0 0 641 513" fill="none" xmlns="http://www.w3.org/2000/svg">
<g clip-path="url(#clip0_104_1956)">
<path d="M21.3 7.9C23.3 3.4 27.6 0.5 32.5 0.5C37.4 0.5 41.7 3.4 43.7 7.9L61.8 50.2C63.6 54.3 64.5 58.8 64.5 63.3V64.5C64.5 82.2 50.2 96.5 32.5 96.5C14.8 96.5 0.5 82.2 0.5 64.5V63.3C0.5 58.8 1.4 54.4 3.2 50.2L21.3 7.9ZM117.3 7.9C119.3 3.4 123.6 0.5 128.5 0.5C133.4 0.5 137.7 3.4 139.7 7.9L157.9 50.3C159.7 54.4 160.6 58.9 160.6 63.4V64.5C160.6 82.2 146.3 96.5 128.6 96.5C110.9 96.5 96.6 82.2 96.6 64.5V63.3C96.6 58.8 97.5 54.4 99.3 50.2L117.3 7.9ZM195.1 50.3L213.3 7.9C215.3 3.4 219.6 0.5 224.5 0.5C229.4 0.5 233.7 3.4 235.7 7.9L253.9 50.3C255.7 54.4 256.6 58.9 256.6 63.4V64.5C256.6 82.2 242.3 96.5 224.6 96.5C206.9 96.5 192.6 82.2 192.6 64.5V63.3C192.6 58.8 193.5 54.4 195.3 50.2L195.1 50.3ZM309.3 7.9C311.3 3.4 315.6 0.5 320.5 0.5C325.4 0.5 329.7 3.4 331.7 7.9L349.9 50.3C351.7 54.4 352.6 58.9 352.6 63.4V64.5C352.6 82.2 338.3 96.5 320.6 96.5C302.9 96.5 288.6 82.2 288.6 64.5V63.3C288.6 58.8 289.5 54.4 291.3 50.2L309.3 7.9ZM387.1 50.3L405.3 7.9C407.3 3.4 411.6 0.5 416.5 0.5C421.4 0.5 425.7 3.4 427.7 7.9L445.9 50.3C447.7 54.4 448.6 58.9 448.6 63.4V64.5C448.6 82.2 434.3 96.5 416.6 96.5C398.9 96.5 384.6 82.2 384.6 64.5V63.3C384.6 58.8 385.5 54.4 387.3 50.2L387.1 50.3ZM501.3 7.9C503.3 3.4 507.6 0.5 512.5 0.5C517.4 0.5 521.7 3.4 523.7 7.9L541.9 50.3C543.7 54.4 544.6 58.9 544.6 63.4V64.5C544.6 82.2 530.3 96.5 512.6 96.5C494.9 96.5 480.6 82.2 480.6 64.5V63.3C480.6 58.8 481.5 54.4 483.3 50.2L501.3 7.9ZM579.1 50.3L597.3 7.9C599.3 3.4 603.6 0.5 608.5 0.5C613.4 0.5 617.7 3.4 619.7 7.9L637.9 50.3C639.7 54.4 640.6 58.9 640.6 63.4V64.5C640.6 82.2 626.3 96.5 608.6 96.5C590.9 96.5 576.6 82.2 576.6 64.5V63.3C576.6 58.8 577.5 54.4 579.3 50.2L579.1 50.3ZM32.5 128.5C50.2 128.5 64.5 142.8 64.5 160.5V288.5C64.5 306.2 78.8 320.5 96.5 320.5H288.5V160.5C288.5 142.8 302.8 128.5 320.5 128.5C338.2 128.5 352.5 142.8 352.5 160.5V320.5H544.5C562.2 320.5 576.5 306.2 576.5 288.5V160.5C576.5 142.8 590.8 128.5 608.5 128.5C626.2 128.5 640.5 142.8 640.5 160.5V288.5C640.5 341.5 597.5 384.5 544.5 384.5H352.5V448.5H480.5C498.2 448.5 512.5 462.8 512.5 480.5C512.5 498.2 498.2 512.5 480.5 512.5H320.5H160.5C142.8 512.5 128.5 498.2 128.5 480.5C128.5 462.8 142.8 448.5 160.5 448.5H288.5V384.5H96.5C43.5 384.5 0.5 341.5 0.5 288.5V160.5C0.5 142.8 14.8 128.5 32.5 128.5ZM128.5 128.5C146.2 128.5 160.5 142.8 160.5 160.5V256.5V288.5H96.5V256.5V160.5C96.5 142.8 110.8 128.5 128.5 128.5ZM224.5 128.5C242.2 128.5 256.5 142.8 256.5 160.5V256.5V288.5H192.5V256.5V160.5C192.5 142.8 206.8 128.5 224.5 128.5ZM416.5 128.5C434.2 128.5 448.5 142.8 448.5 160.5V256.5V288.5H384.5V256.5V160.5C384.5 142.8 398.8 128.5 416.5 128.5ZM512.5 128.5C530.2 128.5 544.5 142.8 544.5 160.5V256.5V288.5H480.5V256.5V160.5C480.5 142.8 494.8 128.5 512.5 128.5Z" fill="#47535F"/>
</g>
<defs>
<clipPath id="clip0_104_1956">
<rect width="640" height="512" fill="white" transform="translate(0.5 0.5)"/>
</clipPath>
</defs>
</svg>
