<svg width="385" height="513" viewBox="0 0 385 513" fill="none" xmlns="http://www.w3.org/2000/svg">
<g clip-path="url(#clip0_104_1958)">
<path d="M72.6 7.5C86.3 -3.5 106.5 -1.3 117.5 12.5C135.1 34.5 162.2 48.5 192.5 48.5C222.8 48.5 249.8 34.5 267.5 12.5C278.6 -1.3 298.7 -3.5 312.5 7.5C326.3 18.5 328.5 38.7 317.5 52.5C309.7 62.2 300.9 70.9 291.1 78.6C337.8 110.2 368.5 163.8 368.5 224.5C368.5 313.6 302.3 387.2 216.5 398.9V424.5H248.5C261.8 424.5 272.5 435.2 272.5 448.5C272.5 461.8 261.8 472.5 248.5 472.5H216.5V488.5C216.5 501.8 205.8 512.5 192.5 512.5C179.2 512.5 168.5 501.8 168.5 488.5V472.5H136.5C123.2 472.5 112.5 461.8 112.5 448.5C112.5 435.2 123.2 424.5 136.5 424.5H168.5V398.9C82.7 387.2 16.5 313.6 16.5 224.5C16.5 163.8 47.2 110.2 94 78.6C84.2 71 75.4 62.2 67.6 52.5C56.5 38.7 58.8 18.6 72.6 7.5ZM80.5 224.5C80.5 239.208 83.397 253.772 89.0255 267.361C94.654 280.949 102.904 293.296 113.304 303.696C123.704 314.096 136.051 322.346 149.639 327.975C163.228 333.603 177.792 336.5 192.5 336.5C207.208 336.5 221.772 333.603 235.361 327.975C248.949 322.346 261.296 314.096 271.696 303.696C282.096 293.296 290.346 280.949 295.975 267.361C301.603 253.772 304.5 239.208 304.5 224.5C304.5 209.792 301.603 195.228 295.975 181.639C290.346 168.051 282.096 155.704 271.696 145.304C261.296 134.904 248.949 126.654 235.361 121.025C221.772 115.397 207.208 112.5 192.5 112.5C177.792 112.5 163.228 115.397 149.639 121.025C136.051 126.654 123.704 134.904 113.304 145.304C102.904 155.704 94.654 168.051 89.0255 181.639C83.397 195.228 80.5 209.792 80.5 224.5Z" fill="#47535F"/>
</g>
<defs>
<clipPath id="clip0_104_1958">
<rect width="384" height="512" fill="white" transform="translate(0.5 0.5)"/>
</clipPath>
</defs>
</svg>
