<svg width="513" height="513" viewBox="0 0 513 513" fill="none" xmlns="http://www.w3.org/2000/svg">
<g clip-path="url(#clip0_104_1962)">
<path d="M494.2 1.4L299.9 76.1L302.2 46.8C303.2 34 289.4 25.3 278.2 31.7L101.8 133.9C39.1 170.2 0.5 237.1 0.5 309.5C0.5 421.6 91.4 512.5 203.5 512.5C275.9 512.5 342.9 473.9 379.2 411.2L481.3 234.8C487.8 223.7 479.1 209.8 466.2 210.8L436.9 213.1L511.6 18.8C512.2 17.3 512.5 15.6 512.5 14C512.5 6.5 506.5 0.5 499 0.5C497.3 0.5 495.7 0.8 494.2 1.4ZM192.5 192.5C226.448 192.5 259.005 205.986 283.01 229.99C307.014 253.995 320.5 286.552 320.5 320.5C320.5 354.448 307.014 387.005 283.01 411.01C259.005 435.014 226.448 448.5 192.5 448.5C158.552 448.5 125.995 435.014 101.99 411.01C77.9857 387.005 64.5 354.448 64.5 320.5C64.5 286.552 77.9857 253.995 101.99 229.99C125.995 205.986 158.552 192.5 192.5 192.5ZM192.5 288.5C192.5 280.013 189.129 271.874 183.127 265.873C177.126 259.871 168.987 256.5 160.5 256.5C152.013 256.5 143.874 259.871 137.873 265.873C131.871 271.874 128.5 280.013 128.5 288.5C128.5 296.987 131.871 305.126 137.873 311.127C143.874 317.129 152.013 320.5 160.5 320.5C168.987 320.5 177.126 317.129 183.127 311.127C189.129 305.126 192.5 296.987 192.5 288.5ZM208.5 384.5C212.743 384.5 216.813 382.814 219.814 379.814C222.814 376.813 224.5 372.743 224.5 368.5C224.5 364.257 222.814 360.187 219.814 357.186C216.813 354.186 212.743 352.5 208.5 352.5C204.257 352.5 200.187 354.186 197.186 357.186C194.186 360.187 192.5 364.257 192.5 368.5C192.5 372.743 194.186 376.813 197.186 379.814C200.187 382.814 204.257 384.5 208.5 384.5Z" fill="#47535F"/>
</g>
<defs>
<clipPath id="clip0_104_1962">
<rect width="512" height="512" fill="white" transform="translate(0.5 0.5)"/>
</clipPath>
</defs>
</svg>
