<svg width="385" height="513" viewBox="0 0 385 513" fill="none" xmlns="http://www.w3.org/2000/svg">
<g clip-path="url(#clip0_104_1968)">
<path d="M96.5 96.5V256.5C96.5 309.5 139.5 352.5 192.5 352.5C245.5 352.5 288.5 309.5 288.5 256.5H208.5C199.7 256.5 192.5 249.3 192.5 240.5C192.5 231.7 199.7 224.5 208.5 224.5H288.5V192.5H208.5C199.7 192.5 192.5 185.3 192.5 176.5C192.5 167.7 199.7 160.5 208.5 160.5H288.5V128.5H208.5C199.7 128.5 192.5 121.3 192.5 112.5C192.5 103.7 199.7 96.5 208.5 96.5H288.5C288.5 43.5 245.5 0.5 192.5 0.5C139.5 0.5 96.5 43.5 96.5 96.5ZM320.5 240.5V256.5C320.5 327.2 263.2 384.5 192.5 384.5C121.8 384.5 64.5 327.2 64.5 256.5V216.5C64.5 203.2 53.8 192.5 40.5 192.5C27.2 192.5 16.5 203.2 16.5 216.5V256.5C16.5 345.6 82.7 419.2 168.5 430.9V464.5H120.5C107.2 464.5 96.5 475.2 96.5 488.5C96.5 501.8 107.2 512.5 120.5 512.5H192.5H264.5C277.8 512.5 288.5 501.8 288.5 488.5C288.5 475.2 277.8 464.5 264.5 464.5H216.5V430.9C302.3 419.2 368.5 345.6 368.5 256.5V216.5C368.5 203.2 357.8 192.5 344.5 192.5C331.2 192.5 320.5 203.2 320.5 216.5V240.5Z" fill="#47535F"/>
</g>
<defs>
<clipPath id="clip0_104_1968">
<rect width="384" height="512" fill="white" transform="translate(0.5 0.5)"/>
</clipPath>
</defs>
</svg>
