<svg width="513" height="513" viewBox="0 0 513 513" fill="none" xmlns="http://www.w3.org/2000/svg">
<g clip-path="url(#clip0_104_1964)">
<path d="M176.5 24.5C176.5 11.2 165.8 0.5 152.5 0.5C139.2 0.5 128.5 11.2 128.5 24.5V64.5C93.2 64.5 64.5 93.2 64.5 128.5H24.5C11.2 128.5 0.5 139.2 0.5 152.5C0.5 165.8 11.2 176.5 24.5 176.5H64.5V232.5H24.5C11.2 232.5 0.5 243.2 0.5 256.5C0.5 269.8 11.2 280.5 24.5 280.5H64.5V336.5H24.5C11.2 336.5 0.5 347.2 0.5 360.5C0.5 373.8 11.2 384.5 24.5 384.5H64.5C64.5 419.8 93.2 448.5 128.5 448.5V488.5C128.5 501.8 139.2 512.5 152.5 512.5C165.8 512.5 176.5 501.8 176.5 488.5V448.5H232.5V488.5C232.5 501.8 243.2 512.5 256.5 512.5C269.8 512.5 280.5 501.8 280.5 488.5V448.5H336.5V488.5C336.5 501.8 347.2 512.5 360.5 512.5C373.8 512.5 384.5 501.8 384.5 488.5V448.5C419.8 448.5 448.5 419.8 448.5 384.5H488.5C501.8 384.5 512.5 373.8 512.5 360.5C512.5 347.2 501.8 336.5 488.5 336.5H448.5V280.5H488.5C501.8 280.5 512.5 269.8 512.5 256.5C512.5 243.2 501.8 232.5 488.5 232.5H448.5V176.5H488.5C501.8 176.5 512.5 165.8 512.5 152.5C512.5 139.2 501.8 128.5 488.5 128.5H448.5C448.5 93.2 419.8 64.5 384.5 64.5V24.5C384.5 11.2 373.8 0.5 360.5 0.5C347.2 0.5 336.5 11.2 336.5 24.5V64.5H280.5V24.5C280.5 11.2 269.8 0.5 256.5 0.5C243.2 0.5 232.5 11.2 232.5 24.5V64.5H176.5V24.5ZM160.5 128.5H352.5C370.2 128.5 384.5 142.8 384.5 160.5V352.5C384.5 370.2 370.2 384.5 352.5 384.5H160.5C142.8 384.5 128.5 370.2 128.5 352.5V160.5C128.5 142.8 142.8 128.5 160.5 128.5ZM352.5 160.5H160.5V352.5H352.5V160.5Z" fill="#47535F"/>
</g>
<defs>
<clipPath id="clip0_104_1964">
<rect width="512" height="512" fill="white" transform="translate(0.5 0.5)"/>
</clipPath>
</defs>
</svg>
