<svg width="513" height="513" viewBox="0 0 513 513" fill="none" xmlns="http://www.w3.org/2000/svg">
<g clip-path="url(#clip0_104_1974)">
<path d="M160.5 32.5C160.5 14.8 174.8 0.5 192.5 0.5H224.5C242.2 0.5 256.5 14.8 256.5 32.5C274.2 32.5 288.5 46.8 288.5 64.5V288.5C288.5 306.2 274.2 320.5 256.5 320.5C256.5 338.2 242.2 352.5 224.5 352.5H192.5C174.8 352.5 160.5 338.2 160.5 320.5C142.8 320.5 128.5 306.2 128.5 288.5V64.5C128.5 46.8 142.8 32.5 160.5 32.5ZM32.5 448.5H320.5C391.2 448.5 448.5 391.2 448.5 320.5C448.5 249.8 391.2 192.5 320.5 192.5V128.5C426.5 128.5 512.5 214.5 512.5 320.5C512.5 369.7 494 414.5 463.6 448.5H480.5C498.2 448.5 512.5 462.8 512.5 480.5C512.5 498.2 498.2 512.5 480.5 512.5H320.5H32.5C14.8 512.5 0.5 498.2 0.5 480.5C0.5 462.8 14.8 448.5 32.5 448.5ZM112.5 384.5H304.5C313.3 384.5 320.5 391.7 320.5 400.5C320.5 409.3 313.3 416.5 304.5 416.5H112.5C103.7 416.5 96.5 409.3 96.5 400.5C96.5 391.7 103.7 384.5 112.5 384.5Z" fill="#47535F"/>
</g>
<defs>
<clipPath id="clip0_104_1974">
<rect width="512" height="512" fill="white" transform="translate(0.5 0.5)"/>
</clipPath>
</defs>
</svg>
