<svg width="641" height="513" viewBox="0 0 641 513" fill="none" xmlns="http://www.w3.org/2000/svg">
<g clip-path="url(#clip0_104_1970)">
<path d="M39.2998 5.60001C28.8998 -2.59999 13.7998 -0.699994 5.59976 9.70001C-2.60024 20.1 -0.700238 35.2 9.69976 43.4L601.7 507.4C612.1 515.6 627.2 513.7 635.4 503.3C643.6 492.9 641.7 477.8 631.3 469.6L472.6 345.2C487.8 319.2 496.5 288.9 496.5 256.5V216.5C496.5 203.2 485.8 192.5 472.5 192.5C459.2 192.5 448.5 203.2 448.5 216.5V240.5V256.5C448.5 277.7 443.4 297.6 434.3 315.2L416.5 301.3V256.5H359.4L324.9 229.5C327.8 226.4 331.9 224.5 336.5 224.5H416.5V192.5H336.5C327.7 192.5 320.5 185.3 320.5 176.5C320.5 167.7 327.7 160.5 336.5 160.5H416.5V128.5H336.5C327.7 128.5 320.5 121.3 320.5 112.5C320.5 103.7 327.7 96.5 336.5 96.5H416.5C416.5 43.5 373.5 0.500006 320.5 0.500006C267.5 0.500006 224.5 43.5 224.5 96.5V150.8L39.2998 5.60001ZM401.8 412.6L358.7 378.7C346.6 382.5 333.8 384.5 320.5 384.5C249.8 384.5 192.5 327.2 192.5 256.5V247.8L145.2 210.5C144.7 212.4 144.5 214.4 144.5 216.5V256.5C144.5 345.6 210.7 419.2 296.5 430.9V464.5H248.5C235.2 464.5 224.5 475.2 224.5 488.5C224.5 501.8 235.2 512.5 248.5 512.5H320.5H392.5C405.8 512.5 416.5 501.8 416.5 488.5C416.5 475.2 405.8 464.5 392.5 464.5H344.5V430.9C364.9 428.1 384.2 421.8 401.8 412.7V412.6Z" fill="#47535F"/>
</g>
<defs>
<clipPath id="clip0_104_1970">
<rect width="640" height="512" fill="white" transform="translate(0.5 0.5)"/>
</clipPath>
</defs>
</svg>
