<svg width="385" height="513" viewBox="0 0 385 513" fill="none" xmlns="http://www.w3.org/2000/svg">
<g clip-path="url(#clip0_104_1976)">
<path d="M302.6 43.2999C308.5 26.6999 299.9 8.29991 283.2 2.39991C266.5 -3.50009 248.2 5.09991 242.3 21.7999L208.5 116.6C202.8 120.6 197.4 125.1 192.5 130.1C172.2 109.4 143.8 96.4999 112.5 96.4999C93 96.4999 74.7 101.5 58.8 110.2C53 101.9 43.4 96.4999 32.5 96.4999C14.8 96.4999 0.5 110.8 0.5 128.5V208.5V416.5C0.5 434.2 14.8 448.5 32.5 448.5C50.2 448.5 64.5 434.2 64.5 416.5V208.5C64.5 182 86 160.5 112.5 160.5C139 160.5 160.5 182 160.5 208.5V251L82.4 469.7C76.5 486.3 85.1 504.7 101.8 510.6C118.5 516.5 136.8 507.9 142.7 491.2L164.1 431.2C169.4 441.5 180.1 448.5 192.5 448.5C210.2 448.5 224.5 434.2 224.5 416.5V262L260.2 162C264.1 161 268.3 160.4 272.5 160.4C299 160.4 320.5 181.9 320.5 208.4V416.5C320.5 434.2 334.8 448.5 352.5 448.5C370.2 448.5 384.5 434.2 384.5 416.5V208.5C384.5 150.3 340.2 102.5 283.4 96.9999L302.6 43.1999V43.2999Z" fill="#47535F"/>
</g>
<defs>
<clipPath id="clip0_104_1976">
<rect width="384" height="512" fill="white" transform="translate(0.5 0.5)"/>
</clipPath>
</defs>
</svg>
