<svg width="513" height="513" viewBox="0 0 513 513" fill="none" xmlns="http://www.w3.org/2000/svg">
<g clip-path="url(#clip0_104_1978)">
<path d="M456.5 224.5H312.5C299.2 224.5 288.5 213.8 288.5 200.5V56.5C288.5 46.8 294.3 38 303.3 34.3C312.3 30.6 322.6 32.6 329.5 39.5L369.5 79.5L442.8 6.2C446.5 2.5 451.4 0.5 456.5 0.5C461.6 0.5 466.5 2.5 470.2 6.2L506.9 42.9C510.5 46.5 512.5 51.4 512.5 56.5C512.5 61.6 510.5 66.5 506.8 70.2L433.5 143.5L473.5 183.5C480.4 190.4 482.4 200.7 478.7 209.7C475 218.7 466.2 224.5 456.5 224.5ZM456.5 288.5C466.2 288.5 475 294.3 478.7 303.3C482.4 312.3 480.4 322.6 473.5 329.5L433.5 369.5L506.9 442.9C510.5 446.5 512.6 451.4 512.6 456.6C512.6 461.8 510.6 466.6 506.9 470.3L470.2 507C466.5 510.5 461.6 512.5 456.5 512.5C451.4 512.5 446.5 510.5 442.8 506.8L369.5 433.5L329.5 473.5C322.6 480.4 312.3 482.4 303.3 478.7C294.3 475 288.5 466.2 288.5 456.5V312.5C288.5 299.2 299.2 288.5 312.5 288.5H456.5ZM200.5 288.5C213.8 288.5 224.5 299.2 224.5 312.5V456.5C224.5 466.2 218.7 475 209.7 478.7C200.7 482.4 190.4 480.4 183.5 473.5L143.5 433.5L70.2 506.8C66.5 510.5 61.6 512.5 56.5 512.5C51.4 512.5 46.5 510.5 42.8 506.8L6.2 470.2C2.5 466.5 0.5 461.6 0.5 456.5C0.5 451.4 2.5 446.5 6.2 442.8L79.5 369.5L39.5 329.5C32.6 322.6 30.6 312.3 34.3 303.3C38 294.3 46.8 288.5 56.5 288.5H200.5ZM56.5 224.5C46.8 224.5 38 218.7 34.3 209.7C30.6 200.7 32.6 190.4 39.5 183.5L79.5 143.5L6.2 70.2C2.5 66.5 0.5 61.6 0.5 56.5C0.5 51.4 2.5 46.5 6.2 42.8L42.8 6.2C46.5 2.5 51.4 0.5 56.5 0.5C61.6 0.5 66.5 2.5 70.2 6.2L143.5 79.5L183.5 39.5C190.4 32.6 200.7 30.6 209.7 34.3C218.7 38 224.5 46.8 224.5 56.5V200.5C224.5 213.8 213.8 224.5 200.5 224.5H56.5Z" fill="#47535F"/>
</g>
<defs>
<clipPath id="clip0_104_1978">
<rect width="512" height="512" fill="white" transform="translate(0.5 0.5)"/>
</clipPath>
</defs>
</svg>
