<svg width="449" height="513" viewBox="0 0 449 513" fill="none" xmlns="http://www.w3.org/2000/svg">
<g clip-path="url(#clip0_104_1982)">
<path d="M352.5 384.5H64.5L5.9 179.4C2.3 166.9 0.5 153.9 0.5 140.8C0.5 63.3 63.3 0.5 140.8 0.5H144.2C210.2 0.5 267.7 45.4 283.7 109.4L315.1 235.2L332.7 215.1C345.3 200.7 363.4 192.5 382.5 192.5H385.3C420.2 192.5 448.6 220.8 448.6 255.8C448.6 271.7 442.6 287 431.8 298.7L352.5 384.5ZM32.5 448.5C32.5 430.8 46.8 416.5 64.5 416.5H352.5C370.2 416.5 384.5 430.8 384.5 448.5V480.5C384.5 498.2 370.2 512.5 352.5 512.5H64.5C46.8 512.5 32.5 498.2 32.5 480.5V448.5Z" fill="#47535F"/>
</g>
<defs>
<clipPath id="clip0_104_1982">
<rect width="448" height="512" fill="white" transform="translate(0.5 0.5)"/>
</clipPath>
</defs>
</svg>
