<svg width="385" height="513" viewBox="0 0 385 513" fill="none" xmlns="http://www.w3.org/2000/svg">
<g clip-path="url(#clip0_104_1986)">
<path d="M80.5 0.5C45.2 0.5 16.5 29.2 16.5 64.5V448.5C16.5 483.8 45.2 512.5 80.5 512.5H304.5C339.8 512.5 368.5 483.8 368.5 448.5V64.5C368.5 29.2 339.8 0.5 304.5 0.5H80.5ZM192.5 400.5C200.987 400.5 209.126 403.871 215.127 409.873C221.129 415.874 224.5 424.013 224.5 432.5C224.5 440.987 221.129 449.126 215.127 455.127C209.126 461.129 200.987 464.5 192.5 464.5C184.013 464.5 175.874 461.129 169.873 455.127C163.871 449.126 160.5 440.987 160.5 432.5C160.5 424.013 163.871 415.874 169.873 409.873C175.874 403.871 184.013 400.5 192.5 400.5Z" fill="#47535F"/>
</g>
<defs>
<clipPath id="clip0_104_1986">
<rect width="384" height="512" fill="white" transform="translate(0.5 0.5)"/>
</clipPath>
</defs>
</svg>
