<svg width="385" height="513" viewBox="0 0 385 513" fill="none" xmlns="http://www.w3.org/2000/svg">
<g clip-path="url(#clip0_104_1992)">
<path d="M16.5 64.5C16.5 29.2 45.2 0.5 80.5 0.5H304.5C339.8 0.5 368.5 29.2 368.5 64.5V448.5C368.5 483.8 339.8 512.5 304.5 512.5H80.5C45.2 512.5 16.5 483.8 16.5 448.5V64.5ZM224.5 448.5C224.5 440.013 221.129 431.874 215.127 425.873C209.126 419.871 200.987 416.5 192.5 416.5C184.013 416.5 175.874 419.871 169.873 425.873C163.871 431.874 160.5 440.013 160.5 448.5C160.5 456.987 163.871 465.126 169.873 471.127C175.874 477.129 184.013 480.5 192.5 480.5C200.987 480.5 209.126 477.129 215.127 471.127C221.129 465.126 224.5 456.987 224.5 448.5ZM304.5 64.5H80.5V384.5H304.5V64.5Z" fill="#47535F"/>
</g>
<defs>
<clipPath id="clip0_104_1992">
<rect width="384" height="512" fill="white" transform="translate(0.5 0.5)"/>
</clipPath>
</defs>
</svg>
