<svg width="385" height="513" viewBox="0 0 385 513" fill="none" xmlns="http://www.w3.org/2000/svg">
<g clip-path="url(#clip0_104_1990)">
<path d="M16.5 64.5C16.5 29.2 45.2 0.5 80.5 0.5H304.5C339.8 0.5 368.5 29.2 368.5 64.5V448.5C368.5 483.8 339.8 512.5 304.5 512.5H80.5C45.2 512.5 16.5 483.8 16.5 448.5V64.5ZM144.5 448.5C144.5 457.3 151.7 464.5 160.5 464.5H224.5C233.3 464.5 240.5 457.3 240.5 448.5C240.5 439.7 233.3 432.5 224.5 432.5H160.5C151.7 432.5 144.5 439.7 144.5 448.5ZM304.5 64.5H80.5V384.5H304.5V64.5Z" fill="#47535F"/>
</g>
<defs>
<clipPath id="clip0_104_1990">
<rect width="384" height="512" fill="white" transform="translate(0.5 0.5)"/>
</clipPath>
</defs>
</svg>
