<svg width="321" height="513" viewBox="0 0 321 513" fill="none" xmlns="http://www.w3.org/2000/svg">
<g clip-path="url(#clip0_104_1988)">
<path d="M0.5 64.5C0.5 29.2 29.2 0.5 64.5 0.5H256.5C291.8 0.5 320.5 29.2 320.5 64.5V448.5C320.5 483.8 291.8 512.5 256.5 512.5H64.5C29.2 512.5 0.5 483.8 0.5 448.5V64.5ZM64.5 160.5V224.5C64.5 242.2 78.8 256.5 96.5 256.5H224.5C242.2 256.5 256.5 242.2 256.5 224.5V160.5C256.5 142.8 242.2 128.5 224.5 128.5H96.5C78.8 128.5 64.5 142.8 64.5 160.5ZM80.5 352.5C86.8652 352.5 92.9697 349.971 97.4706 345.471C101.971 340.97 104.5 334.865 104.5 328.5C104.5 322.135 101.971 316.03 97.4706 311.529C92.9697 307.029 86.8652 304.5 80.5 304.5C74.1348 304.5 68.0303 307.029 63.5294 311.529C59.0286 316.03 56.5 322.135 56.5 328.5C56.5 334.865 59.0286 340.97 63.5294 345.471C68.0303 349.971 74.1348 352.5 80.5 352.5ZM104.5 408.5C104.5 402.135 101.971 396.03 97.4706 391.529C92.9697 387.029 86.8652 384.5 80.5 384.5C74.1348 384.5 68.0303 387.029 63.5294 391.529C59.0286 396.03 56.5 402.135 56.5 408.5C56.5 414.865 59.0286 420.97 63.5294 425.471C68.0303 429.971 74.1348 432.5 80.5 432.5C86.8652 432.5 92.9697 429.971 97.4706 425.471C101.971 420.97 104.5 414.865 104.5 408.5ZM160.5 352.5C166.865 352.5 172.97 349.971 177.471 345.471C181.971 340.97 184.5 334.865 184.5 328.5C184.5 322.135 181.971 316.03 177.471 311.529C172.97 307.029 166.865 304.5 160.5 304.5C154.135 304.5 148.03 307.029 143.529 311.529C139.029 316.03 136.5 322.135 136.5 328.5C136.5 334.865 139.029 340.97 143.529 345.471C148.03 349.971 154.135 352.5 160.5 352.5ZM184.5 408.5C184.5 402.135 181.971 396.03 177.471 391.529C172.97 387.029 166.865 384.5 160.5 384.5C154.135 384.5 148.03 387.029 143.529 391.529C139.029 396.03 136.5 402.135 136.5 408.5C136.5 414.865 139.029 420.97 143.529 425.471C148.03 429.971 154.135 432.5 160.5 432.5C166.865 432.5 172.97 429.971 177.471 425.471C181.971 420.97 184.5 414.865 184.5 408.5ZM240.5 352.5C246.865 352.5 252.97 349.971 257.471 345.471C261.971 340.97 264.5 334.865 264.5 328.5C264.5 322.135 261.971 316.03 257.471 311.529C252.97 307.029 246.865 304.5 240.5 304.5C234.135 304.5 228.03 307.029 223.529 311.529C219.029 316.03 216.5 322.135 216.5 328.5C216.5 334.865 219.029 340.97 223.529 345.471C228.03 349.971 234.135 352.5 240.5 352.5ZM264.5 408.5C264.5 402.135 261.971 396.03 257.471 391.529C252.97 387.029 246.865 384.5 240.5 384.5C234.135 384.5 228.03 387.029 223.529 391.529C219.029 396.03 216.5 402.135 216.5 408.5C216.5 414.865 219.029 420.97 223.529 425.471C228.03 429.971 234.135 432.5 240.5 432.5C246.865 432.5 252.97 429.971 257.471 425.471C261.971 420.97 264.5 414.865 264.5 408.5ZM128.5 48.5C119.7 48.5 112.5 55.7 112.5 64.5C112.5 73.3 119.7 80.5 128.5 80.5H192.5C201.3 80.5 208.5 73.3 208.5 64.5C208.5 55.7 201.3 48.5 192.5 48.5H128.5Z" fill="#47535F"/>
</g>
<defs>
<clipPath id="clip0_104_1988">
<rect width="320" height="512" fill="white" transform="translate(0.5 0.5)"/>
</clipPath>
</defs>
</svg>
