<svg width="577" height="513" viewBox="0 0 577 513" fill="none" xmlns="http://www.w3.org/2000/svg">
<g clip-path="url(#clip0_104_2006)">
<path d="M0.5 113V422.8C0.5 440.8 10.6 457.8 27.5 464.1C114.5 496.6 201.5 474.4 288.5 452.2C368.3 431.9 448.1 411.5 527.8 433.3C550.8 439.6 576.5 423.8 576.5 399.9V90.2C576.5 72.2 566.4 55.2 549.5 48.9C462.5 16.4 375.5 38.6 288.5 60.8C208.7 81.1 128.9 101.4 49.2 79.6C26.1 73.3 0.5 89.1 0.5 113ZM288.5 352.5C244.3 352.5 208.5 309.5 208.5 256.5C208.5 203.5 244.3 160.5 288.5 160.5C332.7 160.5 368.5 203.5 368.5 256.5C368.5 309.5 332.7 352.5 288.5 352.5ZM64.5 352.5C99.8 352.5 128.5 381.2 128.5 416.5H64.5V352.5ZM128.5 144.5C128.5 179.8 99.8 208.5 64.5 208.5V144.5H128.5ZM512.5 304.5V368.5H448.5C448.5 333.2 477.2 304.5 512.5 304.5ZM448.5 96.5H512.5V160.5C477.2 160.5 448.5 131.8 448.5 96.5Z" fill="#47535F"/>
</g>
<defs>
<clipPath id="clip0_104_2006">
<rect width="576" height="512" fill="white" transform="translate(0.5 0.5)"/>
</clipPath>
</defs>
</svg>
