<svg width="577" height="513" viewBox="0 0 577 513" fill="none" xmlns="http://www.w3.org/2000/svg">
<g clip-path="url(#clip0_104_1996)">
<path d="M64.5 64.5C29.2 64.5 0.5 93.2 0.5 128.5V384.5C0.5 419.8 29.2 448.5 64.5 448.5H512.5C547.8 448.5 576.5 419.8 576.5 384.5V128.5C576.5 93.2 547.8 64.5 512.5 64.5H64.5ZM128.5 384.5H64.5V320.5C99.8 320.5 128.5 349.2 128.5 384.5ZM64.5 192.5V128.5H128.5C128.5 163.8 99.8 192.5 64.5 192.5ZM448.5 384.5C448.5 349.2 477.2 320.5 512.5 320.5V384.5H448.5ZM512.5 192.5C477.2 192.5 448.5 163.8 448.5 128.5H512.5V192.5ZM176.5 256.5C176.5 241.792 179.397 227.228 185.025 213.639C190.654 200.051 198.904 187.704 209.304 177.304C219.704 166.904 232.051 158.654 245.639 153.025C259.228 147.397 273.792 144.5 288.5 144.5C303.208 144.5 317.772 147.397 331.361 153.025C344.949 158.654 357.296 166.904 367.696 177.304C378.096 187.704 386.346 200.051 391.975 213.639C397.603 227.228 400.5 241.792 400.5 256.5C400.5 271.208 397.603 285.772 391.975 299.361C386.346 312.949 378.096 325.296 367.696 335.696C357.296 346.096 344.949 354.346 331.361 359.975C317.772 365.603 303.208 368.5 288.5 368.5C273.792 368.5 259.228 365.603 245.639 359.975C232.051 354.346 219.704 346.096 209.304 335.696C198.904 325.296 190.654 312.949 185.025 299.361C179.397 285.772 176.5 271.208 176.5 256.5ZM252.5 208.5C252.5 218.2 259.4 226.2 268.5 228.1V276.5H264.5C253.5 276.5 244.5 285.5 244.5 296.5C244.5 307.5 253.5 316.5 264.5 316.5H288.5H312.5C323.5 316.5 332.5 307.5 332.5 296.5C332.5 285.5 323.5 276.5 312.5 276.5H308.5V208.5C308.5 197.5 299.5 188.5 288.5 188.5H272.5C261.5 188.5 252.5 197.5 252.5 208.5Z" fill="#47535F"/>
</g>
<defs>
<clipPath id="clip0_104_1996">
<rect width="576" height="512" fill="white" transform="translate(0.5 0.5)"/>
</clipPath>
</defs>
</svg>
