<svg width="577" height="513" viewBox="0 0 577 513" fill="none" xmlns="http://www.w3.org/2000/svg">
<g clip-path="url(#clip0_104_2012)">
<path d="M64.5 64.5C29.2 64.5 0.5 93.2 0.5 128.5V384.5C0.5 419.8 29.2 448.5 64.5 448.5H512.5C547.8 448.5 576.5 419.8 576.5 384.5V128.5C576.5 93.2 547.8 64.5 512.5 64.5H64.5ZM272.5 192.5H496.5C505.3 192.5 512.5 199.7 512.5 208.5C512.5 217.3 505.3 224.5 496.5 224.5H272.5C263.7 224.5 256.5 217.3 256.5 208.5C256.5 199.7 263.7 192.5 272.5 192.5ZM256.5 304.5C256.5 295.7 263.7 288.5 272.5 288.5H496.5C505.3 288.5 512.5 295.7 512.5 304.5C512.5 313.3 505.3 320.5 496.5 320.5H272.5C263.7 320.5 256.5 313.3 256.5 304.5ZM164.5 152.5V166.4C172 167.6 179.1 169.3 185.6 171.1C196.3 173.9 202.6 184.9 199.8 195.6C197 206.3 186 212.6 175.3 209.8C164.3 206.9 153.7 204.8 144.1 204.6C136.2 204.5 128.1 206.4 122.6 209.6C117.8 212.4 116.4 215.2 116.4 218.9C116.4 220.7 116.5 222.4 121.7 225.6C128 229.4 137.2 232.3 150 236.1L150.7 236.3C161.9 239.7 176.3 244 187.8 251.3C200.7 259.4 212.1 272.6 212.4 292.9C212.7 313.8 201.9 329 187.6 337.9C180.4 342.4 172.4 345.2 164.4 346.9V360.5C164.4 371.5 155.4 380.5 144.4 380.5C133.4 380.5 124.4 371.5 124.4 360.5V345.9C114.1 343.7 104.4 340.4 96.2 337.5C94.1 336.8 92.1 336.1 90.1 335.4C79.6 331.9 74 320.6 77.5 310.1C81 299.6 92.3 294 102.8 297.5C105.3 298.3 107.7 299.2 110 299.9C123.6 304.5 134 308 145.1 308.4C153.7 308.7 161.6 306.8 166.5 303.7C170.6 301.2 172.5 298.2 172.4 293.2C172.4 290.3 171.6 288.2 166.5 285C160.2 281 151.1 278.1 138.5 274.3L136.8 273.8C125.9 270.5 112.2 266.4 101.2 259.8C88.5 252.1 76.6 239.3 76.5 219.1C76.4 198 88.3 183.4 102.3 175.2C109.2 171.1 116.8 168.4 124.5 166.7V152.5C124.5 141.5 133.5 132.5 144.5 132.5C155.5 132.5 164.5 141.5 164.5 152.5Z" fill="#47535F"/>
</g>
<defs>
<clipPath id="clip0_104_2012">
<rect width="576" height="512" fill="white" transform="translate(0.5 0.5)"/>
</clipPath>
</defs>
</svg>
