<svg width="577" height="513" viewBox="0 0 577 513" fill="none" xmlns="http://www.w3.org/2000/svg">
<g clip-path="url(#clip0_104_2010)">
<path d="M64.5 64.5C29.2 64.5 0.5 93.2 0.5 128.5V384.5C0.5 419.8 29.2 448.5 64.5 448.5H512.5C547.8 448.5 576.5 419.8 576.5 384.5V128.5C576.5 93.2 547.8 64.5 512.5 64.5H64.5ZM112.5 224.5H272.5C281.3 224.5 288.5 231.7 288.5 240.5C288.5 249.3 281.3 256.5 272.5 256.5H112.5C103.7 256.5 96.5 249.3 96.5 240.5C96.5 231.7 103.7 224.5 112.5 224.5ZM96.5 336.5C96.5 327.7 103.7 320.5 112.5 320.5H464.5C473.3 320.5 480.5 327.7 480.5 336.5C480.5 345.3 473.3 352.5 464.5 352.5H112.5C103.7 352.5 96.5 345.3 96.5 336.5ZM376.5 160.5H456.5C469.8 160.5 480.5 171.2 480.5 184.5V232.5C480.5 245.8 469.8 256.5 456.5 256.5H376.5C363.2 256.5 352.5 245.8 352.5 232.5V184.5C352.5 171.2 363.2 160.5 376.5 160.5Z" fill="#47535F"/>
</g>
<defs>
<clipPath id="clip0_104_2010">
<rect width="576" height="512" fill="white" transform="translate(0.5 0.5)"/>
</clipPath>
</defs>
</svg>
