<svg width="513" height="513" viewBox="0 0 513 513" fill="none" xmlns="http://www.w3.org/2000/svg">
<g clip-path="url(#clip0_104_2008)">
<path d="M176.5 0.5C220.7 0.5 256.5 36.3 256.5 80.5C256.5 89.3 249.3 96.5 240.5 96.5C196.3 96.5 160.5 60.7 160.5 16.5C160.5 7.7 167.7 0.5 176.5 0.5ZM56.5 16.5H104.5C117.8 16.5 128.5 27.2 128.5 40.5C128.5 53.8 117.8 64.5 104.5 64.5H56.5C43.2 64.5 32.5 53.8 32.5 40.5C32.5 27.2 43.2 16.5 56.5 16.5ZM24.5 88.5H136.5C149.8 88.5 160.5 99.2 160.5 112.5C160.5 125.8 149.8 136.5 136.5 136.5H24.5C11.2 136.5 0.5 125.8 0.5 112.5C0.5 99.2 11.2 88.5 24.5 88.5ZM32.5 184.5C32.5 171.2 43.2 160.5 56.5 160.5H104.5C117.8 160.5 128.5 171.2 128.5 184.5C128.5 197.8 117.8 208.5 104.5 208.5H56.5C43.2 208.5 32.5 197.8 32.5 184.5ZM272.5 16.5C272.5 7.7 279.7 0.5 288.5 0.5C332.7 0.5 368.5 36.3 368.5 80.5C368.5 89.3 361.3 96.5 352.5 96.5C308.3 96.5 272.5 60.7 272.5 16.5ZM400.5 0.5C444.7 0.5 480.5 36.3 480.5 80.5C480.5 89.3 473.3 96.5 464.5 96.5C420.3 96.5 384.5 60.7 384.5 16.5C384.5 7.7 391.7 0.5 400.5 0.5ZM480.5 144.5C480.5 188.7 444.7 224.5 400.5 224.5C391.7 224.5 384.5 217.3 384.5 208.5C384.5 164.3 420.3 128.5 464.5 128.5C473.3 128.5 480.5 135.7 480.5 144.5ZM352.5 128.5C361.3 128.5 368.5 135.7 368.5 144.5C368.5 188.7 332.7 224.5 288.5 224.5C279.7 224.5 272.5 217.3 272.5 208.5C272.5 164.3 308.3 128.5 352.5 128.5ZM256.5 144.5C256.5 188.7 220.7 224.5 176.5 224.5C167.7 224.5 160.5 217.3 160.5 208.5C160.5 164.3 196.3 128.5 240.5 128.5C249.3 128.5 256.5 135.7 256.5 144.5ZM0.5 304.5C0.5 278 22 256.5 48.5 256.5H464.5C491 256.5 512.5 278 512.5 304.5V464.5C512.5 491 491 512.5 464.5 512.5H48.5C22 512.5 0.5 491 0.5 464.5V304.5ZM48.5 416.5V464.5H96.5C96.5 438 75 416.5 48.5 416.5ZM96.5 304.5H48.5V352.5C75 352.5 96.5 331 96.5 304.5ZM464.5 416.5C438 416.5 416.5 438 416.5 464.5H464.5V416.5ZM416.5 304.5C416.5 331 438 352.5 464.5 352.5V304.5H416.5ZM320.5 384.5C320.5 367.526 313.757 351.248 301.755 339.245C289.752 327.243 273.474 320.5 256.5 320.5C239.526 320.5 223.247 327.243 211.245 339.245C199.243 351.248 192.5 367.526 192.5 384.5C192.5 401.474 199.243 417.752 211.245 429.755C223.247 441.757 239.526 448.5 256.5 448.5C273.474 448.5 289.752 441.757 301.755 429.755C313.757 417.752 320.5 401.474 320.5 384.5Z" fill="#47535F"/>
</g>
<defs>
<clipPath id="clip0_104_2008">
<rect width="512" height="512" fill="white" transform="translate(0.5 0.5)"/>
</clipPath>
</defs>
</svg>
