<svg width="577" height="513" viewBox="0 0 577 513" fill="none" xmlns="http://www.w3.org/2000/svg">
<g clip-path="url(#clip0_104_1998)">
<path d="M0.5 113V422.8C0.5 440.8 10.6 457.8 27.5 464.1C114.5 496.6 201.5 474.4 288.5 452.2C368.3 431.9 448.1 411.5 527.8 433.3C550.8 439.6 576.5 423.8 576.5 399.9V90.2C576.5 72.2 566.4 55.2 549.5 48.9C462.5 16.4 375.5 38.6 288.5 60.8C208.7 81.1 128.9 101.4 49.2 79.6C26.1 73.3 0.5 89.1 0.5 113ZM128.5 416.5H64.5V352.5C99.8 352.5 128.5 381.2 128.5 416.5ZM64.5 224.5V160.5H128.5C128.5 195.8 99.8 224.5 64.5 224.5ZM448.5 352.5C448.5 317.2 477.2 288.5 512.5 288.5V352.5H448.5ZM512.5 160.5C477.2 160.5 448.5 131.8 448.5 96.5H512.5V160.5ZM384.5 256.5C384.5 318.4 341.5 368.5 288.5 368.5C235.5 368.5 192.5 318.4 192.5 256.5C192.5 194.6 235.5 144.5 288.5 144.5C341.5 144.5 384.5 194.6 384.5 256.5ZM252.5 208.5C252.5 218.2 259.4 226.2 268.5 228.1V276.5H264.5C253.5 276.5 244.5 285.5 244.5 296.5C244.5 307.5 253.5 316.5 264.5 316.5H288.5H312.5C323.5 316.5 332.5 307.5 332.5 296.5C332.5 285.5 323.5 276.5 312.5 276.5H308.5V208.5C308.5 197.5 299.5 188.5 288.5 188.5H272.5C261.5 188.5 252.5 197.5 252.5 208.5Z" fill="#47535F"/>
</g>
<defs>
<clipPath id="clip0_104_1998">
<rect width="576" height="512" fill="white" transform="translate(0.5 0.5)"/>
</clipPath>
</defs>
</svg>
