<svg width="641" height="513" viewBox="0 0 641 513" fill="none" xmlns="http://www.w3.org/2000/svg">
<g clip-path="url(#clip0_104_2002)">
<path d="M535.5 41.5C526.1 32.1 526.1 16.9 535.5 7.59995C544.9 -1.70005 560.1 -1.80005 569.4 7.59995L633.4 71.6C637.9 76.1 640.4 82.2 640.4 88.6C640.4 95 637.9 101.1 633.4 105.6L569.4 169.6C560 179 544.8 179 535.5 169.6C526.2 160.2 526.1 145 535.5 135.7L558.5 112.7L384.5 112.5C371.2 112.5 360.5 101.8 360.5 88.5C360.5 75.2 371.2 64.5 384.5 64.5H558.6L535.5 41.5ZM105.5 377.5L82.5 400.5H256.5C269.8 400.5 280.5 411.2 280.5 424.5C280.5 437.8 269.8 448.5 256.5 448.5H82.4L105.4 471.5C114.8 480.9 114.8 496.1 105.4 505.4C96 514.7 80.8 514.8 71.5 505.4L7.5 441.5C3 437 0.5 430.9 0.5 424.5C0.5 418.1 3 412 7.5 407.5L71.5 343.5C80.9 334.1 96.1 334.1 105.4 343.5C114.7 352.9 114.8 368.1 105.4 377.4L105.5 377.5ZM96.5 64.5H338.4C334.7 71.7 332.5 79.8 332.5 88.5C332.5 117.2 355.8 140.5 384.5 140.5H501.9C497.9 157.5 502.5 176 515.7 189.3C536 209.6 568.9 209.6 589.2 189.3L608.5 170V384.5C608.5 419.8 579.8 448.5 544.5 448.5H302.6C306.3 441.3 308.5 433.2 308.5 424.5C308.5 395.8 285.2 372.5 256.5 372.5H139.1C143.1 355.5 138.5 337 125.3 323.7C105 303.4 72.1 303.4 51.8 323.7L32.5 343V128.5C32.5 93.2 61.2 64.5 96.5 64.5ZM160.5 128.5H96.5V192.5C131.8 192.5 160.5 163.8 160.5 128.5ZM544.5 320.5C509.2 320.5 480.5 349.2 480.5 384.5H544.5V320.5ZM320.5 352.5C345.961 352.5 370.379 342.386 388.382 324.382C406.386 306.379 416.5 281.961 416.5 256.5C416.5 231.039 406.386 206.621 388.382 188.618C370.379 170.614 345.961 160.5 320.5 160.5C295.039 160.5 270.621 170.614 252.618 188.618C234.614 206.621 224.5 231.039 224.5 256.5C224.5 281.961 234.614 306.379 252.618 324.382C270.621 342.386 295.039 352.5 320.5 352.5Z" fill="#47535F"/>
</g>
<defs>
<clipPath id="clip0_104_2002">
<rect width="640" height="512" fill="white" transform="translate(0.5 0.5)"/>
</clipPath>
</defs>
</svg>
