<svg width="577" height="513" viewBox="0 0 577 513" fill="none" xmlns="http://www.w3.org/2000/svg">
<g clip-path="url(#clip0_104_1994)">
<path d="M64.5 64.5C29.2 64.5 0.5 93.2 0.5 128.5V384.5C0.5 419.8 29.2 448.5 64.5 448.5H512.5C547.8 448.5 576.5 419.8 576.5 384.5V128.5C576.5 93.2 547.8 64.5 512.5 64.5H64.5ZM128.5 384.5H64.5V320.5C99.8 320.5 128.5 349.2 128.5 384.5ZM64.5 192.5V128.5H128.5C128.5 163.8 99.8 192.5 64.5 192.5ZM448.5 384.5C448.5 349.2 477.2 320.5 512.5 320.5V384.5H448.5ZM512.5 192.5C477.2 192.5 448.5 163.8 448.5 128.5H512.5V192.5ZM288.5 160.5C313.961 160.5 338.379 170.614 356.382 188.618C374.386 206.621 384.5 231.039 384.5 256.5C384.5 281.961 374.386 306.379 356.382 324.382C338.379 342.386 313.961 352.5 288.5 352.5C263.039 352.5 238.621 342.386 220.618 324.382C202.614 306.379 192.5 281.961 192.5 256.5C192.5 231.039 202.614 206.621 220.618 188.618C238.621 170.614 263.039 160.5 288.5 160.5Z" fill="#47535F"/>
</g>
<defs>
<clipPath id="clip0_104_1994">
<rect width="576" height="512" fill="white" transform="translate(0.5 0.5)"/>
</clipPath>
</defs>
</svg>
