<svg width="641" height="513" viewBox="0 0 641 513" fill="none" xmlns="http://www.w3.org/2000/svg">
<g clip-path="url(#clip0_104_2000)">
<path d="M96.5 96.5V320.5C96.5 355.8 125.2 384.5 160.5 384.5H576.5C611.8 384.5 640.5 355.8 640.5 320.5V96.5C640.5 61.2 611.8 32.5 576.5 32.5H160.5C125.2 32.5 96.5 61.2 96.5 96.5ZM160.5 256.5C195.8 256.5 224.5 285.2 224.5 320.5H160.5V256.5ZM224.5 96.5C224.5 131.8 195.8 160.5 160.5 160.5V96.5H224.5ZM576.5 256.5V320.5H512.5C512.5 285.2 541.2 256.5 576.5 256.5ZM512.5 96.5H576.5V160.5C541.2 160.5 512.5 131.8 512.5 96.5ZM288.5 208.5C288.5 187.283 296.929 166.934 311.931 151.931C326.934 136.929 347.283 128.5 368.5 128.5C389.717 128.5 410.066 136.929 425.069 151.931C440.071 166.934 448.5 187.283 448.5 208.5C448.5 229.717 440.071 250.066 425.069 265.069C410.066 280.071 389.717 288.5 368.5 288.5C347.283 288.5 326.934 280.071 311.931 265.069C296.929 250.066 288.5 229.717 288.5 208.5ZM48.5 120.5C48.5 107.2 37.8 96.5 24.5 96.5C11.2 96.5 0.5 107.2 0.5 120.5V360.5C0.5 426.8 54.2 480.5 120.5 480.5H520.5C533.8 480.5 544.5 469.8 544.5 456.5C544.5 443.2 533.8 432.5 520.5 432.5H120.5C80.7 432.5 48.5 400.3 48.5 360.5V120.5Z" fill="#47535F"/>
</g>
<defs>
<clipPath id="clip0_104_2000">
<rect width="640" height="512" fill="white" transform="translate(0.5 0.5)"/>
</clipPath>
</defs>
</svg>
