<svg width="385" height="513" viewBox="0 0 385 513" fill="none" xmlns="http://www.w3.org/2000/svg">
<g clip-path="url(#clip0_104_2014)">
<path d="M181.2 5.20005C187.4 -0.999951 197.6 -0.999951 203.8 5.20005L283.8 85.2C286.3 87.7 287.9 91 288.4 94.5L328.6 416.5H56.4L96.6 94.5C97 91 98.6 87.7 101.2 85.2L181.2 5.20005ZM152.5 272.5C139.2 272.5 128.5 283.2 128.5 296.5C128.5 309.8 139.2 320.5 152.5 320.5H232.5C245.8 320.5 256.5 309.8 256.5 296.5C256.5 283.2 245.8 272.5 232.5 272.5H152.5ZM32.5 448.5H352.5C370.2 448.5 384.5 462.8 384.5 480.5C384.5 498.2 370.2 512.5 352.5 512.5H32.5C14.8 512.5 0.5 498.2 0.5 480.5C0.5 462.8 14.8 448.5 32.5 448.5Z" fill="#47535F"/>
</g>
<defs>
<clipPath id="clip0_104_2014">
<rect width="384" height="512" fill="white" transform="translate(0.5 0.5)"/>
</clipPath>
</defs>
</svg>
