<svg width="385" height="513" viewBox="0 0 385 513" fill="none" xmlns="http://www.w3.org/2000/svg">
<g clip-path="url(#clip0_104_2016)">
<path d="M224 32.5C100.5 32.5 0.5 132.8 0.5 256.5C0.5 380.2 100.5 480.5 224 480.5C284.6 480.5 339.5 456.3 379.8 417.1C384.8 412.2 386.1 404.6 382.9 398.4C379.7 392.2 372.8 388.7 365.9 389.9C356.1 391.6 346.1 392.5 335.8 392.5C238.9 392.5 160.3 313.7 160.3 216.5C160.3 150.7 196.3 93.4 249.6 63.2C255.7 59.7 258.8 52.7 257.3 45.9C255.8 39.1 250 34 243 33.4C236.7 32.9 230.4 32.6 224 32.6V32.5Z" fill="#47535F"/>
</g>
<defs>
<clipPath id="clip0_104_2016">
<rect width="384" height="512" fill="white" transform="translate(0.5 0.5)"/>
</clipPath>
</defs>
</svg>
