<svg width="513" height="513" viewBox="0 0 513 513" fill="none" xmlns="http://www.w3.org/2000/svg">
<g clip-path="url(#clip0_104_2018)">
<path d="M504.8 11.6C493.8 -1.09997 475 -3.19997 461.5 6.70003L252.8 160.5H397.8L503.1 55.1C514.9 43.3 515.7 24.3 504.7 11.6H504.8ZM32.5 192.5C14.8 192.5 0.5 206.8 0.5 224.5C0.5 242.2 14.8 256.5 32.5 256.5C32.5 339 75.9 404.2 156.4 432.7C145.3 446.6 137 463 132.5 480.8C128.1 497.9 142.8 512.5 160.5 512.5H352.5C370.2 512.5 384.9 497.9 380.6 480.8C376.1 463 367.8 446.7 356.7 432.7C437.1 404.2 480.5 339 480.5 256.5C498.2 256.5 512.5 242.2 512.5 224.5C512.5 206.8 498.2 192.5 480.5 192.5H32.5Z" fill="#47535F"/>
</g>
<defs>
<clipPath id="clip0_104_2018">
<rect width="512" height="512" fill="white" transform="translate(0.5 0.5)"/>
</clipPath>
</defs>
</svg>
