<svg width="641" height="513" viewBox="0 0 641 513" fill="none" xmlns="http://www.w3.org/2000/svg">
<g clip-path="url(#clip0_104_2022)">
<path d="M464.2 506.4C474 497.5 474.9 482.1 466.3 472.1L424.2 423.1V368.4C424.2 362.9 422.4 357.6 419.1 353.3L352.5 266.8V266.5L485.9 388.3C542.9 448.1 640.5 405.7 640.5 321.1C640.5 273.2 606.5 232.8 561.1 226.9L408.1 203L448.9 162.1C456.7 154.3 458.3 142 452.8 132.3L429 90.6001L467.2 39.7001C475.2 29.1001 473.3 13.8001 462.9 5.60006C452.5 -2.59994 437.7 -0.699943 429.7 10.0001L381.7 73.9001C375.8 81.8001 375.1 92.5001 380 101.1L402.7 140.5L352.5 190.8V152.6C352.5 137.7 342.3 125.2 328.5 121.6V64.4001C328.5 60.0001 324.9 56.4001 320.5 56.4001C316.1 56.4001 312.5 60.0001 312.5 64.4001V121.6C298.7 125.2 288.5 137.7 288.5 152.6V190.7L238.3 140.5L260.9 101C265.8 92.4001 265.1 81.7001 259.2 73.8001L211.2 9.90006C203.2 -0.699944 188.4 -2.69994 178 5.50006C167.6 13.7001 165.8 29.0001 173.7 39.6001L211.9 90.5001L188 132.2C182.5 141.9 184.1 154.2 191.9 162L232.7 202.9L79.7 226.8C34.5 232.8 0.5 273.2 0.5 321.1C0.5 405.7 98.1 448.1 155.1 388.2L288.5 266.5V266.8L222 353.2C218.7 357.5 216.9 362.8 216.9 368.3V423L174.8 472C166.2 482.1 167.1 497.5 176.9 506.3C186.7 515.1 201.6 514.2 210.3 504.2L258.3 448.3C262.1 443.9 264.2 438.1 264.2 432.2V376.8L288.5 345.2V408.3C288.5 426 302.8 440.3 320.5 440.3C338.2 440.3 352.5 426 352.5 408.3V345.2L376.8 376.8V432.2C376.8 438.1 378.9 443.9 382.7 448.3L430.7 504.2C439.3 514.3 454.3 515.2 464.1 506.3L464.2 506.4Z" fill="#47535F"/>
</g>
<defs>
<clipPath id="clip0_104_2022">
<rect width="640" height="512" fill="white" transform="translate(0.5 0.5)"/>
</clipPath>
</defs>
</svg>
