<svg width="641" height="513" viewBox="0 0 641 513" fill="none" xmlns="http://www.w3.org/2000/svg">
<g clip-path="url(#clip0_104_2020)">
<path d="M400.5 0.5C405.5 0.5 410.3 2.9 413.3 6.9C448 53.2 491.4 81.8 546.8 118.4C552 121.8 557.3 125.4 562.8 129C591.7 148.2 608.5 180.7 608.5 215.1C608.5 243.7 597.2 269.6 578.7 288.5H222.3C203.9 269.5 192.5 243.6 192.5 215.1C192.5 180.7 209.2 148.2 238.2 129C243.6 125.4 249 121.9 254.2 118.4C309.6 81.8 353 53.2 387.7 6.9C390.7 2.9 395.5 0.5 400.5 0.5ZM288.5 512.5V440.5C288.5 427.2 277.8 416.5 264.5 416.5C251.2 416.5 240.5 427.2 240.5 440.5V512.5H192.5C174.8 512.5 160.5 498.2 160.5 480.5V352.5C160.5 334.8 174.8 320.5 192.5 320.5H608.5C626.2 320.5 640.5 334.8 640.5 352.5V480.5C640.5 498.2 626.2 512.5 608.5 512.5H560.5V440.5C560.5 427.2 549.8 416.5 536.5 416.5C523.2 416.5 512.5 427.2 512.5 440.5V512.5H448.5V454.5C448.5 435.5 440.1 417.5 425.5 405.3L400.5 384.5L375.5 405.3C360.9 417.5 352.5 435.5 352.5 454.5V512.5H288.5ZM70.9 5.7C76.6 1.4 84.4 1.4 90.1 5.7L106.1 17.7C140.3 43.4 160.5 83.7 160.5 126.5V128.5H0.5V126.5C0.5 83.7 20.7 43.4 54.9 17.7L70.9 5.7ZM0.5 160.5H160.5V297.1C141.4 308.2 128.5 328.8 128.5 352.5V480.5C128.5 490.1 130.6 499.1 134.3 507.3C127.7 510.7 120.3 512.5 112.5 512.5H48.5C22 512.5 0.5 491 0.5 464.5V176.5V160.5Z" fill="#47535F"/>
</g>
<defs>
<clipPath id="clip0_104_2020">
<rect width="640" height="512" fill="white" transform="translate(0.5 0.5)"/>
</clipPath>
</defs>
</svg>
