<svg width="641" height="513" viewBox="0 0 641 513" fill="none" xmlns="http://www.w3.org/2000/svg">
<g clip-path="url(#clip0_104_2024)">
<path d="M169.3 462.8C161.4 458.8 158.2 449.2 162.1 441.3L192.5 380.7V336.5C192.5 332.3 194.2 328.2 197.2 325.2L256.5 265.9V242.7L139.7 344.5C88.3 395.8 0.5 359.4 0.5 286.8C0.5 245.7 31.1 211 71.9 205.9L231.8 182L182.2 140.7C177.1 136.5 175.2 129.6 177.3 123.3L191.2 81.6L162.2 23.5C158.2 15.6 161.5 5.99996 169.4 1.99996C177.3 -2.00004 186.9 1.29996 190.9 9.19996L222.9 73.2C224.8 77 225.1 81.4 223.8 85.4L211.3 123L256.5 161V138.4C256.5 123.5 266.6 111.1 280.3 107.4V64.2C280.3 59.7 284 56 288.5 56C293 56 296.7 59.7 296.7 64.2V107.5C310.4 111.1 320.5 123.6 320.5 138.5V161.1L365.9 123.3L353.3 85.6C352 81.6 352.3 77.2 354.2 73.4L386.2 9.39996C390.2 1.49996 399.8 -1.70004 407.7 2.19996C415.6 6.09996 418.8 15.8 414.9 23.7L385.9 81.8L399.8 123.5C401.9 129.7 399.9 136.6 394.9 140.9L345.3 182.2L505.2 206.1C527.7 208.9 547 220.7 559.9 237.5C557.2 240.1 554.7 242.9 552.6 246.1C544 233.2 529.3 224.6 512.6 224.6C495.9 224.6 481.2 233.1 472.6 246.1C464 233.2 449.3 224.6 432.6 224.6C410.9 224.6 392.6 238.9 386.7 258.7C376 261.9 366.9 268.8 360.8 277.9L320.6 242.9V266L353 298.4C352.7 300.4 352.6 302.5 352.6 304.6C352.6 321.3 361.1 336 374.1 344.6C370.1 347.2 366.6 350.5 363.5 354.1L320.5 311.1V361.1C320.5 378.8 306.2 393.1 288.5 393.1C270.8 393.1 256.5 378.8 256.5 361.1V311.1L224.5 343.1V384.5C224.5 387 223.9 389.4 222.8 391.7L190.8 455.7C186.8 463.6 177.2 466.8 169.3 462.9V462.8ZM512.5 256.5C521.3 256.5 528.5 263.7 528.5 272.5V288.5H576.5V272.5C576.5 263.7 583.7 256.5 592.5 256.5C601.3 256.5 608.5 263.7 608.5 272.5V288.5H624.5C633.3 288.5 640.5 295.7 640.5 304.5C640.5 313.3 633.3 320.5 624.5 320.5H608.5V368.5H624.5C633.3 368.5 640.5 375.7 640.5 384.5C640.5 393.3 633.3 400.5 624.5 400.5H608.5V448.5H624.5C633.3 448.5 640.5 455.7 640.5 464.5C640.5 473.3 633.3 480.5 624.5 480.5H608.5V496.5C608.5 505.3 601.3 512.5 592.5 512.5C583.7 512.5 576.5 505.3 576.5 496.5V480.5H528.5V496.5C528.5 505.3 521.3 512.5 512.5 512.5C503.7 512.5 496.5 505.3 496.5 496.5V480.5H448.5V496.5C448.5 505.3 441.3 512.5 432.5 512.5C423.7 512.5 416.5 505.3 416.5 496.5V480.5H400.5C391.7 480.5 384.5 473.3 384.5 464.5C384.5 455.7 391.7 448.5 400.5 448.5H416.5V400.5H400.5C391.7 400.5 384.5 393.3 384.5 384.5C384.5 375.7 391.7 368.5 400.5 368.5H416.5V320.5H400.5C391.7 320.5 384.5 313.3 384.5 304.5C384.5 295.7 391.7 288.5 400.5 288.5H416.5V272.5C416.5 263.7 423.7 256.5 432.5 256.5C441.3 256.5 448.5 263.7 448.5 272.5V288.5H496.5V272.5C496.5 263.7 503.7 256.5 512.5 256.5ZM528.5 368.5H576.5V320.5H528.5V368.5ZM528.5 448.5H576.5V400.5H528.5V448.5ZM448.5 320.5V368.5H496.5V320.5H448.5ZM448.5 400.5V448.5H496.5V400.5H448.5Z" fill="#47535F"/>
</g>
<defs>
<clipPath id="clip0_104_2024">
<rect width="640" height="512" fill="white" transform="translate(0.5 0.5)"/>
</clipPath>
</defs>
</svg>
