<svg width="641" height="513" viewBox="0 0 641 513" fill="none" xmlns="http://www.w3.org/2000/svg">
<g clip-path="url(#clip0_104_2026)">
<path d="M280.5 32.4999C267.2 32.4999 256.5 43.1999 256.5 56.4999C256.5 69.7999 267.2 80.4999 280.5 80.4999H338.2L354.6 110.8L256.5 192.5L211.2 147.2C199.2 135.2 182.9 128.5 165.9 128.5H64.5C46.8 128.5 32.5 142.8 32.5 160.5V192.5H128.5C216.9 192.5 288.5 264.1 288.5 352.5C288.5 363.5 287.4 374.2 285.3 384.5H355.7C353.6 374.2 352.5 363.5 352.5 352.5C352.5 300.3 377.5 253.9 416.2 224.7L431.6 253.3C402.9 276.8 384.5 312.5 384.5 352.5C384.5 423.2 441.8 480.5 512.5 480.5C583.2 480.5 640.5 423.2 640.5 352.5C640.5 281.8 583.2 224.5 512.5 224.5C499 224.5 486 226.6 473.8 230.5L418.7 128.5H480.5C498.2 128.5 512.5 114.2 512.5 96.4999V64.4999C512.5 46.7999 498.2 32.4999 480.5 32.4999H460.1C452.6 32.4999 445.4 35.0999 439.6 39.8999L392.2 79.3999L378.2 53.3999C371.2 40.4999 357.7 32.3999 343 32.3999H280.5V32.4999ZM463.2 311.7L491.4 363.9C497.7 375.6 512.3 379.9 523.9 373.6C535.5 367.3 539.9 352.7 533.6 341.1L505.4 288.9C507.7 288.6 510.1 288.5 512.5 288.5C547.8 288.5 576.5 317.2 576.5 352.5C576.5 387.8 547.8 416.5 512.5 416.5C477.2 416.5 448.5 387.8 448.5 352.5C448.5 337 454 322.8 463.2 311.7ZM187.8 376.5C178.3 400 155.3 416.5 128.5 416.5C93.2 416.5 64.5 387.8 64.5 352.5C64.5 317.2 93.2 288.5 128.5 288.5C155.4 288.5 178.4 305 187.8 328.5H254.2C243 269.3 191 224.5 128.5 224.5C57.8 224.5 0.5 281.8 0.5 352.5C0.5 423.2 57.8 480.5 128.5 480.5C191 480.5 243 435.7 254.3 376.5H187.8ZM128.5 384.5C136.987 384.5 145.126 381.128 151.127 375.127C157.129 369.126 160.5 360.987 160.5 352.5C160.5 344.013 157.129 335.874 151.127 329.872C145.126 323.871 136.987 320.5 128.5 320.5C120.013 320.5 111.874 323.871 105.873 329.872C99.8714 335.874 96.5 344.013 96.5 352.5C96.5 360.987 99.8714 369.126 105.873 375.127C111.874 381.128 120.013 384.5 128.5 384.5Z" fill="#47535F"/>
</g>
<defs>
<clipPath id="clip0_104_2026">
<rect width="640" height="512" fill="white" transform="translate(0.5 0.5)"/>
</clipPath>
</defs>
</svg>
