<svg width="513" height="513" viewBox="0 0 513 513" fill="none" xmlns="http://www.w3.org/2000/svg">
<g clip-path="url(#clip0_104_2030)">
<path d="M256.5 32.5C269 32.5 280.6 38.9 287.3 49.5L503.9 394.9C509.5 403.8 512.5 414.1 512.5 424.6C512.5 455.5 487.5 480.5 456.6 480.5H56.4C25.5 480.5 0.5 455.5 0.5 424.6C0.5 414.1 3.5 403.8 9.1 394.9L225.7 49.5C232.3 38.9 244 32.5 256.5 32.5ZM321.5 224.5L256.5 120.9L177.4 247L195.7 271.4C202.1 279.9 214.9 279.9 221.3 271.4L246.9 237.3C252.9 229.2 262.4 224.5 272.5 224.5H321.5Z" fill="#47535F"/>
</g>
<defs>
<clipPath id="clip0_104_2030">
<rect width="512" height="512" fill="white" transform="translate(0.5 0.5)"/>
</clipPath>
</defs>
</svg>
