<svg width="641" height="513" viewBox="0 0 641 513" fill="none" xmlns="http://www.w3.org/2000/svg">
<g clip-path="url(#clip0_104_2034)">
<path d="M560.5 160.5C581.717 160.5 602.066 152.071 617.069 137.069C632.071 122.066 640.5 101.717 640.5 80.5C640.5 59.2827 632.071 38.9344 617.069 23.9315C602.066 8.92855 581.717 0.5 560.5 0.5C539.283 0.5 518.934 8.92855 503.931 23.9315C488.929 38.9344 480.5 59.2827 480.5 80.5C480.5 101.717 488.929 122.066 503.931 137.069C518.934 152.071 539.283 160.5 560.5 160.5ZM56.4 512.5H381.6H456.6H579.4C613.2 512.5 640.5 485.1 640.5 451.4C640.5 440.2 637.4 429.2 631.6 419.6L499.6 203.3C495.5 196.6 488.3 192.5 480.5 192.5C472.7 192.5 465.5 196.6 461.4 203.2L413.2 282.2L287.3 81.5C280.7 70.9 269 64.5 256.5 64.5C244 64.5 232.4 70.9 225.7 81.5L9.1 426.9C3.5 435.8 0.5 446.1 0.5 456.6C0.5 487.5 25.5 512.5 56.4 512.5Z" fill="#47535F"/>
</g>
<defs>
<clipPath id="clip0_104_2034">
<rect width="640" height="512" fill="white" transform="translate(0.5 0.5)"/>
</clipPath>
</defs>
</svg>
