<svg width="641" height="513" viewBox="0 0 641 513" fill="none" xmlns="http://www.w3.org/2000/svg">
<g clip-path="url(#clip0_104_2032)">
<path d="M336.5 0.5C310 0.5 288.5 22 288.5 48.5V140.6L359.9 259C362.4 257.4 365.3 256.5 368.5 256.5H400.5C409.3 256.5 416.5 263.7 416.5 272.5V304.5C416.5 313.3 409.3 320.5 400.5 320.5H397L470.8 442.9C483.2 463.5 483.7 489.2 472 510.2C471.6 511 471.1 511.8 470.6 512.5H592.5C619 512.5 640.5 491 640.5 464.5V240.5C640.5 214 619 192.5 592.5 192.5H568.5V120.5C568.5 107.2 557.8 96.5 544.5 96.5C531.2 96.5 520.5 107.2 520.5 120.5V192.5H480.5V48.5C480.5 22 459 0.5 432.5 0.5H336.5ZM368.5 64.5H400.5C409.3 64.5 416.5 71.7 416.5 80.5V112.5C416.5 121.3 409.3 128.5 400.5 128.5H368.5C359.7 128.5 352.5 121.3 352.5 112.5V80.5C352.5 71.7 359.7 64.5 368.5 64.5ZM352.5 176.5C352.5 167.7 359.7 160.5 368.5 160.5H400.5C409.3 160.5 416.5 167.7 416.5 176.5V208.5C416.5 217.3 409.3 224.5 400.5 224.5H368.5C359.7 224.5 352.5 217.3 352.5 208.5V176.5ZM512.5 272.5C512.5 263.7 519.7 256.5 528.5 256.5H560.5C569.3 256.5 576.5 263.7 576.5 272.5V304.5C576.5 313.3 569.3 320.5 560.5 320.5H528.5C519.7 320.5 512.5 313.3 512.5 304.5V272.5ZM528.5 352.5H560.5C569.3 352.5 576.5 359.7 576.5 368.5V400.5C576.5 409.3 569.3 416.5 560.5 416.5H528.5C519.7 416.5 512.5 409.3 512.5 400.5V368.5C512.5 359.7 519.7 352.5 528.5 352.5ZM224.5 189.4L284.3 288.5H223.5L175.5 352.5L150.9 311.3L224.5 189.4ZM253.9 145.2C247.6 134.8 236.5 128.5 224.5 128.5C212.5 128.5 201.4 134.8 195.1 145.2L5.59997 459.4C-0.900028 470.2 -1.10003 483.7 4.89997 494.7C10.9 505.7 22.5 512.5 35 512.5H414C426.5 512.5 438 505.7 444.1 494.7C450.2 483.7 449.9 470.2 443.4 459.4L253.9 145.2Z" fill="#47535F"/>
</g>
<defs>
<clipPath id="clip0_104_2032">
<rect width="640" height="512" fill="white" transform="translate(0.5 0.5)"/>
</clipPath>
</defs>
</svg>
