<svg width="513" height="513" viewBox="0 0 513 513" fill="none" xmlns="http://www.w3.org/2000/svg">
<g clip-path="url(#clip0_104_2036)">
<path d="M88.5 0.5C75.2 0.5 64.5 11.2 64.5 24.5C64.5 63.4 87.9 83.9 103.6 97.6L104.7 98.6C121 112.8 128.5 120.4 128.5 136.5C128.5 149.8 139.2 160.5 152.5 160.5C165.8 160.5 176.5 149.8 176.5 136.5C176.5 97.6 153.1 77.1 137.4 63.4L136.3 62.4C120 48.2 112.5 40.6 112.5 24.5C112.5 11.2 101.8 0.5 88.5 0.5ZM32.5 192.5C14.8 192.5 0.5 206.8 0.5 224.5V416.5C0.5 469.5 43.5 512.5 96.5 512.5H288.5C341.5 512.5 384.5 469.5 384.5 416.5H400.5C462.4 416.5 512.5 366.4 512.5 304.5C512.5 242.6 462.4 192.5 400.5 192.5H352.5H32.5ZM384.5 256.5H400.5C427 256.5 448.5 278 448.5 304.5C448.5 331 427 352.5 400.5 352.5H384.5V256.5ZM224.5 24.5C224.5 11.2 213.8 0.5 200.5 0.5C187.2 0.5 176.5 11.2 176.5 24.5C176.5 63.4 199.9 83.9 215.6 97.6L216.7 98.6C233 112.8 240.5 120.4 240.5 136.5C240.5 149.8 251.2 160.5 264.5 160.5C277.8 160.5 288.5 149.8 288.5 136.5C288.5 97.6 265.1 77.1 249.4 63.4L248.3 62.4C232 48.2 224.5 40.6 224.5 24.5Z" fill="#47535F"/>
</g>
<defs>
<clipPath id="clip0_104_2036">
<rect width="512" height="512" fill="white" transform="translate(0.5 0.5)"/>
</clipPath>
</defs>
</svg>
