<svg width="641" height="513" viewBox="0 0 641 513" fill="none" xmlns="http://www.w3.org/2000/svg">
<g clip-path="url(#clip0_104_2038)">
<path d="M96.5 64.5C96.5 46.8 110.8 32.5 128.5 32.5H448.5H512.5C583.2 32.5 640.5 89.8 640.5 160.5C640.5 231.2 583.2 288.5 512.5 288.5H480.5C480.5 341.5 437.5 384.5 384.5 384.5H192.5C139.5 384.5 96.5 341.5 96.5 288.5V64.5ZM480.5 224.5H512.5C547.8 224.5 576.5 195.8 576.5 160.5C576.5 125.2 547.8 96.5 512.5 96.5H480.5V224.5ZM32.5 416.5H544.5C562.2 416.5 576.5 430.8 576.5 448.5C576.5 466.2 562.2 480.5 544.5 480.5H32.5C14.8 480.5 0.5 466.2 0.5 448.5C0.5 430.8 14.8 416.5 32.5 416.5Z" fill="#47535F"/>
</g>
<defs>
<clipPath id="clip0_104_2038">
<rect width="640" height="512" fill="white" transform="translate(0.5 0.5)"/>
</clipPath>
</defs>
</svg>
