<svg width="513" height="513" viewBox="0 0 513 513" fill="none" xmlns="http://www.w3.org/2000/svg">
<g clip-path="url(#clip0_104_2040)">
<path d="M499.6 6.80005C507.7 12.8 512.5 22.4 512.5 32.5V104.5V368.5C512.5 412.7 469.5 448.5 416.5 448.5C363.5 448.5 320.5 412.7 320.5 368.5C320.5 324.3 363.5 288.5 416.5 288.5C427.7 288.5 438.5 290.1 448.5 293.1V147.5L192.5 224.3V432.5C192.5 476.7 149.5 512.5 96.5 512.5C43.5 512.5 0.5 476.7 0.5 432.5C0.5 388.3 43.5 352.5 96.5 352.5C107.7 352.5 118.5 354.1 128.5 357.1V200.5V128.5C128.5 114.4 137.8 101.9 151.3 97.8L471.3 1.80005C481 -1.09995 491.5 0.700049 499.6 6.80005Z" fill="#47535F"/>
</g>
<defs>
<clipPath id="clip0_104_2040">
<rect width="512" height="512" fill="white" transform="translate(0.5 0.5)"/>
</clipPath>
</defs>
</svg>
