<svg width="385" height="513" viewBox="0 0 385 513" fill="none" xmlns="http://www.w3.org/2000/svg">
<g clip-path="url(#clip0_104_2042)">
<path d="M21.6 34.3999C34.3 29.7999 48.5 33.6999 57.1 43.9999L320.5 360.1V64.4999C320.5 46.7999 334.8 32.4999 352.5 32.4999C370.2 32.4999 384.5 46.7999 384.5 64.4999V448.5C384.5 462 376.1 474 363.4 478.6C350.7 483.2 336.5 479.3 327.9 469L64.5 152.9V448.5C64.5 466.2 50.2 480.5 32.5 480.5C14.8 480.5 0.5 466.2 0.5 448.5V64.4999C0.5 50.9999 8.9 38.9999 21.6 34.3999Z" fill="#47535F"/>
</g>
<defs>
<clipPath id="clip0_104_2042">
<rect width="384" height="512" fill="white" transform="translate(0.5 0.5)"/>
</clipPath>
</defs>
</svg>
