<svg width="449" height="513" viewBox="0 0 449 513" fill="none" xmlns="http://www.w3.org/2000/svg">
<g clip-path="url(#clip0_104_2044)">
<path d="M123.1 46.8C115.3 35.1 100.7 29.8 87.2 33.9C73.7 38 64.5 50.4 64.5 64.5V256.5H32.5C14.8 256.5 0.5 270.8 0.5 288.5C0.5 306.2 14.8 320.5 32.5 320.5H64.5V448.5C64.5 466.2 78.8 480.5 96.5 480.5C114.2 480.5 128.5 466.2 128.5 448.5V320.5H228.7L325.9 466.3C333.7 478 348.3 483.3 361.8 479.2C375.3 475.1 384.5 462.7 384.5 448.6V320.5H416.5C434.2 320.5 448.5 306.2 448.5 288.5C448.5 270.8 434.2 256.5 416.5 256.5H384.5V64.5C384.5 46.8 370.2 32.5 352.5 32.5C334.8 32.5 320.5 46.8 320.5 64.5V256.5H263L123.1 46.8ZM305.6 320.5H320.5V342.8L305.6 320.5ZM186 256.5H128.5V170.2L186 256.5Z" fill="#47535F"/>
</g>
<defs>
<clipPath id="clip0_104_2044">
<rect width="448" height="512" fill="white" transform="translate(0.5 0.5)"/>
</clipPath>
</defs>
</svg>
