<svg width="385" height="513" viewBox="0 0 385 513" fill="none" xmlns="http://www.w3.org/2000/svg">
<g clip-path="url(#clip0_104_2048)">
<path d="M80.5 176.5C80.5 161.792 83.397 147.228 89.0255 133.639C94.654 120.051 102.904 107.704 113.304 97.304C123.704 86.9039 136.051 78.654 149.639 73.0255C163.228 67.397 177.792 64.5 192.5 64.5C207.208 64.5 221.772 67.397 235.361 73.0255C248.949 78.654 261.296 86.9039 271.696 97.304C282.096 107.704 290.346 120.051 295.975 133.639C301.603 147.228 304.5 161.792 304.5 176.5C304.5 191.208 301.603 205.772 295.975 219.361C290.346 232.949 282.096 245.296 271.696 255.696C261.296 266.096 248.949 274.346 235.361 279.975C221.772 285.603 207.208 288.5 192.5 288.5C177.792 288.5 163.228 285.603 149.639 279.975C136.051 274.346 123.704 266.096 113.304 255.696C102.904 245.296 94.654 232.949 89.0255 219.361C83.397 205.772 80.5 191.208 80.5 176.5ZM224.5 349.6C306.4 334.6 368.5 262.8 368.5 176.5C368.5 79.3 289.7 0.5 192.5 0.5C95.3 0.5 16.5 79.3 16.5 176.5C16.5 262.8 78.6 334.6 160.5 349.6V480.5C160.5 498.2 174.8 512.5 192.5 512.5C210.2 512.5 224.5 498.2 224.5 480.5V349.6Z" fill="#47535F"/>
</g>
<defs>
<clipPath id="clip0_104_2048">
<rect width="384" height="512" fill="white" transform="translate(0.5 0.5)"/>
</clipPath>
</defs>
</svg>
