<svg width="513" height="513" viewBox="0 0 513 513" fill="none" xmlns="http://www.w3.org/2000/svg">
<g clip-path="url(#clip0_104_2050)">
<path d="M96.5 96.5C96.5 61.2 125.2 32.5 160.5 32.5H448.5C483.8 32.5 512.5 61.2 512.5 96.5V416.5C512.5 451.8 483.8 480.5 448.5 480.5H80.5C36.3 480.5 0.5 444.7 0.5 400.5V128.5C0.5 110.8 14.8 96.5 32.5 96.5C50.2 96.5 64.5 110.8 64.5 128.5V400.5C64.5 409.3 71.7 416.5 80.5 416.5C89.3 416.5 96.5 409.3 96.5 400.5V96.5ZM160.5 120.5V200.5C160.5 213.8 171.2 224.5 184.5 224.5H296.5C309.8 224.5 320.5 213.8 320.5 200.5V120.5C320.5 107.2 309.8 96.5 296.5 96.5H184.5C171.2 96.5 160.5 107.2 160.5 120.5ZM368.5 112.5C368.5 121.3 375.7 128.5 384.5 128.5H432.5C441.3 128.5 448.5 121.3 448.5 112.5C448.5 103.7 441.3 96.5 432.5 96.5H384.5C375.7 96.5 368.5 103.7 368.5 112.5ZM368.5 208.5C368.5 217.3 375.7 224.5 384.5 224.5H432.5C441.3 224.5 448.5 217.3 448.5 208.5C448.5 199.7 441.3 192.5 432.5 192.5H384.5C375.7 192.5 368.5 199.7 368.5 208.5ZM160.5 304.5C160.5 313.3 167.7 320.5 176.5 320.5H432.5C441.3 320.5 448.5 313.3 448.5 304.5C448.5 295.7 441.3 288.5 432.5 288.5H176.5C167.7 288.5 160.5 295.7 160.5 304.5ZM160.5 400.5C160.5 409.3 167.7 416.5 176.5 416.5H432.5C441.3 416.5 448.5 409.3 448.5 400.5C448.5 391.7 441.3 384.5 432.5 384.5H176.5C167.7 384.5 160.5 391.7 160.5 400.5Z" fill="#47535F"/>
</g>
<defs>
<clipPath id="clip0_104_2050">
<rect width="512" height="512" fill="white" transform="translate(0.5 0.5)"/>
</clipPath>
</defs>
</svg>
