<svg width="449" height="513" viewBox="0 0 449 513" fill="none" xmlns="http://www.w3.org/2000/svg">
<path d="M370.3 37.9001C385 47.7001 389 67.6001 379.2 82.3001L337.6 144.5H400.5C418.2 144.5 432.5 158.8 432.5 176.5C432.5 194.2 418.2 208.5 400.5 208.5H295L231 304.5H400.5C418.2 304.5 432.5 318.8 432.5 336.5C432.5 354.2 418.2 368.5 400.5 368.5H188.3L123.1 466.2C113.3 480.9 93.4 484.9 78.7 475.1C64 465.3 60 445.4 69.8 430.7L111.4 368.5H48.5C30.8 368.5 16.5 354.2 16.5 336.5C16.5 318.8 30.8 304.5 48.5 304.5H154L218 208.5H48.5C30.8 208.5 16.5 194.2 16.5 176.5C16.5 158.8 30.8 144.5 48.5 144.5H260.7L325.9 46.8001C335.7 32.1001 355.6 28.1001 370.3 37.9001Z" fill="#47535F"/>
</svg>
