<svg width="385" height="513" viewBox="0 0 385 513" fill="none" xmlns="http://www.w3.org/2000/svg">
<g clip-path="url(#clip0_104_2052)">
<path d="M64.5 390.8L154 256.5L64.5 122.2V390.8ZM103 448.5H282L192.5 314.2L103 448.5ZM231 256.5L320.5 390.8V122.2L231 256.5ZM282 64.5H103L192.5 198.8L282 64.5ZM0.5 48.5C0.5 22 22 0.5 48.5 0.5H336.5C363 0.5 384.5 22 384.5 48.5V464.5C384.5 491 363 512.5 336.5 512.5H48.5C22 512.5 0.5 491 0.5 464.5V48.5Z" fill="#47535F"/>
</g>
<defs>
<clipPath id="clip0_104_2052">
<rect width="384" height="512" fill="white" transform="translate(0.5 0.5)"/>
</clipPath>
</defs>
</svg>
