<svg width="513" height="513" viewBox="0 0 513 513" fill="none" xmlns="http://www.w3.org/2000/svg">
<g clip-path="url(#clip0_104_2056)">
<path d="M96.5 352.5V96.5C96.5 61.2 125.2 32.5 160.5 32.5H416.5C451.8 32.5 480.5 61.2 480.5 96.5V294C480.5 311 473.8 327.3 461.8 339.3L403.3 397.8C391.3 409.8 375 416.5 358 416.5H160.5C125.2 416.5 96.5 387.8 96.5 352.5ZM272.5 128.5C263.7 128.5 256.5 135.7 256.5 144.5V192.5H208.5C199.7 192.5 192.5 199.7 192.5 208.5V240.5C192.5 249.3 199.7 256.5 208.5 256.5H256.5V304.5C256.5 313.3 263.7 320.5 272.5 320.5H304.5C313.3 320.5 320.5 313.3 320.5 304.5V256.5H368.5C377.3 256.5 384.5 249.3 384.5 240.5V208.5C384.5 199.7 377.3 192.5 368.5 192.5H320.5V144.5C320.5 135.7 313.3 128.5 304.5 128.5H272.5ZM296.5 464.5C309.8 464.5 320.5 475.2 320.5 488.5C320.5 501.8 309.8 512.5 296.5 512.5H136.5C61.4 512.5 0.5 451.6 0.5 376.5V152.5C0.5 139.2 11.2 128.5 24.5 128.5C37.8 128.5 48.5 139.2 48.5 152.5V376.5C48.5 425.1 87.9 464.5 136.5 464.5H296.5Z" fill="#47535F"/>
</g>
<defs>
<clipPath id="clip0_104_2056">
<rect width="512" height="512" fill="white" transform="translate(0.5 0.5)"/>
</clipPath>
</defs>
</svg>
