<svg width="449" height="513" viewBox="0 0 449 513" fill="none" xmlns="http://www.w3.org/2000/svg">
<g clip-path="url(#clip0_104_2060)">
<path d="M224.5 96.5C182.065 96.5 141.369 113.357 111.363 143.363C81.3571 173.369 64.5 214.065 64.5 256.5C64.5 298.935 81.3571 339.631 111.363 369.637C141.369 399.643 182.065 416.5 224.5 416.5C266.935 416.5 307.631 399.643 337.637 369.637C367.643 339.631 384.5 298.935 384.5 256.5C384.5 214.065 367.643 173.369 337.637 143.363C307.631 113.357 266.935 96.5 224.5 96.5ZM448.5 256.5C448.5 315.908 424.9 372.884 382.892 414.892C340.884 456.9 283.908 480.5 224.5 480.5C165.092 480.5 108.116 456.9 66.1081 414.892C24.0999 372.884 0.5 315.908 0.5 256.5C0.5 197.092 24.0999 140.116 66.1081 98.1081C108.116 56.0999 165.092 32.5 224.5 32.5C283.908 32.5 340.884 56.0999 382.892 98.1081C424.9 140.116 448.5 197.092 448.5 256.5Z" fill="#47535F"/>
</g>
<defs>
<clipPath id="clip0_104_2060">
<rect width="448" height="512" fill="white" transform="translate(0.5 0.5)"/>
</clipPath>
</defs>
</svg>
