<svg width="577" height="513" viewBox="0 0 577 513" fill="none" xmlns="http://www.w3.org/2000/svg">
<g clip-path="url(#clip0_104_2062)">
<path d="M32.5 119.9C13.4 108.9 0.5 88.2 0.5 64.5C0.5 29.2 29.2 0.5 64.5 0.5C88.2 0.5 108.9 13.4 119.9 32.5H457.1C468.1 13.4 488.8 0.5 512.5 0.5C547.8 0.5 576.5 29.2 576.5 64.5C576.5 88.2 563.6 108.9 544.5 119.9V393.1C563.6 404.2 576.5 424.8 576.5 448.5C576.5 483.8 547.8 512.5 512.5 512.5C488.8 512.5 468.1 499.6 457.1 480.5H119.9C108.8 499.6 88.2 512.5 64.5 512.5C29.2 512.5 0.5 483.8 0.5 448.5C0.5 424.8 13.4 404.1 32.5 393.1V119.9ZM457.1 96.5H119.9C114.3 106.2 106.2 114.3 96.5 119.9V393.1C106.2 398.7 114.3 406.8 119.9 416.5H457.1C462.7 406.8 470.8 398.7 480.5 393.1V119.9C470.8 114.3 462.7 106.2 457.1 96.5ZM128.5 160.5C128.5 142.8 142.8 128.5 160.5 128.5H288.5C306.2 128.5 320.5 142.8 320.5 160.5V256.5C320.5 274.2 306.2 288.5 288.5 288.5H160.5C142.8 288.5 128.5 274.2 128.5 256.5V160.5ZM256.5 320.5H288.5C323.8 320.5 352.5 291.8 352.5 256.5V224.5H416.5C434.2 224.5 448.5 238.8 448.5 256.5V352.5C448.5 370.2 434.2 384.5 416.5 384.5H288.5C270.8 384.5 256.5 370.2 256.5 352.5V320.5Z" fill="#47535F"/>
</g>
<defs>
<clipPath id="clip0_104_2062">
<rect width="576" height="512" fill="white" transform="translate(0.5 0.5)"/>
</clipPath>
</defs>
</svg>
