<svg width="641" height="513" viewBox="0 0 641 513" fill="none" xmlns="http://www.w3.org/2000/svg">
<g clip-path="url(#clip0_104_2064)">
<path d="M32.5 119.9C13.4 108.9 0.5 88.2 0.5 64.5C0.5 29.2 29.2 0.5 64.5 0.5C88.2 0.5 108.9 13.4 119.9 32.5H329.1C340.1 13.4 360.8 0.5 384.5 0.5C419.8 0.5 448.5 29.2 448.5 64.5C448.5 88.2 435.6 108.9 416.5 119.9V233.1C435.6 244.2 448.5 264.8 448.5 288.5C448.5 323.8 419.8 352.5 384.5 352.5C360.8 352.5 340.1 339.6 329.1 320.5H119.9C108.8 339.6 88.2 352.5 64.5 352.5C29.2 352.5 0.5 323.8 0.5 288.5C0.5 264.8 13.4 244.1 32.5 233.1V119.9ZM119.9 96.5C114.3 106.2 106.2 114.3 96.5 119.9V233.1C106.2 238.7 114.3 246.8 119.9 256.5H329.1C334.7 246.8 342.8 238.7 352.5 233.1V119.9C342.8 114.3 334.7 106.2 329.1 96.5H119.9ZM311.9 480.5C300.8 499.6 280.2 512.5 256.5 512.5C221.2 512.5 192.5 483.8 192.5 448.5C192.5 424.8 205.4 404.1 224.5 393.1V352.5H288.5V393.1C298.2 398.7 306.3 406.8 311.9 416.5H521.1C526.7 406.8 534.8 398.7 544.5 393.1V279.9C534.8 274.3 526.7 266.2 521.1 256.5H475.1C469.7 241.1 460.5 227.6 448.6 216.9V192.5H521.2C532.3 173.4 552.9 160.5 576.6 160.5C611.9 160.5 640.6 189.2 640.6 224.5C640.6 248.2 627.7 268.9 608.6 279.9V393.1C627.7 404.2 640.6 424.8 640.6 448.5C640.6 483.8 611.9 512.5 576.6 512.5C552.9 512.5 532.2 499.6 521.2 480.5H311.9Z" fill="#47535F"/>
</g>
<defs>
<clipPath id="clip0_104_2064">
<rect width="640" height="512" fill="white" transform="translate(0.5 0.5)"/>
</clipPath>
</defs>
</svg>
