<svg width="577" height="513" viewBox="0 0 577 513" fill="none" xmlns="http://www.w3.org/2000/svg">
<g clip-path="url(#clip0_104_2068)">
<path d="M528.8 61.8C517.4 19.1 473.5 -6.19996 430.8 5.20004L415.4 9.30004C398.3 13.9 388.2 31.5 392.8 48.5L417.3 139.9L309 168L302.7 149.9C298.2 137.1 286.1 128.5 272.5 128.5C258.9 128.5 246.8 137.1 242.3 149.9L228.7 188.9L96.5 223.1V184.5C96.5 171.2 85.8 160.5 72.5 160.5C59.2 160.5 48.5 171.2 48.5 184.5V448.5H32.5C14.8 448.5 0.5 462.8 0.5 480.5C0.5 498.2 14.8 512.5 32.5 512.5H544.5C562.2 512.5 576.5 498.2 576.5 480.5C576.5 462.8 562.2 448.5 544.5 448.5H407.2L340.5 258L278.3 274.1L305.8 352.5H239.2L265.5 277.5L190.9 296.8L137.8 448.5H96.5V289.3L433.9 201.8L459.1 295.8C463.7 312.9 481.2 323 498.3 318.4L513.8 314.3C556.5 302.9 581.8 259 570.4 216.3L528.8 61.8ZM205.6 448.5L216.8 416.5H328.2L339.4 448.5H205.6Z" fill="#47535F"/>
</g>
<defs>
<clipPath id="clip0_104_2068">
<rect width="576" height="512" fill="white" transform="translate(0.5 0.5)"/>
</clipPath>
</defs>
</svg>
