<svg width="641" height="513" viewBox="0 0 641 513" fill="none" xmlns="http://www.w3.org/2000/svg">
<g clip-path="url(#clip0_104_2066)">
<path d="M320.5 128.5C338.2 128.5 352.5 114.2 352.5 96.5C352.5 78.8 338.2 64.5 320.5 64.5H192.5C174.8 64.5 160.5 78.8 160.5 96.5C160.5 114.2 174.8 128.5 192.5 128.5H224.5V160.5H144.5H96.5H48.5C22 160.5 0.5 182 0.5 208.5V273.3C0.5 292.3 11.7 309.5 29 317.2L96.5 347.2V368.5C96.5 395 118 416.5 144.5 416.5H403.6C422 416.5 439.4 408.6 451.6 394.8L634 188.2C646.3 174.3 633.7 152.8 615.6 156.7L448.5 192.5L398 167.3C389.1 162.9 379.3 160.5 369.4 160.5H288.5V128.5H320.5ZM96.5 208.5V294.6L48.5 273.3V208.5H96.5Z" fill="#47535F"/>
</g>
<defs>
<clipPath id="clip0_104_2066">
<rect width="640" height="512" fill="white" transform="translate(0.5 0.5)"/>
</clipPath>
</defs>
</svg>
