<svg width="513" height="513" viewBox="0 0 513 513" fill="none" xmlns="http://www.w3.org/2000/svg">
<g clip-path="url(#clip0_104_2070)">
<path d="M379.8 5.20005C373.6 -0.999951 363.4 -0.999951 357.2 5.20005L341.2 21.2001C335 27.4001 335 37.6 341.2 43.8L357.2 59.8C363.4 66 373.6 66 379.8 59.8L395.8 43.8C402 37.6 402 27.4001 395.8 21.2001L379.8 5.20005ZM115.7 170.1C123.7 164.1 133.6 160.5 144.5 160.5C171 160.5 192.5 182 192.5 208.5C192.5 235 171 256.5 144.5 256.5H110.3C102.7 256.5 96.5004 262.7 96.5004 270.3C96.5004 271.8 96.7003 273.2 97.2003 274.7L105.2 298.7C109.6 311.8 121.8 320.6 135.6 320.6H144.5H160.5C195.8 320.6 224.5 349.3 224.5 384.6C224.5 419.9 195.8 448.6 160.5 448.6C109.7 448.6 77.8004 427.1 58.3004 405.8C48.4004 395 41.7004 384.2 37.4004 376.1C35.3004 372.1 33.8004 368.8 32.9004 366.5C32.4004 365.4 32.1004 364.5 31.9004 364L31.7004 363.5V363.4C29.1004 355.6 21.0003 351.1 13.0003 352.9C4.90035 354.7 -0.39965 362.3 0.60035 370.5L16.5004 368.5C0.600351 370.5 0.60035 370.5 0.60035 370.5V370.6L0.70035 371C0.70035 371.3 0.80035 371.8 0.90035 372.3C1.10035 373.4 1.30035 375 1.70035 376.9C2.50035 380.8 3.70035 386.3 5.60035 392.8C9.40035 405.8 15.9004 423.2 26.9004 440.8C49.2003 476.7 89.9004 512.5 160.5 512.5C231.2 512.5 288.5 455.2 288.5 384.5C288.5 361.2 282.3 339.3 271.4 320.5H294C319.5 320.5 343.9 310.4 361.9 292.4L388.4 265.9C394.4 259.9 402.5 256.5 411 256.5H416.5C434.2 256.5 448.5 270.8 448.5 288.5V384.5C448.5 402.2 434.2 416.5 416.5 416.5C390.8 416.5 375.1 404 365.3 390.9C360.3 384.2 356.9 377.5 354.8 372.3C353.7 369.8 353 367.7 352.6 366.3C352.4 365.6 352.2 365.1 352.1 364.8L352 364.5C350.1 357.2 343.4 352.1 335.8 352.4C328.2 352.7 321.9 358.3 320.7 365.8L336.5 368.5C320.7 365.9 320.7 365.9 320.7 365.9V366L320.6 366.3C320.6 366.6 320.5 366.9 320.4 367.4C320.3 368.3 320.1 369.5 320 371C319.7 374 319.4 378.3 319.4 383.4C319.4 393.5 320.5 407.3 325.2 421.5C330 435.8 338.6 450.8 353.8 462.2C369.2 473.8 389.8 480.5 416.5 480.5C469.5 480.5 512.5 437.5 512.5 384.5V288.5C512.5 235.5 469.5 192.5 416.5 192.5H411C385.5 192.5 361.1 202.6 343.1 220.6L316.6 247.1C310.6 253.1 302.5 256.5 294 256.5H245.7C252.6 242 256.5 225.7 256.5 208.5C256.5 146.6 206.4 96.5 144.5 96.5C119.3 96.5 96.0004 104.8 77.3004 118.9C63.2004 129.5 60.3004 149.6 70.9004 163.7C81.5004 177.8 101.6 180.7 115.7 170.1ZM281.4 67.2C275.4 63.2 267.4 63.7 261.9 68.5C256.4 73.3 254.9 81.2 258.2 87.7L272.5 80.5C258.2 87.7 258.2 87.7 258.2 87.7V87.8L258.3 88L258.7 88.7C259 89.3 259.5 90.1 260.1 91.1C261.3 93.1 263 95.9 265.2 99.3C269.6 106 276.3 114.8 285.2 123.7C302.9 141.6 330.8 160.5 368.5 160.5C399.7 160.5 425.1 150.1 442.4 140.3C451.1 135.3 458 130.4 462.8 126.5C465.2 124.6 467.1 122.9 468.5 121.6C469.2 121 469.8 120.4 470.2 120L470.8 119.5L471 119.3L471.1 119.2C471.1 119.2 471.1 119.2 448.5 96.6L471.1 119.2C483.6 106.7 483.6 86.4 471.1 73.9C458.7 61.5 438.5 61.4 426 73.7C425.9 73.8 425.8 73.9 425.5 74.1C425 74.6 424 75.4 422.7 76.5C420 78.7 415.9 81.7 410.6 84.7C399.9 90.9 385.3 96.5 368.5 96.5C347.7 96.5 326.1 89.5 309 81.9C300.6 78.2 293.6 74.4 288.7 71.6C286.3 70.2 284.4 69.1 283.1 68.3C282.5 67.9 282 67.6 281.7 67.4L281.4 67.2Z" fill="#47535F"/>
</g>
<defs>
<clipPath id="clip0_104_2070">
<rect width="512" height="512" fill="white" transform="translate(0.5 0.5)"/>
</clipPath>
</defs>
</svg>
