<svg width="641" height="513" viewBox="0 0 641 513" fill="none" xmlns="http://www.w3.org/2000/svg">
<g clip-path="url(#clip0_104_2072)">
<path d="M182 197.6L194.9 204C200.8 207 207.3 208.5 214 208.5C237.5 208.5 256.6 189.4 256.6 165.9V144.5C256.6 109.2 227.9 80.5 192.6 80.5H128.5C93.2 80.5 64.5 109.2 64.5 144.5V165.9C64.5 189.4 83.6 208.5 107.1 208.5C113.7 208.5 120.2 207 126.2 204L139.1 197.6L147.5 193.4L135.6 185.5C131.1 182.5 128.5 177.5 128.5 172.2V168.5C128.5 155.2 139.2 144.5 152.5 144.5H168.5C181.8 144.5 192.5 155.2 192.5 168.5V172.2C192.5 177.5 189.8 182.5 185.4 185.5L173.6 193.4L182 197.6ZM173.4 247L160.5 240.5L147.6 246.9C135 253.2 121.1 256.5 107.1 256.5C103.5 256.5 100 256.3 96.5 255.9V256.5C96.5 291.8 125.2 320.5 160.5 320.5H224.5C242.2 320.5 256.5 334.8 256.5 352.5C256.5 370.2 242.2 384.5 224.5 384.5H384.5V336.5V320.5C384.5 296.8 397.4 276.1 416.5 265.1C425.9 259.7 436.8 256.5 448.5 256.5V240.5C448.5 214 470 192.5 496.5 192.5C505.3 192.5 512.5 199.7 512.5 208.5V240.5V256.5V304.5C512.5 313.3 519.7 320.5 528.5 320.5C537.3 320.5 544.5 313.3 544.5 304.5V204.8C544.5 156.6 513.7 113.8 467.9 98.5L459.4 95.7C451.4 93 446.8 84.6 449 76.4C451.2 68.2 459.3 63.2 467.6 64.8L487.5 68.8C576.5 86.6 640.5 164.7 640.5 255.4V256.5C640.5 380.2 540.2 480.5 416.5 480.5H415.4H256.5H255.9C132.5 480.5 32.5 380.5 32.5 257.1V256.5V217.3C22.4 202.7 16.5 185 16.5 165.9V144.5V143.1C7.2 139.8 0.5 131 0.5 120.5C0.5 107.2 11.2 96.5 24.5 96.5H27.3C45.3 58.7 83.8 32.5 128.5 32.5H192.5C237.2 32.5 275.7 58.7 293.7 96.5H296.5C309.8 96.5 320.5 107.2 320.5 120.5C320.5 131 313.8 139.8 304.5 143.1V144.5V165.9C304.5 167.3 304.5 168.7 304.4 170.2C316.4 164 330.1 160.6 344.5 160.6H352.5C370.2 160.6 384.5 174.9 384.5 192.6C384.5 210.3 370.2 224.6 352.5 224.6H344.5C331.2 224.6 320.5 235.3 320.5 248.6V256.6H376.9C361.7 273.6 352.5 296 352.5 320.6H320.5C278.2 320.6 242.3 293.2 229.5 255.3C224.4 256.2 219.2 256.6 213.9 256.6C199.8 256.6 186 253.3 173.4 247ZM96.5 128.5C100.743 128.5 104.813 130.186 107.814 133.186C110.814 136.187 112.5 140.257 112.5 144.5C112.5 148.743 110.814 152.813 107.814 155.814C104.813 158.814 100.743 160.5 96.5 160.5C92.2565 160.5 88.1869 158.814 85.1863 155.814C82.1857 152.813 80.5 148.743 80.5 144.5C80.5 140.257 82.1857 136.187 85.1863 133.186C88.1869 130.186 92.2565 128.5 96.5 128.5ZM208.5 144.5C208.5 140.257 210.186 136.187 213.186 133.186C216.187 130.186 220.257 128.5 224.5 128.5C228.743 128.5 232.813 130.186 235.814 133.186C238.814 136.187 240.5 140.257 240.5 144.5C240.5 148.743 238.814 152.813 235.814 155.814C232.813 158.814 228.743 160.5 224.5 160.5C220.257 160.5 216.187 158.814 213.186 155.814C210.186 152.813 208.5 148.743 208.5 144.5Z" fill="#47535F"/>
</g>
<defs>
<clipPath id="clip0_104_2072">
<rect width="640" height="512" fill="white" transform="translate(0.5 0.5)"/>
</clipPath>
</defs>
</svg>
