<svg width="449" height="513" viewBox="0 0 449 513" fill="none" xmlns="http://www.w3.org/2000/svg">
<g clip-path="url(#clip0_104_2074)">
<path d="M0.499804 64.5C0.499804 46.8 14.7998 32.5 32.4998 32.5H416.5C434.2 32.5 448.5 46.8 448.5 64.5C448.5 82.2 434.2 96.5 416.5 96.5H32.4998C14.7998 96.5 0.499804 82.2 0.499804 64.5ZM192.5 192.5C192.5 174.8 206.8 160.5 224.5 160.5H416.5C434.2 160.5 448.5 174.8 448.5 192.5C448.5 210.2 434.2 224.5 416.5 224.5H224.5C206.8 224.5 192.5 210.2 192.5 192.5ZM224.5 288.5H416.5C434.2 288.5 448.5 302.8 448.5 320.5C448.5 338.2 434.2 352.5 416.5 352.5H224.5C206.8 352.5 192.5 338.2 192.5 320.5C192.5 302.8 206.8 288.5 224.5 288.5ZM0.499804 448.5C0.499804 430.8 14.7998 416.5 32.4998 416.5H416.5C434.2 416.5 448.5 430.8 448.5 448.5C448.5 466.2 434.2 480.5 416.5 480.5H32.4998C14.7998 480.5 0.499804 466.2 0.499804 448.5ZM0.699804 269.1C-7.5002 262.7 -7.5002 250.2 0.699804 243.8L102.6 164.5C113.1 156.3 128.4 163.8 128.4 177.1V335.8C128.4 349.1 113.1 356.6 102.6 348.4L0.699804 269.1Z" fill="#47535F"/>
</g>
<defs>
<clipPath id="clip0_104_2074">
<rect width="448" height="512" fill="white" transform="translate(0.5 0.5)"/>
</clipPath>
</defs>
</svg>
