<svg width="321" height="513" viewBox="0 0 321 513" fill="none" xmlns="http://www.w3.org/2000/svg">
<g clip-path="url(#clip0_104_2076)">
<path d="M0.5 96.5C0.5 61.2 29.2 32.5 64.5 32.5H160.5C248.9 32.5 320.5 104.1 320.5 192.5C320.5 280.9 248.9 352.5 160.5 352.5H64.5V448.5C64.5 466.2 50.2 480.5 32.5 480.5C14.8 480.5 0.5 466.2 0.5 448.5V320.5V96.5ZM64.5 288.5H160.5C213.5 288.5 256.5 245.5 256.5 192.5C256.5 139.5 213.5 96.5 160.5 96.5H64.5V288.5Z" fill="#47535F"/>
</g>
<defs>
<clipPath id="clip0_104_2076">
<rect width="320" height="512" fill="white" transform="translate(0.5 0.5)"/>
</clipPath>
</defs>
</svg>
