<svg width="513" height="513" viewBox="0 0 513 513" fill="none" xmlns="http://www.w3.org/2000/svg">
<g clip-path="url(#clip0_104_2082)">
<path d="M0.5 64.5C0.5 29.2 29.2 0.5 64.5 0.5H352.5C387.8 0.5 416.5 29.2 416.5 64.5V128.5C416.5 163.8 387.8 192.5 352.5 192.5H64.5C29.2 192.5 0.5 163.8 0.5 128.5V64.5ZM160.5 352.5C160.5 334.8 174.8 320.5 192.5 320.5V304.5C192.5 260.3 228.3 224.5 272.5 224.5H416.5C434.2 224.5 448.5 210.2 448.5 192.5V160.5V70C485.8 83.2 512.5 118.7 512.5 160.5V192.5C512.5 245.5 469.5 288.5 416.5 288.5H272.5C263.7 288.5 256.5 295.7 256.5 304.5V320.5C274.2 320.5 288.5 334.8 288.5 352.5V480.5C288.5 498.2 274.2 512.5 256.5 512.5H192.5C174.8 512.5 160.5 498.2 160.5 480.5V352.5Z" fill="#47535F"/>
</g>
<defs>
<clipPath id="clip0_104_2082">
<rect width="512" height="512" fill="white" transform="translate(0.5 0.5)"/>
</clipPath>
</defs>
</svg>
