<svg width="577" height="513" viewBox="0 0 577 513" fill="none" xmlns="http://www.w3.org/2000/svg">
<g clip-path="url(#clip0_104_2080)">
<path d="M339.8 367.6C367.1 363.7 391.7 348.2 407 324.7L568.7 74.6C581.3 55.1 578.1 29.3 561.1 13.4C544.1 -2.50003 518.2 -3.90003 499.6 10.1L262.9 187.7C238.9 205.7 224.7 233.8 224.5 263.8L339.8 367.6ZM320.2 393L204.2 288.6C144.4 290.8 96.5 340.1 96.5 400.5C96.5 404.4 96.7 408.3 97.1 412.1C98.9 429.6 86.9 448.5 69.3 448.5H64.5C46.8 448.5 32.5 462.8 32.5 480.5C32.5 498.2 46.8 512.5 64.5 512.5H208.5C270.4 512.5 320.5 462.4 320.5 400.5C320.5 398 320.4 395.5 320.3 393H320.2Z" fill="#47535F"/>
</g>
<defs>
<clipPath id="clip0_104_2080">
<rect width="576" height="512" fill="white" transform="translate(0.5 0.5)"/>
</clipPath>
</defs>
</svg>
