<svg width="513" height="513" viewBox="0 0 513 513" fill="none" xmlns="http://www.w3.org/2000/svg">
<g clip-path="url(#clip0_104_2084)">
<path d="M512.5 256.5C512.5 257.4 512.5 258.3 512.5 259.2C512.1 295.7 478.9 320.5 442.4 320.5H344.5C318 320.5 296.5 342 296.5 368.5C296.5 371.9 296.9 375.2 297.5 378.4C299.6 388.6 304 398.4 308.3 408.3C314.4 422.1 320.4 435.8 320.4 450.3C320.4 482.1 298.8 511 267 512.3C263.5 512.4 260 512.5 256.4 512.5C115.1 512.5 0.5 397.9 0.5 256.5C0.5 115.1 115.1 0.5 256.5 0.5C397.9 0.5 512.5 115.1 512.5 256.5ZM128.5 288.5C128.5 280.013 125.129 271.874 119.127 265.873C113.126 259.871 104.987 256.5 96.5 256.5C88.0131 256.5 79.8737 259.871 73.8726 265.873C67.8714 271.874 64.5 280.013 64.5 288.5C64.5 296.987 67.8714 305.126 73.8726 311.127C79.8737 317.129 88.0131 320.5 96.5 320.5C104.987 320.5 113.126 317.129 119.127 311.127C125.129 305.126 128.5 296.987 128.5 288.5ZM128.5 192.5C136.987 192.5 145.126 189.129 151.127 183.127C157.129 177.126 160.5 168.987 160.5 160.5C160.5 152.013 157.129 143.874 151.127 137.873C145.126 131.871 136.987 128.5 128.5 128.5C120.013 128.5 111.874 131.871 105.873 137.873C99.8714 143.874 96.5 152.013 96.5 160.5C96.5 168.987 99.8714 177.126 105.873 183.127C111.874 189.129 120.013 192.5 128.5 192.5ZM288.5 96.5C288.5 88.0131 285.129 79.8737 279.127 73.8726C273.126 67.8714 264.987 64.5 256.5 64.5C248.013 64.5 239.874 67.8714 233.873 73.8726C227.871 79.8737 224.5 88.0131 224.5 96.5C224.5 104.987 227.871 113.126 233.873 119.127C239.874 125.129 248.013 128.5 256.5 128.5C264.987 128.5 273.126 125.129 279.127 119.127C285.129 113.126 288.5 104.987 288.5 96.5ZM384.5 192.5C392.987 192.5 401.126 189.129 407.127 183.127C413.129 177.126 416.5 168.987 416.5 160.5C416.5 152.013 413.129 143.874 407.127 137.873C401.126 131.871 392.987 128.5 384.5 128.5C376.013 128.5 367.874 131.871 361.873 137.873C355.871 143.874 352.5 152.013 352.5 160.5C352.5 168.987 355.871 177.126 361.873 183.127C367.874 189.129 376.013 192.5 384.5 192.5Z" fill="#47535F"/>
</g>
<defs>
<clipPath id="clip0_104_2084">
<rect width="512" height="512" fill="white" transform="translate(0.5 0.5)"/>
</clipPath>
</defs>
</svg>
