<svg width="641" height="513" viewBox="0 0 641 513" fill="none" xmlns="http://www.w3.org/2000/svg">
<g clip-path="url(#clip0_104_2086)">
<path d="M32.5 320.5C14.8 320.5 0.5 334.8 0.5 352.5C0.5 370.2 14.8 384.5 32.5 384.5H64.5V448.5H32.5C14.8 448.5 0.5 462.8 0.5 480.5C0.5 498.2 14.8 512.5 32.5 512.5H96.5H320.5H544.5H608.5C626.2 512.5 640.5 498.2 640.5 480.5C640.5 462.8 626.2 448.5 608.5 448.5H576.5V384.5H608.5C626.2 384.5 640.5 370.2 640.5 352.5C640.5 334.8 626.2 320.5 608.5 320.5H544.5H320.5H96.5H32.5ZM128.5 384.5H288.5V448.5H128.5V384.5ZM352.5 384.5H512.5V448.5H352.5V384.5Z" fill="#47535F"/>
</g>
<defs>
<clipPath id="clip0_104_2086">
<rect width="640" height="512" fill="white" transform="translate(0.5 0.5)"/>
</clipPath>
</defs>
</svg>
