<svg width="641" height="513" viewBox="0 0 641 513" fill="none" xmlns="http://www.w3.org/2000/svg">
<g clip-path="url(#clip0_104_2088)">
<path d="M46.1 32.5C20.9 32.5 0.5 52.9 0.5 78.1V434.9C0.5 460.1 20.9 480.5 46.1 480.5C51.2 480.5 56.1 479.7 60.8 478.1C75.1 473.3 178.1 440.5 320.5 440.5C462.9 440.5 565.9 473.3 580.1 478.1C584.8 479.7 589.8 480.5 594.8 480.5C620 480.5 640.4 460.1 640.4 434.9V78.1C640.5 52.9 620.1 32.5 594.9 32.5C589.9 32.5 584.9 33.3 580.2 34.9C565.9 39.7 462.9 72.5 320.5 72.5C178.1 72.5 75.1 39.7 60.9 34.9C56.1 33.3 51.2 32.5 46.1 32.5ZM96.5 160.5C96.5 152.013 99.8714 143.874 105.873 137.873C111.874 131.871 120.013 128.5 128.5 128.5C136.987 128.5 145.126 131.871 151.127 137.873C157.129 143.874 160.5 152.013 160.5 160.5C160.5 168.987 157.129 177.126 151.127 183.127C145.126 189.129 136.987 192.5 128.5 192.5C120.013 192.5 111.874 189.129 105.873 183.127C99.8714 177.126 96.5 168.987 96.5 160.5ZM368.5 160.5C376.4 160.5 383.9 164.4 388.3 171L512.8 353.5C518.2 361.5 518.4 371.9 513.2 380C508 388.1 498.5 392.3 489 390.7C443.2 382.9 385.7 376.5 320.5 376.5C254.9 376.5 197.1 383 151.2 390.9C141.4 392.6 131.5 388 126.5 379.4C121.5 370.8 122.2 360 128.4 352.2L197.8 265.5C202.4 259.8 209.2 256.5 216.5 256.5C223.8 256.5 230.7 259.8 235.2 265.5L261.6 298.6L348.6 171C353.1 164.4 360.5 160.5 368.4 160.5H368.5Z" fill="#47535F"/>
</g>
<defs>
<clipPath id="clip0_104_2088">
<rect width="640" height="512" fill="white" transform="translate(0.5 0.5)"/>
</clipPath>
</defs>
</svg>
