<svg width="513" height="513" viewBox="0 0 513 513" fill="none" xmlns="http://www.w3.org/2000/svg">
<g clip-path="url(#clip0_104_2092)">
<path d="M498.601 6.09992C508.701 13.0999 514.001 25.1999 512.101 37.2999L448.101 453.3C446.601 463 440.701 471.5 432.101 476.3C423.501 481.1 413.201 481.7 404.101 477.9L284.501 428.2L216.001 502.3C207.101 512 193.101 515.2 180.801 510.4C168.501 505.6 160.501 493.7 160.501 480.5V396.9C160.501 392.9 162.001 389.1 164.701 386.2L332.301 203.3C338.101 197 337.901 187.3 331.901 181.3C325.901 175.3 316.201 174.9 309.901 180.6L106.501 361.3L18.2007 317.1C7.60065 311.8 0.80065 301.2 0.50065 289.4C0.20065 277.6 6.40065 266.6 16.6007 260.7L464.601 4.69992C475.301 -1.40008 488.501 -0.800083 498.601 6.09992Z" fill="#47535F"/>
</g>
<defs>
<clipPath id="clip0_104_2092">
<rect width="512" height="512" fill="white" transform="translate(0.5 0.5)"/>
</clipPath>
</defs>
</svg>
