<svg width="449" height="513" viewBox="0 0 449 513" fill="none" xmlns="http://www.w3.org/2000/svg">
<path d="M364.699 84.3001C340.299 59.9001 300.699 59.9001 276.299 84.3001L92.2992 268.3C50.1992 310.4 50.1992 378.6 92.2992 420.7C134.399 462.8 202.599 462.8 244.699 420.7L396.699 268.7C407.599 257.8 425.399 257.8 436.299 268.7C447.199 279.6 447.199 297.4 436.299 308.3L284.299 460.3C220.299 524.3 116.699 524.3 52.6992 460.3C-11.3008 396.3 -11.3008 292.7 52.6992 228.7L236.699 44.7001C282.999 -1.5999 357.999 -1.5999 404.299 44.7001C450.599 91.0001 450.599 166 404.299 212.3L228.299 388.3C199.699 416.9 153.299 416.9 124.699 388.3C96.0992 359.7 96.0992 313.3 124.699 284.7L268.699 140.7C279.599 129.8 297.399 129.8 308.299 140.7C319.199 151.6 319.199 169.4 308.299 180.3L164.299 324.3C157.599 331 157.599 342 164.299 348.7C170.999 355.4 181.999 355.4 188.699 348.7L364.699 172.7C389.099 148.3 389.099 108.7 364.699 84.3001Z" fill="#47535F"/>
</svg>
