<svg width="449" height="513" viewBox="0 0 449 513" fill="none" xmlns="http://www.w3.org/2000/svg">
<g clip-path="url(#clip0_104_2096)">
<path d="M192.5 32.5H256.5H416.5C434.2 32.5 448.5 46.8 448.5 64.5C448.5 82.2 434.2 96.5 416.5 96.5H384.5V448.5C384.5 466.2 370.2 480.5 352.5 480.5C334.8 480.5 320.5 466.2 320.5 448.5V96.5H288.5V448.5C288.5 466.2 274.2 480.5 256.5 480.5C238.8 480.5 224.5 466.2 224.5 448.5V352.5H192.5C104.1 352.5 32.5 280.9 32.5 192.5C32.5 104.1 104.1 32.5 192.5 32.5Z" fill="#47535F"/>
</g>
<defs>
<clipPath id="clip0_104_2096">
<rect width="448" height="512" fill="white" transform="translate(0.5 0.5)"/>
</clipPath>
</defs>
</svg>
