<svg width="513" height="513" viewBox="0 0 513 513" fill="none" xmlns="http://www.w3.org/2000/svg">
<g clip-path="url(#clip0_104_2094)">
<path d="M384 192.5C384.3 187.2 384.5 181.9 384.5 176.5C384.5 125.5 368.6 80.5 344.3 48.9C320 17.4 288.7 0.5 256.5 0.5C224.3 0.5 193 17.4 168.7 48.9C144.4 80.5 128.5 125.5 128.5 176.5C128.5 181.9 128.7 187.2 129 192.5H240.5V320.5H208.5C201.5 320.5 194.8 322 188.8 324.7L68.7002 192.5H97.0002C96.7002 187.2 96.5002 181.9 96.5002 176.5C96.5002 112.5 118.7 55.3 153.6 17.2C62.5002 49.8 19.1002 123.1 4.70018 174.1C2.00018 183.6 9.50018 192.5 19.4002 192.5H25.4002L165.7 346.8C162.4 353.3 160.5 360.7 160.5 368.5V464.5C160.5 491 182 512.5 208.5 512.5H304.5C331 512.5 352.5 491 352.5 464.5V368.5C352.5 360.7 350.6 353.3 347.3 346.8L487.6 192.5H493.6C503.5 192.5 511 183.6 508.3 174.1C493.9 123.1 450.5 49.8 359.4 17.2C394.3 55.3 416.5 112.6 416.5 176.5C416.5 181.9 416.3 187.2 416 192.5H444.3L324.2 324.7C318.2 322 311.5 320.5 304.5 320.5H272.5V192.5H384Z" fill="#47535F"/>
</g>
<defs>
<clipPath id="clip0_104_2094">
<rect width="512" height="512" fill="white" transform="translate(0.5 0.5)"/>
</clipPath>
</defs>
</svg>
