<svg width="449" height="513" viewBox="0 0 449 513" fill="none" xmlns="http://www.w3.org/2000/svg">
<g clip-path="url(#clip0_104_2098)">
<path d="M0.5 64.5C0.5 29.2 29.2 0.5 64.5 0.5H384.5C419.8 0.5 448.5 29.2 448.5 64.5V448.5C448.5 483.8 419.8 512.5 384.5 512.5H64.5C29.2 512.5 0.5 483.8 0.5 448.5V64.5ZM183.5 279.3C155.6 266.1 135.1 239.9 129.8 208.5H168.9C170.5 238.9 176.6 262.3 183.5 279.3ZM224.8 288.5H224.5H224.2C221.8 285 218.5 279.6 215.1 272C209.1 258.4 202.7 237.7 200.9 208.5H248C246.2 237.7 239.9 258.4 233.8 272C230.4 279.6 227.1 285 224.7 288.5H224.8ZM265.5 279.3C272.3 262.2 278.4 238.9 280.1 208.5H319.2C313.9 239.9 293.4 266.1 265.5 279.3ZM280.1 176.5C278.5 146.1 272.4 122.7 265.5 105.7C293.4 118.9 313.9 145.1 319.2 176.5H280.1ZM224.2 96.5H224.5H224.8C227.2 100 230.5 105.4 233.9 113C239.9 126.6 246.3 147.3 248.1 176.5H201C202.8 147.3 209.1 126.6 215.2 113C218.6 105.4 221.9 100 224.3 96.5H224.2ZM183.5 105.7C176.7 122.8 170.6 146.1 168.9 176.5H129.8C135.1 145.1 155.6 118.9 183.5 105.7ZM352.5 192.5C352.5 158.552 339.014 125.995 315.01 101.99C291.005 77.9857 258.448 64.5 224.5 64.5C190.552 64.5 157.995 77.9857 133.99 101.99C109.986 125.995 96.5 158.552 96.5 192.5C96.5 226.448 109.986 259.005 133.99 283.01C157.995 307.014 190.552 320.5 224.5 320.5C258.448 320.5 291.005 307.014 315.01 283.01C339.014 259.005 352.5 226.448 352.5 192.5ZM112.5 384.5C103.7 384.5 96.5 391.7 96.5 400.5C96.5 409.3 103.7 416.5 112.5 416.5H336.5C345.3 416.5 352.5 409.3 352.5 400.5C352.5 391.7 345.3 384.5 336.5 384.5H112.5Z" fill="#47535F"/>
</g>
<defs>
<clipPath id="clip0_104_2098">
<rect width="448" height="512" fill="white" transform="translate(0.5 0.5)"/>
</clipPath>
</defs>
</svg>
