<svg width="513" height="513" viewBox="0 0 513 513" fill="none" xmlns="http://www.w3.org/2000/svg">
<g clip-path="url(#clip0_104_2100)">
<path d="M160.5 0.5C136.8 0.5 116.1 13.4 105.1 32.5H48.5C22 32.5 0.5 54 0.5 80.5V400.5C0.5 427 22 448.5 48.5 448.5H192.5V176.5C192.5 132.3 228.3 96.5 272.5 96.5H320.5V80.5C320.5 54 299 32.5 272.5 32.5H215.9C204.9 13.4 184.2 0.5 160.5 0.5ZM272.5 128.5C246 128.5 224.5 150 224.5 176.5V448.5V464.5C224.5 491 246 512.5 272.5 512.5H464.5C491 512.5 512.5 491 512.5 464.5V256.5H416.5C398.8 256.5 384.5 242.2 384.5 224.5V128.5H320.5H272.5ZM160.5 40.5C166.865 40.5 172.97 43.0286 177.471 47.5294C181.971 52.0303 184.5 58.1348 184.5 64.5C184.5 70.8652 181.971 76.9697 177.471 81.4706C172.97 85.9714 166.865 88.5 160.5 88.5C154.135 88.5 148.03 85.9714 143.529 81.4706C139.029 76.9697 136.5 70.8652 136.5 64.5C136.5 58.1348 139.029 52.0303 143.529 47.5294C148.03 43.0286 154.135 40.5 160.5 40.5ZM416.5 128.5V224.5H512.5L416.5 128.5Z" fill="#47535F"/>
</g>
<defs>
<clipPath id="clip0_104_2100">
<rect width="512" height="512" fill="white" transform="translate(0.5 0.5)"/>
</clipPath>
</defs>
</svg>
