<svg width="321" height="513" viewBox="0 0 321 513" fill="none" xmlns="http://www.w3.org/2000/svg">
<g clip-path="url(#clip0_104_2102)">
<path d="M48.5 64.5C22 64.5 0.5 86 0.5 112.5V400.5C0.5 427 22 448.5 48.5 448.5H80.5C107 448.5 128.5 427 128.5 400.5V112.5C128.5 86 107 64.5 80.5 64.5H48.5ZM240.5 64.5C214 64.5 192.5 86 192.5 112.5V400.5C192.5 427 214 448.5 240.5 448.5H272.5C299 448.5 320.5 427 320.5 400.5V112.5C320.5 86 299 64.5 272.5 64.5H240.5Z" fill="#47535F"/>
</g>
<defs>
<clipPath id="clip0_104_2102">
<rect width="320" height="512" fill="white" transform="translate(0.5 0.5)"/>
</clipPath>
</defs>
</svg>
