<svg width="513" height="513" viewBox="0 0 513 513" fill="none" xmlns="http://www.w3.org/2000/svg">
<g clip-path="url(#clip0_104_2104)">
<path d="M227 93.4C241.3 136.3 226.7 179.6 194.4 190.2C162.1 200.8 124.3 174.6 110 131.7C95.6995 88.8 110.3 45.5 142.6 34.9C174.9 24.3 212.7 50.5 227 93.4ZM100.9 199.1C119.8 231.5 115.2 269.2 90.6995 283.2C66.1995 297.2 30.9995 282.3 12.1995 249.9C-6.60049 217.5 -2.20049 179.8 22.2995 165.8C46.7995 151.8 81.9995 166.7 100.8 199.1H100.9ZM69.6995 401.7C122.1 260.4 215.2 224.5 256.5 224.5C297.8 224.5 390.899 260.4 443.299 401.7C446.899 411.4 448.5 421.8 448.5 432.2V433.8C448.5 459.6 427.599 480.5 401.799 480.5C390.299 480.5 378.899 479.1 367.799 476.3L279.799 454.3C264.499 450.5 248.5 450.5 233.2 454.3L145.2 476.3C134.1 479.1 122.7 480.5 111.2 480.5C85.3995 480.5 64.4995 459.6 64.4995 433.8V432.2C64.4995 421.8 66.0995 411.4 69.6995 401.7ZM422.299 283.2C397.799 269.2 393.2 231.5 412.1 199.1C431 166.7 466.1 151.8 490.6 165.8C515.1 179.8 519.699 217.5 500.799 249.9C481.899 282.3 446.799 297.2 422.299 283.2ZM310.6 190.2C278.3 179.6 263.7 136.3 278 93.4C292.3 50.5 330.1 24.3 362.4 34.9C394.7 45.5 409.3 88.8 395 131.7C380.7 174.6 342.9 200.8 310.6 190.2Z" fill="#47535F"/>
</g>
<defs>
<clipPath id="clip0_104_2104">
<rect width="512" height="512" fill="white" transform="translate(0.5 0.5)"/>
</clipPath>
</defs>
</svg>
