<svg width="513" height="513" viewBox="0 0 513 513" fill="none" xmlns="http://www.w3.org/2000/svg">
<g clip-path="url(#clip0_104_2120)">
<path d="M472.1 22.1999C450.2 0.299902 414.8 0.299902 392.9 22.1999L362.8 52.1999L460.7 150.1L490.8 120C512.7 98.0999 512.7 62.6999 490.8 40.7999L472.1 22.1999ZM172.9 242.2C166.8 248.3 162.1 255.8 159.4 264.1L129.8 352.9C126.9 361.5 129.2 371 135.6 377.5C142 384 151.5 386.2 160.2 383.3L249 353.7C257.2 351 264.7 346.3 270.9 340.2L438.2 172.8L340.2 74.7999L172.9 242.2ZM96.5 64.4999C43.5 64.4999 0.5 107.5 0.5 160.5V416.5C0.5 469.5 43.5 512.5 96.5 512.5H352.5C405.5 512.5 448.5 469.5 448.5 416.5V320.5C448.5 302.8 434.2 288.5 416.5 288.5C398.8 288.5 384.5 302.8 384.5 320.5V416.5C384.5 434.2 370.2 448.5 352.5 448.5H96.5C78.8 448.5 64.5 434.2 64.5 416.5V160.5C64.5 142.8 78.8 128.5 96.5 128.5H192.5C210.2 128.5 224.5 114.2 224.5 96.4999C224.5 78.7999 210.2 64.4999 192.5 64.4999H96.5Z" fill="#47535F"/>
</g>
<defs>
<clipPath id="clip0_104_2120">
<rect width="512" height="512" fill="white" transform="translate(0.5 0.5)"/>
</clipPath>
</defs>
</svg>
