<svg width="513" height="513" viewBox="0 0 513 513" fill="none" xmlns="http://www.w3.org/2000/svg">
<g clip-path="url(#clip0_104_2112)">
<path d="M453.8 19.7999L493.2 59.2C518.2 84.2 518.2 124.7 493.2 149.7L441.1 201.8L440.1 200.8L424.1 184.8L328.1 88.8L311.1 71.8L363.2 19.7C388.2 -5.30005 428.7 -5.30005 453.7 19.7L453.8 19.7999ZM241.5 115.4C232.1 106 216.9 106 207.6 115.4L105.5 217.5C96.0999 226.9 80.8999 226.9 71.5999 217.5C62.2999 208.1 62.1999 192.9 71.5999 183.6L173.6 81.5C201.7 53.4 247.3 53.4 275.4 81.5L288.5 94.5999L305.5 111.6L401.5 207.6L417.5 223.6L418.5 224.6L401.5 241.6L230 413C182 461 120.8 493.8 54.1999 507.1L29.1999 512.1C21.2999 513.7 13.1999 511.2 7.49995 505.5C1.79995 499.8 -0.600052 491.7 0.899948 483.8L5.89995 458.8C19.1999 392.2 51.9999 331 99.9999 283L254.6 128.5L241.5 115.4Z" fill="#47535F"/>
</g>
<defs>
<clipPath id="clip0_104_2112">
<rect width="512" height="512" fill="white" transform="translate(0.5 0.5)"/>
</clipPath>
</defs>
</svg>
