<svg width="513" height="513" viewBox="0 0 513 513" fill="none" xmlns="http://www.w3.org/2000/svg">
<g clip-path="url(#clip0_104_2118)">
<path d="M469.8 19.8L493.2 43.2001C518.2 68.2001 518.2 108.7 493.2 133.7L436.8 190.1L322.8 76.2L379.2 19.8C404.2 -5.19995 444.7 -5.19995 469.7 19.8H469.8ZM45.3997 353.7L300.2 98.8L414.2 212.8L159.3 467.6C152.6 474.3 144.2 479.2 135.1 481.8L31.0997 511.5C22.6997 513.9 13.6997 511.6 7.49971 505.4C1.29972 499.2 -1.00029 490.2 1.39971 481.8L31.0997 377.8C33.6997 368.6 38.5997 360.3 45.2997 353.6L45.3997 353.7ZM249.9 103.9L103.9 249.9L16.4997 162.4C-2.20029 143.7 -2.20029 113.3 16.4997 94.5L94.5997 16.5C113.3 -2.19995 143.7 -2.19995 162.5 16.5L182.3 36.3C182 36.6 181.6 36.9001 181.3 37.2001L117.3 101.2C111.1 107.4 111.1 117.6 117.3 123.8C123.5 130 133.7 130 139.9 123.8L203.9 59.8C204.2 59.5 204.5 59.1 204.8 58.8L249.9 103.9ZM409.1 263.1L454.2 308.2C453.9 308.5 453.5 308.8 453.2 309.1L389.2 373.1C383 379.3 383 389.5 389.2 395.7C395.4 401.9 405.6 401.9 411.8 395.7L475.8 331.7C476.1 331.4 476.4 331 476.7 330.7L496.5 350.6C515.2 369.3 515.2 399.7 496.5 418.5L418.4 496.5C399.7 515.2 369.3 515.2 350.5 496.5L263.1 409.1L409.1 263.1Z" fill="#47535F"/>
</g>
<defs>
<clipPath id="clip0_104_2118">
<rect width="512" height="512" fill="white" transform="translate(0.5 0.5)"/>
</clipPath>
</defs>
</svg>
