<svg width="513" height="513" viewBox="0 0 513 513" fill="none" xmlns="http://www.w3.org/2000/svg">
<g clip-path="url(#clip0_104_2114)">
<path d="M373.999 27.6C388.999 10.4 410.699 0.5 433.499 0.5C477.099 0.5 512.499 35.9 512.499 79.5C512.499 102.3 502.599 124.1 485.399 139.1L278.199 319.5L267.899 309.2L203.899 245.2L193.499 234.8L373.999 27.6ZM170.799 257.4L181.199 267.8L245.199 331.8L255.599 342.2L236.399 425.6C232.499 442.7 219.499 456.3 202.599 461L24.8992 510.8L120.299 415.4C122.899 416.1 125.699 416.5 128.599 416.5C146.299 416.5 160.599 402.2 160.599 384.5C160.599 366.8 146.299 352.5 128.599 352.5C110.899 352.5 96.5992 366.8 96.5992 384.5C96.5992 387.4 96.9992 390.1 97.6992 392.8L2.19922 488.1L51.9992 310.5C56.6992 293.6 70.2992 280.6 87.3992 276.7L170.799 257.5V257.4Z" fill="#47535F"/>
</g>
<defs>
<clipPath id="clip0_104_2114">
<rect width="512" height="512" fill="white" transform="translate(0.5 0.5)"/>
</clipPath>
</defs>
</svg>
