<svg width="513" height="513" viewBox="0 0 513 513" fill="none" xmlns="http://www.w3.org/2000/svg">
<g clip-path="url(#clip0_104_2108)">
<path d="M363.201 19.8L314.801 68.2L444.801 198.2L493.201 149.8C518.201 124.8 518.201 84.3 493.201 59.3L453.801 19.8C428.801 -5.19995 388.301 -5.19995 363.301 19.8H363.201ZM292.201 90.8L59.1009 324C48.7009 334.4 41.1009 347.3 36.9009 361.4L1.50088 481.7C-0.999118 490.2 1.30088 499.3 7.50088 505.5C13.7009 511.7 22.8009 514 31.2009 511.6L151.501 476.2C165.601 472 178.501 464.4 188.901 454L422.201 220.8L292.201 90.8Z" fill="#47535F"/>
</g>
<defs>
<clipPath id="clip0_104_2108">
<rect width="512" height="512" fill="white" transform="translate(0.5 0.5)"/>
</clipPath>
</defs>
</svg>
