<svg width="513" height="513" viewBox="0 0 513 513" fill="none" xmlns="http://www.w3.org/2000/svg">
<path d="M368.901 18.8L313.201 74.6L438.401 199.8L494.101 144.1C516.001 122.2 516.001 86.8 494.101 64.9L448.101 18.8C426.201 -3.1 390.801 -3.1 368.901 18.8ZM288.501 95.1L279.301 97.9L135.201 141.1C115.301 147.1 99.501 162.3 92.901 182.1L4.30096 446.3C0.500957 457.6 3.30096 470.2 11.601 478.7L165.201 325.2C162.201 318.9 160.501 311.9 160.501 304.5C160.501 278 182.001 256.5 208.501 256.5C235.001 256.5 256.501 278 256.501 304.5C256.501 331 235.001 352.5 208.501 352.5C201.101 352.5 194.101 350.8 187.801 347.8L34.201 501.4C42.801 509.7 55.301 512.6 66.601 508.7L330.901 420.1C350.601 413.5 365.901 397.7 371.901 377.8L415.101 233.7L417.901 224.5L288.501 95.1Z" fill="#47535F"/>
</svg>
