<svg width="513" height="513" viewBox="0 0 513 513" fill="none" xmlns="http://www.w3.org/2000/svg">
<g clip-path="url(#clip0_104_2110)">
<path d="M410.801 231.5L422.101 220.2L388.201 186.3L326.101 124.2L292.201 90.3L280.901 101.6L258.301 124.2L59.1009 323.4C48.7009 333.8 41.1009 346.7 36.9009 360.8L1.50094 481.2C-0.999062 489.6 1.30094 498.7 7.60094 504.9C13.9009 511.1 22.9009 513.4 31.3009 511L151.601 475.6C165.701 471.4 178.601 463.8 189.001 453.4L388.201 254.2L410.801 231.5ZM160.501 399.9L151.401 422.6C147.401 425.7 142.901 428 138.101 429.5L59.9009 452.5L82.9009 374.4C84.3009 369.5 86.7009 365 89.8009 361.1L112.501 352V384C112.501 392.8 119.701 400 128.501 400H160.501V399.9ZM363.201 19.2L348.801 33.7L326.201 56.2999L314.801 67.5999L348.701 101.5L410.801 163.6L444.701 197.5L456.001 186.2L478.601 163.6L493.101 149.1C518.101 124.1 518.101 83.5999 493.101 58.5999L453.801 19.2C428.801 -5.80005 388.301 -5.80005 363.301 19.2H363.201ZM315.801 187.2L171.801 331.2C165.601 337.4 155.401 337.4 149.201 331.2C143.001 325 143.001 314.8 149.201 308.6L293.201 164.6C299.401 158.4 309.601 158.4 315.801 164.6C322.001 170.8 322.001 181 315.801 187.2Z" fill="#47535F"/>
</g>
<defs>
<clipPath id="clip0_104_2110">
<rect width="512" height="512" fill="white" transform="translate(0.5 0.5)"/>
</clipPath>
</defs>
</svg>
