<svg width="641" height="513" viewBox="0 0 641 513" fill="none" xmlns="http://www.w3.org/2000/svg">
<g clip-path="url(#clip0_104_2128)">
<path d="M360.5 72.5C360.5 61.8913 356.286 51.7172 348.784 44.2157C341.283 36.7143 331.109 32.5 320.5 32.5C309.891 32.5 299.717 36.7143 292.216 44.2157C284.714 51.7172 280.5 61.8913 280.5 72.5C280.5 83.1087 284.714 93.2828 292.216 100.784C299.717 108.286 309.891 112.5 320.5 112.5C331.109 112.5 341.283 108.286 348.784 100.784C356.286 93.2828 360.5 83.1087 360.5 72.5ZM144.5 208.5C155.109 208.5 165.283 204.286 172.784 196.784C180.286 189.283 184.5 179.109 184.5 168.5C184.5 157.891 180.286 147.717 172.784 140.216C165.283 132.714 155.109 128.5 144.5 128.5C133.891 128.5 123.717 132.714 116.216 140.216C108.714 147.717 104.5 157.891 104.5 168.5C104.5 179.109 108.714 189.283 116.216 196.784C123.717 204.286 133.891 208.5 144.5 208.5ZM32.5 416.5C14.8 416.5 0.5 430.8 0.5 448.5C0.5 466.2 14.8 480.5 32.5 480.5H608.5C626.2 480.5 640.5 466.2 640.5 448.5C640.5 430.8 626.2 416.5 608.5 416.5H32.5ZM496.5 208.5C507.109 208.5 517.283 204.286 524.784 196.784C532.286 189.283 536.5 179.109 536.5 168.5C536.5 157.891 532.286 147.717 524.784 140.216C517.283 132.714 507.109 128.5 496.5 128.5C485.891 128.5 475.717 132.714 468.216 140.216C460.714 147.717 456.5 157.891 456.5 168.5C456.5 179.109 460.714 189.283 468.216 196.784C475.717 204.286 485.891 208.5 496.5 208.5ZM200.5 314L227.4 363.9C233.7 375.6 248.2 379.9 259.9 373.7C271.6 367.5 275.9 352.9 269.7 341.2L233.4 273.7C235.1 272 236.6 270.1 237.7 267.9L264.5 218V272.5C264.5 290.2 278.8 304.5 296.5 304.5H344.5C362.2 304.5 376.5 290.2 376.5 272.5V218L403.4 267.9C404.6 270.1 406 272 407.7 273.7L371.4 341.2C365.1 352.9 369.5 367.4 381.2 373.7C392.9 380 407.4 375.6 413.7 363.9L440.5 314V352.5C440.5 370.2 454.8 384.5 472.5 384.5H520.5C538.2 384.5 552.5 370.2 552.5 352.5V314L579.4 363.9C585.7 375.6 600.2 379.9 611.9 373.7C623.6 367.5 627.9 352.9 621.7 341.2L583.8 270.9C568.5 242.4 538.7 224.6 506.3 224.6H486.7C470.4 224.6 454.8 229.1 441.3 237.2L407.7 174.9C392.4 146.4 362.6 128.6 330.2 128.6H310.7C278.3 128.6 248.6 146.4 233.2 174.9L199.6 237.2C186.1 229.1 170.5 224.6 154.2 224.6H134.7C102.3 224.6 72.6 242.4 57.2 270.9L19.4 341.1C13.1 352.8 17.5 367.3 29.2 373.6C40.9 379.9 55.4 375.5 61.7 363.8L88.5 314V352.5C88.5 370.2 102.8 384.5 120.5 384.5H168.5C186.2 384.5 200.5 370.2 200.5 352.5V314Z" fill="#47535F"/>
</g>
<defs>
<clipPath id="clip0_104_2128">
<rect width="640" height="512" fill="white" transform="translate(0.5 0.5)"/>
</clipPath>
</defs>
</svg>
