<svg width="577" height="513" viewBox="0 0 577 513" fill="none" xmlns="http://www.w3.org/2000/svg">
<g clip-path="url(#clip0_104_2130)">
<path d="M80.5 96.5C93.2304 96.5 105.439 91.4429 114.441 82.4411C123.443 73.4394 128.5 61.2304 128.5 48.5C128.5 35.7696 123.443 23.5606 114.441 14.5589C105.439 5.55713 93.2304 0.5 80.5 0.5C67.7696 0.5 55.5606 5.55713 46.5589 14.5589C37.5571 23.5606 32.5 35.7696 32.5 48.5C32.5 61.2304 37.5571 73.4394 46.5589 82.4411C55.5606 91.4429 67.7696 96.5 80.5 96.5ZM64.5 128.5C29.2 128.5 0.5 157.2 0.5 192.5V320.5C0.5 338.2 14.8 352.5 32.5 352.5C42.3 352.5 51 348.1 56.9 341.3L80.9 485.8C83.8 503.2 100.3 515 117.7 512.1C135.1 509.2 146.9 492.7 144 475.3L123.6 352.5H139.3L169.3 487.4C173.1 504.7 190.2 515.5 207.5 511.7C224.8 507.9 235.6 490.8 231.8 473.5L174.5 215.5L290.8 269.3C291.3 269.6 291.9 269.8 292.4 270C301 273.6 310.4 273.1 318.3 269.3C321.7 267.7 324.9 265.4 327.6 262.6C330.7 259.4 333.1 255.6 334.7 251.2C334.8 250.9 334.9 250.5 335 250.2L337.5 242.7C343.2 225.6 355.8 211.8 372.2 204.5L380.2 201C381.2 200.6 382.1 200.2 383.1 199.8L366.2 263.3C360.6 284.4 366.1 306.9 380.9 323L451.6 400.1L473.6 488.2C477.9 505.3 495.3 515.8 512.4 511.5C529.5 507.2 540 489.8 535.7 472.7L512.7 380.6C510.8 372.8 506.9 365.7 501.5 359.8L452 305.8L471.3 240.3L480.9 263.3C485.3 273.9 493.4 282.6 503.7 287.8L530.4 301.1C546.2 309 565.4 302.6 573.3 286.8C581.2 271 574.8 251.8 559 243.9L537.5 233.2L522.2 196.4C505 155.3 464.8 128.5 420.2 128.5C397.4 128.5 374.9 133.3 354.1 142.5L346.1 146C321.7 156.9 301.5 175 288 197.6L157.8 137.4C145.2 131.5 131.4 128.5 117.5 128.5H64.5ZM464.5 96.5C477.23 96.5 489.439 91.4429 498.441 82.4411C507.443 73.4394 512.5 61.2304 512.5 48.5C512.5 35.7696 507.443 23.5606 498.441 14.5589C489.439 5.55713 477.23 0.5 464.5 0.5C451.77 0.5 439.561 5.55713 430.559 14.5589C421.557 23.5606 416.5 35.7696 416.5 48.5C416.5 61.2304 421.557 73.4394 430.559 82.4411C439.561 91.4429 451.77 96.5 464.5 96.5ZM350.2 336.1L325.2 398.5L265.8 457.9C253.3 470.4 253.3 490.7 265.8 503.2C278.3 515.7 298.6 515.7 311.1 503.2L372.8 441.5C377.4 436.9 381 431.4 383.4 425.4L397.9 389.2L357.2 344.8C354.7 342.1 352.4 339.2 350.2 336.2V336.1Z" fill="#47535F"/>
</g>
<defs>
<clipPath id="clip0_104_2130">
<rect width="576" height="512" fill="white" transform="translate(0.5 0.5)"/>
</clipPath>
</defs>
</svg>
