<svg width="577" height="513" viewBox="0 0 577 513" fill="none" xmlns="http://www.w3.org/2000/svg">
<g clip-path="url(#clip0_104_2132)">
<path d="M488.7 59.6C478.6 100.1 442.2 128.5 400.5 128.5C358.8 128.5 322.4 100.1 312.3 59.6L303.5 24.7C299.3 7.6 281.9 -2.8 264.7 1.5C247.5 5.8 237.2 23.1 241.5 40.3L250.2 75.2C261.2 119.2 290.4 154.8 328.5 174.8V480.5C328.5 498.2 342.8 512.5 360.5 512.5C378.2 512.5 392.5 498.2 392.5 480.5V352.5H408.5V480.5C408.5 498.2 422.8 512.5 440.5 512.5C458.2 512.5 472.5 498.2 472.5 480.5V174.8C510.6 154.8 539.8 119.2 550.8 75.2L559.5 40.3C563.8 23.2 553.4 5.8 536.2 1.5C519 -2.8 501.7 7.6 497.5 24.7L488.8 59.6H488.7ZM400.5 96.5C413.23 96.5 425.439 91.4429 434.441 82.4411C443.443 73.4394 448.5 61.2304 448.5 48.5C448.5 35.7696 443.443 23.5606 434.441 14.5589C425.439 5.55713 413.23 0.5 400.5 0.5C387.77 0.5 375.561 5.55713 366.559 14.5589C357.557 23.5606 352.5 35.7696 352.5 48.5C352.5 61.2304 357.557 73.4394 366.559 82.4411C375.561 91.4429 387.77 96.5 400.5 96.5ZM80.5 96.5C93.2304 96.5 105.439 91.4429 114.441 82.4411C123.443 73.4394 128.5 61.2304 128.5 48.5C128.5 35.7696 123.443 23.5606 114.441 14.5589C105.439 5.55713 93.2304 0.5 80.5 0.5C67.7696 0.5 55.5606 5.55713 46.5589 14.5589C37.5571 23.5606 32.5 35.7696 32.5 48.5C32.5 61.2304 37.5571 73.4394 46.5589 82.4411C55.5606 91.4429 67.7696 96.5 80.5 96.5ZM72.5 128.5C37.2 128.5 8.5 157.2 8.5 192.5V288.5V289.1V480.5C8.5 498.2 22.8 512.5 40.5 512.5C58.2 512.5 72.5 498.2 72.5 480.5V352.5H88.5V480.5C88.5 498.2 102.8 512.5 120.5 512.5C138.2 512.5 152.5 498.2 152.5 480.5V253.2L165.5 273.7C171.4 282.9 181.6 288.6 192.5 288.6H240.5C258.2 288.6 272.5 274.3 272.5 256.6C272.5 238.9 258.2 224.6 240.5 224.6H210.1L172.7 165.7C158.1 142.5 132.6 128.5 105.2 128.5H72.5Z" fill="#47535F"/>
</g>
<defs>
<clipPath id="clip0_104_2132">
<rect width="576" height="512" fill="white" transform="translate(0.5 0.5)"/>
</clipPath>
</defs>
</svg>
