<svg width="641" height="513" viewBox="0 0 641 513" fill="none" xmlns="http://www.w3.org/2000/svg">
<g clip-path="url(#clip0_104_2134)">
<path d="M336 4.49995L624 164.5C639.4 173.1 645 192.6 636.4 208C627.8 223.4 608.3 229 592.9 220.4L320.5 69.1L48 220.5C32.6 229.1 13.1 223.5 4.5 208.1C-4.1 192.7 1.5 173.2 16.9 164.6L305 4.49995C314.7 -0.900049 326.4 -0.900049 336.1 4.49995H336ZM320.5 160.5C331.109 160.5 341.283 164.714 348.784 172.216C356.286 179.717 360.5 189.891 360.5 200.5C360.5 211.109 356.286 221.283 348.784 228.784C341.283 236.286 331.109 240.5 320.5 240.5C309.891 240.5 299.717 236.286 292.216 228.784C284.714 221.283 280.5 211.109 280.5 200.5C280.5 189.891 284.714 179.717 292.216 172.216C299.717 164.714 309.891 160.5 320.5 160.5ZM144.5 256.5C155.109 256.5 165.283 260.714 172.784 268.216C180.286 275.717 184.5 285.891 184.5 296.5C184.5 307.109 180.286 317.283 172.784 324.784C165.283 332.286 155.109 336.5 144.5 336.5C133.891 336.5 123.717 332.286 116.216 324.784C108.714 317.283 104.5 307.109 104.5 296.5C104.5 285.891 108.714 275.717 116.216 268.216C123.717 260.714 133.891 256.5 144.5 256.5ZM456.5 296.5C456.5 285.891 460.714 275.717 468.216 268.216C475.717 260.714 485.891 256.5 496.5 256.5C507.109 256.5 517.283 260.714 524.784 268.216C532.286 275.717 536.5 285.891 536.5 296.5C536.5 307.109 532.286 317.283 524.784 324.784C517.283 332.286 507.109 336.5 496.5 336.5C485.891 336.5 475.717 332.286 468.216 324.784C460.714 317.283 456.5 307.109 456.5 296.5ZM227.4 491.9L200.5 442V480.5C200.5 498.2 186.2 512.5 168.5 512.5H120.5C102.8 512.5 88.5 498.2 88.5 480.5V442L61.6 491.9C55.3 503.6 40.8 507.9 29.1 501.7C17.4 495.5 13.1 480.9 19.3 469.2L57.2 398.9C72.5 370.4 102.3 352.6 134.7 352.6H154.2C170.5 352.6 186.1 357.1 199.6 365.2L233.2 302.9C248.5 274.4 278.3 256.6 310.7 256.6H330.2C362.6 256.6 392.3 274.4 407.7 302.9L441.3 365.2C454.8 357.1 470.4 352.6 486.7 352.6H506.2C538.6 352.6 568.3 370.4 583.7 398.9L621.6 469.2C627.9 480.9 623.5 495.4 611.8 501.7C600.1 508 585.6 503.6 579.3 491.9L552.5 442V480.5C552.5 498.2 538.2 512.5 520.5 512.5H472.5C454.8 512.5 440.5 498.2 440.5 480.5V442L413.6 491.9C407.3 503.6 392.8 507.9 381.1 501.7C369.4 495.5 365.1 480.9 371.3 469.2L407.6 401.7C405.9 400 404.4 398.1 403.3 395.9L376.5 346V400.5C376.5 418.2 362.2 432.5 344.5 432.5H296.5C278.8 432.5 264.5 418.2 264.5 400.5V346L237.6 395.9C236.4 398.1 235 400 233.3 401.7L269.6 469.2C275.9 480.9 271.5 495.4 259.8 501.7C248.1 508 233.6 503.6 227.3 491.9H227.4Z" fill="#47535F"/>
</g>
<defs>
<clipPath id="clip0_104_2134">
<rect width="640" height="512" fill="white" transform="translate(0.5 0.5)"/>
</clipPath>
</defs>
</svg>
