<svg width="641" height="513" viewBox="0 0 641 513" fill="none" xmlns="http://www.w3.org/2000/svg">
<g clip-path="url(#clip0_104_2126)">
<path d="M72.5 88.5C72.5 73.6479 78.4 59.4041 88.902 48.902C99.4041 38.4 113.648 32.5 128.5 32.5C143.352 32.5 157.596 38.4 168.098 48.902C178.6 59.4041 184.5 73.6479 184.5 88.5C184.5 103.352 178.6 117.596 168.098 128.098C157.596 138.6 143.352 144.5 128.5 144.5C113.648 144.5 99.4041 138.6 88.902 128.098C78.4 117.596 72.5 103.352 72.5 88.5ZM64.5 246.2C54.5 257.4 48.5 272.3 48.5 288.5C48.5 304.7 54.5 319.6 64.5 330.8V246.2ZM208.9 196.9C179.2 223.2 160.5 261.7 160.5 304.5C160.5 338.8 172.5 370.3 192.5 395V416.5C192.5 434.2 178.2 448.5 160.5 448.5H96.5C78.8 448.5 64.5 434.2 64.5 416.5V389.7C26.7 371.7 0.5 333.2 0.5 288.5C0.5 226.6 50.6 176.5 112.5 176.5H144.5C168.5 176.5 190.7 184 208.9 196.8V196.9ZM448.5 416.5V395C468.5 370.3 480.5 338.8 480.5 304.5C480.5 261.7 461.8 223.2 432.1 196.8C450.3 184 472.5 176.5 496.5 176.5H528.5C590.4 176.5 640.5 226.6 640.5 288.5C640.5 333.2 614.3 371.7 576.5 389.7V416.5C576.5 434.2 562.2 448.5 544.5 448.5H480.5C462.8 448.5 448.5 434.2 448.5 416.5ZM456.5 88.5C456.5 73.6479 462.4 59.4041 472.902 48.902C483.404 38.4 497.648 32.5 512.5 32.5C527.352 32.5 541.596 38.4 552.098 48.902C562.6 59.4041 568.5 73.6479 568.5 88.5C568.5 103.352 562.6 117.596 552.098 128.098C541.596 138.6 527.352 144.5 512.5 144.5C497.648 144.5 483.404 138.6 472.902 128.098C462.4 117.596 456.5 103.352 456.5 88.5ZM576.5 246.2V330.9C586.5 319.6 592.5 304.8 592.5 288.6C592.5 272.4 586.5 257.5 576.5 246.3V246.2ZM320.5 32.5C337.474 32.5 353.752 39.2428 365.755 51.2452C377.757 63.2475 384.5 79.5261 384.5 96.5C384.5 113.474 377.757 129.753 365.755 141.755C353.752 153.757 337.474 160.5 320.5 160.5C303.526 160.5 287.248 153.757 275.245 141.755C263.243 129.753 256.5 113.474 256.5 96.5C256.5 79.5261 263.243 63.2475 275.245 51.2452C287.248 39.2428 303.526 32.5 320.5 32.5ZM240.5 304.5C240.5 320.7 246.5 335.5 256.5 346.8V262.2C246.5 273.5 240.5 288.3 240.5 304.5ZM384.5 262.2V346.9C394.5 335.6 400.5 320.8 400.5 304.6C400.5 288.4 394.5 273.5 384.5 262.3V262.2ZM448.5 304.5C448.5 349.2 422.3 387.7 384.5 405.7V448.5C384.5 466.2 370.2 480.5 352.5 480.5H288.5C270.8 480.5 256.5 466.2 256.5 448.5V405.7C218.7 387.7 192.5 349.2 192.5 304.5C192.5 242.6 242.6 192.5 304.5 192.5H336.5C398.4 192.5 448.5 242.6 448.5 304.5Z" fill="#47535F"/>
</g>
<defs>
<clipPath id="clip0_104_2126">
<rect width="640" height="512" fill="white" transform="translate(0.5 0.5)"/>
</clipPath>
</defs>
</svg>
