<svg width="641" height="513" viewBox="0 0 641 513" fill="none" xmlns="http://www.w3.org/2000/svg">
<g clip-path="url(#clip0_104_2124)">
<path d="M80.5001 48.5C80.5001 35.7696 85.5572 23.5606 94.559 14.5589C103.561 5.55713 115.77 0.5 128.5 0.5C141.23 0.5 153.439 5.55713 162.441 14.5589C171.443 23.5606 176.5 35.7696 176.5 48.5C176.5 61.2304 171.443 73.4394 162.441 82.4411C153.439 91.4429 141.23 96.5 128.5 96.5C115.77 96.5 103.561 91.4429 94.559 82.4411C85.5572 73.4394 80.5001 61.2304 80.5001 48.5ZM144.5 242.2V307.3L195.5 358.3C202.6 365.4 207.3 374.5 208.9 384.4L224.1 475.3C227 492.7 215.2 509.2 197.8 512.1C180.4 515 163.9 503.2 161 485.8L146.7 399.9L67.3001 320.5C55.3001 308.5 48.5001 292.2 48.5001 275.2V187.1C48.5001 154.7 74.7001 128.5 107.1 128.5C131.2 128.5 153.6 140.5 167 160.5L214.4 231.6L224.5 236.6V160.5C224.5 142.8 238.8 128.5 256.5 128.5H384.5C402.2 128.5 416.5 142.8 416.5 160.5V236.7L426.6 231.7L474 160.5C487.3 140.5 509.8 128.5 533.9 128.5C566.3 128.5 592.5 154.7 592.5 187.1V275.2C592.5 292.2 585.8 308.5 573.8 320.5L494.4 399.9L480.1 485.8C477.2 503.2 460.7 515 443.3 512.1C425.9 509.2 414.1 492.7 417 475.3L432.2 384.4C433.8 374.5 438.5 365.4 445.6 358.3L496.6 307.3V242.2L477.6 270.7C473 277.7 466.6 283.3 459.1 287L399.5 316.8C397.1 318.1 394.6 319 391.9 319.6C389.3 320.2 386.6 320.5 384 320.4H257.2C254.7 320.5 252.2 320.2 249.7 319.7C246.8 319.1 244.1 318.1 241.6 316.7L182.1 286.9C174.6 283.2 168.3 277.5 163.6 270.6L144.6 242.1L144.5 242.2ZM2.80008 468.6L50.6001 349.1L99.8001 398.3L62.2001 492.3C55.6001 508.7 37.0001 516.7 20.6001 510.1C4.20008 503.5 -3.79992 485 2.80008 468.6ZM512.5 0.5C525.23 0.5 537.439 5.55713 546.441 14.5589C555.443 23.5606 560.5 35.7696 560.5 48.5C560.5 61.2304 555.443 73.4394 546.441 82.4411C537.439 91.4429 525.23 96.5 512.5 96.5C499.77 96.5 487.561 91.4429 478.559 82.4411C469.557 73.4394 464.5 61.2304 464.5 48.5C464.5 35.7696 469.557 23.5606 478.559 14.5589C487.561 5.55713 499.77 0.5 512.5 0.5ZM590.4 349.1L638.2 468.6C644.8 485 636.8 503.6 620.4 510.2C604 516.8 585.4 508.8 578.8 492.4L541.2 398.4L590.4 349.2V349.1Z" fill="#47535F"/>
</g>
<defs>
<clipPath id="clip0_104_2124">
<rect width="640" height="512" fill="white" transform="translate(0.5 0.5)"/>
</clipPath>
</defs>
</svg>
