<svg width="641" height="513" viewBox="0 0 641 513" fill="none" xmlns="http://www.w3.org/2000/svg">
<g clip-path="url(#clip0_104_2122)">
<path d="M64.5001 64.5C64.5001 47.5261 71.2429 31.2475 83.2452 19.2452C95.2475 7.24284 111.526 0.5 128.5 0.5C145.474 0.5 161.753 7.24284 173.755 19.2452C185.757 31.2475 192.5 47.5261 192.5 64.5C192.5 81.4739 185.757 97.7525 173.755 109.755C161.753 121.757 145.474 128.5 128.5 128.5C111.526 128.5 95.2475 121.757 83.2452 109.755C71.2429 97.7525 64.5001 81.4739 64.5001 64.5ZM26.4001 233.9C29.8001 192.4 64.5001 160.5 106.1 160.5H150.9C177.9 160.5 201.9 173.9 216.4 194.6C213.7 196.5 211.2 198.6 208.9 200.9L144.9 264.9C123 286.8 123 322.2 144.9 344.1L192.5 391.7V464.5C192.5 491 171 512.5 144.5 512.5H112.5C86.0001 512.5 64.5001 491 64.5001 464.5V348.8C38.0001 339.3 19.8001 313 22.3001 283.2L26.4001 233.9ZM448.5 64.5C448.5 47.5261 455.243 31.2475 467.245 19.2452C479.248 7.24284 495.526 0.5 512.5 0.5C529.474 0.5 545.753 7.24284 557.755 19.2452C569.757 31.2475 576.5 47.5261 576.5 64.5C576.5 81.4739 569.757 97.7525 557.755 109.755C545.753 121.757 529.474 128.5 512.5 128.5C495.526 128.5 479.248 121.757 467.245 109.755C455.243 97.7525 448.5 81.4739 448.5 64.5ZM432.1 200.9C429.8 198.6 427.2 196.5 424.6 194.6C439.1 173.9 463.2 160.5 490.1 160.5H534.9C576.5 160.5 611.2 192.4 614.6 233.9L618.7 283.2C621.2 313 603 339.3 576.5 348.8V464.5C576.5 491 555 512.5 528.5 512.5H496.5C470 512.5 448.5 491 448.5 464.5V391.7L496.1 344.1C518 322.2 518 286.8 496.1 264.9L432.1 200.9ZM272.5 240.5V272.5H368.5V240.5C368.5 230.8 374.3 222 383.3 218.3C392.3 214.6 402.6 216.6 409.5 223.5L473.5 287.5C482.9 296.9 482.9 312.1 473.5 321.4L409.5 385.4C402.6 392.3 392.3 394.3 383.3 390.6C374.3 386.9 368.5 378.1 368.5 368.4V336.5H272.5V368.5C272.5 378.2 266.7 387 257.7 390.7C248.7 394.4 238.4 392.4 231.5 385.5L167.5 321.5C158.1 312.1 158.1 296.9 167.5 287.6L231.5 223.6C238.4 216.7 248.7 214.7 257.7 218.4C266.7 222.1 272.5 230.9 272.5 240.6V240.5Z" fill="#47535F"/>
</g>
<defs>
<clipPath id="clip0_104_2122">
<rect width="640" height="512" fill="white" transform="translate(0.5 0.5)"/>
</clipPath>
</defs>
</svg>
