<svg width="513" height="513" viewBox="0 0 513 513" fill="none" xmlns="http://www.w3.org/2000/svg">
<g clip-path="url(#clip0_104_2136)">
<path d="M428.8 3.50012C440.4 -2.89988 455 1.20012 461.4 12.8001L466.2 21.5001C485.5 56.2001 486 97.2001 469.6 131.5C496.3 160.1 512.5 198.4 512.5 240.5C512.5 259 509.4 276.8 503.6 293.3C497.5 310.6 475.1 309.6 466.8 293.2L455.1 269.8C451 261.7 442.7 256.5 433.6 256.5H360.5C347.2 256.5 336.5 245.8 336.5 232.5V152.5C336.5 139.2 325.8 128.5 312.5 128.5H295.4C274.1 128.5 265.4 104.6 284.6 95.6001C305.2 85.9001 328.2 80.5001 352.5 80.5001C380.8 80.5001 407.3 87.8001 430.3 100.7C435.8 82.5001 434 62.3001 424.3 44.9001L419.5 36.2001C413.1 24.6001 417.2 10.0001 428.8 3.60012V3.50012ZM171.7 346L264.5 160.5H304.5V240.5C304.5 267 326 288.5 352.5 288.5H428.7L452.6 336.3C372.8 444.4 244.8 512.5 103.7 512.5H44.9C20.4 512.5 0.5 492.6 0.5 468.1C0.5 447.3 15 429.3 35.3 424.8L85.1 413.7C122.7 405.3 154.6 380.5 171.8 346H171.7Z" fill="#47535F"/>
</g>
<defs>
<clipPath id="clip0_104_2136">
<rect width="512" height="512" fill="white" transform="translate(0.5 0.5)"/>
</clipPath>
</defs>
</svg>
