<svg width="385" height="513" viewBox="0 0 385 513" fill="none" xmlns="http://www.w3.org/2000/svg">
<g clip-path="url(#clip0_104_2138)">
<path d="M375.1 119.1C387.6 106.6 387.6 86.3 375.1 73.8C362.6 61.3 342.3 61.3 329.8 73.8L9.80005 393.8C-2.69995 406.3 -2.69995 426.6 9.80005 439.1C22.3 451.6 42.6 451.6 55.1 439.1L375.1 119.1ZM128.5 128.5C128.5 111.526 121.757 95.2475 109.755 83.2452C97.7526 71.2429 81.4739 64.5 64.5 64.5C47.5262 64.5 31.2475 71.2429 19.2452 83.2452C7.24289 95.2475 0.500049 111.526 0.500049 128.5C0.500049 145.474 7.24289 161.753 19.2452 173.755C31.2475 185.757 47.5262 192.5 64.5 192.5C81.4739 192.5 97.7526 185.757 109.755 173.755C121.757 161.753 128.5 145.474 128.5 128.5ZM384.5 384.5C384.5 367.526 377.757 351.248 365.755 339.245C353.753 327.243 337.474 320.5 320.5 320.5C303.526 320.5 287.248 327.243 275.245 339.245C263.243 351.248 256.5 367.526 256.5 384.5C256.5 401.474 263.243 417.753 275.245 429.755C287.248 441.757 303.526 448.5 320.5 448.5C337.474 448.5 353.753 441.757 365.755 429.755C377.757 417.753 384.5 401.474 384.5 384.5Z" fill="#47535F"/>
</g>
<defs>
<clipPath id="clip0_104_2138">
<rect width="384" height="512" fill="white" transform="translate(0.5 0.5)"/>
</clipPath>
</defs>
</svg>
