<svg width="449" height="513" viewBox="0 0 449 513" fill="none" xmlns="http://www.w3.org/2000/svg">
<g clip-path="url(#clip0_104_2204)">
<path d="M320.5 48.5C320.5 35.7696 315.443 23.5606 306.441 14.5589C297.439 5.55713 285.23 0.5 272.5 0.5C259.77 0.5 247.561 5.55713 238.559 14.5589C229.557 23.5606 224.5 35.7696 224.5 48.5C224.5 61.2304 229.557 73.4394 238.559 82.4411C247.561 91.4429 259.77 96.5 272.5 96.5C285.23 96.5 297.439 91.4429 306.441 82.4411C315.443 73.4394 320.5 61.2304 320.5 48.5ZM126.2 176C136.1 166.1 149.6 160.5 163.7 160.5C165.6 160.5 167.5 160.6 169.3 160.8L138.1 254.5C128.8 282.5 139.8 313.3 164.9 329L251.1 382.9L225.7 471.7C220.8 488.7 230.7 506.4 247.7 511.3C264.7 516.2 282.4 506.3 287.3 489.3L316 388.9C321.9 368.3 313.4 346.3 295.3 335L238.5 299.5L269.4 217.1L274.5 229.4C289.5 265.2 324.4 288.5 363.2 288.5H384.5C402.2 288.5 416.5 274.2 416.5 256.5C416.5 238.8 402.2 224.5 384.5 224.5H363.2C350.3 224.5 338.6 216.7 333.7 204.8L327.4 189.8C312.8 154.7 283.3 127.9 246.9 116.7L198.2 101.7C187.1 98.3 175.5 96.5 163.8 96.5C132.8 96.5 103 108.8 81.1 130.8L57.9 153.9C45.4 166.4 45.4 186.7 57.9 199.2C70.4 211.7 90.7 211.7 103.2 199.2L126.3 176.1L126.2 176ZM91.7 352.5H32.5C14.8 352.5 0.5 366.8 0.5 384.5C0.5 402.2 14.8 416.5 32.5 416.5H102.1C121.1 416.5 138.3 405.3 146 388L157.5 362.1L148 356.1C130.5 345.2 117.5 329.3 110.1 311.2L91.7 352.5Z" fill="#47535F"/>
</g>
<defs>
<clipPath id="clip0_104_2204">
<rect width="448" height="512" fill="white" transform="translate(0.5 0.5)"/>
</clipPath>
</defs>
</svg>
