<svg width="577" height="513" viewBox="0 0 577 513" fill="none" xmlns="http://www.w3.org/2000/svg">
<g clip-path="url(#clip0_104_2166)">
<path d="M112.5 48.5C112.5 35.7696 117.557 23.5606 126.558 14.5589C135.56 5.55713 147.769 0.5 160.5 0.5C173.23 0.5 185.439 5.55713 194.441 14.5589C203.442 23.5606 208.5 35.7696 208.5 48.5C208.5 61.2304 203.442 73.4394 194.441 82.4411C185.439 91.4429 173.23 96.5 160.5 96.5C147.769 96.5 135.56 91.4429 126.558 82.4411C117.557 73.4394 112.5 61.2304 112.5 48.5ZM152.5 352.5V480.5C152.5 498.2 138.2 512.5 120.5 512.5C102.8 512.5 88.4996 498.2 88.4996 480.5V257.4L59.8996 305C50.7996 320.1 31.0996 325 15.9996 315.9C0.899614 306.8 -4.00039 287.1 5.09962 272L63.3996 175C80.7996 146.1 112 128.4 145.7 128.4H175.4C209.1 128.4 240.3 146.1 257.7 175L302.6 249.7C286.5 267.3 274 288.2 266 311.2C264.1 309.4 262.5 307.3 261.1 304.9L232.5 257.4V480.5C232.5 498.2 218.2 512.5 200.5 512.5C182.8 512.5 168.5 498.2 168.5 480.5V352.5H152.5ZM432.5 224.5C470.691 224.5 507.318 239.671 534.323 266.677C561.328 293.682 576.5 330.309 576.5 368.5C576.5 406.691 561.328 443.318 534.323 470.323C507.318 497.329 470.691 512.5 432.5 512.5C394.308 512.5 357.681 497.329 330.676 470.323C303.671 443.318 288.5 406.691 288.5 368.5C288.5 330.309 303.671 293.682 330.676 266.677C357.681 239.671 394.308 224.5 432.5 224.5ZM432.5 464.5C438.865 464.5 444.969 461.971 449.47 457.471C453.971 452.97 456.5 446.865 456.5 440.5C456.5 434.135 453.971 428.03 449.47 423.529C444.969 419.029 438.865 416.5 432.5 416.5C426.134 416.5 420.03 419.029 415.529 423.529C411.028 428.03 408.5 434.135 408.5 440.5C408.5 446.865 411.028 452.97 415.529 457.471C420.03 461.971 426.134 464.5 432.5 464.5ZM368.5 322.1V328.5C368.5 337.3 375.7 344.5 384.5 344.5C393.3 344.5 400.5 337.3 400.5 328.5V322.1C400.5 316.8 404.8 312.5 410.1 312.5H450.6C458.3 312.5 464.5 318.7 464.5 326.4C464.5 331.6 461.6 336.3 457.1 338.7L425.1 355.5C419.8 358.3 416.5 363.7 416.5 369.7V384.5C416.5 393.3 423.7 400.5 432.5 400.5C441.3 400.5 448.5 393.3 448.5 384.5V379.4L472 367.1C487.1 359.2 496.5 343.5 496.5 326.5C496.5 301.1 475.9 280.6 450.6 280.6H410.1C387.1 280.6 368.5 299.2 368.5 322.2V322.1Z" fill="#47535F"/>
</g>
<defs>
<clipPath id="clip0_104_2166">
<rect width="576" height="512" fill="white" transform="translate(0.5 0.5)"/>
</clipPath>
</defs>
</svg>
