<svg width="641" height="513" viewBox="0 0 641 513" fill="none" xmlns="http://www.w3.org/2000/svg">
<g clip-path="url(#clip0_104_2146)">
<path d="M400.5 96.5C413.23 96.5 425.439 91.4429 434.441 82.4411C443.443 73.4394 448.5 61.2304 448.5 48.5C448.5 35.7696 443.443 23.5606 434.441 14.5589C425.439 5.55713 413.23 0.5 400.5 0.5C387.77 0.5 375.561 5.55713 366.559 14.5589C357.557 23.5606 352.5 35.7696 352.5 48.5C352.5 61.2304 357.557 73.4394 366.559 82.4411C375.561 91.4429 387.77 96.5 400.5 96.5ZM427.7 160.5L365.9 111.7C348.6 98.1 324.2 97.9 306.8 111.4L223.7 175.6C193 199.4 195.2 246.4 228 267.2L288.5 305.6V416.5C288.5 434.2 302.8 448.5 320.5 448.5C338.2 448.5 352.5 434.2 352.5 416.5V288.5C352.5 277.8 347.2 267.8 338.3 261.9L295.5 233.4L355.8 184.9L396.5 217.5C402.2 222 409.2 224.5 416.5 224.5H480.5C498.2 224.5 512.5 210.2 512.5 192.5C512.5 174.8 498.2 160.5 480.5 160.5H427.7ZM56.5 384.5C56.5 365.404 64.0857 347.091 77.5883 333.588C91.0909 320.086 109.404 312.5 128.5 312.5C147.596 312.5 165.909 320.086 179.412 333.588C192.914 347.091 200.5 365.404 200.5 384.5C200.5 403.596 192.914 421.909 179.412 435.412C165.909 448.914 147.596 456.5 128.5 456.5C109.404 456.5 91.0909 448.914 77.5883 435.412C64.0857 421.909 56.5 403.596 56.5 384.5ZM256.5 384.5C256.5 350.552 243.014 317.995 219.01 293.99C195.005 269.986 162.448 256.5 128.5 256.5C94.5523 256.5 61.995 269.986 37.9903 293.99C13.9857 317.995 0.5 350.552 0.5 384.5C0.5 418.448 13.9857 451.005 37.9903 475.01C61.995 499.014 94.5523 512.5 128.5 512.5C162.448 512.5 195.005 499.014 219.01 475.01C243.014 451.005 256.5 418.448 256.5 384.5ZM440.5 384.5C440.5 365.404 448.086 347.091 461.588 333.588C475.091 320.086 493.404 312.5 512.5 312.5C531.596 312.5 549.909 320.086 563.412 333.588C576.914 347.091 584.5 365.404 584.5 384.5C584.5 403.596 576.914 421.909 563.412 435.412C549.909 448.914 531.596 456.5 512.5 456.5C493.404 456.5 475.091 448.914 461.588 435.412C448.086 421.909 440.5 403.596 440.5 384.5ZM640.5 384.5C640.5 350.552 627.014 317.995 603.01 293.99C579.005 269.986 546.448 256.5 512.5 256.5C478.552 256.5 445.995 269.986 421.99 293.99C397.986 317.995 384.5 350.552 384.5 384.5C384.5 418.448 397.986 451.005 421.99 475.01C445.995 499.014 478.552 512.5 512.5 512.5C546.448 512.5 579.005 499.014 603.01 475.01C627.014 451.005 640.5 418.448 640.5 384.5Z" fill="#47535F"/>
</g>
<defs>
<clipPath id="clip0_104_2146">
<rect width="640" height="512" fill="white" transform="translate(0.5 0.5)"/>
</clipPath>
</defs>
</svg>
