<svg width="577" height="513" viewBox="0 0 577 513" fill="none" xmlns="http://www.w3.org/2000/svg">
<g clip-path="url(#clip0_104_2178)">
<path d="M192.501 64.5C192.501 46.8 178.201 32.5 160.501 32.5C142.801 32.5 128.501 46.8 128.501 64.5V96.7C128.501 150.8 152.001 200.7 190.701 235L169.701 381.7C177.501 383.8 185.201 385 192.501 385C213.601 385 234.501 376.5 251.701 364.7C273.801 349.2 303.301 349.2 325.401 364.7C337.801 373.2 351.501 379.5 365.101 382.7L382.801 285.1C393.501 283.9 404.101 282 414.701 279.6L519.701 255.7C536.901 251.8 547.701 234.6 543.801 217.4C539.901 200.2 522.701 189.4 505.501 193.3L400.501 217.1C359.501 226.4 316.801 224.6 276.801 211.9C226.601 195.9 192.501 149.3 192.501 96.6V64.5ZM320.501 192.5C337.475 192.5 353.753 185.757 365.756 173.755C377.758 161.753 384.501 145.474 384.501 128.5C384.501 111.526 377.758 95.2475 365.756 83.2452C353.753 71.2428 337.475 64.5 320.501 64.5C303.527 64.5 287.248 71.2428 275.246 83.2452C263.244 95.2475 256.501 111.526 256.501 128.5C256.501 145.474 263.244 161.753 275.246 173.755C287.248 185.757 303.527 192.5 320.501 192.5ZM307.001 390.4C295.901 382.5 281.101 382.5 270.001 390.4C247.501 405.9 220.001 416.5 192.501 416.5C165.601 416.5 137.201 405.7 115.101 390.4C103.201 381.9 87.0008 382.6 75.9008 392.1C61.5008 404 43.4008 413.1 25.3008 417.3C8.10075 421.3 -2.59925 438.5 1.40075 455.7C5.40075 472.9 22.6007 483.6 39.8008 479.6C64.3008 473.9 84.7008 463.1 98.0008 454.6C127.001 470.2 159.501 480.5 192.501 480.5C224.401 480.5 253.101 470.6 272.901 461.6C278.701 458.9 284.001 456.3 288.501 453.9C293.001 456.3 298.201 459 304.101 461.6C323.901 470.6 352.601 480.5 384.501 480.5C417.501 480.5 450.001 470.2 479.001 454.7C492.401 463.1 512.701 474 537.201 479.7C554.401 483.7 571.601 473 575.601 455.8C579.601 438.6 568.901 421.4 551.701 417.4C533.601 413.2 515.501 404.1 501.101 392.2C490.001 382.8 473.801 382.1 461.901 390.5C439.901 405.7 411.401 416.5 384.501 416.5C357.001 416.5 329.501 405.9 307.001 390.4Z" fill="#47535F"/>
</g>
<defs>
<clipPath id="clip0_104_2178">
<rect width="576" height="512" fill="white" transform="translate(0.5 0.5)"/>
</clipPath>
</defs>
</svg>
