<svg width="577" height="513" viewBox="0 0 577 513" fill="none" xmlns="http://www.w3.org/2000/svg">
<g clip-path="url(#clip0_104_2186)">
<path d="M192.5 96.5C205.23 96.5 217.439 91.4429 226.441 82.4411C235.443 73.4394 240.5 61.2304 240.5 48.5C240.5 35.7696 235.443 23.5606 226.441 14.5589C217.439 5.55713 205.23 0.5 192.5 0.5C179.77 0.5 167.561 5.55713 158.559 14.5589C149.557 23.5606 144.5 35.7696 144.5 48.5C144.5 61.2304 149.557 73.4394 158.559 82.4411C167.561 91.4429 179.77 96.5 192.5 96.5ZM59.9 305L88.5 257.4V480.5C88.5 498.2 102.8 512.5 120.5 512.5C138.2 512.5 152.5 498.2 152.5 480.5V352.5H168.5V480.5C168.5 498.2 182.8 512.5 200.5 512.5C218.2 512.5 232.5 498.2 232.5 480.5V235.8L279.9 292.9C291.2 306.5 311.4 308.4 325 297.1C338.6 285.8 340.5 265.6 329.2 252L255.5 163.1C237.3 141.1 210.2 128.4 181.6 128.4H145.6C111.9 128.4 80.7 146.1 63.3 175L5.00001 272C-4.09999 287.1 0.800005 306.8 15.9 315.9C31 325 50.7 320.1 59.8 305H59.9ZM480.5 240.5C480.5 227.77 475.443 215.561 466.441 206.559C457.439 197.557 445.23 192.5 432.5 192.5C419.77 192.5 407.561 197.557 398.559 206.559C389.557 215.561 384.5 227.77 384.5 240.5C384.5 253.23 389.557 265.439 398.559 274.441C407.561 283.443 419.77 288.5 432.5 288.5C445.23 288.5 457.439 283.443 466.441 274.441C475.443 265.439 480.5 253.23 480.5 240.5ZM464.5 344.5V403.2L423.1 361.8C415.8 354.5 405.5 351.2 395.3 352.8C385.1 354.4 376.4 360.9 371.8 370.1L323.8 466.1C315.9 481.9 322.3 501.1 338.1 509C353.9 516.9 373.1 510.5 381 494.7L409.3 438.5L464 493.2C476.4 505.6 493.1 512.5 510.6 512.5C547 512.5 576.5 483 576.5 446.6V344.5C576.5 313.6 551.4 288.5 520.5 288.5C489.6 288.5 464.5 313.6 464.5 344.5ZM288.5 48.5C288.5 57.3 295.7 64.5 304.5 64.5H360.5C369.3 64.5 376.5 57.3 376.5 48.5C376.5 39.7 369.3 32.5 360.5 32.5H304.5C295.7 32.5 288.5 39.7 288.5 48.5ZM287.7 98.2C279.8 94.2 270.2 97.5 266.2 105.4C262.2 113.3 265.5 122.9 273.4 126.9L321.4 150.9C329.3 154.9 338.9 151.6 342.9 143.7C346.9 135.8 343.6 126.2 335.7 122.2L287.7 98.2Z" fill="#47535F"/>
</g>
<defs>
<clipPath id="clip0_104_2186">
<rect width="576" height="512" fill="white" transform="translate(0.5 0.5)"/>
</clipPath>
</defs>
</svg>
