<svg width="641" height="513" viewBox="0 0 641 513" fill="none" xmlns="http://www.w3.org/2000/svg">
<g clip-path="url(#clip0_104_2152)">
<path d="M480.5 96.5C493.23 96.5 505.439 91.4429 514.441 82.4411C523.443 73.4394 528.5 61.2304 528.5 48.5C528.5 35.7696 523.443 23.5606 514.441 14.5589C505.439 5.55713 493.23 0.5 480.5 0.5C467.769 0.5 455.56 5.55713 446.559 14.5589C437.557 23.5606 432.5 35.7696 432.5 48.5C432.5 61.2304 437.557 73.4394 446.559 82.4411C455.56 91.4429 467.769 96.5 480.5 96.5ZM472.5 480.5V352.5H488.5V480.5C488.5 498.2 502.8 512.5 520.5 512.5C538.2 512.5 552.5 498.2 552.5 480.5V257.4L581.1 304.9C590.2 320 609.9 324.9 625 315.8C640.1 306.7 645 287 635.9 271.9L577.6 174.9C560.2 146 529 128.3 495.3 128.3H465.6C431.9 128.3 400.7 146 383.3 174.9L325 271.9C315.9 287 320.8 306.7 335.9 315.8C351 324.9 370.7 320 379.8 304.9L408.5 257.4V480.5C408.5 498.2 422.8 512.5 440.5 512.5C458.2 512.5 472.5 498.2 472.5 480.5ZM191.4 18.6C188.9 12.5 183.1 8.5 176.5 8.5C169.9 8.5 164.1 12.5 161.6 18.6L132.2 92.6L56.0999 69.4C49.7999 67.5 42.9999 69.6 38.8999 74.7C34.7999 79.8 34.2999 86.9 37.4999 92.6L76.9999 161.7L11.3999 206.9C5.99989 210.6 3.39989 217.2 4.89989 223.6C6.39989 230 11.5999 234.8 17.9999 235.8L96.6999 248L91.0999 327.5C90.5999 334 94.1999 340.2 100.1 343C106 345.8 113 344.8 117.9 340.4L176.5 286.6L235.1 340.5C239.9 344.9 247 346 252.9 343.1C258.8 340.2 262.4 334.1 261.9 327.6L256.3 248.2L306.8 240.4L331.2 199.9L276 161.9L315.5 92.7C318.8 87 318.2 79.9 314.1 74.8C310 69.7 303.2 67.6 296.9 69.5L220.8 92.6L191.4 18.6Z" fill="#47535F"/>
</g>
<defs>
<clipPath id="clip0_104_2152">
<rect width="640" height="512" fill="white" transform="translate(0.5 0.5)"/>
</clipPath>
</defs>
</svg>
