<svg width="577" height="513" viewBox="0 0 577 513" fill="none" xmlns="http://www.w3.org/2000/svg">
<g clip-path="url(#clip0_104_2170)">
<path d="M208.5 64.5C208.5 51.7696 213.557 39.5606 222.559 30.5589C231.561 21.5571 243.77 16.5 256.5 16.5C269.23 16.5 281.439 21.5571 290.441 30.5589C299.443 39.5606 304.5 51.7696 304.5 64.5C304.5 77.2304 299.443 89.4394 290.441 98.4411C281.439 107.443 269.23 112.5 256.5 112.5C243.77 112.5 231.561 107.443 222.559 98.4411C213.557 89.4394 208.5 77.2304 208.5 64.5ZM10.3 215.3C15.4 203.1 29.4 197.3 41.7 202.4L61.2 210.5L84.1 172.4C100.4 145.1 129.8 128.5 161.5 128.5C212.9 128.5 258.5 161.4 274.8 210.2L309.4 313.9L388.7 347L422.9 301.4C429.3 292.9 439.5 288.1 450.1 288.6C460.7 289.1 470.4 295 475.9 304.1L571.9 464.1C577.8 474 578 486.3 572.3 496.3C566.6 506.3 556 512.5 544.5 512.5H288.5C277.4 512.5 267.1 506.8 261.3 497.3C255.5 487.8 254.9 476.1 259.9 466.2L275.9 434.2C281.3 423.4 292.4 416.5 304.5 416.5H336.5L359 386.5L23.3 246.7C11.1 241.6 5.29999 227.6 10.4 215.3H10.3ZM93.1 307.1L205.1 355.1C216.9 360.1 224.5 371.7 224.5 384.5V480.5C224.5 498.2 210.2 512.5 192.5 512.5C174.8 512.5 160.5 498.2 160.5 480.5V405.6L99.9 379.6L62.9 490.6C57.3 507.4 39.2 516.4 22.4 510.8C5.59999 505.2 -3.40001 487.1 2.09999 470.4L50.1 326.4L61.1 293.4L93.1 307.1Z" fill="#47535F"/>
</g>
<defs>
<clipPath id="clip0_104_2170">
<rect width="576" height="512" fill="white" transform="translate(0.5 0.5)"/>
</clipPath>
</defs>
</svg>
