<svg width="321" height="513" viewBox="0 0 321 513" fill="none" xmlns="http://www.w3.org/2000/svg">
<g clip-path="url(#clip0_104_2220)">
<path d="M160.501 48.5C160.501 35.7696 165.558 23.5606 174.56 14.5589C183.561 5.55713 195.77 0.5 208.501 0.5C221.231 0.5 233.44 5.55713 242.442 14.5589C251.444 23.5606 256.501 35.7696 256.501 48.5C256.501 61.2304 251.444 73.4394 242.442 82.4411C233.44 91.4429 221.231 96.5 208.501 96.5C195.77 96.5 183.561 91.4429 174.56 82.4411C165.558 73.4394 160.501 61.2304 160.501 48.5ZM127.001 199.8C126.001 200.2 125.101 200.6 124.101 201L116.101 204.5C99.7008 211.8 87.1008 225.7 81.4008 242.7L78.8008 250.5C73.2008 267.3 55.1008 276.3 38.3008 270.7C21.5008 265.1 12.5008 247 18.1008 230.2L20.7008 222.4C32.1008 188.3 57.3008 160.5 90.1008 145.9L98.1008 142.4C118.901 133.2 141.401 128.4 164.201 128.4C208.801 128.4 249.001 155.2 266.101 196.3L281.501 233.2L302.901 243.9C318.701 251.8 325.101 271 317.201 286.8C309.301 302.6 290.101 309 274.301 301.1L247.501 287.8C237.201 282.6 229.101 274 224.701 263.3L215.101 240.3L195.801 305.8L245.301 359.8C250.701 365.7 254.501 372.8 256.501 380.6L279.501 472.7C283.801 489.8 273.401 507.2 256.201 511.5C239.001 515.8 221.701 505.4 217.401 488.2L195.401 400.1L124.701 323C109.901 306.9 104.401 284.4 110.001 263.3L126.901 199.8H127.001ZM69.2008 398.5L94.2008 336.1C96.3008 339.1 98.7008 341.9 101.201 344.7L141.901 389.1L127.401 425.3C125.001 431.3 121.401 436.8 116.801 441.4L55.1008 503.1C42.6008 515.6 22.3008 515.6 9.80078 503.1C-2.69922 490.6 -2.69922 470.3 9.80078 457.8L69.2008 398.5Z" fill="#47535F"/>
</g>
<defs>
<clipPath id="clip0_104_2220">
<rect width="320" height="512" fill="white" transform="translate(0.5 0.5)"/>
</clipPath>
</defs>
</svg>
