<svg width="449" height="513" viewBox="0 0 449 513" fill="none" xmlns="http://www.w3.org/2000/svg">
<g clip-path="url(#clip0_104_2150)">
<path d="M224.5 0.5C245.717 0.5 266.066 8.92855 281.068 23.9315C296.071 38.9344 304.5 59.2827 304.5 80.5C304.5 101.717 296.071 122.066 281.068 137.069C266.066 152.071 245.717 160.5 224.5 160.5C203.283 160.5 182.934 152.071 167.931 137.069C152.928 122.066 144.5 101.717 144.5 80.5C144.5 59.2827 152.928 38.9344 167.931 23.9315C182.934 8.92855 203.283 0.5 224.5 0.5ZM437.3 383.3L374 462.5C357.4 483.2 327.2 486.6 306.5 470C288.9 455.9 283.8 431.9 293 412.3L292.2 412.2C253.3 406.6 217.9 387.1 192.5 357.4V320.5C192.5 302.8 178.2 288.5 160.5 288.5C142.8 288.5 128.5 302.8 128.5 320.5V368.5C128.5 369.3 128.5 370.1 128.6 370.9L230 421.6C253.7 433.5 263.3 462.3 251.5 486C239.7 509.7 210.8 519.3 187.1 507.5L27.6999 427.8C26.5999 427.3 25.4999 426.7 24.3999 426.1C19.4999 423.3 15.1999 419.7 11.7999 415.5C7.19995 410.1 3.99995 403.8 2.19995 397.1C-1.10005 385.1 0.299946 371.9 6.99995 360.5C7.59995 359.4 8.29995 358.3 8.99995 357.3L76.0999 256.6C102.8 216.5 147.8 192.5 195.9 192.5H271.1C317.6 192.5 361.2 215 388.3 252.8L439 323.7C441.2 326.7 443 329.8 444.5 333.1C447.4 339.8 448.8 346.9 448.5 353.9C448.2 364.5 444.3 374.9 437.3 383.3ZM320.5 332.5C320.5 320.83 315.864 309.639 307.613 301.387C299.361 293.136 288.169 288.5 276.5 288.5C264.83 288.5 253.639 293.136 245.387 301.387C237.136 309.639 232.5 320.83 232.5 332.5C232.5 344.17 237.136 355.361 245.387 363.613C253.639 371.864 264.83 376.5 276.5 376.5C288.169 376.5 299.361 371.864 307.613 363.613C315.864 355.361 320.5 344.17 320.5 332.5Z" fill="#47535F"/>
</g>
<defs>
<clipPath id="clip0_104_2150">
<rect width="448" height="512" fill="white" transform="translate(0.5 0.5)"/>
</clipPath>
</defs>
</svg>
