<svg width="641" height="513" viewBox="0 0 641 513" fill="none" xmlns="http://www.w3.org/2000/svg">
<g clip-path="url(#clip0_104_2218)">
<path d="M64.5 64.5H288.5V74.3C288.5 113.3 264.8 148.3 228.6 162.7C168.1 187 128.5 245.5 128.5 310.7V384.5H64.5V64.5ZM352.5 64.5H576.5V384.5H508.8L505.1 380L429.9 289.8C420.8 278.9 407.3 272.5 393 272.5H321.9L280.9 209.4C280.6 208.9 280.3 208.4 279.9 208C324.6 179 352.4 129 352.4 74.4V64.6L352.5 64.5ZM425.5 384.5H379.7L422.4 448.5H592.5C619 448.5 640.5 427 640.5 400.5V48.5C640.5 22 619 0.5 592.5 0.5H48.5C22 0.5 0.5 22 0.5 48.5V400.5C0.5 427 22 448.5 48.5 448.5H308.7L341.9 498.3C351.7 513 371.6 517 386.3 507.2C401 497.4 405 477.5 395.2 462.8L311 336.5H385.6L425.6 384.5H425.5ZM266 384.5H192.5V310.7C192.5 300.5 194.1 290.6 197.2 281.2L266 384.5ZM192.5 128.5C192.5 115.77 187.443 103.561 178.441 94.5589C169.439 85.5571 157.23 80.5 144.5 80.5C131.77 80.5 119.561 85.5571 110.559 94.5589C101.557 103.561 96.5 115.77 96.5 128.5C96.5 141.23 101.557 153.439 110.559 162.441C119.561 171.443 131.77 176.5 144.5 176.5C157.23 176.5 169.439 171.443 178.441 162.441C187.443 153.439 192.5 141.23 192.5 128.5Z" fill="#47535F"/>
</g>
<defs>
<clipPath id="clip0_104_2218">
<rect width="640" height="512" fill="white" transform="translate(0.5 0.5)"/>
</clipPath>
</defs>
</svg>
