<svg width="385" height="513" viewBox="0 0 385 513" fill="none" xmlns="http://www.w3.org/2000/svg">
<g clip-path="url(#clip0_104_2188)">
<path d="M192.5 48.5C192.5 35.7696 197.557 23.5606 206.559 14.5589C215.561 5.55713 227.77 0.5 240.5 0.5C253.23 0.5 265.439 5.55713 274.441 14.5589C283.443 23.5606 288.5 35.7696 288.5 48.5C288.5 61.2304 283.443 73.4394 274.441 82.4411C265.439 91.4429 253.23 96.5 240.5 96.5C227.77 96.5 215.561 91.4429 206.559 82.4411C197.557 73.4394 192.5 61.2304 192.5 48.5ZM243.8 231.2L224.7 307.5L274.4 357.2C283.4 366.2 288.5 378.4 288.5 391.1V480.5C288.5 498.2 274.2 512.5 256.5 512.5C238.8 512.5 224.5 498.2 224.5 480.5V397.8L150.6 323.9C134.8 308.1 128.4 285.3 133.7 263.6L154.1 179.6C162.4 145.5 196.8 124.7 230.8 133.2C249.8 138 266.4 149.6 277.2 165.9L305.6 208.5H336.5V184.5C336.5 171.2 347.2 160.5 360.5 160.5C373.8 160.5 384.5 171.2 384.5 184.5V240.3C384.5 240.4 384.5 240.5 384.5 240.5V240.7V488.5C384.5 501.8 373.8 512.5 360.5 512.5C347.2 512.5 336.5 501.8 336.5 488.5V272.5H297.1C281.1 272.5 266.1 264.5 257.2 251.1L243.9 231.1L243.8 231.2ZM81.6001 472.4L117.8 334.5C120.8 338.7 124.2 342.7 127.9 346.4L169.8 388.3L143.4 488.6C138.9 505.7 121.4 515.9 104.3 511.4C87.2001 506.9 77.0001 489.4 81.5001 472.3L81.6001 472.4ZM137.1 126.4L101.9 267C98.9001 279.1 87.0001 286.9 74.7001 284.9L26.8001 276.9C12.8001 274.6 3.90009 260.6 7.60009 246.9L32.4001 155.5C41.9001 120.7 73.5001 96.5 109.6 96.5H113.8C129.4 96.5 140.9 111.2 137.1 126.3V126.4Z" fill="#47535F"/>
</g>
<defs>
<clipPath id="clip0_104_2188">
<rect width="384" height="512" fill="white" transform="translate(0.5 0.5)"/>
</clipPath>
</defs>
</svg>
