<svg width="577" height="513" viewBox="0 0 577 513" fill="none" xmlns="http://www.w3.org/2000/svg">
<g clip-path="url(#clip0_104_2202)">
<path d="M265.7 192.5C291.1 192.5 315.5 199.6 336.5 212.4V512.5H144.5V338.2L90.8997 428.8C79.6997 447.8 55.0997 454.1 36.0997 442.9C17.0997 431.7 10.7997 407.1 21.9997 388.1L98.1997 259.3C122.7 217.9 167.2 192.5 215.3 192.5H265.7ZM160.5 80.5C160.5 59.2827 168.928 38.9344 183.931 23.9315C198.934 8.92855 219.282 0.5 240.5 0.5C261.717 0.5 282.065 8.92855 297.068 23.9315C312.071 38.9344 320.5 59.2827 320.5 80.5C320.5 101.717 312.071 122.066 297.068 137.069C282.065 152.071 261.717 160.5 240.5 160.5C219.282 160.5 198.934 152.071 183.931 137.069C168.928 122.066 160.5 101.717 160.5 80.5ZM448.5 0.5C457.3 0.5 464.5 7.7 464.5 16.5V132.8C474.1 138.3 480.5 148.7 480.5 160.5V269.8L496.5 264.5V208.5C496.5 199.7 503.7 192.5 512.5 192.5H528.5C537.3 192.5 544.5 199.7 544.5 208.5V293C544.5 299.9 540.1 306 533.6 308.2L480.5 325.8V352.5H528.5C537.3 352.5 544.5 359.7 544.5 368.5V384.5C544.5 393.3 537.3 400.5 528.5 400.5H484.5L507.5 492.6C510 502.7 502.4 512.5 492 512.5H432.5C423.7 512.5 416.5 505.3 416.5 496.5V400.5H400.5C382.8 400.5 368.5 386.2 368.5 368.5V224.5C368.5 206.8 382.8 192.5 400.5 192.5V160.5C400.5 148.7 406.9 138.3 416.5 132.8V32.5C407.7 32.5 400.5 25.3 400.5 16.5C400.5 7.7 407.7 0.5 416.5 0.5H432.5H448.5Z" fill="#47535F"/>
</g>
<defs>
<clipPath id="clip0_104_2202">
<rect width="576" height="512" fill="white" transform="translate(0.5 0.5)"/>
</clipPath>
</defs>
</svg>
