<svg width="321" height="513" viewBox="0 0 321 513" fill="none" xmlns="http://www.w3.org/2000/svg">
<g clip-path="url(#clip0_104_2184)">
<path d="M160.5 0.5C173.23 0.5 185.439 5.55713 194.441 14.5589C203.442 23.5606 208.5 35.7696 208.5 48.5C208.5 61.2304 203.442 73.4394 194.441 82.4411C185.439 91.4429 173.23 96.5 160.5 96.5C147.769 96.5 135.56 91.4429 126.558 82.4411C117.557 73.4394 112.5 61.2304 112.5 48.5C112.5 35.7696 117.557 23.5606 126.558 14.5589C135.56 5.55713 147.769 0.5 160.5 0.5ZM168.5 352.5V128.5H175.4C209.1 128.5 240.3 146.2 257.7 175.1L316 272.1C325.1 287.2 320.2 306.9 305.1 316C290 325.1 270.3 320.2 261.2 305.1L232.5 257.4V480.5C232.5 498.2 218.2 512.5 200.5 512.5C182.8 512.5 168.5 498.2 168.5 480.5V352.5ZM58.6996 182.8C78.5996 149.7 114 129.3 152.5 128.5V384.5V480.5C152.5 498.2 138.2 512.5 120.5 512.5C102.8 512.5 88.4996 498.2 88.4996 480.5V384.5H70.6996C59.7996 384.5 52.0996 373.8 55.4996 363.4L93.7996 248.6L59.8996 305C50.7996 320.1 31.0996 325 15.9996 315.9C0.899614 306.8 -4.00039 287.1 5.09962 272L58.6996 182.8Z" fill="#47535F"/>
</g>
<defs>
<clipPath id="clip0_104_2184">
<rect width="320" height="512" fill="white" transform="translate(0.5 0.5)"/>
</clipPath>
</defs>
</svg>
