<svg width="513" height="513" viewBox="0 0 513 513" fill="none" xmlns="http://www.w3.org/2000/svg">
<g clip-path="url(#clip0_104_2194)">
<path d="M71.5 13C62.9 14 56.5 21.2 56.5 29.8C56.5 39.1 64 46.6 73.2 46.7H184.6C193.4 46.6 200.5 39.5 200.5 30.7V16.5C200.5 6.99999 192.2 -0.500008 182.7 0.599992L71.5 13ZM190 78.6H67C65.4 84.3 64.5 90.3 64.5 96.5C64.5 131.8 93.2 160.5 128.5 160.5C163.8 160.5 192.5 131.8 192.5 96.5C192.5 90.3 191.6 84.3 190 78.6ZM32.5 256.5V288.5C32.5 306.2 46.8 320.5 64.5 320.5H192.5C194.3 320.5 196 320.4 197.7 320.1L53.5 209.1C40.6 220.8 32.5 237.7 32.5 256.5ZM222.7 299C223.8 295.7 224.5 292.2 224.5 288.5V256.5C224.5 221.2 195.8 192.5 160.5 192.5H96.5C92.8 192.5 89.1 192.8 85.6 193.4L222.7 299ZM384.5 160.5C401.474 160.5 417.752 153.757 429.755 141.755C441.757 129.752 448.5 113.474 448.5 96.5C448.5 79.5261 441.757 63.2475 429.755 51.2452C417.752 39.2428 401.474 32.5 384.5 32.5C367.526 32.5 351.248 39.2428 339.245 51.2452C327.243 63.2475 320.5 79.5261 320.5 96.5C320.5 113.474 327.243 129.752 339.245 141.755C351.248 153.757 367.526 160.5 384.5 160.5ZM352.5 192.5C317.2 192.5 288.5 221.2 288.5 256.5V288.5C288.5 306.2 302.8 320.5 320.5 320.5H448.5C466.2 320.5 480.5 306.2 480.5 288.5V256.5C480.5 221.2 451.8 192.5 416.5 192.5H352.5ZM216.3 450.6C221.5 446 224.5 439.5 224.5 432.5C224.5 425.5 221.5 419 216.3 414.4L152.3 358.4C145.2 352.2 135.2 350.7 126.6 354.6C118 358.5 112.5 367.1 112.5 376.5V408.5H24.5C11.2 408.5 0.5 419.2 0.5 432.5C0.5 445.8 11.2 456.5 24.5 456.5H112.5V488.5C112.5 497.9 118 506.5 126.6 510.4C135.2 514.3 145.2 512.8 152.3 506.6L216.3 450.6ZM288.5 432.4C288.5 439.3 291.4 445.9 296.6 450.5L360.6 506.9C367.7 513.1 377.7 514.7 386.3 510.8C394.9 506.9 400.4 498.4 400.4 488.9V456.5H488.4C501.7 456.5 512.4 445.8 512.4 432.5C512.4 419.2 501.7 408.5 488.4 408.5H400.4V376.5C400.4 367.1 394.9 358.5 386.3 354.6C377.7 350.7 367.7 352.2 360.6 358.4L296.6 414.4C291.4 418.9 288.4 425.5 288.4 432.4H288.5Z" fill="#47535F"/>
</g>
<defs>
<clipPath id="clip0_104_2194">
<rect width="512" height="512" fill="white" transform="translate(0.5 0.5)"/>
</clipPath>
</defs>
</svg>
