<svg width="577" height="513" viewBox="0 0 577 513" fill="none" xmlns="http://www.w3.org/2000/svg">
<g clip-path="url(#clip0_104_2228)">
<path d="M432.5 96.5C445.23 96.5 457.439 91.4429 466.441 82.4411C475.443 73.4394 480.5 61.2304 480.5 48.5C480.5 35.7696 475.443 23.5606 466.441 14.5589C457.439 5.55713 445.23 0.5 432.5 0.5C419.77 0.5 407.561 5.55713 398.559 14.5589C389.557 23.5606 384.5 35.7696 384.5 48.5C384.5 61.2304 389.557 73.4394 398.559 82.4411C407.561 91.4429 419.77 96.5 432.5 96.5ZM348.2 201C349.2 200.6 350.1 200.2 351.1 199.8L334.2 263.3C328.6 284.4 334.1 306.9 348.9 323L419.6 400.1L441.6 488.2C445.9 505.3 463.3 515.8 480.4 511.5C497.5 507.2 508 489.8 503.7 472.7L480.7 380.6C478.8 372.8 474.9 365.7 469.5 359.8L420 305.8L439.3 240.3L448.9 263.3C453.3 273.9 461.4 282.6 471.7 287.8L498.4 301.1C514.2 309 533.4 302.6 541.3 286.8C549.2 271 542.8 251.8 527 243.9L505.5 233.2L490.2 196.4C473 155.3 432.8 128.5 388.2 128.5C365.4 128.5 342.9 133.3 322.1 142.5L314.1 146C281.2 160.6 256 188.4 244.7 222.5L242.1 230.3C236.5 247.1 245.6 265.2 262.3 270.8C279 276.4 297.2 267.3 302.8 250.6L305.4 242.8C311.1 225.7 323.7 211.9 340.1 204.6L348.1 201.1L348.2 201ZM318.2 336.1L293.2 398.5L233.8 457.9C221.3 470.4 221.3 490.7 233.8 503.2C246.3 515.7 266.6 515.7 279.1 503.2L340.8 441.5C345.4 436.9 349 431.4 351.4 425.4L365.9 389.2L325.2 344.8C322.7 342.1 320.4 339.2 318.2 336.2V336.1ZM256.5 274.6C248.8 270.2 239.1 272.8 234.6 280.5L202.6 335.9L148.2 304.5C132.9 295.7 113.3 300.9 104.5 316.2L40.5 427.1C31.7 442.4 36.9 462 52.2 470.8L107.6 502.8C122.9 511.6 142.5 506.4 151.3 491.1L215.3 380.2C216.8 377.6 217.9 375 218.6 372.2L262.4 296.5C266.8 288.8 264.2 279.1 256.5 274.6Z" fill="#47535F"/>
</g>
<defs>
<clipPath id="clip0_104_2228">
<rect width="576" height="512" fill="white" transform="translate(0.5 0.5)"/>
</clipPath>
</defs>
</svg>
