<svg width="513" height="513" viewBox="0 0 513 513" fill="none" xmlns="http://www.w3.org/2000/svg">
<g clip-path="url(#clip0_104_2192)">
<path d="M160.5 39.5C160.5 26.5 170.5 15.7 183.4 14.6L335.2 1.89996C344.5 1.19996 352.5 8.49996 352.5 17.9V48.5C352.5 57.3 345.3 64.5 336.5 64.5H185.5C171.7 64.5 160.5 53.3 160.5 39.5ZM178.1 96.5H334.9C335.9 101.7 336.5 107 336.5 112.5C336.5 156.7 300.7 192.5 256.5 192.5C212.3 192.5 176.5 156.7 176.5 112.5C176.5 107 177.1 101.7 178.1 96.5ZM406.1 460.8L352.5 370.2V480.5C352.5 481.8 352.4 483 352.3 484.3L178 235.4C194.6 228.3 212.6 224.5 231.3 224.5H281.7C297.6 224.5 313 227.3 327.5 232.4L422.4 68.2C414.7 63.8 412.1 54 416.5 46.3C420.9 38.6 430.7 36 438.4 40.4L452.3 48.4L466.2 56.4C473.9 60.8 476.5 70.6 472.1 78.3L416.5 174.4L418.1 175.3C433.4 184.1 438.7 203.7 429.8 219L393.1 282.5C395.1 285.3 397 288.3 398.8 291.3L474.9 420.1C486.1 439.1 479.8 463.6 460.8 474.9C441.8 486.2 417.3 479.8 406 460.8H406.1ZM320.5 512.5H192.5C174.8 512.5 160.5 498.2 160.5 480.5V370.2L106.9 460.8C95.6997 479.8 71.0997 486.1 52.0997 474.9C33.0997 463.7 26.7997 439.1 37.9997 420.1L114.1 291.3C123.5 275.5 135.8 262 150.1 251.3L331.6 510.5C328.1 511.8 324.4 512.5 320.5 512.5ZM296.5 320.5C302.865 320.5 308.969 317.971 313.47 313.471C317.971 308.97 320.5 302.865 320.5 296.5C320.5 290.135 317.971 284.03 313.47 279.529C308.969 275.029 302.865 272.5 296.5 272.5C290.135 272.5 284.03 275.029 279.529 279.529C275.028 284.03 272.5 290.135 272.5 296.5C272.5 302.865 275.028 308.97 279.529 313.471C284.03 317.971 290.135 320.5 296.5 320.5Z" fill="#47535F"/>
</g>
<defs>
<clipPath id="clip0_104_2192">
<rect width="512" height="512" fill="white" transform="translate(0.5 0.5)"/>
</clipPath>
</defs>
</svg>
