<svg width="577" height="513" viewBox="0 0 577 513" fill="none" xmlns="http://www.w3.org/2000/svg">
<g clip-path="url(#clip0_104_2212)">
<path d="M336.5 96.5C349.23 96.5 361.439 91.4429 370.441 82.4411C379.443 73.4394 384.5 61.2304 384.5 48.5C384.5 35.7696 379.443 23.5606 370.441 14.5589C361.439 5.55713 349.23 0.5 336.5 0.5C323.77 0.5 311.561 5.55713 302.559 14.5589C293.557 23.5606 288.5 35.7696 288.5 48.5C288.5 61.2304 293.557 73.4394 302.559 82.4411C311.561 91.4429 323.77 96.5 336.5 96.5ZM227.7 160.5C229.6 160.5 231.5 160.6 233.3 160.8L202.1 254.5C192.8 282.5 203.8 313.3 228.9 329L315.1 382.9L291.8 464.5H203.3L244.4 376.4L212 356.1C204.2 351.2 197.3 345.4 191.4 338.8L132.7 464.5H100.2L154.4 206.9C159 205.4 163.4 202.8 167.1 199.1L190.2 176C200.1 166.1 213.6 160.5 227.7 160.5ZM121.9 199.1C122.3 199.5 122.7 199.9 123.2 200.3L67.5 464.5H24.5C11.2 464.5 0.5 475.2 0.5 488.5C0.5 501.8 11.2 512.5 24.5 512.5H159.8C160.2 512.5 160.7 512.5 161.1 512.5H319.8C320.3 512.5 320.8 512.5 321.2 512.5H504.5C544.3 512.5 576.5 480.3 576.5 440.5V432.5C576.5 419.2 565.8 408.5 552.5 408.5C539.2 408.5 528.5 419.2 528.5 432.5V440.5C528.5 453.8 517.8 464.5 504.5 464.5H435.1L462.7 285.2C473.2 280 480.5 269.1 480.5 256.5C480.5 238.8 466.2 224.5 448.5 224.5H427.2C414.3 224.5 402.6 216.7 397.7 204.8L391.4 189.8C376.8 154.7 347.3 127.9 310.9 116.7L262.2 101.7C251.1 98.3 239.5 96.5 227.8 96.5C196.8 96.5 167 108.8 145.1 130.8L122 153.9C109.5 166.4 109.5 186.7 122 199.2L121.9 199.1ZM429.9 288.5L402.8 464.5H358.3L379.9 388.9C385.8 368.3 377.3 346.3 359.2 335L302.5 299.5L333.4 217.1L338.5 229.4C353.5 265.2 388.4 288.5 427.2 288.5H429.9Z" fill="#47535F"/>
</g>
<defs>
<clipPath id="clip0_104_2212">
<rect width="576" height="512" fill="white" transform="translate(0.5 0.5)"/>
</clipPath>
</defs>
</svg>
