<svg width="449" height="513" viewBox="0 0 449 513" fill="none" xmlns="http://www.w3.org/2000/svg">
<g clip-path="url(#clip0_104_2208)">
<path d="M352.501 48.5C352.501 42.1965 353.742 35.9548 356.155 30.1312C358.567 24.3076 362.102 19.0161 366.56 14.5589C371.017 10.1017 376.308 6.56601 382.132 4.15378C387.956 1.74156 394.197 0.5 400.501 0.5C406.804 0.5 413.046 1.74156 418.87 4.15378C424.693 6.56601 429.985 10.1017 434.442 14.5589C438.899 19.0161 442.435 24.3076 444.847 30.1312C447.259 35.9548 448.501 42.1965 448.501 48.5C448.501 54.8035 447.259 61.0452 444.847 66.8688C442.435 72.6924 438.899 77.9839 434.442 82.4411C429.985 86.8983 424.693 90.434 418.87 92.8462C413.046 95.2584 406.804 96.5 400.501 96.5C394.197 96.5 387.956 95.2584 382.132 92.8462C376.308 90.434 371.017 86.8983 366.56 82.4411C362.102 77.9839 358.567 72.6924 356.155 66.8688C353.742 61.0452 352.501 54.8035 352.501 48.5ZM128.501 128.5C128.501 110.8 142.801 96.5 160.501 96.5H319.901C363.501 96.5 384.501 149.9 352.701 179.6L278.301 249L338.501 309.2C347.501 318.2 352.601 330.4 352.601 343.1V416.5C352.601 434.2 338.301 448.5 320.601 448.5C302.901 448.5 288.601 434.2 288.601 416.5V349.8L210.701 272C184.101 245.4 186.101 201.7 215.001 177.6L235.401 160.6H160.501C142.801 160.6 128.501 146.3 128.501 128.6V128.5ZM81.9008 353.9L168.801 267C173.401 277 179.801 286.3 188.101 294.5L209.901 316.3L127.201 399C114.701 411.5 94.4008 411.5 81.9008 399C69.4008 386.5 69.4008 366.2 81.9008 353.7V353.9ZM404.401 449C413.001 451.1 418.201 459.8 416.001 468.4L415.601 470.1C409.401 495 387.001 512.5 361.301 512.5H272.501C263.701 512.5 256.501 505.3 256.501 496.5C256.501 487.7 263.701 480.5 272.501 480.5H361.301C372.301 480.5 381.901 473 384.601 462.3L385.001 460.6C387.101 452 395.801 446.8 404.401 449ZM135.701 478.8L129.501 481.9C107.901 492.7 81.9008 488.5 64.9008 471.4L5.20078 411.8C-0.999219 405.6 -0.999219 395.4 5.20078 389.2C11.4008 383 21.6008 383 27.8008 389.2L87.4008 448.8C94.7008 456.1 105.901 457.9 115.101 453.3L121.301 450.2C129.201 446.2 138.801 449.5 142.801 457.4C146.801 465.3 143.501 474.9 135.601 478.9L135.701 478.8Z" fill="#47535F"/>
</g>
<defs>
<clipPath id="clip0_104_2208">
<rect width="448" height="512" fill="white" transform="translate(0.5 0.5)"/>
</clipPath>
</defs>
</svg>
