<svg width="513" height="513" viewBox="0 0 513 513" fill="none" xmlns="http://www.w3.org/2000/svg">
<g clip-path="url(#clip0_104_2200)">
<path d="M208.499 48.5C208.499 35.7696 213.556 23.5606 222.558 14.5588C231.56 5.55708 243.769 0.499951 256.499 0.499951C269.23 0.499951 281.439 5.55708 290.44 14.5588C299.442 23.5606 304.499 35.7696 304.499 48.5C304.499 61.2303 299.442 73.4393 290.44 82.4411C281.439 91.4428 269.23 96.5 256.499 96.5C243.769 96.5 231.56 91.4428 222.558 82.4411C213.556 73.4393 208.499 61.2303 208.499 48.5ZM248.499 352.5V480.5C248.499 498.2 234.199 512.5 216.499 512.5C198.799 512.5 184.499 498.2 184.499 480.5V257.4L155.899 304.9C146.799 320 127.099 324.9 111.999 315.8C96.8992 306.7 91.9992 287 101.099 271.9L159.399 174.9C176.799 146 207.999 128.3 241.699 128.3H271.399C305.099 128.3 336.299 146 353.699 174.9L411.999 271.9C421.099 287 416.199 306.7 401.099 315.8C385.999 324.9 366.299 320 357.199 304.9L328.499 257.4V480.5C328.499 498.2 314.199 512.5 296.499 512.5C278.799 512.5 264.499 498.2 264.499 480.5V352.5H248.499ZM7.49922 7.49995C16.8992 -1.80005 32.0992 -1.80005 41.4992 7.49995L121.499 87.5C130.899 96.9 130.899 112.1 121.499 121.4C112.099 130.7 96.8992 130.8 87.5992 121.4L7.49922 41.5C-1.80078 32.1 -1.80078 16.9 7.49922 7.49995ZM471.499 7.49995C480.899 -1.90005 496.099 -1.90005 505.399 7.49995C514.699 16.9 514.799 32.1 505.399 41.4L425.399 121.4C415.999 130.8 400.799 130.8 391.499 121.4C382.199 112 382.099 96.8 391.499 87.5L471.499 7.49995ZM7.49922 505.5C-1.90078 496.1 -1.90078 480.9 7.49922 471.6L87.4992 391.6C96.8992 382.2 112.099 382.2 121.399 391.6C130.699 401 130.799 416.2 121.399 425.5L41.4992 505.5C32.0992 514.9 16.8992 514.9 7.59922 505.5H7.49922ZM471.499 505.5L391.499 425.5C382.099 416.1 382.099 400.9 391.499 391.6C400.899 382.3 416.099 382.2 425.399 391.6L505.399 471.6C514.799 481 514.799 496.2 505.399 505.5C495.999 514.8 480.799 514.9 471.499 505.5Z" fill="#47535F"/>
</g>
<defs>
<clipPath id="clip0_104_2200">
<rect width="512" height="512" fill="white" transform="translate(0.5 0.5)"/>
</clipPath>
</defs>
</svg>
