<svg width="641" height="513" viewBox="0 0 641 513" fill="none" xmlns="http://www.w3.org/2000/svg">
<g clip-path="url(#clip0_104_2222)">
<path d="M208.5 96.5C221.23 96.5 233.439 91.4429 242.441 82.4411C251.443 73.4394 256.5 61.2304 256.5 48.5C256.5 35.7696 251.443 23.5606 242.441 14.5589C233.439 5.55713 221.23 0.5 208.5 0.5C195.77 0.5 183.561 5.55713 174.559 14.5589C165.557 23.5606 160.5 35.7696 160.5 48.5C160.5 61.2304 165.557 73.4394 174.559 82.4411C183.561 91.4429 195.77 96.5 208.5 96.5ZM124.2 201C125.2 200.6 126.1 200.2 127.1 199.8L110.2 263.3C104.6 284.4 110.1 306.9 124.9 323L195.6 400.1L217.6 488.2C221.9 505.3 239.3 515.8 256.4 511.5C273.5 507.2 284 489.8 279.7 472.7L256.7 380.6C254.8 372.8 250.9 365.7 245.5 359.8L196 305.8L215.3 240.3L224.9 263.3C229.3 273.9 237.4 282.6 247.7 287.8L274.4 301.1C290.2 309 309.4 302.6 317.3 286.8C325.2 271 318.8 251.8 303 243.9L281.5 233.2L266.2 196.4C249 155.3 208.8 128.5 164.2 128.5C141.4 128.5 118.9 133.3 98.0999 142.5L90.0999 146C57.1999 160.6 31.9999 188.4 20.6999 222.5L18.0999 230.3C12.4999 247.1 21.5999 265.2 38.2999 270.8C54.9999 276.4 73.1999 267.3 78.7999 250.6L81.3999 242.8C87.0999 225.7 99.6999 211.9 116.1 204.6L124.1 201.1L124.2 201ZM94.1999 336.1L69.1999 398.5L9.8999 457.9C-2.6001 470.4 -2.6001 490.7 9.8999 503.2C22.3999 515.7 42.6999 515.7 55.1999 503.2L116.8 441.5C121.4 436.9 125 431.4 127.4 425.4L141.9 389.2L101.2 344.8C98.6999 342.1 96.3999 339.2 94.1999 336.2V336.1ZM441.9 455.1C454.4 467.6 474.7 467.6 487.2 455.1C499.7 442.6 499.7 422.3 487.2 409.8L461.8 384.5H480.5C568.9 384.5 640.5 312.9 640.5 224.5C640.5 136.1 568.9 64.5 480.5 64.5H352.5C334.8 64.5 320.5 78.8 320.5 96.5C320.5 114.2 334.8 128.5 352.5 128.5H480.5C533.5 128.5 576.5 171.5 576.5 224.5C576.5 277.5 533.5 320.5 480.5 320.5H461.8L487.2 295.1C499.7 282.6 499.7 262.3 487.2 249.8C474.7 237.3 454.4 237.3 441.9 249.8L361.9 329.8C349.4 342.3 349.4 362.6 361.9 375.1L441.9 455.1Z" fill="#47535F"/>
</g>
<defs>
<clipPath id="clip0_104_2222">
<rect width="640" height="512" fill="white" transform="translate(0.5 0.5)"/>
</clipPath>
</defs>
</svg>
