<svg width="641" height="513" viewBox="0 0 641 513" fill="none" xmlns="http://www.w3.org/2000/svg">
<g clip-path="url(#clip0_104_2176)">
<path d="M528.5 48.5C528.5 35.7696 523.443 23.5606 514.441 14.5589C505.44 5.55713 493.231 0.5 480.5 0.5C467.77 0.5 455.561 5.55713 446.559 14.5589C437.557 23.5606 432.5 35.7696 432.5 48.5C432.5 61.2304 437.557 73.4394 446.559 82.4411C455.561 91.4429 467.77 96.5 480.5 96.5C493.231 96.5 505.44 91.4429 514.441 82.4411C523.443 73.4394 528.5 61.2304 528.5 48.5ZM390.7 384.5H408.5V480.5C408.5 498.2 422.8 512.5 440.5 512.5C458.2 512.5 472.5 498.2 472.5 480.5V384.5H488.5V480.5C488.5 498.2 502.8 512.5 520.5 512.5C538.2 512.5 552.5 498.2 552.5 480.5V384.5H570.3C581.2 384.5 588.9 373.8 585.5 363.4L547.2 248.6L581.1 304.9C590.2 320 609.9 324.9 625 315.8C640.1 306.7 645 287 635.9 271.9L582.3 182.7C562.1 149 525.6 128.4 486.3 128.4H474.7C435.4 128.4 399 149 378.7 182.7L325.1 271.9C316 287 320.9 306.7 336 315.8C351.1 324.9 370.8 320 379.9 304.9L413.8 248.6L375.5 363.4C372 373.8 379.8 384.5 390.7 384.5ZM191.4 18.6C188.9 12.5 183.1 8.5 176.5 8.5C169.9 8.5 164.1 12.5 161.6 18.6L132.2 92.6L56.1004 69.4C49.8004 67.5 43.0004 69.6 38.9004 74.7C34.8004 79.8 34.3004 86.9 37.5004 92.6L77.0004 161.7L11.4004 206.9C6.00038 210.6 3.40038 217.2 4.90038 223.6C6.40038 230 11.6004 234.8 18.0004 235.8L96.7004 248L91.1004 327.5C90.6004 334 94.2004 340.2 100.1 343C106 345.8 113 344.8 117.9 340.4L176.5 286.6L235.1 340.5C239.9 344.9 247 346 252.9 343.1C258.8 340.2 262.4 334.1 261.9 327.6L256.3 248.2L306.8 240.4L331.2 199.9L276 161.9L315.5 92.7C318.8 87 318.2 79.9 314.1 74.8C310 69.7 303.2 67.6 296.9 69.5L220.8 92.6L191.4 18.6Z" fill="#47535F"/>
</g>
<defs>
<clipPath id="clip0_104_2176">
<rect width="640" height="512" fill="white" transform="translate(0.5 0.5)"/>
</clipPath>
</defs>
</svg>
