<svg width="513" height="513" viewBox="0 0 513 513" fill="none" xmlns="http://www.w3.org/2000/svg">
<g clip-path="url(#clip0_104_2210)">
<path d="M381.2 48.5C381.2 42.1965 382.442 35.9548 384.854 30.1312C387.266 24.3076 390.802 19.0161 395.259 14.5589C399.716 10.1017 405.008 6.56601 410.831 4.15378C416.655 1.74156 422.897 0.5 429.2 0.5C435.504 0.5 441.745 1.74156 447.569 4.15378C453.393 6.56601 458.684 10.1017 463.141 14.5589C467.598 19.0161 471.134 24.3076 473.546 30.1312C475.959 35.9548 477.2 42.1965 477.2 48.5C477.2 54.8035 475.959 61.0452 473.546 66.8688C471.134 72.6924 467.598 77.9839 463.141 82.4411C458.684 86.8983 453.393 90.434 447.569 92.8462C441.745 95.2584 435.504 96.5 429.2 96.5C422.897 96.5 416.655 95.2584 410.831 92.8462C405.008 90.434 399.716 86.8983 395.259 82.4411C390.802 77.9839 387.266 72.6924 384.854 66.8688C382.442 61.0452 381.2 54.8035 381.2 48.5ZM3.20015 269.4C9.30015 257.6 23.8002 253.1 35.6002 259.2L233.2 361.8L279.4 292.6L204.3 217.5C189.7 202.9 183.9 183.6 185.9 165.4L294.7 217.4L334 256.7C350.2 272.9 352.7 298.2 340 317.3L290.3 391.5L419 458.3C432.6 465.4 448.8 465.5 462.6 458.6L477.8 451C489.7 445.1 504.1 449.9 510 461.7C515.9 473.5 511.1 488 499.3 493.9L484.1 501.5C456.6 515.2 424.2 515 396.9 500.8L13.4002 301.8C1.70015 295.7 -2.89985 281.2 3.20015 269.4ZM119.4 66.1L137.5 74.7L146.2 57.3C150.2 49.4 159.8 46.2 167.7 50.1C175.6 54 178.8 63.7 174.9 71.6L166.4 88.5L221.1 114.7C222.6 114 224.2 113.3 225.8 112.6L309.2 79.2C343.4 65.5 382 83.4 393.7 118.4L410.8 169.6L462.9 195.7C478.7 203.6 485.1 222.8 477.2 238.6C469.3 254.4 450.1 260.8 434.3 252.9L376.2 223.9C364.8 218.2 356.2 208.2 352.1 196.1L346.3 178.8L319 190.9L312.2 193.9L305.5 190.7L152 117.2L142.8 135.6C138.8 143.5 129.2 146.7 121.3 142.8C113.4 138.9 110.2 129.2 114.1 121.3L123.1 103.3L105.5 94.9C97.5002 91.1 94.2002 81.5 98.0002 73.6C101.8 65.7 111.4 62.3 119.3 66.1H119.4Z" fill="#47535F"/>
</g>
<defs>
<clipPath id="clip0_104_2210">
<rect width="512" height="512" fill="white" transform="translate(0.5 0.5)"/>
</clipPath>
</defs>
</svg>
