<svg width="641" height="513" viewBox="0 0 641 513" fill="none" xmlns="http://www.w3.org/2000/svg">
<g clip-path="url(#clip0_104_2156)">
<path d="M192.5 96.5C205.23 96.5 217.439 91.4429 226.441 82.4411C235.443 73.4394 240.5 61.2304 240.5 48.5C240.5 35.7696 235.443 23.5606 226.441 14.5589C217.439 5.55713 205.23 0.5 192.5 0.5C179.77 0.5 167.561 5.55713 158.559 14.5589C149.557 23.5606 144.5 35.7696 144.5 48.5C144.5 61.2304 149.557 73.4394 158.559 82.4411C167.561 91.4429 179.77 96.5 192.5 96.5ZM184.5 480.5V352.5H200.5V480.5C200.5 498.2 214.8 512.5 232.5 512.5C250.2 512.5 264.5 498.2 264.5 480.5V192.5H320.5H384.5H400.5C418.2 192.5 432.5 178.2 432.5 160.5C432.5 142.8 418.2 128.5 400.5 128.5H384.5V64.5H576.5V256.5H384.5V224.5H320.5V272.5C320.5 299 342 320.5 368.5 320.5H592.5C619 320.5 640.5 299 640.5 272.5V48.5C640.5 22 619 0.5 592.5 0.5H368.5C342 0.5 320.5 22 320.5 48.5V128.5H243.6H177.6C143.9 128.5 112.7 146.2 95.3 175.1L37 272.1C27.9 287.2 32.8 306.9 47.9 316C63 325.1 82.7 320.2 91.8 305.1L120.5 257.4V480.5C120.5 498.2 134.8 512.5 152.5 512.5C170.2 512.5 184.5 498.2 184.5 480.5Z" fill="#47535F"/>
</g>
<defs>
<clipPath id="clip0_104_2156">
<rect width="640" height="512" fill="white" transform="translate(0.5 0.5)"/>
</clipPath>
</defs>
</svg>
