<svg width="385" height="513" viewBox="0 0 385 513" fill="none" xmlns="http://www.w3.org/2000/svg">
<g clip-path="url(#clip0_104_2198)">
<path d="M192.5 0.5C205.23 0.5 217.439 5.55713 226.441 14.5589C235.442 23.5606 240.5 35.7696 240.5 48.5C240.5 61.2304 235.442 73.4394 226.441 82.4411C217.439 91.4429 205.23 96.5 192.5 96.5C179.769 96.5 167.56 91.4429 158.558 82.4411C149.557 73.4394 144.5 61.2304 144.5 48.5C144.5 35.7696 149.557 23.5606 158.558 14.5589C167.56 5.55713 179.769 0.5 192.5 0.5ZM120.5 383.5C106.7 379.9 96.4996 367.4 96.4996 352.5V297.4L91.8996 305C82.7996 320.1 63.0996 325 47.9996 315.9C32.8996 306.8 27.9996 287.1 37.0996 272L95.3996 175C110.4 150.1 135.7 133.5 164.1 129.4C168.2 128.8 172.3 128.4 176.6 128.4H177.7H190.2H192.5C193.9 128.4 195.3 128.5 196.6 128.7C232.3 131.6 262 158 268.7 193.7L274.8 226.2C319.1 234.8 352.5 273.7 352.5 320.5V352.5C352.5 370.2 338.2 384.5 320.5 384.5H304.5H264.5V480.5C264.5 498.2 250.2 512.5 232.5 512.5C214.8 512.5 200.5 498.2 200.5 480.5V384.5H192.5H184.5V480.5C184.5 498.2 170.2 512.5 152.5 512.5C134.8 512.5 120.5 498.2 120.5 480.5V383.5Z" fill="#47535F"/>
</g>
<defs>
<clipPath id="clip0_104_2198">
<rect width="384" height="512" fill="white" transform="translate(0.5 0.5)"/>
</clipPath>
</defs>
</svg>
