<svg width="513" height="513" viewBox="0 0 513 513" fill="none" xmlns="http://www.w3.org/2000/svg">
<g clip-path="url(#clip0_104_2214)">
<path d="M210.199 3.9C225.999 -4 245.199 2.4 253.099 18.2L278.099 68.2L320.499 76.7C339.999 80.6 358.299 89 373.999 101.2L500.099 199.3C514.099 210.2 516.599 230.3 505.699 244.2C494.799 258.1 474.699 260.7 460.799 249.8L388.699 193.7L317.199 225.5L350.299 253.1C373.499 272.4 383.799 303.1 376.999 332.5L359.599 407.7C357.399 417.1 351.399 424.5 343.499 428.7L429.999 461.8C434.599 463.6 439.399 464.4 444.299 464.4H472.499C485.799 464.4 496.499 475.1 496.499 488.4C496.499 501.7 485.799 512.4 472.499 512.4H444.299C433.499 512.4 422.899 510.4 412.799 506.6L60.5992 371.8C49.0992 367.4 38.5992 360.6 29.7992 351.8L7.49922 329.5C-1.90078 320.1 -1.90078 304.9 7.49922 295.6C16.8992 286.3 32.0992 286.2 41.3992 295.6L63.7992 318C67.7992 322 72.4992 325.1 77.7992 327.1L100.199 335.7C99.3992 334.1 98.6992 332.5 98.0992 330.8C92.4992 314 101.599 295.9 118.299 290.3L192.499 265.4V212.2C192.499 188 206.199 165.8 227.899 155L273.099 132.4L265.599 130.9C246.199 127 229.699 114.4 220.899 96.8L195.899 46.8C187.999 31 194.399 11.8 210.199 3.9ZM139.499 350.6L298.499 411.5C296.399 405.9 295.899 399.6 297.399 393.3L314.799 318.1C316.199 312.2 314.099 306.1 309.499 302.2L256.699 258.2V277C256.699 297.7 243.499 316 223.899 322.5L139.499 350.6ZM432.499 0.5C445.23 0.5 457.439 5.55713 466.44 14.5589C475.442 23.5606 480.499 35.7696 480.499 48.5C480.499 61.2304 475.442 73.4394 466.44 82.4411C457.439 91.4429 445.23 96.5 432.499 96.5C419.769 96.5 407.56 91.4429 398.558 82.4411C389.556 73.4394 384.499 61.2304 384.499 48.5C384.499 35.7696 389.556 23.5606 398.558 14.5589C407.56 5.55713 419.769 0.5 432.499 0.5Z" fill="#47535F"/>
</g>
<defs>
<clipPath id="clip0_104_2214">
<rect width="512" height="512" fill="white" transform="translate(0.5 0.5)"/>
</clipPath>
</defs>
</svg>
