<svg width="641" height="513" viewBox="0 0 641 513" fill="none" xmlns="http://www.w3.org/2000/svg">
<g clip-path="url(#clip0_104_2182)">
<path d="M256.5 32.5C256.5 14.8 242.2 0.5 224.5 0.5C206.8 0.5 192.5 14.8 192.5 32.5V42.3C192.5 81.3 168.8 116.3 132.6 130.7C72.1 155 32.5 213.5 32.5 278.7V352.5C32.5 370.2 46.8 384.5 64.5 384.5C82.2 384.5 96.5 370.2 96.5 352.5V278.7C96.5 268.7 98.1 258.9 101 249.7L261.6 497.9C271.2 512.7 291 517 305.9 507.4C320.8 497.8 325 478 315.4 463.1L223.1 320.5H224.5H304.5L342.9 371.7C353.5 385.8 373.6 388.7 387.7 378.1C401.8 367.5 404.7 347.4 394.1 333.3L350.9 275.7C341.8 263.6 327.6 256.5 312.5 256.5H241L184.2 176.3L184 176C228.7 147 256.5 97 256.5 42.4V32.6V32.5ZM96.5 80.5C96.5 67.7696 91.4429 55.5606 82.4411 46.5589C73.4394 37.5571 61.2304 32.5 48.5 32.5C35.7696 32.5 23.5606 37.5571 14.5589 46.5589C5.55713 55.5606 0.5 67.7696 0.5 80.5C0.5 93.2304 5.55713 105.439 14.5589 114.441C23.5606 123.443 35.7696 128.5 48.5 128.5C61.2304 128.5 73.4394 123.443 82.4411 114.441C91.4429 105.439 96.5 93.2304 96.5 80.5ZM464.5 286.6L523.1 340.5C527.9 344.9 535 346 540.9 343.1C546.8 340.2 550.4 334.1 549.9 327.6L544.3 248.2L623 236C629.5 235 634.7 230.1 636.1 223.8C637.5 217.5 635 210.8 629.6 207.1L564 162L603.5 92.7C606.8 87 606.2 79.9 602.1 74.8C598 69.7 591.2 67.6 584.9 69.5L508.8 92.6L479.4 18.6C476.9 12.5 471.1 8.5 464.5 8.5C457.9 8.5 452.1 12.5 449.6 18.6L420.2 92.6L344.1 69.4C337.8 67.5 331 69.6 326.9 74.7C322.8 79.8 322.3 86.9 325.5 92.6L365 161.7L299.4 206.8C294 210.5 291.4 217.1 292.9 223.5C293 223.8 293 224.1 293.1 224.3H312.5C332.6 224.3 351.7 231.8 366.3 245.1L384.7 248L383.5 265.8L419.7 314.1C421.8 316.9 423.6 319.8 425.2 322.7L464.5 286.6Z" fill="#47535F"/>
</g>
<defs>
<clipPath id="clip0_104_2182">
<rect width="640" height="512" fill="white" transform="translate(0.5 0.5)"/>
</clipPath>
</defs>
</svg>
