<svg width="513" height="513" viewBox="0 0 513 513" fill="none" xmlns="http://www.w3.org/2000/svg">
<g clip-path="url(#clip0_104_2230)">
<path d="M176.5 96.5C189.23 96.5 201.439 91.4429 210.441 82.4411C219.443 73.4394 224.5 61.2304 224.5 48.5C224.5 35.7696 219.443 23.5606 210.441 14.5589C201.439 5.55713 189.23 0.5 176.5 0.5C163.77 0.5 151.561 5.55713 142.559 14.5589C133.557 23.5606 128.5 35.7696 128.5 48.5C128.5 61.2304 133.557 73.4394 142.559 82.4411C151.561 91.4429 163.77 96.5 176.5 96.5ZM168.1 128.5C131.7 128.5 98.5 149 82.2 181.6L35.9 274.2C28 290 34.4 309.2 50.2 317.1C66 325 85.2 318.6 93.1 302.8L128.5 232.1V275.3C128.5 292.3 135.2 308.6 147.2 320.6L224.5 397.8V480.5C224.5 498.2 238.8 512.5 256.5 512.5C274.2 512.5 288.5 498.2 288.5 480.5V391.1C288.5 378.4 283.4 366.2 274.4 357.2L224.5 307.2V213.8L294.9 307.7C305.5 321.8 325.6 324.7 339.7 314.1C353.8 303.5 356.7 283.4 346.1 269.3L269.3 166.9C251.2 142.7 222.7 128.5 192.5 128.5H168.1ZM128.8 347.3L97.5 472.7C93.2 489.8 103.6 507.2 120.8 511.5C138 515.8 155.3 505.4 159.6 488.2L181.6 400L128.8 347.2V347.3ZM451.3 505.6C456.3 512.9 466.3 514.7 473.6 509.6C480.9 504.5 482.7 494.6 477.6 487.3L359.4 316.6C356.6 320.4 353.3 323.9 349.3 326.9C344.3 330.7 338.8 333.3 333.1 334.8L451.3 505.6Z" fill="#47535F"/>
</g>
<defs>
<clipPath id="clip0_104_2230">
<rect width="512" height="512" fill="white" transform="translate(0.5 0.5)"/>
</clipPath>
</defs>
</svg>
