<svg width="577" height="513" viewBox="0 0 577 513" fill="none" xmlns="http://www.w3.org/2000/svg">
<g clip-path="url(#clip0_104_2172)">
<path d="M288.5 176.5C311.839 176.5 334.222 167.229 350.725 150.725C367.229 134.222 376.5 111.839 376.5 88.5C376.5 65.1609 367.229 42.7778 350.725 26.2746C334.222 9.7714 311.839 0.5 288.5 0.5C265.161 0.5 242.778 9.7714 226.275 26.2746C209.771 42.7778 200.5 65.1609 200.5 88.5C200.5 111.839 209.771 134.222 226.275 150.725C242.778 167.229 265.161 176.5 288.5 176.5ZM79.2 373.4C94.2 360.9 129.2 339 176.5 323.3V432.5H400.5V323.2C447.8 339 482.8 360.9 497.8 373.3C518.2 390.3 548.4 387.5 565.4 367.2C582.4 346.9 579.6 316.6 559.3 299.6C547.3 289.6 529.2 277.1 506.1 264.6C497.7 278.9 482.2 288.5 464.5 288.5C438 288.5 416.5 267 416.5 240.5C416.5 236.2 417.1 232.1 418.1 228.1C379.6 216.4 335.8 208.5 288.5 208.5C228.3 208.5 173.6 221.4 128.5 238.4C128.5 239.1 128.5 239.8 128.5 240.5C128.5 267 107 288.5 80.5 288.5C68.7 288.5 57.8 284.2 49.5 277.1C36.4 285.2 25.8 293 17.8 299.6C-2.6 316.6 -5.3 346.8 11.7 367.2C28.7 387.6 58.9 390.3 79.3 373.3L79.2 373.4ZM24.5 464.5C11.2 464.5 0.5 475.2 0.5 488.5C0.5 501.8 11.2 512.5 24.5 512.5H552.5C565.8 512.5 576.5 501.8 576.5 488.5C576.5 475.2 565.8 464.5 552.5 464.5H24.5ZM224.5 280.5C224.5 274.135 227.029 268.03 231.529 263.529C236.03 259.029 242.135 256.5 248.5 256.5C254.865 256.5 260.97 259.029 265.471 263.529C269.971 268.03 272.5 274.135 272.5 280.5C272.5 286.865 269.971 292.97 265.471 297.471C260.97 301.971 254.865 304.5 248.5 304.5C242.135 304.5 236.03 301.971 231.529 297.471C227.029 292.97 224.5 286.865 224.5 280.5ZM328.5 336.5C334.865 336.5 340.97 339.029 345.471 343.529C349.971 348.03 352.5 354.135 352.5 360.5C352.5 366.865 349.971 372.97 345.471 377.471C340.97 381.971 334.865 384.5 328.5 384.5C322.135 384.5 316.03 381.971 311.529 377.471C307.029 372.97 304.5 366.865 304.5 360.5C304.5 354.135 307.029 348.03 311.529 343.529C316.03 339.029 322.135 336.5 328.5 336.5ZM96.5 240.5C96.5 236.257 94.8143 232.187 91.8137 229.186C88.8131 226.186 84.7435 224.5 80.5 224.5C76.2565 224.5 72.1869 226.186 69.1863 229.186C66.1857 232.187 64.5 236.257 64.5 240.5C64.5 244.743 66.1857 248.813 69.1863 251.814C72.1869 254.814 76.2565 256.5 80.5 256.5C84.7435 256.5 88.8131 254.814 91.8137 251.814C94.8143 248.813 96.5 244.743 96.5 240.5ZM464.5 256.5C468.743 256.5 472.813 254.814 475.814 251.814C478.814 248.813 480.5 244.743 480.5 240.5C480.5 236.257 478.814 232.187 475.814 229.186C472.813 226.186 468.743 224.5 464.5 224.5C460.257 224.5 456.187 226.186 453.186 229.186C450.186 232.187 448.5 236.257 448.5 240.5C448.5 244.743 450.186 248.813 453.186 251.814C456.187 254.814 460.257 256.5 464.5 256.5Z" fill="#47535F"/>
</g>
<defs>
<clipPath id="clip0_104_2172">
<rect width="576" height="512" fill="white" transform="translate(0.5 0.5)"/>
</clipPath>
</defs>
</svg>
