<svg width="577" height="513" viewBox="0 0 577 513" fill="none" xmlns="http://www.w3.org/2000/svg">
<g clip-path="url(#clip0_104_2190)">
<path d="M247.4 14.6C234.5 15.7 224.5 26.5 224.5 39.5C224.5 53.3 235.7 64.5 249.5 64.5H400.5C409.3 64.5 416.5 57.3 416.5 48.5V17.9C416.5 8.49996 408.5 1.19996 399.2 1.89996L247.4 14.6ZM240.5 112.5C240.5 156.7 276.3 192.5 320.5 192.5C364.7 192.5 400.5 156.7 400.5 112.5C400.5 107 399.9 101.7 398.9 96.5H242.1C241.1 101.7 240.5 107 240.5 112.5ZM72.5 224.5C50.4 224.5 32.5 242.4 32.5 264.5C32.5 286.6 50.4 304.5 72.5 304.5H224.5V393.9L387.3 231C374 226.7 360 224.5 345.7 224.5H240.5H72.5ZM418.2 245.4L247.1 416.5H416.5V370.2L470.1 460.8C481.3 479.8 505.9 486.1 524.9 474.9C543.9 463.7 550.2 439.1 539 420.1L462.8 291.3C451.6 272.4 436.2 256.8 418.2 245.4ZM224.5 448.5V480.5C224.5 498.2 238.8 512.5 256.5 512.5H384.5C402.2 512.5 416.5 498.2 416.5 480.5V448.5H224.5Z" fill="#47535F"/>
</g>
<defs>
<clipPath id="clip0_104_2190">
<rect width="576" height="512" fill="white" transform="translate(0.5 0.5)"/>
</clipPath>
</defs>
</svg>
