<svg width="513" height="513" viewBox="0 0 513 513" fill="none" xmlns="http://www.w3.org/2000/svg">
<g clip-path="url(#clip0_104_2206)">
<path d="M272.4 4.7C262.6 -0.9 250.5 -0.9 240.6 4.7L16.6 132.7C6.7 138.4 0.5 149 0.5 160.5V480.5C0.5 498.2 14.8 512.5 32.5 512.5C50.2 512.5 64.5 498.2 64.5 480.5V179.1L256.5 69.4L448.5 179.1V480.5C448.5 498.2 462.8 512.5 480.5 512.5C498.2 512.5 512.5 498.2 512.5 480.5V160.5C512.5 149 506.3 138.4 496.4 132.7L272.4 4.7ZM256.5 208.5C267.109 208.5 277.283 204.286 284.784 196.784C292.286 189.283 296.5 179.109 296.5 168.5C296.5 157.891 292.286 147.717 284.784 140.216C277.283 132.714 267.109 128.5 256.5 128.5C245.891 128.5 235.717 132.714 228.216 140.216C220.714 147.717 216.5 157.891 216.5 168.5C216.5 179.109 220.714 189.283 228.216 196.784C235.717 204.286 245.891 208.5 256.5 208.5ZM248.5 488.5V400.5H264.5V488.5C264.5 501.8 275.2 512.5 288.5 512.5C301.8 512.5 312.5 501.8 312.5 488.5V314L339.4 363.9C345.7 375.6 360.2 379.9 371.9 373.7C383.6 367.5 387.9 352.9 381.7 341.2L343.8 270.9C328.5 242.4 298.7 224.6 266.3 224.6H246.7C214.3 224.6 184.6 242.4 169.2 270.9L131.3 341.2C125 352.9 129.4 367.4 141.1 373.7C152.8 380 167.3 375.6 173.6 363.9L200.5 314V488.5C200.5 501.8 211.2 512.5 224.5 512.5C237.8 512.5 248.5 501.8 248.5 488.5Z" fill="#47535F"/>
</g>
<defs>
<clipPath id="clip0_104_2206">
<rect width="512" height="512" fill="white" transform="translate(0.5 0.5)"/>
</clipPath>
</defs>
</svg>
