<svg width="577" height="513" viewBox="0 0 577 513" fill="none" xmlns="http://www.w3.org/2000/svg">
<g clip-path="url(#clip0_104_2148)">
<path d="M256.5 32.5C256.5 14.8 242.2 0.5 224.5 0.5C206.8 0.5 192.5 14.8 192.5 32.5V192.5H256.5V32.5ZM576.5 32.5C576.5 14.8 562.2 0.5 544.5 0.5C526.8 0.5 512.5 14.8 512.5 32.5V480.5C512.5 498.2 526.8 512.5 544.5 512.5C562.2 512.5 576.5 498.2 576.5 480.5V32.5ZM224.5 512.5C242.2 512.5 256.5 498.2 256.5 480.5V320.5H192.5V480.5C192.5 498.2 206.8 512.5 224.5 512.5ZM320.5 0.5C311.2 0.5 302.4 4.5 296.3 11.5C290.2 18.5 287.5 27.8 288.8 37L320 255.6L289.1 410.2C285.6 427.5 296.9 444.4 314.2 447.9C331.5 451.4 348.4 440.1 351.9 422.8L352.6 419.2C353.9 435.6 367.7 448.6 384.5 448.6C402.2 448.6 416.5 434.3 416.5 416.6C416.5 434.3 430.8 448.6 448.5 448.6C466.2 448.6 480.5 434.3 480.5 416.6V32.5C480.5 14.8 466.2 0.5 448.5 0.5H320.5ZM112.5 80.5C112.5 74.1965 111.258 67.9548 108.846 62.1312C106.434 56.3076 102.898 51.0161 98.4411 46.5589C93.9839 42.1017 88.6924 38.566 82.8688 36.1538C77.0452 33.7416 70.8035 32.5 64.5 32.5C58.1965 32.5 51.9548 33.7416 46.1312 36.1538C40.3076 38.566 35.0161 42.1017 30.5589 46.5589C26.1017 51.0161 22.566 56.3076 20.1538 62.1312C17.7416 67.9548 16.5 74.1965 16.5 80.5C16.5 86.8035 17.7416 93.0452 20.1538 98.8688C22.566 104.692 26.1017 109.984 30.5589 114.441C35.0161 118.898 40.3076 122.434 46.1312 124.846C51.9548 127.258 58.1965 128.5 64.5 128.5C70.8035 128.5 77.0452 127.258 82.8688 124.846C88.6924 122.434 93.9839 118.898 98.4411 114.441C102.898 109.984 106.434 104.692 108.846 98.8688C111.258 93.0452 112.5 86.8035 112.5 80.5ZM112.5 341.8V269.8L117.2 274.5C126.2 283.5 138.4 288.6 151.1 288.6H224.5C242.2 288.6 256.5 274.3 256.5 256.6C256.5 238.9 242.2 224.6 224.5 224.6H157.8L116.2 183C101.9 168.7 82.4 160.6 62.2 160.6C28.1 160.5 0.5 188.1 0.5 222.1V277.8V278.7V480.5C0.5 498.2 14.8 512.5 32.5 512.5C50.2 512.5 64.5 498.2 64.5 480.5V384.5L96.5 427.2V480.5C96.5 498.2 110.8 512.5 128.5 512.5C146.2 512.5 160.5 498.2 160.5 480.5V421.8C160.5 411.4 157.1 401.3 150.9 393L112.5 341.8Z" fill="#47535F"/>
</g>
<defs>
<clipPath id="clip0_104_2148">
<rect width="576" height="512" fill="white" transform="translate(0.5 0.5)"/>
</clipPath>
</defs>
</svg>
