<svg width="513" height="513" viewBox="0 0 513 513" fill="none" xmlns="http://www.w3.org/2000/svg">
<g clip-path="url(#clip0_104_2180)">
<path d="M288.5 0.5C306.2 0.5 320.5 14.8 320.5 32.5V42.3C320.5 96.9 292.6 146.9 248 175.9L248.2 176.2L305 256.5H392.5C407.6 256.5 421.8 263.6 430.9 275.7L474.1 333.3C484.7 347.4 481.8 367.5 467.7 378.1C453.6 388.7 433.5 385.8 422.9 371.7L384.5 320.5H288.5H287.1L379.4 463.1C389 477.9 384.8 497.7 369.9 507.4C355 517.1 335.3 512.8 325.6 497.9L165 249.7C162.1 258.9 160.5 268.7 160.5 278.7V352.5C160.5 370.2 146.2 384.5 128.5 384.5C110.8 384.5 96.5 370.2 96.5 352.5V278.7C96.5 213.6 136.1 155 196.6 130.8C232.8 116.3 256.5 81.3 256.5 42.3V32.5C256.5 14.8 270.8 0.5 288.5 0.5ZM112.5 32.5C125.23 32.5 137.439 37.5571 146.441 46.5589C155.443 55.5606 160.5 67.7696 160.5 80.5C160.5 93.2304 155.443 105.439 146.441 114.441C137.439 123.443 125.23 128.5 112.5 128.5C99.7696 128.5 87.5606 123.443 78.5589 114.441C69.5571 105.439 64.5 93.2304 64.5 80.5C64.5 67.7696 69.5571 55.5606 78.5589 46.5589C87.5606 37.5571 99.7696 32.5 112.5 32.5Z" fill="#47535F"/>
</g>
<defs>
<clipPath id="clip0_104_2180">
<rect width="512" height="512" fill="white" transform="translate(0.5 0.5)"/>
</clipPath>
</defs>
</svg>
