<svg width="577" height="513" viewBox="0 0 577 513" fill="none" xmlns="http://www.w3.org/2000/svg">
<g clip-path="url(#clip0_104_2216)">
<path d="M310.001 178.9L448.401 297.6C446.801 298.5 445.201 299.6 443.601 300.6C425.601 313 403.501 320.9 384.401 320.9C364.801 320.9 343.601 313.2 325.201 300.6C303.101 285.1 273.601 285.1 251.501 300.6C234.401 312.4 213.501 320.9 192.301 320.9C182.201 320.9 171.201 318.7 160.401 314.7C163.601 193.7 262.701 96.5 384.501 96.5H448.501C466.201 96.5 480.501 110.8 480.501 128.5C480.501 146.2 466.201 160.5 448.501 160.5H384.501C357.601 160.5 332.201 167.1 310.001 178.9ZM160.501 160.5C160.501 177.474 153.758 193.753 141.756 205.755C129.753 217.757 113.475 224.5 96.5008 224.5C79.5269 224.5 63.2482 217.757 51.2459 205.755C39.2436 193.753 32.5008 177.474 32.5008 160.5C32.5008 143.526 39.2436 127.247 51.2459 115.245C63.2482 103.243 79.5269 96.5 96.5008 96.5C113.475 96.5 129.753 103.243 141.756 115.245C153.758 127.247 160.501 143.526 160.501 160.5ZM307.001 326.4C329.501 341.9 357.001 352.5 384.501 352.5C411.401 352.5 439.901 341.7 461.901 326.4C473.801 317.9 490.001 318.6 501.101 328.1C515.501 340 533.601 349.1 551.701 353.3C568.901 357.3 579.601 374.5 575.601 391.7C571.601 408.9 554.401 419.6 537.201 415.6C512.701 409.9 492.301 399.1 479.001 390.6C450.001 406.2 417.501 416.5 384.501 416.5C352.601 416.5 323.901 406.6 304.101 397.6C298.301 394.9 293.001 392.3 288.501 389.9C284.001 392.3 278.801 395 272.901 397.6C253.101 406.6 224.401 416.5 192.501 416.5C159.501 416.5 127.001 406.2 98.0008 390.7C84.6008 399.1 64.3008 410 39.8008 415.7C22.6007 419.7 5.40075 409 1.40075 391.8C-2.59925 374.6 8.10075 357.4 25.3008 353.4C43.4008 349.2 61.5008 340.1 75.9008 328.2C87.0008 318.8 103.201 318.1 115.101 326.5C137.201 341.7 165.601 352.5 192.501 352.5C220.001 352.5 247.501 341.9 270.001 326.4C281.101 318.5 295.901 318.5 307.001 326.4Z" fill="#47535F"/>
</g>
<defs>
<clipPath id="clip0_104_2216">
<rect width="576" height="512" fill="white" transform="translate(0.5 0.5)"/>
</clipPath>
</defs>
</svg>
