<svg width="641" height="513" viewBox="0 0 641 513" fill="none" xmlns="http://www.w3.org/2000/svg">
<g clip-path="url(#clip0_104_2142)">
<path d="M192.5 96.5C205.23 96.5 217.439 91.4429 226.441 82.4411C235.443 73.4394 240.5 61.2304 240.5 48.5C240.5 35.7696 235.443 23.5606 226.441 14.5589C217.439 5.55713 205.23 0.5 192.5 0.5C179.77 0.5 167.561 5.55713 158.559 14.5589C149.557 23.5606 144.5 35.7696 144.5 48.5C144.5 61.2304 149.557 73.4394 158.559 82.4411C167.561 91.4429 179.77 96.5 192.5 96.5ZM184.5 448.5V352.5H200.5V448.5H184.5ZM120.5 448.5H32.5C14.8 448.5 0.5 462.8 0.5 480.5C0.5 498.2 14.8 512.5 32.5 512.5H152.5H232.5H608.5C626.2 512.5 640.5 498.2 640.5 480.5C640.5 462.8 626.2 448.5 608.5 448.5H264.5V257.4L293.1 304.9C302.2 320 321.9 324.9 337 315.8C352.1 306.7 357 287 347.9 271.9L289.6 174.9C272.2 146 241 128.3 207.3 128.3H177.6C143.9 128.3 112.7 146 95.3 174.9L37 271.9C27.9 287 32.8 306.7 47.9 315.8C63 324.9 82.7 320 91.8 304.9L120.5 257.4V448.5ZM464.5 64.5V307.2L439.1 281.8C426.6 269.3 406.3 269.3 393.8 281.8C381.3 294.3 381.3 314.6 393.8 327.1L473.8 407.1C486.3 419.6 506.6 419.6 519.1 407.1L599.1 327.1C611.6 314.6 611.6 294.3 599.1 281.8C586.6 269.3 566.3 269.3 553.8 281.8L528.5 307.2V64.5C528.5 46.8 514.2 32.5 496.5 32.5C478.8 32.5 464.5 46.8 464.5 64.5Z" fill="#47535F"/>
</g>
<defs>
<clipPath id="clip0_104_2142">
<rect width="640" height="512" fill="white" transform="translate(0.5 0.5)"/>
</clipPath>
</defs>
</svg>
