<svg width="449" height="513" viewBox="0 0 449 513" fill="none" xmlns="http://www.w3.org/2000/svg">
<g clip-path="url(#clip0_104_2154)">
<path d="M272.5 48.5C272.5 42.1965 271.258 35.9548 268.846 30.1312C266.434 24.3076 262.898 19.0161 258.441 14.5589C253.984 10.1017 248.692 6.56601 242.869 4.15378C237.045 1.74156 230.803 0.5 224.5 0.5C218.197 0.5 211.955 1.74156 206.131 4.15378C200.308 6.56601 195.016 10.1017 190.559 14.5589C186.102 19.0161 182.566 24.3076 180.154 30.1312C177.742 35.9548 176.5 42.1965 176.5 48.5C176.5 54.8035 177.742 61.0452 180.154 66.8688C182.566 72.6924 186.102 77.9839 190.559 82.4411C195.016 86.8983 200.308 90.434 206.131 92.8462C211.955 95.2584 218.197 96.5 224.5 96.5C230.803 96.5 237.045 95.2584 242.869 92.8462C248.692 90.434 253.984 86.8983 258.441 82.4411C262.898 77.9839 266.434 72.6924 268.846 66.8688C271.258 61.0452 272.5 54.8035 272.5 48.5ZM264.5 235.8L311.9 292.9C323.2 306.5 343.4 308.4 357 297.1C370.6 285.8 372.5 265.6 361.2 252L287.5 163.1C269.3 141.1 242.2 128.4 213.6 128.4H177.6C143.9 128.4 112.7 146.1 95.3 175L37 272C27.9 287.1 32.8 306.8 47.9 315.9C63 325 82.7 320.1 91.8 305L120.5 257.4V480.5C120.5 498.2 134.8 512.5 152.5 512.5C170.2 512.5 184.5 498.2 184.5 480.5V352.5H200.5V480.5C200.5 498.2 214.8 512.5 232.5 512.5C250.2 512.5 264.5 498.2 264.5 480.5V235.8ZM352.5 376.5C352.5 372.1 356.1 368.5 360.5 368.5C364.9 368.5 368.5 372.1 368.5 376.5V488.5C368.5 501.8 379.2 512.5 392.5 512.5C405.8 512.5 416.5 501.8 416.5 488.5V376.5C416.5 345.6 391.4 320.5 360.5 320.5C329.6 320.5 304.5 345.6 304.5 376.5V384.5C304.5 397.8 315.2 408.5 328.5 408.5C341.8 408.5 352.5 397.8 352.5 384.5V376.5Z" fill="#47535F"/>
</g>
<defs>
<clipPath id="clip0_104_2154">
<rect width="448" height="512" fill="white" transform="translate(0.5 0.5)"/>
</clipPath>
</defs>
</svg>
