<svg width="321" height="513" viewBox="0 0 321 513" fill="none" xmlns="http://www.w3.org/2000/svg">
<g clip-path="url(#clip0_104_2174)">
<path d="M160.5 0.5C173.23 0.5 185.439 5.55713 194.441 14.5589C203.442 23.5606 208.5 35.7696 208.5 48.5C208.5 61.2304 203.442 73.4394 194.441 82.4411C185.439 91.4429 173.23 96.5 160.5 96.5C147.769 96.5 135.56 91.4429 126.558 82.4411C117.557 73.4394 112.5 61.2304 112.5 48.5C112.5 35.7696 117.557 23.5606 126.558 14.5589C135.56 5.55713 147.769 0.5 160.5 0.5ZM88.4996 384.5H70.6996C59.7996 384.5 52.0996 373.8 55.4996 363.4L93.7996 248.6L59.8996 305C50.7996 320.1 31.0996 325 15.9996 315.9C0.899614 306.8 -4.00039 287.1 5.09962 272L58.6996 182.8C78.9996 149.1 115.4 128.5 154.7 128.5H166.3C205.6 128.5 242 149.1 262.3 182.8L315.9 272C325 287.1 320.1 306.8 305 315.9C289.9 325 270.2 320.1 261.1 305L227.2 248.7L265.5 363.4C269 373.8 261.2 384.5 250.3 384.5H232.5V480.5C232.5 498.2 218.2 512.5 200.5 512.5C182.8 512.5 168.5 498.2 168.5 480.5V384.5H152.5V480.5C152.5 498.2 138.2 512.5 120.5 512.5C102.8 512.5 88.4996 498.2 88.4996 480.5V384.5Z" fill="#47535F"/>
</g>
<defs>
<clipPath id="clip0_104_2174">
<rect width="320" height="512" fill="white" transform="translate(0.5 0.5)"/>
</clipPath>
</defs>
</svg>
