<svg width="449" height="513" viewBox="0 0 449 513" fill="none" xmlns="http://www.w3.org/2000/svg">
<g clip-path="url(#clip0_104_2196)">
<path d="M352.5 64.5C352.5 47.5261 345.757 31.2475 333.755 19.2452C321.752 7.24284 305.474 0.5 288.5 0.5C271.526 0.5 255.247 7.24284 243.245 19.2452C231.243 31.2475 224.5 47.5261 224.5 64.5C224.5 81.4739 231.243 97.7525 243.245 109.755C255.247 121.757 271.526 128.5 288.5 128.5C305.474 128.5 321.752 121.757 333.755 109.755C345.757 97.7525 352.5 81.4739 352.5 64.5ZM233.2 264.5L256.1 296C262.6 304.9 272.4 310.7 283.3 312.1C294.2 313.5 305.2 310.4 313.7 303.4L401.7 231.4C418.8 217.4 421.3 192.2 407.3 175.1C393.3 158 368.1 155.5 351 169.5L295.8 214.7L269.6 178.7C254.1 157.2 229.1 144.5 202.5 144.5C171.6 144.5 143.3 161.6 128.9 188.9L80.3 281.4C60.1 319.9 70.9 367.3 105.9 393.2L159.1 432.5H72.5C50.4 432.5 32.5 450.4 32.5 472.5C32.5 494.6 50.4 512.5 72.5 512.5H280.5C297.8 512.5 313.1 501.4 318.5 485C323.9 468.6 318.2 450.6 304.3 440.3L188.2 354.5L233.2 264.5Z" fill="#47535F"/>
</g>
<defs>
<clipPath id="clip0_104_2196">
<rect width="448" height="512" fill="white" transform="translate(0.5 0.5)"/>
</clipPath>
</defs>
</svg>
