<svg width="321" height="513" viewBox="0 0 321 513" fill="none" xmlns="http://www.w3.org/2000/svg">
<g clip-path="url(#clip0_104_2140)">
<path d="M112.5 48.5C112.5 35.7696 117.557 23.5606 126.559 14.5589C135.561 5.55713 147.77 0.5 160.5 0.5C173.23 0.5 185.439 5.55713 194.441 14.5589C203.443 23.5606 208.5 35.7696 208.5 48.5C208.5 61.2304 203.443 73.4394 194.441 82.4411C185.439 91.4429 173.23 96.5 160.5 96.5C147.77 96.5 135.561 91.4429 126.559 82.4411C117.557 73.4394 112.5 61.2304 112.5 48.5ZM152.5 352.5V480.5C152.5 498.2 138.2 512.5 120.5 512.5C102.8 512.5 88.5001 498.2 88.5001 480.5V257.4L59.9001 305C50.8001 320.1 31.1001 325 16.0001 315.9C0.900103 306.8 -3.9999 287.1 5.1001 272L63.4001 175C80.8001 146.1 112 128.4 145.7 128.4H175.4C209.1 128.4 240.3 146.1 257.7 175L316 272C325.1 287.1 320.2 306.8 305.1 315.9C290 325 270.3 320.1 261.2 305L232.5 257.4V480.5C232.5 498.2 218.2 512.5 200.5 512.5C182.8 512.5 168.5 498.2 168.5 480.5V352.5H152.5Z" fill="#47535F"/>
</g>
<defs>
<clipPath id="clip0_104_2140">
<rect width="320" height="512" fill="white" transform="translate(0.5 0.5)"/>
</clipPath>
</defs>
</svg>
