<svg width="385" height="513" viewBox="0 0 385 513" fill="none" xmlns="http://www.w3.org/2000/svg">
<g clip-path="url(#clip0_104_2232)">
<path d="M64.5 32.5C46.8 32.5 32.5 46.8 32.5 64.5V160.5C14.8 160.5 0.5 174.8 0.5 192.5C0.5 210.2 14.8 224.5 32.5 224.5V320.5V448.5C32.5 466.2 46.8 480.5 64.5 480.5C82.2 480.5 96.5 466.2 96.5 448.5V352.5H192.5C269.9 352.5 334.5 297.5 349.3 224.5H352.5C370.2 224.5 384.5 210.2 384.5 192.5C384.5 174.8 370.2 160.5 352.5 160.5H349.3C334.5 87.5 269.9 32.5 192.5 32.5H64.5ZM283 160.5H96.5V96.5H192.5C234.3 96.5 269.9 123.2 283 160.5ZM96.5 224.5H283C269.8 261.8 234.3 288.5 192.5 288.5H96.5V224.5Z" fill="#47535F"/>
</g>
<defs>
<clipPath id="clip0_104_2232">
<rect width="384" height="512" fill="white" transform="translate(0.5 0.5)"/>
</clipPath>
</defs>
</svg>
