<svg width="385" height="513" viewBox="0 0 385 513" fill="none" xmlns="http://www.w3.org/2000/svg">
<g clip-path="url(#clip0_104_2234)">
<path d="M64.5 32.5C46.8 32.5 32.5 46.8 32.5 64.5V128.5C14.8 128.5 0.5 142.8 0.5 160.5C0.5 178.2 14.8 192.5 32.5 192.5V224.5C14.8 224.5 0.5 238.8 0.5 256.5C0.5 274.2 14.8 288.5 32.5 288.5V352.5V448.5C32.5 466.2 46.8 480.5 64.5 480.5C82.2 480.5 96.5 466.2 96.5 448.5V384.5H176.5C244.9 384.5 304.2 345.5 333.3 288.5H352.5C370.2 288.5 384.5 274.2 384.5 256.5C384.5 238.8 370.2 224.5 352.5 224.5H351.8C352.3 219.2 352.5 213.9 352.5 208.5C352.5 203.1 352.3 197.8 351.8 192.5H352.5C370.2 192.5 384.5 178.2 384.5 160.5C384.5 142.8 370.2 128.5 352.5 128.5H333.3C304.2 71.5 244.9 32.5 176.5 32.5H64.5ZM254.9 128.5H96.5V96.5H176.5C207 96.5 234.7 108.7 254.9 128.5ZM96.5 192.5H287.4C288.1 197.7 288.5 203.1 288.5 208.5C288.5 213.9 288.1 219.3 287.4 224.5H96.5V192.5ZM254.9 288.5C234.7 308.3 207 320.5 176.5 320.5H96.5V288.5H254.9Z" fill="#47535F"/>
</g>
<defs>
<clipPath id="clip0_104_2234">
<rect width="384" height="512" fill="white" transform="translate(0.5 0.5)"/>
</clipPath>
</defs>
</svg>
