<svg width="641" height="513" viewBox="0 0 641 513" fill="none" xmlns="http://www.w3.org/2000/svg">
<g clip-path="url(#clip0_104_2240)">
<path d="M229.4 25.1001C221.7 6.50009 201.4 -3.39991 182 1.90009L94 25.9001C76.6 30.7001 64.5 46.5001 64.5 64.5001C64.5 171.9 102.3 270.5 165.3 347.6L9.70001 469.6C-0.699994 477.8 -2.59999 492.9 5.60001 503.3C13.8 513.7 28.9 515.6 39.3 507.4L631.3 43.4001C641.7 35.2001 643.6 20.1001 635.4 9.70009C627.2 -0.699913 612.1 -2.59991 601.7 5.60009L253.5 278.5C235.7 257 220.6 233.3 208.5 207.8L257.8 167.5C271.5 156.3 276.2 137.5 269.4 121.2L229.4 25.2001V25.1001ZM326.2 344.1L234.9 416.1C311.2 476.5 407.6 512.5 512.5 512.5C530.5 512.5 546.3 500.4 551.1 483L575.1 395C580.4 375.6 570.5 355.3 551.9 347.6L455.9 307.6C439.6 300.8 420.7 305.5 409.6 319.2L369.2 368.5C354.2 361.4 339.9 353.3 326.2 344.2V344.1Z" fill="#47535F"/>
</g>
<defs>
<clipPath id="clip0_104_2240">
<rect width="640" height="512" fill="white" transform="translate(0.5 0.5)"/>
</clipPath>
</defs>
</svg>
