<svg width="513" height="513" viewBox="0 0 513 513" fill="none" xmlns="http://www.w3.org/2000/svg">
<g clip-path="url(#clip0_104_2242)">
<path d="M280.5 0.500087C408.6 0.500087 512.5 104.4 512.5 232.5C512.5 245.8 501.8 256.5 488.5 256.5C475.2 256.5 464.5 245.8 464.5 232.5C464.5 130.9 382.1 48.5001 280.5 48.5001C267.2 48.5001 256.5 37.8001 256.5 24.5001C256.5 11.2001 267.2 0.500087 280.5 0.500087ZM288.5 192.5C296.987 192.5 305.126 195.872 311.127 201.873C317.129 207.874 320.5 216.013 320.5 224.5C320.5 232.987 317.129 241.126 311.127 247.128C305.126 253.129 296.987 256.5 288.5 256.5C280.013 256.5 271.874 253.129 265.873 247.128C259.871 241.126 256.5 232.987 256.5 224.5C256.5 216.013 259.871 207.874 265.873 201.873C271.874 195.872 280.013 192.5 288.5 192.5ZM256.5 120.5C256.5 107.2 267.2 96.5001 280.5 96.5001C355.6 96.5001 416.5 157.4 416.5 232.5C416.5 245.8 405.8 256.5 392.5 256.5C379.2 256.5 368.5 245.8 368.5 232.5C368.5 183.9 329.1 144.5 280.5 144.5C267.2 144.5 256.5 133.8 256.5 120.5ZM118 1.90009C137.4 -3.39991 157.7 6.50009 165.4 25.1001L205.4 121.1C212.2 137.4 207.5 156.3 193.8 167.4L144.5 207.8C177.8 278.2 234.8 335.2 305.2 368.5L345.5 319.2C356.7 305.5 375.5 300.8 391.8 307.6L487.8 347.6C506.4 355.3 516.3 375.6 511 395L487 483C482.3 500.4 466.5 512.5 448.5 512.5C201.1 512.5 0.5 311.9 0.5 64.5001C0.5 46.5001 12.6 30.7001 30 25.9001L118 1.90009Z" fill="#47535F"/>
</g>
<defs>
<clipPath id="clip0_104_2242">
<rect width="512" height="512" fill="white" transform="translate(0.5 0.5)"/>
</clipPath>
</defs>
</svg>
