<svg width="513" height="513" viewBox="0 0 513 513" fill="none" xmlns="http://www.w3.org/2000/svg">
<g clip-path="url(#clip0_104_2236)">
<path d="M165.4 25.1001C157.7 6.50009 137.4 -3.39991 118 1.90009L30 25.9001C12.6 30.7001 0.5 46.5001 0.5 64.5001C0.5 311.9 201.1 512.5 448.5 512.5C466.5 512.5 482.3 500.4 487.1 483L511.1 395C516.4 375.6 506.5 355.3 487.9 347.6L391.9 307.6C375.6 300.8 356.7 305.5 345.6 319.2L305.2 368.5C234.8 335.2 177.8 278.2 144.5 207.8L193.8 167.5C207.5 156.3 212.2 137.5 205.4 121.2L165.4 25.2001V25.1001Z" fill="#47535F"/>
</g>
<defs>
<clipPath id="clip0_104_2236">
<rect width="512" height="512" fill="white" transform="translate(0.5 0.5)"/>
</clipPath>
</defs>
</svg>
