<svg width="513" height="513" viewBox="0 0 513 513" fill="none" xmlns="http://www.w3.org/2000/svg">
<g clip-path="url(#clip0_104_2238)">
<path d="M347.6 25.1001C355.3 6.50009 375.6 -3.39991 395 1.90009L483 25.9001C500.4 30.7001 512.5 46.5001 512.5 64.5001C512.5 311.9 311.9 512.5 64.5 512.5C46.5 512.5 30.7 500.4 25.9 483L1.90003 395C-3.39997 375.6 6.50003 355.3 25.1 347.6L121.1 307.6C137.4 300.8 156.3 305.5 167.4 319.2L207.8 368.5C278.2 335.2 335.2 278.2 368.5 207.8L319.2 167.5C305.5 156.3 300.8 137.5 307.6 121.2L347.6 25.2001V25.1001Z" fill="#47535F"/>
</g>
<defs>
<clipPath id="clip0_104_2238">
<rect width="512" height="512" fill="white" transform="translate(0.5 0.5)"/>
</clipPath>
</defs>
</svg>
