<svg width="641" height="513" viewBox="0 0 641 513" fill="none" xmlns="http://www.w3.org/2000/svg">
<g clip-path="url(#clip0_104_2244)">
<path d="M256.5 0.5H576.5C611.8 0.5 640.5 29.2 640.5 64.5V288.5C640.5 323.8 611.8 352.5 576.5 352.5H256.5C221.2 352.5 192.5 323.8 192.5 288.5V64.5C192.5 29.2 221.2 0.5 256.5 0.5ZM476.5 107.2C472 100.5 464.5 96.5 456.5 96.5C448.5 96.5 441 100.5 436.5 107.2L380.5 191.2L363.2 169.5C358.6 163.8 351.7 160.5 344.5 160.5C337.3 160.5 330.3 163.8 325.8 169.5L261.8 249.5C256 256.7 254.9 266.6 258.9 274.9C262.9 283.2 271.3 288.5 280.5 288.5H360.5H408.5H552.5C561.4 288.5 569.5 283.6 573.7 275.8C577.9 268 577.4 258.5 572.5 251.2L476.5 107.2ZM336.5 96.5C336.5 88.0131 333.129 79.8737 327.127 73.8726C321.126 67.8714 312.987 64.5 304.5 64.5C296.013 64.5 287.874 67.8714 281.873 73.8726C275.871 79.8737 272.5 88.0131 272.5 96.5C272.5 104.987 275.871 113.126 281.873 119.127C287.874 125.129 296.013 128.5 304.5 128.5C312.987 128.5 321.126 125.129 327.127 119.127C333.129 113.126 336.5 104.987 336.5 96.5ZM64.5 128.5H160.5V384.5V416.5C160.5 434.2 174.8 448.5 192.5 448.5H320.5C338.2 448.5 352.5 434.2 352.5 416.5V384.5H512.5V448.5C512.5 483.8 483.8 512.5 448.5 512.5H64.5C29.2 512.5 0.5 483.8 0.5 448.5V192.5C0.5 157.2 29.2 128.5 64.5 128.5ZM72.5 192.5C63.7 192.5 56.5 199.7 56.5 208.5V224.5C56.5 233.3 63.7 240.5 72.5 240.5H88.5C97.3 240.5 104.5 233.3 104.5 224.5V208.5C104.5 199.7 97.3 192.5 88.5 192.5H72.5ZM72.5 296.5C63.7 296.5 56.5 303.7 56.5 312.5V328.5C56.5 337.3 63.7 344.5 72.5 344.5H88.5C97.3 344.5 104.5 337.3 104.5 328.5V312.5C104.5 303.7 97.3 296.5 88.5 296.5H72.5ZM72.5 400.5C63.7 400.5 56.5 407.7 56.5 416.5V432.5C56.5 441.3 63.7 448.5 72.5 448.5H88.5C97.3 448.5 104.5 441.3 104.5 432.5V416.5C104.5 407.7 97.3 400.5 88.5 400.5H72.5ZM408.5 416.5V432.5C408.5 441.3 415.7 448.5 424.5 448.5H440.5C449.3 448.5 456.5 441.3 456.5 432.5V416.5C456.5 407.7 449.3 400.5 440.5 400.5H424.5C415.7 400.5 408.5 407.7 408.5 416.5Z" fill="#47535F"/>
</g>
<defs>
<clipPath id="clip0_104_2244">
<rect width="640" height="512" fill="white" transform="translate(0.5 0.5)"/>
</clipPath>
</defs>
</svg>
