<svg width="577" height="513" viewBox="0 0 577 513" fill="none" xmlns="http://www.w3.org/2000/svg">
<g clip-path="url(#clip0_104_2246)">
<path d="M400.5 96.5V97.2C395.2 96.8 389.9 96.5 384.5 96.5H256.5C240 96.5 224 98.6 208.7 102.5C208.6 100.5 208.5 98.5 208.5 96.5C208.5 43.5 251.5 0.5 304.5 0.5C357.5 0.5 400.5 43.5 400.5 96.5ZM384.5 128.5C388 128.5 391.5 128.6 394.9 128.8C399.1 129.1 403.3 129.5 407.5 130.1C425.1 109.6 451.3 96.5 480.5 96.5H492C502.4 96.5 510 106.3 507.5 116.4L493.7 171.6C509.5 186.4 522.4 204.4 531.2 224.5H544.5C562.2 224.5 576.5 238.8 576.5 256.5V352.5C576.5 370.2 562.2 384.5 544.5 384.5H512.5C503.4 396.6 492.6 407.4 480.5 416.5V480.5C480.5 498.2 466.2 512.5 448.5 512.5H416.5C398.8 512.5 384.5 498.2 384.5 480.5V448.5H256.5V480.5C256.5 498.2 242.2 512.5 224.5 512.5H192.5C174.8 512.5 160.5 498.2 160.5 480.5V416.5C125.6 390.3 101.8 350.2 97.3 304.5H68.5C30.9 304.5 0.5 274.1 0.5 236.5C0.5 198.9 30.9 168.5 68.5 168.5H72.5C85.8 168.5 96.5 179.2 96.5 192.5C96.5 205.8 85.8 216.5 72.5 216.5H68.5C57.5 216.5 48.5 225.5 48.5 236.5C48.5 247.5 57.5 256.5 68.5 256.5H99.7C111.8 196.7 157.4 149 216 133.7C228.9 130.3 242.5 128.5 256.5 128.5H384.5ZM448.5 264.5C448.5 258.135 445.971 252.03 441.471 247.529C436.97 243.029 430.865 240.5 424.5 240.5C418.135 240.5 412.03 243.029 407.529 247.529C403.029 252.03 400.5 258.135 400.5 264.5C400.5 270.865 403.029 276.97 407.529 281.471C412.03 285.971 418.135 288.5 424.5 288.5C430.865 288.5 436.97 285.971 441.471 281.471C445.971 276.97 448.5 270.865 448.5 264.5Z" fill="#47535F"/>
</g>
<defs>
<clipPath id="clip0_104_2246">
<rect width="576" height="512" fill="white" transform="translate(0.5 0.5)"/>
</clipPath>
</defs>
</svg>
