<svg width="577" height="513" viewBox="0 0 577 513" fill="none" xmlns="http://www.w3.org/2000/svg">
<g clip-path="url(#clip0_104_2248)">
<path d="M112.5 96.5C86 96.5 64.5 118 64.5 144.5V256.5H160.5V144.5C160.5 118 139 96.5 112.5 96.5ZM0.5 144.5C0.5 82.6 50.6 32.5 112.5 32.5C174.4 32.5 224.5 82.6 224.5 144.5V368.5C224.5 430.4 174.4 480.5 112.5 480.5C50.6 480.5 0.5 430.4 0.5 368.5V144.5ZM555.4 399.9C548.3 412.2 531.7 413 521.6 403L334 215.4C324 205.4 324.7 188.7 337.1 181.6C360.5 168.2 387.6 160.5 416.5 160.5C504.9 160.5 576.5 232.1 576.5 320.5C576.5 349.4 568.8 376.5 555.4 399.9ZM495.9 459.4C472.5 472.8 445.4 480.5 416.5 480.5C328.1 480.5 256.5 408.9 256.5 320.5C256.5 291.6 264.2 264.5 277.6 241.1C284.7 228.8 301.3 228 311.4 238L499 425.6C509 435.6 508.3 452.3 495.9 459.4Z" fill="#47535F"/>
</g>
<defs>
<clipPath id="clip0_104_2248">
<rect width="576" height="512" fill="white" transform="translate(0.5 0.5)"/>
</clipPath>
</defs>
</svg>
