<svg width="513" height="513" viewBox="0 0 513 513" fill="none" xmlns="http://www.w3.org/2000/svg">
<g clip-path="url(#clip0_104_2250)">
<path d="M170.2 1.39999C147.4 -0.200014 128.3 15.4 122.7 36.1L110.9 80.5C111.4 80.5 112 80.5 112.5 80.5C289.2 80.5 432.5 223.8 432.5 400.5C432.5 401 432.5 401.6 432.5 402.1L476.9 390.3C497.7 384.8 513.2 365.6 511.6 342.8C499 160 353 14 170.2 1.39999ZM400.3 410.7C400.4 407.3 400.5 403.9 400.5 400.5C400.5 241.4 271.6 112.5 112.5 112.5C109.1 112.5 105.7 112.6 102.3 112.7L1.00001 492.4C-0.49999 497.9 1.10001 503.8 5.10001 507.8C9.10001 511.8 15 513.4 20.5 511.9L400.3 410.7ZM176.5 208.5C184.987 208.5 193.126 211.871 199.127 217.873C205.129 223.874 208.5 232.013 208.5 240.5C208.5 248.987 205.129 257.126 199.127 263.127C193.126 269.129 184.987 272.5 176.5 272.5C168.013 272.5 159.874 269.129 153.873 263.127C147.871 257.126 144.5 248.987 144.5 240.5C144.5 232.013 147.871 223.874 153.873 217.873C159.874 211.871 168.013 208.5 176.5 208.5ZM240.5 336.5C240.5 328.013 243.871 319.874 249.873 313.873C255.874 307.871 264.013 304.5 272.5 304.5C280.987 304.5 289.126 307.871 295.127 313.873C301.129 319.874 304.5 328.013 304.5 336.5C304.5 344.987 301.129 353.126 295.127 359.127C289.126 365.129 280.987 368.5 272.5 368.5C264.013 368.5 255.874 365.129 249.873 359.127C243.871 353.126 240.5 344.987 240.5 336.5ZM96.5 384.5C96.5 376.013 99.8714 367.874 105.873 361.873C111.874 355.871 120.013 352.5 128.5 352.5C136.987 352.5 145.126 355.871 151.127 361.873C157.129 367.874 160.5 376.013 160.5 384.5C160.5 392.987 157.129 401.126 151.127 407.127C145.126 413.129 136.987 416.5 128.5 416.5C120.013 416.5 111.874 413.129 105.873 407.127C99.8714 401.126 96.5 392.987 96.5 384.5Z" fill="#47535F"/>
</g>
<defs>
<clipPath id="clip0_104_2250">
<rect width="512" height="512" fill="white" transform="translate(0.5 0.5)"/>
</clipPath>
</defs>
</svg>
