<svg width="641" height="513" viewBox="0 0 641 513" fill="none" xmlns="http://www.w3.org/2000/svg">
<g clip-path="url(#clip0_104_2252)">
<path d="M224.5 109.8V218.1L183.8 242.5C169.3 251.2 160.5 266.8 160.5 283.7V512.5H256.5V416.5C256.5 381.2 285.2 352.5 320.5 352.5C355.8 352.5 384.5 381.2 384.5 416.5V512.5H480.5V283.7C480.5 266.8 471.7 251.2 457.2 242.5L416.5 218.1V109.8C416.5 101.3 413.1 93.1999 407.1 87.1999L331.8 11.7999C325.6 5.5999 315.4 5.5999 309.2 11.7999L233.9 87.0999C227.9 93.0999 224.5 101.2 224.5 109.7V109.8ZM25.4 330.8C10 339.3 0.5 355.4 0.5 372.9V464.5C0.5 491 22 512.5 48.5 512.5H128.5V274.1L25.4 330.8ZM592.5 512.5C619 512.5 640.5 491 640.5 464.5V372.9C640.5 355.4 631 339.3 615.6 330.8L512.5 274.1V512.5H592.5Z" fill="#47535F"/>
</g>
<defs>
<clipPath id="clip0_104_2252">
<rect width="640" height="512" fill="white" transform="translate(0.5 0.5)"/>
</clipPath>
</defs>
</svg>
