<svg width="513" height="513" viewBox="0 0 513 513" fill="none" xmlns="http://www.w3.org/2000/svg">
<g clip-path="url(#clip0_104_2272)">
<path d="M288.5 120.5C288.5 89.6 313.6 64.5 344.5 64.5C375.4 64.5 400.5 89.6 400.5 120.5V133.5C371.2 143.5 352.5 168 352.5 203.6C352.5 231.5 377.8 278.4 418.5 315.2C422.3 318.7 427.4 320.5 432.5 320.5C437.6 320.5 442.7 318.7 446.5 315.2C487.2 278.4 512.5 231.5 512.5 203.6C512.5 168 493.8 143.4 464.5 133.5V120.5C464.5 54.2 410.8 0.5 344.5 0.5C278.2 0.5 224.5 54.2 224.5 120.5V142.3C207.8 133.5 188.7 128.5 168.5 128.5C102.2 128.5 48.5 182.2 48.5 248.5V261.5C19.2 271.5 0.5 296 0.5 331.6C0.5 359.5 25.8 406.4 66.5 443.2C70.3 446.7 75.4 448.5 80.5 448.5C85.6 448.5 90.7 446.7 94.5 443.2C135.2 406.4 160.5 359.5 160.5 331.6C160.5 296 141.8 271.4 112.5 261.5V248.5C112.5 217.6 137.6 192.5 168.5 192.5C199.4 192.5 224.5 217.6 224.5 248.5V280.5V480.5C224.5 498.2 238.8 512.5 256.5 512.5C274.2 512.5 288.5 498.2 288.5 480.5V280.5V248.5V120.5Z" fill="#47535F"/>
</g>
<defs>
<clipPath id="clip0_104_2272">
<rect width="512" height="512" fill="white" transform="translate(0.5 0.5)"/>
</clipPath>
</defs>
</svg>
