<svg width="577" height="513" viewBox="0 0 577 513" fill="none" xmlns="http://www.w3.org/2000/svg">
<g clip-path="url(#clip0_104_2254)">
<path d="M482.8 192.5C517 192.5 576.5 221.5 576.5 256.5C576.5 292.5 517 320.5 482.8 320.5H366.2L265.7 496.4C260 506.4 249.4 512.5 237.9 512.5H181.7C171.1 512.5 163.4 502.3 166.3 492.1L215.3 320.5H112.5L69.3 378.1C66.3 382.1 61.5 384.5 56.5 384.5H14.5C6.7 384.5 0.5 378.2 0.5 370.5C0.5 369.2 0.7 367.9 1 366.6L32.5 256.5L1 146.4C0.6 145.1 0.5 143.8 0.5 142.5C0.5 134.7 6.8 128.5 14.5 128.5H56.5C61.5 128.5 66.3 130.9 69.3 134.9L112.5 192.5H215.4L166.4 20.9C163.4 10.7 171.1 0.5 181.7 0.5H237.9C249.4 0.5 260 6.7 265.7 16.6L366.2 192.5H482.8Z" fill="#47535F"/>
</g>
<defs>
<clipPath id="clip0_104_2254">
<rect width="576" height="512" fill="white" transform="translate(0.5 0.5)"/>
</clipPath>
</defs>
</svg>
