<svg width="641" height="513" viewBox="0 0 641 513" fill="none" xmlns="http://www.w3.org/2000/svg">
<g clip-path="url(#clip0_104_2268)">
<path d="M514.8 192.5C549 192.5 608.5 221.5 608.5 256.5C608.5 292.5 549 320.5 514.8 320.5H441.1L631.3 469.6C641.7 477.8 643.6 492.9 635.4 503.3C627.2 513.7 612.1 515.6 601.7 507.4L9.69976 43.3998C-0.700238 35.1998 -2.60024 20.0998 5.59976 9.69976C13.7998 -0.700238 28.8998 -2.60024 39.2998 5.59976L238.6 161.8L198.3 20.8998C195.4 10.6998 203.1 0.499762 213.7 0.499762H269.9C281.4 0.499762 292 6.69976 297.7 16.5998L398.2 192.5H514.8ZM41.9998 129.2L363 382.1L297.7 496.4C292 506.4 281.4 512.5 269.9 512.5H213.7C203.1 512.5 195.4 502.3 198.3 492.1L247.3 320.5H144.5L101.3 378.1C98.2998 382.1 93.4998 384.5 88.4998 384.5H46.4998C38.6998 384.5 32.4998 378.2 32.4998 370.5C32.4998 369.2 32.6998 367.9 32.9998 366.6L64.4998 256.5L32.9998 146.4C32.5998 145.1 32.4998 143.8 32.4998 142.5C32.4998 136.3 36.4998 131.1 41.9998 129.2Z" fill="#47535F"/>
</g>
<defs>
<clipPath id="clip0_104_2268">
<rect width="640" height="512" fill="white" transform="translate(0.5 0.5)"/>
</clipPath>
</defs>
</svg>
