<svg width="641" height="513" viewBox="0 0 641 513" fill="none" xmlns="http://www.w3.org/2000/svg">
<g clip-path="url(#clip0_104_2256)">
<path d="M0.8 167.4L0.5 68.5C0.5 58.2 10 50.6 20 52.8L55.6 60.7C66.2 63 74.8 70.6 78.6 80.7L96.5 128.5L223.8 166.1L182.3 20.9C179.4 10.7 187.1 0.5 197.7 0.5H237.8C249.4 0.5 260 6.7 265.7 16.8L374.7 210.6L481.9 242.3C497.8 247 512.7 254.8 525.6 265.1L560 292.7C584 311.9 578.1 350 549.3 360.9C508.1 376.5 463.1 379 420.5 367.9L122.2 290.3C111.1 287.4 101 281.6 92.9 273.4L10 189.9C4.1 183.9 0.7 175.9 0.7 167.4H0.8ZM32.5 448.5H608.5C626.2 448.5 640.5 462.8 640.5 480.5C640.5 498.2 626.2 512.5 608.5 512.5H32.5C14.8 512.5 0.5 498.2 0.5 480.5C0.5 462.8 14.8 448.5 32.5 448.5ZM128.5 368.5C128.5 360.013 131.871 351.874 137.873 345.873C143.874 339.871 152.013 336.5 160.5 336.5C168.987 336.5 177.126 339.871 183.127 345.873C189.129 351.874 192.5 360.013 192.5 368.5C192.5 376.987 189.129 385.126 183.127 391.127C177.126 397.129 168.987 400.5 160.5 400.5C152.013 400.5 143.874 397.129 137.873 391.127C131.871 385.126 128.5 376.987 128.5 368.5ZM256.5 352.5C264.987 352.5 273.126 355.871 279.127 361.873C285.129 367.874 288.5 376.013 288.5 384.5C288.5 392.987 285.129 401.126 279.127 407.127C273.126 413.129 264.987 416.5 256.5 416.5C248.013 416.5 239.874 413.129 233.873 407.127C227.871 401.126 224.5 392.987 224.5 384.5C224.5 376.013 227.871 367.874 233.873 361.873C239.874 355.871 248.013 352.5 256.5 352.5Z" fill="#47535F"/>
</g>
<defs>
<clipPath id="clip0_104_2256">
<rect width="640" height="512" fill="white" transform="translate(0.5 0.5)"/>
</clipPath>
</defs>
</svg>
