<svg width="641" height="513" viewBox="0 0 641 513" fill="none" xmlns="http://www.w3.org/2000/svg">
<g clip-path="url(#clip0_104_2264)">
<path d="M381.5 115.4L186.6 42.2998C169.9 36.0998 151.4 36.9998 135.5 44.9998L89.6 67.8998C78.5 73.4998 77.7 88.9998 88.1 95.6998L235 190.2L136.5 240.5L78.3 214.6C69.6 210.7 59.5 210.9 51 215.2L18.8 231.3C9.5 236 7 248.1 13.8 256L86.9 341.3C93 348.4 101.9 352.5 111.2 352.5H248.9C253.9 352.5 258.8 351.3 263.2 349.1L536.1 212.7C582.6 189.4 618.6 149.4 636.9 100.7C646.4 75.4998 627.7 48.4998 600.7 48.4998H543.3C523.1 48.4998 503.1 53.2998 485.1 62.4998L381.5 115.4ZM0.5 480.5C0.5 498.2 14.8 512.5 32.5 512.5H608.5C626.2 512.5 640.5 498.2 640.5 480.5C640.5 462.8 626.2 448.5 608.5 448.5H32.5C14.8 448.5 0.5 462.8 0.5 480.5Z" fill="#47535F"/>
</g>
<defs>
<clipPath id="clip0_104_2264">
<rect width="640" height="512" fill="white" transform="translate(0.5 0.5)"/>
</clipPath>
</defs>
</svg>
