<svg width="641" height="513" viewBox="0 0 641 513" fill="none" xmlns="http://www.w3.org/2000/svg">
<g clip-path="url(#clip0_104_2266)">
<path d="M192.5 94.2C192.5 60 221.5 0.5 256.5 0.5C292.5 0.5 320.5 60 320.5 94.2V178.8L422.3 237C418.5 248.1 416.5 260.1 416.5 272.5V297.1C398.6 307.5 386.2 326.2 384.7 348L320.5 329.6V400.5L378.1 443.7C382.1 446.7 384.5 451.5 384.5 456.5V480.5V498.5C384.5 506.3 378.2 512.5 370.5 512.5C369.2 512.5 367.9 512.3 366.6 512L256.5 480.5L146.4 512C145.1 512.4 143.8 512.5 142.5 512.5C134.7 512.5 128.5 506.2 128.5 498.5V456.5C128.5 451.5 130.9 446.7 134.9 443.7L192.5 400.5V329.6L20.9 378.6C10.7 381.6 0.5 373.9 0.5 363.3V297.8C0.5 292.1 3.6 286.8 8.6 283.9L192.5 178.8V94.2ZM528.5 240.5C510.8 240.5 496.5 254.8 496.5 272.5V320.5H560.5V272.5C560.5 254.8 546.2 240.5 528.5 240.5ZM448.5 272.5C448.5 228.3 484.3 192.5 528.5 192.5C572.7 192.5 608.5 228.3 608.5 272.5V320.5C626.2 320.5 640.5 334.8 640.5 352.5V480.5C640.5 498.2 626.2 512.5 608.5 512.5H448.5C430.8 512.5 416.5 498.2 416.5 480.5V352.5C416.5 334.8 430.8 320.5 448.5 320.5V272.5Z" fill="#47535F"/>
</g>
<defs>
<clipPath id="clip0_104_2266">
<rect width="640" height="512" fill="white" transform="translate(0.5 0.5)"/>
</clipPath>
</defs>
</svg>
