<svg width="513" height="513" viewBox="0 0 513 513" fill="none" xmlns="http://www.w3.org/2000/svg">
<g clip-path="url(#clip0_104_2274)">
<path d="M176.5 32.5C220.7 32.5 256.5 68.3 256.5 112.5V128.5C256.5 137.3 249.3 144.5 240.5 144.5C196.3 144.5 160.5 108.7 160.5 64.5V48.5C160.5 39.7 167.7 32.5 176.5 32.5ZM56.5 64.5H104.5C117.8 64.5 128.5 75.2 128.5 88.5C128.5 101.8 117.8 112.5 104.5 112.5H56.5C43.2 112.5 32.5 101.8 32.5 88.5C32.5 75.2 43.2 64.5 56.5 64.5ZM24.5 136.5H136.5C149.8 136.5 160.5 147.2 160.5 160.5C160.5 173.8 149.8 184.5 136.5 184.5H24.5C11.2 184.5 0.5 173.8 0.5 160.5C0.5 147.2 11.2 136.5 24.5 136.5ZM32.5 232.5C32.5 219.2 43.2 208.5 56.5 208.5H104.5C117.8 208.5 128.5 219.2 128.5 232.5C128.5 245.8 117.8 256.5 104.5 256.5H56.5C43.2 256.5 32.5 245.8 32.5 232.5ZM272.5 48.5C272.5 39.7 279.7 32.5 288.5 32.5C332.7 32.5 368.5 68.3 368.5 112.5V128.5C368.5 137.3 361.3 144.5 352.5 144.5C308.3 144.5 272.5 108.7 272.5 64.5V48.5ZM400.5 32.5C444.7 32.5 480.5 68.3 480.5 112.5V128.5C480.5 137.3 473.3 144.5 464.5 144.5C420.3 144.5 384.5 108.7 384.5 64.5V48.5C384.5 39.7 391.7 32.5 400.5 32.5ZM480.5 192.5V208.5C480.5 252.7 444.7 288.5 400.5 288.5C391.7 288.5 384.5 281.3 384.5 272.5V256.5C384.5 212.3 420.3 176.5 464.5 176.5C473.3 176.5 480.5 183.7 480.5 192.5ZM352.5 176.5C361.3 176.5 368.5 183.7 368.5 192.5V208.5C368.5 252.7 332.7 288.5 288.5 288.5C279.7 288.5 272.5 281.3 272.5 272.5V256.5C272.5 212.3 308.3 176.5 352.5 176.5ZM256.5 192.5V208.5C256.5 252.7 220.7 288.5 176.5 288.5C167.7 288.5 160.5 281.3 160.5 272.5V256.5C160.5 212.3 196.3 176.5 240.5 176.5C249.3 176.5 256.5 183.7 256.5 192.5ZM4 348.1C2.1 333.4 13.5 320.5 28.3 320.5H484.7C499.5 320.5 510.9 333.4 509.1 348.1C502.8 398.3 464.7 437.5 416.5 446.5V448.5C416.5 466.2 402.2 480.5 384.5 480.5H128.5C110.8 480.5 96.5 466.2 96.5 448.5V446.5C48.3 437.5 10.2 398.3 4 348.1Z" fill="#47535F"/>
</g>
<defs>
<clipPath id="clip0_104_2274">
<rect width="512" height="512" fill="white" transform="translate(0.5 0.5)"/>
</clipPath>
</defs>
</svg>
