<svg width="385" height="513" viewBox="0 0 385 513" fill="none" xmlns="http://www.w3.org/2000/svg">
<g clip-path="url(#clip0_104_2278)">
<path d="M96.5 0.5C78.8 0.5 64.5 14.8 64.5 32.5V128.5H128.5V32.5C128.5 14.8 114.2 0.5 96.5 0.5ZM288.5 0.5C270.8 0.5 256.5 14.8 256.5 32.5V128.5H320.5V32.5C320.5 14.8 306.2 0.5 288.5 0.5ZM32.5 160.5C14.8 160.5 0.5 174.8 0.5 192.5C0.5 210.2 14.8 224.5 32.5 224.5V256.5C32.5 333.9 87.5 398.5 160.5 413.3V480.5C160.5 498.2 174.8 512.5 192.5 512.5C210.2 512.5 224.5 498.2 224.5 480.5V413.3C297.5 398.5 352.5 333.9 352.5 256.5V224.5C370.2 224.5 384.5 210.2 384.5 192.5C384.5 174.8 370.2 160.5 352.5 160.5H32.5Z" fill="#47535F"/>
</g>
<defs>
<clipPath id="clip0_104_2278">
<rect width="384" height="512" fill="white" transform="translate(0.5 0.5)"/>
</clipPath>
</defs>
</svg>
