<svg width="577" height="513" viewBox="0 0 577 513" fill="none" xmlns="http://www.w3.org/2000/svg">
<g clip-path="url(#clip0_104_2288)">
<path d="M96.5 0.5C78.8 0.5 64.5 14.8 64.5 32.5V128.5H128.5V32.5C128.5 14.8 114.2 0.5 96.5 0.5ZM288.5 0.5C270.8 0.5 256.5 14.8 256.5 32.5V128.5H320.5V32.5C320.5 14.8 306.2 0.5 288.5 0.5ZM32.5 160.5C14.8 160.5 0.5 174.8 0.5 192.5C0.5 210.2 14.8 224.5 32.5 224.5V256.5C32.5 333.9 87.5 398.5 160.5 413.3V480.5C160.5 498.2 174.8 512.5 192.5 512.5C210.2 512.5 224.5 498.2 224.5 480.5V413.3C236.8 410.8 248.6 406.9 259.6 401.8C257.5 391 256.5 379.9 256.5 368.5C256.5 288.2 310.3 220.5 383.8 199.3C384.3 197.1 384.5 194.8 384.5 192.5C384.5 174.8 370.2 160.5 352.5 160.5H32.5ZM432.5 512.5C470.691 512.5 507.318 497.329 534.323 470.323C561.329 443.318 576.5 406.691 576.5 368.5C576.5 330.309 561.329 293.682 534.323 266.677C507.318 239.671 470.691 224.5 432.5 224.5C394.309 224.5 357.682 239.671 330.677 266.677C303.671 293.682 288.5 330.309 288.5 368.5C288.5 406.691 303.671 443.318 330.677 470.323C357.682 497.329 394.309 512.5 432.5 512.5ZM448.5 304.5V352.5H496.5C505.3 352.5 512.5 359.7 512.5 368.5C512.5 377.3 505.3 384.5 496.5 384.5H448.5V432.5C448.5 441.3 441.3 448.5 432.5 448.5C423.7 448.5 416.5 441.3 416.5 432.5V384.5H368.5C359.7 384.5 352.5 377.3 352.5 368.5C352.5 359.7 359.7 352.5 368.5 352.5H416.5V304.5C416.5 295.7 423.7 288.5 432.5 288.5C441.3 288.5 448.5 295.7 448.5 304.5Z" fill="#47535F"/>
</g>
<defs>
<clipPath id="clip0_104_2288">
<rect width="576" height="512" fill="white" transform="translate(0.5 0.5)"/>
</clipPath>
</defs>
</svg>
