<svg width="385" height="513" viewBox="0 0 385 513" fill="none" xmlns="http://www.w3.org/2000/svg">
<g clip-path="url(#clip0_104_2294)">
<path d="M224.5 32.5C224.5 14.8 210.2 0.5 192.5 0.5C174.8 0.5 160.5 14.8 160.5 32.5V144.5H48.5C30.8 144.5 16.5 158.8 16.5 176.5C16.5 194.2 30.8 208.5 48.5 208.5H160.5V320.5C160.5 338.2 174.8 352.5 192.5 352.5C210.2 352.5 224.5 338.2 224.5 320.5V208.5H336.5C354.2 208.5 368.5 194.2 368.5 176.5C368.5 158.8 354.2 144.5 336.5 144.5H224.5V32.5ZM0.5 480.5C0.5 498.2 14.8 512.5 32.5 512.5H352.5C370.2 512.5 384.5 498.2 384.5 480.5C384.5 462.8 370.2 448.5 352.5 448.5H32.5C14.8 448.5 0.5 462.8 0.5 480.5Z" fill="#47535F"/>
</g>
<defs>
<clipPath id="clip0_104_2294">
<rect width="384" height="512" fill="white" transform="translate(0.5 0.5)"/>
</clipPath>
</defs>
</svg>
