<svg width="449" height="513" viewBox="0 0 449 513" fill="none" xmlns="http://www.w3.org/2000/svg">
<g clip-path="url(#clip0_104_2296)">
<path d="M319.9 372.5C368.4 341.2 400.5 286.6 400.5 224.5C400.5 127.3 321.7 48.5 224.5 48.5C127.3 48.5 48.5 127.3 48.5 224.5C48.5 286.6 80.6 341.1 129.1 372.5C130.3 389.8 133.1 410.5 136.3 429.6L136.5 430.6C56.5 396.3 0.5 317 0.5 224.5C0.5 100.8 100.8 0.5 224.5 0.5C348.2 0.5 448.5 100.8 448.5 224.5C448.5 317 392.5 396.4 312.5 430.6L312.7 429.5C315.8 410.3 318.7 389.7 319.9 372.5ZM317.6 334.4C316 328.7 313.7 323.3 310.6 318.2C304.8 308.5 297.1 301.2 288.7 295.8C308.2 278.2 320.5 252.8 320.5 224.5C320.5 171.5 277.5 128.5 224.5 128.5C171.5 128.5 128.5 171.5 128.5 224.5C128.5 252.8 140.8 278.3 160.3 295.8C151.9 301.2 144.2 308.5 138.4 318.2C135.3 323.3 133 328.7 131.4 334.4C100.3 308 80.5 268.5 80.5 224.5C80.5 145 145 80.5 224.5 80.5C304 80.5 368.5 145 368.5 224.5C368.5 268.5 348.7 308 317.6 334.4ZM224.5 312.5C257.4 312.5 288.5 321.1 288.5 356.3C288.5 389.3 275.6 460.4 267.9 489.2C262.8 508.2 243.4 512.6 224.5 512.6C205.6 512.6 186.3 508.2 181.1 489.2C173.3 460.7 160.5 389.5 160.5 356.4C160.5 321.3 191.6 312.6 224.5 312.6V312.5ZM224.5 168.5C239.352 168.5 253.596 174.4 264.098 184.902C274.6 195.404 280.5 209.648 280.5 224.5C280.5 239.352 274.6 253.596 264.098 264.098C253.596 274.6 239.352 280.5 224.5 280.5C209.648 280.5 195.404 274.6 184.902 264.098C174.4 253.596 168.5 239.352 168.5 224.5C168.5 209.648 174.4 195.404 184.902 184.902C195.404 174.4 209.648 168.5 224.5 168.5Z" fill="#47535F"/>
</g>
<defs>
<clipPath id="clip0_104_2296">
<rect width="448" height="512" fill="white" transform="translate(0.5 0.5)"/>
</clipPath>
</defs>
</svg>
