<svg width="513" height="513" viewBox="0 0 513 513" fill="none" xmlns="http://www.w3.org/2000/svg">
<g clip-path="url(#clip0_104_2298)">
<path d="M269.4 1.40002C263.9 0.700024 258.4 2.80002 254.9 7.10002C251.4 11.4 250.3 17.2 252.1 22.5C254.9 30.7 256.4 39.4 256.4 48.6C256.4 92.7 220.7 128.5 176.6 128.6H160.5C125.2 128.6 96.5 157.3 96.5 192.6C96.5 211.7 104.9 228.9 118.2 240.6H104.5C64.7 240.6 32.5 272.8 32.5 312.6C32.5 335.8 43.5 356.4 60.5 369.6C26.4 375.3 0.5 404.9 0.5 440.6C0.5 480.4 32.7 512.6 72.5 512.6H440.5C480.3 512.6 512.5 480.4 512.5 440.6C512.5 404.9 486.6 375.3 452.5 369.6C469.5 356.4 480.5 335.8 480.5 312.6C480.5 272.8 448.3 240.6 408.5 240.6H394.8C408.1 228.9 416.5 211.7 416.5 192.6C416.5 157.3 387.8 128.6 352.5 128.6H347C350.5 118.6 352.5 107.8 352.5 96.6C352.5 48 316.3 7.80002 269.4 1.50002V1.40002ZM192.5 256.5C200.987 256.5 209.126 259.871 215.127 265.873C221.129 271.874 224.5 280.013 224.5 288.5C224.5 296.987 221.129 305.126 215.127 311.127C209.126 317.129 200.987 320.5 192.5 320.5C184.013 320.5 175.874 317.129 169.873 311.127C163.871 305.126 160.5 296.987 160.5 288.5C160.5 280.013 163.871 271.874 169.873 265.873C175.874 259.871 184.013 256.5 192.5 256.5ZM288.5 288.5C288.5 280.013 291.871 271.874 297.873 265.873C303.874 259.871 312.013 256.5 320.5 256.5C328.987 256.5 337.126 259.871 343.127 265.873C349.129 271.874 352.5 280.013 352.5 288.5C352.5 296.987 349.129 305.126 343.127 311.127C337.126 317.129 328.987 320.5 320.5 320.5C312.013 320.5 303.874 317.129 297.873 311.127C291.871 305.126 288.5 296.987 288.5 288.5ZM352.5 396.8C352.5 399.2 351.8 401.6 350.3 403.5C342.1 414 310.8 448.5 256.5 448.5C202.2 448.5 170.9 413.9 162.7 403.5C161.2 401.6 160.5 399.2 160.5 396.8C160.5 390 166 384.5 172.8 384.5H340.2C347 384.5 352.5 390 352.5 396.8Z" fill="#47535F"/>
</g>
<defs>
<clipPath id="clip0_104_2298">
<rect width="512" height="512" fill="white" transform="translate(0.5 0.5)"/>
</clipPath>
</defs>
</svg>
