<svg width="449" height="513" viewBox="0 0 449 513" fill="none" xmlns="http://www.w3.org/2000/svg">
<g clip-path="url(#clip0_104_2302)">
<path d="M237.4 0.699829C231.9 -0.00017111 226.4 2.09983 222.9 6.39983C219.4 10.6998 218.3 16.4998 220.1 21.6998C222.9 29.8998 224.4 38.5998 224.4 47.7998C224.4 69.4998 215.9 84.9998 202.5 95.3998C188.7 106.2 168.5 112.4 144.7 112.4H128.5C93.2 112.4 64.5 141.1 64.5 176.4C64.5 188.6 67.9 199.9 73.8 209.6C32.2 216.7 0.5 252.9 0.5 296.5C0.5 337.5 28.5 371.9 66.3 381.7C61 363.2 67.3 343.2 82.5 331L242.5 203C260.1 188.9 285.1 189 302.7 203.2C320.3 217.4 325.5 241.8 315.5 262L286.2 320.5H304.5C324.9 320.5 343 333.4 349.8 352.6C353.5 363.2 353.3 374.4 349.8 384.5H360.5C409.1 384.5 448.5 345.1 448.5 296.5C448.5 252.9 416.8 216.7 375.2 209.7C381.1 200 384.5 188.6 384.5 176.5C384.5 141.2 355.8 112.5 320.5 112.5H319.1C320 107.1 320.5 101.6 320.5 95.8998C320.5 47.1998 284.4 6.99983 237.4 0.699829ZM282.5 228.1C276.7 223.4 268.3 223.4 262.4 228L102.4 356C97.1 360.2 95 367.4 97.3 373.8C99.6 380.2 105.6 384.5 112.4 384.5H182.5L130.2 489.3C126.8 496 128.6 504.2 134.5 508.9C140.4 513.6 148.7 513.6 154.6 509L314.6 381C319.9 376.8 322 369.6 319.7 363.2C317.4 356.8 311.4 352.5 304.6 352.5H234.4L286.8 247.7C290.2 241 288.4 232.8 282.5 228.1Z" fill="#47535F"/>
</g>
<defs>
<clipPath id="clip0_104_2302">
<rect width="448" height="512" fill="white" transform="translate(0.5 0.5)"/>
</clipPath>
</defs>
</svg>
