<svg width="513" height="513" viewBox="0 0 513 513" fill="none" xmlns="http://www.w3.org/2000/svg">
<g clip-path="url(#clip0_104_2300)">
<path d="M254.9 7.09999C258.4 2.79999 263.9 0.599993 269.4 1.39999C316.3 7.69999 352.5 47.9 352.5 96.5C352.5 107.7 350.6 118.5 347 128.5H352.5C387.8 128.5 416.5 157.2 416.5 192.5C416.5 211.6 408.1 228.8 394.8 240.5H408.5C448.3 240.5 480.5 272.7 480.5 312.5C480.5 335.7 469.5 356.3 452.5 369.5C486.6 375.2 512.5 404.8 512.5 440.5C512.5 480.3 480.3 512.5 440.5 512.5H72.5C32.7 512.5 0.5 480.3 0.5 440.5C0.5 404.8 26.4 375.2 60.5 369.5C43.5 356.3 32.5 335.7 32.5 312.5C32.5 272.7 64.7 240.5 104.5 240.5H118.2C104.9 228.8 96.5 211.6 96.5 192.5C96.5 157.2 125.2 128.5 160.5 128.5H176.7C220.8 128.4 256.5 92.6 256.5 48.5C256.5 39.3 255 30.6 252.2 22.4C250.4 17.2 251.4 11.3 255 6.99999L254.9 7.09999Z" fill="#47535F"/>
</g>
<defs>
<clipPath id="clip0_104_2300">
<rect width="512" height="512" fill="white" transform="translate(0.5 0.5)"/>
</clipPath>
</defs>
</svg>
