<svg width="513" height="513" viewBox="0 0 513 513" fill="none" xmlns="http://www.w3.org/2000/svg">
<g clip-path="url(#clip0_104_2304)">
<path d="M288.5 32.5C288.5 14.8 274.2 0.5 256.5 0.5C238.8 0.5 224.5 14.8 224.5 32.5V256.5C224.5 274.2 238.8 288.5 256.5 288.5C274.2 288.5 288.5 274.2 288.5 256.5V32.5ZM144 121.1C157.6 109.8 159.4 89.6 148.1 76C136.8 62.4 116.6 60.6 103 71.9C50.2 115.9 16.5 182.3 16.5 256.5C16.5 389 124 496.5 256.5 496.5C389 496.5 496.5 389 496.5 256.5C496.5 182.3 462.7 115.9 409.9 71.9C396.3 60.6 376.1 62.5 364.8 76C353.5 89.5 355.4 109.8 368.9 121.1C407.8 153.4 432.4 202.1 432.4 256.5C432.4 353.7 353.6 432.5 256.4 432.5C159.2 432.5 80.4 353.7 80.4 256.5C80.4 202.1 105.1 153.4 143.9 121.1H144Z" fill="#47535F"/>
</g>
<defs>
<clipPath id="clip0_104_2304">
<rect width="512" height="512" fill="white" transform="translate(0.5 0.5)"/>
</clipPath>
</defs>
</svg>
