<svg width="449" height="513" viewBox="0 0 449 513" fill="none" xmlns="http://www.w3.org/2000/svg">
<g clip-path="url(#clip0_104_2306)">
<path d="M32.5 0.5C14.8 0.5 0.5 14.8 0.5 32.5V192.5V288.5C0.5 306.2 14.8 320.5 32.5 320.5C50.2 320.5 64.5 306.2 64.5 288.5V224.5H115.2L243.2 352.5L137.9 457.9C125.4 470.4 125.4 490.7 137.9 503.2C150.4 515.7 170.7 515.7 183.2 503.2L288.5 397.8L393.9 503.1C406.4 515.6 426.7 515.6 439.2 503.1C451.7 490.6 451.7 470.3 439.2 457.8L333.8 352.5L439.1 247.1C451.6 234.6 451.6 214.3 439.1 201.8C426.6 189.3 406.3 189.3 393.8 201.8L288.5 307.2L202.7 221.4C251.9 209.6 288.5 165.3 288.5 112.5C288.5 50.6 238.4 0.5 176.5 0.5H32.5ZM176.5 160.5H64.5V64.5H176.5C203 64.5 224.5 86 224.5 112.5C224.5 139 203 160.5 176.5 160.5Z" fill="#47535F"/>
</g>
<defs>
<clipPath id="clip0_104_2306">
<rect width="448" height="512" fill="white" transform="translate(0.5 0.5)"/>
</clipPath>
</defs>
</svg>
