<svg width="385" height="513" viewBox="0 0 385 513" fill="none" xmlns="http://www.w3.org/2000/svg">
<g clip-path="url(#clip0_104_2308)">
<path d="M0.5 32.5C0.5 14.8 14.8 0.5 32.5 0.5H352.5C370.2 0.5 384.5 14.8 384.5 32.5V64.5C384.5 82.2 370.2 96.5 352.5 96.5H32.5C14.8 96.5 0.5 82.2 0.5 64.5V32.5ZM32.5 128.5H352.5V448.5C352.5 483.8 323.8 512.5 288.5 512.5H96.5C61.2 512.5 32.5 483.8 32.5 448.5V416.5H144.5C153.3 416.5 160.5 409.3 160.5 400.5C160.5 391.7 153.3 384.5 144.5 384.5H32.5V320.5H144.5C153.3 320.5 160.5 313.3 160.5 304.5C160.5 295.7 153.3 288.5 144.5 288.5H32.5V224.5H144.5C153.3 224.5 160.5 217.3 160.5 208.5C160.5 199.7 153.3 192.5 144.5 192.5H32.5V128.5Z" fill="#47535F"/>
</g>
<defs>
<clipPath id="clip0_104_2308">
<rect width="384" height="512" fill="white" transform="translate(0.5 0.5)"/>
</clipPath>
</defs>
</svg>
