<svg width="385" height="513" viewBox="0 0 385 513" fill="none" xmlns="http://www.w3.org/2000/svg">
<g clip-path="url(#clip0_104_2310)">
<path d="M0.5 32.5C0.5 14.8 14.8 0.5 32.5 0.5H352.5C370.2 0.5 384.5 14.8 384.5 32.5V64.5C384.5 82.2 370.2 96.5 352.5 96.5H32.5C14.8 96.5 0.5 82.2 0.5 64.5V32.5ZM32.5 128.5H352.5V448.5C352.5 483.8 323.8 512.5 288.5 512.5H96.5C61.2 512.5 32.5 483.8 32.5 448.5V128.5ZM160.5 240.5V288.5H112.5C103.7 288.5 96.5 295.7 96.5 304.5V336.5C96.5 345.3 103.7 352.5 112.5 352.5H160.5V400.5C160.5 409.3 167.7 416.5 176.5 416.5H208.5C217.3 416.5 224.5 409.3 224.5 400.5V352.5H272.5C281.3 352.5 288.5 345.3 288.5 336.5V304.5C288.5 295.7 281.3 288.5 272.5 288.5H224.5V240.5C224.5 231.7 217.3 224.5 208.5 224.5H176.5C167.7 224.5 160.5 231.7 160.5 240.5Z" fill="#47535F"/>
</g>
<defs>
<clipPath id="clip0_104_2310">
<rect width="384" height="512" fill="white" transform="translate(0.5 0.5)"/>
</clipPath>
</defs>
</svg>
