<svg width="513" height="513" viewBox="0 0 513 513" fill="none" xmlns="http://www.w3.org/2000/svg">
<g clip-path="url(#clip0_104_2312)">
<path d="M128.5 0.5C93.2 0.5 64.5 29.2 64.5 64.5V160.5H128.5V64.5H355.2L384.5 93.8V160.5H448.5V93.8C448.5 76.8 441.8 60.5 429.8 48.5L400.5 19.2C388.5 7.2 372.2 0.5 355.2 0.5H128.5ZM384.5 352.5V384.5V448.5H128.5V384.5V368.5V352.5H384.5ZM448.5 384.5H480.5C498.2 384.5 512.5 370.2 512.5 352.5V256.5C512.5 221.2 483.8 192.5 448.5 192.5H64.5C29.2 192.5 0.5 221.2 0.5 256.5V352.5C0.5 370.2 14.8 384.5 32.5 384.5H64.5V448.5C64.5 483.8 93.2 512.5 128.5 512.5H384.5C419.8 512.5 448.5 483.8 448.5 448.5V384.5ZM432.5 248.5C438.865 248.5 444.97 251.029 449.471 255.529C453.971 260.03 456.5 266.135 456.5 272.5C456.5 278.865 453.971 284.97 449.471 289.471C444.97 293.971 438.865 296.5 432.5 296.5C426.135 296.5 420.03 293.971 415.529 289.471C411.029 284.97 408.5 278.865 408.5 272.5C408.5 266.135 411.029 260.03 415.529 255.529C420.03 251.029 426.135 248.5 432.5 248.5Z" fill="#47535F"/>
</g>
<defs>
<clipPath id="clip0_104_2312">
<rect width="512" height="512" fill="white" transform="translate(0.5 0.5)"/>
</clipPath>
</defs>
</svg>
