<svg width="449" height="513" viewBox="0 0 449 513" fill="none" xmlns="http://www.w3.org/2000/svg">
<g clip-path="url(#clip0_104_2316)">
<path d="M128.5 32.5V128.5H256.5V96.5H316.6C320.8 96.5 324.9 98.2 327.9 101.2L361.8 135.1C374.3 147.6 394.6 147.6 407.1 135.1C419.6 122.6 419.6 102.3 407.1 89.8L373.2 55.9C358.2 40.9 337.8 32.5 316.6 32.5H256.5C256.5 14.8 242.2 0.5 224.5 0.5H160.5C142.8 0.5 128.5 14.8 128.5 32.5ZM117.9 160.5C84.5999 160.5 56.8999 186 54.0999 219.2L35.4999 443.2C32.3999 480.5 61.7999 512.5 99.2999 512.5H285.7C323.1 512.5 352.6 480.5 349.5 443.2L330.8 219.2C328 186 300.3 160.5 267 160.5H117.9ZM256.5 360.5C256.5 395.8 227.8 416.5 192.5 416.5C157.2 416.5 128.5 395.8 128.5 360.5C128.5 328 165.5 279.6 179.4 262.6C182.6 258.7 187.5 256.5 192.5 256.5C197.5 256.5 202.4 258.7 205.6 262.6C219.5 279.6 256.5 328 256.5 360.5Z" fill="#47535F"/>
</g>
<defs>
<clipPath id="clip0_104_2316">
<rect width="448" height="512" fill="white" transform="translate(0.5 0.5)"/>
</clipPath>
</defs>
</svg>
