<svg width="513" height="513" viewBox="0 0 513 513" fill="none" xmlns="http://www.w3.org/2000/svg">
<g clip-path="url(#clip0_104_2318)">
<path d="M192.5 105.3C192.5 96.1 186.7 88 179.3 82.5C167.7 73.8 160.5 61.8 160.5 48.5C160.5 22 189.2 0.5 224.5 0.5C259.8 0.5 288.5 22 288.5 48.5C288.5 61.8 281.3 73.8 269.7 82.5C262.3 88 256.5 96.1 256.5 105.3C256.5 118.1 266.9 128.5 279.7 128.5H336.5C363 128.5 384.5 150 384.5 176.5V233.3C384.5 246.1 394.9 256.5 407.7 256.5C416.9 256.5 425 250.7 430.5 243.3C439.2 231.7 451.2 224.5 464.5 224.5C491 224.5 512.5 253.2 512.5 288.5C512.5 323.8 491 352.5 464.5 352.5C451.2 352.5 439.2 345.3 430.5 333.7C425 326.3 416.9 320.5 407.7 320.5C394.9 320.5 384.5 330.9 384.5 343.7V464.5C384.5 491 363 512.5 336.5 512.5H279.7C266.9 512.5 256.5 502.1 256.5 489.3C256.5 480.1 262.3 472 269.7 466.5C281.3 457.8 288.5 445.8 288.5 432.5C288.5 406 259.8 384.5 224.5 384.5C189.2 384.5 160.5 406 160.5 432.5C160.5 445.8 167.7 457.8 179.3 466.5C186.7 472 192.5 480.1 192.5 489.3C192.5 502.1 182.1 512.5 169.3 512.5H48.5C22 512.5 0.5 491 0.5 464.5V343.7C0.5 330.9 10.9 320.5 23.7 320.5C32.9 320.5 41 326.3 46.5 333.7C55.2 345.3 67.2 352.5 80.5 352.5C107 352.5 128.5 323.8 128.5 288.5C128.5 253.2 107 224.5 80.5 224.5C67.2 224.5 55.2 231.7 46.5 243.3C41 250.7 32.9 256.5 23.7 256.5C10.9 256.5 0.5 246.1 0.5 233.3V176.5C0.5 150 22 128.5 48.5 128.5H169.3C182.1 128.5 192.5 118.1 192.5 105.3Z" fill="#47535F"/>
</g>
<defs>
<clipPath id="clip0_104_2318">
<rect width="512" height="512" fill="white" transform="translate(0.5 0.5)"/>
</clipPath>
</defs>
</svg>
