<svg width="449" height="513" viewBox="0 0 449 513" fill="none" xmlns="http://www.w3.org/2000/svg">
<g clip-path="url(#clip0_104_2320)">
<path d="M64.5 256.5C64.5 344.9 136.1 416.5 224.5 416.5C253.4 416.5 280.5 408.8 303.9 395.4L231.9 309C220.6 295.4 222.4 275.2 236 263.9C249.6 252.6 269.8 254.4 281.1 268L352 353.1C372.4 326.3 384.5 292.8 384.5 256.5C384.5 168.1 312.9 96.5 224.5 96.5C136.1 96.5 64.5 168.1 64.5 256.5ZM345.4 445.1C310.5 467.5 269 480.5 224.5 480.5C100.8 480.5 0.5 380.2 0.5 256.5C0.5 132.8 100.8 32.5 224.5 32.5C348.2 32.5 448.5 132.8 448.5 256.5C448.5 312.6 427.9 363.9 393.8 403.2L441.1 460C452.4 473.6 450.6 493.8 437 505.1C423.4 516.4 403.2 514.6 391.9 501L345.3 445.1H345.4Z" fill="#47535F"/>
</g>
<defs>
<clipPath id="clip0_104_2320">
<rect width="448" height="512" fill="white" transform="translate(0.5 0.5)"/>
</clipPath>
</defs>
</svg>
