<svg width="449" height="513" viewBox="0 0 449 513" fill="none" xmlns="http://www.w3.org/2000/svg">
<g clip-path="url(#clip0_104_2322)">
<path d="M0.5 80.5C0.5 54 22 32.5 48.5 32.5H144.5C171 32.5 192.5 54 192.5 80.5V176.5C192.5 203 171 224.5 144.5 224.5H48.5C22 224.5 0.5 203 0.5 176.5V80.5ZM64.5 96.5V160.5H128.5V96.5H64.5ZM0.5 336.5C0.5 310 22 288.5 48.5 288.5H144.5C171 288.5 192.5 310 192.5 336.5V432.5C192.5 459 171 480.5 144.5 480.5H48.5C22 480.5 0.5 459 0.5 432.5V336.5ZM64.5 352.5V416.5H128.5V352.5H64.5ZM304.5 32.5H400.5C427 32.5 448.5 54 448.5 80.5V176.5C448.5 203 427 224.5 400.5 224.5H304.5C278 224.5 256.5 203 256.5 176.5V80.5C256.5 54 278 32.5 304.5 32.5ZM384.5 96.5H320.5V160.5H384.5V96.5ZM256.5 304.5C256.5 295.7 263.7 288.5 272.5 288.5H336.5C345.3 288.5 352.5 295.7 352.5 304.5C352.5 313.3 359.7 320.5 368.5 320.5H400.5C409.3 320.5 416.5 313.3 416.5 304.5C416.5 295.7 423.7 288.5 432.5 288.5C441.3 288.5 448.5 295.7 448.5 304.5V400.5C448.5 409.3 441.3 416.5 432.5 416.5H368.5C359.7 416.5 352.5 409.3 352.5 400.5C352.5 391.7 345.3 384.5 336.5 384.5C327.7 384.5 320.5 391.7 320.5 400.5V464.5C320.5 473.3 313.3 480.5 304.5 480.5H272.5C263.7 480.5 256.5 473.3 256.5 464.5V304.5ZM368.5 480.5C364.257 480.5 360.187 478.814 357.186 475.814C354.186 472.813 352.5 468.743 352.5 464.5C352.5 460.257 354.186 456.187 357.186 453.186C360.187 450.186 364.257 448.5 368.5 448.5C372.743 448.5 376.813 450.186 379.814 453.186C382.814 456.187 384.5 460.257 384.5 464.5C384.5 468.743 382.814 472.813 379.814 475.814C376.813 478.814 372.743 480.5 368.5 480.5ZM432.5 480.5C428.257 480.5 424.187 478.814 421.186 475.814C418.186 472.813 416.5 468.743 416.5 464.5C416.5 460.257 418.186 456.187 421.186 453.186C424.187 450.186 428.257 448.5 432.5 448.5C436.743 448.5 440.813 450.186 443.814 453.186C446.814 456.187 448.5 460.257 448.5 464.5C448.5 468.743 446.814 472.813 443.814 475.814C440.813 478.814 436.743 480.5 432.5 480.5Z" fill="#47535F"/>
</g>
<defs>
<clipPath id="clip0_104_2322">
<rect width="448" height="512" fill="white" transform="translate(0.5 0.5)"/>
</clipPath>
</defs>
</svg>
