<svg width="321" height="513" viewBox="0 0 321 513" fill="none" xmlns="http://www.w3.org/2000/svg">
<path d="M80.5 160.5C80.5 125.2 109.2 96.5 144.5 96.5H176.5C211.8 96.5 240.5 125.2 240.5 160.5V164.1C240.5 185.9 229.4 206.2 211.1 217.9L168.9 245C143.7 261.2 128.5 289.1 128.5 319V320.5C128.5 338.2 142.8 352.5 160.5 352.5C178.2 352.5 192.5 338.2 192.5 320.5V319.1C192.5 310.9 196.7 303.3 203.5 298.9L245.7 271.8C282.3 248.2 304.5 207.7 304.5 164.1V160.5C304.5 89.8 247.2 32.5 176.5 32.5H144.5C73.8 32.5 16.5 89.8 16.5 160.5C16.5 178.2 30.8 192.5 48.5 192.5C66.2 192.5 80.5 178.2 80.5 160.5ZM160.5 480.5C171.109 480.5 181.283 476.286 188.784 468.784C196.286 461.283 200.5 451.109 200.5 440.5C200.5 429.891 196.286 419.717 188.784 412.216C181.283 404.714 171.109 400.5 160.5 400.5C149.891 400.5 139.717 404.714 132.216 412.216C124.714 419.717 120.5 429.891 120.5 440.5C120.5 451.109 124.714 461.283 132.216 468.784C139.717 476.286 149.891 480.5 160.5 480.5Z" fill="#47535F"/>
</svg>
