<svg width="449" height="513" viewBox="0 0 449 513" fill="none" xmlns="http://www.w3.org/2000/svg">
<g clip-path="url(#clip0_104_2326)">
<path d="M0.5 216.5C0.5 150.2 54.2 96.5 120.5 96.5H128.5C146.2 96.5 160.5 110.8 160.5 128.5C160.5 146.2 146.2 160.5 128.5 160.5H120.5C89.6 160.5 64.5 185.6 64.5 216.5V224.5H128.5C163.8 224.5 192.5 253.2 192.5 288.5V352.5C192.5 387.8 163.8 416.5 128.5 416.5H64.5C29.2 416.5 0.5 387.8 0.5 352.5V320.5V288.5V216.5ZM256.5 216.5C256.5 150.2 310.2 96.5 376.5 96.5H384.5C402.2 96.5 416.5 110.8 416.5 128.5C416.5 146.2 402.2 160.5 384.5 160.5H376.5C345.6 160.5 320.5 185.6 320.5 216.5V224.5H384.5C419.8 224.5 448.5 253.2 448.5 288.5V352.5C448.5 387.8 419.8 416.5 384.5 416.5H320.5C285.2 416.5 256.5 387.8 256.5 352.5V320.5V288.5V216.5Z" fill="#47535F"/>
</g>
<defs>
<clipPath id="clip0_104_2326">
<rect width="448" height="512" fill="white" transform="translate(0.5 0.5)"/>
</clipPath>
</defs>
</svg>
