<svg width="449" height="513" viewBox="0 0 449 513" fill="none" xmlns="http://www.w3.org/2000/svg">
<g clip-path="url(#clip0_104_2328)">
<path d="M448.5 296.5C448.5 362.8 394.8 416.5 328.5 416.5H320.5C302.8 416.5 288.5 402.2 288.5 384.5C288.5 366.8 302.8 352.5 320.5 352.5H328.5C359.4 352.5 384.5 327.4 384.5 296.5V288.5H320.5C285.2 288.5 256.5 259.8 256.5 224.5V160.5C256.5 125.2 285.2 96.5 320.5 96.5H384.5C419.8 96.5 448.5 125.2 448.5 160.5V192.5V224.5V296.5ZM192.5 296.5C192.5 362.8 138.8 416.5 72.5 416.5H64.5C46.8 416.5 32.5 402.2 32.5 384.5C32.5 366.8 46.8 352.5 64.5 352.5H72.5C103.4 352.5 128.5 327.4 128.5 296.5V288.5H64.5C29.2 288.5 0.5 259.8 0.5 224.5V160.5C0.5 125.2 29.2 96.5 64.5 96.5H128.5C163.8 96.5 192.5 125.2 192.5 160.5V192.5V224.5V296.5Z" fill="#47535F"/>
</g>
<defs>
<clipPath id="clip0_104_2328">
<rect width="448" height="512" fill="white" transform="translate(0.5 0.5)"/>
</clipPath>
</defs>
</svg>
