<svg width="321" height="513" viewBox="0 0 321 513" fill="none" xmlns="http://www.w3.org/2000/svg">
<g clip-path="url(#clip0_104_2330)">
<path d="M64.5 32.5C29.2 32.5 0.5 61.2 0.5 96.5V288.5V448.5C0.5 466.2 14.8 480.5 32.5 480.5C50.2 480.5 64.5 466.2 64.5 448.5V320.5H159.8L262.3 466.9C272.4 481.4 292.4 484.9 306.9 474.8C321.4 464.7 324.9 444.7 314.8 430.2L230.6 310C283.3 288.6 320.5 236.9 320.5 176.5C320.5 97 256 32.5 176.5 32.5H64.5ZM176.5 256.5H64.5V96.5H176.5C220.7 96.5 256.5 132.3 256.5 176.5C256.5 220.7 220.7 256.5 176.5 256.5Z" fill="#47535F"/>
</g>
<defs>
<clipPath id="clip0_104_2330">
<rect width="320" height="512" fill="white" transform="translate(0.5 0.5)"/>
</clipPath>
</defs>
</svg>
