<svg width="513" height="513" viewBox="0 0 513 513" fill="none" xmlns="http://www.w3.org/2000/svg">
<g clip-path="url(#clip0_104_2334)">
<path d="M495.3 47.5C508 43.8 515.3 30.4 511.6 17.7C507.9 4.99999 494.5 -2.30002 481.7 1.49998L52.2 127.4C42.8 130.1 34.3 134.7 27.1 140.6C11 152.2 0.5 171.1 0.5 192.5V196.5V304.5V448.5C0.5 483.8 29.2 512.5 64.5 512.5H448.5C483.8 512.5 512.5 483.8 512.5 448.5V192.5C512.5 157.2 483.8 128.5 448.5 128.5H219L495.3 47.5ZM368.5 240.5C389.717 240.5 410.066 248.929 425.069 263.931C440.071 278.934 448.5 299.283 448.5 320.5C448.5 341.717 440.071 362.066 425.069 377.069C410.066 392.071 389.717 400.5 368.5 400.5C347.283 400.5 326.934 392.071 311.931 377.069C296.929 362.066 288.5 341.717 288.5 320.5C288.5 299.283 296.929 278.934 311.931 263.931C326.934 248.929 347.283 240.5 368.5 240.5ZM80.5 256.5C80.5 247.7 87.7 240.5 96.5 240.5H192.5C201.3 240.5 208.5 247.7 208.5 256.5C208.5 265.3 201.3 272.5 192.5 272.5H96.5C87.7 272.5 80.5 265.3 80.5 256.5ZM64.5 320.5C64.5 311.7 71.7 304.5 80.5 304.5H208.5C217.3 304.5 224.5 311.7 224.5 320.5C224.5 329.3 217.3 336.5 208.5 336.5H80.5C71.7 336.5 64.5 329.3 64.5 320.5ZM80.5 384.5C80.5 375.7 87.7 368.5 96.5 368.5H192.5C201.3 368.5 208.5 375.7 208.5 384.5C208.5 393.3 201.3 400.5 192.5 400.5H96.5C87.7 400.5 80.5 393.3 80.5 384.5Z" fill="#47535F"/>
</g>
<defs>
<clipPath id="clip0_104_2334">
<rect width="512" height="512" fill="white" transform="translate(0.5 0.5)"/>
</clipPath>
</defs>
</svg>
