<svg width="513" height="513" viewBox="0 0 513 513" fill="none" xmlns="http://www.w3.org/2000/svg">
<g clip-path="url(#clip0_104_2332)">
<path d="M216.5 187.2C192.6 201 176.5 226.9 176.5 256.5H32.5C14.7999 256.5 0.299951 242.1 2.49995 224.6C11.2 154.5 48.3 93.2001 101.8 52.5001C115.9 41.8001 135.6 47.2001 144.5 62.5001L216.5 187.2ZM256.5 336.5C271.1 336.5 284.7 332.6 296.5 325.8L368.5 450.6C377.3 465.9 372.2 485.7 355.9 492.5C325.3 505.4 291.7 512.5 256.5 512.5C221.3 512.5 187.6 505.4 157.1 492.5C140.8 485.6 135.7 465.9 144.5 450.6L216.5 325.8C228.3 332.6 241.9 336.5 256.5 336.5ZM480.5 256.5H336.5C336.5 226.9 320.4 201 296.5 187.2L368.5 62.5001C377.3 47.2001 397.1 41.8001 411.2 52.5001C464.8 93.2001 501.8 154.5 510.6 224.6C512.8 242.1 498.2 256.5 480.6 256.5H480.5ZM256.5 208.5C269.23 208.5 281.439 213.557 290.441 222.559C299.443 231.561 304.5 243.77 304.5 256.5C304.5 269.23 299.443 281.439 290.441 290.441C281.439 299.443 269.23 304.5 256.5 304.5C243.77 304.5 231.561 299.443 222.559 290.441C213.557 281.439 208.5 269.23 208.5 256.5C208.5 243.77 213.557 231.561 222.559 222.559C231.561 213.557 243.77 208.5 256.5 208.5Z" fill="#47535F"/>
</g>
<defs>
<clipPath id="clip0_104_2332">
<rect width="512" height="512" fill="white" transform="translate(0.5 0.5)"/>
</clipPath>
</defs>
</svg>
