<svg width="641" height="513" viewBox="0 0 641 513" fill="none" xmlns="http://www.w3.org/2000/svg">
<g clip-path="url(#clip0_104_2336)">
<path d="M320.5 96.5C179.1 96.5 64.5 211.1 64.5 352.5V448.5C64.5 466.2 50.2 480.5 32.5 480.5C14.8 480.5 0.5 466.2 0.5 448.5V352.5C0.5 175.8 143.8 32.5 320.5 32.5C497.2 32.5 640.5 175.8 640.5 352.5V448.5C640.5 466.2 626.2 480.5 608.5 480.5C590.8 480.5 576.5 466.2 576.5 448.5V352.5C576.5 211.1 461.9 96.5 320.5 96.5ZM320.5 288.5C285.2 288.5 256.5 317.2 256.5 352.5V448.5C256.5 466.2 242.2 480.5 224.5 480.5C206.8 480.5 192.5 466.2 192.5 448.5V352.5C192.5 281.8 249.8 224.5 320.5 224.5C391.2 224.5 448.5 281.8 448.5 352.5V448.5C448.5 466.2 434.2 480.5 416.5 480.5C398.8 480.5 384.5 466.2 384.5 448.5V352.5C384.5 317.2 355.8 288.5 320.5 288.5ZM160.5 352.5V448.5C160.5 466.2 146.2 480.5 128.5 480.5C110.8 480.5 96.5 466.2 96.5 448.5V352.5C96.5 228.8 196.8 128.5 320.5 128.5C444.2 128.5 544.5 228.8 544.5 352.5V448.5C544.5 466.2 530.2 480.5 512.5 480.5C494.8 480.5 480.5 466.2 480.5 448.5V352.5C480.5 264.1 408.9 192.5 320.5 192.5C232.1 192.5 160.5 264.1 160.5 352.5Z" fill="#47535F"/>
</g>
<defs>
<clipPath id="clip0_104_2336">
<rect width="640" height="512" fill="white" transform="translate(0.5 0.5)"/>
</clipPath>
</defs>
</svg>
