<svg width="641" height="513" viewBox="0 0 641 513" fill="none" xmlns="http://www.w3.org/2000/svg">
<g clip-path="url(#clip0_104_2338)">
<path d="M354.3 54.5999L330.7 6.79991C326.8 -1.50009 314.6 -1.80009 310.3 6.79991L286.7 54.5999L234.4 62.0999C225.1 63.4999 221.1 74.9999 228 81.8999L266 118.9L257 171C255.6 180.3 265.2 187.5 273.8 183.2L320.7 158.4L367.3 182.8C375.9 187.1 385.6 179.9 384.1 170.6L375.1 118.5L413.1 81.8999C419.9 75.0999 416 63.5999 406.7 62.0999L354.4 54.5999H354.3ZM256.5 256.5C238.8 256.5 224.5 270.8 224.5 288.5V480.5C224.5 498.2 238.8 512.5 256.5 512.5H384.5C402.2 512.5 416.5 498.2 416.5 480.5V288.5C416.5 270.8 402.2 256.5 384.5 256.5H256.5ZM32.5 320.5C14.8 320.5 0.5 334.8 0.5 352.5V480.5C0.5 498.2 14.8 512.5 32.5 512.5H160.5C178.2 512.5 192.5 498.2 192.5 480.5V352.5C192.5 334.8 178.2 320.5 160.5 320.5H32.5ZM448.5 416.5V480.5C448.5 498.2 462.8 512.5 480.5 512.5H608.5C626.2 512.5 640.5 498.2 640.5 480.5V416.5C640.5 398.8 626.2 384.5 608.5 384.5H480.5C462.8 384.5 448.5 398.8 448.5 416.5Z" fill="#47535F"/>
</g>
<defs>
<clipPath id="clip0_104_2338">
<rect width="640" height="512" fill="white" transform="translate(0.5 0.5)"/>
</clipPath>
</defs>
</svg>
