<svg width="385" height="513" viewBox="0 0 385 513" fill="none" xmlns="http://www.w3.org/2000/svg">
<g clip-path="url(#clip0_104_2340)">
<path d="M14.5 2.69982C23 -1.20018 33 0.199818 40.1 6.29982L80.5 40.8998L120.9 6.29982C129.9 -1.40018 143.2 -1.40018 152.1 6.29982L192.5 40.8998L232.9 6.29982C241.9 -1.40018 255.2 -1.40018 264.1 6.29982L304.5 40.8998L344.9 6.29982C352 0.199818 362 -1.20018 370.5 2.69982C379 6.59982 384.5 15.0998 384.5 24.4998V488.5C384.5 497.9 379 506.4 370.5 510.3C362 514.2 352 512.8 344.9 506.7L304.5 472.1L264.1 506.7C255.1 514.4 241.8 514.4 232.9 506.7L192.5 472.1L152.1 506.7C143.1 514.4 129.8 514.4 120.9 506.7L80.5 472.1L40.1 506.7C33 512.8 23 514.2 14.5 510.3C6 506.4 0.5 497.9 0.5 488.5V24.4998C0.5 15.0998 6 6.59982 14.5 2.69982ZM96.5 144.5C87.7 144.5 80.5 151.7 80.5 160.5C80.5 169.3 87.7 176.5 96.5 176.5H288.5C297.3 176.5 304.5 169.3 304.5 160.5C304.5 151.7 297.3 144.5 288.5 144.5H96.5ZM80.5 352.5C80.5 361.3 87.7 368.5 96.5 368.5H288.5C297.3 368.5 304.5 361.3 304.5 352.5C304.5 343.7 297.3 336.5 288.5 336.5H96.5C87.7 336.5 80.5 343.7 80.5 352.5ZM96.5 240.5C87.7 240.5 80.5 247.7 80.5 256.5C80.5 265.3 87.7 272.5 96.5 272.5H288.5C297.3 272.5 304.5 265.3 304.5 256.5C304.5 247.7 297.3 240.5 288.5 240.5H96.5Z" fill="#47535F"/>
</g>
<defs>
<clipPath id="clip0_104_2340">
<rect width="384" height="512" fill="white" transform="translate(0.5 0.5)"/>
</clipPath>
</defs>
</svg>
