<svg width="513" height="513" viewBox="0 0 513 513" fill="none" xmlns="http://www.w3.org/2000/svg">
<g clip-path="url(#clip0_104_2342)">
<path d="M0.5 256.5C0.5 188.605 27.4714 123.49 75.4807 75.4807C123.49 27.4714 188.605 0.5 256.5 0.5C324.395 0.5 389.51 27.4714 437.519 75.4807C485.529 123.49 512.5 188.605 512.5 256.5C512.5 324.395 485.529 389.51 437.519 437.519C389.51 485.529 324.395 512.5 256.5 512.5C188.605 512.5 123.49 485.529 75.4807 437.519C27.4714 389.51 0.5 324.395 0.5 256.5ZM256.5 160.5C281.961 160.5 306.379 170.614 324.382 188.618C342.386 206.621 352.5 231.039 352.5 256.5C352.5 281.961 342.386 306.379 324.382 324.382C306.379 342.386 281.961 352.5 256.5 352.5C231.039 352.5 206.621 342.386 188.618 324.382C170.614 306.379 160.5 281.961 160.5 256.5C160.5 231.039 170.614 206.621 188.618 188.618C206.621 170.614 231.039 160.5 256.5 160.5ZM256.5 384.5C290.448 384.5 323.005 371.014 347.01 347.01C371.014 323.005 384.5 290.448 384.5 256.5C384.5 222.552 371.014 189.995 347.01 165.99C323.005 141.986 290.448 128.5 256.5 128.5C222.552 128.5 189.995 141.986 165.99 165.99C141.986 189.995 128.5 222.552 128.5 256.5C128.5 290.448 141.986 323.005 165.99 347.01C189.995 371.014 222.552 384.5 256.5 384.5ZM256.5 288.5C264.987 288.5 273.126 285.129 279.127 279.127C285.129 273.126 288.5 264.987 288.5 256.5C288.5 248.013 285.129 239.874 279.127 233.873C273.126 227.871 264.987 224.5 256.5 224.5C248.013 224.5 239.874 227.871 233.873 233.873C227.871 239.874 224.5 248.013 224.5 256.5C224.5 264.987 227.871 273.126 233.873 279.127C239.874 285.129 248.013 288.5 256.5 288.5Z" fill="#47535F"/>
</g>
<defs>
<clipPath id="clip0_104_2342">
<rect width="512" height="512" fill="white" transform="translate(0.5 0.5)"/>
</clipPath>
</defs>
</svg>
