<svg width="513" height="513" viewBox="0 0 513 513" fill="none" xmlns="http://www.w3.org/2000/svg">
<g clip-path="url(#clip0_104_2348)">
<path d="M64.5 32.5C29.2 32.5 0.5 61.2 0.5 96.5V416.5C0.5 451.8 29.2 480.5 64.5 480.5H448.5C483.8 480.5 512.5 451.8 512.5 416.5V96.5C512.5 61.2 483.8 32.5 448.5 32.5H64.5ZM175.5 175.5C184.9 166.1 200.1 166.1 209.4 175.5L256.4 222.5L303.4 175.5C312.8 166.1 328 166.1 337.3 175.5C346.6 184.9 346.7 200.1 337.3 209.4L290.3 256.4L337.3 303.4C346.7 312.8 346.7 328 337.3 337.3C327.9 346.6 312.7 346.7 303.4 337.3L256.4 290.3L209.4 337.3C200 346.7 184.8 346.7 175.5 337.3C166.2 327.9 166.1 312.7 175.5 303.4L222.5 256.4L175.5 209.4C166.1 200 166.1 184.8 175.5 175.5Z" fill="#47535F"/>
</g>
<defs>
<clipPath id="clip0_104_2348">
<rect width="512" height="512" fill="white" transform="translate(0.5 0.5)"/>
</clipPath>
</defs>
</svg>
