<svg width="577" height="513" viewBox="0 0 577 513" fill="none" xmlns="http://www.w3.org/2000/svg">
<g clip-path="url(#clip0_104_2346)">
<path d="M0.5 96.5C0.5 61.2 29.2 32.5 64.5 32.5H512.5C547.8 32.5 576.5 61.2 576.5 96.5V416.5C576.5 451.8 547.8 480.5 512.5 480.5H64.5C29.2 480.5 0.5 451.8 0.5 416.5V96.5ZM128.5 288.5C136.987 288.5 145.126 285.129 151.127 279.127C157.129 273.126 160.5 264.987 160.5 256.5C160.5 248.013 157.129 239.874 151.127 233.873C145.126 227.871 136.987 224.5 128.5 224.5C120.013 224.5 111.874 227.871 105.873 233.873C99.8714 239.874 96.5 248.013 96.5 256.5C96.5 264.987 99.8714 273.126 105.873 279.127C111.874 285.129 120.013 288.5 128.5 288.5ZM160.5 160.5C160.5 152.013 157.129 143.874 151.127 137.873C145.126 131.871 136.987 128.5 128.5 128.5C120.013 128.5 111.874 131.871 105.873 137.873C99.8714 143.874 96.5 152.013 96.5 160.5C96.5 168.987 99.8714 177.126 105.873 183.127C111.874 189.129 120.013 192.5 128.5 192.5C136.987 192.5 145.126 189.129 151.127 183.127C157.129 177.126 160.5 168.987 160.5 160.5ZM128.5 384.5C136.987 384.5 145.126 381.129 151.127 375.127C157.129 369.126 160.5 360.987 160.5 352.5C160.5 344.013 157.129 335.874 151.127 329.873C145.126 323.871 136.987 320.5 128.5 320.5C120.013 320.5 111.874 323.871 105.873 329.873C99.8714 335.874 96.5 344.013 96.5 352.5C96.5 360.987 99.8714 369.126 105.873 375.127C111.874 381.129 120.013 384.5 128.5 384.5ZM224.5 136.5C211.2 136.5 200.5 147.2 200.5 160.5C200.5 173.8 211.2 184.5 224.5 184.5H448.5C461.8 184.5 472.5 173.8 472.5 160.5C472.5 147.2 461.8 136.5 448.5 136.5H224.5ZM224.5 232.5C211.2 232.5 200.5 243.2 200.5 256.5C200.5 269.8 211.2 280.5 224.5 280.5H448.5C461.8 280.5 472.5 269.8 472.5 256.5C472.5 243.2 461.8 232.5 448.5 232.5H224.5ZM224.5 328.5C211.2 328.5 200.5 339.2 200.5 352.5C200.5 365.8 211.2 376.5 224.5 376.5H448.5C461.8 376.5 472.5 365.8 472.5 352.5C472.5 339.2 461.8 328.5 448.5 328.5H224.5Z" fill="#47535F"/>
</g>
<defs>
<clipPath id="clip0_104_2346">
<rect width="576" height="512" fill="white" transform="translate(0.5 0.5)"/>
</clipPath>
</defs>
</svg>
