<svg width="577" height="513" viewBox="0 0 577 513" fill="none" xmlns="http://www.w3.org/2000/svg">
<g clip-path="url(#clip0_104_2344)">
<path d="M64.5 32.5C29.2 32.5 0.5 61.2 0.5 96.5V416.5C0.5 451.8 29.2 480.5 64.5 480.5H512.5C547.8 480.5 576.5 451.8 576.5 416.5V96.5C576.5 61.2 547.8 32.5 512.5 32.5H64.5ZM230 173.8L302 317.8C307.9 329.7 303.1 344.1 291.3 350C279.5 355.9 265 351.1 259.1 339.3L253.7 328.5H163.3L157.9 339.2C152 351.1 137.6 355.9 125.7 349.9C113.8 343.9 109 329.6 115 317.7L187 173.7C191.1 165.6 199.4 160.4 208.5 160.4C217.6 160.4 225.9 165.5 230 173.7V173.8ZM208.5 238.2L187.3 280.5H229.6L208.5 238.2ZM392.5 256.5C386.135 256.5 380.03 259.029 375.529 263.529C371.029 268.03 368.5 274.135 368.5 280.5C368.5 286.865 371.029 292.97 375.529 297.471C380.03 301.971 386.135 304.5 392.5 304.5C398.865 304.5 404.97 301.971 409.471 297.471C413.971 292.97 416.5 286.865 416.5 280.5C416.5 274.135 413.971 268.03 409.471 263.529C404.97 259.029 398.865 256.5 392.5 256.5ZM416.5 212.6V184.5C416.5 171.2 427.2 160.5 440.5 160.5C453.8 160.5 464.5 171.2 464.5 184.5V280.5V328.5C464.5 341.8 453.8 352.5 440.5 352.5C433.9 352.5 427.9 349.8 423.5 345.5C414.1 350 403.6 352.5 392.5 352.5C352.7 352.5 320.5 320.3 320.5 280.5C320.5 240.7 352.7 208.5 392.5 208.5C400.9 208.5 409 209.9 416.5 212.6Z" fill="#47535F"/>
</g>
<defs>
<clipPath id="clip0_104_2344">
<rect width="576" height="512" fill="white" transform="translate(0.5 0.5)"/>
</clipPath>
</defs>
</svg>
