<svg width="513" height="513" viewBox="0 0 513 513" fill="none" xmlns="http://www.w3.org/2000/svg">
<g clip-path="url(#clip0_104_2350)">
<path d="M175.2 45.6C192.7 17.5 223.5 0.5 256.5 0.5C289.5 0.5 320.3 17.5 337.8 45.6L376.4 107.3L403.4 91.7C411.8 86.8 422.3 87.5 430 93.4C437.7 99.3 441.1 109.3 438.6 118.7L415.2 206.1C411.8 218.9 398.6 226.5 385.8 223.1L298.4 199.7C289 197.2 282.1 189.3 280.8 179.7C279.5 170.1 284.2 160.6 292.6 155.8L321 139.4L283.5 79.5C277.7 70.2 267.5 64.5 256.5 64.5C245.5 64.5 235.3 70.2 229.5 79.5L212 107.5C202.8 122.3 183.4 127 168.4 118C153.1 108.8 148.2 88.8 157.7 73.6L175.2 45.6ZM430 252.4C445 243.4 464.4 248.1 473.6 262.9L498 302C507.4 317.1 512.4 334.4 512.6 352.2C512.9 405.3 469.9 448.6 416.8 448.6L320.5 448.5V480.5C320.5 490.2 314.7 499 305.7 502.7C296.7 506.4 286.4 504.4 279.5 497.5L215.5 433.5C206.1 424.1 206.1 408.9 215.5 399.6L279.5 335.6C286.4 328.7 296.7 326.7 305.7 330.4C314.7 334.1 320.5 342.9 320.5 352.6V384.6H416.7C434.3 384.6 448.6 370.2 448.5 352.6C448.5 346.7 446.8 340.9 443.7 335.9L419.3 296.8C409.8 281.6 414.6 261.6 430 252.4ZM65.4001 221.4L36.5001 204.7C28.1001 199.8 23.4001 190.4 24.7001 180.8C26.0001 171.2 32.9001 163.3 42.3001 160.8L129.7 137.4C142.5 134 155.7 141.6 159.1 154.4L182.5 241.7C185 251.1 181.6 261 173.9 267C166.2 273 155.7 273.6 147.3 268.7L120.8 253.4L69.3001 335.8C66.2001 340.8 64.5001 346.6 64.5001 352.5C64.4001 370.1 78.7001 384.5 96.3001 384.5H128.5C146.2 384.5 160.5 398.8 160.5 416.5C160.5 434.2 146.2 448.5 128.5 448.5H96.3001C43.2001 448.5 0.200095 405.3 0.500095 352.1C0.600095 334.3 5.6001 317 15.1001 301.9L65.4001 221.4Z" fill="#47535F"/>
</g>
<defs>
<clipPath id="clip0_104_2350">
<rect width="512" height="512" fill="white" transform="translate(0.5 0.5)"/>
</clipPath>
</defs>
</svg>
