<svg width="513" height="513" viewBox="0 0 513 513" fill="none" xmlns="http://www.w3.org/2000/svg">
<g clip-path="url(#clip0_104_2354)">
<path d="M0.5 224.5C0.5 242.2 14.8 256.5 32.5 256.5C50.2 256.5 64.5 242.2 64.5 224.5C64.5 171.5 107.5 128.5 160.5 128.5H320.5V160.5C320.5 173.4 328.3 185.1 340.3 190.1C352.3 195.1 366 192.3 375.2 183.2L439.2 119.2C451.7 106.7 451.7 86.4002 439.2 73.9002L375.2 9.90024C366 0.700238 352.3 -1.99976 340.3 3.00024C328.3 8.00024 320.5 19.6002 320.5 32.5002V64.5002H160.5C72.1 64.5002 0.5 136.1 0.5 224.5ZM512.5 288.5C512.5 270.8 498.2 256.5 480.5 256.5C462.8 256.5 448.5 270.8 448.5 288.5C448.5 341.5 405.5 384.5 352.5 384.5H192.5V352.5C192.5 339.6 184.7 327.9 172.7 322.9C160.7 317.9 147 320.7 137.8 329.8L73.8 393.8C61.3 406.3 61.3 426.6 73.8 439.1L137.8 503.1C147 512.3 160.7 515 172.7 510C184.7 505 192.5 493.4 192.5 480.4V448.5H352.5C440.9 448.5 512.5 376.9 512.5 288.5Z" fill="#47535F"/>
</g>
<defs>
<clipPath id="clip0_104_2354">
<rect width="512" height="512" fill="white" transform="translate(0.5 0.5)"/>
</clipPath>
</defs>
</svg>
