<svg width="513" height="513" viewBox="0 0 513 513" fill="none" xmlns="http://www.w3.org/2000/svg">
<g clip-path="url(#clip0_104_2356)">
<path d="M205.5 35.3001C217 40.4001 224.5 51.9001 224.5 64.5001V128.5H336.5C433.7 128.5 512.5 207.3 512.5 304.5C512.5 417.8 431 468.4 412.3 478.6C409.8 480 407 480.5 404.2 480.5C393.3 480.5 384.5 471.6 384.5 460.8C384.5 453.3 388.8 446.4 394.3 441.3C403.7 432.5 416.5 414.9 416.5 384.6C416.5 331.6 373.5 288.6 320.5 288.6H224.5V352.6C224.5 365.2 217.1 376.7 205.5 381.8C193.9 386.9 180.5 384.8 171.1 376.4L11.1 232.4C4.4 226.2 0.5 217.6 0.5 208.5C0.5 199.4 4.4 190.8 11.1 184.7L171.1 40.7001C180.5 32.2001 194 30.1001 205.5 35.3001Z" fill="#47535F"/>
</g>
<defs>
<clipPath id="clip0_104_2356">
<rect width="512" height="512" fill="white" transform="translate(0.5 0.5)"/>
</clipPath>
</defs>
</svg>
