<svg width="577" height="513" viewBox="0 0 577 513" fill="none" xmlns="http://www.w3.org/2000/svg">
<g clip-path="url(#clip0_104_2358)">
<path d="M209.9 39.9998C200.8 30.3998 185.6 29.9998 176 39.0998L34.3 173.7C14.4 192.6 14.4 224.4 34.3 243.3L176 377.9C185.6 387 200.8 386.6 209.9 377C219 367.4 218.6 352.2 209 343.1L67.3 208.5L209 73.8998C218.6 64.7998 219 49.5998 209.9 39.9998ZM352.5 64.4998C352.5 51.8998 345.1 40.3998 333.5 35.2998C321.9 30.1998 308.5 32.2998 299.1 40.6998L139.1 184.7C132.4 190.8 128.5 199.4 128.5 208.5C128.5 217.6 132.4 226.2 139.1 232.3L299.1 376.3C308.5 384.8 322 386.9 333.5 381.7C345 376.5 352.5 365.1 352.5 352.5V288.5H384.5C437.5 288.5 480.5 331.5 480.5 384.5C480.5 414.9 467.7 432.4 458.3 441.2C452.8 446.3 448.5 453.2 448.5 460.7C448.5 471.6 457.3 480.4 468.2 480.4C471 480.4 473.8 479.8 476.3 478.5C495 468.4 576.5 417.8 576.5 304.5C576.5 207.3 497.7 128.5 400.5 128.5H352.5V64.4998Z" fill="#47535F"/>
</g>
<defs>
<clipPath id="clip0_104_2358">
<rect width="576" height="512" fill="white" transform="translate(0.5 0.5)"/>
</clipPath>
</defs>
</svg>
