<svg width="641" height="513" viewBox="0 0 641 513" fill="none" xmlns="http://www.w3.org/2000/svg">
<g clip-path="url(#clip0_104_2360)">
<path d="M0.5 192.5C0.5 104.1 72.1 32.5 160.5 32.5H384.5C472.9 32.5 544.5 104.1 544.5 192.5V256.5H0.5V192.5ZM416.4 128.5C414 128.5 411.7 129.8 410.7 131.9L398.1 156.5L369.9 160.5C367.5 160.8 365.5 162.5 364.7 164.7C363.9 166.9 364.6 169.4 366.3 171L386.7 190.2L381.9 217.3C381.5 219.6 382.5 222 384.4 223.3C386.3 224.6 389 224.9 391.1 223.8L416.3 211L441.5 223.8C443.7 224.9 446.3 224.7 448.2 223.3C450.1 221.9 451.2 219.6 450.7 217.3L445.9 190.2L466.5 171C468.2 169.4 468.9 166.9 468.1 164.7C467.3 162.5 465.3 160.8 462.9 160.5L434.7 156.5L422.1 131.9C421 129.8 418.8 128.5 416.4 128.5ZM278.1 131.9C277 129.8 274.8 128.5 272.4 128.5C270 128.5 267.7 129.8 266.7 131.9L254.1 156.5L225.9 160.5C223.5 160.8 221.5 162.5 220.7 164.7C219.9 166.9 220.6 169.4 222.3 171L242.7 190.2L237.9 217.3C237.5 219.6 238.5 222 240.4 223.3C242.3 224.6 245 224.9 247.1 223.8L272.3 211L297.5 223.8C299.7 224.9 302.3 224.7 304.2 223.3C306.1 221.9 307.2 219.6 306.7 217.3L301.9 190.2L322.5 171C324.2 169.4 324.9 166.9 324.1 164.7C323.3 162.5 321.3 160.8 318.9 160.5L290.7 156.5L278.1 131.9ZM128.4 128.5C126 128.5 123.7 129.8 122.7 131.9L110.1 156.5L81.9 160.5C79.5 160.8 77.5 162.5 76.7 164.7C75.9 166.9 76.6 169.4 78.3 171L98.7 190.2L93.9 217.3C93.5 219.6 94.5 222 96.4 223.3C98.3 224.6 101 224.9 103.1 223.8L128.3 211L153.5 223.8C155.7 224.9 158.3 224.7 160.2 223.3C162.1 221.9 163.2 219.6 162.7 217.3L157.9 190.2L178.5 171C180.2 169.4 180.9 166.9 180.1 164.7C179.3 162.5 177.3 160.8 174.9 160.5L146.7 156.5L134.1 131.9C133 129.8 130.8 128.5 128.4 128.5ZM128.5 288.5H320.5H416.5H448.5H512.5H544.5V320.5V400.5C544.5 409.3 551.7 416.5 560.5 416.5C569.3 416.5 576.5 409.3 576.5 400.5V352.5C576.5 334.8 590.8 320.5 608.5 320.5C626.2 320.5 640.5 334.8 640.5 352.5V400.5C640.5 444.7 604.7 480.5 560.5 480.5C516.3 480.5 480.5 444.7 480.5 400.5V352.5H448.5V384.5V448.5C448.5 466.2 434.2 480.5 416.5 480.5H352.5C334.8 480.5 320.5 466.2 320.5 448.5V384.5H128.5V448.5C128.5 466.2 114.2 480.5 96.5 480.5H32.5C14.8 480.5 0.5 466.2 0.5 448.5V384.5V288.5H128.5Z" fill="#47535F"/>
</g>
<defs>
<clipPath id="clip0_104_2360">
<rect width="640" height="512" fill="white" transform="translate(0.5 0.5)"/>
</clipPath>
</defs>
</svg>
