<svg width="641" height="513" viewBox="0 0 641 513" fill="none" xmlns="http://www.w3.org/2000/svg">
<g clip-path="url(#clip0_104_2362)">
<path d="M80.4999 48.5C80.4999 35.7696 85.557 23.5606 94.5588 14.5589C103.561 5.55713 115.77 0.5 128.5 0.5C141.23 0.5 153.439 5.55713 162.441 14.5589C171.443 23.5606 176.5 35.7696 176.5 48.5C176.5 61.2304 171.443 73.4394 162.441 82.4411C153.439 91.4429 141.23 96.5 128.5 96.5C115.77 96.5 103.561 91.4429 94.5588 82.4411C85.557 73.4394 80.4999 61.2304 80.4999 48.5ZM120.5 352.5V480.5C120.5 498.2 106.2 512.5 88.4999 512.5C70.7999 512.5 56.4999 498.2 56.4999 480.5V325.7C48.3999 334.9 35.3999 338.9 22.9999 335.1C6.0999 329.8 -3.3001 311.9 1.9999 295L32.8999 195.9C45.3999 155.8 82.4999 128.5 124.5 128.5H132.5C174.5 128.5 211.6 155.8 224.1 195.9L255 295C260.3 311.9 250.9 329.8 234 335.1C221.6 339 208.6 334.9 200.5 325.7V480.5C200.5 498.2 186.2 512.5 168.5 512.5C150.8 512.5 136.5 498.2 136.5 480.5V352.5H120.5ZM320.5 0.5C333.8 0.5 344.5 11.2 344.5 24.5V488.5C344.5 501.8 333.8 512.5 320.5 512.5C307.2 512.5 296.5 501.8 296.5 488.5V24.5C296.5 11.2 307.2 0.5 320.5 0.5ZM464.5 48.5C464.5 35.7696 469.557 23.5606 478.559 14.5589C487.561 5.55713 499.77 0.5 512.5 0.5C525.23 0.5 537.439 5.55713 546.441 14.5589C555.443 23.5606 560.5 35.7696 560.5 48.5C560.5 61.2304 555.443 73.4394 546.441 82.4411C537.439 91.4429 525.23 96.5 512.5 96.5C499.77 96.5 487.561 91.4429 478.559 82.4411C469.557 73.4394 464.5 61.2304 464.5 48.5ZM440.5 480.5V384.5H422.7C411.8 384.5 404.1 373.8 407.5 363.4L416.5 336.5C413.3 336.5 410.1 336 407 335C390.1 329.7 380.7 311.8 386 294.9L415.7 199.7C428.9 157.4 468.1 128.5 512.5 128.5C556.9 128.5 596.1 157.4 609.3 199.7L639 294.9C644.3 311.8 634.9 329.7 618 335C614.8 336 611.6 336.5 608.5 336.5L617.5 363.4C621 373.8 613.2 384.5 602.3 384.5H584.5V480.5C584.5 498.2 570.2 512.5 552.5 512.5C534.8 512.5 520.5 498.2 520.5 480.5V384.5H504.5V480.5C504.5 498.2 490.2 512.5 472.5 512.5C454.8 512.5 440.5 498.2 440.5 480.5Z" fill="#47535F"/>
</g>
<defs>
<clipPath id="clip0_104_2362">
<rect width="640" height="512" fill="white" transform="translate(0.5 0.5)"/>
</clipPath>
</defs>
</svg>
