<svg width="577" height="513" viewBox="0 0 577 513" fill="none" xmlns="http://www.w3.org/2000/svg">
<g clip-path="url(#clip0_104_2364)">
<path d="M272.5 416.5C290.2 416.5 304.5 402.2 304.5 384.5C304.5 366.8 290.2 352.5 272.5 352.5H160.5C142.8 352.5 128.5 338.2 128.5 320.5V192.5H160.5C173.4 192.5 185.1 184.7 190.1 172.7C195.1 160.7 192.3 147 183.2 137.8L119.2 73.7998C106.7 61.2998 86.4002 61.2998 73.9002 73.7998L9.90024 137.8C0.700238 147 -1.99976 160.7 3.00024 172.7C8.00024 184.7 19.6002 192.5 32.6002 192.5H64.6002V320.5C64.6002 373.5 107.6 416.5 160.6 416.5H272.5ZM304.5 96.4998C286.8 96.4998 272.5 110.8 272.5 128.5C272.5 146.2 286.8 160.5 304.5 160.5H416.5C434.2 160.5 448.5 174.8 448.5 192.5V320.5H416.5C403.6 320.5 391.9 328.3 386.9 340.3C381.9 352.3 384.7 366 393.8 375.2L457.8 439.2C470.3 451.7 490.6 451.7 503.1 439.2L567.1 375.2C576.3 366 579 352.3 574 340.3C569 328.3 557.4 320.5 544.4 320.5H512.4V192.5C512.4 139.5 469.4 96.4998 416.4 96.4998H304.5Z" fill="#47535F"/>
</g>
<defs>
<clipPath id="clip0_104_2364">
<rect width="576" height="512" fill="white" transform="translate(0.5 0.5)"/>
</clipPath>
</defs>
</svg>
