<svg width="449" height="513" viewBox="0 0 449 513" fill="none" xmlns="http://www.w3.org/2000/svg">
<g clip-path="url(#clip0_104_2366)">
<path d="M333.7 323.3L199.8 177.3L146.5 119.1C154.3 114 183.5 96.5 224.5 96.5C265.5 96.5 294.7 113.9 302.5 119.1L246.2 180.5L331.8 273.9L359.2 244.1C375.5 226.4 384.5 203.2 384.5 179.1V149.6C384.5 130.6 378.9 112.1 368.4 96.3L328.3 36.1C313.4 13.9 288.4 0.5 261.7 0.5H185.7C159.9 0.5 135.6 13 120.6 34L82.3997 87.5C70.7997 103.7 64.4997 123.3 64.4997 143.3V164.5C64.4997 187.7 72.8997 210.1 88.0997 227.6L144.1 291.8L227.4 387.4L319.2 492.7C329.2 504.2 346 507 359.2 499.5L413.7 468.4C431.5 458.2 435.3 434.1 421.4 419L333.7 323.3ZM205.7 411.1L122.4 315.5L27.5997 419C13.6997 434.1 17.4997 458.2 35.2997 468.4L90.3997 499.9C103.4 507.3 119.7 504.8 129.8 493.8L205.7 411.2V411.1Z" fill="#47535F"/>
</g>
<defs>
<clipPath id="clip0_104_2366">
<rect width="448" height="512" fill="white" transform="translate(0.5 0.5)"/>
</clipPath>
</defs>
</svg>
