<svg width="513" height="513" viewBox="0 0 513 513" fill="none" xmlns="http://www.w3.org/2000/svg">
<g clip-path="url(#clip0_104_2374)">
<path d="M218.4 106.4L341.2 229.2C348.4 236.4 352.5 246.3 352.5 256.5C352.5 266.7 348.4 276.6 341.2 283.8L218.4 406.6C212 413 203.4 416.5 194.4 416.5C175.7 416.5 160.5 401.3 160.5 382.6V320.5H32.5C14.8 320.5 0.5 306.2 0.5 288.5V224.5C0.5 206.8 14.8 192.5 32.5 192.5H160.5V130.4C160.5 111.7 175.7 96.5 194.4 96.5C203.4 96.5 212 100.1 218.4 106.4ZM352.5 416.5H416.5C434.2 416.5 448.5 402.2 448.5 384.5V128.5C448.5 110.8 434.2 96.5 416.5 96.5H352.5C334.8 96.5 320.5 82.2 320.5 64.5C320.5 46.8 334.8 32.5 352.5 32.5H416.5C469.5 32.5 512.5 75.5 512.5 128.5V384.5C512.5 437.5 469.5 480.5 416.5 480.5H352.5C334.8 480.5 320.5 466.2 320.5 448.5C320.5 430.8 334.8 416.5 352.5 416.5Z" fill="#47535F"/>
</g>
<defs>
<clipPath id="clip0_104_2374">
<rect width="512" height="512" fill="white" transform="translate(0.5 0.5)"/>
</clipPath>
</defs>
</svg>
