<svg width="513" height="513" viewBox="0 0 513 513" fill="none" xmlns="http://www.w3.org/2000/svg">
<g clip-path="url(#clip0_104_2368)">
<path d="M378.4 106.4L501.2 229.2C508.4 236.4 512.5 246.3 512.5 256.5C512.5 266.7 508.4 276.6 501.2 283.8L378.4 406.6C372 413 363.4 416.5 354.4 416.5C335.7 416.5 320.5 401.3 320.5 382.6V320.5H192.5C174.8 320.5 160.5 306.2 160.5 288.5V224.5C160.5 206.8 174.8 192.5 192.5 192.5H320.5V130.4C320.5 111.7 335.7 96.5 354.4 96.5C363.4 96.5 372 100.1 378.4 106.4ZM160.5 96.5H96.5C78.8 96.5 64.5 110.8 64.5 128.5V384.5C64.5 402.2 78.8 416.5 96.5 416.5H160.5C178.2 416.5 192.5 430.8 192.5 448.5C192.5 466.2 178.2 480.5 160.5 480.5H96.5C43.5 480.5 0.5 437.5 0.5 384.5V128.5C0.5 75.5 43.5 32.5 96.5 32.5H160.5C178.2 32.5 192.5 46.8 192.5 64.5C192.5 82.2 178.2 96.5 160.5 96.5Z" fill="#47535F"/>
</g>
<defs>
<clipPath id="clip0_104_2368">
<rect width="512" height="512" fill="white" transform="translate(0.5 0.5)"/>
</clipPath>
</defs>
</svg>
