<svg width="513" height="513" viewBox="0 0 513 513" fill="none" xmlns="http://www.w3.org/2000/svg">
<g clip-path="url(#clip0_104_2370)">
<path d="M32.5004 96.5H352.5V32.5C352.5 19.6 360.3 7.90001 372.3 2.90001C384.3 -2.09999 398 0.700006 407.2 9.80001L503.2 105.8C509.2 111.8 512.6 119.9 512.6 128.4C512.6 136.9 509.2 145 503.2 151L407.2 247C398 256.2 384.3 258.9 372.3 253.9C360.3 248.9 352.5 237.3 352.5 224.3V160.5H32.5004C14.8004 160.5 0.500391 146.2 0.500391 128.5C0.500391 110.8 14.8004 96.5 32.5004 96.5ZM480.5 352.5C498.2 352.5 512.5 366.8 512.5 384.5C512.5 402.2 498.2 416.5 480.5 416.5H160.5V480.5C160.5 493.4 152.7 505.1 140.7 510.1C128.7 515.1 115 512.3 105.8 503.2L9.80039 407.2C3.80039 401.2 0.400391 393.1 0.400391 384.6C0.400391 376.1 3.80039 368 9.80039 362L105.8 266C115 256.8 128.7 254.1 140.7 259.1C152.7 264.1 160.5 275.7 160.5 288.7V352.7H480.5V352.5Z" fill="#47535F"/>
</g>
<defs>
<clipPath id="clip0_104_2370">
<rect width="512" height="512" fill="white" transform="translate(0.5 0.5)"/>
</clipPath>
</defs>
</svg>
