<svg width="513" height="513" viewBox="0 0 513 513" fill="none" xmlns="http://www.w3.org/2000/svg">
<g clip-path="url(#clip0_104_2372)">
<path d="M335 414.5C343.8 418.3 354 416.5 361 409.9L505 273.9C509.8 269.4 512.5 263.1 512.5 256.5C512.5 249.9 509.8 243.6 505 239.1L361 103.1C354 96.5001 343.8 94.7001 335 98.5001C326.2 102.3 320.5 111 320.5 120.5V192.5H32.5C14.8 192.5 0.5 206.8 0.5 224.5V288.5C0.5 306.2 14.8 320.5 32.5 320.5H320.5V392.5C320.5 402.1 326.2 410.7 335 414.5Z" fill="#47535F"/>
</g>
<defs>
<clipPath id="clip0_104_2372">
<rect width="512" height="512" fill="white" transform="translate(0.5 0.5)"/>
</clipPath>
</defs>
</svg>
