<svg width="513" height="513" viewBox="0 0 513 513" fill="none" xmlns="http://www.w3.org/2000/svg">
<g clip-path="url(#clip0_104_2376)">
<path d="M64.5 208.5C64.5 216.3 68.9 227.2 81.6 238.8C127 214.6 189.4 200.5 256.5 200.5C323.6 200.5 386 214.6 431.4 238.8C444.1 227.2 448.5 216.3 448.5 208.5C448.5 196.2 437.7 176.5 400.6 157.9C365.4 140.3 314.5 128.5 256.5 128.5C198.5 128.5 147.6 140.3 112.4 157.9C75.3 176.5 64.5 196.2 64.5 208.5ZM256.5 248.5C209.5 248.5 167.2 256.1 133.6 268.2C166.8 280.7 209.3 288.5 256.5 288.5C303.7 288.5 346.2 280.7 379.4 268.2C345.8 256.1 303.5 248.5 256.5 248.5ZM0.5 208.5C0.5 158.9 39.9 122.7 83.8 100.7C129.6 77.8 190.8 64.5 256.5 64.5C322.2 64.5 383.4 77.8 429.2 100.7C473.1 122.7 512.5 158.9 512.5 208.5V304.5C512.5 354.1 473.1 390.3 429.2 412.3C383.4 435.2 322.2 448.5 256.5 448.5C190.8 448.5 129.6 435.2 83.8 412.3C39.9 390.3 0.5 354.1 0.5 304.5V208.5Z" fill="#47535F"/>
</g>
<defs>
<clipPath id="clip0_104_2376">
<rect width="512" height="512" fill="white" transform="translate(0.5 0.5)"/>
</clipPath>
</defs>
</svg>
