<svg width="641" height="513" viewBox="0 0 641 513" fill="none" xmlns="http://www.w3.org/2000/svg">
<g clip-path="url(#clip0_104_2382)">
<path d="M352.5 0.5H608.5C626.2 0.5 640.5 14.8 640.5 32.5V480.5C640.5 498.2 626.2 512.5 608.5 512.5H352.5C334.8 512.5 320.5 498.2 320.5 480.5V32.5C320.5 14.8 334.8 0.5 352.5 0.5ZM480.5 200.5C467.2 200.5 456.5 211.2 456.5 224.5V288.5C456.5 301.8 467.2 312.5 480.5 312.5C493.8 312.5 504.5 301.8 504.5 288.5V224.5C504.5 211.2 493.8 200.5 480.5 200.5ZM504.5 384.5C504.5 371.2 493.8 360.5 480.5 360.5C467.2 360.5 456.5 371.2 456.5 384.5V448.5C456.5 461.8 467.2 472.5 480.5 472.5C493.8 472.5 504.5 461.8 504.5 448.5V384.5ZM480.5 40.5C467.2 40.5 456.5 51.2 456.5 64.5V128.5C456.5 141.8 467.2 152.5 480.5 152.5C493.8 152.5 504.5 141.8 504.5 128.5V64.5C504.5 51.2 493.8 40.5 480.5 40.5ZM32.5 96.5H288.5V160.5H248.5V224.5H288.5V320.5C235.5 320.5 192.5 363.5 192.5 416.5V480.5C192.5 498.2 178.2 512.5 160.5 512.5H128.5C110.8 512.5 96.5 498.2 96.5 480.5V416.5C96.5 363.5 53.5 320.5 0.5 320.5V224.5H72.5V160.5H32.5C14.8 160.5 0.5 146.2 0.5 128.5C0.5 110.8 14.8 96.5 32.5 96.5ZM200.5 160.5H120.5V224.5H200.5V160.5Z" fill="#47535F"/>
</g>
<defs>
<clipPath id="clip0_104_2382">
<rect width="640" height="512" fill="white" transform="translate(0.5 0.5)"/>
</clipPath>
</defs>
</svg>
