<svg width="641" height="513" viewBox="0 0 641 513" fill="none" xmlns="http://www.w3.org/2000/svg">
<g clip-path="url(#clip0_104_2380)">
<path d="M32.5 32.5C14.8 32.5 0.5 46.8 0.5 64.5V448.5C0.5 466.2 14.8 480.5 32.5 480.5C50.2 480.5 64.5 466.2 64.5 448.5V266.8L149.7 96.5H64.5V64.5C64.5 46.8 50.2 32.5 32.5 32.5ZM405.7 96.5H331.3L325.9 107.2L235.3 288.5H309.6L315 277.8L405.7 96.5ZM363.3 288.5H437.6L443 277.8L533.7 96.5H459.3L453.9 107.2L363.3 288.5ZM203.3 96.5L197.9 107.2L107.3 288.5H181.6L187 277.8L277.7 96.5H203.3ZM491.3 288.5H576.5V448.5C576.5 466.2 590.8 480.5 608.5 480.5C626.2 480.5 640.5 466.2 640.5 448.5V64.5C640.5 46.8 626.2 32.5 608.5 32.5C590.8 32.5 576.5 46.8 576.5 64.5V118.2L491.3 288.5Z" fill="#47535F"/>
</g>
<defs>
<clipPath id="clip0_104_2380">
<rect width="640" height="512" fill="white" transform="translate(0.5 0.5)"/>
</clipPath>
</defs>
</svg>
