<svg width="577" height="513" viewBox="0 0 577 513" fill="none" xmlns="http://www.w3.org/2000/svg">
<g clip-path="url(#clip0_104_2378)">
<path d="M256.5 32.5H181.7C154.6 32.5 130.4 49.6 121.4 75.1L3.6 407.7C1.6 413.5 0.5 419.7 0.5 425.9C0.5 456 25 480.5 55.1 480.5H256.5V416.5C256.5 398.8 270.8 384.5 288.5 384.5C306.2 384.5 320.5 398.8 320.5 416.5V480.5H521.9C552.1 480.5 576.5 456 576.5 425.9C576.5 419.7 575.4 413.5 573.4 407.7L455.6 75.1C446.5 49.6 422.4 32.5 395.3 32.5H320.5V96.5C320.5 114.2 306.2 128.5 288.5 128.5C270.8 128.5 256.5 114.2 256.5 96.5V32.5ZM320.5 224.5V288.5C320.5 306.2 306.2 320.5 288.5 320.5C270.8 320.5 256.5 306.2 256.5 288.5V224.5C256.5 206.8 270.8 192.5 288.5 192.5C306.2 192.5 320.5 206.8 320.5 224.5Z" fill="#47535F"/>
</g>
<defs>
<clipPath id="clip0_104_2378">
<rect width="576" height="512" fill="white" transform="translate(0.5 0.5)"/>
</clipPath>
</defs>
</svg>
