<svg width="641" height="513" viewBox="0 0 641 513" fill="none" xmlns="http://www.w3.org/2000/svg">
<g clip-path="url(#clip0_104_2390)">
<path d="M288.5 32.5H213.7C186.6 32.5 162.4 49.6 153.4 75.1L35.6 407.7C33.5 413.6 32.5 419.7 32.5 425.9C32.5 456 57 480.5 87.1 480.5H288.5V416.5C288.5 398.8 302.8 384.5 320.5 384.5C338.2 384.5 352.5 398.8 352.5 416.5V480.5H384.5V352.5C384.5 328.8 397.4 308.1 416.5 297.1V272.5C416.5 214.2 461.1 166.3 518 161L487.6 75.1C478.5 49.6 454.4 32.5 427.3 32.5H352.5V96.5C352.5 114.2 338.2 128.5 320.5 128.5C302.8 128.5 288.5 114.2 288.5 96.5V32.5ZM352.5 224.5V288.5C352.5 306.2 338.2 320.5 320.5 320.5C302.8 320.5 288.5 306.2 288.5 288.5V224.5C288.5 206.8 302.8 192.5 320.5 192.5C338.2 192.5 352.5 206.8 352.5 224.5ZM528.5 240.5C546.2 240.5 560.5 254.8 560.5 272.5V320.5H496.5V272.5C496.5 254.8 510.8 240.5 528.5 240.5ZM448.5 272.5V320.5C430.8 320.5 416.5 334.8 416.5 352.5V480.5C416.5 498.2 430.8 512.5 448.5 512.5H608.5C626.2 512.5 640.5 498.2 640.5 480.5V352.5C640.5 334.8 626.2 320.5 608.5 320.5V272.5C608.5 228.3 572.7 192.5 528.5 192.5C484.3 192.5 448.5 228.3 448.5 272.5Z" fill="#47535F"/>
</g>
<defs>
<clipPath id="clip0_104_2390">
<rect width="640" height="512" fill="white" transform="translate(0.5 0.5)"/>
</clipPath>
</defs>
</svg>
