<svg width="641" height="513" viewBox="0 0 641 513" fill="none" xmlns="http://www.w3.org/2000/svg">
<g clip-path="url(#clip0_104_2392)">
<path d="M64.5 117.3C64.5 101.5 85 95.2998 93.8 108.4L192.5 256.5V117.3C192.5 101.5 213 95.2998 221.8 108.4L320.5 256.5V117.3C320.5 101.5 341 95.2998 349.8 108.4L448.5 256.5V117.3C448.5 101.5 469 95.2998 477.8 108.4L607.3 302.7C621.5 324 606.2 352.4 580.7 352.4H512.5H448.5H384.5H320.5H256.5H192.5H64.5V117.3ZM32.5 384.5H608.5C626.2 384.5 640.5 398.8 640.5 416.5C640.5 434.2 626.2 448.5 608.5 448.5H32.5C14.8 448.5 0.5 434.2 0.5 416.5C0.5 398.8 14.8 384.5 32.5 384.5Z" fill="#47535F"/>
</g>
<defs>
<clipPath id="clip0_104_2392">
<rect width="640" height="512" fill="white" transform="translate(0.5 0.5)"/>
</clipPath>
</defs>
</svg>
