<svg width="641" height="513" viewBox="0 0 641 513" fill="none" xmlns="http://www.w3.org/2000/svg">
<g clip-path="url(#clip0_104_2394)">
<path d="M320.5 0.5C338.2 0.5 352.5 14.8 352.5 32.5V96.5H472.5C512.3 96.5 544.5 128.7 544.5 168.5V440.5C544.5 480.3 512.3 512.5 472.5 512.5H168.5C128.7 512.5 96.5 480.3 96.5 440.5V168.5C96.5 128.7 128.7 96.5 168.5 96.5H288.5V32.5C288.5 14.8 302.8 0.5 320.5 0.5ZM208.5 384.5C199.7 384.5 192.5 391.7 192.5 400.5C192.5 409.3 199.7 416.5 208.5 416.5H240.5C249.3 416.5 256.5 409.3 256.5 400.5C256.5 391.7 249.3 384.5 240.5 384.5H208.5ZM304.5 384.5C295.7 384.5 288.5 391.7 288.5 400.5C288.5 409.3 295.7 416.5 304.5 416.5H336.5C345.3 416.5 352.5 409.3 352.5 400.5C352.5 391.7 345.3 384.5 336.5 384.5H304.5ZM400.5 384.5C391.7 384.5 384.5 391.7 384.5 400.5C384.5 409.3 391.7 416.5 400.5 416.5H432.5C441.3 416.5 448.5 409.3 448.5 400.5C448.5 391.7 441.3 384.5 432.5 384.5H400.5ZM264.5 256.5C264.5 245.891 260.286 235.717 252.784 228.216C245.283 220.714 235.109 216.5 224.5 216.5C213.891 216.5 203.717 220.714 196.216 228.216C188.714 235.717 184.5 245.891 184.5 256.5C184.5 267.109 188.714 277.283 196.216 284.784C203.717 292.286 213.891 296.5 224.5 296.5C235.109 296.5 245.283 292.286 252.784 284.784C260.286 277.283 264.5 267.109 264.5 256.5ZM416.5 296.5C427.109 296.5 437.283 292.286 444.784 284.784C452.286 277.283 456.5 267.109 456.5 256.5C456.5 245.891 452.286 235.717 444.784 228.216C437.283 220.714 427.109 216.5 416.5 216.5C405.891 216.5 395.717 220.714 388.216 228.216C380.714 235.717 376.5 245.891 376.5 256.5C376.5 267.109 380.714 277.283 388.216 284.784C395.717 292.286 405.891 296.5 416.5 296.5ZM48.5 224.5H64.5V416.5H48.5C22 416.5 0.5 395 0.5 368.5V272.5C0.5 246 22 224.5 48.5 224.5ZM592.5 224.5C619 224.5 640.5 246 640.5 272.5V368.5C640.5 395 619 416.5 592.5 416.5H576.5V224.5H592.5Z" fill="#47535F"/>
</g>
<defs>
<clipPath id="clip0_104_2394">
<rect width="640" height="512" fill="white" transform="translate(0.5 0.5)"/>
</clipPath>
</defs>
</svg>
