<svg width="513" height="513" viewBox="0 0 513 513" fill="none" xmlns="http://www.w3.org/2000/svg">
<g clip-path="url(#clip0_104_2396)">
<path d="M157.101 385.4L126.201 354.5C117.701 346 114.701 333.7 118.501 322.3C121.501 313.4 125.501 301.8 130.301 288.5H24.501C15.901 288.5 7.90097 283.9 3.60097 276.4C-0.69903 268.9 -0.59903 259.7 3.80097 252.3L56.301 163.8C69.301 141.9 92.801 128.5 118.201 128.5H200.501C202.901 124.5 205.301 120.8 207.701 117.2C289.601 -3.60002 411.601 -7.60001 484.401 5.79999C496.001 7.89999 505.001 17 507.201 28.6C520.601 101.5 516.501 223.4 395.801 305.3C392.301 307.7 388.501 310.1 384.501 312.5V394.8C384.501 420.2 371.101 443.8 349.201 456.7L260.701 509.2C253.301 513.6 244.101 513.7 236.601 509.4C229.101 505.1 224.501 497.2 224.501 488.5V381.3C210.401 386.2 198.101 390.2 188.801 393.2C177.601 396.8 165.401 393.7 157.001 385.4H157.101ZM384.501 168.5C395.11 168.5 405.284 164.286 412.785 156.784C420.287 149.283 424.501 139.109 424.501 128.5C424.501 117.891 420.287 107.717 412.785 100.216C405.284 92.7143 395.11 88.5 384.501 88.5C373.892 88.5 363.718 92.7143 356.217 100.216C348.715 107.717 344.501 117.891 344.501 128.5C344.501 139.109 348.715 149.283 356.217 156.784C363.718 164.286 373.892 168.5 384.501 168.5Z" fill="#47535F"/>
</g>
<defs>
<clipPath id="clip0_104_2396">
<rect width="512" height="512" fill="white" transform="translate(0.5 0.5)"/>
</clipPath>
</defs>
</svg>
