<svg width="513" height="513" viewBox="0 0 513 513" fill="none" xmlns="http://www.w3.org/2000/svg">
<path d="M464 224.5H472.5C485.8 224.5 496.5 213.8 496.5 200.5V72.4998C496.5 62.7998 490.7 53.9998 481.7 50.2998C472.7 46.5998 462.4 48.5998 455.5 55.4998L413.9 97.0998C326.3 10.5998 185.2 10.8998 98.0996 98.0998C10.5996 185.6 10.5996 327.4 98.0996 414.9C185.6 502.4 327.4 502.4 414.9 414.9C427.4 402.4 427.4 382.1 414.9 369.6C402.4 357.1 382.1 357.1 369.6 369.6C307.1 432.1 205.8 432.1 143.3 369.6C80.7996 307.1 80.7996 205.8 143.3 143.3C205.5 81.0998 306 80.7998 368.6 142.3L327.5 183.5C320.6 190.4 318.6 200.7 322.3 209.7C326 218.7 334.8 224.5 344.5 224.5H464Z" fill="#47535F"/>
</svg>
