<svg width="513" height="513" viewBox="0 0 513 513" fill="none" xmlns="http://www.w3.org/2000/svg">
<path d="M143.4 143.4C205.6 81.1998 306.1 80.8998 368.7 142.4L327.5 183.5C320.6 190.4 318.6 200.7 322.3 209.7C326 218.7 334.8 224.5 344.5 224.5H464H472.5C485.8 224.5 496.5 213.8 496.5 200.5V72.4998C496.5 62.7998 490.7 53.9998 481.7 50.2998C472.7 46.5998 462.4 48.5998 455.5 55.4998L413.9 97.0998C326.3 10.5998 185.2 10.8998 98.1 98.0998C73.7 122.5 56.1 151.2 45.3 181.9C39.4 198.6 48.2 216.8 64.8 222.7C81.4 228.6 99.7 219.8 105.6 203.2C113.3 181.4 125.8 160.9 143.4 143.4ZM16.5 312.5V320.1V320.8V440.5C16.5 450.2 22.3 459 31.3 462.7C40.3 466.4 50.6 464.4 57.5 457.5L99.1 415.9C186.7 502.4 327.8 502.1 414.9 414.9C439.3 390.5 457 361.8 467.8 331.2C473.7 314.5 464.9 296.3 448.3 290.4C431.7 284.5 413.4 293.3 407.5 309.9C399.8 331.7 387.3 352.2 369.7 369.7C307.5 431.9 207 432.2 144.4 370.7L185.5 329.5C192.4 322.6 194.4 312.3 190.7 303.3C187 294.3 178.2 288.5 168.5 288.5H48.9H48.2H40.5C27.2 288.5 16.5 299.2 16.5 312.5Z" fill="#47535F"/>
</svg>
