<svg width="513" height="513" viewBox="0 0 513 513" fill="none" xmlns="http://www.w3.org/2000/svg">
<path d="M49 224.5H40.5C27.2 224.5 16.5 213.8 16.5 200.5V72.4998C16.5 62.7998 22.3 53.9998 31.3 50.2998C40.3 46.5998 50.6 48.5998 57.5 55.4998L99.1 97.0998C186.7 10.5998 327.8 10.8998 414.9 98.0998C502.4 185.6 502.4 327.4 414.9 414.9C327.4 502.4 185.6 502.4 98.1 414.9C85.6 402.4 85.6 382.1 98.1 369.6C110.6 357.1 130.9 357.1 143.4 369.6C205.9 432.1 307.2 432.1 369.7 369.6C432.2 307.1 432.2 205.8 369.7 143.3C307.5 81.0998 207 80.7998 144.4 142.3L185.5 183.5C192.4 190.4 194.4 200.7 190.7 209.7C187 218.7 178.2 224.5 168.5 224.5H49Z" fill="#47535F"/>
</svg>
