<svg width="513" height="513" viewBox="0 0 513 513" fill="none" xmlns="http://www.w3.org/2000/svg">
<g clip-path="url(#clip0_104_2404)">
<path d="M512.5 96.5C512.5 146.7 453.4 221.6 427.9 251.5C424.1 255.9 418.5 257.6 413.4 256.5H320.5C302.8 256.5 288.5 270.8 288.5 288.5C288.5 306.2 302.8 320.5 320.5 320.5H416.5C469.5 320.5 512.5 363.5 512.5 416.5C512.5 469.5 469.5 512.5 416.5 512.5H140.1C148.8 502.6 159.4 489.9 170.1 475.7C176.4 467.3 182.9 458.1 189.1 448.5H416.5C434.2 448.5 448.5 434.2 448.5 416.5C448.5 398.8 434.2 384.5 416.5 384.5H320.5C267.5 384.5 224.5 341.5 224.5 288.5C224.5 235.5 267.5 192.5 320.5 192.5H360.3C339.3 161 320.5 124.8 320.5 96.5C320.5 43.5 363.5 0.5 416.5 0.5C469.5 0.5 512.5 43.5 512.5 96.5ZM117.6 489.6C113.8 493.9 110.4 497.7 107.5 500.9L105.7 502.9L105.5 502.7C99.5 507.3 90.9 506.7 85.5 500.9C60.3 473.5 0.5 403 0.5 352.5C0.5 299.5 43.5 256.5 96.5 256.5C149.5 256.5 192.5 299.5 192.5 352.5C192.5 382.5 171.4 419.5 149 450.4C138.3 465.1 127.3 478.4 118.2 488.9L117.6 489.6ZM128.5 352.5C128.5 344.013 125.129 335.874 119.127 329.873C113.126 323.871 104.987 320.5 96.5 320.5C88.0131 320.5 79.8737 323.871 73.8726 329.873C67.8714 335.874 64.5 344.013 64.5 352.5C64.5 360.987 67.8714 369.126 73.8726 375.127C79.8737 381.129 88.0131 384.5 96.5 384.5C104.987 384.5 113.126 381.129 119.127 375.127C125.129 369.126 128.5 360.987 128.5 352.5ZM416.5 128.5C424.987 128.5 433.126 125.129 439.127 119.127C445.129 113.126 448.5 104.987 448.5 96.5C448.5 88.0131 445.129 79.8737 439.127 73.8726C433.126 67.8714 424.987 64.5 416.5 64.5C408.013 64.5 399.874 67.8714 393.873 73.8726C387.871 79.8737 384.5 88.0131 384.5 96.5C384.5 104.987 387.871 113.126 393.873 119.127C399.874 125.129 408.013 128.5 416.5 128.5Z" fill="#47535F"/>
</g>
<defs>
<clipPath id="clip0_104_2404">
<rect width="512" height="512" fill="white" transform="translate(0.5 0.5)"/>
</clipPath>
</defs>
</svg>
