<svg width="449" height="513" viewBox="0 0 449 513" fill="none" xmlns="http://www.w3.org/2000/svg">
<g clip-path="url(#clip0_104_2406)">
<path d="M0.5 64.5C0.5 46.8 14.8 32.5 32.5 32.5C262.3 32.5 448.5 218.7 448.5 448.5C448.5 466.2 434.2 480.5 416.5 480.5C398.8 480.5 384.5 466.2 384.5 448.5C384.5 254.1 226.9 96.5 32.5 96.5C14.8 96.5 0.5 82.2 0.5 64.5ZM0.5 416.5C0.5 399.526 7.24284 383.248 19.2452 371.245C31.2475 359.243 47.5261 352.5 64.5 352.5C81.4739 352.5 97.7525 359.243 109.755 371.245C121.757 383.248 128.5 399.526 128.5 416.5C128.5 433.474 121.757 449.752 109.755 461.755C97.7525 473.757 81.4739 480.5 64.5 480.5C47.5261 480.5 31.2475 473.757 19.2452 461.755C7.24284 449.752 0.5 433.474 0.5 416.5ZM32.5 160.5C191.6 160.5 320.5 289.4 320.5 448.5C320.5 466.2 306.2 480.5 288.5 480.5C270.8 480.5 256.5 466.2 256.5 448.5C256.5 324.8 156.2 224.5 32.5 224.5C14.8 224.5 0.5 210.2 0.5 192.5C0.5 174.8 14.8 160.5 32.5 160.5Z" fill="#47535F"/>
</g>
<defs>
<clipPath id="clip0_104_2406">
<rect width="448" height="512" fill="white" transform="translate(0.5 0.5)"/>
</clipPath>
</defs>
</svg>
