<svg width="385" height="513" viewBox="0 0 385 513" fill="none" xmlns="http://www.w3.org/2000/svg">
<g clip-path="url(#clip0_104_2408)">
<path d="M96.5 32.5C78.8 32.5 64.5 46.8 64.5 64.5V256.5H32.5C14.8 256.5 0.5 270.8 0.5 288.5C0.5 306.2 14.8 320.5 32.5 320.5H64.5V352.5H32.5C14.8 352.5 0.5 366.8 0.5 384.5C0.5 402.2 14.8 416.5 32.5 416.5H64.5V448.5C64.5 466.2 78.8 480.5 96.5 480.5C114.2 480.5 128.5 466.2 128.5 448.5V416.5H288.5C306.2 416.5 320.5 402.2 320.5 384.5C320.5 366.8 306.2 352.5 288.5 352.5H128.5V320.5H240.5C320 320.5 384.5 256 384.5 176.5C384.5 97 320 32.5 240.5 32.5H96.5ZM240.5 256.5H128.5V96.5H240.5C284.7 96.5 320.5 132.3 320.5 176.5C320.5 220.7 284.7 256.5 240.5 256.5Z" fill="#47535F"/>
</g>
<defs>
<clipPath id="clip0_104_2408">
<rect width="384" height="512" fill="white" transform="translate(0.5 0.5)"/>
</clipPath>
</defs>
</svg>
