<svg width="641" height="513" viewBox="0 0 641 513" fill="none" xmlns="http://www.w3.org/2000/svg">
<g clip-path="url(#clip0_104_2410)">
<path d="M24.5 64.5H56.5H80.5V88.5V176.5V256.5V336.5V424.5V448.5H56.5H24.5C11.2 448.5 0.5 437.8 0.5 424.5C0.5 411.2 11.2 400.5 24.5 400.5H32.5V360.5H24.5C11.2 360.5 0.5 349.8 0.5 336.5C0.5 323.2 11.2 312.5 24.5 312.5H32.5V280.5H24.5C11.2 280.5 0.5 269.8 0.5 256.5C0.5 243.2 11.2 232.5 24.5 232.5H32.5V200.5H24.5C11.2 200.5 0.5 189.8 0.5 176.5C0.5 163.2 11.2 152.5 24.5 152.5H32.5V112.5H24.5C11.2 112.5 0.5 101.8 0.5 88.5C0.5 75.2 11.2 64.5 24.5 64.5ZM112.5 64.5H528.5V448.5H112.5V64.5ZM640.5 88.5C640.5 101.8 629.8 112.5 616.5 112.5H608.5V152.5H616.5C629.8 152.5 640.5 163.2 640.5 176.5C640.5 189.8 629.8 200.5 616.5 200.5H608.5V232.5H616.5C629.8 232.5 640.5 243.2 640.5 256.5C640.5 269.8 629.8 280.5 616.5 280.5H608.5V312.5H616.5C629.8 312.5 640.5 323.2 640.5 336.5C640.5 349.8 629.8 360.5 616.5 360.5H608.5V400.5H616.5C629.8 400.5 640.5 411.2 640.5 424.5C640.5 437.8 629.8 448.5 616.5 448.5H584.5H560.5V424.5V336.5V256.5V176.5V88.5V64.5H584.5H616.5C629.8 64.5 640.5 75.2 640.5 88.5Z" fill="#47535F"/>
</g>
<defs>
<clipPath id="clip0_104_2410">
<rect width="640" height="512" fill="white" transform="translate(0.5 0.5)"/>
</clipPath>
</defs>
</svg>
