<svg width="641" height="513" viewBox="0 0 641 513" fill="none" xmlns="http://www.w3.org/2000/svg">
<g clip-path="url(#clip0_104_2416)">
<path d="M0.5 336.5C0.5 363 22 384.5 48.5 384.5H592.5C619 384.5 640.5 363 640.5 336.5V176.5C640.5 150 619 128.5 592.5 128.5H528.5V208.5C528.5 217.3 521.3 224.5 512.5 224.5C503.7 224.5 496.5 217.3 496.5 208.5V128.5H432.5V208.5C432.5 217.3 425.3 224.5 416.5 224.5C407.7 224.5 400.5 217.3 400.5 208.5V128.5H336.5V208.5C336.5 217.3 329.3 224.5 320.5 224.5C311.7 224.5 304.5 217.3 304.5 208.5V128.5H240.5V208.5C240.5 217.3 233.3 224.5 224.5 224.5C215.7 224.5 208.5 217.3 208.5 208.5V128.5H144.5V208.5C144.5 217.3 137.3 224.5 128.5 224.5C119.7 224.5 112.5 217.3 112.5 208.5V128.5H48.5C22 128.5 0.5 150 0.5 176.5V336.5Z" fill="#47535F"/>
</g>
<defs>
<clipPath id="clip0_104_2416">
<rect width="640" height="512" fill="white" transform="translate(0.5 0.5)"/>
</clipPath>
</defs>
</svg>
