<svg width="257" height="513" viewBox="0 0 257 513" fill="none" xmlns="http://www.w3.org/2000/svg">
<g clip-path="url(#clip0_104_2418)">
<path d="M0.5 48.5C0.5 22 22 0.5 48.5 0.5H208.5C235 0.5 256.5 22 256.5 48.5V96.5H176.5C167.7 96.5 160.5 103.7 160.5 112.5C160.5 121.3 167.7 128.5 176.5 128.5H256.5V192.5H176.5C167.7 192.5 160.5 199.7 160.5 208.5C160.5 217.3 167.7 224.5 176.5 224.5H256.5V288.5H176.5C167.7 288.5 160.5 295.7 160.5 304.5C160.5 313.3 167.7 320.5 176.5 320.5H256.5V384.5H176.5C167.7 384.5 160.5 391.7 160.5 400.5C160.5 409.3 167.7 416.5 176.5 416.5H256.5V464.5C256.5 491 235 512.5 208.5 512.5H48.5C22 512.5 0.5 491 0.5 464.5V48.5Z" fill="#47535F"/>
</g>
<defs>
<clipPath id="clip0_104_2418">
<rect width="256" height="512" fill="white" transform="translate(0.5 0.5)"/>
</clipPath>
</defs>
</svg>
