<svg width="513" height="513" viewBox="0 0 513 513" fill="none" xmlns="http://www.w3.org/2000/svg">
<path d="M178.4 494.6C159.7 513.3 129.3 513.3 110.5 494.6L18.4 402.4C-0.3 383.7 -0.3 353.3 18.4 334.5L69.1 283.8L117.1 331.8C123.3 338 133.5 338 139.7 331.8C145.9 325.6 145.9 315.4 139.7 309.2L91.7 261.2L133.1 219.8L181.1 267.8C187.3 274 197.5 274 203.7 267.8C209.9 261.6 209.9 251.4 203.7 245.2L155.7 197.2L197.1 155.8L245.1 203.8C251.3 210 261.5 210 267.7 203.8C273.9 197.6 273.9 187.4 267.7 181.2L219.7 133.2L261.1 91.8001L309.1 139.8C315.3 146 325.5 146 331.7 139.8C337.9 133.6 337.9 123.4 331.7 117.2L283.7 69.2001L334.4 18.5001C353.1 -0.199903 383.5 -0.199903 402.3 18.5001L494.4 110.6C513.1 129.3 513.1 159.7 494.4 178.5L178.4 494.6Z" fill="#47535F"/>
</svg>
