<svg width="449" height="513" viewBox="0 0 449 513" fill="none" xmlns="http://www.w3.org/2000/svg">
<g clip-path="url(#clip0_104_2420)">
<path d="M0.5 64.5C0.5 46.8 14.8 32.5 32.5 32.5H112.5C192 32.5 256.5 97 256.5 176.5C256.5 235.3 221.3 285.8 170.8 308.2L222.2 436.6C228.8 453 220.8 471.6 204.4 478.2C188 484.8 169.4 476.8 162.8 460.4L106.8 320.5H64.5V448.5C64.5 466.2 50.2 480.5 32.5 480.5C14.8 480.5 0.5 466.2 0.5 448.5V288.5V64.5ZM64.5 256.5H112.5C156.7 256.5 192.5 220.7 192.5 176.5C192.5 132.3 156.7 96.5 112.5 96.5H64.5V256.5ZM321 272.9C320.1 278.9 321 281.6 321.4 282.7C321.8 283.8 322.8 285.3 325.6 287.6C332.8 293.3 344.3 297.6 363.5 304.4L364.8 304.9C380.8 310.5 403.5 318.5 420.5 333C430 341.1 438.4 351.6 443.6 365.3C448.7 379 449.7 393.8 447.4 409.3C443.2 437.4 426.9 458.6 403.6 470.2C381.5 481.2 355.5 482.7 330.4 478.2H330.2C320.9 476.4 309.7 472.5 300.9 469.2C294.9 466.9 288.3 464.3 283.2 462.3C280.7 461.3 278.6 460.5 276.9 459.8C260.4 453.4 252.3 434.8 258.7 418.4C265.1 402 283.6 393.8 300.1 400.2C302.7 401.2 305.3 402.2 308 403.3C312.8 405.2 317.8 407.2 323.4 409.3C332.2 412.6 338.7 414.7 342.1 415.3C357.8 418.1 368.8 416.1 375 413C380 410.5 383 407 384.1 400C385.1 393.1 384.3 389.5 383.6 387.7C383 386 381.8 384.1 379.1 381.8C372.2 376 360.9 371.4 342.2 364.8L339.2 363.7C323.7 358.3 302.2 350.7 285.9 337.8C276.4 330.3 267.6 320.2 262.2 306.8C256.7 293.4 255.6 278.8 257.8 263.6C266.2 206.5 324.8 185.6 374.7 194.7C381.6 196 402 200.5 410.1 203.1C427 208.3 436.4 226.3 431.2 243.2C426 260.1 408 269.5 391.1 264.3C386.4 262.9 368.8 258.8 363.2 257.8C348.6 255.1 337.4 257.4 330.6 261C324.3 264.3 321.7 268.6 321.1 273L321 272.9Z" fill="#47535F"/>
</g>
<defs>
<clipPath id="clip0_104_2420">
<rect width="448" height="512" fill="white" transform="translate(0.5 0.5)"/>
</clipPath>
</defs>
</svg>
