<svg width="513" height="513" viewBox="0 0 513 513" fill="none" xmlns="http://www.w3.org/2000/svg">
<g clip-path="url(#clip0_104_2422)">
<path d="M0.5 64.5C0.5 46.8 14.8 32.5 32.5 32.5H112.5C192 32.5 256.5 97 256.5 176.5C256.5 235.3 221.3 285.8 170.8 308.2L222.2 436.6C228.8 453 220.8 471.6 204.4 478.2C188 484.8 169.4 476.8 162.8 460.4L106.8 320.5H64.5V448.5C64.5 466.2 50.2 480.5 32.5 480.5C14.8 480.5 0.5 466.2 0.5 448.5V288.5V64.5ZM64.5 256.5H112.5C156.7 256.5 192.5 220.7 192.5 176.5C192.5 132.3 156.7 96.5 112.5 96.5H64.5V256.5ZM320.5 160.5H400.5C462.4 160.5 512.5 210.6 512.5 272.5C512.5 334.4 462.4 384.5 400.5 384.5H352.5V480.5C352.5 498.2 338.2 512.5 320.5 512.5C302.8 512.5 288.5 498.2 288.5 480.5V352.5V192.5C288.5 174.8 302.8 160.5 320.5 160.5ZM400.5 320.5C427 320.5 448.5 299 448.5 272.5C448.5 246 427 224.5 400.5 224.5H352.5V320.5H400.5Z" fill="#47535F"/>
</g>
<defs>
<clipPath id="clip0_104_2422">
<rect width="512" height="512" fill="white" transform="translate(0.5 0.5)"/>
</clipPath>
</defs>
</svg>
