<svg width="321" height="513" viewBox="0 0 321 513" fill="none" xmlns="http://www.w3.org/2000/svg">
<g clip-path="url(#clip0_104_2424)">
<path d="M99.5996 105.9C79.4996 114.5 68.6996 127.7 65.6996 145.3C63.2996 159.4 64.9996 168.5 67.6996 174.7C70.4996 181 75.5996 187.1 84.3996 193.3C103.6 206.7 132.7 215.4 169.3 225.8C170.3 226.1 171.2 226.4 172.2 226.6C204.9 235.9 244.2 247.2 273.1 267.3C288.8 278.2 303 292.8 311.7 312.4C320.5 332.2 322.5 354.4 318.3 378.7C311 421.2 283 450.4 246.5 466C211.1 481.2 167.4 483.9 122.8 476.9H122.6C98.5996 473 59.8996 459.8 34.9996 451.3C30.1996 449.6 25.7996 448.2 22.1996 447C5.59961 441.3 -3.40039 423.2 2.09961 406.4C7.59961 389.6 25.7996 380.6 42.5996 386.1C47.4996 387.7 52.7996 389.5 58.4996 391.5C83.8996 400.1 114.9 410.7 132.9 413.6C169.7 419.3 200.4 416.1 221.4 407.1C241.5 398.5 252.2 385.3 255.3 367.7C257.7 353.6 256 344.5 253.3 338.3C250.5 332 245.4 325.9 236.6 319.7C217.4 306.3 188.3 297.6 151.7 287.2C150.7 286.9 149.8 286.6 148.8 286.4C116.1 277.1 76.7996 265.8 47.8996 245.7C32.1996 234.8 17.9996 220.2 9.29961 200.6C0.499608 180.8 -1.50039 158.6 2.69961 134.3L34.1996 139.8L2.59961 134.4C9.89961 91.9001 37.8996 62.7001 74.3996 47.1001C109.8 31.9001 153.5 29.2001 198.1 36.2001C211.1 38.2001 250.5 45.8001 264.7 49.6001C281.8 54.1001 291.9 71.7001 287.4 88.8001C282.9 105.9 265.3 116 248.2 111.5C237 108.5 200.1 101.3 188.1 99.5001C151.2 93.7001 120.6 97.0001 99.4996 106L99.5996 105.9Z" fill="#47535F"/>
</g>
<defs>
<clipPath id="clip0_104_2424">
<rect width="320" height="512" fill="white" transform="translate(0.5 0.5)"/>
</clipPath>
</defs>
</svg>
