<svg width="513" height="513" viewBox="0 0 513 513" fill="none" xmlns="http://www.w3.org/2000/svg">
<g clip-path="url(#clip0_104_2426)">
<path d="M320.5 96.5H192.5L145.1 25.4C138 14.7 145.6 0.5 158.4 0.5H354.6C367.4 0.5 375 14.7 367.9 25.4L320.5 96.5ZM192.5 128.5H320.5C324.3 131 328.6 133.8 333.5 136.9C390.2 173.2 512.5 251.4 512.5 416.5C512.5 469.5 469.5 512.5 416.5 512.5H96.5C43.5 512.5 0.5 469.5 0.5 416.5C0.5 251.4 122.8 173.2 179.5 136.9C184.3 133.8 188.7 131 192.5 128.5ZM276.5 216.5C276.5 205.5 267.5 196.5 256.5 196.5C245.5 196.5 236.5 205.5 236.5 216.5V230.5C228.9 232.2 221.3 234.9 214.3 239C200.4 247.3 188.4 261.8 188.5 282.9C188.6 303.2 200.5 316 213.2 323.6C224.2 330.2 237.9 334.4 248.8 337.6L250.5 338.1C263.1 341.9 272.3 344.9 278.5 348.8C283.6 352 284.3 354.2 284.4 357C284.5 362 282.6 365 278.5 367.5C273.5 370.6 265.6 372.5 257.1 372.2C246 371.8 235.6 368.3 222 363.7C219.7 362.9 217.3 362.1 214.8 361.3C204.3 357.8 193 363.5 189.5 373.9C186 384.3 191.7 395.7 202.1 399.2C204 399.8 206.1 400.5 208.2 401.3C216.5 404.2 226.1 407.5 236.4 409.7V424.5C236.4 435.5 245.4 444.5 256.4 444.5C267.4 444.5 276.4 435.5 276.4 424.5V410.7C284.4 409 292.4 406.2 299.6 401.7C313.9 392.8 324.7 377.6 324.4 356.7C324.1 336.4 312.7 323.3 299.8 315.1C288.3 307.9 273.9 303.5 262.7 300.1L262 299.9C249.2 296 240.1 293.2 233.7 289.4C228.5 286.3 228.4 284.5 228.4 282.7C228.4 279 229.8 276.2 234.6 273.4C240 270.2 248.2 268.3 256.1 268.4C265.7 268.5 276.3 270.6 287.3 273.6C298 276.4 308.9 270.1 311.8 259.4C314.7 248.7 308.3 237.8 297.6 234.9C291.1 233.2 283.9 231.5 276.5 230.2V216.5Z" fill="#47535F"/>
</g>
<defs>
<clipPath id="clip0_104_2426">
<rect width="512" height="512" fill="white" transform="translate(0.5 0.5)"/>
</clipPath>
</defs>
</svg>
