<svg width="513" height="513" viewBox="0 0 513 513" fill="none" xmlns="http://www.w3.org/2000/svg">
<g clip-path="url(#clip0_104_2428)">
<path d="M192.5 96.5H320.5L367.9 25.4C375 14.7 367.4 0.5 354.6 0.5H158.4C145.6 0.5 138 14.7 145.1 25.4L192.5 96.5ZM320.5 128.5H192.5C188.7 131 184.4 133.8 179.5 136.9C122.8 173.2 0.5 251.4 0.5 416.5C0.5 469.5 43.5 512.5 96.5 512.5H416.5C469.5 512.5 512.5 469.5 512.5 416.5C512.5 251.4 390.2 173.2 333.5 136.9C328.7 133.8 324.3 131 320.5 128.5ZM290.4 336.5L337.4 383.5C346.8 392.9 346.8 408.1 337.4 417.4C328 426.7 312.8 426.8 303.5 417.4L256.5 370.4L209.5 417.4C200.1 426.8 184.9 426.8 175.6 417.4C166.3 408 166.2 392.8 175.6 383.5L222.6 336.5L175.6 289.5C166.2 280.1 166.2 264.9 175.6 255.6C185 246.3 200.2 246.2 209.5 255.6L256.5 302.6L303.5 255.6C312.9 246.2 328.1 246.2 337.4 255.6C346.7 265 346.8 280.2 337.4 289.5L290.4 336.5Z" fill="#47535F"/>
</g>
<defs>
<clipPath id="clip0_104_2428">
<rect width="512" height="512" fill="white" transform="translate(0.5 0.5)"/>
</clipPath>
</defs>
</svg>
