<svg width="577" height="513" viewBox="0 0 577 513" fill="none" xmlns="http://www.w3.org/2000/svg">
<g clip-path="url(#clip0_104_2430)">
<path d="M256.5 16.5C256.5 9.49998 261 3.29998 267.7 1.19998C274.4 -0.900016 281.6 1.59998 285.6 7.29998L509.6 327.3C513 332.2 513.4 338.6 510.7 343.9C508 349.2 502.5 352.5 496.5 352.5H272.5C263.7 352.5 256.5 345.3 256.5 336.5V16.5ZM212.6 97C219.6 98.9 224.5 105.2 224.5 112.5V336.5C224.5 345.3 217.3 352.5 208.5 352.5H80.4999C74.7999 352.5 69.4999 349.5 66.6999 344.5C63.8999 339.5 63.7999 333.5 66.5999 328.5L194.6 104.5C198.2 98.2 205.6 95.1 212.6 97ZM6.19989 404.8C3.29989 394.6 10.9999 384.5 21.5999 384.5H555.4C566 384.5 573.7 394.6 570.8 404.8L566.8 419.1C551.2 474.4 500.9 512.5 443.5 512.5H133.5C76.0999 512.5 25.7999 474.4 10.1999 419.2L6.19989 404.9V404.8Z" fill="#47535F"/>
</g>
<defs>
<clipPath id="clip0_104_2430">
<rect width="576" height="512" fill="white" transform="translate(0.5 0.5)"/>
</clipPath>
</defs>
</svg>
