<svg width="513" height="513" viewBox="0 0 513 513" fill="none" xmlns="http://www.w3.org/2000/svg">
<g clip-path="url(#clip0_104_2434)">
<path d="M192.5 32.5C192.5 14.8 206.8 0.5 224.5 0.5C383.6 0.5 512.5 129.4 512.5 288.5C512.5 306.2 498.2 320.5 480.5 320.5C462.8 320.5 448.5 306.2 448.5 288.5C448.5 164.8 348.2 64.5 224.5 64.5C206.8 64.5 192.5 50.2 192.5 32.5ZM61.1 221.1L165.2 325.2L193.6 296.8C192.9 294.2 192.5 291.4 192.5 288.5C192.5 270.8 206.8 256.5 224.5 256.5C242.2 256.5 256.5 270.8 256.5 288.5C256.5 306.2 242.2 320.5 224.5 320.5C221.6 320.5 218.9 320.1 216.2 319.4L187.8 347.8L291.9 451.9C306.4 466.4 303.7 490.7 284.6 498.2C261 507.4 235.4 512.5 208.5 512.5C93.6 512.5 0.5 419.4 0.5 304.5C0.5 277.6 5.6 252 14.9 228.4C22.4 209.4 46.7 206.6 61.2 221.1H61.1ZM224.5 96.5C330.5 96.5 416.5 182.5 416.5 288.5C416.5 306.2 402.2 320.5 384.5 320.5C366.8 320.5 352.5 306.2 352.5 288.5C352.5 217.8 295.2 160.5 224.5 160.5C206.8 160.5 192.5 146.2 192.5 128.5C192.5 110.8 206.8 96.5 224.5 96.5Z" fill="#47535F"/>
</g>
<defs>
<clipPath id="clip0_104_2434">
<rect width="512" height="512" fill="white" transform="translate(0.5 0.5)"/>
</clipPath>
</defs>
</svg>
