<svg width="513" height="513" viewBox="0 0 513 513" fill="none" xmlns="http://www.w3.org/2000/svg">
<g clip-path="url(#clip0_104_2432)">
<path d="M233.5 7.5002C224.1 -1.8998 208.9 -1.8998 199.6 7.5002L103.6 103.5C94.1999 112.9 94.1999 128.1 103.6 137.4L193 226.8L177.5 242.3C152.8 230.9 125.4 224.5 96.4999 224.5C64.7999 224.5 34.9999 232.2 8.69992 245.7C-0.300077 250.4 -1.60008 262.4 5.59992 269.5L113.2 377.2L96.7999 393.6C94.1999 392.9 91.3999 392.5 88.4999 392.5C70.7999 392.5 56.4999 406.8 56.4999 424.5C56.4999 442.2 70.7999 456.5 88.4999 456.5C106.2 456.5 120.5 442.2 120.5 424.5C120.5 421.6 120.1 418.9 119.4 416.2L135.8 399.8L243.4 507.4C250.6 514.6 262.6 513.3 267.2 504.3C280.8 478 288.5 448.2 288.5 416.5C288.5 387.6 282.1 360.2 270.7 335.6L286.2 320.1L375.5 409.5C384.9 418.9 400.1 418.9 409.4 409.5L505.4 313.5C514.8 304.1 514.8 288.9 505.4 279.6L416 190.2L471 135.2C483.5 122.7 483.5 102.4 471 89.9002L423 41.9002C410.5 29.4002 390.2 29.4002 377.7 41.9002L322.7 96.9002L233.5 7.5002ZM392.5 358.5L320.1 286.1L382.2 224L454.6 296.5L392.5 358.6V358.5ZM226.8 192.9L154.4 120.5L216.5 58.4002L288.9 130.8L226.8 192.9Z" fill="#47535F"/>
</g>
<defs>
<clipPath id="clip0_104_2432">
<rect width="512" height="512" fill="white" transform="translate(0.5 0.5)"/>
</clipPath>
</defs>
</svg>
