<svg width="641" height="513" viewBox="0 0 641 513" fill="none" xmlns="http://www.w3.org/2000/svg">
<g clip-path="url(#clip0_104_2440)">
<path d="M118.4 62.9C101.6 57.3 92.6 39.2 98.2 22.4C103.8 5.6 121.9 -3.4 138.7 2.2L251.7 39.9C265.5 16.3 291.2 0.5 320.5 0.5C364.7 0.5 400.5 36.3 400.5 80.5C400.5 83.5 400.3 86.4 400 89.3L522.6 130.2C539.4 135.8 548.4 153.9 542.8 170.7C537.2 187.5 519.1 196.5 502.3 190.9L366.9 145.7C362.4 148.9 357.6 151.6 352.5 153.9V480.5C352.5 498.2 338.2 512.5 320.5 512.5H128.5C110.8 512.5 96.5 498.2 96.5 480.5C96.5 462.8 110.8 448.5 128.5 448.5H288.5V153.8C267.5 144.6 251.3 126.8 244.3 104.8L118.4 62.8V62.9ZM200.9 288.5L128.5 164.3L56.1 288.5H200.9ZM128.5 384.5C65.6 384.5 13.3 350.5 2.5 305.6C-0.100002 294.6 3.5 283.3 9.2 273.5L104.4 110.3C109.4 101.7 118.6 96.5 128.5 96.5C138.4 96.5 147.6 101.8 152.6 110.3L247.8 273.5C253.5 283.3 257.1 294.6 254.5 305.6C243.7 350.5 191.4 384.5 128.5 384.5ZM511.3 292.3L438.9 416.5H583.8L511.3 292.3ZM637.3 433.6C626.5 478.5 574.2 512.5 511.3 512.5C448.4 512.5 396.1 478.5 385.3 433.6C382.7 422.6 386.3 411.3 392 401.5L487.2 238.3C492.2 229.7 501.4 224.5 511.3 224.5C521.2 224.5 530.4 229.8 535.4 238.3L630.6 401.5C636.3 411.3 639.9 422.6 637.3 433.6Z" fill="#47535F"/>
</g>
<defs>
<clipPath id="clip0_104_2440">
<rect width="640" height="512" fill="white" transform="translate(0.5 0.5)"/>
</clipPath>
</defs>
</svg>
