<svg width="641" height="513" viewBox="0 0 641 513" fill="none" xmlns="http://www.w3.org/2000/svg">
<g clip-path="url(#clip0_104_2438)">
<path d="M522.6 62.9C539.4 57.3 548.4 39.2 542.8 22.4C537.2 5.59999 519.1 -3.40001 502.4 2.09999L389.4 39.8C375.5 16.3 349.8 0.499986 320.5 0.499986C276.3 0.499986 240.5 36.3 240.5 80.5C240.5 83.5 240.7 86.4 241 89.3L118.4 130.1C101.6 135.7 92.6 153.8 98.2 170.6C103.8 187.4 121.9 196.4 138.7 190.8L274.2 145.6C278.7 148.8 283.5 151.5 288.6 153.8V480.5C288.6 498.2 302.9 512.5 320.6 512.5H512.5C530.2 512.5 544.5 498.2 544.5 480.5C544.5 462.8 530.2 448.5 512.5 448.5H352.5V153.8C373.5 144.6 389.7 126.8 396.7 104.8L522.6 62.8V62.9ZM440.1 288.5L512.5 164.3L584.9 288.5H440.1ZM512.5 384.5C575.4 384.5 627.7 350.5 638.5 305.6C641.1 294.6 637.5 283.3 631.8 273.5L536.6 110.3C531.6 101.7 522.4 96.5 512.5 96.5C502.6 96.5 493.4 101.8 488.4 110.3L393.2 273.6C387.5 283.4 383.9 294.7 386.5 305.7C397.3 350.5 449.6 384.5 512.5 384.5ZM129.7 292.3L202.1 416.5H57.2L129.6 292.3H129.7ZM3.70003 433.6C14.5 478.5 66.8 512.5 129.7 512.5C192.6 512.5 244.9 478.5 255.7 433.6C258.3 422.6 254.7 411.3 249 401.5L153.7 238.3C148.7 229.7 139.5 224.5 129.6 224.5C119.7 224.5 110.5 229.8 105.5 238.3L10.4 401.6C4.70003 411.4 1.10003 422.7 3.70003 433.7V433.6Z" fill="#47535F"/>
</g>
<defs>
<clipPath id="clip0_104_2438">
<rect width="640" height="512" fill="white" transform="translate(0.5 0.5)"/>
</clipPath>
</defs>
</svg>
