<svg width="641" height="513" viewBox="0 0 641 513" fill="none" xmlns="http://www.w3.org/2000/svg">
<g clip-path="url(#clip0_104_2436)">
<path d="M384.5 32.5H512.5C530.2 32.5 544.5 46.8 544.5 64.5C544.5 82.2 530.2 96.5 512.5 96.5H398.9C393.7 122.3 376 143.6 352.5 153.8V448.5H512.5C530.2 448.5 544.5 462.8 544.5 480.5C544.5 498.2 530.2 512.5 512.5 512.5H320.5H128.5C110.8 512.5 96.5 498.2 96.5 480.5C96.5 462.8 110.8 448.5 128.5 448.5H288.5V153.8C265 143.5 247.3 122.2 242.1 96.5H128.5C110.8 96.5 96.5 82.2 96.5 64.5C96.5 46.8 110.8 32.5 128.5 32.5H256.5C271.1 13.1 294.3 0.5 320.5 0.5C346.7 0.5 369.9 13.1 384.5 32.5ZM440.1 320.5H584.9L512.5 196.3L440.1 320.5ZM512.5 416.5C449.6 416.5 397.3 382.5 386.5 337.6C383.9 326.6 387.5 315.3 393.2 305.5L488.4 142.3C493.4 133.7 502.6 128.5 512.5 128.5C522.4 128.5 531.6 133.8 536.6 142.3L631.8 305.5C637.5 315.3 641.1 326.6 638.5 337.6C627.7 382.5 575.4 416.5 512.5 416.5ZM127.3 196.3L54.9 320.5H199.8L127.3 196.3ZM1.40004 337.6C-1.19996 326.6 2.40004 315.3 8.10004 305.5L103.3 142.3C108.3 133.7 117.5 128.5 127.4 128.5C137.3 128.5 146.5 133.8 151.5 142.3L246.7 305.5C252.4 315.3 256 326.6 253.4 337.6C242.5 382.5 190.2 416.5 127.3 416.5C64.4 416.5 12.2 382.5 1.40004 337.6Z" fill="#47535F"/>
</g>
<defs>
<clipPath id="clip0_104_2436">
<rect width="640" height="512" fill="white" transform="translate(0.5 0.5)"/>
</clipPath>
</defs>
</svg>
