<svg width="641" height="513" viewBox="0 0 641 513" fill="none" xmlns="http://www.w3.org/2000/svg">
<g clip-path="url(#clip0_104_2442)">
<path d="M338.3 5.9C327.5 -1.3 313.5 -1.3 302.7 5.9L166.8 96.5H48.5C22 96.5 0.5 118 0.5 144.5V464.5C0.5 491 22 512.5 48.5 512.5H592.5C619 512.5 640.5 491 640.5 464.5V144.5C640.5 118 619 96.5 592.5 96.5H474.2L338.3 5.9ZM256.5 416.5C256.5 381.2 285.2 352.5 320.5 352.5C355.8 352.5 384.5 381.2 384.5 416.5V512.5H256.5V416.5ZM96.5 192.5H128.5C137.3 192.5 144.5 199.7 144.5 208.5V272.5C144.5 281.3 137.3 288.5 128.5 288.5H96.5C87.7 288.5 80.5 281.3 80.5 272.5V208.5C80.5 199.7 87.7 192.5 96.5 192.5ZM496.5 208.5C496.5 199.7 503.7 192.5 512.5 192.5H544.5C553.3 192.5 560.5 199.7 560.5 208.5V272.5C560.5 281.3 553.3 288.5 544.5 288.5H512.5C503.7 288.5 496.5 281.3 496.5 272.5V208.5ZM96.5 320.5H128.5C137.3 320.5 144.5 327.7 144.5 336.5V400.5C144.5 409.3 137.3 416.5 128.5 416.5H96.5C87.7 416.5 80.5 409.3 80.5 400.5V336.5C80.5 327.7 87.7 320.5 96.5 320.5ZM496.5 336.5C496.5 327.7 503.7 320.5 512.5 320.5H544.5C553.3 320.5 560.5 327.7 560.5 336.5V400.5C560.5 409.3 553.3 416.5 544.5 416.5H512.5C503.7 416.5 496.5 409.3 496.5 400.5V336.5ZM232.5 176.5C232.5 153.161 241.771 130.778 258.275 114.275C274.778 97.7714 297.161 88.5 320.5 88.5C343.839 88.5 366.222 97.7714 382.725 114.275C399.229 130.778 408.5 153.161 408.5 176.5C408.5 199.839 399.229 222.222 382.725 238.725C366.222 255.229 343.839 264.5 320.5 264.5C297.161 264.5 274.778 255.229 258.275 238.725C241.771 222.222 232.5 199.839 232.5 176.5ZM320.5 128.5C311.7 128.5 304.5 135.7 304.5 144.5V176.5C304.5 185.3 311.7 192.5 320.5 192.5H352.5C361.3 192.5 368.5 185.3 368.5 176.5C368.5 167.7 361.3 160.5 352.5 160.5H336.5V144.5C336.5 135.7 329.3 128.5 320.5 128.5Z" fill="#47535F"/>
</g>
<defs>
<clipPath id="clip0_104_2442">
<rect width="640" height="512" fill="white" transform="translate(0.5 0.5)"/>
</clipPath>
</defs>
</svg>
