<svg width="577" height="513" viewBox="0 0 577 513" fill="none" xmlns="http://www.w3.org/2000/svg">
<g clip-path="url(#clip0_104_2450)">
<path d="M288.5 0.5H400.5C409.3 0.5 416.5 7.7 416.5 16.5V80.5C416.5 89.3 409.3 96.5 400.5 96.5H321.2L410.8 160.5H512.5C547.8 160.5 576.5 189.2 576.5 224.5V448.5C576.5 483.8 547.8 512.5 512.5 512.5H336.5V400.5C336.5 374 315 352.5 288.5 352.5C262 352.5 240.5 374 240.5 400.5V512.5H64.5C29.2 512.5 0.5 483.8 0.5 448.5V224.5C0.5 189.2 29.2 160.5 64.5 160.5H166.2L256.5 96V32.5C256.5 14.8 270.8 0.5 288.5 0.5ZM336.5 240.5C336.5 227.77 331.443 215.561 322.441 206.559C313.439 197.557 301.23 192.5 288.5 192.5C275.77 192.5 263.561 197.557 254.559 206.559C245.557 215.561 240.5 227.77 240.5 240.5C240.5 253.23 245.557 265.439 254.559 274.441C263.561 283.443 275.77 288.5 288.5 288.5C301.23 288.5 313.439 283.443 322.441 274.441C331.443 265.439 336.5 253.23 336.5 240.5ZM80.5 224.5C71.7 224.5 64.5 231.7 64.5 240.5V304.5C64.5 313.3 71.7 320.5 80.5 320.5H112.5C121.3 320.5 128.5 313.3 128.5 304.5V240.5C128.5 231.7 121.3 224.5 112.5 224.5H80.5ZM448.5 240.5V304.5C448.5 313.3 455.7 320.5 464.5 320.5H496.5C505.3 320.5 512.5 313.3 512.5 304.5V240.5C512.5 231.7 505.3 224.5 496.5 224.5H464.5C455.7 224.5 448.5 231.7 448.5 240.5ZM80.5 352.5C71.7 352.5 64.5 359.7 64.5 368.5V432.5C64.5 441.3 71.7 448.5 80.5 448.5H112.5C121.3 448.5 128.5 441.3 128.5 432.5V368.5C128.5 359.7 121.3 352.5 112.5 352.5H80.5ZM464.5 352.5C455.7 352.5 448.5 359.7 448.5 368.5V432.5C448.5 441.3 455.7 448.5 464.5 448.5H496.5C505.3 448.5 512.5 441.3 512.5 432.5V368.5C512.5 359.7 505.3 352.5 496.5 352.5H464.5Z" fill="#47535F"/>
</g>
<defs>
<clipPath id="clip0_104_2450">
<rect width="576" height="512" fill="white" transform="translate(0.5 0.5)"/>
</clipPath>
</defs>
</svg>
