<svg width="641" height="513" viewBox="0 0 641 513" fill="none" xmlns="http://www.w3.org/2000/svg">
<g clip-path="url(#clip0_104_2452)">
<path d="M302.7 5.9C313.4 -1.3 327.5 -1.3 338.2 5.9L474.2 96.5H592.5C619 96.5 640.5 118 640.5 144.5V272.5C640.5 210.6 590.4 160.5 528.5 160.5C466.6 160.5 416.5 210.6 416.5 272.5V297.1C397.4 308.2 384.5 328.8 384.5 352.5H320.8H320.5C285.2 352.5 256.5 381.2 256.5 416.5V512.5H320.5H48.5C22 512.5 0.5 491 0.5 464.5V144.5C0.5 118 22 96.5 48.5 96.5H166.8L302.7 5.9ZM80.5 208.5V272.5C80.5 281.3 87.7 288.5 96.5 288.5H128.5C137.3 288.5 144.5 281.3 144.5 272.5V208.5C144.5 199.7 137.3 192.5 128.5 192.5H96.5C87.7 192.5 80.5 199.7 80.5 208.5ZM80.5 336.5V400.5C80.5 409.3 87.7 416.5 96.5 416.5H128.5C137.3 416.5 144.5 409.3 144.5 400.5V336.5C144.5 327.7 137.3 320.5 128.5 320.5H96.5C87.7 320.5 80.5 327.7 80.5 336.5ZM320.5 264.5C343.839 264.5 366.222 255.229 382.725 238.725C399.229 222.222 408.5 199.839 408.5 176.5C408.5 153.161 399.229 130.778 382.725 114.275C366.222 97.7714 343.839 88.5 320.5 88.5C297.161 88.5 274.778 97.7714 258.275 114.275C241.771 130.778 232.5 153.161 232.5 176.5C232.5 199.839 241.771 222.222 258.275 238.725C274.778 255.229 297.161 264.5 320.5 264.5ZM336.5 144.5V160.5H352.5C361.3 160.5 368.5 167.7 368.5 176.5C368.5 185.3 361.3 192.5 352.5 192.5H320.5C311.7 192.5 304.5 185.3 304.5 176.5V144.5C304.5 135.7 311.7 128.5 320.5 128.5C329.3 128.5 336.5 135.7 336.5 144.5ZM528.5 240.5C510.8 240.5 496.5 254.8 496.5 272.5V320.5H560.5V272.5C560.5 254.8 546.2 240.5 528.5 240.5ZM448.5 272.5C448.5 228.3 484.3 192.5 528.5 192.5C572.7 192.5 608.5 228.3 608.5 272.5V320.5C626.2 320.5 640.5 334.8 640.5 352.5V480.5C640.5 498.2 626.2 512.5 608.5 512.5H448.5C430.8 512.5 416.5 498.2 416.5 480.5V352.5C416.5 334.8 430.8 320.5 448.5 320.5V272.5Z" fill="#47535F"/>
</g>
<defs>
<clipPath id="clip0_104_2452">
<rect width="640" height="512" fill="white" transform="translate(0.5 0.5)"/>
</clipPath>
</defs>
</svg>
