<svg width="641" height="513" viewBox="0 0 641 513" fill="none" xmlns="http://www.w3.org/2000/svg">
<g clip-path="url(#clip0_104_2448)">
<path d="M338.3 5.9C327.5 -1.3 313.5 -1.3 302.7 5.9L166.8 96.5H48.5C22 96.5 0.5 118 0.5 144.5V464.5C0.5 491 22 512.5 48.5 512.5H320.5H256.5V416.5C256.5 381.2 285.2 352.5 320.5 352.5H320.8H321.3C324.7 314.8 340 280.4 363.5 253.4C350.7 260.5 336.1 264.5 320.5 264.5C271.9 264.5 232.5 225.1 232.5 176.5C232.5 127.9 271.9 88.5 320.5 88.5C369.1 88.5 408.5 127.9 408.5 176.5C408.5 194.8 402.9 211.8 393.4 225.9C422.4 204.9 458 192.5 496.5 192.5C556 192.5 608.6 222.1 640.5 267.3V144.5C640.5 118 619 96.5 592.5 96.5H474.2L338.3 5.9ZM96.5 192.5H128.5C137.3 192.5 144.5 199.7 144.5 208.5V272.5C144.5 281.3 137.3 288.5 128.5 288.5H96.5C87.7 288.5 80.5 281.3 80.5 272.5V208.5C80.5 199.7 87.7 192.5 96.5 192.5ZM96.5 320.5H128.5C137.3 320.5 144.5 327.7 144.5 336.5V400.5C144.5 409.3 137.3 416.5 128.5 416.5H96.5C87.7 416.5 80.5 409.3 80.5 400.5V336.5C80.5 327.7 87.7 320.5 96.5 320.5ZM320.5 128.5C311.7 128.5 304.5 135.7 304.5 144.5V176.5C304.5 185.3 311.7 192.5 320.5 192.5H352.5C361.3 192.5 368.5 185.3 368.5 176.5C368.5 167.7 361.3 160.5 352.5 160.5H336.5V144.5C336.5 135.7 329.3 128.5 320.5 128.5ZM496.5 512.5C534.691 512.5 571.318 497.329 598.323 470.323C625.329 443.318 640.5 406.691 640.5 368.5C640.5 330.309 625.329 293.682 598.323 266.677C571.318 239.671 534.691 224.5 496.5 224.5C458.309 224.5 421.682 239.671 394.677 266.677C367.671 293.682 352.5 330.309 352.5 368.5C352.5 406.691 367.671 443.318 394.677 470.323C421.682 497.329 458.309 512.5 496.5 512.5ZM519.1 368.5L555.8 405.2C562 411.4 562 421.6 555.8 427.8C549.6 434 539.4 434 533.2 427.8L496.5 391.1L459.8 427.8C453.6 434 443.4 434 437.2 427.8C431 421.6 431 411.4 437.2 405.2L473.9 368.5L437.2 331.8C431 325.6 431 315.4 437.2 309.2C443.4 303 453.6 303 459.8 309.2L496.5 345.9L533.2 309.2C539.4 303 549.6 303 555.8 309.2C562 315.4 562 325.6 555.8 331.8L519.1 368.5Z" fill="#47535F"/>
</g>
<defs>
<clipPath id="clip0_104_2448">
<rect width="640" height="512" fill="white" transform="translate(0.5 0.5)"/>
</clipPath>
</defs>
</svg>
