<svg width="513" height="513" viewBox="0 0 513 513" fill="none" xmlns="http://www.w3.org/2000/svg">
<g clip-path="url(#clip0_104_2454)">
<path d="M256.5 192.5L217 153C221.9 140.4 224.5 126.8 224.5 112.5C224.5 50.6 174.4 0.5 112.5 0.5C50.6 0.5 0.5 50.6 0.5 112.5C0.5 174.4 50.6 224.5 112.5 224.5C126.8 224.5 140.4 221.8 153 217L192.5 256.5L153 296C140.4 291.1 126.8 288.5 112.5 288.5C50.6 288.5 0.5 338.6 0.5 400.5C0.5 462.4 50.6 512.5 112.5 512.5C174.4 512.5 224.5 462.4 224.5 400.5C224.5 386.2 221.8 372.6 217 360L499.7 77.3C506.8 70.2 506.8 58.8 499.7 51.7C471.4 23.4 425.6 23.4 397.3 51.7L256.5 192.5ZM279.1 343.1L397.3 461.3C425.6 489.6 471.4 489.6 499.7 461.3C506.8 454.2 506.8 442.8 499.7 435.7L343.1 279.1L279.1 343.1ZM64.5 112.5C64.5 106.197 65.7416 99.9548 68.1538 94.1312C70.566 88.3076 74.1017 83.0161 78.5589 78.5589C83.0161 74.1017 88.3076 70.566 94.1312 68.1538C99.9548 65.7416 106.197 64.5 112.5 64.5C118.803 64.5 125.045 65.7416 130.869 68.1538C136.692 70.566 141.984 74.1017 146.441 78.5589C150.898 83.0161 154.434 88.3076 156.846 94.1312C159.258 99.9548 160.5 106.197 160.5 112.5C160.5 118.803 159.258 125.045 156.846 130.869C154.434 136.692 150.898 141.984 146.441 146.441C141.984 150.898 136.692 154.434 130.869 156.846C125.045 159.258 118.803 160.5 112.5 160.5C106.197 160.5 99.9548 159.258 94.1312 156.846C88.3076 154.434 83.0161 150.898 78.5589 146.441C74.1017 141.984 70.566 136.692 68.1538 130.869C65.7416 125.045 64.5 118.803 64.5 112.5ZM112.5 352.5C118.803 352.5 125.045 353.742 130.869 356.154C136.692 358.566 141.984 362.102 146.441 366.559C150.898 371.016 154.434 376.308 156.846 382.131C159.258 387.955 160.5 394.197 160.5 400.5C160.5 406.803 159.258 413.045 156.846 418.869C154.434 424.692 150.898 429.984 146.441 434.441C141.984 438.898 136.692 442.434 130.869 444.846C125.045 447.258 118.803 448.5 112.5 448.5C106.197 448.5 99.9548 447.258 94.1312 444.846C88.3076 442.434 83.0161 438.898 78.5589 434.441C74.1017 429.984 70.566 424.692 68.1538 418.869C65.7416 413.045 64.5 406.803 64.5 400.5C64.5 394.197 65.7416 387.955 68.1538 382.131C70.566 376.308 74.1017 371.016 78.5589 366.559C83.0161 362.102 88.3076 358.566 94.1312 356.154C99.9548 353.742 106.197 352.5 112.5 352.5Z" fill="#47535F"/>
</g>
<defs>
<clipPath id="clip0_104_2454">
<rect width="512" height="512" fill="white" transform="translate(0.5 0.5)"/>
</clipPath>
</defs>
</svg>
