<svg width="513" height="513" viewBox="0 0 513 513" fill="none" xmlns="http://www.w3.org/2000/svg">
<g clip-path="url(#clip0_104_2458)">
<path d="M79.1 5.49981C69.6 -1.90019 56.1 -1.00019 47.5 7.49981L7.50002 47.4998C-0.999982 55.9998 -1.89998 69.4998 5.40002 79.0998L85.4 183.1C89.9 189 97 192.5 104.4 192.5H158.5L267.5 301.5C252.8 330.5 257.5 366.9 281.8 391.1L393.8 503.1C406.3 515.6 426.6 515.6 439.1 503.1L503.1 439.1C515.6 426.6 515.6 406.3 503.1 393.8L391.1 281.8C366.9 257.6 330.5 252.8 301.5 267.5L192.5 158.5V104.5C192.5 96.9998 189 89.9998 183.1 85.4998L79.1 5.49981ZM20.4 396.6C7.70002 409.3 0.500018 426.6 0.500018 444.6C0.500018 482.1 30.9 512.5 68.4 512.5C86.4 512.5 103.7 505.3 116.4 492.6L234.2 374.8C226.4 353.9 225.2 331.2 230.6 309.7L168.9 248L20.4 396.6ZM512.5 144.5C512.5 134 511.4 123.8 509.3 114C506.9 102.8 493.2 99.8998 485.1 108L421.2 171.9C418.2 174.9 414.1 176.6 409.9 176.6H352.5C343.7 176.6 336.5 169.4 336.5 160.6V103.1C336.5 98.8998 338.2 94.7998 341.2 91.7998L405.1 27.8998C413.2 19.7998 410.3 6.09981 399.1 3.69981C389.2 1.59981 379 0.499814 368.5 0.499814C289 0.499814 224.5 64.9998 224.5 144.5V145.3L309.8 230.6C345.8 221.5 385.6 231.1 413.8 259.3L429.5 275C478.5 252 512.5 202.2 512.5 144.5ZM56.5 432.5C56.5 426.135 59.0286 420.03 63.5295 415.529C68.0303 411.028 74.1348 408.5 80.5 408.5C86.8652 408.5 92.9697 411.028 97.4706 415.529C101.971 420.03 104.5 426.135 104.5 432.5C104.5 438.865 101.971 444.969 97.4706 449.47C92.9697 453.971 86.8652 456.5 80.5 456.5C74.1348 456.5 68.0303 453.971 63.5295 449.47C59.0286 444.969 56.5 438.865 56.5 432.5Z" fill="#47535F"/>
</g>
<defs>
<clipPath id="clip0_104_2458">
<rect width="512" height="512" fill="white" transform="translate(0.5 0.5)"/>
</clipPath>
</defs>
</svg>
