<svg width="513" height="513" viewBox="0 0 513 513" fill="none" xmlns="http://www.w3.org/2000/svg">
<g clip-path="url(#clip0_104_2456)">
<path d="M465.5 7.50002C457 -0.999982 443.5 -1.89998 433.9 5.40002L329.9 85.4C324 89.9 320.5 97 320.5 104.4V158.5L234.9 244.1C241.6 248.3 247.9 253.4 253.7 259.2C259.5 265 264.6 271.4 268.8 278L354.4 192.5H408.5C416 192.5 423 189 427.5 183.1L507.5 79.1C514.9 69.5 514 56 505.4 47.5L465.5 7.50002ZM121.9 281.9L9.8999 393.9C-2.6001 406.4 -2.6001 426.7 9.8999 439.2L73.8999 503.2C86.3999 515.7 106.7 515.7 119.2 503.2L231.2 391.2C261.4 361 261.4 312.1 231.2 281.9C201 251.7 152.1 251.7 121.9 281.9Z" fill="#47535F"/>
</g>
<defs>
<clipPath id="clip0_104_2456">
<rect width="512" height="512" fill="white" transform="translate(0.5 0.5)"/>
</clipPath>
</defs>
</svg>
