<svg width="577" height="513" viewBox="0 0 577 513" fill="none" xmlns="http://www.w3.org/2000/svg">
<g clip-path="url(#clip0_104_2460)">
<path d="M0.5 80.5V128.5C0.5 146.2 14.8 160.5 32.5 160.5H48.5H96.5V80.5C96.5 54 75 32.5 48.5 32.5C22 32.5 0.5 54 0.5 80.5ZM112.5 32.5C122.5 45.9 128.5 62.5 128.5 80.5V384.5C128.5 419.8 157.2 448.5 192.5 448.5C227.8 448.5 256.5 419.8 256.5 384.5V379.2C256.5 346.8 282.8 320.5 315.2 320.5H480.5V128.5C480.5 75.5 437.5 32.5 384.5 32.5H112.5ZM464.5 480.5C526.4 480.5 576.5 430.4 576.5 368.5C576.5 359.7 569.3 352.5 560.5 352.5H315.2C300.5 352.5 288.5 364.4 288.5 379.2V384.5C288.5 437.5 245.5 480.5 192.5 480.5H368.5H464.5Z" fill="#47535F"/>
</g>
<defs>
<clipPath id="clip0_104_2460">
<rect width="576" height="512" fill="white" transform="translate(0.5 0.5)"/>
</clipPath>
</defs>
</svg>
