<svg width="385" height="513" viewBox="0 0 385 513" fill="none" xmlns="http://www.w3.org/2000/svg">
<g clip-path="url(#clip0_104_2464)">
<path d="M320.5 0.5H141.8C124.8 0.5 108.5 7.2 96.5 19.2L19.2 96.5C7.2 108.5 0.5 124.8 0.5 141.8V448.5C0.5 483.8 29.2 512.5 64.5 512.5H320.5C355.8 512.5 384.5 483.8 384.5 448.5V64.5C384.5 29.2 355.8 0.5 320.5 0.5ZM160.5 88.5V136.5C160.5 149.8 149.8 160.5 136.5 160.5C123.2 160.5 112.5 149.8 112.5 136.5V88.5C112.5 75.2 123.2 64.5 136.5 64.5C149.8 64.5 160.5 75.2 160.5 88.5ZM240.5 88.5V136.5C240.5 149.8 229.8 160.5 216.5 160.5C203.2 160.5 192.5 149.8 192.5 136.5V88.5C192.5 75.2 203.2 64.5 216.5 64.5C229.8 64.5 240.5 75.2 240.5 88.5ZM320.5 88.5V136.5C320.5 149.8 309.8 160.5 296.5 160.5C283.2 160.5 272.5 149.8 272.5 136.5V88.5C272.5 75.2 283.2 64.5 296.5 64.5C309.8 64.5 320.5 75.2 320.5 88.5Z" fill="#47535F"/>
</g>
<defs>
<clipPath id="clip0_104_2464">
<rect width="384" height="512" fill="white" transform="translate(0.5 0.5)"/>
</clipPath>
</defs>
</svg>
