<svg width="257" height="513" viewBox="0 0 257 513" fill="none" xmlns="http://www.w3.org/2000/svg">
<g clip-path="url(#clip0_104_2466)">
<path d="M65.4002 96.4998C67.6002 84.8998 74.2002 76.6998 86.5002 71.0998C100.3 64.8998 121.3 62.1998 147.7 66.5998C156.5 67.9998 183.8 73.6998 191.8 75.8998C208.8 80.6998 226.5 70.7998 231.3 53.6998C236.1 36.5998 226.2 18.9998 209.1 14.1998C198 11.0998 168.1 4.99978 158.2 3.39978C123.5 -2.20022 88.8002 -0.100219 60.2002 12.7998C30.4002 26.2998 8.00024 51.3998 2.10024 86.9998C2.00024 87.4998 1.90024 88.0998 1.90024 88.5998C-0.299758 108.3 2.20024 126.5 10.0002 142.7C17.7002 158.8 29.4002 170.7 42.0002 179.6C42.6002 180.1 43.3002 180.5 44.0002 181C22.8002 194.7 7.00024 215.6 2.20024 243.5C2.10024 244.1 2.00024 244.6 2.00024 245.2C-0.299758 264.5 2.40024 282.3 10.4002 298.2C18.3002 313.8 30.2002 325.2 42.7002 333.7C65.1002 348.9 94.6002 357.7 118.1 364.7L121.8 365.8C149 374 168.7 380.4 181.2 389.6C186.7 393.6 189.4 397.2 190.7 400.5C192 403.7 193.3 409.1 191.6 418.6C189.9 428.7 183.9 436.6 170.9 442.1C156.9 448.1 135.5 450.6 108.9 446.5C96.1002 444.4 73.8002 436.8 54.8002 430.3C50.5002 428.8 46.3002 427.4 42.5002 426.1C25.8002 420.5 7.70024 429.6 2.10024 446.3C-3.49976 463 5.60024 481.2 22.4002 486.8C25.0002 487.6 28.1002 488.7 31.6002 489.9C50.2002 496.2 80.1002 506.5 98.9002 509.5H99.1002C133.6 514.9 167.9 512.9 196.3 500.8C225.7 488.2 248.8 464.3 254.8 429.3C258.1 410 256.7 391.9 249.8 375.4C243.5 360.4 233.4 349 222.2 340.2C238.7 326.3 250.7 307 254.8 282C258 262.2 256.7 243.7 250 226.9C243.3 210.1 232.2 197.5 219.8 187.9C197 170.3 166.2 160.5 142.1 152.9L140.7 152.4C113.3 143.7 92.9002 137.1 79.2002 127.4C73.1002 123 69.7002 118.9 67.8002 115C66.0002 111.3 64.6002 105.7 65.5002 96.4998H65.4002ZM142.1 305C141.9 304.9 141.7 304.9 141.5 304.8L140.1 304.4C112.7 296.2 92.2002 289.9 78.4002 280.6C72.2002 276.4 69.1002 272.7 67.4002 269.3C65.9002 266.3 64.5002 261.6 65.3002 253.6C67.2002 243.9 73.2002 236.3 85.8002 230.9C99.8002 224.9 121.2 222.4 147.9 226.6L164.3 229.2C170.6 232.1 176 235.2 180.5 238.7C186 242.9 188.9 246.9 190.5 250.9C192.1 254.9 193.3 261.3 191.6 271.8C189.2 286.5 178.8 298.2 154.5 302.8L142.1 305.1V305Z" fill="#47535F"/>
</g>
<defs>
<clipPath id="clip0_104_2466">
<rect width="256" height="512" fill="white" transform="translate(0.5 0.5)"/>
</clipPath>
</defs>
</svg>
