<svg width="513" height="513" viewBox="0 0 513 513" fill="none" xmlns="http://www.w3.org/2000/svg">
<g clip-path="url(#clip0_104_2468)">
<path d="M512.5 32.5C512.5 146.1 427.9 240 318.3 254.5C311.2 201.1 287.7 152.9 253 115.2C291.3 46.8 364.5 0.5 448.5 0.5H480.5C498.2 0.5 512.5 14.8 512.5 32.5ZM0.5 96.5C0.5 78.8 14.8 64.5 32.5 64.5H64.5C188.2 64.5 288.5 164.8 288.5 288.5V320.5V480.5C288.5 498.2 274.2 512.5 256.5 512.5C238.8 512.5 224.5 498.2 224.5 480.5V320.5C100.8 320.5 0.5 220.2 0.5 96.5Z" fill="#47535F"/>
</g>
<defs>
<clipPath id="clip0_104_2468">
<rect width="512" height="512" fill="white" transform="translate(0.5 0.5)"/>
</clipPath>
</defs>
</svg>
