<svg width="513" height="513" viewBox="0 0 513 513" fill="none" xmlns="http://www.w3.org/2000/svg">
<g clip-path="url(#clip0_104_2470)">
<path d="M64.5 32.5C29.2 32.5 0.5 61.2 0.5 96.5V160.5C0.5 195.8 29.2 224.5 64.5 224.5H448.5C483.8 224.5 512.5 195.8 512.5 160.5V96.5C512.5 61.2 483.8 32.5 448.5 32.5H64.5ZM344.5 104.5C350.865 104.5 356.97 107.029 361.471 111.529C365.971 116.03 368.5 122.135 368.5 128.5C368.5 134.865 365.971 140.97 361.471 145.471C356.97 149.971 350.865 152.5 344.5 152.5C338.135 152.5 332.03 149.971 327.529 145.471C323.029 140.97 320.5 134.865 320.5 128.5C320.5 122.135 323.029 116.03 327.529 111.529C332.03 107.029 338.135 104.5 344.5 104.5ZM392.5 128.5C392.5 122.135 395.029 116.03 399.529 111.529C404.03 107.029 410.135 104.5 416.5 104.5C422.865 104.5 428.97 107.029 433.471 111.529C437.971 116.03 440.5 122.135 440.5 128.5C440.5 134.865 437.971 140.97 433.471 145.471C428.97 149.971 422.865 152.5 416.5 152.5C410.135 152.5 404.03 149.971 399.529 145.471C395.029 140.97 392.5 134.865 392.5 128.5ZM64.5 288.5C29.2 288.5 0.5 317.2 0.5 352.5V416.5C0.5 451.8 29.2 480.5 64.5 480.5H448.5C483.8 480.5 512.5 451.8 512.5 416.5V352.5C512.5 317.2 483.8 288.5 448.5 288.5H64.5ZM344.5 360.5C350.865 360.5 356.97 363.029 361.471 367.529C365.971 372.03 368.5 378.135 368.5 384.5C368.5 390.865 365.971 396.97 361.471 401.471C356.97 405.971 350.865 408.5 344.5 408.5C338.135 408.5 332.03 405.971 327.529 401.471C323.029 396.97 320.5 390.865 320.5 384.5C320.5 378.135 323.029 372.03 327.529 367.529C332.03 363.029 338.135 360.5 344.5 360.5ZM400.5 384.5C400.5 378.135 403.029 372.03 407.529 367.529C412.03 363.029 418.135 360.5 424.5 360.5C430.865 360.5 436.97 363.029 441.471 367.529C445.971 372.03 448.5 378.135 448.5 384.5C448.5 390.865 445.971 396.97 441.471 401.471C436.97 405.971 430.865 408.5 424.5 408.5C418.135 408.5 412.03 405.971 407.529 401.471C403.029 396.97 400.5 390.865 400.5 384.5Z" fill="#47535F"/>
</g>
<defs>
<clipPath id="clip0_104_2470">
<rect width="512" height="512" fill="white" transform="translate(0.5 0.5)"/>
</clipPath>
</defs>
</svg>
