<svg width="513" height="513" viewBox="0 0 513 513" fill="none" xmlns="http://www.w3.org/2000/svg">
<g clip-path="url(#clip0_104_2472)">
<path d="M315.9 16C310.2 6.4 299.7 0.5 288.5 0.5C277.3 0.5 266.8 6.4 261.1 16L165.1 176C159.2 185.9 159 198.2 164.7 208.2C170.4 218.2 181 224.4 192.5 224.4H384.5C396 224.4 406.7 218.2 412.3 208.2C417.9 198.2 417.8 185.9 411.9 176L315.9 16ZM288.5 312.5V456.5C288.5 478.6 306.4 496.5 328.5 496.5H472.5C494.6 496.5 512.5 478.6 512.5 456.5V312.5C512.5 290.4 494.6 272.5 472.5 272.5H328.5C306.4 272.5 288.5 290.4 288.5 312.5ZM128.5 512.5C162.448 512.5 195.005 499.014 219.01 475.01C243.014 451.005 256.5 418.448 256.5 384.5C256.5 350.552 243.014 317.995 219.01 293.99C195.005 269.986 162.448 256.5 128.5 256.5C94.5523 256.5 61.995 269.986 37.9903 293.99C13.9857 317.995 0.5 350.552 0.5 384.5C0.5 418.448 13.9857 451.005 37.9903 475.01C61.995 499.014 94.5523 512.5 128.5 512.5Z" fill="#47535F"/>
</g>
<defs>
<clipPath id="clip0_104_2472">
<rect width="512" height="512" fill="white" transform="translate(0.5 0.5)"/>
</clipPath>
</defs>
</svg>
