<svg width="577" height="513" viewBox="0 0 577 513" fill="none" xmlns="http://www.w3.org/2000/svg">
<g clip-path="url(#clip0_104_2476)">
<path d="M352.5 224.5H306C261 224.5 224.5 261 224.5 306C224.5 328.3 234.8 340.3 243.7 346.5C250.5 351.2 256.5 358.5 256.5 366.8C256.5 376.6 248.5 384.6 238.7 384.6H236.2C233.8 384.6 231.4 384.2 229.1 383.2C211.3 375.3 128.5 333.9 128.5 240.5C128.5 161 193 96.5 272.5 96.5H352.5V35.2C352.5 16 368 0.5 387.2 0.5C395.8 0.5 404 3.7 410.4 9.4L548.6 133.8C556.2 140.6 560.5 150.3 560.5 160.5C560.5 170.7 556.2 180.4 548.6 187.2L409.6 312.3C403.7 317.6 396.1 320.5 388.2 320.5H384.5C366.8 320.5 352.5 306.2 352.5 288.5V224.5ZM80.5 96.5C71.7 96.5 64.5 103.7 64.5 112.5V432.5C64.5 441.3 71.7 448.5 80.5 448.5H400.5C409.3 448.5 416.5 441.3 416.5 432.5V384.5C416.5 366.8 430.8 352.5 448.5 352.5C466.2 352.5 480.5 366.8 480.5 384.5V432.5C480.5 476.7 444.7 512.5 400.5 512.5H80.5C36.3 512.5 0.5 476.7 0.5 432.5V112.5C0.5 68.3 36.3 32.5 80.5 32.5H128.5C146.2 32.5 160.5 46.8 160.5 64.5C160.5 82.2 146.2 96.5 128.5 96.5H80.5Z" fill="#47535F"/>
</g>
<defs>
<clipPath id="clip0_104_2476">
<rect width="576" height="512" fill="white" transform="translate(0.5 0.5)"/>
</clipPath>
</defs>
</svg>
