<svg width="513" height="513" viewBox="0 0 513 513" fill="none" xmlns="http://www.w3.org/2000/svg">
<g clip-path="url(#clip0_104_2474)">
<path d="M307.5 35.3001C296 40.4001 288.5 51.9001 288.5 64.5001V128.5H176.5C79.3 128.5 0.5 207.3 0.5 304.5C0.5 417.8 82 468.4 100.7 478.6C103.2 480 106 480.5 108.8 480.5C119.7 480.5 128.5 471.6 128.5 460.8C128.5 453.3 124.2 446.4 118.7 441.3C109.3 432.4 96.5 414.9 96.5 384.5C96.5 331.5 139.5 288.5 192.5 288.5H288.5V352.5C288.5 365.1 295.9 376.6 307.5 381.7C319.1 386.8 332.5 384.7 341.9 376.3L501.9 232.3C508.6 226.2 512.5 217.6 512.5 208.5C512.5 199.4 508.7 190.8 501.9 184.7L341.9 40.7001C332.5 32.2001 319 30.1001 307.5 35.3001Z" fill="#47535F"/>
</g>
<defs>
<clipPath id="clip0_104_2474">
<rect width="512" height="512" fill="white" transform="translate(0.5 0.5)"/>
</clipPath>
</defs>
</svg>
