<svg width="449" height="513" viewBox="0 0 449 513" fill="none" xmlns="http://www.w3.org/2000/svg">
<g clip-path="url(#clip0_104_2478)">
<path d="M352.5 224.5C405.5 224.5 448.5 181.5 448.5 128.5C448.5 75.5 405.5 32.5 352.5 32.5C299.5 32.5 256.5 75.5 256.5 128.5C256.5 132.5 256.7 136.5 257.2 140.4L163.1 187.4C145.9 170.7 122.4 160.5 96.5 160.5C43.5 160.5 0.5 203.5 0.5 256.5C0.5 309.5 43.5 352.5 96.5 352.5C122.4 352.5 145.9 342.3 163.1 325.6L257.2 372.6C256.7 376.5 256.5 380.4 256.5 384.5C256.5 437.5 299.5 480.5 352.5 480.5C405.5 480.5 448.5 437.5 448.5 384.5C448.5 331.5 405.5 288.5 352.5 288.5C326.6 288.5 303.1 298.7 285.9 315.4L191.8 268.4C192.3 264.5 192.5 260.6 192.5 256.5C192.5 252.4 192.3 248.5 191.8 244.6L285.9 197.6C303.1 214.3 326.6 224.5 352.5 224.5Z" fill="#47535F"/>
</g>
<defs>
<clipPath id="clip0_104_2478">
<rect width="448" height="512" fill="white" transform="translate(0.5 0.5)"/>
</clipPath>
</defs>
</svg>
