<svg width="385" height="513" viewBox="0 0 385 513" fill="none" xmlns="http://www.w3.org/2000/svg">
<g clip-path="url(#clip0_104_2480)">
<path d="M0.5 448.5C0.5 483.8 29.2 512.5 64.5 512.5H224.5V384.5C224.5 366.8 238.8 352.5 256.5 352.5H384.5V64.5C384.5 29.2 355.8 0.5 320.5 0.5H64.5C29.2 0.5 0.5 29.2 0.5 64.5V448.5ZM171.8 75.8L75.8 171.8C69.6 178 59.4 178 53.2 171.8C47 165.6 47 155.4 53.2 149.2L149.2 53.2C155.4 47 165.6 47 171.8 53.2C178 59.4 178 69.6 171.8 75.8ZM267.8 107.8L107.8 267.8C101.6 274 91.4 274 85.2 267.8C79 261.6 79 251.4 85.2 245.2L245.2 85.2C251.4 79 261.6 79 267.8 85.2C274 91.4 274 101.6 267.8 107.8ZM384.5 384.5H256.5V512.5L384.5 384.5Z" fill="#47535F"/>
</g>
<defs>
<clipPath id="clip0_104_2480">
<rect width="384" height="512" fill="white" transform="translate(0.5 0.5)"/>
</clipPath>
</defs>
</svg>
