<svg width="449" height="513" viewBox="0 0 449 513" fill="none" xmlns="http://www.w3.org/2000/svg">
<g clip-path="url(#clip0_104_2482)">
<path d="M32.5 32.5C14.8 32.5 0.5 46.8 0.5 64.5V448.5C0.5 466.2 14.8 480.5 32.5 480.5C50.2 480.5 64.5 466.2 64.5 448.5V96.5H192.5C227.8 96.5 256.5 125.2 256.5 160.5V320.5C256.5 338.2 270.8 352.5 288.5 352.5C306.2 352.5 320.5 338.2 320.5 320.5V160.5C320.5 89.8 263.2 32.5 192.5 32.5H32.5ZM320.5 480.5C391.2 480.5 448.5 423.2 448.5 352.5V64.5C448.5 46.8 434.2 32.5 416.5 32.5C398.8 32.5 384.5 46.8 384.5 64.5V352.5C384.5 387.8 355.8 416.5 320.5 416.5H192.5V192.5C192.5 174.8 178.2 160.5 160.5 160.5C142.8 160.5 128.5 174.8 128.5 192.5V448.5C128.5 466.2 142.8 480.5 160.5 480.5H320.5Z" fill="#47535F"/>
</g>
<defs>
<clipPath id="clip0_104_2482">
<rect width="448" height="512" fill="white" transform="translate(0.5 0.5)"/>
</clipPath>
</defs>
</svg>
