<svg width="513" height="513" viewBox="0 0 513 513" fill="none" xmlns="http://www.w3.org/2000/svg">
<g clip-path="url(#clip0_104_2492)">
<path d="M269.9 3.4C265.7 1.5 261.2 0.5 256.5 0.5C251.8 0.5 247.3 1.5 243.1 3.4L54.8005 83.3C32.8005 92.6 16.4005 114.3 16.5005 140.5C17.0005 239.7 57.8005 421.2 230.1 503.7C246.8 511.7 266.2 511.7 282.9 503.7C455.2 421.2 496 239.7 496.5 140.5C496.6 114.3 480.2 92.6 458.2 83.3L269.9 3.4ZM144.5 221.8C144.5 188 171.9 160.5 205.8 160.5C222 160.5 237.6 167 249.1 178.4L256.5 185.8L263.9 178.4C275.4 166.9 291 160.5 307.2 160.5C341 160.5 368.5 187.9 368.5 221.8C368.5 238 362 253.6 350.6 265.1L267.9 347.8C261.7 354 251.5 354 245.3 347.8L162.6 265.1C151.1 253.6 144.7 238 144.7 221.8H144.5Z" fill="#47535F"/>
</g>
<defs>
<clipPath id="clip0_104_2492">
<rect width="512" height="512" fill="white" transform="translate(0.5 0.5)"/>
</clipPath>
</defs>
</svg>
