<svg width="513" height="513" viewBox="0 0 513 513" fill="none" xmlns="http://www.w3.org/2000/svg">
<g clip-path="url(#clip0_104_2494)">
<path d="M269.9 3.4C265.7 1.5 261.2 0.5 256.5 0.5C251.8 0.5 247.3 1.5 243.1 3.4L54.8005 83.3C32.8005 92.6 16.4005 114.3 16.5005 140.5C17.0005 239.7 57.8005 421.2 230.1 503.7C246.8 511.7 266.2 511.7 282.9 503.7C455.2 421.2 496 239.7 496.5 140.5C496.6 114.3 480.2 92.6 458.2 83.3L269.9 3.4ZM256.5 112.5C265.3 112.5 272.5 119.7 272.5 128.5C272.5 161.5 312.4 178 335.7 154.7C341.9 148.5 352.1 148.5 358.3 154.7C364.5 160.9 364.5 171.1 358.3 177.3C335 200.6 351.5 240.5 384.5 240.5C393.3 240.5 400.5 247.7 400.5 256.5C400.5 265.3 393.3 272.5 384.5 272.5C351.5 272.5 335 312.4 358.3 335.7C364.5 341.9 364.5 352.1 358.3 358.3C352.1 364.5 341.9 364.5 335.7 358.3C312.4 335 272.5 351.5 272.5 384.5C272.5 393.3 265.3 400.5 256.5 400.5C247.7 400.5 240.5 393.3 240.5 384.5C240.5 351.5 200.6 335 177.3 358.3C171.1 364.5 160.9 364.5 154.7 358.3C148.5 352.1 148.5 341.9 154.7 335.7C178 312.4 161.5 272.5 128.5 272.5C119.7 272.5 112.5 265.3 112.5 256.5C112.5 247.7 119.7 240.5 128.5 240.5C161.5 240.5 178 200.6 154.7 177.3C148.5 171.1 148.5 160.9 154.7 154.7C160.9 148.5 171.1 148.5 177.3 154.7C200.6 178 240.5 161.5 240.5 128.5C240.5 119.7 247.7 112.5 256.5 112.5ZM232.5 256.5C238.866 256.5 244.97 253.971 249.471 249.471C253.972 244.97 256.5 238.865 256.5 232.5C256.5 226.135 253.972 220.03 249.471 215.529C244.97 211.029 238.866 208.5 232.5 208.5C226.135 208.5 220.031 211.029 215.53 215.529C211.029 220.03 208.5 226.135 208.5 232.5C208.5 238.865 211.029 244.97 215.53 249.471C220.031 253.971 226.135 256.5 232.5 256.5ZM304.5 288.5C304.5 284.257 302.815 280.187 299.814 277.186C296.814 274.186 292.744 272.5 288.5 272.5C284.257 272.5 280.187 274.186 277.187 277.186C274.186 280.187 272.5 284.257 272.5 288.5C272.5 292.743 274.186 296.813 277.187 299.814C280.187 302.814 284.257 304.5 288.5 304.5C292.744 304.5 296.814 302.814 299.814 299.814C302.815 296.813 304.5 292.743 304.5 288.5Z" fill="#47535F"/>
</g>
<defs>
<clipPath id="clip0_104_2494">
<rect width="512" height="512" fill="white" transform="translate(0.5 0.5)"/>
</clipPath>
</defs>
</svg>
