<svg width="513" height="513" viewBox="0 0 513 513" fill="none" xmlns="http://www.w3.org/2000/svg">
<g clip-path="url(#clip0_104_2488)">
<path d="M269.9 3.4C265.7 1.5 261.2 0.5 256.5 0.5C251.8 0.5 247.3 1.5 243.1 3.4L54.8005 83.3C32.8005 92.6 16.4005 114.3 16.5005 140.5C17.0005 239.7 57.8005 421.2 230.1 503.7C246.8 511.7 266.2 511.7 282.9 503.7C455.2 421.2 496 239.7 496.5 140.5C496.6 114.3 480.2 92.6 458.2 83.3L269.9 3.4ZM161.4 286.7C166.2 287.9 171.3 288.5 176.5 288.5C211.8 288.5 240.5 259.8 240.5 224.5V160.5H284.7C296.8 160.5 307.9 167.3 313.3 178.2L320.5 192.5H384.5C393.3 192.5 400.5 199.7 400.5 208.5V240.5C400.5 284.7 364.7 320.5 320.5 320.5H272.5V371.2C272.5 378.5 266.6 384.5 259.2 384.5C257.4 384.5 255.6 384.1 254 383.4L155.3 341.1C148.7 338.3 144.5 331.8 144.5 324.7C144.5 321.9 145.1 319.2 146.4 316.7L161.4 286.7ZM160.5 160.5H200.5H208.5V192.5V224.5C208.5 242.2 194.2 256.5 176.5 256.5C158.8 256.5 144.5 242.2 144.5 224.5V176.5C144.5 167.7 151.7 160.5 160.5 160.5ZM288.5 208.5C288.5 204.257 286.815 200.187 283.814 197.186C280.814 194.186 276.744 192.5 272.5 192.5C268.257 192.5 264.187 194.186 261.187 197.186C258.186 200.187 256.5 204.257 256.5 208.5C256.5 212.743 258.186 216.813 261.187 219.814C264.187 222.814 268.257 224.5 272.5 224.5C276.744 224.5 280.814 222.814 283.814 219.814C286.815 216.813 288.5 212.743 288.5 208.5Z" fill="#47535F"/>
</g>
<defs>
<clipPath id="clip0_104_2488">
<rect width="512" height="512" fill="white" transform="translate(0.5 0.5)"/>
</clipPath>
</defs>
</svg>
