<svg width="513" height="513" viewBox="0 0 513 513" fill="none" xmlns="http://www.w3.org/2000/svg">
<g clip-path="url(#clip0_104_2486)">
<path d="M269.9 3.4C265.7 1.5 261.2 0.5 256.5 0.5C251.8 0.5 247.3 1.5 243.1 3.4L54.8005 83.3C32.8005 92.6 16.4005 114.3 16.5005 140.5C17.0005 239.7 57.8005 421.2 230.1 503.7C246.8 511.7 266.2 511.7 282.9 503.7C455.2 421.2 496 239.7 496.5 140.5C496.6 114.3 480.2 92.6 458.2 83.3L269.9 3.4ZM160.5 154.9C160.5 149.1 165.2 144.5 170.9 144.5H171.1C174.5 144.5 177.6 146.1 179.6 148.8L219.6 202.1C222.6 206.1 227.4 208.5 232.4 208.5H280.4C285.4 208.5 290.2 206.1 293.2 202.1L333.2 148.8C335.2 146.1 338.4 144.5 341.7 144.5H341.9C347.7 144.5 352.3 149.2 352.3 154.9V272.5C352.3 325.5 309.3 368.5 256.3 368.5C203.3 368.5 160.3 325.5 160.3 272.5V154.9H160.5ZM216.5 288.5C220.744 288.5 224.814 286.814 227.814 283.814C230.815 280.813 232.5 276.743 232.5 272.5C232.5 268.257 230.815 264.187 227.814 261.186C224.814 258.186 220.744 256.5 216.5 256.5C212.257 256.5 208.187 258.186 205.187 261.186C202.186 264.187 200.5 268.257 200.5 272.5C200.5 276.743 202.186 280.813 205.187 283.814C208.187 286.814 212.257 288.5 216.5 288.5ZM312.5 272.5C312.5 268.257 310.815 264.187 307.814 261.186C304.814 258.186 300.744 256.5 296.5 256.5C292.257 256.5 288.187 258.186 285.187 261.186C282.186 264.187 280.5 268.257 280.5 272.5C280.5 276.743 282.186 280.813 285.187 283.814C288.187 286.814 292.257 288.5 296.5 288.5C300.744 288.5 304.814 286.814 307.814 283.814C310.815 280.813 312.5 276.743 312.5 272.5Z" fill="#47535F"/>
</g>
<defs>
<clipPath id="clip0_104_2486">
<rect width="512" height="512" fill="white" transform="translate(0.5 0.5)"/>
</clipPath>
</defs>
</svg>
