<svg width="577" height="513" viewBox="0 0 577 513" fill="none" xmlns="http://www.w3.org/2000/svg">
<g clip-path="url(#clip0_104_2496)">
<path d="M192.501 32.5C192.501 14.8 206.801 0.5 224.501 0.5H352.501C370.201 0.5 384.501 14.8 384.501 32.5V64.5H432.501C459.001 64.5 480.501 86 480.501 112.5V240.5L524.901 255.3C548.001 263 554.401 292.8 536.401 309.2L435.401 401.8C419.201 411.2 400.701 416.9 384.501 416.9C364.901 416.9 343.701 409.2 325.301 396.6C303.201 381.1 273.701 381.1 251.601 396.6C234.501 408.4 213.601 416.9 192.401 416.9C176.201 416.9 157.701 411.2 141.501 401.8L40.5008 309.2C22.5008 292.7 28.9008 263 52.0008 255.3L96.5008 240.5V112.5C96.5008 86 118.001 64.5 144.501 64.5H192.501V32.5ZM160.501 219.2L268.301 183.3C281.401 178.9 295.601 178.9 308.801 183.3L416.501 219.2V128.5H160.501V219.2ZM307.001 422.4C329.501 437.9 357.001 448.5 384.501 448.5C411.401 448.5 439.901 437.7 461.901 422.4C473.801 413.9 490.001 414.6 501.101 424.1C515.501 436 533.601 445.1 551.701 449.3C568.901 453.3 579.601 470.5 575.601 487.7C571.601 504.9 554.401 515.6 537.201 511.6C512.701 505.9 492.301 495.1 479.001 486.6C450.001 502.2 417.501 512.5 384.501 512.5C352.601 512.5 323.901 502.6 304.101 493.6C298.301 490.9 293.001 488.3 288.501 485.9C284.001 488.3 278.801 491 272.901 493.6C253.101 502.6 224.401 512.5 192.501 512.5C159.501 512.5 127.001 502.2 98.0008 486.7C84.6008 495.1 64.3008 506 39.8008 511.7C22.6007 515.7 5.40075 505 1.40075 487.8C-2.59925 470.6 8.10075 453.4 25.3008 449.4C43.4008 445.2 61.5008 436.1 75.9008 424.2C87.0008 414.8 103.201 414.1 115.101 422.5C137.201 437.7 165.601 448.5 192.501 448.5C220.001 448.5 247.501 437.9 270.001 422.4C281.101 414.5 295.901 414.5 307.001 422.4Z" fill="#47535F"/>
</g>
<defs>
<clipPath id="clip0_104_2496">
<rect width="576" height="512" fill="white" transform="translate(0.5 0.5)"/>
</clipPath>
</defs>
</svg>
