<svg width="641" height="513" viewBox="0 0 641 513" fill="none" xmlns="http://www.w3.org/2000/svg">
<g clip-path="url(#clip0_104_2498)">
<path d="M212.3 0.5C220.1 0.5 226.6 6.2 229 13.7C241.3 52.4 277.6 80.5 320.5 80.5C363.4 80.5 399.7 52.4 412 13.7C414.4 6.2 420.9 0.5 428.7 0.5H441.3C463.8 0.5 485.5 8.4 502.8 22.8L629 127.9C635.6 133.4 639.7 141.4 640.4 150C641.1 158.6 638.3 167.1 632.6 173.6L576.6 237.6C565.2 250.7 545.4 252.2 532 241.1L480.5 198.2V448.5C480.5 483.8 451.8 512.5 416.5 512.5H224.5C189.2 512.5 160.5 483.8 160.5 448.5V198.2L109 241.1C95.6997 252.2 75.8997 250.7 64.3997 237.6L8.39975 173.6C2.69975 167.1 -0.100252 158.6 0.599748 150C1.29975 141.4 5.39975 133.4 11.9997 127.9L138.2 22.8C155.5 8.4 177.2 0.5 199.7 0.5H212.3Z" fill="#47535F"/>
</g>
<defs>
<clipPath id="clip0_104_2498">
<rect width="640" height="512" fill="white" transform="translate(0.5 0.5)"/>
</clipPath>
</defs>
</svg>
