<svg width="641" height="513" viewBox="0 0 641 513" fill="none" xmlns="http://www.w3.org/2000/svg">
<g clip-path="url(#clip0_104_2500)">
<path d="M416.5 0.5C352.8 0.5 256.5 32.5 256.5 32.5V160.5C304.5 160.5 332.5 176.5 360.5 192.5C388.5 208.5 416.5 224.5 464.5 224.5C520.9 224.5 640.5 208.5 640.5 128.5C640.5 48.5 512.5 0.5 416.5 0.5ZM128.5 96.5C128.5 131.8 157.2 160.5 192.5 160.5H224.5V32.5H192.5C157.2 32.5 128.5 61.2 128.5 96.5ZM288.5 512.5C384.5 512.5 512.5 464.5 512.5 384.5C512.5 304.5 392.9 288.5 336.5 288.5C288.5 288.5 260.5 304.5 232.5 320.5C204.5 336.5 176.5 352.5 128.5 352.5V480.5C128.5 480.5 224.8 512.5 288.5 512.5ZM0.5 416.5C0.5 451.8 29.2 480.5 64.5 480.5H96.5V352.5H64.5C29.2 352.5 0.5 381.2 0.5 416.5Z" fill="#47535F"/>
</g>
<defs>
<clipPath id="clip0_104_2500">
<rect width="640" height="512" fill="white" transform="translate(0.5 0.5)"/>
</clipPath>
</defs>
</svg>
