<svg width="641" height="513" viewBox="0 0 641 513" fill="none" xmlns="http://www.w3.org/2000/svg">
<g clip-path="url(#clip0_104_2504)">
<path d="M37.3 192.5H450.1C470.3 172.7 498 160.5 528.5 160.5C559 160.5 586.6 172.7 606.8 192.4C625.7 190.8 640.5 175 640.5 155.7C640.5 148.4 638.3 141.3 634.3 135.3L558.7 21.9C549.8 8.5 534.9 0.5 518.8 0.5H122.2C106.2 0.5 91.2 8.5 82.3 21.9L6.7 135.2C2.7 141.3 0.5 148.4 0.5 155.6C0.5 176 17 192.5 37.3 192.5ZM384.5 224.5H320.5V384.5H128.5V224.5H64.5V384.5V464.5C64.5 491 86 512.5 112.5 512.5H336.5C363 512.5 384.5 491 384.5 464.5V384.5V352.5V224.5ZM528.5 240.5C546.2 240.5 560.5 254.8 560.5 272.5V320.5H496.5V272.5C496.5 254.8 510.8 240.5 528.5 240.5ZM448.5 272.5V320.5C430.8 320.5 416.5 334.8 416.5 352.5V480.5C416.5 498.2 430.8 512.5 448.5 512.5H608.5C626.2 512.5 640.5 498.2 640.5 480.5V352.5C640.5 334.8 626.2 320.5 608.5 320.5V272.5C608.5 228.3 572.7 192.5 528.5 192.5C484.3 192.5 448.5 228.3 448.5 272.5Z" fill="#47535F"/>
</g>
<defs>
<clipPath id="clip0_104_2504">
<rect width="640" height="512" fill="white" transform="translate(0.5 0.5)"/>
</clipPath>
</defs>
</svg>
