<svg width="641" height="513" viewBox="0 0 641 513" fill="none" xmlns="http://www.w3.org/2000/svg">
<g clip-path="url(#clip0_104_2506)">
<path d="M39.2998 5.59976C28.8998 -2.60024 13.7998 -0.700238 5.59976 9.69976C-2.60024 20.0998 -0.700238 35.1998 9.69976 43.3998L601.7 507.4C612.1 515.6 627.2 513.7 635.4 503.3C643.6 492.9 641.7 477.8 631.3 469.6L576.5 426.6V224.5H512.5V376.5L384.5 276.2V224.5H320.5V226L277.7 192.5H603.7C624 192.5 640.5 176 640.5 155.7C640.5 148.4 638.3 141.3 634.3 135.3L558.7 21.8998C549.8 8.49976 534.9 0.499762 518.8 0.499762H122.2C106.2 0.499762 91.1998 8.49976 82.2998 21.8998L74.5998 33.2998L39.2998 5.59976ZM37.2998 192.5H122.3L21.4998 113L6.69976 135.2C2.69976 141.3 0.499762 148.4 0.499762 155.6C0.499762 176 16.9998 192.5 37.2998 192.5ZM320.5 384.5H128.5V224.5H64.4998V384.5V464.5C64.4998 491 85.9998 512.5 112.5 512.5H336.5C363 512.5 384.5 491 384.5 464.5V399L320.5 348.6V384.5Z" fill="#47535F"/>
</g>
<defs>
<clipPath id="clip0_104_2506">
<rect width="640" height="512" fill="white" transform="translate(0.5 0.5)"/>
</clipPath>
</defs>
</svg>
