<svg width="641" height="513" viewBox="0 0 641 513" fill="none" xmlns="http://www.w3.org/2000/svg">
<g clip-path="url(#clip0_104_2502)">
<path d="M37.3 192.5H603.7C624 192.5 640.5 176 640.5 155.7C640.5 148.4 638.3 141.3 634.3 135.3L558.7 21.9C549.8 8.5 534.9 0.5 518.8 0.5H122.2C106.2 0.5 91.2 8.5 82.3 21.9L6.7 135.2C2.7 141.3 0.5 148.4 0.5 155.6C0.5 176 17 192.5 37.3 192.5ZM64.5 224.5V384.5V464.5C64.5 491 86 512.5 112.5 512.5H336.5C363 512.5 384.5 491 384.5 464.5V384.5V224.5H320.5V384.5H128.5V224.5H64.5ZM512.5 224.5V480.5C512.5 498.2 526.8 512.5 544.5 512.5C562.2 512.5 576.5 498.2 576.5 480.5V224.5H512.5Z" fill="#47535F"/>
</g>
<defs>
<clipPath id="clip0_104_2502">
<rect width="640" height="512" fill="white" transform="translate(0.5 0.5)"/>
</clipPath>
</defs>
</svg>
