<svg width="513" height="513" viewBox="0 0 513 513" fill="none" xmlns="http://www.w3.org/2000/svg">
<g clip-path="url(#clip0_104_2508)">
<path d="M64.5 132.4C64.5 112.6 80.6 96.5 100.4 96.5C109.9 96.5 119 100.3 125.8 107L142 123.2C121 162.1 124.6 210.7 152.9 246.2L151.5 247.5C142.1 256.9 142.1 272.1 151.5 281.4C160.9 290.7 176.1 290.8 185.4 281.4L345.5 121.5C354.9 112.1 354.9 96.9 345.5 87.6C336.1 78.3 320.9 78.2 311.6 87.6L310.3 88.9C274.8 60.6 226.1 57 187.3 78L171 61.8C152.3 43 126.9 32.5 100.4 32.5C45.2 32.5 0.5 77.2 0.5 132.4V448.5C0.5 466.2 14.8 480.5 32.5 480.5C50.2 480.5 64.5 466.2 64.5 448.5V132.4ZM256.5 352.5C264.987 352.5 273.126 349.129 279.127 343.127C285.129 337.126 288.5 328.987 288.5 320.5C288.5 312.013 285.129 303.874 279.127 297.873C273.126 291.871 264.987 288.5 256.5 288.5C248.013 288.5 239.874 291.871 233.873 297.873C227.871 303.874 224.5 312.013 224.5 320.5C224.5 328.987 227.871 337.126 233.873 343.127C239.874 349.129 248.013 352.5 256.5 352.5ZM320.5 416.5C320.5 408.013 317.129 399.874 311.127 393.873C305.126 387.871 296.987 384.5 288.5 384.5C280.013 384.5 271.874 387.871 265.873 393.873C259.871 399.874 256.5 408.013 256.5 416.5C256.5 424.987 259.871 433.126 265.873 439.127C271.874 445.129 280.013 448.5 288.5 448.5C296.987 448.5 305.126 445.129 311.127 439.127C317.129 433.126 320.5 424.987 320.5 416.5ZM320.5 288.5C328.987 288.5 337.126 285.129 343.127 279.127C349.129 273.126 352.5 264.987 352.5 256.5C352.5 248.013 349.129 239.874 343.127 233.873C337.126 227.871 328.987 224.5 320.5 224.5C312.013 224.5 303.874 227.871 297.873 233.873C291.871 239.874 288.5 248.013 288.5 256.5C288.5 264.987 291.871 273.126 297.873 279.127C303.874 285.129 312.013 288.5 320.5 288.5ZM384.5 352.5C384.5 344.013 381.129 335.874 375.127 329.873C369.126 323.871 360.987 320.5 352.5 320.5C344.013 320.5 335.874 323.871 329.873 329.873C323.871 335.874 320.5 344.013 320.5 352.5C320.5 360.987 323.871 369.126 329.873 375.127C335.874 381.129 344.013 384.5 352.5 384.5C360.987 384.5 369.126 381.129 375.127 375.127C381.129 369.126 384.5 360.987 384.5 352.5ZM384.5 224.5C392.987 224.5 401.126 221.129 407.127 215.127C413.129 209.126 416.5 200.987 416.5 192.5C416.5 184.013 413.129 175.874 407.127 169.873C401.126 163.871 392.987 160.5 384.5 160.5C376.013 160.5 367.874 163.871 361.873 169.873C355.871 175.874 352.5 184.013 352.5 192.5C352.5 200.987 355.871 209.126 361.873 215.127C367.874 221.129 376.013 224.5 384.5 224.5ZM448.5 288.5C448.5 280.013 445.129 271.874 439.127 265.873C433.126 259.871 424.987 256.5 416.5 256.5C408.013 256.5 399.874 259.871 393.873 265.873C387.871 271.874 384.5 280.013 384.5 288.5C384.5 296.987 387.871 305.126 393.873 311.127C399.874 317.129 408.013 320.5 416.5 320.5C424.987 320.5 433.126 317.129 439.127 311.127C445.129 305.126 448.5 296.987 448.5 288.5ZM480.5 256.5C488.987 256.5 497.126 253.129 503.127 247.127C509.129 241.126 512.5 232.987 512.5 224.5C512.5 216.013 509.129 207.874 503.127 201.873C497.126 195.871 488.987 192.5 480.5 192.5C472.013 192.5 463.874 195.871 457.873 201.873C451.871 207.874 448.5 216.013 448.5 224.5C448.5 232.987 451.871 241.126 457.873 247.127C463.874 253.129 472.013 256.5 480.5 256.5Z" fill="#47535F"/>
</g>
<defs>
<clipPath id="clip0_104_2508">
<rect width="512" height="512" fill="white" transform="translate(0.5 0.5)"/>
</clipPath>
</defs>
</svg>
