<svg width="513" height="513" viewBox="0 0 513 513" fill="none" xmlns="http://www.w3.org/2000/svg">
<g clip-path="url(#clip0_104_2510)">
<path d="M64.5 32.5C29.2 32.5 0.5 61.2 0.5 96.5C0.5 131.8 29.2 160.5 64.5 160.5H65.5C69.2 249.4 142.5 320.5 232.5 320.5H288.5V128.5H264.5H89.3H64.5C46.8 128.5 32.5 114.2 32.5 96.5C32.5 78.8 46.8 64.5 64.5 64.5H464.5C473.3 64.5 480.5 57.3 480.5 48.5C480.5 39.7 473.3 32.5 464.5 32.5H64.5ZM224.5 456.5C224.5 469.8 235.2 480.5 248.5 480.5H320.5V408.3L256.4 385.9C243.9 381.5 230.2 388.1 225.8 400.6C221.4 413.1 228 426.8 240.5 431.2L245 432.8C233.5 434.4 224.5 444.4 224.5 456.5ZM352.5 479.8C388.9 476.5 422 462.2 448.6 440.2L362.1 405.6C359.1 407.4 355.9 408.8 352.5 409.9V479.8ZM473.1 415.5C497.7 385.2 512.5 346.6 512.5 304.5C512.5 292.2 511.2 280.2 508.8 268.6L383.3 355.6C384.1 359 384.5 362.6 384.5 366.2C384.5 370.8 383.8 375.2 382.6 379.3L473.1 415.5ZM336.5 128.5H320.5V320.5H338.8C348.7 320.5 357.9 323.7 365.4 329L498.9 236.6C472.3 173.1 409.6 128.5 336.5 128.5ZM168.5 192.5C168.5 186.135 171.029 180.03 175.529 175.529C180.03 171.029 186.135 168.5 192.5 168.5C198.865 168.5 204.97 171.029 209.471 175.529C213.971 180.03 216.5 186.135 216.5 192.5C216.5 198.865 213.971 204.97 209.471 209.471C204.97 213.971 198.865 216.5 192.5 216.5C186.135 216.5 180.03 213.971 175.529 209.471C171.029 204.97 168.5 198.865 168.5 192.5Z" fill="#47535F"/>
</g>
<defs>
<clipPath id="clip0_104_2510">
<rect width="512" height="512" fill="white" transform="translate(0.5 0.5)"/>
</clipPath>
</defs>
</svg>
