<svg width="513" height="513" viewBox="0 0 513 513" fill="none" xmlns="http://www.w3.org/2000/svg">
<g clip-path="url(#clip0_104_2512)">
<path d="M404.3 34.9C416.3 29.9 430 32.7 439.2 41.8L503.2 105.8C509.2 111.8 512.6 119.9 512.6 128.4C512.6 136.9 509.2 145 503.2 151L439.2 215C430 224.2 416.3 226.9 404.3 221.9C392.3 216.9 384.5 205.3 384.5 192.3V160.5H352.5C342.4 160.5 332.9 165.2 326.9 173.3L284.5 229.8L244.5 176.5L275.7 134.9C293.8 110.7 322.3 96.5 352.5 96.5H384.5V64.5C384.5 51.6 392.3 39.9 404.3 34.9ZM164.5 283.2L204.5 336.5L173.3 378.1C155.2 402.3 126.7 416.5 96.5 416.5H32.5C14.8 416.5 0.5 402.2 0.5 384.5C0.5 366.8 14.8 352.5 32.5 352.5H96.5C106.6 352.5 116.1 347.8 122.1 339.7L164.5 283.2ZM439.1 471.2C429.9 480.4 416.2 483.1 404.2 478.1C392.2 473.1 384.4 461.5 384.4 448.5V416.5H352.5C322.3 416.5 293.8 402.3 275.7 378.1L122.1 173.3C116.1 165.2 106.6 160.5 96.5 160.5H32.5C14.8 160.5 0.5 146.2 0.5 128.5C0.5 110.8 14.8 96.5 32.5 96.5H96.5C126.7 96.5 155.2 110.7 173.3 134.9L326.9 339.7C332.9 347.8 342.4 352.5 352.5 352.5H384.5V320.5C384.5 307.6 392.3 295.9 404.3 290.9C416.3 285.9 430 288.7 439.2 297.8L503.2 361.8C509.2 367.8 512.6 375.9 512.6 384.4C512.6 392.9 509.2 401 503.2 407L439.2 471L439.1 471.2Z" fill="#47535F"/>
</g>
<defs>
<clipPath id="clip0_104_2512">
<rect width="512" height="512" fill="white" transform="translate(0.5 0.5)"/>
</clipPath>
</defs>
</svg>
