<svg width="641" height="513" viewBox="0 0 641 513" fill="none" xmlns="http://www.w3.org/2000/svg">
<g clip-path="url(#clip0_104_2514)">
<path d="M130.5 480.5C171.1 480.5 210.9 469.5 245.7 448.6L352.5 384.5H128.5V480.5H130.5ZM352.5 128.5L245.7 64.4C210.9 43.5 171.1 32.5 130.5 32.5H128.5V128.5H352.5ZM96.5 128.5V32.5H80.5C54 32.5 32.5 54 32.5 80.5V128.5H40.5C18.4 128.5 0.5 146.4 0.5 168.5V184.5V328.5V344.5C0.5 366.6 18.4 384.5 40.5 384.5H32.5V432.5C32.5 459 54 480.5 80.5 480.5H96.5V384.5H104.5C130.7 384.5 153.9 371.9 168.5 352.5H456.5C525.8 352.5 591.5 329.8 635.7 270.9C642.1 262.4 642.1 250.6 635.7 242.1C591.5 183.2 525.8 160.5 456.5 160.5H168.5C153.9 141.1 130.7 128.5 104.5 128.5H96.5ZM512.5 244.1V269C512.5 288.6 496.6 304.6 476.9 304.6C474.4 304.6 472.5 302.6 472.5 300.2V212.9C472.5 210.4 474.5 208.5 476.9 208.5C496.5 208.5 512.5 224.4 512.5 244.1Z" fill="#47535F"/>
</g>
<defs>
<clipPath id="clip0_104_2514">
<rect width="640" height="512" fill="white" transform="translate(0.5 0.5)"/>
</clipPath>
</defs>
</svg>
