<svg width="641" height="513" viewBox="0 0 641 513" fill="none" xmlns="http://www.w3.org/2000/svg">
<g clip-path="url(#clip0_104_2516)">
<path d="M576.5 0.5C594.2 0.5 608.5 14.8 608.5 32.5V480.5C608.5 498.2 594.2 512.5 576.5 512.5C558.8 512.5 544.5 498.2 544.5 480.5V32.5C544.5 14.8 558.8 0.5 576.5 0.5ZM448.5 96.5C466.2 96.5 480.5 110.8 480.5 128.5V480.5C480.5 498.2 466.2 512.5 448.5 512.5C430.8 512.5 416.5 498.2 416.5 480.5V128.5C416.5 110.8 430.8 96.5 448.5 96.5ZM352.5 224.5V480.5C352.5 498.2 338.2 512.5 320.5 512.5C302.8 512.5 288.5 498.2 288.5 480.5V224.5C288.5 206.8 302.8 192.5 320.5 192.5C338.2 192.5 352.5 206.8 352.5 224.5ZM192.5 288.5C210.2 288.5 224.5 302.8 224.5 320.5V480.5C224.5 498.2 210.2 512.5 192.5 512.5C174.8 512.5 160.5 498.2 160.5 480.5V320.5C160.5 302.8 174.8 288.5 192.5 288.5ZM96.5 416.5V480.5C96.5 498.2 82.2 512.5 64.5 512.5C46.8 512.5 32.5 498.2 32.5 480.5V416.5C32.5 398.8 46.8 384.5 64.5 384.5C82.2 384.5 96.5 398.8 96.5 416.5Z" fill="#47535F"/>
</g>
<defs>
<clipPath id="clip0_104_2516">
<rect width="640" height="512" fill="white" transform="translate(0.5 0.5)"/>
</clipPath>
</defs>
</svg>
