<svg width="641" height="513" viewBox="0 0 641 513" fill="none" xmlns="http://www.w3.org/2000/svg">
<g clip-path="url(#clip0_104_2518)">
<path d="M192.5 128.5C192.5 110.8 206.8 96.5 224.5 96.5C242.2 96.5 256.5 110.8 256.5 128.5V136.3C256.5 164 254.1 191.6 249.4 218.8L165 244.1C124.4 256.3 96.6 293.7 96.6 336.1V408C96.6 448 129.1 480.5 169.1 480.5C195.1 480.5 219.1 466.6 232 444L245.9 419.7C272.7 372.7 292.4 322 304.3 269.2L398.7 240.9L386.2 278.4C382.9 288.2 384.6 298.9 390.6 307.2C396.6 315.5 406.3 320.5 416.6 320.5H544.5C562.2 320.5 576.5 306.2 576.5 288.5C576.5 270.8 562.2 256.5 544.5 256.5H460.9L478.9 202.6C482.7 191.3 479.8 178.8 471.5 170.2C463.2 161.6 450.8 158.4 439.3 161.8L316.9 198.6C319.3 177.9 320.5 157.2 320.5 136.3V128.5C320.5 75.5 277.5 32.5 224.5 32.5C171.5 32.5 128.5 75.5 128.5 128.5V160.5C128.5 178.2 142.8 192.5 160.5 192.5C178.2 192.5 192.5 178.2 192.5 160.5V128.5ZM183.3 305.5L232.3 290.8C221.9 324.6 207.8 357.2 190.2 388L176.3 412.3C174.8 414.9 172 416.6 168.9 416.6C164.2 416.6 160.4 412.8 160.4 408.1V336.1C160.4 322 169.7 309.5 183.2 305.4L183.3 305.5ZM24.5 368.5C11.2 368.5 0.5 379.2 0.5 392.5C0.5 405.8 11.2 416.5 24.5 416.5H64.8C64.6 413.7 64.5 410.9 64.5 408V368.5H24.5ZM616.5 416.5C629.8 416.5 640.5 405.8 640.5 392.5C640.5 379.2 629.8 368.5 616.5 368.5H306.4C299.7 384.8 292.2 400.8 284.1 416.5H616.5Z" fill="#47535F"/>
</g>
<defs>
<clipPath id="clip0_104_2518">
<rect width="640" height="512" fill="white" transform="translate(0.5 0.5)"/>
</clipPath>
</defs>
</svg>
