<svg width="513" height="513" viewBox="0 0 513 513" fill="none" xmlns="http://www.w3.org/2000/svg">
<g clip-path="url(#clip0_104_2522)">
<path d="M224.5 32.5H64.5004C46.8004 32.5 32.5004 46.8 32.5004 64.5V128.5C32.5004 146.2 46.8004 160.5 64.5004 160.5H441.9C446.1 160.5 450.2 158.8 453.2 155.8L501.2 107.8C507.4 101.6 507.4 91.4 501.2 85.2L453.2 37.2C450.2 34.2 446.1 32.5 441.9 32.5H288.5C288.5 14.8 274.2 0.5 256.5 0.5C238.8 0.5 224.5 14.8 224.5 32.5ZM480.5 256.5C480.5 238.8 466.2 224.5 448.5 224.5H288.5V192.5H224.5V224.5H71.1004C66.9004 224.5 62.8004 226.2 59.8004 229.2L11.8004 277.2C5.60039 283.4 5.60039 293.6 11.8004 299.8L59.8004 347.8C62.8004 350.8 66.9004 352.5 71.1004 352.5H448.5C466.2 352.5 480.5 338.2 480.5 320.5V256.5ZM288.5 480.5V384.5H224.5V480.5C224.5 498.2 238.8 512.5 256.5 512.5C274.2 512.5 288.5 498.2 288.5 480.5Z" fill="#47535F"/>
</g>
<defs>
<clipPath id="clip0_104_2522">
<rect width="512" height="512" fill="white" transform="translate(0.5 0.5)"/>
</clipPath>
</defs>
</svg>
