<svg width="513" height="513" viewBox="0 0 513 513" fill="none" xmlns="http://www.w3.org/2000/svg">
<g clip-path="url(#clip0_104_2520)">
<path d="M96.5 0.5C114.2 0.5 128.5 14.8 128.5 32.5V64.5H480.5C498.2 64.5 512.5 78.8 512.5 96.5C512.5 114.2 498.2 128.5 480.5 128.5H128.5V480.5C128.5 498.2 114.2 512.5 96.5 512.5C78.8 512.5 64.5 498.2 64.5 480.5V128.5H32.5C14.8 128.5 0.5 114.2 0.5 96.5C0.5 78.8 14.8 64.5 32.5 64.5H64.5V32.5C64.5 14.8 78.8 0.5 96.5 0.5ZM192.5 160.5H448.5C466.2 160.5 480.5 174.8 480.5 192.5V352.5C480.5 370.2 466.2 384.5 448.5 384.5H192.5C174.8 384.5 160.5 370.2 160.5 352.5V192.5C160.5 174.8 174.8 160.5 192.5 160.5Z" fill="#47535F"/>
</g>
<defs>
<clipPath id="clip0_104_2520">
<rect width="512" height="512" fill="white" transform="translate(0.5 0.5)"/>
</clipPath>
</defs>
</svg>
