<svg width="385" height="513" viewBox="0 0 385 513" fill="none" xmlns="http://www.w3.org/2000/svg">
<g clip-path="url(#clip0_104_2524)">
<path d="M64.5 0.5H243.2C260.2 0.5 276.5 7.2 288.5 19.2L365.8 96.5C377.8 108.5 384.5 124.8 384.5 141.8V448.5C384.5 483.8 355.8 512.5 320.5 512.5H64.5C29.2 512.5 0.5 483.8 0.5 448.5V64.5C0.5 29.2 29.2 0.5 64.5 0.5ZM96.5 192.5C78.8 192.5 64.5 206.8 64.5 224.5V256.5H128.5V192.5H96.5ZM64.5 352.5H144.5H240.5H320.5V288.5H240.5H144.5H64.5V352.5ZM320.5 224.5C320.5 206.8 306.2 192.5 288.5 192.5H256.5V256.5H320.5V224.5ZM160.5 192.5V256.5H224.5V192.5H160.5ZM288.5 448.5C306.2 448.5 320.5 434.2 320.5 416.5V384.5H256.5V448.5H288.5ZM160.5 384.5V448.5H224.5V384.5H160.5ZM64.5 416.5C64.5 434.2 78.8 448.5 96.5 448.5H128.5V384.5H64.5V416.5Z" fill="#47535F"/>
</g>
<defs>
<clipPath id="clip0_104_2524">
<rect width="384" height="512" fill="white" transform="translate(0.5 0.5)"/>
</clipPath>
</defs>
</svg>
