<svg width="513" height="513" viewBox="0 0 513 513" fill="none" xmlns="http://www.w3.org/2000/svg">
<g clip-path="url(#clip0_104_2526)">
<path d="M288.5 96.5C288.5 78.8 302.8 64.5 320.5 64.5C338.2 64.5 352.5 78.8 352.5 96.5C352.5 114.2 366.8 128.5 384.5 128.5C402.2 128.5 416.5 114.2 416.5 96.5C416.5 43.5 373.5 0.5 320.5 0.5C267.5 0.5 224.5 43.5 224.5 96.5V288.5H160.5V264.5C160.5 233.6 135.4 208.5 104.5 208.5H56.5C43.2 208.5 32.5 219.2 32.5 232.5C32.5 245.8 43.2 256.5 56.5 256.5H104.5C108.9 256.5 112.5 260.1 112.5 264.5V288.5H32.5C14.8 288.5 0.5 302.8 0.5 320.5C0.5 338.2 14.8 352.5 32.5 352.5H256.5H480.5C498.2 352.5 512.5 338.2 512.5 320.5C512.5 302.8 498.2 288.5 480.5 288.5H400.5V264.5C400.5 260.1 404.1 256.5 408.5 256.5H464.5C477.8 256.5 488.5 245.8 488.5 232.5C488.5 219.2 477.8 208.5 464.5 208.5H408.5C377.6 208.5 352.5 233.6 352.5 264.5V288.5H288.5V96.5ZM480.5 416.5V384.5H32.5V416.5C32.5 469.5 75.5 512.5 128.5 512.5H384.5C437.5 512.5 480.5 469.5 480.5 416.5Z" fill="#47535F"/>
</g>
<defs>
<clipPath id="clip0_104_2526">
<rect width="512" height="512" fill="white" transform="translate(0.5 0.5)"/>
</clipPath>
</defs>
</svg>
