<svg width="449" height="513" viewBox="0 0 449 513" fill="none" xmlns="http://www.w3.org/2000/svg">
<g clip-path="url(#clip0_104_2532)">
<path d="M368.5 128.5C368.5 172.9 343.1 212 304.5 234.9V256.5C304.5 274.2 290.2 288.5 272.5 288.5H176.5C158.8 288.5 144.5 274.2 144.5 256.5V234.9C105.9 211.9 80.5 172.8 80.5 128.5C80.5 57.8 145 0.5 224.5 0.5C304 0.5 368.5 57.8 368.5 128.5ZM168.5 176.5C176.987 176.5 185.126 173.129 191.127 167.127C197.129 161.126 200.5 152.987 200.5 144.5C200.5 136.013 197.129 127.874 191.127 121.873C185.126 115.871 176.987 112.5 168.5 112.5C160.013 112.5 151.874 115.871 145.873 121.873C139.871 127.874 136.5 136.013 136.5 144.5C136.5 152.987 139.871 161.126 145.873 167.127C151.874 173.129 160.013 176.5 168.5 176.5ZM312.5 144.5C312.5 136.013 309.129 127.874 303.127 121.873C297.126 115.871 288.987 112.5 280.5 112.5C272.013 112.5 263.874 115.871 257.873 121.873C251.871 127.874 248.5 136.013 248.5 144.5C248.5 152.987 251.871 161.126 257.873 167.127C263.874 173.129 272.013 176.5 280.5 176.5C288.987 176.5 297.126 173.129 303.127 167.127C309.129 161.126 312.5 152.987 312.5 144.5ZM3.90002 274.2C11.8 258.4 31 252 46.8 259.9L224.5 348.7L402.2 259.9C418 252 437.2 258.4 445.1 274.2C453 290 446.6 309.2 430.8 317.1L296.1 384.5L430.9 451.9C446.7 459.8 453.1 479 445.2 494.8C437.3 510.6 418.1 517 402.3 509.1L224.5 420.3L46.8 509.1C31 517 11.8 510.6 3.90002 494.8C-3.99998 479 2.40002 459.8 18.2 451.9L152.9 384.5L18.2 317.1C2.40002 309.2 -3.99998 290 3.90002 274.2Z" fill="#47535F"/>
</g>
<defs>
<clipPath id="clip0_104_2532">
<rect width="448" height="512" fill="white" transform="translate(0.5 0.5)"/>
</clipPath>
</defs>
</svg>
