<svg width="513" height="513" viewBox="0 0 513 513" fill="none" xmlns="http://www.w3.org/2000/svg">
<g clip-path="url(#clip0_104_2530)">
<path d="M416.5 399.4C475 358.3 512.5 295.3 512.5 224.5C512.5 100.8 397.9 0.5 256.5 0.5C115.1 0.5 0.5 100.8 0.5 224.5C0.5 295.2 38 358.3 96.5 399.4C96.5 399.8 96.5 400.1 96.5 400.5V464.5C96.5 491 118 512.5 144.5 512.5H192.5V464.5C192.5 455.7 199.7 448.5 208.5 448.5C217.3 448.5 224.5 455.7 224.5 464.5V512.5H288.5V464.5C288.5 455.7 295.7 448.5 304.5 448.5C313.3 448.5 320.5 455.7 320.5 464.5V512.5H368.5C395 512.5 416.5 491 416.5 464.5V400.5C416.5 400.1 416.5 399.8 416.5 399.4ZM96.5 256.5C96.5 239.526 103.243 223.247 115.245 211.245C127.247 199.243 143.526 192.5 160.5 192.5C177.474 192.5 193.753 199.243 205.755 211.245C217.757 223.247 224.5 239.526 224.5 256.5C224.5 273.474 217.757 289.752 205.755 301.755C193.753 313.757 177.474 320.5 160.5 320.5C143.526 320.5 127.247 313.757 115.245 301.755C103.243 289.752 96.5 273.474 96.5 256.5ZM352.5 192.5C369.474 192.5 385.752 199.243 397.755 211.245C409.757 223.247 416.5 239.526 416.5 256.5C416.5 273.474 409.757 289.752 397.755 301.755C385.752 313.757 369.474 320.5 352.5 320.5C335.526 320.5 319.248 313.757 307.245 301.755C295.243 289.752 288.5 273.474 288.5 256.5C288.5 239.526 295.243 223.247 307.245 211.245C319.248 199.243 335.526 192.5 352.5 192.5Z" fill="#47535F"/>
</g>
<defs>
<clipPath id="clip0_104_2530">
<rect width="512" height="512" fill="white" transform="translate(0.5 0.5)"/>
</clipPath>
</defs>
</svg>
