<svg width="641" height="513" viewBox="0 0 641 513" fill="none" xmlns="http://www.w3.org/2000/svg">
<g clip-path="url(#clip0_104_2536)">
<path d="M32.5 32.5C14.8 32.5 0.5 46.8 0.5 64.5C0.5 82.2 14.8 96.5 32.5 96.5V256.5C32.5 309.5 75.5 352.5 128.5 352.5V384.5H192.5V352.5H384.5V384.5H448.5V352.5C501.5 352.5 544.5 309.5 544.5 256.5V160.5C562.2 160.5 576.5 146.2 576.5 128.5C576.5 110.8 562.2 96.5 544.5 96.5H512.5H480.5C462.8 96.5 448.5 110.8 448.5 128.5V169.8C448.5 200 424 224.5 393.8 224.5C318.3 224.5 248.2 185.6 208.2 121.6L203.9 114.7C174.7 68.1 125.5 38.1 71.2 33.2C69 32.7 66.8 32.5 64.5 32.5H55.5H32.5ZM640.5 384.5C640.5 366.8 626.2 352.5 608.5 352.5C590.8 352.5 576.5 366.8 576.5 384.5V392.5C576.5 405.8 565.8 416.5 552.5 416.5H64.5C46.8 416.5 32.5 430.8 32.5 448.5C32.5 466.2 46.8 480.5 64.5 480.5H552.5C601.1 480.5 640.5 441.1 640.5 392.5V384.5Z" fill="#47535F"/>
</g>
<defs>
<clipPath id="clip0_104_2536">
<rect width="640" height="512" fill="white" transform="translate(0.5 0.5)"/>
</clipPath>
</defs>
</svg>
