<svg width="513" height="513" viewBox="0 0 513 513" fill="none" xmlns="http://www.w3.org/2000/svg">
<g clip-path="url(#clip0_104_2538)">
<path d="M0.5 416.5C0.5 434.2 14.8 448.5 32.5 448.5H87.2C99.5 476.8 127.7 496.5 160.5 496.5C193.3 496.5 221.5 476.8 233.8 448.5H480.5C498.2 448.5 512.5 434.2 512.5 416.5C512.5 398.8 498.2 384.5 480.5 384.5H233.8C221.5 356.2 193.3 336.5 160.5 336.5C127.7 336.5 99.5 356.2 87.2 384.5H32.5C14.8 384.5 0.5 398.8 0.5 416.5ZM128.5 416.5C128.5 408.013 131.871 399.874 137.873 393.873C143.874 387.871 152.013 384.5 160.5 384.5C168.987 384.5 177.126 387.871 183.127 393.873C189.129 399.874 192.5 408.013 192.5 416.5C192.5 424.987 189.129 433.126 183.127 439.127C177.126 445.129 168.987 448.5 160.5 448.5C152.013 448.5 143.874 445.129 137.873 439.127C131.871 433.126 128.5 424.987 128.5 416.5ZM320.5 256.5C320.5 248.013 323.871 239.874 329.873 233.873C335.874 227.871 344.013 224.5 352.5 224.5C360.987 224.5 369.126 227.871 375.127 233.873C381.129 239.874 384.5 248.013 384.5 256.5C384.5 264.987 381.129 273.126 375.127 279.127C369.126 285.129 360.987 288.5 352.5 288.5C344.013 288.5 335.874 285.129 329.873 279.127C323.871 273.126 320.5 264.987 320.5 256.5ZM352.5 176.5C319.7 176.5 291.5 196.2 279.2 224.5H32.5C14.8 224.5 0.5 238.8 0.5 256.5C0.5 274.2 14.8 288.5 32.5 288.5H279.2C291.5 316.8 319.7 336.5 352.5 336.5C385.3 336.5 413.5 316.8 425.8 288.5H480.5C498.2 288.5 512.5 274.2 512.5 256.5C512.5 238.8 498.2 224.5 480.5 224.5H425.8C413.5 196.2 385.3 176.5 352.5 176.5ZM192.5 128.5C184.013 128.5 175.874 125.129 169.873 119.127C163.871 113.126 160.5 104.987 160.5 96.5C160.5 88.0131 163.871 79.8737 169.873 73.8726C175.874 67.8714 184.013 64.5 192.5 64.5C200.987 64.5 209.126 67.8714 215.127 73.8726C221.129 79.8737 224.5 88.0131 224.5 96.5C224.5 104.987 221.129 113.126 215.127 119.127C209.126 125.129 200.987 128.5 192.5 128.5ZM265.8 64.5C253.5 36.2 225.3 16.5 192.5 16.5C159.7 16.5 131.5 36.2 119.2 64.5H32.5C14.8 64.5 0.5 78.8 0.5 96.5C0.5 114.2 14.8 128.5 32.5 128.5H119.2C131.5 156.8 159.7 176.5 192.5 176.5C225.3 176.5 253.5 156.8 265.8 128.5H480.5C498.2 128.5 512.5 114.2 512.5 96.5C512.5 78.8 498.2 64.5 480.5 64.5H265.8Z" fill="#47535F"/>
</g>
<defs>
<clipPath id="clip0_104_2538">
<rect width="512" height="512" fill="white" transform="translate(0.5 0.5)"/>
</clipPath>
</defs>
</svg>
