<svg width="641" height="513" viewBox="0 0 641 513" fill="none" xmlns="http://www.w3.org/2000/svg">
<g clip-path="url(#clip0_104_2540)">
<path d="M32.5 144.5C32.5 224 97 288.5 176.5 288.5H299.8C322.4 308.4 352 320.5 384.5 320.5C417 320.5 446.6 308.4 469.2 288.5H496.5C558.4 288.5 608.5 238.4 608.5 176.5C608.5 114.6 558.4 64.5 496.5 64.5C485.8 64.5 475.5 66 465.7 68.8C444.3 28.2 401.6 0.5 352.5 0.5C319.9 0.5 290.1 12.7 267.4 32.8C242.6 12.6 211 0.5 176.5 0.5C97 0.5 32.5 65 32.5 144.5ZM616.5 368.5H280.5C267.2 368.5 256.5 379.2 256.5 392.5C256.5 405.8 267.2 416.5 280.5 416.5H616.5C629.8 416.5 640.5 405.8 640.5 392.5C640.5 379.2 629.8 368.5 616.5 368.5ZM552.5 464.5H440.5C427.2 464.5 416.5 475.2 416.5 488.5C416.5 501.8 427.2 512.5 440.5 512.5H552.5C565.8 512.5 576.5 501.8 576.5 488.5C576.5 475.2 565.8 464.5 552.5 464.5ZM360.5 464.5H24.5C11.2 464.5 0.5 475.2 0.5 488.5C0.5 501.8 11.2 512.5 24.5 512.5H360.5C373.8 512.5 384.5 501.8 384.5 488.5C384.5 475.2 373.8 464.5 360.5 464.5ZM224.5 392.5C224.5 379.2 213.8 368.5 200.5 368.5H96.5C83.2 368.5 72.5 379.2 72.5 392.5C72.5 405.8 83.2 416.5 96.5 416.5H200.5C213.8 416.5 224.5 405.8 224.5 392.5Z" fill="#47535F"/>
</g>
<defs>
<clipPath id="clip0_104_2540">
<rect width="640" height="512" fill="white" transform="translate(0.5 0.5)"/>
</clipPath>
</defs>
</svg>
