<svg width="641" height="513" viewBox="0 0 641 513" fill="none" xmlns="http://www.w3.org/2000/svg">
<g clip-path="url(#clip0_104_2542)">
<path d="M448.5 32.5V43.5C448.5 81.7 463.7 118.3 490.7 145.3L511.7 166.3C532.7 187.3 544.5 215.8 544.5 245.5V256.5C544.5 274.2 530.2 288.5 512.5 288.5C494.8 288.5 480.5 274.2 480.5 256.5V245.5C480.5 232.8 475.4 220.6 466.4 211.6L445.4 190.6C406.4 151.6 384.5 98.6 384.5 43.5V32.5C384.5 14.8 398.8 0.5 416.5 0.5C434.2 0.5 448.5 14.8 448.5 32.5ZM576.5 256.5V245.5C576.5 207.3 561.3 170.7 534.3 143.7L513.3 122.7C492.3 101.7 480.5 73.2 480.5 43.5V32.5C480.5 14.8 494.8 0.5 512.5 0.5C530.2 0.5 544.5 14.8 544.5 32.5V43.5C544.5 56.2 549.6 68.4 558.6 77.4L579.6 98.4C618.6 137.4 640.5 190.3 640.5 245.5V256.5C640.5 274.2 626.2 288.5 608.5 288.5C590.8 288.5 576.5 274.2 576.5 256.5ZM0.5 416.5C0.5 381.2 29.2 352.5 64.5 352.5H416.5C434.2 352.5 448.5 366.8 448.5 384.5V480.5C448.5 498.2 434.2 512.5 416.5 512.5H64.5C29.2 512.5 0.5 483.8 0.5 448.5V416.5ZM224.5 416.5V448.5H384.5V416.5H224.5ZM512.5 352.5C530.2 352.5 544.5 366.8 544.5 384.5V480.5C544.5 498.2 530.2 512.5 512.5 512.5C494.8 512.5 480.5 498.2 480.5 480.5V384.5C480.5 366.8 494.8 352.5 512.5 352.5ZM608.5 352.5C626.2 352.5 640.5 366.8 640.5 384.5V480.5C640.5 498.2 626.2 512.5 608.5 512.5C590.8 512.5 576.5 498.2 576.5 480.5V384.5C576.5 366.8 590.8 352.5 608.5 352.5Z" fill="#47535F"/>
</g>
<defs>
<clipPath id="clip0_104_2542">
<rect width="640" height="512" fill="white" transform="translate(0.5 0.5)"/>
</clipPath>
</defs>
</svg>
