<svg width="449" height="513" viewBox="0 0 449 513" fill="none" xmlns="http://www.w3.org/2000/svg">
<g clip-path="url(#clip0_104_2544)">
<path d="M224.5 0.5C242.2 0.5 256.5 14.8 256.5 32.5V62.6L271.5 47.6C280.9 38.2 296.1 38.2 305.4 47.6C314.7 57 314.8 72.2 305.4 81.5L256.4 130.5V200.8L317.8 165L335.5 98.9C338.9 86.1 352.1 78.5 364.9 81.9C377.7 85.3 385.3 98.5 381.9 111.3L376.7 130.6L400.3 116.8C415.6 107.9 435.2 113.1 444.1 128.3C453 143.5 447.9 163.2 432.6 172.1L407.3 186.9L429 192.7C441.8 196.1 449.4 209.3 446 222.1C442.6 234.9 429.4 242.5 416.6 239.1L348.9 221L288 256.5L348.9 292L416.6 273.9C429.4 270.5 442.6 278.1 446 290.9C449.4 303.7 441.8 316.9 429 320.3L407.3 326.1L432.6 340.9C447.9 349.8 453 369.4 444.1 384.7C435.2 400 415.6 405.1 400.3 396.2L376.7 382.4L381.9 401.7C385.3 414.5 377.7 427.7 364.9 431.1C352.1 434.5 338.9 426.9 335.5 414.1L317.8 348L256.5 312.2V382.5L305.5 431.5C314.9 440.9 314.9 456.1 305.5 465.4C296.1 474.7 280.9 474.8 271.6 465.4L256.6 450.4V480.5C256.6 498.2 242.3 512.5 224.6 512.5C206.9 512.5 192.6 498.2 192.6 480.5V450.4L177.6 465.4C168.2 474.8 153 474.8 143.7 465.4C134.4 456 134.3 440.8 143.7 431.5L192.7 382.5V312.2L131.3 348L113.6 414.1C110.2 426.9 97 434.5 84.2 431.1C71.4 427.7 63.8 414.5 67.2 401.7L72.4 382.4L48.6 396.1C33.3 405 13.7 399.8 4.79997 384.6C-4.10003 369.4 1.09997 349.7 16.3 340.8L41.6 326L19.9 320.2C7.09997 316.8 -0.500034 303.6 2.89997 290.8C6.29997 278 19.5 270.4 32.3 273.8L100 291.9L161 256.5L100.1 221L32.4 239.1C19.6 242.5 6.39997 234.9 2.99997 222.1C-0.400034 209.3 7.19997 196.1 20 192.7L41.7 186.9L16.4 172.1C1.09997 163.2 -4.00003 143.6 4.89997 128.4C13.8 113.2 33.4 108 48.7 116.9L72.3 130.7L67.1 111.4C63.7 98.6 71.3 85.4 84.1 82C96.9 78.6 110.1 86.2 113.5 99L131.2 165.1L192.5 200.8V130.4L143.5 81.5C134.1 72.1 134.1 56.9 143.5 47.6C152.9 38.3 168.1 38.2 177.4 47.6L192.4 62.6V32.5C192.4 14.8 206.7 0.5 224.4 0.5H224.5Z" fill="#47535F"/>
</g>
<defs>
<clipPath id="clip0_104_2544">
<rect width="448" height="512" fill="white" transform="translate(0.5 0.5)"/>
</clipPath>
</defs>
</svg>
