<svg width="513" height="513" viewBox="0 0 513 513" fill="none" xmlns="http://www.w3.org/2000/svg">
<g clip-path="url(#clip0_104_2546)">
<path d="M341.6 141.1C339.6 145 340 149.7 342.8 153.1C349.8 161.6 355.7 171.2 360 181.5L408.5 160.7V120.5C408.5 107.2 419.2 96.5 432.5 96.5C445.8 96.5 456.5 107.2 456.5 120.5V140.1L479 130.4C491.2 125.2 505.3 130.8 510.5 143C515.7 155.2 510.1 169.3 497.9 174.5L441.9 198.5L368.3 230C367.8 239.5 366.2 248.6 363.5 257.3C362.3 261.1 363.4 265.3 366.3 268.1C397.2 297.4 416.5 338.7 416.5 384.5C416.5 429.2 398.2 469.5 368.7 498.6C358.8 508.3 345 512.5 331.2 512.5H181.8C167.9 512.5 154.1 508.3 144.3 498.6C114.8 469.5 96.5 429.2 96.5 384.5C96.5 338.7 115.8 297.4 146.6 268.2C149.5 265.4 150.6 261.3 149.4 257.4C146.7 248.7 145.1 239.5 144.6 230.1L71 198.6L15 174.6C2.90003 169.3 -2.79997 155.2 2.40003 143C7.60003 130.8 21.7 125.2 33.9 130.4L56.5 140.1V120.5C56.5 107.2 67.2 96.5 80.5 96.5C93.8 96.5 104.5 107.2 104.5 120.5V160.7L153.1 181.5C157.4 171.2 163.2 161.6 170.3 153.1C173.1 149.7 173.6 145 171.5 141.1C164.5 127.7 160.5 112.6 160.5 96.5C160.5 43.5 203.5 0.5 256.5 0.5C309.5 0.5 352.5 43.5 352.5 96.5C352.5 112.6 348.5 127.7 341.6 141.1ZM224.5 96.5C228.743 96.5 232.813 94.8143 235.814 91.8137C238.814 88.8131 240.5 84.7435 240.5 80.5C240.5 76.2565 238.814 72.1869 235.814 69.1863C232.813 66.1857 228.743 64.5 224.5 64.5C220.257 64.5 216.187 66.1857 213.186 69.1863C210.186 72.1869 208.5 76.2565 208.5 80.5C208.5 84.7435 210.186 88.8131 213.186 91.8137C216.187 94.8143 220.257 96.5 224.5 96.5ZM272.5 224.5C272.5 220.257 270.814 216.187 267.814 213.186C264.813 210.186 260.743 208.5 256.5 208.5C252.257 208.5 248.187 210.186 245.186 213.186C242.186 216.187 240.5 220.257 240.5 224.5C240.5 228.743 242.186 232.813 245.186 235.814C248.187 238.814 252.257 240.5 256.5 240.5C260.743 240.5 264.813 238.814 267.814 235.814C270.814 232.813 272.5 228.743 272.5 224.5ZM256.5 304.5C260.743 304.5 264.813 302.814 267.814 299.814C270.814 296.813 272.5 292.743 272.5 288.5C272.5 284.257 270.814 280.187 267.814 277.186C264.813 274.186 260.743 272.5 256.5 272.5C252.257 272.5 248.187 274.186 245.186 277.186C242.186 280.187 240.5 284.257 240.5 288.5C240.5 292.743 242.186 296.813 245.186 299.814C248.187 302.814 252.257 304.5 256.5 304.5ZM272.5 352.5C272.5 348.257 270.814 344.187 267.814 341.186C264.813 338.186 260.743 336.5 256.5 336.5C252.257 336.5 248.187 338.186 245.186 341.186C242.186 344.187 240.5 348.257 240.5 352.5C240.5 356.743 242.186 360.813 245.186 363.814C248.187 366.814 252.257 368.5 256.5 368.5C260.743 368.5 264.813 366.814 267.814 363.814C270.814 360.813 272.5 356.743 272.5 352.5ZM288.5 96.5C292.743 96.5 296.813 94.8143 299.814 91.8137C302.814 88.8131 304.5 84.7435 304.5 80.5C304.5 76.2565 302.814 72.1869 299.814 69.1863C296.813 66.1857 292.743 64.5 288.5 64.5C284.257 64.5 280.187 66.1857 277.186 69.1863C274.186 72.1869 272.5 76.2565 272.5 80.5C272.5 84.7435 274.186 88.8131 277.186 91.8137C280.187 94.8143 284.257 96.5 288.5 96.5ZM240.5 120.5V123.7C240.5 126.9 241.3 130 242.8 132.7L251.8 149.6C252.7 151.3 254.5 152.4 256.5 152.4C258.5 152.4 260.3 151.3 261.2 149.6L270.2 132.7C271.7 129.9 272.5 126.8 272.5 123.7V120.5C272.5 111.7 265.3 104.5 256.5 104.5C247.7 104.5 240.5 111.7 240.5 120.5Z" fill="#47535F"/>
</g>
<defs>
<clipPath id="clip0_104_2546">
<rect width="512" height="512" fill="white" transform="translate(0.5 0.5)"/>
</clipPath>
</defs>
</svg>
