<svg width="641" height="513" viewBox="0 0 641 513" fill="none" xmlns="http://www.w3.org/2000/svg">
<g clip-path="url(#clip0_104_2548)">
<path d="M299.4 64.5L368 224.5H256.5L192.5 160.5V64.5H299.4ZM445.6 243.2L358.2 39.2C348.1 15.8 325 0.5 299.4 0.5H176.5C150 0.5 128.5 22 128.5 48.5V160.5H96.5C78.8 160.5 64.5 174.8 64.5 192.5V299.3C26.7 317.3 0.5 355.8 0.5 400.5C0.5 462.4 50.6 512.5 112.5 512.5H368.5C430.4 512.5 480.5 462.4 480.5 400.5C480.5 383.3 476.6 367 469.7 352.5H512.5V403.2C512.5 420.2 519.2 436.5 531.2 448.5L585.8 503.1C598.3 515.6 618.6 515.6 631.1 503.1C643.6 490.6 643.6 470.3 631.1 457.8L576.5 403.2V320.5V235.7L633.5 164.5C644.5 150.7 642.3 130.6 628.5 119.5C614.7 108.4 594.6 110.7 583.5 124.5L526.5 195.7C517.4 207 512.5 221.1 512.5 235.7V288.5H448.5V257.2C448.6 254.8 448.3 252.4 447.9 250.1C447.5 247.8 446.7 245.4 445.7 243.3L445.6 243.2ZM368.5 352.5C395 352.5 416.5 374 416.5 400.5C416.5 427 395 448.5 368.5 448.5H112.5C86 448.5 64.5 427 64.5 400.5C64.5 374 86 352.5 112.5 352.5H368.5ZM144.5 400.5C144.5 394.135 141.971 388.03 137.471 383.529C132.97 379.029 126.865 376.5 120.5 376.5C114.135 376.5 108.03 379.029 103.529 383.529C99.0286 388.03 96.5 394.135 96.5 400.5C96.5 406.865 99.0286 412.97 103.529 417.471C108.03 421.971 114.135 424.5 120.5 424.5C126.865 424.5 132.97 421.971 137.471 417.471C141.971 412.97 144.5 406.865 144.5 400.5ZM360.5 424.5C363.652 424.5 366.773 423.879 369.684 422.673C372.596 421.467 375.242 419.699 377.471 417.471C379.699 415.242 381.467 412.596 382.673 409.684C383.879 406.773 384.5 403.652 384.5 400.5C384.5 397.348 383.879 394.227 382.673 391.316C381.467 388.404 379.699 385.758 377.471 383.529C375.242 381.301 372.596 379.533 369.684 378.327C366.773 377.121 363.652 376.5 360.5 376.5C357.348 376.5 354.227 377.121 351.316 378.327C348.404 379.533 345.758 381.301 343.529 383.529C341.301 385.758 339.533 388.404 338.327 391.316C337.121 394.227 336.5 397.348 336.5 400.5C336.5 403.652 337.121 406.773 338.327 409.684C339.533 412.596 341.301 415.242 343.529 417.471C345.758 419.699 348.404 421.467 351.316 422.673C354.227 423.879 357.348 424.5 360.5 424.5ZM304.5 400.5C304.5 394.135 301.971 388.03 297.471 383.529C292.97 379.029 286.865 376.5 280.5 376.5C274.135 376.5 268.03 379.029 263.529 383.529C259.029 388.03 256.5 394.135 256.5 400.5C256.5 406.865 259.029 412.97 263.529 417.471C268.03 421.971 274.135 424.5 280.5 424.5C286.865 424.5 292.97 421.971 297.471 417.471C301.971 412.97 304.5 406.865 304.5 400.5ZM200.5 424.5C203.652 424.5 206.773 423.879 209.684 422.673C212.596 421.467 215.242 419.699 217.471 417.471C219.699 415.242 221.467 412.596 222.673 409.684C223.879 406.773 224.5 403.652 224.5 400.5C224.5 397.348 223.879 394.227 222.673 391.316C221.467 388.404 219.699 385.758 217.471 383.529C215.242 381.301 212.596 379.533 209.684 378.327C206.773 377.121 203.652 376.5 200.5 376.5C197.348 376.5 194.227 377.121 191.316 378.327C188.404 379.533 185.758 381.301 183.529 383.529C181.301 385.758 179.533 388.404 178.327 391.316C177.121 394.227 176.5 397.348 176.5 400.5C176.5 403.652 177.121 406.773 178.327 409.684C179.533 412.596 181.301 415.242 183.529 417.471C185.758 419.699 188.404 421.467 191.316 422.673C194.227 423.879 197.348 424.5 200.5 424.5Z" fill="#47535F"/>
</g>
<defs>
<clipPath id="clip0_104_2548">
<rect width="640" height="512" fill="white" transform="translate(0.5 0.5)"/>
</clipPath>
</defs>
</svg>
