<svg width="513" height="513" viewBox="0 0 513 513" fill="none" xmlns="http://www.w3.org/2000/svg">
<g clip-path="url(#clip0_104_2550)">
<path d="M208.5 96.5C221.23 96.5 233.439 91.4429 242.441 82.4411C251.443 73.4394 256.5 61.2304 256.5 48.5C256.5 35.7696 251.443 23.5606 242.441 14.5589C233.439 5.55713 221.23 0.5 208.5 0.5C195.77 0.5 183.561 5.55713 174.559 14.5589C165.557 23.5606 160.5 35.7696 160.5 48.5C160.5 61.2304 165.557 73.4394 174.559 82.4411C183.561 91.4429 195.77 96.5 208.5 96.5ZM320.5 256.5C337.474 256.5 353.752 249.757 365.755 237.755C377.757 225.753 384.5 209.474 384.5 192.5C384.5 175.526 377.757 159.247 365.755 147.245C353.752 135.243 337.474 128.5 320.5 128.5C303.526 128.5 287.248 135.243 275.245 147.245C263.243 159.247 256.5 175.526 256.5 192.5C256.5 209.474 263.243 225.753 275.245 237.755C287.248 249.757 303.526 256.5 320.5 256.5ZM416.5 32.5C416.5 24.0131 413.129 15.8737 407.127 9.87258C401.126 3.87142 392.987 0.5 384.5 0.5C376.013 0.5 367.874 3.87142 361.873 9.87258C355.871 15.8737 352.5 24.0131 352.5 32.5C352.5 40.9869 355.871 49.1263 361.873 55.1274C367.874 61.1286 376.013 64.5 384.5 64.5C392.987 64.5 401.126 61.1286 407.127 55.1274C413.129 49.1263 416.5 40.9869 416.5 32.5ZM416.5 192.5C416.5 220.1 404.8 245 386.1 262.6C422.6 276.2 448.5 311.3 448.5 352.5C448.5 405.5 405.5 448.5 352.5 448.5H160.5C107.5 448.5 64.5 405.5 64.5 352.5C64.5 299.5 107.5 256.5 160.5 256.5H248.9C233.7 239.5 224.5 217.1 224.5 192.5H96.5C43.5 192.5 0.5 235.5 0.5 288.5V416.5C0.5 469.5 43.5 512.5 96.5 512.5H416.5C469.5 512.5 512.5 469.5 512.5 416.5V288.5C512.5 235.5 469.5 192.5 416.5 192.5ZM160.5 288.5C125.2 288.5 96.5 317.2 96.5 352.5C96.5 387.8 125.2 416.5 160.5 416.5H352.5C387.8 416.5 416.5 387.8 416.5 352.5C416.5 317.2 387.8 288.5 352.5 288.5H320.5H160.5Z" fill="#47535F"/>
</g>
<defs>
<clipPath id="clip0_104_2550">
<rect width="512" height="512" fill="white" transform="translate(0.5 0.5)"/>
</clipPath>
</defs>
</svg>
