<svg width="513" height="513" viewBox="0 0 513 513" fill="none" xmlns="http://www.w3.org/2000/svg">
<g clip-path="url(#clip0_104_2552)">
<path d="M175.7 477.1C166 459.1 160.5 438.4 160.5 416.5C160.5 376.2 179.5 338.3 211.7 314.1L275.7 266.1C283.8 260.1 288.5 250.6 288.5 240.5V96.5H128.5V240.5C128.5 260.6 119 279.6 102.9 291.7L38.9 339.7C14.7 357.8 0.5 386.3 0.5 416.5C0.5 469.5 43.5 512.5 96.5 512.5C117.3 512.5 137.5 505.8 154.1 493.3L175.7 477.1ZM128.5 64.5H288.5V48.5C288.5 34 292.4 20.3 299.2 8.6C291.5 3.5 282.4 0.5 272.5 0.5H176.5C150 0.5 128.5 22 128.5 48.5V64.5ZM320.5 96.5V240.5C320.5 260.6 311 279.6 294.9 291.7L230.9 339.7C206.7 357.8 192.5 386.3 192.5 416.5C192.5 469.5 235.5 512.5 288.5 512.5C309.3 512.5 329.5 505.8 346.1 493.3L461.3 406.9C493.5 382.7 512.5 344.8 512.5 304.5V96.5H320.5ZM512.5 64.5V48.5C512.5 22 491 0.5 464.5 0.5H368.5C342 0.5 320.5 22 320.5 48.5V64.5H512.5Z" fill="#47535F"/>
</g>
<defs>
<clipPath id="clip0_104_2552">
<rect width="512" height="512" fill="white" transform="translate(0.5 0.5)"/>
</clipPath>
</defs>
</svg>
