<svg width="641" height="513" viewBox="0 0 641 513" fill="none" xmlns="http://www.w3.org/2000/svg">
<g clip-path="url(#clip0_104_2554)">
<path d="M122.7 0.5C92.2001 0.5 66.0001 22 60.0001 51.9L8.80013 307.9C0.900125 347.5 31.1001 384.5 71.5001 384.5H288.5V448.5H224.5C206.8 448.5 192.5 462.8 192.5 480.5C192.5 498.2 206.8 512.5 224.5 512.5H416.5C434.2 512.5 448.5 498.2 448.5 480.5C448.5 462.8 434.2 448.5 416.5 448.5H352.5V384.5H569.5C609.9 384.5 640.2 347.6 632.3 307.9L581.1 51.9C575 22 548.8 0.5 518.3 0.5H122.7ZM261.4 64.5H379.6L390 168.5H251L261.4 64.5ZM202.8 168.5H101.9L122.7 64.5H213.1L202.8 168.5ZM92.3001 216.5H198L187.6 320.5H71.5001L92.3001 216.5ZM246.2 216.5H394.8L405.2 320.5H235.8L246.2 216.5ZM443 216.5H548.7L569.5 320.5H453.5L443 216.5ZM539 168.5H438.2L427.8 64.5H518.2L549.6 58.2L518.3 64.5L539.1 168.5H539Z" fill="#47535F"/>
</g>
<defs>
<clipPath id="clip0_104_2554">
<rect width="640" height="512" fill="white" transform="translate(0.5 0.5)"/>
</clipPath>
</defs>
</svg>
