<svg width="321" height="513" viewBox="0 0 321 513" fill="none" xmlns="http://www.w3.org/2000/svg">
<g clip-path="url(#clip0_104_2556)">
<path d="M137.9 41.8999C150.4 29.3999 170.7 29.3999 183.2 41.8999L311.2 169.9C320.4 179.1 323.1 192.8 318.1 204.8C313.1 216.8 301.5 224.6 288.5 224.6H32.5C19.6 224.6 7.90001 216.8 2.90001 204.8C-2.09999 192.8 0.700006 179.1 9.80001 169.9L137.8 41.8999H137.9ZM137.9 471.2L9.90001 343.2C0.700006 334 -1.99999 320.3 3.00001 308.3C8.00001 296.3 19.6 288.5 32.6 288.5H288.5C301.4 288.5 313.1 296.3 318.1 308.3C323.1 320.3 320.3 334 311.2 343.2L183.2 471.2C170.7 483.7 150.4 483.7 137.9 471.2Z" fill="#47535F"/>
</g>
<defs>
<clipPath id="clip0_104_2556">
<rect width="320" height="512" fill="white" transform="translate(0.5 0.5)"/>
</clipPath>
</defs>
</svg>
