<svg width="577" height="513" viewBox="0 0 577 513" fill="none" xmlns="http://www.w3.org/2000/svg">
<g clip-path="url(#clip0_104_2562)">
<path d="M183.6 235.8C217.3 256.5 246.5 283.9 269.4 316.3C276.4 326.2 282.8 336.6 288.5 347.3C294.2 336.5 300.6 326.2 307.6 316.3C330.5 283.9 359.7 256.5 393.4 235.8C438.1 208.3 490.6 192.5 546.5 192.5H556.4C567.5 192.5 576.5 201.5 576.5 212.6C576.5 360.6 456.6 480.5 308.6 480.5H288.5H268.4C120.4 480.5 0.5 360.6 0.5 212.6C0.5 201.5 9.5 192.5 20.6 192.5H30.5C86.4 192.5 138.9 208.3 183.6 235.8ZM302 38.1C317.7 55 363.1 109.9 386.4 202.7C348.4 224.3 315 253.5 288.5 288.3C262 253.5 228.6 224.4 190.6 202.7C213.8 109.9 259.2 55 275 38.1C278.5 34.4 283.4 32.5 288.5 32.5C293.6 32.5 298.5 34.4 302 38.1Z" fill="#47535F"/>
</g>
<defs>
<clipPath id="clip0_104_2562">
<rect width="576" height="512" fill="white" transform="translate(0.5 0.5)"/>
</clipPath>
</defs>
</svg>
