<svg width="641" height="513" viewBox="0 0 641 513" fill="none" xmlns="http://www.w3.org/2000/svg">
<g clip-path="url(#clip0_104_2564)">
<path d="M208.5 64.5C208.5 60.2565 206.814 56.1869 203.814 53.1863C200.813 50.1857 196.743 48.5 192.5 48.5C188.257 48.5 184.187 50.1857 181.186 53.1863C178.186 56.1869 176.5 60.2565 176.5 64.5C176.5 68.7435 178.186 72.8131 181.186 75.8137C184.187 78.8143 188.257 80.5 192.5 80.5C196.743 80.5 200.813 78.8143 203.814 75.8137C206.814 72.8131 208.5 68.7435 208.5 64.5ZM256.5 64.5C256.5 80.7 250.5 95.6 240.5 106.8L256.1 138C274.8 132 296 128.5 320.5 128.5C345 128.5 366.3 132 384.9 138L400.5 106.8C390.5 95.6 384.5 80.7 384.5 64.5C384.5 29.2 413.2 0.5 448.5 0.5C483.8 0.5 512.5 29.2 512.5 64.5C512.5 99.8 483.8 128.5 448.5 128.5C446.8 128.5 445.1 128.4 443.4 128.3L428.3 158.5C449.4 172.1 466 188.7 479.7 204.9C486.8 213.2 493.2 221.5 499 228.9L500.4 230.7C506.7 238.8 512 245.5 517.1 251.1C527.8 262.8 533.2 264.5 536.5 264.5C539 264.5 540.8 263.9 543.6 261.2C547.3 257.7 550.7 252.4 556.1 243.8L556.7 242.9C561.3 235.5 567.7 225.3 576.1 217.2C585.8 207.9 599 200.5 616.5 200.5C629.8 200.5 640.5 211.2 640.5 224.5C640.5 237.8 629.8 248.5 616.5 248.5C614 248.5 612.2 249.1 609.4 251.8C605.7 255.3 602.3 260.6 596.9 269.2L596.3 270.1C591.7 277.5 585.3 287.7 576.9 295.8C567.2 305.1 554 312.5 536.5 312.5C518 312.5 503.6 304 492.2 293.9C489.1 297.9 485.6 302.2 481.7 306.6C483.1 310.9 484.5 315.1 485.7 319.1C486.6 322.1 487.5 324.9 488.3 327.7C491.3 337.5 493.8 345.9 496.9 353.6C500.8 363.4 504.3 369 507.7 372.1C510.3 374.5 513.6 376.4 520.5 376.4C529.2 376.4 537.4 372.2 554.2 363.2C569.2 355.2 589.9 344.4 616.5 344.4C629.8 344.4 640.5 355.1 640.5 368.4C640.5 381.7 629.8 392.4 616.5 392.4C603.1 392.4 591.8 397.6 576.8 405.6C575.8 406.2 574.7 406.7 573.6 407.3C560.4 414.5 541.9 424.5 520.5 424.5C502.1 424.5 486.9 418.4 475 407.3C463.9 397 457.1 383.6 452.3 371.3C448.7 362.3 445.6 352.2 442.8 342.8C426.4 355.1 406.7 366.4 383.9 374.1C387.5 384.9 392.3 397.6 398.3 410.3C405.8 426.2 414.5 440.7 424.1 450.8C433.5 461 441.7 464.5 448.5 464.5C461.8 464.5 472.5 475.2 472.5 488.5C472.5 501.8 461.8 512.5 448.5 512.5C423.3 512.5 403.5 499 389 483.7C374.5 468.3 363.3 448.8 354.8 430.7C346.8 413.7 340.7 396.9 336.5 383.8C331.3 384.2 325.9 384.4 320.5 384.4C315.1 384.4 309.7 384.2 304.5 383.8C300.3 396.8 294.2 413.7 286.2 430.7C277.7 448.8 266.4 468.3 252 483.7C237.5 499 217.7 512.5 192.5 512.5C179.2 512.5 168.5 501.8 168.5 488.5C168.5 475.2 179.2 464.5 192.5 464.5C199.3 464.5 207.5 461 217 450.8C226.5 440.7 235.3 426.2 242.8 410.3C248.7 397.7 253.5 384.9 257.2 374.1C234.4 366.4 214.7 355.1 198.3 342.8C195.4 352.2 192.3 362.3 188.8 371.3C184 383.5 177.2 396.9 166.1 407.3C154.1 418.4 138.9 424.5 120.5 424.5C99.1 424.5 80.6 414.5 67.4 407.4C66.3 406.8 65.2 406.2 64.2 405.7C49.2 397.7 37.9 392.5 24.5 392.5C11.2 392.5 0.5 381.8 0.5 368.5C0.5 355.2 11.2 344.5 24.5 344.5C51.1 344.5 71.8 355.3 86.8 363.3C103.6 372.3 111.8 376.5 120.5 376.5C127.3 376.5 130.7 374.6 133.3 372.2C136.7 369 140.3 363.4 144.1 353.7C147.1 346 149.7 337.6 152.7 327.8C153.5 325.1 154.4 322.2 155.3 319.2C156.5 315.2 157.9 311 159.3 306.7C155.4 302.2 151.9 297.9 148.8 294C137.4 304 123 312.5 104.5 312.5C87 312.5 73.8 305.1 64.1 295.8C55.7 287.7 49.3 277.5 44.7 270.1L44.1 269.2C38.7 260.6 35.3 255.3 31.6 251.8C28.8 249.1 27 248.5 24.5 248.5C11.2 248.5 0.5 237.8 0.5 224.5C0.5 211.2 11.2 200.5 24.5 200.5C42 200.5 55.2 207.9 64.9 217.2C73.3 225.3 79.7 235.5 84.3 242.9L84.9 243.8C90.3 252.4 93.7 257.7 97.4 261.2C100.2 263.9 102 264.5 104.5 264.5C107.8 264.5 113.2 262.8 123.9 251.1C129 245.5 134.3 238.8 140.6 230.7L142 228.9C147.8 221.5 154.2 213.2 161.3 204.9C175.1 188.7 191.6 172.1 212.7 158.5L197.6 128.3C195.9 128.4 194.2 128.5 192.5 128.5C157.2 128.5 128.5 99.8 128.5 64.5C128.5 29.2 157.2 0.5 192.5 0.5C227.8 0.5 256.5 29.2 256.5 64.5ZM464.5 64.5C464.5 60.2565 462.814 56.1869 459.814 53.1863C456.813 50.1857 452.743 48.5 448.5 48.5C444.257 48.5 440.187 50.1857 437.186 53.1863C434.186 56.1869 432.5 60.2565 432.5 64.5C432.5 68.7435 434.186 72.8131 437.186 75.8137C440.187 78.8143 444.257 80.5 448.5 80.5C452.743 80.5 456.813 78.8143 459.814 75.8137C462.814 72.8131 464.5 68.7435 464.5 64.5Z" fill="#47535F"/>
</g>
<defs>
<clipPath id="clip0_104_2564">
<rect width="640" height="512" fill="white" transform="translate(0.5 0.5)"/>
</clipPath>
</defs>
</svg>
