<svg width="577" height="513" viewBox="0 0 577 513" fill="none" xmlns="http://www.w3.org/2000/svg">
<g clip-path="url(#clip0_104_2566)">
<path d="M112.5 0.5C99.6002 0.5 87.9002 8.3 83.0002 20.2L16.3002 180.2L3.00018 212.2C-3.79982 228.5 3.90019 247.2 20.2002 254C36.5002 260.8 55.2002 253.1 62.0002 236.8L67.2002 224.5H157.9L163 236.8C169.8 253.1 188.5 260.8 204.8 254C221.1 247.2 228.8 228.5 222 212.2L208.7 180.2L142 20.2C137.1 8.3 125.4 0.5 112.5 0.5ZM131.2 160.5H93.8002L112.5 115.7L131.2 160.5ZM256.5 32.5V128.5V224.5C256.5 242.2 270.8 256.5 288.5 256.5H368.5C412.7 256.5 448.5 220.7 448.5 176.5C448.5 153.4 438.7 132.7 423.1 118.1C429.1 106.9 432.5 94.1 432.5 80.5C432.5 36.3 396.7 0.5 352.5 0.5H288.5C270.8 0.5 256.5 14.8 256.5 32.5ZM352.5 96.5H320.5V64.5H352.5C361.3 64.5 368.5 71.7 368.5 80.5C368.5 89.3 361.3 96.5 352.5 96.5ZM320.5 160.5H352.5H368.5C377.3 160.5 384.5 167.7 384.5 176.5C384.5 185.3 377.3 192.5 368.5 192.5H320.5V160.5ZM567.1 311.1C579.6 298.6 579.6 278.3 567.1 265.8C554.6 253.3 534.3 253.3 521.8 265.8L352.5 435.2L279.1 361.8C266.6 349.3 246.3 349.3 233.8 361.8C221.3 374.3 221.3 394.6 233.8 407.1L329.8 503.1C342.3 515.6 362.6 515.6 375.1 503.1L567.1 311.1Z" fill="#47535F"/>
</g>
<defs>
<clipPath id="clip0_104_2566">
<rect width="576" height="512" fill="white" transform="translate(0.5 0.5)"/>
</clipPath>
</defs>
</svg>
