<svg width="513" height="513" viewBox="0 0 513 513" fill="none" xmlns="http://www.w3.org/2000/svg">
<g clip-path="url(#clip0_104_2568)">
<path d="M158.9 33.0998C163.7 20.6998 157.5 6.7998 145.1 2.0998C132.7 -2.6002 118.8 3.4998 114.1 15.8998L81.5996 100.5C73.6996 121.2 78.5996 144.6 94.2996 160.2L151.7 217.6L71.2996 190.8C68.8996 190 66.9996 188.1 66.1996 185.7L47.2996 128.9C43.0996 116.3 29.4996 109.5 16.8996 113.7C4.29961 117.9 -2.50039 131.5 1.69961 144.1L20.5996 200.9C26.1996 217.6 39.2996 230.7 55.9996 236.3L116.6 256.5L56.0996 276.7C39.3996 282.3 26.2996 295.4 20.6996 312.1L1.69961 368.9C-2.50039 381.5 4.29961 395.1 16.8996 399.3C29.4996 403.5 43.0996 396.7 47.2996 384.1L66.1996 327.3C66.9996 324.9 68.8996 323 71.2996 322.2L151.7 295.4L94.1996 352.8C78.5996 368.5 73.5996 391.9 81.5996 412.5L114.1 497.1C118.9 509.5 132.7 515.6 145.1 510.9C157.5 506.2 163.6 492.3 158.9 479.9L126.4 395.3C125.3 392.3 126 389 128.2 386.8L160.5 354.4C161.5 406.5 204.1 448.5 256.5 448.5C308.9 448.5 351.5 406.6 352.5 354.4L384.8 386.7C387 388.9 387.7 392.3 386.6 395.2L354.1 479.8C349.3 492.2 355.5 506.1 367.9 510.8C380.3 515.5 394.2 509.4 398.9 497L431.4 412.5C439.3 391.8 434.4 368.4 418.7 352.8L361.3 295.4L441.7 322.2C444.1 323 446 324.9 446.8 327.3L465.7 384.1C469.9 396.7 483.5 403.5 496.1 399.3C508.7 395.1 515.5 381.5 511.3 368.9L492.4 312.1C486.8 295.4 473.7 282.3 457 276.7L396.4 256.5L456.9 236.3C473.6 230.7 486.7 217.6 492.3 200.9L511.2 144.1C515.4 131.5 508.6 117.9 496 113.7C483.4 109.5 469.8 116.3 465.6 128.9L446.7 185.7C445.9 188.1 444 190 441.6 190.8L361.2 217.6L418.6 160.2C434.2 144.6 439.2 121.2 431.3 100.5L398.9 15.8998C394.1 3.4998 380.3 -2.7002 367.9 2.0998C355.5 6.8998 349.4 20.6998 354.1 33.0998L386.6 117.7C387.7 120.7 387 124 384.8 126.2L336.5 174.6V160.5C336.5 128.7 317.9 101.2 291 88.2998C281.9 83.8998 272.5 91.5998 272.5 101.7V112.5C272.5 121.3 265.3 128.5 256.5 128.5C247.7 128.5 240.5 121.3 240.5 112.5V101.7C240.5 91.5998 231.1 83.9998 222 88.2998C195.1 101.2 176.5 128.7 176.5 160.5V174.6L128.2 126.3C126 124.1 125.3 120.7 126.4 117.8L158.9 33.1998V33.0998Z" fill="#47535F"/>
</g>
<defs>
<clipPath id="clip0_104_2568">
<rect width="512" height="512" fill="white" transform="translate(0.5 0.5)"/>
</clipPath>
</defs>
</svg>
