<svg width="513" height="513" viewBox="0 0 513 513" fill="none" xmlns="http://www.w3.org/2000/svg">
<g clip-path="url(#clip0_104_2570)">
<path d="M304.5 48.5C304.5 35.7696 299.443 23.5606 290.441 14.5589C281.439 5.55713 269.23 0.5 256.5 0.5C243.77 0.5 231.561 5.55713 222.559 14.5589C213.557 23.5606 208.5 35.7696 208.5 48.5C208.5 61.2304 213.557 73.4394 222.559 82.4411C231.561 91.4429 243.77 96.5 256.5 96.5C269.23 96.5 281.439 91.4429 290.441 82.4411C299.443 73.4394 304.5 61.2304 304.5 48.5ZM304.5 464.5C304.5 451.77 299.443 439.561 290.441 430.559C281.439 421.557 269.23 416.5 256.5 416.5C243.77 416.5 231.561 421.557 222.559 430.559C213.557 439.561 208.5 451.77 208.5 464.5C208.5 477.23 213.557 489.439 222.559 498.441C231.561 507.443 243.77 512.5 256.5 512.5C269.23 512.5 281.439 507.443 290.441 498.441C299.443 489.439 304.5 477.23 304.5 464.5ZM48.5 304.5C61.2304 304.5 73.4394 299.443 82.4411 290.441C91.4429 281.439 96.5 269.23 96.5 256.5C96.5 243.77 91.4429 231.561 82.4411 222.559C73.4394 213.557 61.2304 208.5 48.5 208.5C35.7696 208.5 23.5606 213.557 14.5589 222.559C5.55713 231.561 0.5 243.77 0.5 256.5C0.5 269.23 5.55713 281.439 14.5589 290.441C23.5606 299.443 35.7696 304.5 48.5 304.5ZM512.5 256.5C512.5 243.77 507.443 231.561 498.441 222.559C489.439 213.557 477.23 208.5 464.5 208.5C451.77 208.5 439.561 213.557 430.559 222.559C421.557 231.561 416.5 243.77 416.5 256.5C416.5 269.23 421.557 281.439 430.559 290.441C439.561 299.443 451.77 304.5 464.5 304.5C477.23 304.5 489.439 299.443 498.441 290.441C507.443 281.439 512.5 269.23 512.5 256.5ZM143.4 437.5C147.858 433.042 151.395 427.749 153.808 421.924C156.221 416.098 157.463 409.855 157.463 403.55C157.463 397.245 156.221 391.002 153.808 385.176C151.395 379.351 147.858 374.058 143.4 369.6C138.942 365.142 133.649 361.605 127.824 359.192C121.998 356.779 115.755 355.537 109.45 355.537C96.7163 355.537 84.5041 360.596 75.5 369.6C66.4959 378.604 61.4375 390.816 61.4375 403.55C61.4375 416.284 66.4959 428.496 75.5 437.5C84.5041 446.504 96.7163 451.563 109.45 451.563C122.184 451.563 134.396 446.504 143.4 437.5ZM143.4 143.3C148.08 138.894 151.827 133.592 154.419 127.71C157.011 121.828 158.396 115.485 158.49 109.058C158.584 102.63 157.387 96.2497 154.968 90.294C152.55 84.3384 148.96 78.9292 144.411 74.3873C139.863 69.8454 134.448 66.2634 128.489 63.8537C122.53 61.4441 116.147 60.2559 109.72 60.3597C103.293 60.4634 96.9522 61.8571 91.0739 64.4579C85.1956 67.0587 79.8996 70.8136 75.5 75.5C66.4959 84.5041 61.4375 96.7163 61.4375 109.45C61.4375 122.184 66.4959 134.396 75.5 143.4C84.5041 152.404 96.7163 157.463 109.45 157.463C122.184 157.463 134.396 152.404 143.4 143.4V143.3ZM369.6 437.5C374.058 441.958 379.351 445.495 385.176 447.908C391.002 450.321 397.245 451.563 403.55 451.563C409.855 451.563 416.098 450.321 421.924 447.908C427.749 445.495 433.042 441.958 437.5 437.5C441.958 433.042 445.495 427.749 447.908 421.924C450.321 416.098 451.563 409.855 451.563 403.55C451.563 397.245 450.321 391.002 447.908 385.176C445.495 379.351 441.958 374.058 437.5 369.6C433.042 365.142 427.749 361.605 421.924 359.192C416.098 356.779 409.855 355.537 403.55 355.537C397.245 355.537 391.002 356.779 385.176 359.192C379.351 361.605 374.058 365.142 369.6 369.6C365.142 374.058 361.605 379.351 359.192 385.176C356.779 391.002 355.537 397.245 355.537 403.55C355.537 409.855 356.779 416.098 359.192 421.924C361.605 427.749 365.142 433.042 369.6 437.5Z" fill="#47535F"/>
</g>
<defs>
<clipPath id="clip0_104_2570">
<rect width="512" height="512" fill="white" transform="translate(0.5 0.5)"/>
</clipPath>
</defs>
</svg>
