<svg width="513" height="513" viewBox="0 0 513 513" fill="none" xmlns="http://www.w3.org/2000/svg">
<g clip-path="url(#clip0_104_2572)">
<path d="M209 62.8L237.1 25.9C249.3 9.9 268.3 0.5 288.5 0.5C317 0.5 342.1 19.2 350.3 46.5L368.1 105.9C378.4 140.3 404.2 167.9 437.9 180.5L477.7 195.4C498.6 203.3 512.5 223.3 512.5 245.6C512.5 262.5 504.6 278.4 491 288.5L423.7 339C399.4 357.2 386.5 386.9 389.9 417.1L392.4 439.8C396.7 478.5 366.4 512.4 327.4 512.4C312.6 512.4 298.1 507.3 286.6 498.1L231.2 453.8C226.7 450.2 221.9 447.1 216.7 444.6C200.9 436.7 183 434.2 165.7 437.3L82.9 452.4C48.3 458.7 16.5 432.1 16.5 397C16.5 383.8 21.2 371 29.6 360.8L40.8 347.4C55.4 330 63.4 308 63.4 285.3C63.4 266.5 57.9 248.1 47.6 232.3L9.3 174C3.6 165.2 0.5 154.9 0.5 144.4C0.5 111 30.6 85.6 63.5 91.2L114.8 99.9C150.7 106 187 91.7 209 62.8Z" fill="#47535F"/>
</g>
<defs>
<clipPath id="clip0_104_2572">
<rect width="512" height="512" fill="white" transform="translate(0.5 0.5)"/>
</clipPath>
</defs>
</svg>
