<svg width="513" height="513" viewBox="0 0 513 513" fill="none" xmlns="http://www.w3.org/2000/svg">
<g clip-path="url(#clip0_104_2578)">
<path d="M96.5 32.5V128.5H224.5V32.5C224.5 14.8 210.2 0.5 192.5 0.5H128.5C110.8 0.5 96.5 14.8 96.5 32.5ZM96.5 160.5C43.5 160.5 0.5 203.5 0.5 256.5V464.5C0.5 491 22 512.5 48.5 512.5H272.5C299 512.5 320.5 491 320.5 464.5V256.5C320.5 203.5 277.5 160.5 224.5 160.5H96.5ZM160.5 256.5C181.717 256.5 202.066 264.929 217.069 279.931C232.071 294.934 240.5 315.283 240.5 336.5C240.5 357.717 232.071 378.066 217.069 393.069C202.066 408.071 181.717 416.5 160.5 416.5C139.283 416.5 118.934 408.071 103.931 393.069C88.9285 378.066 80.5 357.717 80.5 336.5C80.5 315.283 88.9285 294.934 103.931 279.931C118.934 264.929 139.283 256.5 160.5 256.5ZM384.5 48.5C384.5 47.1 383.5 45.5 382.3 44.9L352.5 32.5L340.1 2.7C339.5 1.5 337.9 0.5 336.5 0.5C335.1 0.5 333.5 1.5 332.9 2.7L320.5 32.5L290.7 44.9C289.5 45.5 288.5 47.1 288.5 48.5C288.5 49.9 289.5 51.5 290.7 52.1L320.5 64.5L332.9 94.3C333.5 95.5 335.1 96.5 336.5 96.5C337.9 96.5 339.5 95.5 340.1 94.3L352.5 64.5L382.3 52.1C383.5 51.5 384.5 49.9 384.5 48.5ZM460.9 94.3C461.5 95.5 463.1 96.5 464.5 96.5C465.9 96.5 467.5 95.5 468.1 94.3L480.5 64.5L510.3 52.1C511.5 51.5 512.5 49.9 512.5 48.5C512.5 47.1 511.5 45.5 510.3 44.9L480.5 32.5L468.1 2.7C467.5 1.5 465.9 0.5 464.5 0.5C463.1 0.5 461.5 1.5 460.9 2.7L448.5 32.5L418.7 44.9C417.5 45.5 416.5 47.1 416.5 48.5C416.5 49.9 417.5 51.5 418.7 52.1L448.5 64.5L460.9 94.3ZM468.1 194.7C467.5 193.5 465.9 192.5 464.5 192.5C463.1 192.5 461.5 193.5 460.9 194.7L448.5 224.5L418.7 236.9C417.5 237.5 416.5 239.1 416.5 240.5C416.5 241.9 417.5 243.5 418.7 244.1L448.5 256.5L460.9 286.3C461.5 287.5 463.1 288.5 464.5 288.5C465.9 288.5 467.5 287.5 468.1 286.3L480.5 256.5L510.3 244.1C511.5 243.5 512.5 241.9 512.5 240.5C512.5 239.1 511.5 237.5 510.3 236.9L480.5 224.5L468.1 194.7ZM448.5 144.5C448.5 143.1 447.5 141.5 446.3 140.9L416.5 128.5L404.1 98.7C403.5 97.5 401.9 96.5 400.5 96.5C399.1 96.5 397.5 97.5 396.9 98.7L384.5 128.5L354.7 140.9C353.5 141.5 352.5 143.1 352.5 144.5C352.5 145.9 353.5 147.5 354.7 148.1L384.5 160.5L396.9 190.3C397.5 191.5 399.1 192.5 400.5 192.5C401.9 192.5 403.5 191.5 404.1 190.3L416.5 160.5L446.3 148.1C447.5 147.5 448.5 145.9 448.5 144.5Z" fill="#47535F"/>
</g>
<defs>
<clipPath id="clip0_104_2578">
<rect width="512" height="512" fill="white" transform="translate(0.5 0.5)"/>
</clipPath>
</defs>
</svg>
