<svg width="513" height="513" viewBox="0 0 513 513" fill="none" xmlns="http://www.w3.org/2000/svg">
<g clip-path="url(#clip0_104_2576)">
<path d="M128.5 0.5H192.5C210.2 0.5 224.5 14.8 224.5 32.5V128.5H96.5V32.5C96.5 14.8 110.8 0.5 128.5 0.5ZM0.5 256.5C0.5 203.5 43.5 160.5 96.5 160.5H224.5C277.5 160.5 320.5 203.5 320.5 256.5V464.5C320.5 491 299 512.5 272.5 512.5H48.5C22 512.5 0.5 491 0.5 464.5V256.5ZM240.5 336.5C240.5 315.283 232.071 294.934 217.069 279.931C202.066 264.929 181.717 256.5 160.5 256.5C139.283 256.5 118.934 264.929 103.931 279.931C88.9285 294.934 80.5 315.283 80.5 336.5C80.5 357.717 88.9285 378.066 103.931 393.069C118.934 408.071 139.283 416.5 160.5 416.5C181.717 416.5 202.066 408.071 217.069 393.069C232.071 378.066 240.5 357.717 240.5 336.5ZM256.5 64.5C256.5 56.0131 259.871 47.8737 265.873 41.8726C271.874 35.8714 280.013 32.5 288.5 32.5C296.987 32.5 305.126 35.8714 311.127 41.8726C317.129 47.8737 320.5 56.0131 320.5 64.5C320.5 72.9869 317.129 81.1263 311.127 87.1274C305.126 93.1286 296.987 96.5 288.5 96.5C280.013 96.5 271.874 93.1286 265.873 87.1274C259.871 81.1263 256.5 72.9869 256.5 64.5ZM384.5 32.5C392.987 32.5 401.126 35.8714 407.127 41.8726C413.129 47.8737 416.5 56.0131 416.5 64.5C416.5 72.9869 413.129 81.1263 407.127 87.1274C401.126 93.1286 392.987 96.5 384.5 96.5C376.013 96.5 367.874 93.1286 361.873 87.1274C355.871 81.1263 352.5 72.9869 352.5 64.5C352.5 56.0131 355.871 47.8737 361.873 41.8726C367.874 35.8714 376.013 32.5 384.5 32.5ZM448.5 64.5C448.5 56.0131 451.871 47.8737 457.873 41.8726C463.874 35.8714 472.013 32.5 480.5 32.5C488.987 32.5 497.126 35.8714 503.127 41.8726C509.129 47.8737 512.5 56.0131 512.5 64.5C512.5 72.9869 509.129 81.1263 503.127 87.1274C497.126 93.1286 488.987 96.5 480.5 96.5C472.013 96.5 463.874 93.1286 457.873 87.1274C451.871 81.1263 448.5 72.9869 448.5 64.5ZM480.5 128.5C488.987 128.5 497.126 131.871 503.127 137.873C509.129 143.874 512.5 152.013 512.5 160.5C512.5 168.987 509.129 177.126 503.127 183.127C497.126 189.129 488.987 192.5 480.5 192.5C472.013 192.5 463.874 189.129 457.873 183.127C451.871 177.126 448.5 168.987 448.5 160.5C448.5 152.013 451.871 143.874 457.873 137.873C463.874 131.871 472.013 128.5 480.5 128.5ZM448.5 256.5C448.5 248.013 451.871 239.874 457.873 233.873C463.874 227.871 472.013 224.5 480.5 224.5C488.987 224.5 497.126 227.871 503.127 233.873C509.129 239.874 512.5 248.013 512.5 256.5C512.5 264.987 509.129 273.126 503.127 279.127C497.126 285.129 488.987 288.5 480.5 288.5C472.013 288.5 463.874 285.129 457.873 279.127C451.871 273.126 448.5 264.987 448.5 256.5ZM384.5 128.5C392.987 128.5 401.126 131.871 407.127 137.873C413.129 143.874 416.5 152.013 416.5 160.5C416.5 168.987 413.129 177.126 407.127 183.127C401.126 189.129 392.987 192.5 384.5 192.5C376.013 192.5 367.874 189.129 361.873 183.127C355.871 177.126 352.5 168.987 352.5 160.5C352.5 152.013 355.871 143.874 361.873 137.873C367.874 131.871 376.013 128.5 384.5 128.5Z" fill="#47535F"/>
</g>
<defs>
<clipPath id="clip0_104_2576">
<rect width="512" height="512" fill="white" transform="translate(0.5 0.5)"/>
</clipPath>
</defs>
</svg>
