<svg width="449" height="513" viewBox="0 0 449 513" fill="none" xmlns="http://www.w3.org/2000/svg">
<g clip-path="url(#clip0_104_2590)">
<path d="M64.5 32.5C29.2 32.5 0.5 61.2 0.5 96.5V416.5C0.5 451.8 29.2 480.5 64.5 480.5H384.5C419.8 480.5 448.5 451.8 448.5 416.5V96.5C448.5 61.2 419.8 32.5 384.5 32.5H64.5ZM224.5 160.5C231.2 160.5 237.5 163.3 242.1 168.2L346.1 280.2C352.6 287.2 354.3 297.4 350.5 306.1C346.7 314.8 338 320.5 328.5 320.5H120.5C111 320.5 102.3 314.8 98.5 306.1C94.7 297.4 96.4 287.2 102.9 280.2L206.9 168.2C211.4 163.3 217.8 160.5 224.5 160.5Z" fill="#47535F"/>
</g>
<defs>
<clipPath id="clip0_104_2590">
<rect width="448" height="512" fill="white" transform="translate(0.5 0.5)"/>
</clipPath>
</defs>
</svg>
