<svg width="577" height="513" viewBox="0 0 577 513" fill="none" xmlns="http://www.w3.org/2000/svg">
<g clip-path="url(#clip0_104_2620)">
<path d="M283.1 78.6C291.1 51.3 316.1 32.5 344.5 32.5H544.5C562.2 32.5 576.5 46.8 576.5 64.5C576.5 82.2 562.2 96.5 544.5 96.5H344.5L239.2 457.5C235.6 469.8 225.1 478.7 212.4 480.3C199.7 481.9 187.3 475.7 180.9 464.7L78.1 288.5H32.5C14.8 288.5 0.5 274.2 0.5 256.5C0.5 238.8 14.8 224.5 32.5 224.5H78.1C100.9 224.5 121.9 236.6 133.4 256.3L198.6 368.1L283.1 78.6ZM393.9 233.9C406.4 221.4 426.7 221.4 439.2 233.9L480.5 275.2L521.9 233.8C534.4 221.3 554.7 221.3 567.2 233.8C579.7 246.3 579.7 266.6 567.2 279.1L525.8 320.5L567.2 361.9C579.7 374.4 579.7 394.7 567.2 407.2C554.7 419.7 534.4 419.7 521.9 407.2L480.5 365.8L439.1 407.2C426.6 419.7 406.3 419.7 393.8 407.2C381.3 394.7 381.3 374.4 393.8 361.9L435.2 320.5L393.8 279.1C381.3 266.6 381.3 246.3 393.8 233.8L393.9 233.9Z" fill="#47535F"/>
</g>
<defs>
<clipPath id="clip0_104_2620">
<rect width="576" height="512" fill="white" transform="translate(0.5 0.5)"/>
</clipPath>
</defs>
</svg>
