<svg width="449" height="513" viewBox="0 0 449 513" fill="none" xmlns="http://www.w3.org/2000/svg">
<g clip-path="url(#clip0_104_2626)">
<path d="M384.5 32.5C419.8 32.5 448.5 61.2 448.5 96.5V416.5C448.5 451.8 419.8 480.5 384.5 480.5H64.5C29.2 480.5 0.5 451.8 0.5 416.5V96.5C0.5 61.2 29.2 32.5 64.5 32.5H384.5ZM320.5 313.9V176.5C320.5 167.7 313.3 160.5 304.5 160.5H167.1C154.6 160.5 144.5 170.6 144.5 183.1C144.5 189.1 146.9 194.9 151.1 199.1L184.5 232.5L118.2 298.8C114.5 302.5 112.5 307.4 112.5 312.5C112.5 317.6 114.5 322.5 118.2 326.2L154.9 362.9C158.5 366.5 163.4 368.6 168.6 368.6C173.8 368.6 178.6 366.6 182.3 362.9L248.5 296.5L281.9 329.9C286.1 334.1 291.9 336.5 297.9 336.5C310.4 336.5 320.5 326.4 320.5 313.9Z" fill="#47535F"/>
</g>
<defs>
<clipPath id="clip0_104_2626">
<rect width="448" height="512" fill="white" transform="translate(0.5 0.5)"/>
</clipPath>
</defs>
</svg>
