<svg width="449" height="513" viewBox="0 0 449 513" fill="none" xmlns="http://www.w3.org/2000/svg">
<g clip-path="url(#clip0_104_2616)">
<path d="M448.5 96.5C448.5 61.2 419.8 32.5 384.5 32.5H64.5C29.2 32.5 0.5 61.2 0.5 96.5V416.5C0.5 451.8 29.2 480.5 64.5 480.5H384.5C419.8 480.5 448.5 451.8 448.5 416.5V96.5ZM256.5 160.5C256.5 178.2 242.2 192.5 224.5 192.5H128.5C110.8 192.5 96.5 178.2 96.5 160.5C96.5 142.8 110.8 128.5 128.5 128.5H224.5C242.2 128.5 256.5 142.8 256.5 160.5ZM320.5 224.5C338.2 224.5 352.5 238.8 352.5 256.5C352.5 274.2 338.2 288.5 320.5 288.5H128.5C110.8 288.5 96.5 274.2 96.5 256.5C96.5 238.8 110.8 224.5 128.5 224.5H320.5ZM192.5 352.5C192.5 370.2 178.2 384.5 160.5 384.5H128.5C110.8 384.5 96.5 370.2 96.5 352.5C96.5 334.8 110.8 320.5 128.5 320.5H160.5C178.2 320.5 192.5 334.8 192.5 352.5Z" fill="#47535F"/>
</g>
<defs>
<clipPath id="clip0_104_2616">
<rect width="448" height="512" fill="white" transform="translate(0.5 0.5)"/>
</clipPath>
</defs>
</svg>
