<svg width="449" height="513" viewBox="0 0 449 513" fill="none" xmlns="http://www.w3.org/2000/svg">
<g clip-path="url(#clip0_104_2594)">
<path d="M64.5 32.5C29.2 32.5 0.5 61.2 0.5 96.5V416.5C0.5 451.8 29.2 480.5 64.5 480.5H384.5C419.8 480.5 448.5 451.8 448.5 416.5V96.5C448.5 61.2 419.8 32.5 384.5 32.5H64.5ZM218.5 272.2L64.7 172.9C66.5 156.9 80 144.5 96.5 144.5H352.5C369 144.5 382.5 156.9 384.3 172.9L230.5 272.2C228.7 273.4 226.6 274 224.5 274C222.4 274 220.3 273.4 218.5 272.2ZM247.9 299.1L384.5 210.9V336.5C384.5 354.2 370.2 368.5 352.5 368.5H96.5C78.8 368.5 64.5 354.2 64.5 336.5V210.9L201.1 299.1C208.1 303.6 216.2 306 224.5 306C232.8 306 240.9 303.6 247.9 299.1Z" fill="#47535F"/>
</g>
<defs>
<clipPath id="clip0_104_2594">
<rect width="448" height="512" fill="white" transform="translate(0.5 0.5)"/>
</clipPath>
</defs>
</svg>
