<svg width="449" height="513" viewBox="0 0 449 513" fill="none" xmlns="http://www.w3.org/2000/svg">
<g clip-path="url(#clip0_104_2624)">
<path d="M64.5 32.5C29.2 32.5 0.5 61.2 0.5 96.5V416.5C0.5 451.8 29.2 480.5 64.5 480.5H384.5C419.8 480.5 448.5 451.8 448.5 416.5V96.5C448.5 61.2 419.8 32.5 384.5 32.5H64.5ZM384.5 160.5C384.5 195.8 355.8 224.5 320.5 224.5C305.1 224.5 291 219.1 279.9 210L194.6 256.5L279.9 303C290.9 293.9 305.1 288.5 320.5 288.5C355.8 288.5 384.5 317.2 384.5 352.5C384.5 387.8 355.8 416.5 320.5 416.5C285.2 416.5 256.5 387.8 256.5 352.5C256.5 350 256.6 347.6 256.9 345.2L175 300.5C163.3 312.8 146.8 320.5 128.5 320.5C93.2 320.5 64.5 291.8 64.5 256.5C64.5 221.2 93.2 192.5 128.5 192.5C146.8 192.5 163.3 200.2 175 212.5L256.9 167.8C256.6 165.4 256.5 162.9 256.5 160.5C256.5 125.2 285.2 96.5 320.5 96.5C355.8 96.5 384.5 125.2 384.5 160.5Z" fill="#47535F"/>
</g>
<defs>
<clipPath id="clip0_104_2624">
<rect width="448" height="512" fill="white" transform="translate(0.5 0.5)"/>
</clipPath>
</defs>
</svg>
