<svg width="449" height="513" viewBox="0 0 449 513" fill="none" xmlns="http://www.w3.org/2000/svg">
<g clip-path="url(#clip0_104_2630)">
<path d="M64.5 32.5C29.2 32.5 0.5 61.2 0.5 96.5V416.5C0.5 451.8 29.2 480.5 64.5 480.5H384.5C419.8 480.5 448.5 451.8 448.5 416.5V96.5C448.5 61.2 419.8 32.5 384.5 32.5H64.5ZM143.5 175.5C152.9 166.1 168.1 166.1 177.4 175.5L224.4 222.5L271.4 175.5C280.8 166.1 296 166.1 305.3 175.5C314.6 184.9 314.7 200.1 305.3 209.4L258.3 256.4L305.3 303.4C314.7 312.8 314.7 328 305.3 337.3C295.9 346.6 280.7 346.7 271.4 337.3L224.4 290.3L177.4 337.3C168 346.7 152.8 346.7 143.5 337.3C134.2 327.9 134.1 312.7 143.5 303.4L190.5 256.4L143.5 209.4C134.1 200 134.1 184.8 143.5 175.5Z" fill="#47535F"/>
</g>
<defs>
<clipPath id="clip0_104_2630">
<rect width="448" height="512" fill="white" transform="translate(0.5 0.5)"/>
</clipPath>
</defs>
</svg>
