<svg width="449" height="513" viewBox="0 0 449 513" fill="none" xmlns="http://www.w3.org/2000/svg">
<g clip-path="url(#clip0_104_2582)">
<path d="M384.5 32.5C419.8 32.5 448.5 61.2 448.5 96.5V416.5C448.5 451.8 419.8 480.5 384.5 480.5H64.5C29.2 480.5 0.5 451.8 0.5 416.5V96.5C0.5 61.2 29.2 32.5 64.5 32.5H384.5ZM160.5 144.5C147.2 144.5 136.5 155.2 136.5 168.5C136.5 181.8 147.2 192.5 160.5 192.5H254.6L119.5 327.5C110.1 336.9 110.1 352.1 119.5 361.4C128.9 370.7 144.1 370.8 153.4 361.4L288.4 226.4V328.5C288.4 341.8 299.1 352.5 312.4 352.5C325.7 352.5 336.4 341.8 336.4 328.5V168.5C336.4 155.2 325.7 144.5 312.4 144.5H160.5Z" fill="#47535F"/>
</g>
<defs>
<clipPath id="clip0_104_2582">
<rect width="448" height="512" fill="white" transform="translate(0.5 0.5)"/>
</clipPath>
</defs>
</svg>
