<svg width="449" height="513" viewBox="0 0 449 513" fill="none" xmlns="http://www.w3.org/2000/svg">
<g clip-path="url(#clip0_104_2622)">
<path d="M64.5 32.5C29.2 32.5 0.5 61.2 0.5 96.5V416.5C0.5 451.8 29.2 480.5 64.5 480.5H384.5C419.8 480.5 448.5 451.8 448.5 416.5V96.5C448.5 61.2 419.8 32.5 384.5 32.5H64.5ZM96.5 136.5C96.5 123.2 107.2 112.5 120.5 112.5C257.5 112.5 368.5 223.5 368.5 360.5C368.5 373.8 357.8 384.5 344.5 384.5C331.2 384.5 320.5 373.8 320.5 360.5C320.5 250 231 160.5 120.5 160.5C107.2 160.5 96.5 149.8 96.5 136.5ZM96.5 232.5C96.5 219.2 107.2 208.5 120.5 208.5C204.4 208.5 272.5 276.6 272.5 360.5C272.5 373.8 261.8 384.5 248.5 384.5C235.2 384.5 224.5 373.8 224.5 360.5C224.5 303.1 177.9 256.5 120.5 256.5C107.2 256.5 96.5 245.8 96.5 232.5ZM96.5 352.5C96.5 344.013 99.8714 335.874 105.873 329.873C111.874 323.871 120.013 320.5 128.5 320.5C136.987 320.5 145.126 323.871 151.127 329.873C157.129 335.874 160.5 344.013 160.5 352.5C160.5 360.987 157.129 369.126 151.127 375.127C145.126 381.129 136.987 384.5 128.5 384.5C120.013 384.5 111.874 381.129 105.873 375.127C99.8714 369.126 96.5 360.987 96.5 352.5Z" fill="#47535F"/>
</g>
<defs>
<clipPath id="clip0_104_2622">
<rect width="448" height="512" fill="white" transform="translate(0.5 0.5)"/>
</clipPath>
</defs>
</svg>
