<svg width="449" height="513" viewBox="0 0 449 513" fill="none" xmlns="http://www.w3.org/2000/svg">
<g clip-path="url(#clip0_104_2598)">
<path d="M64.5 32.5C29.2 32.5 0.5 61.2 0.5 96.5V416.5C0.5 451.8 29.2 480.5 64.5 480.5H384.5C419.8 480.5 448.5 451.8 448.5 416.5V96.5C448.5 61.2 419.8 32.5 384.5 32.5H64.5ZM336.5 152.5V256.5V360.5C336.5 373.8 325.8 384.5 312.5 384.5C299.2 384.5 288.5 373.8 288.5 360.5V280.5H160.5V360.5C160.5 373.8 149.8 384.5 136.5 384.5C123.2 384.5 112.5 373.8 112.5 360.5V152.5C112.5 139.2 123.2 128.5 136.5 128.5C149.8 128.5 160.5 139.2 160.5 152.5V232.5H288.5V152.5C288.5 139.2 299.2 128.5 312.5 128.5C325.8 128.5 336.5 139.2 336.5 152.5Z" fill="#47535F"/>
</g>
<defs>
<clipPath id="clip0_104_2598">
<rect width="448" height="512" fill="white" transform="translate(0.5 0.5)"/>
</clipPath>
</defs>
</svg>
