<svg width="449" height="513" viewBox="0 0 449 513" fill="none" xmlns="http://www.w3.org/2000/svg">
<g clip-path="url(#clip0_104_2600)">
<path d="M64.5 32.5C29.2 32.5 0.5 61.2 0.5 96.5V416.5C0.5 451.8 29.2 480.5 64.5 480.5H384.5C419.8 480.5 448.5 451.8 448.5 416.5V96.5C448.5 61.2 419.8 32.5 384.5 32.5H64.5ZM152.5 232.5H296.5C309.8 232.5 320.5 243.2 320.5 256.5C320.5 269.8 309.8 280.5 296.5 280.5H152.5C139.2 280.5 128.5 269.8 128.5 256.5C128.5 243.2 139.2 232.5 152.5 232.5Z" fill="#47535F"/>
</g>
<defs>
<clipPath id="clip0_104_2600">
<rect width="448" height="512" fill="white" transform="translate(0.5 0.5)"/>
</clipPath>
</defs>
</svg>
