<svg width="449" height="513" viewBox="0 0 449 513" fill="none" xmlns="http://www.w3.org/2000/svg">
<g clip-path="url(#clip0_104_2602)">
<path d="M0.5 96.5C0.5 61.2 29.2 32.5 64.5 32.5H384.5C419.8 32.5 448.5 61.2 448.5 96.5V416.5C448.5 451.8 419.8 480.5 384.5 480.5H64.5C29.2 480.5 0.5 451.8 0.5 416.5V96.5ZM76.2 161.1C69.3 163 64.5 169.3 64.5 176.5V336.5C64.5 345.3 71.7 352.5 80.5 352.5C89.3 352.5 96.5 345.3 96.5 336.5V234.3L162.8 344.8C166.5 351 173.9 353.9 180.8 352C187.7 350.1 192.5 343.8 192.5 336.6V176.5C192.5 167.7 185.3 160.5 176.5 160.5C167.7 160.5 160.5 167.7 160.5 176.5V278.7L94.2 168.3C90.5 162.1 83.1 159.2 76.2 161.1ZM224.5 176.5V240.5V336.5C224.5 345.3 231.7 352.5 240.5 352.5C249.3 352.5 256.5 345.3 256.5 336.5V256.5H304.5C313.3 256.5 320.5 249.3 320.5 240.5C320.5 231.7 313.3 224.5 304.5 224.5H256.5V192.5H304.5C313.3 192.5 320.5 185.3 320.5 176.5C320.5 167.7 313.3 160.5 304.5 160.5H240.5C231.7 160.5 224.5 167.7 224.5 176.5ZM384.5 176.5C384.5 167.7 377.3 160.5 368.5 160.5C359.7 160.5 352.5 167.7 352.5 176.5V336.5C352.5 345.3 359.7 352.5 368.5 352.5C377.3 352.5 384.5 345.3 384.5 336.5V176.5Z" fill="#47535F"/>
</g>
<defs>
<clipPath id="clip0_104_2602">
<rect width="448" height="512" fill="white" transform="translate(0.5 0.5)"/>
</clipPath>
</defs>
</svg>
