<svg width="449" height="513" viewBox="0 0 449 513" fill="none" xmlns="http://www.w3.org/2000/svg">
<g clip-path="url(#clip0_104_2614)">
<path d="M64.5 32.5C29.2 32.5 0.5 61.2 0.5 96.5V416.5C0.5 451.8 29.2 480.5 64.5 480.5H384.5C419.8 480.5 448.5 451.8 448.5 416.5V96.5C448.5 61.2 419.8 32.5 384.5 32.5H64.5ZM200.5 344.5V280.5H136.5C123.2 280.5 112.5 269.8 112.5 256.5C112.5 243.2 123.2 232.5 136.5 232.5H200.5V168.5C200.5 155.2 211.2 144.5 224.5 144.5C237.8 144.5 248.5 155.2 248.5 168.5V232.5H312.5C325.8 232.5 336.5 243.2 336.5 256.5C336.5 269.8 325.8 280.5 312.5 280.5H248.5V344.5C248.5 357.8 237.8 368.5 224.5 368.5C211.2 368.5 200.5 357.8 200.5 344.5Z" fill="#47535F"/>
</g>
<defs>
<clipPath id="clip0_104_2614">
<rect width="448" height="512" fill="white" transform="translate(0.5 0.5)"/>
</clipPath>
</defs>
</svg>
