<svg width="449" height="513" viewBox="0 0 449 513" fill="none" xmlns="http://www.w3.org/2000/svg">
<g clip-path="url(#clip0_104_2608)">
<path d="M64.5 32.5C29.2 32.5 0.5 61.2 0.5 96.5V416.5C0.5 451.8 29.2 480.5 64.5 480.5H384.5C419.8 480.5 448.5 451.8 448.5 416.5V96.5C448.5 61.2 419.8 32.5 384.5 32.5H64.5ZM160.5 144.5C160.5 131.77 165.557 119.561 174.559 110.559C183.561 101.557 195.77 96.5 208.5 96.5C221.23 96.5 233.439 101.557 242.441 110.559C251.443 119.561 256.5 131.77 256.5 144.5C256.5 157.23 251.443 169.439 242.441 178.441C233.439 187.443 221.23 192.5 208.5 192.5C195.77 192.5 183.561 187.443 174.559 178.441C165.557 169.439 160.5 157.23 160.5 144.5ZM240.5 248.5C240.5 217.6 265.6 192.5 296.5 192.5C327.4 192.5 352.5 217.6 352.5 248.5V350.6C352.5 387 323 416.5 286.6 416.5C269.1 416.5 252.3 409.6 240 397.2L185.3 342.5L157.2 398.8C149.3 414.6 130.1 421 114.3 413.1C98.5 405.2 92.1 386 100 370.2L148 274.2C152.6 265 161.3 258.6 171.5 256.9C181.7 255.2 192 258.6 199.3 265.9L240.5 307.2V248.5Z" fill="#47535F"/>
</g>
<defs>
<clipPath id="clip0_104_2608">
<rect width="448" height="512" fill="white" transform="translate(0.5 0.5)"/>
</clipPath>
</defs>
</svg>
