<svg width="449" height="513" viewBox="0 0 449 513" fill="none" xmlns="http://www.w3.org/2000/svg">
<g clip-path="url(#clip0_104_2584)">
<path d="M384.5 480.5C419.8 480.5 448.5 451.8 448.5 416.5V96.5C448.5 61.2 419.8 32.5 384.5 32.5H64.5C29.2 32.5 0.5 61.2 0.5 96.5V416.5C0.5 451.8 29.2 480.5 64.5 480.5H384.5ZM224.5 352.5C217.8 352.5 211.5 349.7 206.9 344.8L102.9 232.8C96.4 225.8 94.7 215.6 98.5 206.9C102.3 198.2 111 192.5 120.5 192.5H328.5C338 192.5 346.7 198.2 350.5 206.9C354.3 215.6 352.6 225.8 346.1 232.8L242.1 344.8C237.6 349.7 231.2 352.5 224.5 352.5Z" fill="#47535F"/>
</g>
<defs>
<clipPath id="clip0_104_2584">
<rect width="448" height="512" fill="white" transform="translate(0.5 0.5)"/>
</clipPath>
</defs>
</svg>
