<svg width="449" height="513" viewBox="0 0 449 513" fill="none" xmlns="http://www.w3.org/2000/svg">
<g clip-path="url(#clip0_104_2618)">
<path d="M64.5 32.5C29.2 32.5 0.5 61.2 0.5 96.5V416.5C0.5 451.8 29.2 480.5 64.5 480.5H384.5C419.8 480.5 448.5 451.8 448.5 416.5V96.5C448.5 61.2 419.8 32.5 384.5 32.5H64.5ZM128.5 224.5C146.2 224.5 160.5 238.8 160.5 256.5V352.5C160.5 370.2 146.2 384.5 128.5 384.5C110.8 384.5 96.5 370.2 96.5 352.5V256.5C96.5 238.8 110.8 224.5 128.5 224.5ZM192.5 160.5C192.5 142.8 206.8 128.5 224.5 128.5C242.2 128.5 256.5 142.8 256.5 160.5V352.5C256.5 370.2 242.2 384.5 224.5 384.5C206.8 384.5 192.5 370.2 192.5 352.5V160.5ZM320.5 288.5C338.2 288.5 352.5 302.8 352.5 320.5V352.5C352.5 370.2 338.2 384.5 320.5 384.5C302.8 384.5 288.5 370.2 288.5 352.5V320.5C288.5 302.8 302.8 288.5 320.5 288.5Z" fill="#47535F"/>
</g>
<defs>
<clipPath id="clip0_104_2618">
<rect width="448" height="512" fill="white" transform="translate(0.5 0.5)"/>
</clipPath>
</defs>
</svg>
