<svg width="449" height="513" viewBox="0 0 449 513" fill="none" xmlns="http://www.w3.org/2000/svg">
<g clip-path="url(#clip0_104_2592)">
<path d="M64.5 32.5C29.2 32.5 0.5 61.2 0.5 96.5V416.5C0.5 451.8 29.2 480.5 64.5 480.5H384.5C419.8 480.5 448.5 451.8 448.5 416.5V96.5C448.5 61.2 419.8 32.5 384.5 32.5H64.5ZM337.5 209.5L209.5 337.5C200.1 346.9 184.9 346.9 175.6 337.5L111.6 273.5C102.2 264.1 102.2 248.9 111.6 239.6C121 230.3 136.2 230.2 145.5 239.6L192.5 286.6L303.5 175.5C312.9 166.1 328.1 166.1 337.4 175.5C346.7 184.9 346.8 200.1 337.4 209.4L337.5 209.5Z" fill="#47535F"/>
</g>
<defs>
<clipPath id="clip0_104_2592">
<rect width="448" height="512" fill="white" transform="translate(0.5 0.5)"/>
</clipPath>
</defs>
</svg>
