<svg width="449" height="513" viewBox="0 0 449 513" fill="none" xmlns="http://www.w3.org/2000/svg">
<g clip-path="url(#clip0_104_2586)">
<path d="M0.5 416.5C0.5 451.8 29.2 480.5 64.5 480.5H384.5C419.8 480.5 448.5 451.8 448.5 416.5V96.5C448.5 61.2 419.8 32.5 384.5 32.5H64.5C29.2 32.5 0.5 61.2 0.5 96.5V416.5ZM128.5 256.5C128.5 249.8 131.3 243.5 136.2 238.9L248.2 134.9C255.2 128.4 265.4 126.7 274.1 130.5C282.8 134.3 288.5 143 288.5 152.5V360.5C288.5 370 282.8 378.7 274.1 382.5C265.4 386.3 255.2 384.6 248.2 378.1L136.2 274.1C131.3 269.6 128.5 263.2 128.5 256.5Z" fill="#47535F"/>
</g>
<defs>
<clipPath id="clip0_104_2586">
<rect width="448" height="512" fill="white" transform="translate(0.5 0.5)"/>
</clipPath>
</defs>
</svg>
