<svg width="449" height="513" viewBox="0 0 449 513" fill="none" xmlns="http://www.w3.org/2000/svg">
<g clip-path="url(#clip0_104_2604)">
<path d="M64.5 32.5C29.2 32.5 0.5 61.2 0.5 96.5V416.5C0.5 451.8 29.2 480.5 64.5 480.5H384.5C419.8 480.5 448.5 451.8 448.5 416.5V96.5C448.5 61.2 419.8 32.5 384.5 32.5H64.5ZM192.5 256.5H240.5C258.2 256.5 272.5 242.2 272.5 224.5C272.5 206.8 258.2 192.5 240.5 192.5H192.5V256.5ZM240.5 320.5H192.5V352.5C192.5 370.2 178.2 384.5 160.5 384.5C142.8 384.5 128.5 370.2 128.5 352.5V288.5V168.5C128.5 146.4 146.4 128.5 168.5 128.5H240.5C293.5 128.5 336.5 171.5 336.5 224.5C336.5 277.5 293.5 320.5 240.5 320.5Z" fill="#47535F"/>
</g>
<defs>
<clipPath id="clip0_104_2604">
<rect width="448" height="512" fill="white" transform="translate(0.5 0.5)"/>
</clipPath>
</defs>
</svg>
