<svg width="449" height="513" viewBox="0 0 449 513" fill="none" xmlns="http://www.w3.org/2000/svg">
<g clip-path="url(#clip0_104_2628)">
<path d="M64.5 32.5C29.2 32.5 0.5 61.2 0.5 96.5V416.5C0.5 451.8 29.2 480.5 64.5 480.5H384.5C419.8 480.5 448.5 451.8 448.5 416.5V96.5C448.5 61.2 419.8 32.5 384.5 32.5H64.5ZM224.3 94.2C237.6 94.2 248.3 104.9 248.3 118.2C248.3 147.5 283.7 162.1 304.4 141.4C313.8 132 329 132 338.3 141.4C347.6 150.8 347.7 166 338.3 175.3C317.6 196 332.3 231.4 361.5 231.4C374.8 231.4 385.5 242.1 385.5 255.4C385.5 268.7 374.8 279.4 361.5 279.4C332.2 279.4 317.6 314.8 338.3 335.5C347.7 344.9 347.7 360.1 338.3 369.4C328.9 378.7 313.7 378.8 304.4 369.4C283.7 348.7 248.3 363.4 248.3 392.6C248.3 405.9 237.6 416.6 224.3 416.6C211 416.6 200.3 405.9 200.3 392.6C200.3 363.3 164.9 348.7 144.2 369.4C134.8 378.8 119.6 378.8 110.3 369.4C101 360 100.9 344.8 110.3 335.5C131 314.8 116.3 279.4 87.1 279.4C73.8 279.4 63.1 268.7 63.1 255.4C63.1 242.1 73.8 231.4 87.1 231.4C116.4 231.4 131 196 110.3 175.3C100.9 165.9 100.9 150.7 110.3 141.4C119.7 132.1 134.9 132 144.2 141.4C164.9 162.1 200.3 147.4 200.3 118.2C200.3 104.9 211 94.2 224.3 94.2ZM192.5 256.5C200.987 256.5 209.126 253.129 215.127 247.127C221.129 241.126 224.5 232.987 224.5 224.5C224.5 216.013 221.129 207.874 215.127 201.873C209.126 195.871 200.987 192.5 192.5 192.5C184.013 192.5 175.874 195.871 169.873 201.873C163.871 207.874 160.5 216.013 160.5 224.5C160.5 232.987 163.871 241.126 169.873 247.127C175.874 253.129 184.013 256.5 192.5 256.5ZM280.5 288.5C280.5 282.135 277.971 276.03 273.471 271.529C268.97 267.029 262.865 264.5 256.5 264.5C250.135 264.5 244.03 267.029 239.529 271.529C235.029 276.03 232.5 282.135 232.5 288.5C232.5 294.865 235.029 300.97 239.529 305.471C244.03 309.971 250.135 312.5 256.5 312.5C262.865 312.5 268.97 309.971 273.471 305.471C277.971 300.97 280.5 294.865 280.5 288.5Z" fill="#47535F"/>
</g>
<defs>
<clipPath id="clip0_104_2628">
<rect width="448" height="512" fill="white" transform="translate(0.5 0.5)"/>
</clipPath>
</defs>
</svg>
