<svg width="449" height="513" viewBox="0 0 449 513" fill="none" xmlns="http://www.w3.org/2000/svg">
<g clip-path="url(#clip0_104_2588)">
<path d="M448.5 96.5C448.5 61.2 419.8 32.5 384.5 32.5H64.5C29.2 32.5 0.5 61.2 0.5 96.5V416.5C0.5 451.8 29.2 480.5 64.5 480.5H384.5C419.8 480.5 448.5 451.8 448.5 416.5V96.5ZM320.5 256.5C320.5 263.2 317.7 269.5 312.8 274.1L200.8 378.1C193.8 384.6 183.6 386.3 174.9 382.5C166.2 378.7 160.5 370 160.5 360.5V152.5C160.5 143 166.2 134.3 174.9 130.5C183.6 126.7 193.8 128.4 200.8 134.9L312.8 238.9C317.7 243.4 320.5 249.8 320.5 256.5Z" fill="#47535F"/>
</g>
<defs>
<clipPath id="clip0_104_2588">
<rect width="448" height="512" fill="white" transform="translate(0.5 0.5)"/>
</clipPath>
</defs>
</svg>
