<svg width="449" height="513" viewBox="0 0 449 513" fill="none" xmlns="http://www.w3.org/2000/svg">
<g clip-path="url(#clip0_104_2610)">
<path d="M64.5 32.5C29.2 32.5 0.5 61.2 0.5 96.5V416.5C0.5 451.8 29.2 480.5 64.5 480.5H384.5C419.8 480.5 448.5 451.8 448.5 416.5V96.5C448.5 61.2 419.8 32.5 384.5 32.5H64.5ZM155.2 129.2C164.9 126.6 175.1 131.5 178.9 140.8L198.9 188.8C202.3 197 199.9 206.4 193.1 212L168.5 232.2C185.1 267.4 213.6 295.9 248.8 312.5L269 287.8C274.6 281 284 278.6 292.2 282L340.2 302C349.5 305.9 354.4 316 351.8 325.7L339.8 369.7C337.4 378.5 329.5 384.5 320.5 384.5C196.8 384.5 96.5 284.2 96.5 160.5C96.5 151.5 102.5 143.6 111.2 141.2L155.2 129.2Z" fill="#47535F"/>
</g>
<defs>
<clipPath id="clip0_104_2610">
<rect width="448" height="512" fill="white" transform="translate(0.5 0.5)"/>
</clipPath>
</defs>
</svg>
