<svg width="449" height="513" viewBox="0 0 449 513" fill="none" xmlns="http://www.w3.org/2000/svg">
<g clip-path="url(#clip0_104_2606)">
<path d="M64.5 32.5C29.2 32.5 0.5 61.2 0.5 96.5V416.5C0.5 451.8 29.2 480.5 64.5 480.5H384.5C419.8 480.5 448.5 451.8 448.5 416.5V96.5C448.5 61.2 419.8 32.5 384.5 32.5H64.5ZM326.3 140.2L340.7 154.6C356.3 170.2 356.3 195.5 340.7 211.2L319.3 232.6L248.3 161.6L269.7 140.2C285.3 124.6 310.6 124.6 326.3 140.2ZM120.4 289.5L225.6 184.3L296.6 255.3L191.4 360.4C187.3 364.5 182.2 367.4 176.5 368.8L116.4 383.8C110.9 385.2 105.2 383.6 101.2 379.6C97.2 375.6 95.6 369.9 97 364.4L112 304.3C113.4 298.7 116.3 293.5 120.4 289.4V289.5Z" fill="#47535F"/>
</g>
<defs>
<clipPath id="clip0_104_2606">
<rect width="448" height="512" fill="white" transform="translate(0.5 0.5)"/>
</clipPath>
</defs>
</svg>
