<svg width="449" height="513" viewBox="0 0 449 513" fill="none" xmlns="http://www.w3.org/2000/svg">
<g clip-path="url(#clip0_104_2612)">
<path d="M384.5 32.5C419.8 32.5 448.5 61.2 448.5 96.5V416.5C448.5 451.8 419.8 480.5 384.5 480.5H64.5C29.2 480.5 0.5 451.8 0.5 416.5V96.5C0.5 61.2 29.2 32.5 64.5 32.5H384.5ZM293.8 129.2C284.1 126.6 273.9 131.5 270.1 140.8L250.1 188.8C246.7 197 249.1 206.4 255.9 212L280.5 232.2C263.9 267.4 235.4 295.9 200.2 312.5L180 287.8C174.4 281 165 278.6 156.8 282L108.8 302C99.5 305.9 94.6 316 97.2 325.7L109.2 369.7C111.6 378.5 119.5 384.5 128.5 384.5C252.2 384.5 352.5 284.2 352.5 160.5C352.5 151.5 346.5 143.6 337.8 141.2L293.8 129.2Z" fill="#47535F"/>
</g>
<defs>
<clipPath id="clip0_104_2612">
<rect width="448" height="512" fill="white" transform="translate(0.5 0.5)"/>
</clipPath>
</defs>
</svg>
