<svg width="577" height="513" viewBox="0 0 577 513" fill="none" xmlns="http://www.w3.org/2000/svg">
<g clip-path="url(#clip0_104_2634)">
<path d="M384.5 64.5C384.5 46.8 398.8 32.5 416.5 32.5H544.5C562.2 32.5 576.5 46.8 576.5 64.5C576.5 82.2 562.2 96.5 544.5 96.5H448.5V192.5C448.5 210.2 434.2 224.5 416.5 224.5H320.5V320.5C320.5 338.2 306.2 352.5 288.5 352.5H192.5V448.5C192.5 466.2 178.2 480.5 160.5 480.5H32.5C14.8 480.5 0.5 466.2 0.5 448.5C0.5 430.8 14.8 416.5 32.5 416.5H128.5V320.5C128.5 302.8 142.8 288.5 160.5 288.5H256.5V192.5C256.5 174.8 270.8 160.5 288.5 160.5H384.5V64.5Z" fill="#47535F"/>
</g>
<defs>
<clipPath id="clip0_104_2634">
<rect width="576" height="512" fill="white" transform="translate(0.5 0.5)"/>
</clipPath>
</defs>
</svg>
