<svg width="513" height="513" viewBox="0 0 513 513" fill="none" xmlns="http://www.w3.org/2000/svg">
<g clip-path="url(#clip0_104_2636)">
<path d="M312.5 202.3C312.5 184.9 321.7 169.1 332.4 155.3C345 139 352.5 118.6 352.5 96.5C352.5 43.5 309.5 0.5 256.5 0.5C203.5 0.5 160.5 43.5 160.5 96.5C160.5 118.6 168 139 180.6 155.3C191.3 169.1 200.5 184.9 200.5 202.3C200.5 232.2 176.2 256.5 146.3 256.5H112.5C50.6 256.5 0.5 306.6 0.5 368.5C0.5 389.4 13.9 407.2 32.5 413.8V464.5C32.5 491 54 512.5 80.5 512.5H432.5C459 512.5 480.5 491 480.5 464.5V413.8C499.1 407.2 512.5 389.4 512.5 368.5C512.5 306.6 462.4 256.5 400.5 256.5H366.7C336.8 256.5 312.5 232.2 312.5 202.3ZM416.5 416.5V448.5H96.5V416.5H416.5Z" fill="#47535F"/>
</g>
<defs>
<clipPath id="clip0_104_2636">
<rect width="512" height="512" fill="white" transform="translate(0.5 0.5)"/>
</clipPath>
</defs>
</svg>
