<svg width="641" height="513" viewBox="0 0 641 513" fill="none" xmlns="http://www.w3.org/2000/svg">
<g clip-path="url(#clip0_104_2638)">
<path d="M640.5 299.8V304.5V432.5C640.5 459 619 480.5 592.5 480.5H512.5H448.5H64.5C46.8 480.5 32.5 466.2 32.5 448.5C32.5 430.8 46.8 416.5 64.5 416.5H448.5V368.5H96.5C78.8 368.5 64.5 354.2 64.5 336.5V219.9L34.3 214.5C14.7 211 0.5 194 0.5 174.2C0.5 165.3 3.4 156.7 8.7 149.6L44.3 102.1C77.2 58.3 128.7 32.5 183.4 32.5C210.4 32.5 237 38.8 261.2 50.9L587.4 214C620 230.2 640.5 263.5 640.5 299.8ZM448.5 304.5V288.5L128.5 231.4V304.5H448.5Z" fill="#47535F"/>
</g>
<defs>
<clipPath id="clip0_104_2638">
<rect width="640" height="512" fill="white" transform="translate(0.5 0.5)"/>
</clipPath>
</defs>
</svg>
