<svg width="513" height="513" viewBox="0 0 513 513" fill="none" xmlns="http://www.w3.org/2000/svg">
<g clip-path="url(#clip0_104_2648)">
<path d="M404.7 310L383.6 344.5H425.9L404.8 310H404.7ZM371.9 256.5L317.9 168.5H195.1L141.1 256.5L195.1 344.5H317.9L371.9 256.5ZM437.6 256.5L491 343.5C494.6 349.4 496.5 356.2 496.5 363.1C496.5 383.8 479.7 400.5 459.1 400.5H349.2L293 492C285.3 504.8 271.4 512.5 256.5 512.5C241.6 512.5 227.7 504.8 219.9 492L163.8 400.5H53.9C33.3 400.5 16.5 383.7 16.5 363.1C16.5 356.2 18.4 349.4 22 343.5L75.4 256.5L22 169.5C18.4 163.6 16.5 156.8 16.5 149.9C16.5 129.3 33.3 112.5 53.9 112.5H163.8L220 21C227.7 8.2 241.6 0.5 256.5 0.5C271.4 0.5 285.3 8.2 293.1 21L349.2 112.5H459.1C479.8 112.5 496.5 129.3 496.5 149.9C496.5 156.8 494.6 163.6 491 169.5L437.6 256.5ZM383.6 168.5L404.7 203L425.9 168.5H383.6ZM283.5 112.5L256.5 68.5L229.5 112.5H283.5ZM129.4 168.5H87.1L108.2 203L129.4 168.5ZM108.3 310L87.1 344.5H129.4L108.3 310ZM229.5 400.5L256.5 444.5L283.5 400.5H229.5Z" fill="#47535F"/>
</g>
<defs>
<clipPath id="clip0_104_2648">
<rect width="512" height="512" fill="white" transform="translate(0.5 0.5)"/>
</clipPath>
</defs>
</svg>
