<svg width="513" height="513" viewBox="0 0 513 513" fill="none" xmlns="http://www.w3.org/2000/svg">
<g clip-path="url(#clip0_104_2642)">
<path d="M0.5 256.5C0.5 115.1 115.1 0.5 256.5 0.5C289.5 0.5 321.1 6.8 350.1 18.2C357.5 21.1 361.6 28.9 359.9 36.6C358.2 44.3 351.1 49.6 343.2 49C338.4 48.7 333.5 48.5 328.6 48.5C213.7 48.5 120.6 141.6 120.6 256.5C120.6 371.4 213.7 464.5 328.6 464.5C333.5 464.5 338.4 464.3 343.2 464C351.1 463.5 358.2 468.7 359.9 476.4C361.6 484.1 357.5 491.9 350.1 494.8C321.1 506.2 289.5 512.5 256.5 512.5C115.1 512.5 0.5 397.9 0.5 256.5ZM375.9 137.9C379.4 130.8 389.6 130.8 393.1 137.9L424.6 201.7C426 204.5 428.7 206.5 431.8 207L502.2 217.2C510.1 218.3 513.2 228 507.5 233.6L456.6 283.2C454.3 285.4 453.3 288.6 453.8 291.7L465.8 361.8C467.1 369.6 458.9 375.6 451.9 371.9L388.9 338.8C386.1 337.3 382.8 337.3 380 338.8L317 371.9C310 375.6 301.7 369.6 303.1 361.8L315.1 291.7C315.6 288.6 314.6 285.4 312.3 283.2L261.5 233.6C255.8 228 258.9 218.4 266.8 217.2L337.2 207C340.3 206.5 343 204.6 344.4 201.7L375.9 137.9Z" fill="#47535F"/>
</g>
<defs>
<clipPath id="clip0_104_2642">
<rect width="512" height="512" fill="white" transform="translate(0.5 0.5)"/>
</clipPath>
</defs>
</svg>
