<svg width="577" height="513" viewBox="0 0 577 513" fill="none" xmlns="http://www.w3.org/2000/svg">
<g clip-path="url(#clip0_104_2640)">
<path d="M317.4 18.5C312.1 7.5 300.9 0.5 288.6 0.5C276.3 0.5 265.2 7.5 259.8 18.5L195.5 150.8L51.9 172C39.9 173.8 29.9 182.2 26.2 193.7C22.5 205.2 25.5 217.9 34.1 226.4L138.3 329.5L113.7 475.2C111.7 487.2 116.7 499.4 126.6 506.5C136.5 513.6 149.6 514.5 160.4 508.8L288.7 440.3L417 508.8C427.8 514.5 440.9 513.7 450.8 506.5C460.7 499.3 465.7 487.2 463.7 475.2L439 329.5L543.2 226.4C551.8 217.9 554.9 205.2 551.1 193.7C547.3 182.2 537.4 173.8 525.4 172L381.7 150.8L317.4 18.5Z" fill="#47535F"/>
</g>
<defs>
<clipPath id="clip0_104_2640">
<rect width="576" height="512" fill="white" transform="translate(0.5 0.5)"/>
</clipPath>
</defs>
</svg>
