<svg width="513" height="513" viewBox="0 0 513 513" fill="none" xmlns="http://www.w3.org/2000/svg">
<g clip-path="url(#clip0_104_2650)">
<path d="M208.5 32.5C208.5 14.8 222.8 0.5 240.5 0.5H272.5C290.2 0.5 304.5 14.8 304.5 32.5V173.4L426.5 103C441.8 94.2 461.4 99.4 470.2 114.7L486.2 142.4C495 157.7 489.8 177.3 474.5 186.1L352.5 256.5L474.5 326.9C489.8 335.7 495 355.3 486.2 370.6L470.2 398.3C461.4 413.6 441.8 418.9 426.5 410L304.5 339.6V480.5C304.5 498.2 290.2 512.5 272.5 512.5H240.5C222.8 512.5 208.5 498.2 208.5 480.5V339.6L86.5 410.1C71.2 418.9 51.6 413.7 42.8 398.4L26.8 370.7C18 355.4 23.2 335.8 38.5 327L160.5 256.5L38.5 186.1C23.2 177.3 18 157.7 26.8 142.4L42.8 114.7C51.6 99.3 71.2 94.1 86.5 102.9L208.5 173.3V32.5Z" fill="#47535F"/>
</g>
<defs>
<clipPath id="clip0_104_2650">
<rect width="512" height="512" fill="white" transform="translate(0.5 0.5)"/>
</clipPath>
</defs>
</svg>
