<svg width="641" height="513" viewBox="0 0 641 513" fill="none" xmlns="http://www.w3.org/2000/svg">
<g clip-path="url(#clip0_104_2646)">
<path d="M320.5 376.9L320.6 376.8L347 390.9L432.2 436.4L415.7 338.8L410.9 310.1L431.6 289.6L501.7 220.3L405.6 206.1L376.3 201.8L363.4 175.2L320.6 87.4L320.5 87.7V376.9ZM495.6 475.2C497.6 487.2 492.6 499.4 482.7 506.5C472.8 513.6 459.7 514.5 448.9 508.8L320.6 440.3L192.3 508.8C181.5 514.5 168.4 513.6 158.5 506.5C148.6 499.4 143.6 487.2 145.6 475.2L170.3 329.5L66.1 226.4C57.5 217.9 54.4 205.2 58.2 193.7C62 182.2 71.9 173.8 83.9 172L227.5 150.8L291.9 18.5C297.3 7.5 308.4 0.5 320.7 0.5C333 0.5 344.1 7.5 349.5 18.5L413.8 150.8L557.4 172C569.4 173.8 579.4 182.2 583.1 193.7C586.8 205.2 583.8 217.9 575.2 226.4L471 329.5L495.6 475.2Z" fill="#47535F"/>
</g>
<defs>
<clipPath id="clip0_104_2646">
<rect width="640" height="512" fill="white" transform="translate(0.5 0.5)"/>
</clipPath>
</defs>
</svg>
