<svg width="321" height="513" viewBox="0 0 321 513" fill="none" xmlns="http://www.w3.org/2000/svg">
<g clip-path="url(#clip0_104_2652)">
<path d="M112.5 160.9C112.5 125.4 141.3 96.5 176.9 96.5C183.8 96.5 190.7 97.6 197.3 99.8L278.5 126.9C295.3 132.5 313.4 123.4 319 106.7C324.6 90 315.5 71.8 298.8 66.2L217.5 39.1C204.4 34.7 190.7 32.5 176.9 32.5C106 32.5 48.5 90 48.5 160.9V224.5H32.5C14.8 224.5 0.5 238.8 0.5 256.5C0.5 274.2 14.8 288.5 32.5 288.5H48.5V333C48.5 350.4 43.8 367.5 34.8 382.4L5.1 432C-0.8 441.9 -1 454.2 4.7 464.2C10.4 474.2 21 480.5 32.5 480.5H288.5C306.2 480.5 320.5 466.2 320.5 448.5C320.5 430.8 306.2 416.5 288.5 416.5H89L89.7 415.4C104.6 390.5 112.5 362 112.5 333V288.5H224.5C242.2 288.5 256.5 274.2 256.5 256.5C256.5 238.8 242.2 224.5 224.5 224.5H112.5V160.9Z" fill="#47535F"/>
</g>
<defs>
<clipPath id="clip0_104_2652">
<rect width="320" height="512" fill="white" transform="translate(0.5 0.5)"/>
</clipPath>
</defs>
</svg>
