<svg width="577" height="513" viewBox="0 0 577 513" fill="none" xmlns="http://www.w3.org/2000/svg">
<g clip-path="url(#clip0_104_2654)">
<path d="M142.9 22.4001C148.5 39.2001 139.4 57.3001 122.7 62.9001L96.5 71.6001V192.5C96.5 245.5 139.5 288.5 192.5 288.5C245.5 288.5 288.5 245.5 288.5 192.5V71.6001L262.4 62.9001C245.6 57.3001 236.6 39.2001 242.2 22.4001C247.8 5.60006 265.9 -3.39994 282.7 2.20006L308.8 10.9001C334.9 19.6001 352.5 44.0001 352.5 71.6001V192.5C352.5 269.7 297.9 334.1 225.2 349.2C231.5 405.1 278.9 448.5 336.5 448.5C398.4 448.5 448.5 398.4 448.5 336.5V265.8C420.2 253.5 400.5 225.3 400.5 192.5C400.5 148.3 436.3 112.5 480.5 112.5C524.7 112.5 560.5 148.3 560.5 192.5C560.5 225.3 540.8 253.5 512.5 265.8V336.5C512.5 433.7 433.7 512.5 336.5 512.5C243.6 512.5 167.6 440.6 161 349.4C87.7 334.7 32.5 270.1 32.5 192.5V71.6001C32.5 44.1001 50.1 19.6001 76.3 10.9001L102.4 2.20006C119.2 -3.39994 137.3 5.70005 142.9 22.4001ZM480.5 224.5C488.987 224.5 497.126 221.129 503.127 215.127C509.129 209.126 512.5 200.987 512.5 192.5C512.5 184.013 509.129 175.874 503.127 169.873C497.126 163.871 488.987 160.5 480.5 160.5C472.013 160.5 463.874 163.871 457.873 169.873C451.871 175.874 448.5 184.013 448.5 192.5C448.5 200.987 451.871 209.126 457.873 215.127C463.874 221.129 472.013 224.5 480.5 224.5Z" fill="#47535F"/>
</g>
<defs>
<clipPath id="clip0_104_2654">
<rect width="576" height="512" fill="white" transform="translate(0.5 0.5)"/>
</clipPath>
</defs>
</svg>
