<svg width="449" height="513" viewBox="0 0 449 513" fill="none" xmlns="http://www.w3.org/2000/svg">
<g clip-path="url(#clip0_104_2658)">
<path d="M176.5 0.5C158.8 0.5 144.5 14.8 144.5 32.5C144.5 50.2 158.8 64.5 176.5 64.5H192.5V98.9C92.8 114.3 16.5 200.5 16.5 304.5C16.5 419.4 109.6 512.5 224.5 512.5C339.4 512.5 432.5 419.4 432.5 304.5C432.5 262.7 420.2 223.8 399 191.3L423.1 167.2C435.6 154.7 435.6 134.4 423.1 121.9C410.6 109.4 390.3 109.4 377.8 121.9L356.2 143.5C328.1 120.5 294 104.7 256.5 98.9V64.5H272.5C290.2 64.5 304.5 50.2 304.5 32.5C304.5 14.8 290.2 0.5 272.5 0.5H224.5H176.5ZM248.5 192.5V320.5C248.5 333.8 237.8 344.5 224.5 344.5C211.2 344.5 200.5 333.8 200.5 320.5V192.5C200.5 179.2 211.2 168.5 224.5 168.5C237.8 168.5 248.5 179.2 248.5 192.5Z" fill="#47535F"/>
</g>
<defs>
<clipPath id="clip0_104_2658">
<rect width="448" height="512" fill="white" transform="translate(0.5 0.5)"/>
</clipPath>
</defs>
</svg>
