<svg width="449" height="513" viewBox="0 0 449 513" fill="none" xmlns="http://www.w3.org/2000/svg">
<g clip-path="url(#clip0_104_2660)">
<path d="M176.5 0.5C158.8 0.5 144.5 14.8 144.5 32.5C144.5 50.2 158.8 64.5 176.5 64.5H192.5V98.9C92.8 114.3 16.5 200.5 16.5 304.5C16.5 419.4 109.6 512.5 224.5 512.5C339.4 512.5 432.5 419.4 432.5 304.5C432.5 262.7 420.2 223.8 399 191.3L423.1 167.2C435.6 154.7 435.6 134.4 423.1 121.9C410.6 109.4 390.3 109.4 377.8 121.9L356.2 143.5C328.1 120.5 294 104.7 256.5 98.9V64.5H272.5C290.2 64.5 304.5 50.2 304.5 32.5C304.5 14.8 290.2 0.5 272.5 0.5H176.5ZM288.5 204.5C317.2 204.5 340.5 227.8 340.5 256.5V352.5C340.5 381.2 317.2 404.5 288.5 404.5C259.8 404.5 236.5 381.2 236.5 352.5V256.5C236.5 227.8 259.8 204.5 288.5 204.5ZM276.5 256.5V352.5C276.5 359.1 281.9 364.5 288.5 364.5C295.1 364.5 300.5 359.1 300.5 352.5V256.5C300.5 249.9 295.1 244.5 288.5 244.5C281.9 244.5 276.5 249.9 276.5 256.5ZM160 244.5C154.6 244.5 149.8 248 148.1 253.1L147.5 254.8C144 265.3 132.7 270.9 122.2 267.4C111.7 263.9 106.1 252.6 109.6 242.1L110.2 240.4C117.4 218.9 137.4 204.5 160 204.5C189 204.5 212.5 228 212.5 257V259.2C212.5 272.6 207.6 285.6 198.7 295.6L159.7 339.5C153.5 346.5 149.7 355.2 148.8 364.4H192.5C203.5 364.4 212.5 373.4 212.5 384.4C212.5 395.4 203.5 404.4 192.5 404.4H128.5C117.5 404.4 108.5 395.4 108.5 384.4V368.8C108.5 348.2 116 328.4 129.7 313L168.7 269.1C171.1 266.4 172.4 262.9 172.4 259.3V257.1C172.4 250.2 166.8 244.6 159.9 244.6L160 244.5Z" fill="#47535F"/>
</g>
<defs>
<clipPath id="clip0_104_2660">
<rect width="448" height="512" fill="white" transform="translate(0.5 0.5)"/>
</clipPath>
</defs>
</svg>
