<svg width="641" height="513" viewBox="0 0 641 513" fill="none" xmlns="http://www.w3.org/2000/svg">
<g clip-path="url(#clip0_104_2664)">
<path d="M39.2998 5.59976C28.8998 -2.60024 13.7998 -0.700238 5.59976 9.69976C-2.60024 20.0998 -0.700238 35.1998 9.69976 43.3998L601.7 507.4C612.1 515.6 627.2 513.7 635.4 503.3C643.6 492.9 641.7 477.8 631.3 469.6L544.5 401.6V384.5V253.1C540.5 254.1 536.5 254.9 532.2 255.4H532.1C526.8 256.1 521.4 256.5 515.9 256.5C503.5 256.5 491.6 254.6 480.5 251.2V351.4L301.7 211.2C308.7 206.8 315 201.5 320.5 195.5C336.4 213.1 359.6 224.5 385.7 224.5C411.9 224.5 435 213.1 450.9 195.5C466.9 213.1 490 224.5 516.1 224.5C520.2 224.5 524.2 224.2 528.2 223.7C583.7 216.3 610 151.2 580.3 104.3L522.8 13.5998C517.7 5.49976 508.6 0.499762 498.9 0.499762H142.1C132.4 0.499762 123.3 5.49976 118.2 13.5998L95.4998 49.5998L39.2998 5.59976ZM112.7 223.7C116.7 224.2 120.8 224.5 124.8 224.5C135.8 224.5 146.2 222.5 155.8 218.9L49.3998 135C43.2998 175.6 68.8998 217.8 112.7 223.7ZM160.5 384.5V251.1C149.3 254.6 137.3 256.5 124.9 256.5C119.4 256.5 113.9 256.1 108.6 255.4H108.5C104.4 254.8 100.4 254.1 96.4998 253.1V384.5V448.5C96.4998 483.8 125.2 512.5 160.5 512.5H480.5C493.4 512.5 505.3 508.7 515.4 502.2L366 384.5H160.5Z" fill="#47535F"/>
</g>
<defs>
<clipPath id="clip0_104_2664">
<rect width="640" height="512" fill="white" transform="translate(0.5 0.5)"/>
</clipPath>
</defs>
</svg>
