<svg width="577" height="513" viewBox="0 0 577 513" fill="none" xmlns="http://www.w3.org/2000/svg">
<g clip-path="url(#clip0_104_2662)">
<path d="M548.1 104.3L490.8 13.6C485.7 5.5 476.6 0.5 466.9 0.5H110.1C100.4 0.5 91.3002 5.5 86.2002 13.6L28.8002 104.3C-0.79977 151.1 25.4002 216.2 80.7002 223.7C84.7002 224.2 88.8002 224.5 92.8002 224.5C118.9 224.5 142.1 213.1 158 195.5C173.9 213.1 197.1 224.5 223.2 224.5C249.3 224.5 272.5 213.1 288.4 195.5C304.3 213.1 327.5 224.5 353.6 224.5C379.8 224.5 402.9 213.1 418.8 195.5C434.8 213.1 457.9 224.5 484 224.5C488.1 224.5 492.1 224.2 496.1 223.7C551.6 216.3 577.9 151.2 548.2 104.3H548.1ZM500.2 255.4H500.1C494.8 256.1 489.4 256.5 483.9 256.5C471.5 256.5 459.6 254.6 448.5 251.2V384.5H128.5V251.1C117.3 254.6 105.3 256.5 92.9002 256.5C87.4002 256.5 81.9002 256.1 76.6002 255.4H76.5002C72.4002 254.8 68.4002 254.1 64.5002 253.1V384.5V448.5C64.5002 483.8 93.2002 512.5 128.5 512.5H448.5C483.8 512.5 512.5 483.8 512.5 448.5V384.5V253.1C508.5 254.1 504.5 254.9 500.2 255.4Z" fill="#47535F"/>
</g>
<defs>
<clipPath id="clip0_104_2662">
<rect width="576" height="512" fill="white" transform="translate(0.5 0.5)"/>
</clipPath>
</defs>
</svg>
