<svg width="513" height="513" viewBox="0 0 513 513" fill="none" xmlns="http://www.w3.org/2000/svg">
<g clip-path="url(#clip0_104_2666)">
<path d="M320.5 64.5C320.5 47.5261 313.757 31.2475 301.755 19.2452C289.752 7.24284 273.474 0.5 256.5 0.5C239.526 0.5 223.247 7.24284 211.245 19.2452C199.243 31.2475 192.5 47.5261 192.5 64.5C192.5 81.4739 199.243 97.7525 211.245 109.755C223.247 121.757 239.526 128.5 256.5 128.5C273.474 128.5 289.752 121.757 301.755 109.755C313.757 97.7525 320.5 81.4739 320.5 64.5ZM224.5 160.5C189.2 160.5 160.5 189.2 160.5 224.5V272.5C160.5 290.2 174.8 304.5 192.5 304.5H194.3L205.4 404C207.2 420.2 220.9 432.5 237.2 432.5H275.9C292.2 432.5 305.9 420.2 307.7 404L318.7 304.5H320.5C338.2 304.5 352.5 290.2 352.5 272.5V224.5C352.5 189.2 323.8 160.5 288.5 160.5H224.5ZM132.8 394.7C145.8 392.3 154.5 379.8 152.1 366.8C149.7 353.8 137.2 345.1 124.2 347.5C91.8 353.4 63.3 361.7 42.2 372.3C31.7 377.6 21.9 384 14.4 391.9C6.9 400 0.5 411 0.5 424.5C0.5 445.9 16 460.6 29.6 469.5C44.3 479.1 63.9 486.8 86 492.9C130.7 505.2 190.9 512.5 256.5 512.5C322.1 512.5 382.3 505.2 426.9 492.9C449 486.8 468.7 479.1 483.3 469.5C497 460.6 512.4 445.9 512.4 424.5C512.4 411 506 400 498.4 391.9C490.9 384 481.1 377.6 470.6 372.3C449.6 361.7 421.1 353.4 388.6 347.5C375.6 345.1 363.1 353.8 360.7 366.8C358.3 379.8 367 392.3 380 394.7C410.2 400.2 433.7 407.5 449 415.2C452.2 416.8 454.8 418.3 456.9 419.7C460.5 422.1 460.5 426.9 456.9 429.3C448.1 435 433.8 441.1 413.9 446.6C374.8 457.5 319 464.5 256.5 464.5C194 464.5 138.2 457.5 98.8 446.6C78.9 441.1 64.6 435 55.8 429.3C52.2 426.9 52.2 422.1 55.8 419.7C57.9 418.3 60.6 416.8 63.7 415.2C79 407.5 102.5 400.3 132.7 394.7H132.8Z" fill="#47535F"/>
</g>
<defs>
<clipPath id="clip0_104_2666">
<rect width="512" height="512" fill="white" transform="translate(0.5 0.5)"/>
</clipPath>
</defs>
</svg>
