<svg width="513" height="513" viewBox="0 0 513 513" fill="none" xmlns="http://www.w3.org/2000/svg">
<g clip-path="url(#clip0_104_2668)">
<path d="M161.8 144.5C165 127.3 175.8 114.4 195.5 105.9C216.6 96.8998 247.3 93.5998 284.1 99.3998C296 101.3 332.9 108.5 344.2 111.4C361.3 115.9 378.8 105.8 383.4 88.6998C388 71.5998 377.8 54.0998 360.7 49.4998C346.4 45.6998 307.1 38.0998 294.1 36.0998C249.4 29.0998 205.8 31.8998 170.4 46.9998C133.9 62.5998 106 91.7998 98.6 134.3C98.5 134.9 98.4 135.4 98.4 136C95.6 159.9 98.9 181.6 108.5 200.6C113 209.6 118.7 217.5 125.2 224.5H32.5C14.8 224.5 0.5 238.8 0.5 256.5C0.5 274.2 14.8 288.5 32.5 288.5H480.5C498.2 288.5 512.5 274.2 512.5 256.5C512.5 238.8 498.2 224.5 480.5 224.5H270.6C270.5 224.5 270.3 224.4 270.2 224.4L269.1 224.1C233.1 213.3 203.9 204.5 183.9 191C174.6 184.7 168.9 178.4 165.7 171.9C162.6 165.8 160.5 157.3 161.9 144.5H161.8ZM349.4 337.7C352.1 344.2 353.8 353.5 351.3 367.8C348.3 385.4 337.5 398.6 317.4 407.2C296.3 416.2 265.7 419.5 228.9 413.7C210.9 410.8 179.8 400.2 154.5 391.6C148.9 389.7 143.5 387.9 138.6 386.2C121.8 380.6 103.7 389.7 98.1 406.5C92.5 423.3 101.6 441.4 118.4 447C122 448.2 126.3 449.7 131.1 451.3C156 459.8 194.7 473 218.7 476.9H218.9C263.6 483.9 307.2 481.1 342.6 466C379.1 450.4 407 421.2 414.4 378.7C418 357.7 417.1 338.3 411.3 320.6H335.6C342.6 326.2 347 331.8 349.5 337.8L349.4 337.7Z" fill="#47535F"/>
</g>
<defs>
<clipPath id="clip0_104_2668">
<rect width="512" height="512" fill="white" transform="translate(0.5 0.5)"/>
</clipPath>
</defs>
</svg>
