<svg width="513" height="513" viewBox="0 0 513 513" fill="none" xmlns="http://www.w3.org/2000/svg">
<g clip-path="url(#clip0_104_2670)">
<path d="M0.5 256.5C0.5 188.605 27.4714 123.49 75.4807 75.4807C123.49 27.4714 188.605 0.5 256.5 0.5C324.395 0.5 389.51 27.4714 437.519 75.4807C485.529 123.49 512.5 188.605 512.5 256.5C512.5 324.395 485.529 389.51 437.519 437.519C389.51 485.529 324.395 512.5 256.5 512.5C188.605 512.5 123.49 485.529 75.4807 437.519C27.4714 389.51 0.5 324.395 0.5 256.5ZM313.1 64.2C306.9 58 296.7 58 290.5 64.2L256.5 98.1L222.6 64.2C216.4 58 206.2 58 200 64.2C193.8 70.4 193.8 80.6 200 86.8L233.9 120.7L188.6 166L132 109.4C125.8 103.2 115.6 103.2 109.4 109.4C103.2 115.6 103.2 125.8 109.4 132L166 188.6L120.7 233.9L86.8 199.9C80.6 193.7 70.4 193.7 64.2 199.9C58 206.1 58 216.3 64.2 222.5L98.1 256.5L64.2 290.4C58 296.6 58 306.8 64.2 313C70.4 319.2 80.6 319.2 86.8 313L120.7 279.1L166 324.4L109.4 381C103.2 387.2 103.2 397.4 109.4 403.6C115.6 409.8 125.8 409.8 132 403.6L188.6 347L233.9 392.3L200 426.2C193.8 432.4 193.8 442.6 200 448.8C206.2 455 216.4 455 222.6 448.8L256.5 414.9L290.4 448.8C296.6 455 306.8 455 313 448.8C319.2 442.6 319.2 432.4 313 426.2L279.1 392.3L324.4 347L381 403.6C387.2 409.8 397.4 409.8 403.6 403.6C409.8 397.4 409.8 387.2 403.6 381L347 324.4L392.3 279.1L426.2 313C432.4 319.2 442.6 319.2 448.8 313C455 306.8 455 296.6 448.8 290.4L414.9 256.5L448.8 222.6C455 216.4 455 206.2 448.8 200C442.6 193.8 432.4 193.8 426.2 200L392.3 233.9L347 188.6L403.6 132C409.8 125.8 409.8 115.6 403.6 109.4C397.4 103.2 387.2 103.2 381 109.4L324.4 166L279.1 120.7L313 86.8C319.2 80.6 319.2 70.4 313 64.2H313.1ZM143.4 256.5L188.7 211.2L233.9 256.5L188.6 301.8L143.4 256.5ZM211.3 324.4L256.5 279.1L301.8 324.4L256.5 369.6L211.2 324.3L211.3 324.4ZM279.1 256.5L324.4 211.2L369.6 256.5L324.3 301.8L279.1 256.5ZM301.7 188.6L256.5 233.9L211.2 188.6L256.5 143.4L301.8 188.7L301.7 188.6Z" fill="#47535F"/>
</g>
<defs>
<clipPath id="clip0_104_2670">
<rect width="512" height="512" fill="white" transform="translate(0.5 0.5)"/>
</clipPath>
</defs>
</svg>
