<svg width="513" height="513" viewBox="0 0 513 513" fill="none" xmlns="http://www.w3.org/2000/svg">
<g clip-path="url(#clip0_104_2674)">
<path d="M176.5 56.5V96.5H336.5V56.5C336.5 52.1 332.9 48.5 328.5 48.5H184.5C180.1 48.5 176.5 52.1 176.5 56.5ZM128.5 96.5V56.5C128.5 25.6 153.6 0.5 184.5 0.5H328.5C359.4 0.5 384.5 25.6 384.5 56.5V96.5V128.5V480.5H128.5V128.5V96.5ZM64.5 96.5H96.5V480.5H64.5C29.2 480.5 0.5 451.8 0.5 416.5V160.5C0.5 125.2 29.2 96.5 64.5 96.5ZM448.5 480.5H416.5V96.5H448.5C483.8 96.5 512.5 125.2 512.5 160.5V416.5C512.5 451.8 483.8 480.5 448.5 480.5Z" fill="#47535F"/>
</g>
<defs>
<clipPath id="clip0_104_2674">
<rect width="512" height="512" fill="white" transform="translate(0.5 0.5)"/>
</clipPath>
</defs>
</svg>
