<svg width="385" height="513" viewBox="0 0 385 513" fill="none" xmlns="http://www.w3.org/2000/svg">
<g clip-path="url(#clip0_104_2678)">
<path d="M144.5 56.5C144.5 52.1 148.1 48.5 152.5 48.5H232.5C236.9 48.5 240.5 52.1 240.5 56.5V128.5H144.5V56.5ZM320.5 128.5H288.5V56.5C288.5 25.6 263.4 0.5 232.5 0.5H152.5C121.6 0.5 96.5 25.6 96.5 56.5V128.5H64.5C29.2 128.5 0.5 157.2 0.5 192.5V416.5C0.5 451.8 29.2 480.5 64.5 480.5C64.5 498.2 78.8 512.5 96.5 512.5C114.2 512.5 128.5 498.2 128.5 480.5H256.5C256.5 498.2 270.8 512.5 288.5 512.5C306.2 512.5 320.5 498.2 320.5 480.5C355.8 480.5 384.5 451.8 384.5 416.5V192.5C384.5 157.2 355.8 128.5 320.5 128.5ZM112.5 224.5H272.5C281.3 224.5 288.5 231.7 288.5 240.5C288.5 249.3 281.3 256.5 272.5 256.5H112.5C103.7 256.5 96.5 249.3 96.5 240.5C96.5 231.7 103.7 224.5 112.5 224.5ZM112.5 352.5H272.5C281.3 352.5 288.5 359.7 288.5 368.5C288.5 377.3 281.3 384.5 272.5 384.5H112.5C103.7 384.5 96.5 377.3 96.5 368.5C96.5 359.7 103.7 352.5 112.5 352.5Z" fill="#47535F"/>
</g>
<defs>
<clipPath id="clip0_104_2678">
<rect width="384" height="512" fill="white" transform="translate(0.5 0.5)"/>
</clipPath>
</defs>
</svg>
