<svg width="513" height="513" viewBox="0 0 513 513" fill="none" xmlns="http://www.w3.org/2000/svg">
<g clip-path="url(#clip0_104_2680)">
<path d="M362 1.69991C367 3.79991 370.6 8.29992 371.6 13.5999L391.5 121.5L499.4 141.3C504.7 142.3 509.2 145.9 511.3 150.9C513.4 155.9 512.8 161.6 509.7 166.1L447.4 256.5L509.7 346.8C512.8 351.3 513.4 357 511.3 362C509.2 367 504.7 370.6 499.4 371.6L391.5 391.5L371.6 499.4C370.6 504.7 367 509.2 362 511.3C357 513.4 351.3 512.8 346.8 509.7L256.5 447.4L166.2 509.7C161.7 512.8 156 513.4 151 511.3C146 509.2 142.4 504.7 141.4 499.4L121.5 391.5L13.5999 371.6C8.29992 370.6 3.79991 367 1.69991 362C-0.400085 357 0.199915 351.3 3.29991 346.8L65.5999 256.5L3.29991 166.2C0.199915 161.7 -0.400085 156 1.69991 151C3.79991 146 8.29992 142.4 13.5999 141.4L121.5 121.5L141.4 13.5999C142.4 8.29992 146 3.79991 151 1.69991C156 -0.400085 161.7 0.199915 166.2 3.29991L256.5 65.5999L346.8 3.29991C351.3 0.199915 357 -0.400085 362 1.69991ZM160.5 256.5C160.5 231.039 170.614 206.621 188.618 188.618C206.621 170.614 231.039 160.5 256.5 160.5C281.961 160.5 306.379 170.614 324.382 188.618C342.386 206.621 352.5 231.039 352.5 256.5C352.5 281.961 342.386 306.379 324.382 324.382C306.379 342.386 281.961 352.5 256.5 352.5C231.039 352.5 206.621 342.386 188.618 324.382C170.614 306.379 160.5 281.961 160.5 256.5ZM384.5 256.5C384.5 222.552 371.014 189.995 347.01 165.99C323.005 141.986 290.448 128.5 256.5 128.5C222.552 128.5 189.995 141.986 165.99 165.99C141.986 189.995 128.5 222.552 128.5 256.5C128.5 290.448 141.986 323.005 165.99 347.01C189.995 371.014 222.552 384.5 256.5 384.5C290.448 384.5 323.005 371.014 347.01 347.01C371.014 323.005 384.5 290.448 384.5 256.5Z" fill="#47535F"/>
</g>
<defs>
<clipPath id="clip0_104_2680">
<rect width="512" height="512" fill="white" transform="translate(0.5 0.5)"/>
</clipPath>
</defs>
</svg>
