<svg width="641" height="513" viewBox="0 0 641 513" fill="none" xmlns="http://www.w3.org/2000/svg">
<g clip-path="url(#clip0_104_2682)">
<path d="M160.5 0.5C154.2 0.5 148.5 4.2 145.9 10L121.1 65.4L64.4 43.7C58.5 41.4 51.8 42.9 47.4 47.3C43 51.7 41.5 58.4 43.8 64.3L65.5 121L10 145.9C4.2 148.5 0.5 154.2 0.5 160.5C0.5 166.8 4.2 172.5 10 175.1L65.4 199.9L43.7 256.6C41.4 262.5 42.9 269.2 47.3 273.6C51.7 278 58.4 279.5 64.3 277.2L121 255.5L145.8 310.9C148.4 316.7 154.1 320.4 160.4 320.4C166.7 320.4 172.4 316.7 175 310.9L199.8 255.5L256.5 277.2C262.4 279.5 269.1 278 273.5 273.6C277.9 269.2 279.4 262.5 277.1 256.6L255.4 199.9L310.8 175.1C316.6 172.5 320.3 166.8 320.3 160.5C320.3 154.2 316.6 148.5 310.8 145.9L255.4 121.1L277.1 64.4C279.4 58.5 277.9 51.8 273.5 47.4C269.1 43 262.4 41.5 256.5 43.8L199.9 65.4L175.1 10C172.5 4.2 166.8 0.5 160.5 0.5ZM160.5 96.5C177.474 96.5 193.753 103.243 205.755 115.245C217.757 127.247 224.5 143.526 224.5 160.5C224.5 177.474 217.757 193.753 205.755 205.755C193.753 217.757 177.474 224.5 160.5 224.5C143.526 224.5 127.247 217.757 115.245 205.755C103.243 193.753 96.5 177.474 96.5 160.5C96.5 143.526 103.243 127.247 115.245 115.245C127.247 103.243 143.526 96.5 160.5 96.5ZM192.5 160.5C192.5 152.013 189.129 143.874 183.127 137.873C177.126 131.871 168.987 128.5 160.5 128.5C152.013 128.5 143.874 131.871 137.873 137.873C131.871 143.874 128.5 152.013 128.5 160.5C128.5 168.987 131.871 177.126 137.873 183.127C143.874 189.129 152.013 192.5 160.5 192.5C168.987 192.5 177.126 189.129 183.127 183.127C189.129 177.126 192.5 168.987 192.5 160.5ZM504.5 176.5C504.5 158.8 518.8 144.5 536.5 144.5C554.2 144.5 568.5 158.8 568.5 176.5V229.9C553.7 237.6 544.5 253 544.5 274.5C544.5 291.3 560.5 318.5 581.9 341.7C587.7 347.9 597.4 347.9 603.1 341.7C624.5 318.5 640.5 291.2 640.5 274.5C640.5 253 631.3 237.5 616.5 229.9V176.5C616.5 132.3 580.7 96.5 536.5 96.5C492.3 96.5 456.5 132.3 456.5 176.5V199.2C446.7 194.9 435.9 192.5 424.5 192.5C380.3 192.5 344.5 228.3 344.5 272.5V293.9C329.7 301.6 320.5 317 320.5 338.5C320.5 355.3 336.5 382.5 357.9 405.7C363.7 411.9 373.4 411.9 379.1 405.7C400.5 382.5 416.5 355.2 416.5 338.5C416.5 317 407.3 301.5 392.5 293.9V272.5C392.5 254.8 406.8 240.5 424.5 240.5C442.2 240.5 456.5 254.8 456.5 272.5V280.5V448.5H32.5C14.8 448.5 0.5 462.8 0.5 480.5C0.5 498.2 14.8 512.5 32.5 512.5H608.5C626.2 512.5 640.5 498.2 640.5 480.5C640.5 462.8 626.2 448.5 608.5 448.5H504.5V280.5V272.5V176.5Z" fill="#47535F"/>
</g>
<defs>
<clipPath id="clip0_104_2682">
<rect width="640" height="512" fill="white" transform="translate(0.5 0.5)"/>
</clipPath>
</defs>
</svg>
