<svg width="513" height="513" viewBox="0 0 513 513" fill="none" xmlns="http://www.w3.org/2000/svg">
<g clip-path="url(#clip0_104_2684)">
<path d="M480.5 32.4998C480.5 21.3998 474.8 11.0998 465.3 5.29982C455.8 -0.500181 444.1 -1.10018 434.2 3.89982L402.2 19.8998C386.4 27.7998 380 46.9998 387.9 62.7998C393.5 73.9998 404.8 80.4998 416.5 80.4998V160.5C398.8 160.5 384.5 174.8 384.5 192.5C384.5 210.2 398.8 224.5 416.5 224.5H448.5H480.5C498.2 224.5 512.5 210.2 512.5 192.5C512.5 174.8 498.2 160.5 480.5 160.5V32.4998ZM32.5 64.4998C14.8 64.4998 0.5 78.7998 0.5 96.4998C0.5 114.2 14.8 128.5 32.5 128.5H47.8L137.4 256.5L47.8 384.5H32.5C14.8 384.5 0.5 398.8 0.5 416.5C0.5 434.2 14.8 448.5 32.5 448.5H64.5C74.9 448.5 84.7 443.4 90.7 434.9L176.5 312.3L262.3 434.9C268.3 443.5 278.1 448.5 288.5 448.5H320.5C338.2 448.5 352.5 434.2 352.5 416.5C352.5 398.8 338.2 384.5 320.5 384.5H305.2L215.6 256.5L305.2 128.5H320.5C338.2 128.5 352.5 114.2 352.5 96.4998C352.5 78.7998 338.2 64.4998 320.5 64.4998H288.5C278.1 64.4998 268.3 69.5998 262.3 78.0998L176.5 200.7L90.7 78.0998C84.7 69.5998 74.9 64.4998 64.5 64.4998H32.5Z" fill="#47535F"/>
</g>
<defs>
<clipPath id="clip0_104_2684">
<rect width="512" height="512" fill="white" transform="translate(0.5 0.5)"/>
</clipPath>
</defs>
</svg>
