<svg width="513" height="513" viewBox="0 0 513 513" fill="none" xmlns="http://www.w3.org/2000/svg">
<g clip-path="url(#clip0_104_2686)">
<path d="M0.5 32.5C0.5 14.8 14.8 0.5 32.5 0.5H160.5C178.2 0.5 192.5 14.8 192.5 32.5V416.5C192.5 469.5 149.5 512.5 96.5 512.5C43.5 512.5 0.5 469.5 0.5 416.5V32.5ZM224.1 426.4C224.4 423.1 224.5 419.8 224.5 416.5V154.5L299.9 79.1C312.4 66.6 332.7 66.6 345.2 79.1L435.7 169.6C448.2 182.1 448.2 202.4 435.7 214.9L224.1 426.4ZM183.3 512.5L375.3 320.5H480.5C498.2 320.5 512.5 334.8 512.5 352.5V480.5C512.5 498.2 498.2 512.5 480.5 512.5H183.3ZM128.5 64.5H64.5V128.5H128.5V64.5ZM64.5 192.5V256.5H128.5V192.5H64.5ZM96.5 440.5C102.865 440.5 108.97 437.971 113.471 433.471C117.971 428.97 120.5 422.865 120.5 416.5C120.5 410.135 117.971 404.03 113.471 399.529C108.97 395.029 102.865 392.5 96.5 392.5C90.1348 392.5 84.0303 395.029 79.5294 399.529C75.0286 404.03 72.5 410.135 72.5 416.5C72.5 422.865 75.0286 428.97 79.5294 433.471C84.0303 437.971 90.1348 440.5 96.5 440.5Z" fill="#47535F"/>
</g>
<defs>
<clipPath id="clip0_104_2686">
<rect width="512" height="512" fill="white" transform="translate(0.5 0.5)"/>
</clipPath>
</defs>
</svg>
