<svg width="641" height="513" viewBox="0 0 641 513" fill="none" xmlns="http://www.w3.org/2000/svg">
<g clip-path="url(#clip0_104_2688)">
<path d="M310.3 4.1999C316.2 -0.700098 324.9 -0.700098 330.8 4.1999L451.8 105C470 120.2 480.5 142.7 480.5 166.5V280.6V512.5H464.5H352.5V416.5C352.5 398.8 338.2 384.5 320.5 384.5C302.8 384.5 288.5 398.8 288.5 416.5V512.5H176.5H160.5V280.6V166.5C160.5 142.8 171 120.2 189.3 105L310.3 4.1999ZM512.5 512.5V245L540.6 213.8C543.6 210.4 548 208.5 552.5 208.5C557 208.5 561.4 210.4 564.4 213.8L628.2 284.7C636.1 293.5 640.5 305 640.5 316.8V448.5C640.5 483.8 611.8 512.5 576.5 512.5H512.5ZM128.5 245V512.5H64.5C29.2 512.5 0.5 483.8 0.5 448.5V316.8C0.5 304.9 4.9 293.5 12.8 284.7L76.6 213.8C79.6 210.4 84 208.5 88.5 208.5C93 208.5 97.4 210.4 100.4 213.8L128.5 245ZM327.5 124.8C324.4 119.4 316.6 119.4 313.6 124.8L297.7 152.9L265.4 152.6C259.2 152.5 255.3 159.3 258.4 164.7L274.8 192.5L258.4 220.3C255.2 225.7 259.1 232.4 265.4 232.4L297.7 232.1L313.5 260.2C316.6 265.6 324.4 265.6 327.4 260.2L343.3 232.1L375.6 232.4C381.8 232.5 385.7 225.7 382.6 220.3L366.2 192.5L382.6 164.7C385.8 159.3 381.9 152.6 375.6 152.6L343.3 152.9L327.5 124.8Z" fill="#47535F"/>
</g>
<defs>
<clipPath id="clip0_104_2688">
<rect width="640" height="512" fill="white" transform="translate(0.5 0.5)"/>
</clipPath>
</defs>
</svg>
