<svg width="513" height="513" viewBox="0 0 513 513" fill="none" xmlns="http://www.w3.org/2000/svg">
<g clip-path="url(#clip0_104_2690)">
<path d="M441.5 7.49995L473.5 39.5L505.5 71.5C514.9 80.9 514.9 96.1 505.5 105.4C496.1 114.7 480.9 114.8 471.6 105.4L456.6 90.4L418.4 128.5L473.4 183.5C482.8 192.9 482.8 208.1 473.4 217.4C464 226.7 448.8 226.8 439.5 217.4L367.5 145.4L295.5 73.5C286.1 64.1 286.1 48.9 295.5 39.6C304.9 30.3 320.1 30.2 329.4 39.6L384.4 94.6L422.6 56.5L407.5 41.5C398.1 32.1 398.1 16.9 407.5 7.59995C416.9 -1.70005 432.1 -1.80005 441.4 7.59995L441.5 7.49995ZM210.8 156.2L271.9 95.1C272.2 95.4 272.5 95.8 272.9 96.1L288.9 112.1L344.9 168.1L400.9 224.1L416.9 240.1C417.2 240.4 417.5 240.7 417.9 241.1L226.9 432.1C216.4 442.6 202.2 448.5 187.3 448.5H98.4004L41.5004 505.5C32.1004 514.9 16.9004 514.9 7.60044 505.5C-1.69956 496.1 -1.79956 480.9 7.60044 471.6L64.6004 414.6V325.8C64.6004 310.9 70.5004 296.7 81.0004 286.2L124.3 242.9L181.3 299.9C187.5 306.1 197.7 306.1 203.9 299.9C210.1 293.7 210.1 283.5 203.9 277.3L146.9 220.3L188.3 178.9L245.3 235.9C251.5 242.1 261.7 242.1 267.9 235.9C274.1 229.7 274.1 219.5 267.9 213.3L210.9 156.3L210.8 156.2Z" fill="#47535F"/>
</g>
<defs>
<clipPath id="clip0_104_2690">
<rect width="512" height="512" fill="white" transform="translate(0.5 0.5)"/>
</clipPath>
</defs>
</svg>
