<svg width="641" height="513" viewBox="0 0 641 513" fill="none" xmlns="http://www.w3.org/2000/svg">
<g clip-path="url(#clip0_104_2708)">
<path d="M480.501 288.5C430.401 288.5 386.901 317.3 365.901 359.3L133.401 126.8L134.001 126.2L194.101 66.1001C281.601 -21.3999 423.401 -21.3999 510.901 66.1001C578.001 133.2 593.601 232.4 557.701 314.4C536.301 298.1 509.501 288.5 480.501 288.5ZM113.801 152.4L354.601 393.2C353.201 400.7 352.501 408.5 352.501 416.5C352.501 439.7 358.701 461.4 369.401 480.2C366.401 480.4 363.301 480.5 360.201 480.5H357.501C323.601 480.5 291.001 467 267.001 443L257.201 433.2C244.101 420.1 222.601 420.8 210.401 434.9L152.701 501.5C146.901 508.2 138.501 512.2 129.701 512.5C120.901 512.8 112.201 509.4 105.901 503.1L73.9007 471.1C67.6007 464.8 64.2007 456.2 64.5007 447.3C64.8007 438.4 68.8007 430.1 75.5007 424.3L142.101 366.6C156.101 354.4 156.901 332.9 143.801 319.8L134.001 310C110.001 286 96.5007 253.4 96.5007 219.5V216.8C96.5007 194 102.601 171.9 113.801 152.5V152.4ZM480.501 320.5C505.962 320.5 530.38 330.614 548.383 348.618C566.386 366.621 576.501 391.039 576.501 416.5C576.501 441.961 566.386 466.379 548.383 484.382C530.38 502.386 505.962 512.5 480.501 512.5C455.04 512.5 430.622 502.386 412.618 484.382C394.615 466.379 384.501 441.961 384.501 416.5C384.501 391.039 394.615 366.621 412.618 348.618C430.622 330.614 455.04 320.5 480.501 320.5Z" fill="#47535F"/>
</g>
<defs>
<clipPath id="clip0_104_2708">
<rect width="640" height="512" fill="white" transform="translate(0.5 0.5)"/>
</clipPath>
</defs>
</svg>
