<svg width="449" height="513" viewBox="0 0 449 513" fill="none" xmlns="http://www.w3.org/2000/svg">
<g clip-path="url(#clip0_104_2706)">
<path d="M64.5 0.5C29.2 0.5 0.5 29.2 0.5 64.5V448.5C0.5 483.8 29.2 512.5 64.5 512.5H384.5C419.8 512.5 448.5 483.8 448.5 448.5V64.5C448.5 29.2 419.8 0.5 384.5 0.5H64.5ZM224.5 400.5C232.987 400.5 241.126 403.871 247.127 409.873C253.129 415.874 256.5 424.013 256.5 432.5C256.5 440.987 253.129 449.126 247.127 455.127C241.126 461.129 232.987 464.5 224.5 464.5C216.013 464.5 207.874 461.129 201.873 455.127C195.871 449.126 192.5 440.987 192.5 432.5C192.5 424.013 195.871 415.874 201.873 409.873C207.874 403.871 216.013 400.5 224.5 400.5Z" fill="#47535F"/>
</g>
<defs>
<clipPath id="clip0_104_2706">
<rect width="448" height="512" fill="white" transform="translate(0.5 0.5)"/>
</clipPath>
</defs>
</svg>
