<svg width="641" height="513" viewBox="0 0 641 513" fill="none" xmlns="http://www.w3.org/2000/svg">
<g clip-path="url(#clip0_104_2710)">
<path d="M614.801 247.5C631.101 222.5 640.501 192.6 640.501 160.5C640.501 72.1 568.901 0.5 480.501 0.5C448.401 0.5 418.601 9.9 393.501 26.2C385.601 31.4 385.001 42.4 391.701 49.1L591.901 249.3C598.601 256 609.701 255.5 614.801 247.5ZM567.501 294.8C575.401 289.6 576.001 278.6 569.301 271.9L369.101 71.7C362.401 65 351.301 65.5 346.201 73.5C329.901 98.5 320.501 128.4 320.501 160.5C320.501 248.9 392.101 320.5 480.501 320.5C512.601 320.5 542.401 311.1 567.501 294.8ZM302.001 368.5H19.0009C9.50091 368.5 2.10091 376.7 4.00091 386C19.4009 458.3 83.6009 512.5 160.501 512.5C237.401 512.5 301.601 458.3 317.001 386C319.001 376.7 311.501 368.5 302.001 368.5ZM302.001 336.5C311.501 336.5 318.901 328.3 317.001 319C301.601 246.7 237.401 192.5 160.501 192.5C83.6009 192.5 19.4009 246.7 4.00091 319C2.00091 328.3 9.50091 336.5 19.0009 336.5H302.001Z" fill="#47535F"/>
</g>
<defs>
<clipPath id="clip0_104_2710">
<rect width="640" height="512" fill="white" transform="translate(0.5 0.5)"/>
</clipPath>
</defs>
</svg>
