<svg width="449" height="513" viewBox="0 0 449 513" fill="none" xmlns="http://www.w3.org/2000/svg">
<g clip-path="url(#clip0_104_2704)">
<path d="M64.5 0.5C29.2 0.5 0.5 29.2 0.5 64.5V448.5C0.5 483.8 29.2 512.5 64.5 512.5H384.5C419.8 512.5 448.5 483.8 448.5 448.5V64.5C448.5 29.2 419.8 0.5 384.5 0.5H64.5ZM176.5 432.5H272.5C281.3 432.5 288.5 439.7 288.5 448.5C288.5 457.3 281.3 464.5 272.5 464.5H176.5C167.7 464.5 160.5 457.3 160.5 448.5C160.5 439.7 167.7 432.5 176.5 432.5Z" fill="#47535F"/>
</g>
<defs>
<clipPath id="clip0_104_2704">
<rect width="448" height="512" fill="white" transform="translate(0.5 0.5)"/>
</clipPath>
</defs>
</svg>
