<svg width="513" height="513" viewBox="0 0 513 513" fill="none" xmlns="http://www.w3.org/2000/svg">
<g clip-path="url(#clip0_104_2696)">
<path d="M64.5 32.5C29.2 32.5 0.5 61.2 0.5 96.5V416.5C0.5 451.8 29.2 480.5 64.5 480.5H448.5C483.8 480.5 512.5 451.8 512.5 416.5V96.5C512.5 61.2 483.8 32.5 448.5 32.5H64.5ZM152.5 96.5V160.5H64.5V96.5H152.5ZM208.5 96.5H296.5V160.5H208.5V96.5ZM448.5 96.5V160.5H360.5V96.5H448.5ZM64.5 224.5H152.5V288.5H64.5V224.5ZM296.5 224.5V288.5H208.5V224.5H296.5ZM360.5 224.5H448.5V288.5H360.5V224.5ZM152.5 352.5V416.5H64.5V352.5H152.5ZM208.5 352.5H296.5V416.5H208.5V352.5ZM448.5 352.5V416.5H360.5V352.5H448.5Z" fill="#47535F"/>
</g>
<defs>
<clipPath id="clip0_104_2696">
<rect width="512" height="512" fill="white" transform="translate(0.5 0.5)"/>
</clipPath>
</defs>
</svg>
