<svg width="449" height="513" viewBox="0 0 449 513" fill="none" xmlns="http://www.w3.org/2000/svg">
<g clip-path="url(#clip0_104_2712)">
<path d="M0.5 64.5C0.5 29.2 29.2 0.5 64.5 0.5H384.5C419.8 0.5 448.5 29.2 448.5 64.5V448.5C448.5 483.8 419.8 512.5 384.5 512.5H64.5C29.2 512.5 0.5 483.8 0.5 448.5V64.5ZM256.5 448.5C256.5 440.013 253.129 431.874 247.127 425.873C241.126 419.871 232.987 416.5 224.5 416.5C216.013 416.5 207.874 419.871 201.873 425.873C195.871 431.874 192.5 440.013 192.5 448.5C192.5 456.987 195.871 465.126 201.873 471.127C207.874 477.129 216.013 480.5 224.5 480.5C232.987 480.5 241.126 477.129 247.127 471.127C253.129 465.126 256.5 456.987 256.5 448.5ZM384.5 64.5H64.5V384.5H384.5V64.5Z" fill="#47535F"/>
</g>
<defs>
<clipPath id="clip0_104_2712">
<rect width="448" height="512" fill="white" transform="translate(0.5 0.5)"/>
</clipPath>
</defs>
</svg>
