<svg width="641" height="513" viewBox="0 0 641 513" fill="none" xmlns="http://www.w3.org/2000/svg">
<g clip-path="url(#clip0_104_2714)">
<path d="M64.5 64.5C29.2 64.5 0.5 93.2 0.5 128.5V384.5C0.5 419.8 29.2 448.5 64.5 448.5H576.5C611.8 448.5 640.5 419.8 640.5 384.5V128.5C640.5 93.2 611.8 64.5 576.5 64.5H64.5ZM96.5 128.5H320.5C338.2 128.5 352.5 142.8 352.5 160.5V224.5C352.5 242.2 338.2 256.5 320.5 256.5H96.5C78.8 256.5 64.5 242.2 64.5 224.5V160.5C64.5 142.8 78.8 128.5 96.5 128.5ZM64.5 368.5C64.5 359.7 71.7 352.5 80.5 352.5H336.5C345.3 352.5 352.5 359.7 352.5 368.5C352.5 377.3 345.3 384.5 336.5 384.5H80.5C71.7 384.5 64.5 377.3 64.5 368.5ZM384.5 368.5C384.5 359.7 391.7 352.5 400.5 352.5H560.5C569.3 352.5 576.5 359.7 576.5 368.5C576.5 377.3 569.3 384.5 560.5 384.5H400.5C391.7 384.5 384.5 377.3 384.5 368.5ZM80.5 288.5C84.7435 288.5 88.8131 290.186 91.8137 293.186C94.8143 296.187 96.5 300.257 96.5 304.5C96.5 308.743 94.8143 312.813 91.8137 315.814C88.8131 318.814 84.7435 320.5 80.5 320.5C76.2565 320.5 72.1869 318.814 69.1863 315.814C66.1857 312.813 64.5 308.743 64.5 304.5C64.5 300.257 66.1857 296.187 69.1863 293.186C72.1869 290.186 76.2565 288.5 80.5 288.5ZM128.5 304.5C128.5 300.257 130.186 296.187 133.186 293.186C136.187 290.186 140.257 288.5 144.5 288.5C148.743 288.5 152.813 290.186 155.814 293.186C158.814 296.187 160.5 300.257 160.5 304.5C160.5 308.743 158.814 312.813 155.814 315.814C152.813 318.814 148.743 320.5 144.5 320.5C140.257 320.5 136.187 318.814 133.186 315.814C130.186 312.813 128.5 308.743 128.5 304.5ZM208.5 288.5C212.743 288.5 216.813 290.186 219.814 293.186C222.814 296.187 224.5 300.257 224.5 304.5C224.5 308.743 222.814 312.813 219.814 315.814C216.813 318.814 212.743 320.5 208.5 320.5C204.257 320.5 200.187 318.814 197.186 315.814C194.186 312.813 192.5 308.743 192.5 304.5C192.5 300.257 194.186 296.187 197.186 293.186C200.187 290.186 204.257 288.5 208.5 288.5ZM256.5 304.5C256.5 300.257 258.186 296.187 261.186 293.186C264.187 290.186 268.257 288.5 272.5 288.5C276.743 288.5 280.813 290.186 283.814 293.186C286.814 296.187 288.5 300.257 288.5 304.5C288.5 308.743 286.814 312.813 283.814 315.814C280.813 318.814 276.743 320.5 272.5 320.5C268.257 320.5 264.187 318.814 261.186 315.814C258.186 312.813 256.5 308.743 256.5 304.5ZM336.5 288.5C340.743 288.5 344.813 290.186 347.814 293.186C350.814 296.187 352.5 300.257 352.5 304.5C352.5 308.743 350.814 312.813 347.814 315.814C344.813 318.814 340.743 320.5 336.5 320.5C332.257 320.5 328.187 318.814 325.186 315.814C322.186 312.813 320.5 308.743 320.5 304.5C320.5 300.257 322.186 296.187 325.186 293.186C328.187 290.186 332.257 288.5 336.5 288.5Z" fill="#47535F"/>
</g>
<defs>
<clipPath id="clip0_104_2714">
<rect width="640" height="512" fill="white" transform="translate(0.5 0.5)"/>
</clipPath>
</defs>
</svg>
