<svg width="449" height="513" viewBox="0 0 449 513" fill="none" xmlns="http://www.w3.org/2000/svg">
<g clip-path="url(#clip0_104_2716)">
<path d="M0.5 80.5V230C0.5 247 7.2 263.3 19.2 275.3L195.2 451.3C220.2 476.3 260.7 476.3 285.7 451.3L419.2 317.8C444.2 292.8 444.2 252.3 419.2 227.3L243.2 51.3C231.2 39.3 214.9 32.6 197.9 32.6H48.5C22 32.5 0.5 54 0.5 80.5ZM112.5 112.5C120.987 112.5 129.126 115.871 135.127 121.873C141.129 127.874 144.5 136.013 144.5 144.5C144.5 152.987 141.129 161.126 135.127 167.127C129.126 173.129 120.987 176.5 112.5 176.5C104.013 176.5 95.8737 173.129 89.8726 167.127C83.8714 161.126 80.5 152.987 80.5 144.5C80.5 136.013 83.8714 127.874 89.8726 121.873C95.8737 115.871 104.013 112.5 112.5 112.5Z" fill="#47535F"/>
</g>
<defs>
<clipPath id="clip0_104_2716">
<rect width="448" height="512" fill="white" transform="translate(0.5 0.5)"/>
</clipPath>
</defs>
</svg>
