<svg width="513" height="513" viewBox="0 0 513 513" fill="none" xmlns="http://www.w3.org/2000/svg">
<g clip-path="url(#clip0_104_2718)">
<path d="M345.5 39.6L473.3 168.9C525.7 221.9 525.7 307.1 473.3 360.1L361.3 473.4C352 482.8 336.8 482.9 327.4 473.6C318 464.3 317.9 449.1 327.2 439.7L439.1 326.4C473 292.1 473 237 439.1 202.7L311.4 73.4C302.1 64 302.2 48.8 311.6 39.5C321 30.2 336.2 30.3 345.5 39.7V39.6ZM0.5 230V80.5C0.5 54 22 32.5 48.5 32.5H198C215 32.5 231.3 39.2 243.3 51.2L411.3 219.2C436.3 244.2 436.3 284.7 411.3 309.7L277.8 443.2C252.8 468.2 212.3 468.2 187.3 443.2L19.3 275.2C7.2 263.2 0.5 247 0.5 230ZM144.5 144.5C144.5 136.013 141.129 127.874 135.127 121.873C129.126 115.871 120.987 112.5 112.5 112.5C104.013 112.5 95.8737 115.871 89.8726 121.873C83.8714 127.874 80.5 136.013 80.5 144.5C80.5 152.987 83.8714 161.126 89.8726 167.127C95.8737 173.129 104.013 176.5 112.5 176.5C120.987 176.5 129.126 173.129 135.127 167.127C141.129 161.126 144.5 152.987 144.5 144.5Z" fill="#47535F"/>
</g>
<defs>
<clipPath id="clip0_104_2718">
<rect width="512" height="512" fill="white" transform="translate(0.5 0.5)"/>
</clipPath>
</defs>
</svg>
