<svg width="577" height="513" viewBox="0 0 577 513" fill="none" xmlns="http://www.w3.org/2000/svg">
<g clip-path="url(#clip0_104_2720)">
<path d="M381.3 416.5C422.8 375.8 448.5 319.2 448.5 256.5C448.5 132.8 348.2 32.5 224.5 32.5C100.8 32.5 0.5 132.8 0.5 256.5C0.5 380.2 100.8 480.5 224.5 480.5H544.5C562.2 480.5 576.5 466.2 576.5 448.5C576.5 430.8 562.2 416.5 544.5 416.5H381.3ZM224.5 160.5C249.961 160.5 274.379 170.614 292.382 188.618C310.386 206.621 320.5 231.039 320.5 256.5C320.5 281.961 310.386 306.379 292.382 324.382C274.379 342.386 249.961 352.5 224.5 352.5C199.039 352.5 174.621 342.386 156.618 324.382C138.614 306.379 128.5 281.961 128.5 256.5C128.5 231.039 138.614 206.621 156.618 188.618C174.621 170.614 199.039 160.5 224.5 160.5ZM288.5 256.5C288.5 239.526 281.757 223.247 269.755 211.245C257.752 199.243 241.474 192.5 224.5 192.5C207.526 192.5 191.247 199.243 179.245 211.245C167.243 223.247 160.5 239.526 160.5 256.5C160.5 273.474 167.243 289.752 179.245 301.755C191.247 313.757 207.526 320.5 224.5 320.5C241.474 320.5 257.752 313.757 269.755 301.755C281.757 289.752 288.5 273.474 288.5 256.5Z" fill="#47535F"/>
</g>
<defs>
<clipPath id="clip0_104_2720">
<rect width="576" height="512" fill="white" transform="translate(0.5 0.5)"/>
</clipPath>
</defs>
</svg>
