<svg width="577" height="513" viewBox="0 0 577 513" fill="none" xmlns="http://www.w3.org/2000/svg">
<g clip-path="url(#clip0_104_2722)">
<path d="M576.5 128.5C576.5 93.2 547.8 64.5 512.5 64.5H64.5C29.2 64.5 0.5 93.2 0.5 128.5V384.5C0.5 419.8 29.2 448.5 64.5 448.5H416.5V320.5C416.5 302.8 430.8 288.5 448.5 288.5H576.5V128.5ZM448.5 448.5L576.5 320.5H448.5V448.5ZM96.5 128.5C104.987 128.5 113.126 131.871 119.127 137.873C125.129 143.874 128.5 152.013 128.5 160.5C128.5 168.987 125.129 177.126 119.127 183.127C113.126 189.129 104.987 192.5 96.5 192.5C88.0131 192.5 79.8737 189.129 73.8726 183.127C67.8714 177.126 64.5 168.987 64.5 160.5C64.5 152.013 67.8714 143.874 73.8726 137.873C79.8737 131.871 88.0131 128.5 96.5 128.5Z" fill="#47535F"/>
</g>
<defs>
<clipPath id="clip0_104_2722">
<rect width="576" height="512" fill="white" transform="translate(0.5 0.5)"/>
</clipPath>
</defs>
</svg>
