<svg width="577" height="513" viewBox="0 0 577 513" fill="none" xmlns="http://www.w3.org/2000/svg">
<g clip-path="url(#clip0_104_2724)">
<path d="M288.5 160.5C253.2 160.5 224.5 133.6 224.5 100.5C224.5 76.5001 258.2 30.4001 276.7 7.0001C282.8 -0.699903 294.2 -0.699903 300.3 7.0001C318.8 30.4001 352.5 76.5001 352.5 100.5C352.5 133.6 323.8 160.5 288.5 160.5ZM64.5 128.5H198C211.2 165.8 246.7 192.5 288.5 192.5C330.3 192.5 365.9 165.8 379 128.5H512.5C547.8 128.5 576.5 157.2 576.5 192.5V352.5H448.5C430.8 352.5 416.5 366.8 416.5 384.5V512.5H64.5C29.2 512.5 0.5 483.8 0.5 448.5V192.5C0.5 157.2 29.2 128.5 64.5 128.5ZM448.5 512.5V384.5H576.5L448.5 512.5ZM96.5 256.5C104.987 256.5 113.126 253.129 119.127 247.128C125.129 241.126 128.5 232.987 128.5 224.5C128.5 216.013 125.129 207.874 119.127 201.873C113.126 195.872 104.987 192.5 96.5 192.5C88.0131 192.5 79.8737 195.872 73.8726 201.873C67.8714 207.874 64.5 216.013 64.5 224.5C64.5 232.987 67.8714 241.126 73.8726 247.128C79.8737 253.129 88.0131 256.5 96.5 256.5Z" fill="#47535F"/>
</g>
<defs>
<clipPath id="clip0_104_2724">
<rect width="576" height="512" fill="white" transform="translate(0.5 0.5)"/>
</clipPath>
</defs>
</svg>
