<svg width="513" height="513" viewBox="0 0 513 513" fill="none" xmlns="http://www.w3.org/2000/svg">
<g clip-path="url(#clip0_104_2726)">
<path d="M192.5 0.5C174.8 0.5 160.5 14.8 160.5 32.5V64.5C160.5 64.6 160.5 64.6 160.5 64.7C121.9 66.9 88.2 92 75.3 128.8L40.1 229.3C16.9 238.9 0.5 261.8 0.5 288.5V432.5V480.5C0.5 498.2 14.8 512.5 32.5 512.5H64.5C82.2 512.5 96.5 498.2 96.5 480.5V432.5H416.5V480.5C416.5 498.2 430.8 512.5 448.5 512.5H480.5C498.2 512.5 512.5 498.2 512.5 480.5V432.5V288.5C512.5 261.8 496.1 238.9 472.9 229.3L437.7 128.8C424.8 92 391.1 66.8 352.5 64.7C352.5 64.6 352.5 64.6 352.5 64.5V32.5C352.5 14.8 338.2 0.5 320.5 0.5H192.5ZM165.9 128.5H347.1C360.7 128.5 372.8 137.1 377.3 149.9L403.4 224.5H109.6L135.7 149.9C140.2 137.1 152.3 128.5 165.9 128.5ZM96.5 288.5C104.987 288.5 113.126 291.871 119.127 297.873C125.129 303.874 128.5 312.013 128.5 320.5C128.5 328.987 125.129 337.126 119.127 343.127C113.126 349.129 104.987 352.5 96.5 352.5C88.0131 352.5 79.8737 349.129 73.8726 343.127C67.8714 337.126 64.5 328.987 64.5 320.5C64.5 312.013 67.8714 303.874 73.8726 297.873C79.8737 291.871 88.0131 288.5 96.5 288.5ZM384.5 320.5C384.5 312.013 387.871 303.874 393.873 297.873C399.874 291.871 408.013 288.5 416.5 288.5C424.987 288.5 433.126 291.871 439.127 297.873C445.129 303.874 448.5 312.013 448.5 320.5C448.5 328.987 445.129 337.126 439.127 343.127C433.126 349.129 424.987 352.5 416.5 352.5C408.013 352.5 399.874 349.129 393.873 343.127C387.871 337.126 384.5 328.987 384.5 320.5Z" fill="#47535F"/>
</g>
<defs>
<clipPath id="clip0_104_2726">
<rect width="512" height="512" fill="white" transform="translate(0.5 0.5)"/>
</clipPath>
</defs>
</svg>
