<svg width="577" height="513" viewBox="0 0 577 513" fill="none" xmlns="http://www.w3.org/2000/svg">
<g clip-path="url(#clip0_104_2728)">
<path d="M0.5 128.5C0.5 75.5 43.5 32.5 96.5 32.5H480.5C533.5 32.5 576.5 75.5 576.5 128.5V384.5C576.5 437.5 533.5 480.5 480.5 480.5H96.5C43.5 480.5 0.5 437.5 0.5 384.5V128.5ZM176.5 176.5V232.5C176.5 245.8 187.2 256.5 200.5 256.5H248.5C261.8 256.5 272.5 245.8 272.5 232.5V176.5C272.5 150 251 128.5 224.5 128.5C198 128.5 176.5 150 176.5 176.5ZM352.5 128.5C326 128.5 304.5 150 304.5 176.5V232.5C304.5 245.8 315.2 256.5 328.5 256.5H376.5C389.8 256.5 400.5 245.8 400.5 232.5V176.5C400.5 150 379 128.5 352.5 128.5ZM48.5 208.5V232.5C48.5 245.8 59.2 256.5 72.5 256.5H120.5C133.8 256.5 144.5 245.8 144.5 232.5V208.5C144.5 182 123 160.5 96.5 160.5C70 160.5 48.5 182 48.5 208.5ZM96.5 384.5C123 384.5 144.5 363 144.5 336.5V312.5C144.5 299.2 133.8 288.5 120.5 288.5H72.5C59.2 288.5 48.5 299.2 48.5 312.5V336.5C48.5 363 70 384.5 96.5 384.5ZM176.5 336.5C176.5 363 198 384.5 224.5 384.5C251 384.5 272.5 363 272.5 336.5V312.5C272.5 299.2 261.8 288.5 248.5 288.5H200.5C187.2 288.5 176.5 299.2 176.5 312.5V336.5ZM352.5 384.5C379 384.5 400.5 363 400.5 336.5V312.5C400.5 299.2 389.8 288.5 376.5 288.5H328.5C315.2 288.5 304.5 299.2 304.5 312.5V336.5C304.5 363 326 384.5 352.5 384.5ZM432.5 208.5V232.5C432.5 245.8 443.2 256.5 456.5 256.5H504.5C517.8 256.5 528.5 245.8 528.5 232.5V208.5C528.5 182 507 160.5 480.5 160.5C454 160.5 432.5 182 432.5 208.5ZM480.5 384.5C507 384.5 528.5 363 528.5 336.5V312.5C528.5 299.2 517.8 288.5 504.5 288.5H456.5C443.2 288.5 432.5 299.2 432.5 312.5V336.5C432.5 363 454 384.5 480.5 384.5Z" fill="#47535F"/>
</g>
<defs>
<clipPath id="clip0_104_2728">
<rect width="576" height="512" fill="white" transform="translate(0.5 0.5)"/>
</clipPath>
</defs>
</svg>
