<svg width="577" height="513" viewBox="0 0 577 513" fill="none" xmlns="http://www.w3.org/2000/svg">
<g clip-path="url(#clip0_104_2730)">
<path d="M96.5 32.5C43.5 32.5 0.5 75.5 0.5 128.5V192.5C0.5 227.8 29.2 256.5 64.5 256.5H512.5C547.8 256.5 576.5 227.8 576.5 192.5V128.5C576.5 75.5 533.5 32.5 480.5 32.5H96.5ZM224.5 96.5C251 96.5 272.5 118 272.5 144.5V200.5C272.5 213.8 261.8 224.5 248.5 224.5H200.5C187.2 224.5 176.5 213.8 176.5 200.5V144.5C176.5 118 198 96.5 224.5 96.5ZM304.5 144.5C304.5 118 326 96.5 352.5 96.5C379 96.5 400.5 118 400.5 144.5V200.5C400.5 213.8 389.8 224.5 376.5 224.5H328.5C315.2 224.5 304.5 213.8 304.5 200.5V144.5ZM96.5 128.5C123 128.5 144.5 150 144.5 176.5V200.5C144.5 213.8 133.8 224.5 120.5 224.5H72.5C59.2 224.5 48.5 213.8 48.5 200.5V176.5C48.5 150 70 128.5 96.5 128.5ZM432.5 176.5C432.5 150 454 128.5 480.5 128.5C507 128.5 528.5 150 528.5 176.5V200.5C528.5 213.8 517.8 224.5 504.5 224.5H456.5C443.2 224.5 432.5 213.8 432.5 200.5V176.5ZM96.5 480.5H480.5C533.5 480.5 576.5 437.5 576.5 384.5V352.5C576.5 317.2 547.8 288.5 512.5 288.5H64.5C29.2 288.5 0.5 317.2 0.5 352.5V384.5C0.5 437.5 43.5 480.5 96.5 480.5ZM96.5 416.5C70 416.5 48.5 395 48.5 368.5V344.5C48.5 331.2 59.2 320.5 72.5 320.5H120.5C133.8 320.5 144.5 331.2 144.5 344.5V368.5C144.5 395 123 416.5 96.5 416.5ZM176.5 368.5V344.5C176.5 331.2 187.2 320.5 200.5 320.5H248.5C261.8 320.5 272.5 331.2 272.5 344.5V368.5C272.5 395 251 416.5 224.5 416.5C198 416.5 176.5 395 176.5 368.5ZM352.5 416.5C326 416.5 304.5 395 304.5 368.5V344.5C304.5 331.2 315.2 320.5 328.5 320.5H376.5C389.8 320.5 400.5 331.2 400.5 344.5V368.5C400.5 395 379 416.5 352.5 416.5ZM432.5 368.5V344.5C432.5 331.2 443.2 320.5 456.5 320.5H504.5C517.8 320.5 528.5 331.2 528.5 344.5V368.5C528.5 395 507 416.5 480.5 416.5C454 416.5 432.5 395 432.5 368.5Z" fill="#47535F"/>
</g>
<defs>
<clipPath id="clip0_104_2730">
<rect width="576" height="512" fill="white" transform="translate(0.5 0.5)"/>
</clipPath>
</defs>
</svg>
