<svg width="577" height="513" viewBox="0 0 577 513" fill="none" xmlns="http://www.w3.org/2000/svg">
<g clip-path="url(#clip0_104_2734)">
<path d="M128.5 112.5C128.5 86 150 64.5 176.5 64.5C203 64.5 224.5 86 224.5 112.5V277C224.5 294.3 231.6 308.9 239.8 319.5C250.3 333.1 256.5 350 256.5 368.5C256.5 412.7 220.7 448.5 176.5 448.5C132.3 448.5 96.5 412.7 96.5 368.5C96.5 350 102.7 333.1 113.2 319.6C121.4 309 128.5 294.4 128.5 277.1V112.5ZM176.5 0.5C114.6 0.5 64.5 50.6 64.5 112.5V276.9C64.5 277 64.4 277.2 64.3 277.5C64.1 278.1 63.5 279.1 62.6 280.3C43.7 304.7 32.5 335.3 32.5 368.5C32.5 448 97 512.5 176.5 512.5C256 512.5 320.5 448 320.5 368.5C320.5 335.3 309.3 304.7 290.4 280.4C289.5 279.2 288.9 278.2 288.7 277.6C288.6 277.3 288.5 277.1 288.5 277V112.5C288.5 50.6 238.4 0.5 176.5 0.5ZM176.5 416.5C203 416.5 224.5 395 224.5 368.5C224.5 347.6 211.1 329.8 192.5 323.2V112.5C192.5 103.7 185.3 96.5 176.5 96.5C167.7 96.5 160.5 103.7 160.5 112.5V323.2C141.9 329.8 128.5 347.6 128.5 368.5C128.5 395 150 416.5 176.5 416.5ZM480.5 160.5H512.5C525.4 160.5 537.1 152.7 542.1 140.7C547.1 128.7 544.3 115 535.2 105.8L471.2 41.8C458.7 29.3 438.4 29.3 425.9 41.8L361.9 105.8C352.7 115 350 128.7 355 140.7C360 152.7 371.6 160.5 384.6 160.5H416.6V448.5C416.6 466.2 430.9 480.5 448.6 480.5C466.3 480.5 480.6 466.2 480.6 448.5V160.5H480.5Z" fill="#47535F"/>
</g>
<defs>
<clipPath id="clip0_104_2734">
<rect width="576" height="512" fill="white" transform="translate(0.5 0.5)"/>
</clipPath>
</defs>
</svg>
