<svg width="321" height="513" viewBox="0 0 321 513" fill="none" xmlns="http://www.w3.org/2000/svg">
<g clip-path="url(#clip0_104_2736)">
<path d="M112.5 112.5C112.5 86 134 64.5 160.5 64.5C187 64.5 208.5 86 208.5 112.5V277C208.5 294.3 215.6 308.9 223.8 319.5C234.3 333.1 240.5 350 240.5 368.5C240.5 412.7 204.7 448.5 160.5 448.5C116.3 448.5 80.5 412.7 80.5 368.5C80.5 350 86.7 333.1 97.2 319.6C105.4 309 112.5 294.4 112.5 277.1V112.5ZM160.5 0.5C98.6 0.5 48.5 50.7 48.5 112.5V277C48.5 277.1 48.4 277.3 48.3 277.6C48.1 278.2 47.5 279.2 46.6 280.4C27.7 304.7 16.5 335.3 16.5 368.5C16.5 448 81 512.5 160.5 512.5C240 512.5 304.5 448 304.5 368.5C304.5 335.3 293.3 304.7 274.4 280.4C273.5 279.2 272.9 278.2 272.7 277.6C272.6 277.3 272.5 277.1 272.5 277V112.5C272.5 50.7 222.4 0.5 160.5 0.5ZM160.5 416.5C173.23 416.5 185.439 411.443 194.441 402.441C203.443 393.439 208.5 381.23 208.5 368.5C208.5 355.77 203.443 343.561 194.441 334.559C185.439 325.557 173.23 320.5 160.5 320.5C147.77 320.5 135.561 325.557 126.559 334.559C117.557 343.561 112.5 355.77 112.5 368.5C112.5 381.23 117.557 393.439 126.559 402.441C135.561 411.443 147.77 416.5 160.5 416.5Z" fill="#47535F"/>
</g>
<defs>
<clipPath id="clip0_104_2736">
<rect width="320" height="512" fill="white" transform="translate(0.5 0.5)"/>
</clipPath>
</defs>
</svg>
