<svg width="513" height="513" viewBox="0 0 513 513" fill="none" xmlns="http://www.w3.org/2000/svg">
<g clip-path="url(#clip0_104_2742)">
<path d="M416.5 64.5C424.987 64.5 433.126 67.8714 439.127 73.8726C445.129 79.8737 448.5 88.0131 448.5 96.5C448.5 104.987 445.129 113.126 439.127 119.127C433.126 125.129 424.987 128.5 416.5 128.5C408.013 128.5 399.874 125.129 393.873 119.127C387.871 113.126 384.5 104.987 384.5 96.5C384.5 88.0131 387.871 79.8737 393.873 73.8726C399.874 67.8714 408.013 64.5 416.5 64.5ZM416.5 192.5C441.961 192.5 466.379 182.386 484.382 164.382C502.386 146.379 512.5 121.961 512.5 96.5C512.5 71.0392 502.386 46.6212 484.382 28.6177C466.379 10.6143 441.961 0.5 416.5 0.5C391.039 0.5 366.621 10.6143 348.618 28.6177C330.614 46.6212 320.5 71.0392 320.5 96.5C320.5 121.961 330.614 146.379 348.618 164.382C366.621 182.386 391.039 192.5 416.5 192.5ZM96.5 112.5C96.5 86 118 64.5 144.5 64.5C171 64.5 192.5 86 192.5 112.5V277C192.5 294.3 199.6 308.9 207.8 319.5C218.3 333.1 224.5 350 224.5 368.5C224.5 412.7 188.7 448.5 144.5 448.5C100.3 448.5 64.5 412.7 64.5 368.5C64.5 350 70.7 333.1 81.2 319.6C89.4 308.9 96.5 294.3 96.5 277V112.5ZM144.5 0.5C82.6 0.5 32.5 50.7 32.5 112.5V277C32.5 277.1 32.4 277.3 32.3 277.6C32.1 278.2 31.5 279.2 30.6 280.4C11.7 304.7 0.5 335.3 0.5 368.5C0.5 448 65 512.5 144.5 512.5C224 512.5 288.5 448 288.5 368.5C288.5 335.3 277.3 304.7 258.4 280.4C257.5 279.2 256.9 278.2 256.7 277.6C256.6 277.3 256.5 277.1 256.5 277V112.5C256.5 50.7 206.4 0.5 144.5 0.5ZM144.5 416.5C171 416.5 192.5 395 192.5 368.5C192.5 347.6 179.1 329.8 160.5 323.2V112.5C160.5 103.7 153.3 96.5 144.5 96.5C135.7 96.5 128.5 103.7 128.5 112.5V323.2C109.9 329.8 96.5 347.6 96.5 368.5C96.5 395 118 416.5 144.5 416.5Z" fill="#47535F"/>
</g>
<defs>
<clipPath id="clip0_104_2742">
<rect width="512" height="512" fill="white" transform="translate(0.5 0.5)"/>
</clipPath>
</defs>
</svg>
