<svg width="321" height="513" viewBox="0 0 321 513" fill="none" xmlns="http://www.w3.org/2000/svg">
<g clip-path="url(#clip0_104_2746)">
<path d="M160.5 64.5C134 64.5 112.5 86 112.5 112.5V277C112.5 294.3 105.4 308.9 97.2 319.5C86.7 333.1 80.5 350 80.5 368.5C80.5 412.7 116.3 448.5 160.5 448.5C204.7 448.5 240.5 412.7 240.5 368.5C240.5 350 234.3 333.1 223.8 319.6C215.6 309 208.5 294.4 208.5 277.1V112.5C208.5 86 187 64.5 160.5 64.5ZM48.5 112.5C48.5 50.7 98.6 0.5 160.5 0.5C222.4 0.5 272.5 50.6 272.5 112.5V277C272.5 277.1 272.6 277.3 272.7 277.6C272.9 278.2 273.5 279.2 274.4 280.4C293.3 304.8 304.5 335.4 304.5 368.5C304.5 448 240 512.5 160.5 512.5C81 512.5 16.5 448 16.5 368.5C16.5 335.3 27.7 304.7 46.6 280.4C47.5 279.2 48.1 278.2 48.3 277.6C48.4 277.3 48.5 277.1 48.5 277V112.5ZM208.5 368.5C208.5 395 187 416.5 160.5 416.5C134 416.5 112.5 395 112.5 368.5C112.5 347.6 125.9 329.8 144.5 323.2V272.5C144.5 263.7 151.7 256.5 160.5 256.5C169.3 256.5 176.5 263.7 176.5 272.5V323.2C195.1 329.8 208.5 347.6 208.5 368.5Z" fill="#47535F"/>
</g>
<defs>
<clipPath id="clip0_104_2746">
<rect width="320" height="512" fill="white" transform="translate(0.5 0.5)"/>
</clipPath>
</defs>
</svg>
