<svg width="513" height="513" viewBox="0 0 513 513" fill="none" xmlns="http://www.w3.org/2000/svg">
<g clip-path="url(#clip0_104_2744)">
<path d="M448.5 96.5C448.5 88.0131 445.129 79.8737 439.127 73.8726C433.126 67.8714 424.987 64.5 416.5 64.5C408.013 64.5 399.874 67.8714 393.873 73.8726C387.871 79.8737 384.5 88.0131 384.5 96.5C384.5 104.987 387.871 113.126 393.873 119.127C399.874 125.129 408.013 128.5 416.5 128.5C424.987 128.5 433.126 125.129 439.127 119.127C445.129 113.126 448.5 104.987 448.5 96.5ZM320.5 96.5C320.5 71.0392 330.614 46.6212 348.618 28.6177C366.621 10.6143 391.039 0.5 416.5 0.5C441.961 0.5 466.379 10.6143 484.382 28.6177C502.386 46.6212 512.5 71.0392 512.5 96.5C512.5 121.961 502.386 146.379 484.382 164.382C466.379 182.386 441.961 192.5 416.5 192.5C391.039 192.5 366.621 182.386 348.618 164.382C330.614 146.379 320.5 121.961 320.5 96.5ZM144.5 64.5C118 64.5 96.5 86 96.5 112.5V277C96.5 294.3 89.4 308.9 81.2 319.5C70.7 333.1 64.5 350 64.5 368.5C64.5 412.7 100.3 448.5 144.5 448.5C188.7 448.5 224.5 412.7 224.5 368.5C224.5 350 218.3 333.1 207.8 319.6C199.6 309 192.5 294.4 192.5 277.1V112.5C192.5 86 171 64.5 144.5 64.5ZM32.5 112.5C32.5 50.7 82.6 0.5 144.5 0.5C206.4 0.5 256.5 50.6 256.5 112.5V277C256.5 277.1 256.6 277.3 256.7 277.6C256.9 278.2 257.5 279.2 258.4 280.4C277.3 304.8 288.5 335.4 288.5 368.5C288.5 448 224 512.5 144.5 512.5C65 512.5 0.5 448 0.5 368.5C0.5 335.3 11.7 304.7 30.6 280.4C31.5 279.2 32.1 278.2 32.3 277.6C32.4 277.3 32.5 277.1 32.5 277V112.5ZM192.5 368.5C192.5 395 171 416.5 144.5 416.5C118 416.5 96.5 395 96.5 368.5C96.5 347.6 109.9 329.8 128.5 323.2V272.5C128.5 263.7 135.7 256.5 144.5 256.5C153.3 256.5 160.5 263.7 160.5 272.5V323.2C179.1 329.8 192.5 347.6 192.5 368.5Z" fill="#47535F"/>
</g>
<defs>
<clipPath id="clip0_104_2744">
<rect width="512" height="512" fill="white" transform="translate(0.5 0.5)"/>
</clipPath>
</defs>
</svg>
