<svg width="577" height="513" viewBox="0 0 577 513" fill="none" xmlns="http://www.w3.org/2000/svg">
<g clip-path="url(#clip0_104_2732)">
<path d="M128.5 112.5C128.5 86 150 64.5 176.5 64.5C203 64.5 224.5 86 224.5 112.5V277C224.5 294.3 231.6 308.9 239.8 319.5C250.3 333.1 256.5 350 256.5 368.5C256.5 412.7 220.7 448.5 176.5 448.5C132.3 448.5 96.5 412.7 96.5 368.5C96.5 350 102.7 333.1 113.2 319.6C121.4 309 128.5 294.4 128.5 277.1V112.5ZM176.5 0.5C114.6 0.5 64.5 50.6 64.5 112.5V276.9C64.5 277 64.4 277.2 64.3 277.5C64.1 278.1 63.5 279.1 62.6 280.3C43.7 304.7 32.5 335.3 32.5 368.5C32.5 448 97 512.5 176.5 512.5C256 512.5 320.5 448 320.5 368.5C320.5 335.3 309.3 304.7 290.4 280.4C289.5 279.2 288.9 278.2 288.7 277.6C288.6 277.3 288.5 277.1 288.5 277V112.5C288.5 50.6 238.4 0.5 176.5 0.5ZM176.5 416.5C203 416.5 224.5 395 224.5 368.5C224.5 347.6 211.1 329.8 192.5 323.2V272.5C192.5 263.7 185.3 256.5 176.5 256.5C167.7 256.5 160.5 263.7 160.5 272.5V323.2C141.9 329.8 128.5 347.6 128.5 368.5C128.5 395 150 416.5 176.5 416.5ZM512.5 352.5H480.5V64.5C480.5 46.8 466.2 32.5 448.5 32.5C430.8 32.5 416.5 46.8 416.5 64.5V352.5H384.5C371.6 352.5 359.9 360.3 354.9 372.3C349.9 384.3 352.7 398 361.8 407.2L425.8 471.2C431.8 477.2 439.9 480.6 448.4 480.6C456.9 480.6 465 477.2 471 471.2L535 407.2C544.2 398 546.9 384.3 541.9 372.3C536.9 360.3 525.3 352.5 512.3 352.5H512.5Z" fill="#47535F"/>
</g>
<defs>
<clipPath id="clip0_104_2732">
<rect width="576" height="512" fill="white" transform="translate(0.5 0.5)"/>
</clipPath>
</defs>
</svg>
