<svg width="385" height="513" viewBox="0 0 385 513" fill="none" xmlns="http://www.w3.org/2000/svg">
<g clip-path="url(#clip0_104_2750)">
<path d="M0.5 64.5C0.5 46.8 14.8 32.5 32.5 32.5H352.5C370.2 32.5 384.5 46.8 384.5 64.5C384.5 82.2 370.2 96.5 352.5 96.5H32.5C14.8 96.5 0.5 82.2 0.5 64.5ZM0.5 192.5C0.5 174.8 14.8 160.5 32.5 160.5H192.5H352.5C370.2 160.5 384.5 174.8 384.5 192.5C384.5 210.2 370.2 224.5 352.5 224.5H224.5V448.5C224.5 466.2 210.2 480.5 192.5 480.5C174.8 480.5 160.5 466.2 160.5 448.5V224.5H32.5C14.8 224.5 0.5 210.2 0.5 192.5Z" fill="#47535F"/>
</g>
<defs>
<clipPath id="clip0_104_2750">
<rect width="384" height="512" fill="white" transform="translate(0.5 0.5)"/>
</clipPath>
</defs>
</svg>
