<svg width="577" height="513" viewBox="0 0 577 513" fill="none" xmlns="http://www.w3.org/2000/svg">
<g clip-path="url(#clip0_104_2758)">
<path d="M210.3 112.4C201.4 102.5 186.3 101.7 176.4 110.6L136.5 146.6V24.5C136.5 11.2 125.8 0.5 112.5 0.5C99.2 0.5 88.5 11.2 88.5 24.5V146.6L48.6 110.6C38.7 101.7 23.6 102.5 14.7 112.4C5.80004 122.3 6.60004 137.4 16.5 146.3L96.5 218.3C105.6 226.5 119.5 226.5 128.6 218.3L208.6 146.3C218.5 137.4 219.3 122.3 210.4 112.4H210.3ZM562.3 112.4C553.4 102.5 538.3 101.7 528.4 110.6L488.5 146.6V24.5C488.5 11.2 477.8 0.5 464.5 0.5C451.2 0.5 440.5 11.2 440.5 24.5V146.6L400.6 110.6C390.7 101.7 375.6 102.5 366.7 112.4C357.8 122.3 358.6 137.4 368.5 146.3L448.5 218.3C457.6 226.5 471.5 226.5 480.6 218.3L560.6 146.3C570.5 137.4 571.3 122.3 562.4 112.4H562.3ZM307.9 167C296.4 158.3 280.6 158.3 269.1 167L101.1 295C94.5 300 90.1 307.5 88.8 315.7L64.8 475.7C63.4 484.9 66.1 494.3 72.2 501.3C78.3 508.3 87.2 512.5 96.5 512.5H288.5V352.5L384.5 512.5H480.5C489.8 512.5 498.7 508.4 504.7 501.4C510.7 494.4 513.5 485 512.1 475.8L488.1 315.8C486.9 307.6 482.5 300.1 475.8 295.1L307.8 167.1L307.9 167Z" fill="#47535F"/>
</g>
<defs>
<clipPath id="clip0_104_2758">
<rect width="576" height="512" fill="white" transform="translate(0.5 0.5)"/>
</clipPath>
</defs>
</svg>
