<svg width="641" height="513" viewBox="0 0 641 513" fill="none" xmlns="http://www.w3.org/2000/svg">
<g clip-path="url(#clip0_104_2754)">
<path d="M242.3 112.4C251.2 122.3 250.4 137.4 240.5 146.3L160.5 218.3C151.4 226.5 137.5 226.5 128.4 218.3L48.4 146.3C38.5 137.4 37.7 122.3 46.6 112.4C55.5 102.5 70.6 101.7 80.5 110.6L120.4 146.6L120.5 24.5C120.5 11.2 131.2 0.5 144.5 0.5C157.8 0.5 168.5 11.2 168.5 24.5V146.6L208.4 110.6C218.3 101.7 233.4 102.5 242.3 112.4ZM365.1 135C376.6 126.3 392.4 126.3 403.9 135L571.9 263C578.5 268 582.9 275.5 584.2 283.7L608.2 443.7L608.9 448.4C626.4 448.6 640.5 462.8 640.5 480.4C640.5 498.1 626.2 512.4 608.5 512.4H32.5C14.8 512.4 0.5 498.1 0.5 480.4C0.5 462.7 14.8 448.4 32.5 448.4H160.1L160.8 443.7L184.8 283.7C186 275.5 190.4 268 197.1 263L365.1 135ZM384.5 448.5H461.3L384.5 320.5V448.5Z" fill="#47535F"/>
</g>
<defs>
<clipPath id="clip0_104_2754">
<rect width="640" height="512" fill="white" transform="translate(0.5 0.5)"/>
</clipPath>
</defs>
</svg>
