<svg width="577" height="513" viewBox="0 0 577 513" fill="none" xmlns="http://www.w3.org/2000/svg">
<g clip-path="url(#clip0_104_2756)">
<path d="M488.6 6.6999C478.7 -2.2001 463.6 -1.4001 454.7 8.4999C445.8 18.3999 446.6 33.4999 456.5 42.3999L490 72.4999H87L120.5 42.2999C130.4 33.3999 131.2 18.2999 122.3 8.3999C113.4 -1.5001 98.3 -2.2001 88.4 6.6999L8.4 78.6999C3.4 83.1999 0.5 89.6999 0.5 96.4999C0.5 103.3 3.4 109.8 8.4 114.3L88.4 186.3C98.3 195.2 113.4 194.4 122.3 184.5C131.2 174.6 130.4 159.5 120.5 150.6L87 120.5H489.9L456.4 150.7C446.5 159.6 445.7 174.7 454.6 184.6C463.5 194.5 478.6 195.3 488.5 186.4L568.5 114.4C573.6 109.8 576.4 103.4 576.4 96.5999C576.4 89.7999 573.5 83.2999 568.5 78.7999L488.5 6.7999L488.6 6.6999ZM307.9 167C296.4 158.3 280.6 158.3 269.1 167L101.1 295C94.5 300 90.1 307.5 88.8 315.7L64.8 475.7C63.4 484.9 66.1 494.3 72.2 501.3C78.3 508.3 87.2 512.5 96.5 512.5H288.5V352.5L384.5 512.5H480.5C489.8 512.5 498.7 508.4 504.7 501.4C510.7 494.4 513.5 485 512.1 475.8L488.1 315.8C486.9 307.6 482.5 300.1 475.8 295.1L307.8 167.1L307.9 167Z" fill="#47535F"/>
</g>
<defs>
<clipPath id="clip0_104_2756">
<rect width="576" height="512" fill="white" transform="translate(0.5 0.5)"/>
</clipPath>
</defs>
</svg>
