<svg width="641" height="513" viewBox="0 0 641 513" fill="none" xmlns="http://www.w3.org/2000/svg">
<g clip-path="url(#clip0_104_2762)">
<path d="M397.1 7.0002L236.3 129.6C245.9 131.4 255.2 135.4 263.3 141.6L431.3 269.6C444.5 279.7 453.3 294.5 455.8 311L462 352.5H608.5C617.8 352.5 626.7 348.4 632.7 341.4C638.7 334.4 641.5 325 640.1 315.8L616.1 155.8C614.9 147.6 610.5 140.1 603.8 135.1L435.8 7.10019C424.3 -1.5998 408.5 -1.5998 397 7.10019L397.1 7.0002ZM243.9 167C232.4 158.3 216.6 158.3 205.1 167L37.1001 295C30.5001 300 26.1001 307.5 24.8001 315.7L0.800087 475.7C-0.599913 484.9 2.10009 494.3 8.20009 501.3C14.3001 508.3 23.2001 512.5 32.5001 512.5H224.5V352.5L320.5 512.5H416.5C425.8 512.5 434.7 508.4 440.7 501.4C446.7 494.4 449.5 485 448.1 475.8L424.1 315.8C422.9 307.6 418.5 300.1 411.8 295.1L243.8 167.1L243.9 167Z" fill="#47535F"/>
</g>
<defs>
<clipPath id="clip0_104_2762">
<rect width="640" height="512" fill="white" transform="translate(0.5 0.5)"/>
</clipPath>
</defs>
</svg>
