<svg width="577" height="513" viewBox="0 0 577 513" fill="none" xmlns="http://www.w3.org/2000/svg">
<g clip-path="url(#clip0_104_2752)">
<path d="M269.9 6.5C281 -1.5 296 -1.5 307.1 6.5L531.1 166.5C538.5 171.8 543.3 180 544.3 189L576.3 477C577.3 486 574.4 495.1 568.3 501.9C562.2 508.7 553.6 512.6 544.5 512.6H416.5L288.5 288.5V512.5H32.5C23.4 512.5 14.7 508.6 8.7 501.8C2.7 495 -0.300002 486 0.699998 476.9L32.7 188.9C33.7 179.9 38.5 171.7 45.9 166.4L269.9 6.5Z" fill="#47535F"/>
</g>
<defs>
<clipPath id="clip0_104_2752">
<rect width="576" height="512" fill="white" transform="translate(0.5 0.5)"/>
</clipPath>
</defs>
</svg>
