<svg width="577" height="513" viewBox="0 0 577 513" fill="none" xmlns="http://www.w3.org/2000/svg">
<g clip-path="url(#clip0_104_2764)">
<path d="M9.8999 87.0999C-2.6001 74.5999 -2.6001 54.3999 9.8999 41.8999C22.3999 29.3999 42.6999 29.3999 55.1999 41.8999L247.2 233.9C259.7 246.4 259.7 266.7 247.2 279.2L55.1999 471.2C42.6999 483.7 22.3999 483.7 9.8999 471.2C-2.6001 458.7 -2.6001 438.4 9.8999 425.9L179.2 256.5L9.8999 87.0999ZM256.5 416.5H544.5C562.2 416.5 576.5 430.8 576.5 448.5C576.5 466.2 562.2 480.5 544.5 480.5H256.5C238.8 480.5 224.5 466.2 224.5 448.5C224.5 430.8 238.8 416.5 256.5 416.5Z" fill="#47535F"/>
</g>
<defs>
<clipPath id="clip0_104_2764">
<rect width="576" height="512" fill="white" transform="translate(0.5 0.5)"/>
</clipPath>
</defs>
</svg>
