<svg width="641" height="513" viewBox="0 0 641 513" fill="none" xmlns="http://www.w3.org/2000/svg">
<g clip-path="url(#clip0_104_2768)">
<path d="M39.2998 5.59976C28.8998 -2.60024 13.7998 -0.700238 5.59976 9.69976C-2.60024 20.0998 -0.700238 35.1998 9.69976 43.3998L601.7 507.4C612.1 515.6 627.2 513.7 635.4 503.3C643.6 492.9 641.7 477.8 631.3 469.6L356.2 254L400.7 96.4998H503.5L497.5 120.7C493.2 137.8 503.6 155.2 520.8 159.5C538 163.8 555.3 153.4 559.6 136.2L570.6 92.0998C578.1 61.7998 555.2 32.4998 524 32.4998H376.6H376.3H205C183 32.4998 163.8 47.4998 158.4 68.8998L152.1 94.0998L39.2998 5.59976ZM207.3 137.3C207.4 137 207.5 136.6 207.6 136.3L217.5 96.4998H334.2L301.8 211.3L207.3 137.2V137.3ZM243.8 416.5H192.5C174.8 416.5 160.5 430.8 160.5 448.5C160.5 466.2 174.8 480.5 192.5 480.5H352.5C370.2 480.5 384.5 466.2 384.5 448.5C384.5 430.8 370.2 416.5 352.5 416.5H310.3L327.9 354.4L273.4 311.5L243.8 416.5Z" fill="#47535F"/>
</g>
<defs>
<clipPath id="clip0_104_2768">
<rect width="640" height="512" fill="white" transform="translate(0.5 0.5)"/>
</clipPath>
</defs>
</svg>
