<svg width="577" height="513" viewBox="0 0 577 513" fill="none" xmlns="http://www.w3.org/2000/svg">
<g clip-path="url(#clip0_104_2766)">
<path d="M64.5 128.5V96.5H128.5V416.5H96.5C78.8 416.5 64.5 430.8 64.5 448.5C64.5 466.2 78.8 480.5 96.5 480.5H224.5C242.2 480.5 256.5 466.2 256.5 448.5C256.5 430.8 242.2 416.5 224.5 416.5H192.5V96.5H256.5V128.5C256.5 146.2 270.8 160.5 288.5 160.5C306.2 160.5 320.5 146.2 320.5 128.5V80.5C320.5 54 299 32.5 272.5 32.5H160.5H48.5C22 32.5 0.5 54 0.5 80.5V128.5C0.5 146.2 14.8 160.5 32.5 160.5C50.2 160.5 64.5 146.2 64.5 128.5ZM503.1 41.9C490.6 29.4 470.3 29.4 457.8 41.9L393.8 105.9C384.6 115.1 381.9 128.8 386.9 140.8C391.9 152.8 403.5 160.6 416.5 160.6H448.5V352.5H416.5C403.6 352.5 391.9 360.3 386.9 372.3C381.9 384.3 384.7 398 393.8 407.2L457.8 471.2C470.3 483.7 490.6 483.7 503.1 471.2L567.1 407.2C576.3 398 579 384.3 574 372.3C569 360.3 557.4 352.5 544.4 352.5H512.5V160.5H544.5C557.4 160.5 569.1 152.7 574.1 140.7C579.1 128.7 576.3 115 567.2 105.8L503.2 41.8L503.1 41.9Z" fill="#47535F"/>
</g>
<defs>
<clipPath id="clip0_104_2766">
<rect width="576" height="512" fill="white" transform="translate(0.5 0.5)"/>
</clipPath>
</defs>
</svg>
