<svg width="449" height="513" viewBox="0 0 449 513" fill="none" xmlns="http://www.w3.org/2000/svg">
<g clip-path="url(#clip0_104_2770)">
<path d="M64.5 128.5V96.5H192.5V224.5H176.5C158.8 224.5 144.5 238.8 144.5 256.5C144.5 274.2 158.8 288.5 176.5 288.5H272.5C290.2 288.5 304.5 274.2 304.5 256.5C304.5 238.8 290.2 224.5 272.5 224.5H256.5V96.5H384.5V128.5C384.5 146.2 398.8 160.5 416.5 160.5C434.2 160.5 448.5 146.2 448.5 128.5V80.5C448.5 54 427 32.5 400.5 32.5H224.5H48.5C22 32.5 0.5 54 0.5 80.5V128.5C0.5 146.2 14.8 160.5 32.5 160.5C50.2 160.5 64.5 146.2 64.5 128.5ZM9.9 361.9C-2.6 374.4 -2.6 394.7 9.9 407.2L73.9 471.2C83.1 480.4 96.8 483.1 108.8 478.1C120.8 473.1 128.6 461.5 128.6 448.5V416.5H320.5V448.5C320.5 461.4 328.3 473.1 340.3 478.1C352.3 483.1 366 480.3 375.2 471.2L439.2 407.2C451.7 394.7 451.7 374.4 439.2 361.9L375.2 297.9C366 288.7 352.3 286 340.3 291C328.3 296 320.5 307.6 320.5 320.6V352.6H128.5V320.5C128.5 307.6 120.7 295.9 108.7 290.9C96.7 285.9 83 288.7 73.8 297.8L9.8 361.8L9.9 361.9Z" fill="#47535F"/>
</g>
<defs>
<clipPath id="clip0_104_2770">
<rect width="448" height="512" fill="white" transform="translate(0.5 0.5)"/>
</clipPath>
</defs>
</svg>
