<svg width="513" height="513" viewBox="0 0 513 513" fill="none" xmlns="http://www.w3.org/2000/svg">
<g clip-path="url(#clip0_104_2772)">
<path d="M96.5 382.6V293.8C96.5 278.9 102.4 264.7 112.9 254.2L140.2 226.9L197.2 283.9C203.4 290.1 213.6 290.1 219.8 283.9C226 277.7 226 267.5 219.8 261.3L162.8 204.3L204.2 162.9L261.2 219.9C267.4 226.1 277.6 226.1 283.8 219.9C290 213.7 290 203.5 283.8 197.3L226.8 140.3L268.2 98.9L325.2 155.9C331.4 162.1 341.6 162.1 347.8 155.9C354 149.7 354 139.5 347.8 133.3L290.8 76.3L336.3 30.8C355.7 11.4 381.9 0.5 409.3 0.5C466.3 0.5 512.5 46.7 512.5 103.7C512.5 131.1 501.6 157.3 482.3 176.7L258.8 400.1C248.3 410.6 234.1 416.5 219.2 416.5H130.4L41.5 505.5C32.1 514.9 16.9 514.9 7.59995 505.5C-1.70005 496.1 -1.80005 480.9 7.59995 471.6L96.6 382.6H96.5Z" fill="#47535F"/>
</g>
<defs>
<clipPath id="clip0_104_2772">
<rect width="512" height="512" fill="white" transform="translate(0.5 0.5)"/>
</clipPath>
</defs>
</svg>
