<svg width="513" height="513" viewBox="0 0 513 513" fill="none" xmlns="http://www.w3.org/2000/svg">
<g clip-path="url(#clip0_104_2776)">
<path d="M313.9 33.4C339.9 38.6 356.8 63.9 351.6 89.9L349.3 101.3C344 128 334.2 153.4 320.5 176.5H464.5C491 176.5 512.5 198 512.5 224.5C512.5 243 502 259.1 486.6 267.1C497.5 275.9 504.5 289.4 504.5 304.5C504.5 327.9 487.7 347.4 465.6 351.6C470 358.9 472.5 367.4 472.5 376.5C472.5 397.8 458.6 415.9 439.4 422.1C440.1 425.4 440.5 428.9 440.5 432.5C440.5 459 419 480.5 392.5 480.5H295C276 480.5 257.5 474.9 241.7 464.4L203.2 438.7C176.5 420.9 160.5 390.9 160.5 358.8V320.5V272.5V247.6C160.5 218.4 173.8 190.9 196.5 172.6L203.9 166.7C230.4 145.5 248.5 115.7 255.1 82.5L257.4 71.1C262.6 45.1 287.9 28.2 313.9 33.4ZM32.5 192.5H96.5C114.2 192.5 128.5 206.8 128.5 224.5V448.5C128.5 466.2 114.2 480.5 96.5 480.5H32.5C14.8 480.5 0.5 466.2 0.5 448.5V224.5C0.5 206.8 14.8 192.5 32.5 192.5Z" fill="#47535F"/>
</g>
<defs>
<clipPath id="clip0_104_2776">
<rect width="512" height="512" fill="white" transform="translate(0.5 0.5)"/>
</clipPath>
</defs>
</svg>
