<svg width="513" height="513" viewBox="0 0 513 513" fill="none" xmlns="http://www.w3.org/2000/svg">
<g clip-path="url(#clip0_104_2774)">
<path d="M313.9 479.6C339.9 474.4 356.8 449.1 351.6 423.1L349.3 411.7C344 385 334.2 359.6 320.5 336.5H464.5C491 336.5 512.5 315 512.5 288.5C512.5 270 502 253.9 486.6 245.9C497.5 237.1 504.5 223.6 504.5 208.5C504.5 185.1 487.7 165.6 465.6 161.4C470 154.1 472.5 145.6 472.5 136.5C472.5 115.2 458.6 97.1 439.4 90.9C440.1 87.6 440.5 84.1 440.5 80.5C440.5 54 419 32.5 392.5 32.5H295C276 32.5 257.5 38.1 241.7 48.6L203.2 74.3C176.5 92.1 160.5 122.1 160.5 154.2V192.5V240.5V265.4C160.5 294.6 173.8 322.1 196.5 340.4L203.9 346.3C230.4 367.5 248.5 397.3 255.1 430.5L257.4 441.9C262.6 467.9 287.9 484.8 313.9 479.6ZM32.5 384.5H96.5C114.2 384.5 128.5 370.2 128.5 352.5V128.5C128.5 110.8 114.2 96.5 96.5 96.5H32.5C14.8 96.5 0.5 110.8 0.5 128.5V352.5C0.5 370.2 14.8 384.5 32.5 384.5Z" fill="#47535F"/>
</g>
<defs>
<clipPath id="clip0_104_2774">
<rect width="512" height="512" fill="white" transform="translate(0.5 0.5)"/>
</clipPath>
</defs>
</svg>
