<svg width="385" height="513" viewBox="0 0 385 513" fill="none" xmlns="http://www.w3.org/2000/svg">
<g clip-path="url(#clip0_104_2778)">
<path d="M32.5004 32.5C32.5004 14.8 46.8004 0.5 64.5004 0.5H320.5C338.2 0.5 352.5 14.8 352.5 32.5C352.5 50.2 338.2 64.5 320.5 64.5H291L302.4 212.7C339.1 232.6 368.1 265.9 381.9 307.4L382.9 310.4C386.2 320.2 384.5 330.9 378.5 339.2C372.5 347.5 362.8 352.5 352.5 352.5H32.5004C22.2004 352.5 12.6004 347.6 6.5004 339.2C0.400403 330.8 -1.1996 320.1 2.1004 310.4L3.1004 307.4C16.9004 265.9 45.9004 232.6 82.6004 212.7L94.0004 64.5H64.5004C46.8004 64.5 32.5004 50.2 32.5004 32.5ZM160.5 384.5H224.5V480.5C224.5 498.2 210.2 512.5 192.5 512.5C174.8 512.5 160.5 498.2 160.5 480.5V384.5Z" fill="#47535F"/>
</g>
<defs>
<clipPath id="clip0_104_2778">
<rect width="384" height="512" fill="white" transform="translate(0.5 0.5)"/>
</clipPath>
</defs>
</svg>
