<svg width="577" height="513" viewBox="0 0 577 513" fill="none" xmlns="http://www.w3.org/2000/svg">
<g clip-path="url(#clip0_104_2782)">
<path d="M0.5 128.5C0.5 93.2 29.2 64.5 64.5 64.5H512.5C547.8 64.5 576.5 93.2 576.5 128.5V192.5C576.5 201.3 569.1 208.2 560.8 211.1C542 217.6 528.5 235.5 528.5 256.5C528.5 277.5 542 295.4 560.8 301.9C569.1 304.8 576.5 311.7 576.5 320.5V384.5C576.5 419.8 547.8 448.5 512.5 448.5H64.5C29.2 448.5 0.5 419.8 0.5 384.5V320.5C0.5 311.7 7.9 304.8 16.2 301.9C35 295.4 48.5 277.5 48.5 256.5C48.5 235.5 35 217.6 16.2 211.1C7.9 208.2 0.5 201.3 0.5 192.5V128.5Z" fill="#47535F"/>
</g>
<defs>
<clipPath id="clip0_104_2782">
<rect width="576" height="512" fill="white" transform="translate(0.5 0.5)"/>
</clipPath>
</defs>
</svg>
