<svg width="577" height="513" viewBox="0 0 577 513" fill="none" xmlns="http://www.w3.org/2000/svg">
<g clip-path="url(#clip0_104_2780)">
<path d="M64.5 64.5C29.2 64.5 0.5 93.2 0.5 128.5V192.5C0.5 201.3 7.9 208.2 16.2 211.1C35 217.6 48.5 235.5 48.5 256.5C48.5 277.5 35 295.4 16.2 301.9C7.9 304.8 0.5 311.7 0.5 320.5V384.5C0.5 419.8 29.2 448.5 64.5 448.5H512.5C547.8 448.5 576.5 419.8 576.5 384.5V320.5C576.5 311.7 569.1 304.8 560.8 301.9C542 295.4 528.5 277.5 528.5 256.5C528.5 235.5 542 217.6 560.8 211.1C569.1 208.2 576.5 201.3 576.5 192.5V128.5C576.5 93.2 547.8 64.5 512.5 64.5H64.5ZM128.5 176.5V336.5C128.5 345.3 135.7 352.5 144.5 352.5H432.5C441.3 352.5 448.5 345.3 448.5 336.5V176.5C448.5 167.7 441.3 160.5 432.5 160.5H144.5C135.7 160.5 128.5 167.7 128.5 176.5ZM96.5 160.5C96.5 142.8 110.8 128.5 128.5 128.5H448.5C466.2 128.5 480.5 142.8 480.5 160.5V352.5C480.5 370.2 466.2 384.5 448.5 384.5H128.5C110.8 384.5 96.5 370.2 96.5 352.5V160.5Z" fill="#47535F"/>
</g>
<defs>
<clipPath id="clip0_104_2780">
<rect width="576" height="512" fill="white" transform="translate(0.5 0.5)"/>
</clipPath>
</defs>
</svg>
