<svg width="641" height="513" viewBox="0 0 641 513" fill="none" xmlns="http://www.w3.org/2000/svg">
<g clip-path="url(#clip0_104_2784)">
<path d="M128.5 72.5C134.865 72.5 140.97 75.0286 145.471 79.5294C149.971 84.0303 152.5 90.1348 152.5 96.5C152.5 102.865 149.971 108.97 145.471 113.471C140.97 117.971 134.865 120.5 128.5 120.5C122.135 120.5 116.03 117.971 111.529 113.471C107.029 108.97 104.5 102.865 104.5 96.5C104.5 90.1348 107.029 84.0303 111.529 79.5294C116.03 75.0286 122.135 72.5 128.5 72.5ZM160.5 169.8C188.8 157.5 208.5 129.3 208.5 96.5C208.5 52.3 172.7 16.5 128.5 16.5C84.3 16.5 48.5 52.3 48.5 96.5C48.5 129.3 68.2 157.5 96.5 169.8V224.5H32.5C14.8 224.5 0.5 238.8 0.5 256.5C0.5 274.2 14.8 288.5 32.5 288.5H288.5V343.2C260.2 355.5 240.5 383.7 240.5 416.5C240.5 460.7 276.3 496.5 320.5 496.5C364.7 496.5 400.5 460.7 400.5 416.5C400.5 383.7 380.8 355.5 352.5 343.2V288.5H608.5C626.2 288.5 640.5 274.2 640.5 256.5C640.5 238.8 626.2 224.5 608.5 224.5H544.5V169.8C572.8 157.5 592.5 129.3 592.5 96.5C592.5 52.3 556.7 16.5 512.5 16.5C468.3 16.5 432.5 52.3 432.5 96.5C432.5 129.3 452.2 157.5 480.5 169.8V224.5H160.5V169.8ZM488.5 96.5C488.5 90.1348 491.029 84.0303 495.529 79.5294C500.03 75.0286 506.135 72.5 512.5 72.5C518.865 72.5 524.97 75.0286 529.471 79.5294C533.971 84.0303 536.5 90.1348 536.5 96.5C536.5 102.865 533.971 108.97 529.471 113.471C524.97 117.971 518.865 120.5 512.5 120.5C506.135 120.5 500.03 117.971 495.529 113.471C491.029 108.97 488.5 102.865 488.5 96.5ZM320.5 392.5C326.865 392.5 332.97 395.029 337.471 399.529C341.971 404.03 344.5 410.135 344.5 416.5C344.5 422.865 341.971 428.97 337.471 433.471C332.97 437.971 326.865 440.5 320.5 440.5C314.135 440.5 308.03 437.971 303.529 433.471C299.029 428.97 296.5 422.865 296.5 416.5C296.5 410.135 299.029 404.03 303.529 399.529C308.03 395.029 314.135 392.5 320.5 392.5Z" fill="#47535F"/>
</g>
<defs>
<clipPath id="clip0_104_2784">
<rect width="640" height="512" fill="white" transform="translate(0.5 0.5)"/>
</clipPath>
</defs>
</svg>
