<svg width="577" height="513" viewBox="0 0 577 513" fill="none" xmlns="http://www.w3.org/2000/svg">
<g clip-path="url(#clip0_104_2788)">
<path d="M192.5 64.5C86.5 64.5 0.5 150.5 0.5 256.5C0.5 362.5 86.5 448.5 192.5 448.5H384.5C490.5 448.5 576.5 362.5 576.5 256.5C576.5 150.5 490.5 64.5 384.5 64.5H192.5ZM384.5 160.5C409.961 160.5 434.379 170.614 452.382 188.618C470.386 206.621 480.5 231.039 480.5 256.5C480.5 281.961 470.386 306.379 452.382 324.382C434.379 342.386 409.961 352.5 384.5 352.5C359.039 352.5 334.621 342.386 316.618 324.382C298.614 306.379 288.5 281.961 288.5 256.5C288.5 231.039 298.614 206.621 316.618 188.618C334.621 170.614 359.039 160.5 384.5 160.5Z" fill="#47535F"/>
</g>
<defs>
<clipPath id="clip0_104_2788">
<rect width="576" height="512" fill="white" transform="translate(0.5 0.5)"/>
</clipPath>
</defs>
</svg>
