<svg width="449" height="513" viewBox="0 0 449 513" fill="none" xmlns="http://www.w3.org/2000/svg">
<g clip-path="url(#clip0_104_2790)">
<path d="M24.5 0.5C11.2 0.5 0.5 11.2 0.5 24.5C0.5 37.8 11.2 48.5 24.5 48.5H32.5V197.4C30.6 198.8 28.7 200.3 26.9 201.8C11.4 215 0.5 233.4 0.5 256.5C0.5 303.4 14.8 340.6 37.5 369C51.7 386.7 68.6 400.3 86 410.8L66.1 470.4C62.8 480.2 64.5 490.9 70.5 499.2C76.5 507.5 86.2 512.5 96.5 512.5H352.5C362.8 512.5 372.4 507.6 378.5 499.2C384.6 490.8 386.2 480.1 382.9 470.4L363.1 410.9C380.5 400.4 397.4 386.8 411.6 369.1C434.3 340.7 448.6 303.6 448.6 256.6C448.6 233.5 437.7 215.1 422.2 202C420.4 200.5 418.5 199 416.6 197.6V48.5H424.6C437.9 48.5 448.6 37.8 448.6 24.5C448.6 11.2 437.9 0.5 424.6 0.5H24.5ZM384.5 256.8C384.5 257.8 384.2 259.4 380.7 262.4C375.9 266.5 366.7 271.4 351.4 275.8C321 284.5 276.6 288.5 224.5 288.5C172.4 288.5 128 284.5 97.6 275.7C82.3 271.3 73.1 266.4 68.3 262.3C64.8 259.3 64.5 257.7 64.5 256.7V256.4V256.3C64.5 255.3 64.5 253.8 68.3 250.5C73.1 246.4 82.3 241.5 97.6 237.1C128 228.5 172.4 224.5 224.5 224.5C276.6 224.5 321 228.5 351.4 237.3C366.7 241.7 375.9 246.6 380.7 250.7C384.5 253.9 384.5 255.5 384.5 256.5V256.6V256.9V256.8ZM328.7 384.5L328.5 385V384.5H328.7ZM112.5 64.5H144.5C153.3 64.5 160.5 71.7 160.5 80.5C160.5 89.3 153.3 96.5 144.5 96.5H112.5C103.7 96.5 96.5 89.3 96.5 80.5C96.5 71.7 103.7 64.5 112.5 64.5Z" fill="#47535F"/>
</g>
<defs>
<clipPath id="clip0_104_2790">
<rect width="448" height="512" fill="white" transform="translate(0.5 0.5)"/>
</clipPath>
</defs>
</svg>
