<svg width="641" height="513" viewBox="0 0 641 513" fill="none" xmlns="http://www.w3.org/2000/svg">
<g clip-path="url(#clip0_104_2792)">
<path d="M444.7 0.5C397.7 50.1 384.5 127 384.5 192.5C384.5 351.3 357.2 439.5 341.8 476.4C331.8 500.4 308.6 512.5 286.4 512.5H48.5001C37.0001 512.5 26.3001 506.3 20.7001 496.3C15.1001 486.3 15.1001 474 21.1001 464.1C30.9001 446.4 36.5001 425.9 41.6001 406.4C52.8001 363.3 64.5001 294 64.5001 192.5C64.5001 86.5 107.5 0.5 160.5 0.5H444.7ZM512.5 384.5C459.5 384.5 416.5 298.5 416.5 192.5C416.5 86.5 459.5 0.5 512.5 0.5C565.5 0.5 608.5 86.5 608.5 192.5C608.5 298.5 565.5 384.5 512.5 384.5ZM512.5 256.5C530.2 256.5 544.5 227.8 544.5 192.5C544.5 157.2 530.2 128.5 512.5 128.5C494.8 128.5 480.5 157.2 480.5 192.5C480.5 227.8 494.8 256.5 512.5 256.5ZM144.5 208.5C144.5 204.257 142.814 200.187 139.814 197.186C136.813 194.186 132.744 192.5 128.5 192.5C124.257 192.5 120.187 194.186 117.186 197.186C114.186 200.187 112.5 204.257 112.5 208.5C112.5 212.743 114.186 216.813 117.186 219.814C120.187 222.814 124.257 224.5 128.5 224.5C132.744 224.5 136.813 222.814 139.814 219.814C142.814 216.813 144.5 212.743 144.5 208.5ZM208.5 208.5C208.5 204.257 206.814 200.187 203.814 197.186C200.813 194.186 196.744 192.5 192.5 192.5C188.257 192.5 184.187 194.186 181.186 197.186C178.186 200.187 176.5 204.257 176.5 208.5C176.5 212.743 178.186 216.813 181.186 219.814C184.187 222.814 188.257 224.5 192.5 224.5C196.744 224.5 200.813 222.814 203.814 219.814C206.814 216.813 208.5 212.743 208.5 208.5ZM256.5 224.5C260.744 224.5 264.813 222.814 267.814 219.814C270.814 216.813 272.5 212.743 272.5 208.5C272.5 204.257 270.814 200.187 267.814 197.186C264.813 194.186 260.744 192.5 256.5 192.5C252.257 192.5 248.187 194.186 245.186 197.186C242.186 200.187 240.5 204.257 240.5 208.5C240.5 212.743 242.186 216.813 245.186 219.814C248.187 222.814 252.257 224.5 256.5 224.5ZM336.5 208.5C336.5 204.257 334.814 200.187 331.814 197.186C328.813 194.186 324.744 192.5 320.5 192.5C316.257 192.5 312.187 194.186 309.186 197.186C306.186 200.187 304.5 204.257 304.5 208.5C304.5 212.743 306.186 216.813 309.186 219.814C312.187 222.814 316.257 224.5 320.5 224.5C324.744 224.5 328.813 222.814 331.814 219.814C334.814 216.813 336.5 212.743 336.5 208.5Z" fill="#47535F"/>
</g>
<defs>
<clipPath id="clip0_104_2792">
<rect width="640" height="512" fill="white" transform="translate(0.5 0.5)"/>
</clipPath>
</defs>
</svg>
