<svg width="321" height="513" viewBox="0 0 321 513" fill="none" xmlns="http://www.w3.org/2000/svg">
<g clip-path="url(#clip0_104_2796)">
<path d="M0.5 32.5V64.5H320.5V32.5C320.5 14.8 306.2 0.5 288.5 0.5H32.5C14.8 0.5 0.5 14.8 0.5 32.5ZM24.5 96.5H0.5V120.5V488.5C0.5 501.8 11.2 512.5 24.5 512.5C37.8 512.5 48.5 501.8 48.5 488.5V480.5H272.5V488.5C272.5 501.8 283.2 512.5 296.5 512.5C309.8 512.5 320.5 501.8 320.5 488.5V120.5V96.5H296.5H24.5ZM256.5 240.5V304.5C256.5 313.3 249.3 320.5 240.5 320.5C231.7 320.5 224.5 313.3 224.5 304.5V240.5C224.5 231.7 231.7 224.5 240.5 224.5C249.3 224.5 256.5 231.7 256.5 240.5Z" fill="#47535F"/>
</g>
<defs>
<clipPath id="clip0_104_2796">
<rect width="320" height="512" fill="white" transform="translate(0.5 0.5)"/>
</clipPath>
</defs>
</svg>
