<svg width="641" height="513" viewBox="0 0 641 513" fill="none" xmlns="http://www.w3.org/2000/svg">
<g clip-path="url(#clip0_104_2794)">
<path d="M39.2998 5.59976C28.8998 -2.60024 13.7998 -0.700238 5.59976 9.69976C-2.60024 20.0998 -0.700238 35.1998 9.69976 43.3998L601.7 507.4C612.1 515.6 627.2 513.7 635.4 503.3C643.6 492.9 641.7 477.8 631.3 469.6L521.6 383.6C570.4 374.5 608.5 292.4 608.5 192.5C608.5 86.4998 565.5 0.499762 512.5 0.499762C459.5 0.499762 416.5 86.4998 416.5 192.5C416.5 241.6 425.7 286.4 440.9 320.4L381.9 274.2C383.5 249.4 384.5 222.2 384.5 192.6C384.5 127.1 397.7 50.1998 444.7 0.599762H160.5C135.7 0.599762 113.1 19.3998 96.0998 50.1998L39.2998 5.59976ZM367.8 385.9L66.9998 148.9C65.3998 162.9 64.4998 177.5 64.4998 192.5C64.4998 294 52.7998 363.3 41.4998 406.4C36.3998 425.8 30.7998 446.3 20.9998 464.1C15.0998 474 14.8998 486.2 20.5998 496.3C26.2998 506.4 36.9998 512.5 48.4998 512.5H286.4C308.7 512.5 331.8 500.4 341.8 476.4C349.2 458.7 359.3 429.2 367.8 385.8V385.9ZM544.5 192.5C544.5 227.8 530.2 256.5 512.5 256.5C494.8 256.5 480.5 227.8 480.5 192.5C480.5 157.2 494.8 128.5 512.5 128.5C530.2 128.5 544.5 157.2 544.5 192.5Z" fill="#47535F"/>
</g>
<defs>
<clipPath id="clip0_104_2794">
<rect width="640" height="512" fill="white" transform="translate(0.5 0.5)"/>
</clipPath>
</defs>
</svg>
