<svg width="577" height="513" viewBox="0 0 577 513" fill="none" xmlns="http://www.w3.org/2000/svg">
<g clip-path="url(#clip0_104_2798)">
<path d="M32.5 0.5H224.5C242.2 0.5 256.5 14.8 256.5 32.5V64.5H0.5V32.5C0.5 14.8 14.8 0.5 32.5 0.5ZM0.5 96.5H24.5H232.5H256.5V120.5V488.5C256.5 501.8 245.8 512.5 232.5 512.5C219.2 512.5 208.5 501.8 208.5 488.5V480.5H48.5V488.5C48.5 501.8 37.8 512.5 24.5 512.5C11.2 512.5 0.5 501.8 0.5 488.5V120.5V96.5ZM192.5 224.5C183.7 224.5 176.5 231.7 176.5 240.5V304.5C176.5 313.3 183.7 320.5 192.5 320.5C201.3 320.5 208.5 313.3 208.5 304.5V240.5C208.5 231.7 201.3 224.5 192.5 224.5ZM352.5 0.5H544.5C562.2 0.5 576.5 14.8 576.5 32.5V64.5H320.5V32.5C320.5 14.8 334.8 0.5 352.5 0.5ZM320.5 96.5H344.5H552.5H576.5V120.5V488.5C576.5 501.8 565.8 512.5 552.5 512.5C539.2 512.5 528.5 501.8 528.5 488.5V480.5H368.5V488.5C368.5 501.8 357.8 512.5 344.5 512.5C331.2 512.5 320.5 501.8 320.5 488.5V120.5V96.5ZM512.5 224.5C503.7 224.5 496.5 231.7 496.5 240.5V304.5C496.5 313.3 503.7 320.5 512.5 320.5C521.3 320.5 528.5 313.3 528.5 304.5V240.5C528.5 231.7 521.3 224.5 512.5 224.5Z" fill="#47535F"/>
</g>
<defs>
<clipPath id="clip0_104_2798">
<rect width="576" height="512" fill="white" transform="translate(0.5 0.5)"/>
</clipPath>
</defs>
</svg>
