<svg width="513" height="513" viewBox="0 0 513 513" fill="none" xmlns="http://www.w3.org/2000/svg">
<g clip-path="url(#clip0_104_2800)">
<path d="M176.5 88.5V128.5H336.5V88.5C336.5 84.1 332.9 80.5 328.5 80.5H184.5C180.1 80.5 176.5 84.1 176.5 88.5ZM128.5 128.5V88.5C128.5 57.6 153.6 32.5 184.5 32.5H328.5C359.4 32.5 384.5 57.6 384.5 88.5V128.5H412.6C425.3 128.5 437.5 133.6 446.5 142.6L498.4 194.5C507.4 203.5 512.5 215.7 512.5 228.4V304.5H384.5V288.5C384.5 270.8 370.2 256.5 352.5 256.5C334.8 256.5 320.5 270.8 320.5 288.5V304.5H192.5V288.5C192.5 270.8 178.2 256.5 160.5 256.5C142.8 256.5 128.5 270.8 128.5 288.5V304.5H0.5V228.4C0.5 215.7 5.6 203.5 14.6 194.5L66.5 142.6C75.5 133.6 87.7 128.5 100.4 128.5H128.5ZM0.5 416.5V336.5H128.5V352.5C128.5 370.2 142.8 384.5 160.5 384.5C178.2 384.5 192.5 370.2 192.5 352.5V336.5H320.5V352.5C320.5 370.2 334.8 384.5 352.5 384.5C370.2 384.5 384.5 370.2 384.5 352.5V336.5H512.5V416.5C512.5 451.8 483.8 480.5 448.5 480.5H64.5C29.2 480.5 0.5 451.8 0.5 416.5Z" fill="#47535F"/>
</g>
<defs>
<clipPath id="clip0_104_2800">
<rect width="512" height="512" fill="white" transform="translate(0.5 0.5)"/>
</clipPath>
</defs>
</svg>
