<svg width="449" height="513" viewBox="0 0 449 513" fill="none" xmlns="http://www.w3.org/2000/svg">
<path d="M186.6 52.5999C169.8 39.5999 149.2 32.4999 128 32.4999C75.2 32.4999 32.5 75.1999 32.5 128V134.2C32.5 150 36.2 165.5 43.2 179.7L66.7 226.8C71.2 235.7 74.3 245.2 76.1 255L112.8 460.8C114.8 472 124.4 480.2 135.7 480.6C147 481 157.1 473.2 159.7 462.2L188.6 340.9C192.7 324.2 207.5 312.5 224.5 312.5C241.5 312.5 256.3 324.2 260.3 340.8L289.2 462.1C291.8 473.2 301.9 480.9 313.2 480.5C324.5 480.1 334.1 471.9 336.1 460.7L372.8 254.9C374.6 245.1 377.7 235.6 382.2 226.7L405.7 179.6C412.8 165.5 416.4 149.9 416.4 134.1V132C416.4 76.9999 371.8 32.3999 316.8 32.3999C292.7 32.3999 269.4 41.1999 251.2 56.9999L248 59.7999L267.5 74.9999C274.5 80.3999 275.7 90.4999 270.3 97.4999C264.9 104.5 254.8 105.7 247.8 100.3L223.4 81.2999L186.4 52.4999L186.6 52.5999Z" fill="#47535F"/>
</svg>
