<svg width="513" height="513" viewBox="0 0 513 513" fill="none" xmlns="http://www.w3.org/2000/svg">
<g clip-path="url(#clip0_104_2804)">
<path d="M0.5 80.5C0.5 107 22 128.5 48.5 128.5H64.5V192.5H128.5V128.5H224.5V192.5H288.5V128.5H384.5V192.5H448.5V128.5H464.5C491 128.5 512.5 107 512.5 80.5V13.9C512.5 6.5 506.5 0.5 499.1 0.5C497.4 0.5 495.7 0.8 494.1 1.5L445.1 21.1C426.2 28.6 406 32.5 385.7 32.5H127.3C106.9 32.5 86.8 28.6 67.9 21.1L18.9 1.5C17.3 0.9 15.6 0.5 13.9 0.5C6.5 0.5 0.5 6.5 0.5 13.9V80.5ZM64.5 288.5V480.5C64.5 498.2 78.8 512.5 96.5 512.5C114.2 512.5 128.5 498.2 128.5 480.5V288.5H384.5V480.5C384.5 498.2 398.8 512.5 416.5 512.5C434.2 512.5 448.5 498.2 448.5 480.5V288.5H480.5C498.2 288.5 512.5 274.2 512.5 256.5C512.5 238.8 498.2 224.5 480.5 224.5H32.5C14.8 224.5 0.5 238.8 0.5 256.5C0.5 274.2 14.8 288.5 32.5 288.5H64.5Z" fill="#47535F"/>
</g>
<defs>
<clipPath id="clip0_104_2804">
<rect width="512" height="512" fill="white" transform="translate(0.5 0.5)"/>
</clipPath>
</defs>
</svg>
