<svg width="449" height="513" viewBox="0 0 449 513" fill="none" xmlns="http://www.w3.org/2000/svg">
<g clip-path="url(#clip0_104_2806)">
<path d="M0.5 32.5V46.1C0.5 63.2 2.2 80.1 5.5 96.5H358.3C361.5 89.6 365.8 83.2 371.3 77.7L409.9 39.1C414.1 34.9 416.5 29.1 416.5 23.1C416.5 10.6 406.4 0.5 393.9 0.5H32.5C14.8 0.5 0.5 14.8 0.5 32.5ZM352.7 128.5H14.1C26.3 164.4 46.4 197.2 72.9 224.5H412.5L365.3 161.6C358 151.9 353.7 140.4 352.7 128.5ZM126.7 266.7L243.1 335.2C251.3 340 258.9 345.9 265.6 352.5H445.5C447.5 342.7 448.5 332.6 448.5 322.4C448.5 299.4 443.2 276.9 433.2 256.5H110.7C115.9 260.1 121.2 263.5 126.7 266.7ZM288.5 384.5C298.8 405.9 302.3 430 298.4 453.5L292.5 489.2C290.5 501.4 299.9 512.6 312.3 512.6C317.6 512.6 322.7 510.5 326.5 506.7L404.7 428.5C417.5 415.7 427.8 400.8 435.1 384.6H288.5V384.5Z" fill="#47535F"/>
</g>
<defs>
<clipPath id="clip0_104_2806">
<rect width="448" height="512" fill="white" transform="translate(0.5 0.5)"/>
</clipPath>
</defs>
</svg>
