<svg width="577" height="513" viewBox="0 0 577 513" fill="none" xmlns="http://www.w3.org/2000/svg">
<g clip-path="url(#clip0_104_2808)">
<path d="M80.8 44.5001C70.3 70.4001 64.5 98.7001 64.5 128.5C64.5 158.3 70.3 186.6 80.8 212.5C87.4 228.9 79.5 247.5 63.1 254.2C46.7 260.9 28.1 252.9 21.4 236.5C7.9 203.1 0.5 166.6 0.5 128.5C0.5 90.4001 7.9 53.9001 21.4 20.5001C28.1 4.10013 46.7 -3.79987 63.1 2.80013C79.5 9.40013 87.4 28.1001 80.8 44.5001ZM555.6 20.5001C569.1 53.9001 576.5 90.4001 576.5 128.5C576.5 166.6 569.1 203.1 555.6 236.5C549 252.9 530.3 260.8 513.9 254.2C497.5 247.6 489.6 228.9 496.2 212.5C506.7 186.6 512.5 158.3 512.5 128.5C512.5 98.7001 506.7 70.4001 496.2 44.5001C489.6 28.1001 497.5 9.50013 513.9 2.80013C530.3 -3.89987 548.9 4.10013 555.6 20.5001ZM352.5 128.5C352.5 152.2 339.6 172.9 320.5 183.9V480.5C320.5 498.2 306.2 512.5 288.5 512.5C270.8 512.5 256.5 498.2 256.5 480.5V183.9C237.4 172.8 224.5 152.2 224.5 128.5C224.5 93.2001 253.2 64.5001 288.5 64.5001C323.8 64.5001 352.5 93.2001 352.5 128.5ZM171.1 77.3001C164.3 92.9001 160.5 110.2 160.5 128.5C160.5 146.8 164.3 164.1 171.1 179.7C178.2 195.9 170.8 214.8 154.6 221.8C138.4 228.8 119.5 221.5 112.5 205.3C102.2 181.7 96.5 155.7 96.5 128.5C96.5 101.3 102.2 75.3001 112.5 51.7001C119.6 35.5001 138.4 28.1001 154.6 35.2001C170.8 42.3001 178.2 61.1001 171.1 77.3001ZM464.5 51.7001C474.8 75.3001 480.5 101.3 480.5 128.5C480.5 155.7 474.8 181.7 464.5 205.3C457.4 221.5 438.6 228.9 422.4 221.8C406.2 214.7 398.8 195.9 405.9 179.7C412.7 164.1 416.5 146.8 416.5 128.5C416.5 110.2 412.7 92.9001 405.9 77.3001C398.8 61.1001 406.2 42.2001 422.4 35.2001C438.6 28.2001 457.5 35.5001 464.5 51.7001Z" fill="#47535F"/>
</g>
<defs>
<clipPath id="clip0_104_2808">
<rect width="576" height="512" fill="white" transform="translate(0.5 0.5)"/>
</clipPath>
</defs>
</svg>
