<svg width="513" height="513" viewBox="0 0 513 513" fill="none" xmlns="http://www.w3.org/2000/svg">
<g clip-path="url(#clip0_104_2812)">
<path d="M242.2 3.8999C251.2 -0.600098 261.8 -0.600098 270.8 3.8999L430.8 83.8999C446.6 91.7999 453 111 445.1 126.8C439.5 138 428.2 144.5 416.5 144.5V224.5C416.5 242.2 402.2 256.5 384.5 256.5H379.6L411.6 448.5H480.5C498.2 448.5 512.5 462.8 512.5 480.5C512.5 498.2 498.2 512.5 480.5 512.5H385C384.6 512.5 384.2 512.5 383.9 512.5H129.1C128.7 512.5 128.3 512.5 128 512.5H32.5C14.8 512.5 0.5 498.2 0.5 480.5C0.5 462.8 14.8 448.5 32.5 448.5H101.4L133.4 256.5H128.5C110.8 256.5 96.5 242.2 96.5 224.5V144.5C84.8 144.5 73.5 138 67.9 126.8C60 111 66.4 91.7999 82.2 83.8999L242.2 3.8999ZM315 448.5L256.5 399.7L198 448.5H315ZM198.3 256.5L193.6 284.8L256.5 337.3L319.4 284.8L314.7 256.5H198.3ZM184.4 339.7L173.2 406.7L219 368.5L184.4 339.7ZM294 368.5L339.8 406.6L328.6 339.6L294 368.5ZM176.5 128.5C167.7 128.5 160.5 135.7 160.5 144.5C160.5 153.3 167.7 160.5 176.5 160.5H336.5C345.3 160.5 352.5 153.3 352.5 144.5C352.5 135.7 345.3 128.5 336.5 128.5H176.5Z" fill="#47535F"/>
</g>
<defs>
<clipPath id="clip0_104_2812">
<rect width="512" height="512" fill="white" transform="translate(0.5 0.5)"/>
</clipPath>
</defs>
</svg>
