<svg width="577" height="513" viewBox="0 0 577 513" fill="none" xmlns="http://www.w3.org/2000/svg">
<g clip-path="url(#clip0_104_2810)">
<path d="M63.1 2.80006C46.7 -3.79994 28.1 4.10006 21.4 20.5001C7.9 53.9001 0.5 90.4001 0.5 128.5C0.5 166.6 7.9 203.1 21.4 236.5C28 252.9 46.7 260.8 63.1 254.2C79.5 247.6 87.4 228.9 80.8 212.5C70.3 186.6 64.5 158.3 64.5 128.5C64.5 98.7001 70.3 70.4001 80.8 44.5001C87.4 28.1001 79.5 9.50006 63.1 2.80006ZM513.9 2.80006C497.5 9.50006 489.6 28.1001 496.2 44.5001C506.7 70.4001 512.5 98.7001 512.5 128.5C512.5 158.3 506.7 186.6 496.2 212.5C489.6 228.9 497.5 247.5 513.9 254.2C530.3 260.9 548.9 252.9 555.6 236.5C569.1 203.1 576.5 166.6 576.5 128.5C576.5 90.4001 569.1 53.9001 555.6 20.5001C548.9 4.10006 530.3 -3.79994 513.9 2.80006ZM340.6 165.7C348.1 155.2 352.5 142.4 352.5 128.5C352.5 93.2001 323.8 64.5001 288.5 64.5001C253.2 64.5001 224.5 93.2001 224.5 128.5C224.5 142.4 228.9 155.2 236.4 165.7L99.4 467.3C92.1 483.4 99.2 502.4 115.3 509.7C131.4 517 150.4 509.9 157.7 493.8L178.2 448.5H398.8L419.4 493.7C426.7 509.8 445.7 516.9 461.8 509.6C477.9 502.3 485 483.3 477.7 467.2L340.6 165.7ZM369.7 384.5H207.3L221.8 352.5H355.2L369.7 384.5ZM288.5 205.8L326.1 288.5H250.9L288.5 205.8ZM163.8 74.1001C169.1 62.0001 163.6 47.8001 151.4 42.5001C139.2 37.2001 125.1 42.7001 119.8 54.9001C110 77.5001 104.5 102.4 104.5 128.5C104.5 154.6 110 179.5 119.8 202.1C125.1 214.2 139.3 219.8 151.4 214.5C163.5 209.2 169.1 195 163.8 182.9C156.5 166.3 152.5 147.9 152.5 128.5C152.5 109.1 156.5 90.7001 163.8 74.1001ZM457.2 54.9001C451.9 42.8001 437.7 37.2001 425.6 42.5001C413.5 47.8001 407.9 62.0001 413.2 74.1001C420.5 90.7001 424.5 109.1 424.5 128.5C424.5 147.9 420.5 166.3 413.2 182.9C407.9 195 413.4 209.2 425.6 214.5C437.8 219.8 451.9 214.3 457.2 202.1C467 179.5 472.5 154.6 472.5 128.5C472.5 102.4 467 77.5001 457.2 54.9001Z" fill="#47535F"/>
</g>
<defs>
<clipPath id="clip0_104_2810">
<rect width="576" height="512" fill="white" transform="translate(0.5 0.5)"/>
</clipPath>
</defs>
</svg>
