<svg width="641" height="513" viewBox="0 0 641 513" fill="none" xmlns="http://www.w3.org/2000/svg">
<g clip-path="url(#clip0_104_2814)">
<path d="M96.5 64.5C96.5 29.2 125.2 0.5 160.5 0.5H266.8C293 0.5 316.5 16.4 326.2 40.7L374.2 160.5H480.5V126.7C480.5 101.9 486.3 77.4 497.4 55.1L499.9 50.1C507.8 34.3 527 27.9 542.8 35.8C558.6 43.7 565 62.9 557.1 78.7L554.6 83.7C547.9 97 544.5 111.7 544.5 126.6V160.5H600.5C622.6 160.5 640.5 178.4 640.5 200.5V245.9C640.5 262.4 632 277.8 617.9 286.6L574.6 313.7C560.4 307.8 544.8 304.5 528.5 304.5C489.2 304.5 454.4 323.4 432.5 352.5H352.5C352.5 370.2 338.2 384.5 320.5 384.5H312.3C310.6 389.3 308.6 394 306.5 398.6L312.3 404.4C324.8 416.9 324.8 437.2 312.3 449.7L289.7 472.3C277.2 484.8 256.9 484.8 244.4 472.3L238.6 466.5C234 468.7 229.3 470.6 224.5 472.3V480.5C224.5 498.2 210.2 512.5 192.5 512.5H160.5C142.8 512.5 128.5 498.2 128.5 480.5V472.3C123.7 470.6 119 468.6 114.4 466.5L108.6 472.3C96.1 484.8 75.8 484.8 63.3 472.3L40.7 449.6C28.2 437.1 28.2 416.8 40.7 404.3L46.5 398.5C44.3 393.9 42.4 389.2 40.7 384.4H32.5C14.8 384.4 0.5 370.1 0.5 352.4V320.5C0.5 302.8 14.8 288.5 32.5 288.5H40.7C42.4 283.7 44.4 279 46.5 274.4L40.7 268.6C28.2 256.1 28.2 235.8 40.7 223.3L63.3 200.7C72.3 191.7 85.2 189.2 96.4 193.1V192.5V160.5V64.5H96.5ZM266.8 64.5H160.5V160.5H192.5H305.2L266.8 64.5ZM176.5 256.5C155.283 256.5 134.934 264.929 119.931 279.931C104.929 294.934 96.5 315.283 96.5 336.5C96.5 357.717 104.929 378.066 119.931 393.069C134.934 408.071 155.283 416.5 176.5 416.5C197.717 416.5 218.066 408.071 233.069 393.069C248.071 378.066 256.5 357.717 256.5 336.5C256.5 315.283 248.071 294.934 233.069 279.931C218.066 264.929 197.717 256.5 176.5 256.5ZM528.5 448.5C534.865 448.5 540.97 445.971 545.471 441.471C549.971 436.97 552.5 430.865 552.5 424.5C552.5 418.135 549.971 412.03 545.471 407.529C540.97 403.029 534.865 400.5 528.5 400.5C522.135 400.5 516.03 403.029 511.529 407.529C507.029 412.03 504.5 418.135 504.5 424.5C504.5 430.865 507.029 436.97 511.529 441.471C516.03 445.971 522.135 448.5 528.5 448.5ZM528.5 512.5C479.9 512.5 440.5 473.1 440.5 424.5C440.5 394.7 455.3 368.4 477.9 352.5C492.2 342.4 509.7 336.5 528.5 336.5C531.2 336.5 533.8 336.6 536.4 336.8C581.3 340.8 616.5 378.5 616.5 424.5C616.5 473.1 577.1 512.5 528.5 512.5Z" fill="#47535F"/>
</g>
<defs>
<clipPath id="clip0_104_2814">
<rect width="640" height="512" fill="white" transform="translate(0.5 0.5)"/>
</clipPath>
</defs>
</svg>
