<svg width="641" height="513" viewBox="0 0 641 513" fill="none" xmlns="http://www.w3.org/2000/svg">
<g clip-path="url(#clip0_104_2816)">
<path d="M346.1 109.3C337.8 98.3001 323.4 93.8001 310.4 98.1001C297.4 102.4 288.5 114.7 288.5 128.5V384.5C288.5 402.2 302.8 416.5 320.5 416.5C338.2 416.5 352.5 402.2 352.5 384.5V224.5L438.9 339.7C444.9 347.8 454.4 352.5 464.5 352.5C474.6 352.5 484.1 347.8 490.1 339.7L576.5 224.5V384.5C576.5 402.2 590.8 416.5 608.5 416.5C626.2 416.5 640.5 402.2 640.5 384.5V128.5C640.5 114.7 631.7 102.5 618.6 98.1001C605.5 93.7001 591.1 98.2001 582.9 109.3L464.5 267.2L346.1 109.3ZM0.5 128.5C0.5 146.2 14.8 160.5 32.5 160.5H96.5V384.5C96.5 402.2 110.8 416.5 128.5 416.5C146.2 416.5 160.5 402.2 160.5 384.5V160.5H224.5C242.2 160.5 256.5 146.2 256.5 128.5C256.5 110.8 242.2 96.5001 224.5 96.5001H32.5C14.8 96.5001 0.5 110.8 0.5 128.5Z" fill="#47535F"/>
</g>
<defs>
<clipPath id="clip0_104_2816">
<rect width="640" height="512" fill="white" transform="translate(0.5 0.5)"/>
</clipPath>
</defs>
</svg>
