<svg width="321" height="513" viewBox="0 0 321 513" fill="none" xmlns="http://www.w3.org/2000/svg">
<g clip-path="url(#clip0_104_2818)">
<path d="M64.5 0.5C29.2 0.5 0.5 29.2 0.5 64.5V352.5C0.5 440.9 72.1 512.5 160.5 512.5C248.9 512.5 320.5 440.9 320.5 352.5V64.5C320.5 29.2 291.8 0.5 256.5 0.5H64.5ZM160.5 416.5C147.77 416.5 135.561 411.443 126.559 402.441C117.557 393.439 112.5 381.23 112.5 368.5C112.5 355.77 117.557 343.561 126.559 334.559C135.561 325.557 147.77 320.5 160.5 320.5C173.23 320.5 185.439 325.557 194.441 334.559C203.443 343.561 208.5 355.77 208.5 368.5C208.5 381.23 203.443 393.439 194.441 402.441C185.439 411.443 173.23 416.5 160.5 416.5ZM208.5 240.5C208.5 253.23 203.443 265.439 194.441 274.441C185.439 283.443 173.23 288.5 160.5 288.5C147.77 288.5 135.561 283.443 126.559 274.441C117.557 265.439 112.5 253.23 112.5 240.5C112.5 227.77 117.557 215.561 126.559 206.559C135.561 197.557 147.77 192.5 160.5 192.5C173.23 192.5 185.439 197.557 194.441 206.559C203.443 215.561 208.5 227.77 208.5 240.5ZM160.5 160.5C154.197 160.5 147.955 159.258 142.131 156.846C136.308 154.434 131.016 150.898 126.559 146.441C122.102 141.984 118.566 136.692 116.154 130.869C113.742 125.045 112.5 118.803 112.5 112.5C112.5 106.197 113.742 99.9548 116.154 94.1312C118.566 88.3076 122.102 83.0161 126.559 78.5589C131.016 74.1017 136.308 70.566 142.131 68.1538C147.955 65.7416 154.197 64.5 160.5 64.5C166.803 64.5 173.045 65.7416 178.869 68.1538C184.692 70.566 189.984 74.1017 194.441 78.5589C198.898 83.0161 202.434 88.3076 204.846 94.1312C207.258 99.9548 208.5 106.197 208.5 112.5C208.5 118.803 207.258 125.045 204.846 130.869C202.434 136.692 198.898 141.984 194.441 146.441C189.984 150.898 184.692 154.434 178.869 156.846C173.045 159.258 166.803 160.5 160.5 160.5Z" fill="#47535F"/>
</g>
<defs>
<clipPath id="clip0_104_2818">
<rect width="320" height="512" fill="white" transform="translate(0.5 0.5)"/>
</clipPath>
</defs>
</svg>
