<svg width="449" height="513" viewBox="0 0 449 513" fill="none" xmlns="http://www.w3.org/2000/svg">
<g clip-path="url(#clip0_104_2826)">
<path d="M87.299 48.5C75.099 48.5 63.699 54 56.099 63.5L43.199 79.5C34.999 89.8 19.899 91.5 9.49903 83.2C-0.90097 74.9 -2.50097 59.9 5.79903 49.5L18.499 33.5C35.199 12.7 60.499 0.5 87.299 0.5H361.699C388.399 0.5 413.699 12.7 430.399 33.5L443.199 49.5C451.499 59.9 449.799 75 439.399 83.2C428.999 91.4 413.899 89.8 405.699 79.5L392.999 63.5C385.399 54 373.899 48.5 361.799 48.5H248.499V96.5H288.499C341.499 96.5 384.499 139.5 384.499 192.5V352.5C384.499 383.1 370.199 410.3 347.899 427.9L413.399 493.4C420.499 500.5 415.499 512.5 405.499 512.5H365.799C357.299 512.5 349.199 509.1 343.199 503.1L288.499 448.5H160.499L105.899 503.1C99.899 509.1 91.799 512.5 83.299 512.5H43.499C33.499 512.5 28.499 500.4 35.599 493.4L101.099 427.9C78.799 410.3 64.499 383.1 64.499 352.5V192.5C64.499 139.5 107.499 96.5 160.499 96.5H200.499V48.5H87.299ZM160.499 160.5C142.799 160.5 128.499 174.8 128.499 192.5V224.5C128.499 242.2 142.799 256.5 160.499 256.5H288.499C306.199 256.5 320.499 242.2 320.499 224.5V192.5C320.499 174.8 306.199 160.5 288.499 160.5H160.499ZM192.499 352.5C192.499 344.013 189.128 335.874 183.126 329.873C177.125 323.871 168.986 320.5 160.499 320.5C152.012 320.5 143.873 323.871 137.872 329.873C131.87 335.874 128.499 344.013 128.499 352.5C128.499 360.987 131.87 369.126 137.872 375.127C143.873 381.129 152.012 384.5 160.499 384.5C168.986 384.5 177.125 381.129 183.126 375.127C189.128 369.126 192.499 360.987 192.499 352.5ZM288.499 384.5C296.986 384.5 305.125 381.129 311.126 375.127C317.128 369.126 320.499 360.987 320.499 352.5C320.499 344.013 317.128 335.874 311.126 329.873C305.125 323.871 296.986 320.5 288.499 320.5C280.012 320.5 271.873 323.871 265.872 329.873C259.87 335.874 256.499 344.013 256.499 352.5C256.499 360.987 259.87 369.126 265.872 375.127C271.873 381.129 280.012 384.5 288.499 384.5Z" fill="#47535F"/>
</g>
<defs>
<clipPath id="clip0_104_2826">
<rect width="448" height="512" fill="white" transform="translate(0.5 0.5)"/>
</clipPath>
</defs>
</svg>
