<svg width="449" height="513" viewBox="0 0 449 513" fill="none" xmlns="http://www.w3.org/2000/svg">
<g clip-path="url(#clip0_104_2822)">
<path d="M96.5 0.5C43.5 0.5 0.5 43.5 0.5 96.5V352.5C0.5 400.5 35.7 440.2 81.6 447.4L35.6 493.4C28.6 500.4 33.6 512.5 43.5 512.5H83.2C91.7 512.5 99.8 509.1 105.8 503.1L160.5 448.5H288.5L343.1 503.1C349.1 509.1 357.2 512.5 365.7 512.5H405.5C415.5 512.5 420.5 500.4 413.4 493.4L367.4 447.4C413.4 440.3 448.5 400.5 448.5 352.5V96.5C448.5 43.5 405.5 0.5 352.5 0.5H96.5ZM64.5 96.5C64.5 78.8 78.8 64.5 96.5 64.5H352.5C370.2 64.5 384.5 78.8 384.5 96.5V192.5C384.5 210.2 370.2 224.5 352.5 224.5H96.5C78.8 224.5 64.5 210.2 64.5 192.5V96.5ZM224.5 288.5C237.23 288.5 249.439 293.557 258.441 302.559C267.443 311.561 272.5 323.77 272.5 336.5C272.5 349.23 267.443 361.439 258.441 370.441C249.439 379.443 237.23 384.5 224.5 384.5C211.77 384.5 199.561 379.443 190.559 370.441C181.557 361.439 176.5 349.23 176.5 336.5C176.5 323.77 181.557 311.561 190.559 302.559C199.561 293.557 211.77 288.5 224.5 288.5Z" fill="#47535F"/>
</g>
<defs>
<clipPath id="clip0_104_2822">
<rect width="448" height="512" fill="white" transform="translate(0.5 0.5)"/>
</clipPath>
</defs>
</svg>
