<svg width="641" height="513" viewBox="0 0 641 513" fill="none" xmlns="http://www.w3.org/2000/svg">
<g clip-path="url(#clip0_104_2820)">
<path d="M48.5 32.5C22 32.5 0.5 54 0.5 80.5V336.5C0.5 363 22 384.5 48.5 384.5H65.6C73.4 330.2 120 288.5 176.5 288.5C233 288.5 279.6 330.2 287.4 384.5H488.5H496.5H608.5C626.2 384.5 640.5 370.2 640.5 352.5C640.5 334.8 626.2 320.5 608.5 320.5H544.5V80.5C544.5 54 523 32.5 496.5 32.5H48.5ZM80.5 96.5C89.3 96.5 96.5 103.7 96.5 112.5V243.7C85.1 249.6 74.3 256.6 64.5 264.7V112.5C64.5 103.7 71.7 96.5 80.5 96.5ZM176.5 224.5C171.1 224.5 165.8 224.7 160.5 225.2V112.5C160.5 103.7 167.7 96.5 176.5 96.5C185.3 96.5 192.5 103.7 192.5 112.5V225.2C187.2 224.7 181.9 224.5 176.5 224.5ZM256.5 243.7V112.5C256.5 103.7 263.7 96.5 272.5 96.5C281.3 96.5 288.5 103.7 288.5 112.5V264.7C278.7 256.6 267.9 249.5 256.5 243.7ZM368.5 96.5C377.3 96.5 384.5 103.7 384.5 112.5V304.5C384.5 313.3 377.3 320.5 368.5 320.5C359.7 320.5 352.5 313.3 352.5 304.5V112.5C352.5 103.7 359.7 96.5 368.5 96.5ZM480.5 112.5V304.5C480.5 313.3 473.3 320.5 464.5 320.5C455.7 320.5 448.5 313.3 448.5 304.5V112.5C448.5 103.7 455.7 96.5 464.5 96.5C473.3 96.5 480.5 103.7 480.5 112.5ZM176.5 480.5C197.717 480.5 218.066 472.071 233.069 457.069C248.071 442.066 256.5 421.717 256.5 400.5C256.5 379.283 248.071 358.934 233.069 343.931C218.066 328.929 197.717 320.5 176.5 320.5C155.283 320.5 134.934 328.929 119.931 343.931C104.929 358.934 96.5 379.283 96.5 400.5C96.5 421.717 104.929 442.066 119.931 457.069C134.934 472.071 155.283 480.5 176.5 480.5ZM176.5 368.5C184.987 368.5 193.126 371.871 199.127 377.873C205.129 383.874 208.5 392.013 208.5 400.5C208.5 408.987 205.129 417.126 199.127 423.127C193.126 429.129 184.987 432.5 176.5 432.5C168.013 432.5 159.874 429.129 153.873 423.127C147.871 417.126 144.5 408.987 144.5 400.5C144.5 392.013 147.871 383.874 153.873 377.873C159.874 371.871 168.013 368.5 176.5 368.5Z" fill="#47535F"/>
</g>
<defs>
<clipPath id="clip0_104_2820">
<rect width="640" height="512" fill="white" transform="translate(0.5 0.5)"/>
</clipPath>
</defs>
</svg>
