<svg width="449" height="513" viewBox="0 0 449 513" fill="none" xmlns="http://www.w3.org/2000/svg">
<g clip-path="url(#clip0_104_2824)">
<path d="M96.5 0.5C43.5 0.5 0.5 43.5 0.5 96.5V352.5C0.5 400.5 35.7 440.2 81.6 447.4L35.6 493.4C28.6 500.4 33.6 512.5 43.5 512.5H83.2C91.7 512.5 99.8 509.1 105.8 503.1L160.5 448.5H288.5L343.1 503.1C349.1 509.1 357.2 512.5 365.7 512.5H405.5C415.5 512.5 420.5 500.4 413.4 493.4L367.4 447.4C413.4 440.3 448.5 400.5 448.5 352.5V96.5C448.5 43.5 405.5 0.5 352.5 0.5H96.5ZM64.5 128.5C64.5 110.8 78.8 96.5 96.5 96.5H176.5C194.2 96.5 208.5 110.8 208.5 128.5V224.5C208.5 242.2 194.2 256.5 176.5 256.5H96.5C78.8 256.5 64.5 242.2 64.5 224.5V128.5ZM272.5 96.5H352.5C370.2 96.5 384.5 110.8 384.5 128.5V224.5C384.5 242.2 370.2 256.5 352.5 256.5H272.5C254.8 256.5 240.5 242.2 240.5 224.5V128.5C240.5 110.8 254.8 96.5 272.5 96.5ZM64.5 352.5C64.5 344.013 67.8714 335.874 73.8726 329.873C79.8737 323.871 88.0131 320.5 96.5 320.5C104.987 320.5 113.126 323.871 119.127 329.873C125.129 335.874 128.5 344.013 128.5 352.5C128.5 360.987 125.129 369.126 119.127 375.127C113.126 381.129 104.987 384.5 96.5 384.5C88.0131 384.5 79.8737 381.129 73.8726 375.127C67.8714 369.126 64.5 360.987 64.5 352.5ZM352.5 320.5C360.987 320.5 369.126 323.871 375.127 329.873C381.129 335.874 384.5 344.013 384.5 352.5C384.5 360.987 381.129 369.126 375.127 375.127C369.126 381.129 360.987 384.5 352.5 384.5C344.013 384.5 335.874 381.129 329.873 375.127C323.871 369.126 320.5 360.987 320.5 352.5C320.5 344.013 323.871 335.874 329.873 329.873C335.874 323.871 344.013 320.5 352.5 320.5Z" fill="#47535F"/>
</g>
<defs>
<clipPath id="clip0_104_2824">
<rect width="448" height="512" fill="white" transform="translate(0.5 0.5)"/>
</clipPath>
</defs>
</svg>
