<svg width="513" height="513" viewBox="0 0 513 513" fill="none" xmlns="http://www.w3.org/2000/svg">
<g clip-path="url(#clip0_104_2828)">
<path d="M112.5 0.5C119 0.5 124.8 4.4 127.3 10.4C129.8 16.4 128.4 23.3 123.8 27.8L92.8 58.8L112.5 78.6L119.5 71.6C128.9 62.2 144.1 62.2 153.4 71.6C162.7 81 162.8 96.2 153.4 105.5L146.4 112.5L161.6 127.7C188.2 108.1 221 96.5 256.5 96.5C292 96.5 324.8 108.1 351.4 127.7L420.2 58.9L389.2 27.9C384.6 23.3 383.3 16.4 385.7 10.5C388.1 4.6 394 0.6 400.5 0.6H496.5C505.3 0.6 512.5 7.8 512.5 16.6V112.6C512.5 119.1 508.6 124.9 502.6 127.4C496.6 129.9 489.7 128.5 485.2 123.9L454.2 92.9L385.4 161.7C404.9 188.2 416.5 221 416.5 256.5C416.5 336.7 357.5 403.1 280.5 414.7V432.5H296.5C309.8 432.5 320.5 443.2 320.5 456.5C320.5 469.8 309.8 480.5 296.5 480.5H280.5V488.5C280.5 501.8 269.8 512.5 256.5 512.5C243.2 512.5 232.5 501.8 232.5 488.5V480.5H216.5C203.2 480.5 192.5 469.8 192.5 456.5C192.5 443.2 203.2 432.5 216.5 432.5H232.5V414.7C155.5 403.1 96.5 336.7 96.5 256.5C96.5 221 108.1 188.2 127.7 161.6L112.5 146.4L105.5 153.4C96.1 162.8 80.9 162.8 71.6 153.4C62.3 144 62.2 128.8 71.6 119.5L78.6 112.5L58.8 92.8L27.8 123.8C23.2 128.4 16.3 129.7 10.4 127.3C4.5 124.9 0.5 119 0.5 112.5V16.5C0.5 7.7 7.7 0.5 16.5 0.5H112.5ZM352.5 256.5C352.5 231.039 342.386 206.621 324.382 188.618C306.379 170.614 281.961 160.5 256.5 160.5C231.039 160.5 206.621 170.614 188.618 188.618C170.614 206.621 160.5 231.039 160.5 256.5C160.5 281.961 170.614 306.379 188.618 324.382C206.621 342.386 231.039 352.5 256.5 352.5C281.961 352.5 306.379 342.386 324.382 324.382C342.386 306.379 352.5 281.961 352.5 256.5Z" fill="#47535F"/>
</g>
<defs>
<clipPath id="clip0_104_2828">
<rect width="512" height="512" fill="white" transform="translate(0.5 0.5)"/>
</clipPath>
</defs>
</svg>
