<svg width="449" height="513" viewBox="0 0 449 513" fill="none" xmlns="http://www.w3.org/2000/svg">
<g clip-path="url(#clip0_104_2834)">
<path d="M135.7 18.2C141.1 7.3 152.2 0.5 164.3 0.5H284.7C296.8 0.5 307.9 7.3 313.3 18.2L320.5 32.5H416.5C434.2 32.5 448.5 46.8 448.5 64.5C448.5 82.2 434.2 96.5 416.5 96.5H32.5C14.8 96.5 0.5 82.2 0.5 64.5C0.5 46.8 14.8 32.5 32.5 32.5H128.5L135.7 18.2ZM32.5 128.5H416.5V448.5C416.5 483.8 387.8 512.5 352.5 512.5H96.5C61.2 512.5 32.5 483.8 32.5 448.5V128.5ZM128.5 192.5C119.7 192.5 112.5 199.7 112.5 208.5V432.5C112.5 441.3 119.7 448.5 128.5 448.5C137.3 448.5 144.5 441.3 144.5 432.5V208.5C144.5 199.7 137.3 192.5 128.5 192.5ZM224.5 192.5C215.7 192.5 208.5 199.7 208.5 208.5V432.5C208.5 441.3 215.7 448.5 224.5 448.5C233.3 448.5 240.5 441.3 240.5 432.5V208.5C240.5 199.7 233.3 192.5 224.5 192.5ZM320.5 192.5C311.7 192.5 304.5 199.7 304.5 208.5V432.5C304.5 441.3 311.7 448.5 320.5 448.5C329.3 448.5 336.5 441.3 336.5 432.5V208.5C336.5 199.7 329.3 192.5 320.5 192.5Z" fill="#47535F"/>
</g>
<defs>
<clipPath id="clip0_104_2834">
<rect width="448" height="512" fill="white" transform="translate(0.5 0.5)"/>
</clipPath>
</defs>
</svg>
