<svg width="449" height="513" viewBox="0 0 449 513" fill="none" xmlns="http://www.w3.org/2000/svg">
<g clip-path="url(#clip0_104_2836)">
<path d="M164.3 0.5H284.7C296.8 0.5 307.9 7.3 313.3 18.2L320.5 32.5H416.5C434.2 32.5 448.5 46.8 448.5 64.5C448.5 82.2 434.2 96.5 416.5 96.5H32.5C14.8 96.5 0.5 82.2 0.5 64.5C0.5 46.8 14.8 32.5 32.5 32.5H128.5L135.7 18.2C141.1 7.3 152.2 0.5 164.3 0.5ZM32.5 128.5H416.5V448.5C416.5 483.8 387.8 512.5 352.5 512.5H96.5C61.2 512.5 32.5 483.8 32.5 448.5V128.5ZM224.5 192.5C218.1 192.5 212 195 207.5 199.5L127.5 279.5C118.1 288.9 118.1 304.1 127.5 313.4C136.9 322.7 152.1 322.8 161.4 313.4L200.4 274.4V408.5C200.4 421.8 211.1 432.5 224.4 432.5C237.7 432.5 248.4 421.8 248.4 408.5V274.4L287.4 313.4C296.8 322.8 312 322.8 321.3 313.4C330.6 304 330.7 288.8 321.3 279.5L241.3 199.5C236.8 195 230.7 192.5 224.3 192.5H224.5Z" fill="#47535F"/>
</g>
<defs>
<clipPath id="clip0_104_2836">
<rect width="448" height="512" fill="white" transform="translate(0.5 0.5)"/>
</clipPath>
</defs>
</svg>
