<svg width="449" height="513" viewBox="0 0 449 513" fill="none" xmlns="http://www.w3.org/2000/svg">
<g clip-path="url(#clip0_104_2830)">
<path d="M135.7 18.2L128.5 32.5H32.5C14.8 32.5 0.5 46.8 0.5 64.5C0.5 82.2 14.8 96.5 32.5 96.5H416.5C434.2 96.5 448.5 82.2 448.5 64.5C448.5 46.8 434.2 32.5 416.5 32.5H320.5L313.3 18.2C307.9 7.3 296.8 0.5 284.7 0.5H164.3C152.2 0.5 141.1 7.3 135.7 18.2ZM416.5 128.5H32.5L53.7 467.5C55.3 492.8 76.3 512.5 101.6 512.5H347.4C372.7 512.5 393.7 492.8 395.3 467.5L416.5 128.5Z" fill="#47535F"/>
</g>
<defs>
<clipPath id="clip0_104_2830">
<rect width="448" height="512" fill="white" transform="translate(0.5 0.5)"/>
</clipPath>
</defs>
</svg>
