<svg width="513" height="513" viewBox="0 0 513 513" fill="none" xmlns="http://www.w3.org/2000/svg">
<g clip-path="url(#clip0_104_2842)">
<path d="M256.5 32.5C270.7 32.5 283.8 40 291 52.3L507 420.3C514.3 432.7 514.3 448 507.2 460.4C500.1 472.8 486.8 480.5 472.5 480.5H40.5002C26.2002 480.5 12.9002 472.8 5.8002 460.4C-1.2998 448 -1.1998 432.6 6.0002 420.3L222 52.3C229.2 40 242.3 32.5 256.5 32.5ZM256.5 160.5C243.2 160.5 232.5 171.2 232.5 184.5V296.5C232.5 309.8 243.2 320.5 256.5 320.5C269.8 320.5 280.5 309.8 280.5 296.5V184.5C280.5 171.2 269.8 160.5 256.5 160.5ZM288.5 384.5C288.5 376.013 285.129 367.874 279.128 361.873C273.126 355.871 264.987 352.5 256.5 352.5C248.013 352.5 239.874 355.871 233.873 361.873C227.872 367.874 224.5 376.013 224.5 384.5C224.5 392.987 227.872 401.126 233.873 407.127C239.874 413.129 248.013 416.5 256.5 416.5C264.987 416.5 273.126 413.129 279.128 407.127C285.129 401.126 288.5 392.987 288.5 384.5Z" fill="#47535F"/>
</g>
<defs>
<clipPath id="clip0_104_2842">
<rect width="512" height="512" fill="white" transform="translate(0.5 0.5)"/>
</clipPath>
</defs>
</svg>
