<svg width="513" height="513" viewBox="0 0 513 513" fill="none" xmlns="http://www.w3.org/2000/svg">
<g clip-path="url(#clip0_104_2848)">
<path d="M241.3 5.30031C250.8 11.1003 256.5 21.4003 256.5 32.5003V104.5H345.5C349.1 90.7003 361.6 80.5003 376.5 80.5003H464.5C491 80.5003 512.5 102 512.5 128.5C512.5 155 491 176.5 464.5 176.5H376.5C361.6 176.5 349.1 166.3 345.5 152.5H256.5V224.5C256.5 235.6 250.8 245.9 241.3 251.7C231.8 257.5 220.1 258.1 210.2 253.1L18.2 157.1C7.3 151.7 0.5 140.6 0.5 128.5C0.5 116.4 7.3 105.3 18.2 99.9003L210.2 3.90031C220.1 -1.09969 231.9 -0.499692 241.3 5.30031ZM288.5 256.5C288.5 238.8 302.8 224.5 320.5 224.5H480.5C498.2 224.5 512.5 238.8 512.5 256.5V320.5C512.5 338.2 498.2 352.5 480.5 352.5H320.5C302.8 352.5 288.5 338.2 288.5 320.5V256.5ZM32.5 384.5H128.5C146.2 384.5 160.5 398.8 160.5 416.5V480.5C160.5 498.2 146.2 512.5 128.5 512.5H32.5C14.8 512.5 0.5 498.2 0.5 480.5V416.5C0.5 398.8 14.8 384.5 32.5 384.5ZM224.5 384.5H480.5C498.2 384.5 512.5 398.8 512.5 416.5V480.5C512.5 498.2 498.2 512.5 480.5 512.5H224.5C206.8 512.5 192.5 498.2 192.5 480.5V416.5C192.5 398.8 206.8 384.5 224.5 384.5Z" fill="#47535F"/>
</g>
<defs>
<clipPath id="clip0_104_2848">
<rect width="512" height="512" fill="white" transform="translate(0.5 0.5)"/>
</clipPath>
</defs>
</svg>
