<svg width="513" height="513" viewBox="0 0 513 513" fill="none" xmlns="http://www.w3.org/2000/svg">
<g clip-path="url(#clip0_104_2846)">
<path d="M344.4 213.9L245.8 312.5L311.2 377.9C319.1 385.8 322.3 397.3 319.6 408.2C316.9 419.1 308.8 427.8 298.1 431.1L42.1001 511.1C30.7001 514.6 18.3001 511.6 9.9001 503.2C1.5001 494.8 -1.5999 482.3 2.0001 471L82.0001 215C85.3001 204.3 94.0001 196.1 104.9 193.5C115.8 190.9 127.3 194 135.2 201.9L200.5 267.2L299.1 168.6C284.8 154 284.9 130.6 299.4 116.1L394.8 20.7004C421.7 -6.19961 465.3 -6.19961 492.3 20.7004C519.3 47.6004 519.2 91.2004 492.3 118.2L396.9 213.6C382.4 228.1 359 228.2 344.4 213.9Z" fill="#47535F"/>
</g>
<defs>
<clipPath id="clip0_104_2846">
<rect width="512" height="512" fill="white" transform="translate(0.5 0.5)"/>
</clipPath>
</defs>
</svg>
