<svg width="641" height="513" viewBox="0 0 641 513" fill="none" xmlns="http://www.w3.org/2000/svg">
<g clip-path="url(#clip0_104_2868)">
<path d="M64.5 32.5C29.2 32.5 0.5 61.2 0.5 96.5V304.5V384.5V400.5C0.5 444.7 36.3 480.5 80.5 480.5C106.7 480.5 129.9 467.9 144.5 448.5C159.1 467.9 182.3 480.5 208.5 480.5C252.7 480.5 288.5 444.7 288.5 400.5C288.5 395 287.9 389.7 286.9 384.5H416.5H450.1C449.1 389.7 448.5 395 448.5 400.5C448.5 444.7 484.3 480.5 528.5 480.5C572.7 480.5 608.5 444.7 608.5 400.5C608.5 395 607.9 389.7 606.9 384.5H608.5C626.2 384.5 640.5 370.2 640.5 352.5V288.5V272.5V262.2C640.5 253 637.3 244 631.5 236.9L572.7 165.1C562.1 152.1 546.2 144.6 529.4 144.6H480.5V96.5C480.5 61.2 451.8 32.5 416.5 32.5H64.5ZM585.5 256.5H480.5V192.5H529.3C531.7 192.5 534 193.6 535.5 195.4L585.5 256.5ZM528.5 368.5C536.987 368.5 545.126 371.871 551.127 377.873C557.129 383.874 560.5 392.013 560.5 400.5C560.5 408.987 557.129 417.126 551.127 423.127C545.126 429.129 536.987 432.5 528.5 432.5C520.013 432.5 511.874 429.129 505.873 423.127C499.871 417.126 496.5 408.987 496.5 400.5C496.5 392.013 499.871 383.874 505.873 377.873C511.874 371.871 520.013 368.5 528.5 368.5ZM176.5 400.5C176.5 392.013 179.871 383.874 185.873 377.873C191.874 371.871 200.013 368.5 208.5 368.5C216.987 368.5 225.126 371.871 231.127 377.873C237.129 383.874 240.5 392.013 240.5 400.5C240.5 408.987 237.129 417.126 231.127 423.127C225.126 429.129 216.987 432.5 208.5 432.5C200.013 432.5 191.874 429.129 185.873 423.127C179.871 417.126 176.5 408.987 176.5 400.5ZM80.5 368.5C88.9869 368.5 97.1263 371.871 103.127 377.873C109.129 383.874 112.5 392.013 112.5 400.5C112.5 408.987 109.129 417.126 103.127 423.127C97.1263 429.129 88.9869 432.5 80.5 432.5C72.0131 432.5 63.8737 429.129 57.8726 423.127C51.8714 417.126 48.5 408.987 48.5 400.5C48.5 392.013 51.8714 383.874 57.8726 377.873C63.8737 371.871 72.0131 368.5 80.5 368.5Z" fill="#47535F"/>
</g>
<defs>
<clipPath id="clip0_104_2868">
<rect width="640" height="512" fill="white" transform="translate(0.5 0.5)"/>
</clipPath>
</defs>
</svg>
