<svg width="641" height="513" viewBox="0 0 641 513" fill="none" xmlns="http://www.w3.org/2000/svg">
<g clip-path="url(#clip0_104_2850)">
<path d="M48.5 0.5C22 0.5 0.5 22 0.5 48.5V368.5C0.5 395 22 416.5 48.5 416.5H64.5C64.5 469.5 107.5 512.5 160.5 512.5C213.5 512.5 256.5 469.5 256.5 416.5H384.5C384.5 469.5 427.5 512.5 480.5 512.5C533.5 512.5 576.5 469.5 576.5 416.5H608.5C626.2 416.5 640.5 402.2 640.5 384.5C640.5 366.8 626.2 352.5 608.5 352.5V288.5V256.5V237.8C608.5 220.8 601.8 204.5 589.8 192.5L512.5 115.2C500.5 103.2 484.2 96.5 467.2 96.5H416.5V48.5C416.5 22 395 0.5 368.5 0.5H48.5ZM416.5 160.5H467.2L544.5 237.8V256.5H416.5V160.5ZM112.5 416.5C112.5 403.77 117.557 391.561 126.559 382.559C135.561 373.557 147.77 368.5 160.5 368.5C173.23 368.5 185.439 373.557 194.441 382.559C203.443 391.561 208.5 403.77 208.5 416.5C208.5 429.23 203.443 441.439 194.441 450.441C185.439 459.443 173.23 464.5 160.5 464.5C147.77 464.5 135.561 459.443 126.559 450.441C117.557 441.439 112.5 429.23 112.5 416.5ZM480.5 368.5C493.23 368.5 505.439 373.557 514.441 382.559C523.443 391.561 528.5 403.77 528.5 416.5C528.5 429.23 523.443 441.439 514.441 450.441C505.439 459.443 493.23 464.5 480.5 464.5C467.77 464.5 455.561 459.443 446.559 450.441C437.557 441.439 432.5 429.23 432.5 416.5C432.5 403.77 437.557 391.561 446.559 382.559C455.561 373.557 467.77 368.5 480.5 368.5Z" fill="#47535F"/>
</g>
<defs>
<clipPath id="clip0_104_2850">
<rect width="640" height="512" fill="white" transform="translate(0.5 0.5)"/>
</clipPath>
</defs>
</svg>
