<svg width="641" height="513" viewBox="0 0 641 513" fill="none" xmlns="http://www.w3.org/2000/svg">
<g clip-path="url(#clip0_104_2872)">
<path d="M200.5 0.5C169.9 0.5 144.5 55.2 144.5 86.6V193L8.3 274.8C3.4 277.7 0.5 282.9 0.5 288.5V352.5C0.5 357.6 2.9 362.3 6.9 365.3C10.9 368.3 16.2 369.2 21 367.8L144.4 330.8V412L94.4 452C90.6 455 88.4 459.6 88.4 464.5V496.5C88.4 501.6 90.9 506.5 95 509.5C99.1 512.5 104.5 513.3 109.4 511.7L200.5 481.4L290.9 511.5C289.3 506.8 288.5 501.7 288.5 496.5V463.9C270.3 453.4 257.8 434.2 256.6 412.1L256.5 412V408.5V326V184.5V183.4V86.6C256.5 55.2 232 0.5 200.5 0.5ZM288.5 176.5V400.5C288.5 421.4 301.9 439.2 320.5 445.8V488.5C320.5 501.8 331.2 512.5 344.5 512.5H360.5C373.8 512.5 384.5 501.8 384.5 488.5V448.5H544.5V488.5C544.5 501.8 555.2 512.5 568.5 512.5H584.5C597.8 512.5 608.5 501.8 608.5 488.5V445.8C627.1 439.2 640.5 421.4 640.5 400.5V176.5C640.5 150 619 128.5 592.5 128.5H336.5C310 128.5 288.5 150 288.5 176.5ZM368.3 255.2C371.6 246.5 379.5 240.5 388.8 240.5H540.2C549.4 240.5 557.4 246.5 560.7 255.2L576.5 304.5H352.5L368.3 255.2ZM568.5 352.5C571.652 352.5 574.773 353.121 577.684 354.327C580.596 355.533 583.242 357.301 585.471 359.529C587.699 361.758 589.467 364.404 590.673 367.316C591.879 370.227 592.5 373.348 592.5 376.5C592.5 379.652 591.879 382.773 590.673 385.684C589.467 388.596 587.699 391.242 585.471 393.471C583.242 395.699 580.596 397.467 577.684 398.673C574.773 399.879 571.652 400.5 568.5 400.5C565.348 400.5 562.227 399.879 559.316 398.673C556.404 397.467 553.758 395.699 551.529 393.471C549.301 391.242 547.533 388.596 546.327 385.684C545.121 382.773 544.5 379.652 544.5 376.5C544.5 373.348 545.121 370.227 546.327 367.316C547.533 364.404 549.301 361.758 551.529 359.529C553.758 357.301 556.404 355.533 559.316 354.327C562.227 353.121 565.348 352.5 568.5 352.5ZM336.5 376.5C336.5 370.135 339.029 364.03 343.529 359.529C348.03 355.029 354.135 352.5 360.5 352.5C366.865 352.5 372.97 355.029 377.471 359.529C381.971 364.03 384.5 370.135 384.5 376.5C384.5 382.865 381.971 388.97 377.471 393.471C372.97 397.971 366.865 400.5 360.5 400.5C354.135 400.5 348.03 397.971 343.529 393.471C339.029 388.97 336.5 382.865 336.5 376.5Z" fill="#47535F"/>
</g>
<defs>
<clipPath id="clip0_104_2872">
<rect width="640" height="512" fill="white" transform="translate(0.5 0.5)"/>
</clipPath>
</defs>
</svg>
