<svg width="641" height="513" viewBox="0 0 641 513" fill="none" xmlns="http://www.w3.org/2000/svg">
<g clip-path="url(#clip0_104_2852)">
<path d="M0.5 48.5C0.5 22 22 0.5 48.5 0.5H368.5C395 0.5 416.5 22 416.5 48.5V96.5H467.2C484.2 96.5 500.5 103.2 512.5 115.2L589.8 192.5C601.8 204.5 608.5 220.8 608.5 237.8V256.5V288.5V352.5C626.2 352.5 640.5 366.8 640.5 384.5C640.5 402.2 626.2 416.5 608.5 416.5H576.5C576.5 469.5 533.5 512.5 480.5 512.5C427.5 512.5 384.5 469.5 384.5 416.5H256.5C256.5 469.5 213.5 512.5 160.5 512.5C107.5 512.5 64.5 469.5 64.5 416.5H48.5C22 416.5 0.5 395 0.5 368.5V48.5ZM416.5 256.5H544.5V237.8L467.2 160.5H416.5V256.5ZM160.5 464.5C173.23 464.5 185.439 459.443 194.441 450.441C203.443 441.439 208.5 429.23 208.5 416.5C208.5 403.77 203.443 391.561 194.441 382.559C185.439 373.557 173.23 368.5 160.5 368.5C147.77 368.5 135.561 373.557 126.559 382.559C117.557 391.561 112.5 403.77 112.5 416.5C112.5 429.23 117.557 441.439 126.559 450.441C135.561 459.443 147.77 464.5 160.5 464.5ZM528.5 416.5C528.5 403.77 523.443 391.561 514.441 382.559C505.439 373.557 493.23 368.5 480.5 368.5C467.77 368.5 455.561 373.557 446.559 382.559C437.557 391.561 432.5 403.77 432.5 416.5C432.5 429.23 437.557 441.439 446.559 450.441C455.561 459.443 467.77 464.5 480.5 464.5C493.23 464.5 505.439 459.443 514.441 450.441C523.443 441.439 528.5 429.23 528.5 416.5ZM257.5 95.5C248.1 86.1 232.9 86.1 223.6 95.5C214.3 104.9 214.2 120.1 223.6 129.4L262.6 168.4H96.5C83.2 168.4 72.5 179.1 72.5 192.4C72.5 205.7 83.2 216.4 96.5 216.4H262.6L223.6 255.4C214.2 264.8 214.2 280 223.6 289.3C233 298.6 248.2 298.7 257.5 289.3L337.5 209.3C346.9 199.9 346.9 184.7 337.5 175.4L257.5 95.5Z" fill="#47535F"/>
</g>
<defs>
<clipPath id="clip0_104_2852">
<rect width="640" height="512" fill="white" transform="translate(0.5 0.5)"/>
</clipPath>
</defs>
</svg>
