<svg width="641" height="513" viewBox="0 0 641 513" fill="none" xmlns="http://www.w3.org/2000/svg">
<g clip-path="url(#clip0_104_2860)">
<path d="M96.5 32.5C61.2 32.5 32.5 61.2 32.5 96.5V128.5C14.8 128.5 0.5 142.8 0.5 160.5V256.5C0.5 274.2 14.8 288.5 32.5 288.5V320.5C14.8 320.5 0.5 334.8 0.5 352.5C0.5 370.2 14.8 384.5 32.5 384.5H64.5C64.5 437.5 107.5 480.5 160.5 480.5C213.5 480.5 256.5 437.5 256.5 384.5H384.5C384.5 437.5 427.5 480.5 480.5 480.5C533.5 480.5 576.5 437.5 576.5 384.5H608.5C626.2 384.5 640.5 370.2 640.5 352.5C640.5 334.8 626.2 320.5 608.5 320.5V288.5C608.5 253.2 579.8 224.5 544.5 224.5H540.3C539.9 223.4 539.4 222.4 539 221.3L486.2 102.5C475.9 79.4 453 64.5 427.7 64.5H375.9C364.9 45.4 344.2 32.5 320.5 32.5H96.5ZM384.5 128.5H427.7L470.4 224.5H384.5V128.5ZM112.5 384.5C112.5 371.77 117.557 359.561 126.559 350.559C135.561 341.557 147.77 336.5 160.5 336.5C173.23 336.5 185.439 341.557 194.441 350.559C203.443 359.561 208.5 371.77 208.5 384.5C208.5 397.23 203.443 409.439 194.441 418.441C185.439 427.443 173.23 432.5 160.5 432.5C147.77 432.5 135.561 427.443 126.559 418.441C117.557 409.439 112.5 397.23 112.5 384.5ZM480.5 336.5C493.23 336.5 505.439 341.557 514.441 350.559C523.443 359.561 528.5 371.77 528.5 384.5C528.5 397.23 523.443 409.439 514.441 418.441C505.439 427.443 493.23 432.5 480.5 432.5C467.77 432.5 455.561 427.443 446.559 418.441C437.557 409.439 432.5 397.23 432.5 384.5C432.5 371.77 437.557 359.561 446.559 350.559C455.561 341.557 467.77 336.5 480.5 336.5ZM253.8 135.6L288.5 187.6V144.5C288.5 135.7 295.7 128.5 304.5 128.5C313.3 128.5 320.5 135.7 320.5 144.5V240.5C320.5 247.6 315.9 253.8 309.1 255.8C302.3 257.8 295.1 255.2 291.2 249.4L256.5 197.4V240.5C256.5 249.3 249.3 256.5 240.5 256.5C231.7 256.5 224.5 249.3 224.5 240.5V144.5C224.5 137.4 229.1 131.2 235.9 129.2C242.7 127.2 249.9 129.8 253.8 135.6ZM128.5 144.5V208.5C128.5 217.3 135.7 224.5 144.5 224.5C153.3 224.5 160.5 217.3 160.5 208.5V144.5C160.5 135.7 167.7 128.5 176.5 128.5C185.3 128.5 192.5 135.7 192.5 144.5V208.5C192.5 235 171 256.5 144.5 256.5C118 256.5 96.5 235 96.5 208.5V144.5C96.5 135.7 103.7 128.5 112.5 128.5C121.3 128.5 128.5 135.7 128.5 144.5Z" fill="#47535F"/>
</g>
<defs>
<clipPath id="clip0_104_2860">
<rect width="640" height="512" fill="white" transform="translate(0.5 0.5)"/>
</clipPath>
</defs>
</svg>
