<svg width="641" height="513" viewBox="0 0 641 513" fill="none" xmlns="http://www.w3.org/2000/svg">
<g clip-path="url(#clip0_104_2870)">
<path d="M369.1 96.5L445.9 192.5H288.5V96.5H369.1ZM224.5 80.5V192.5H64.5C46.8 192.5 32.5 206.8 32.5 224.5V288.5C14.8 288.5 0.5 302.8 0.5 320.5C0.5 338.2 14.8 352.5 32.5 352.5H65.6C64.9 357.7 64.5 363.1 64.5 368.5C64.5 430.4 114.6 480.5 176.5 480.5C238.4 480.5 288.5 430.4 288.5 368.5C288.5 363.1 288.1 357.7 287.4 352.5H353.7C353 357.7 352.6 363.1 352.6 368.5C352.6 430.4 402.7 480.5 464.6 480.5C526.5 480.5 576.6 430.4 576.6 368.5C576.6 363.1 576.2 357.7 575.5 352.5H608.5C626.2 352.5 640.5 338.2 640.5 320.5C640.5 302.8 626.2 288.5 608.5 288.5V224.5C608.5 206.8 594.2 192.5 576.5 192.5H527.9L419.1 56.5C407 41.3 388.6 32.5 369.1 32.5H272.5C246 32.5 224.5 54 224.5 80.5ZM224.5 368.5C224.5 374.803 223.258 381.045 220.846 386.869C218.434 392.692 214.898 397.984 210.441 402.441C205.984 406.898 200.692 410.434 194.869 412.846C189.045 415.258 182.803 416.5 176.5 416.5C170.197 416.5 163.955 415.258 158.131 412.846C152.308 410.434 147.016 406.898 142.559 402.441C138.102 397.984 134.566 392.692 132.154 386.869C129.742 381.045 128.5 374.803 128.5 368.5C128.5 362.197 129.742 355.955 132.154 350.131C134.566 344.308 138.102 339.016 142.559 334.559C147.016 330.102 152.308 326.566 158.131 324.154C163.955 321.742 170.197 320.5 176.5 320.5C182.803 320.5 189.045 321.742 194.869 324.154C200.692 326.566 205.984 330.102 210.441 334.559C214.898 339.016 218.434 344.308 220.846 350.131C223.258 355.955 224.5 362.197 224.5 368.5ZM512.5 368.5C512.5 381.23 507.443 393.439 498.441 402.441C489.439 411.443 477.23 416.5 464.5 416.5C451.77 416.5 439.561 411.443 430.559 402.441C421.557 393.439 416.5 381.23 416.5 368.5C416.5 355.77 421.557 343.561 430.559 334.559C439.561 325.557 451.77 320.5 464.5 320.5C477.23 320.5 489.439 325.557 498.441 334.559C507.443 343.561 512.5 355.77 512.5 368.5Z" fill="#47535F"/>
</g>
<defs>
<clipPath id="clip0_104_2870">
<rect width="640" height="512" fill="white" transform="translate(0.5 0.5)"/>
</clipPath>
</defs>
</svg>
