<svg width="641" height="513" viewBox="0 0 641 513" fill="none" xmlns="http://www.w3.org/2000/svg">
<g clip-path="url(#clip0_104_2874)">
<path d="M640.5 0.5V400.5C640.5 462.4 590.4 512.5 528.5 512.5C467.5 512.5 418 463.8 416.5 403.2L48.9001 503.4C31.8001 508 14.3001 498 9.60006 480.9C4.90006 463.8 15.0001 446.3 32.1001 441.6L352.5 354.3V64.5C352.5 29.2 381.2 0.5 416.5 0.5H640.5ZM576.5 400.5C576.5 387.77 571.443 375.561 562.441 366.559C553.439 357.557 541.23 352.5 528.5 352.5C515.77 352.5 503.561 357.557 494.559 366.559C485.557 375.561 480.5 387.77 480.5 400.5C480.5 413.23 485.557 425.439 494.559 434.441C503.561 443.443 515.77 448.5 528.5 448.5C541.23 448.5 553.439 443.443 562.441 434.441C571.443 425.439 576.5 413.23 576.5 400.5ZM23.6001 208.2C19.0001 191.1 29.2001 173.6 46.2001 169L92.6001 156.6L113.3 233.9C115.6 242.4 124.4 247.5 132.9 245.2L163.8 236.9C172.3 234.6 177.4 225.8 175.1 217.3L154.4 140L200.8 127.6C217.9 123 235.4 133.2 240 150.2L281.4 304.7C286 321.8 275.8 339.3 258.8 343.9L104.2 385.4C87.1001 390 69.6001 379.8 65.0001 362.8L23.6001 208.2Z" fill="#47535F"/>
</g>
<defs>
<clipPath id="clip0_104_2874">
<rect width="640" height="512" fill="white" transform="translate(0.5 0.5)"/>
</clipPath>
</defs>
</svg>
