<svg width="641" height="513" viewBox="0 0 641 513" fill="none" xmlns="http://www.w3.org/2000/svg">
<g clip-path="url(#clip0_104_2866)">
<path d="M288.5 64.5V128.5H416.5L368.5 64.5H288.5ZM419.7 26.1L496.5 128.5H576.5C594.2 128.5 608.5 142.8 608.5 160.5V224.5C626.2 224.5 640.5 238.8 640.5 256.5C640.5 274.2 626.2 288.5 608.5 288.5C579.3 249.6 532.8 224.5 480.5 224.5C428.2 224.5 381.7 249.6 352.5 288.5H288.5C259.3 249.6 212.8 224.5 160.5 224.5C108.2 224.5 61.7 249.6 32.5 288.5C14.8 288.5 0.5 274.2 0.5 256.5C0.5 238.8 14.8 224.5 32.5 224.5V160.5C32.5 142.8 46.8 128.5 64.5 128.5H224.5V48.5C224.5 22 246 0.5 272.5 0.5H368.5C388.6 0.5 407.6 10 419.7 26.1ZM152.5 256.5H168.5C180.6 256.5 190.6 265.4 192.3 277.1C199.9 279.3 207.2 282.4 214 286.1C223.4 279.1 236.8 279.8 245.3 288.4L256.6 299.7C265.2 308.3 265.9 321.6 258.9 331C262.6 337.8 265.7 345.1 267.9 352.7C279.5 354.4 288.5 364.4 288.5 376.5V392.5C288.5 404.6 279.6 414.6 267.9 416.3C265.7 423.9 262.6 431.2 258.9 438C265.9 447.4 265.2 460.8 256.6 469.3L245.3 480.6C236.7 489.2 223.4 489.9 214 482.8C207.2 486.5 199.9 489.6 192.3 491.8C190.6 503.6 180.6 512.5 168.5 512.5H152.5C140.4 512.5 130.4 503.6 128.7 491.9C121.1 489.7 113.8 486.6 107 482.9C97.6 490 84.2 489.2 75.7 480.7L64.3 469.4C55.7 460.8 55 447.5 62 438.1C58.3 431.2 55.2 424 53 416.3C41.4 414.6 32.5 404.6 32.5 392.5V376.5C32.5 364.4 41.4 354.4 53.1 352.7C55.3 345.1 58.4 337.8 62.1 330.9C55.1 321.5 55.8 308.1 64.4 299.6L75.7 288.3C84.3 279.7 97.6 279 107 286C113.8 282.3 121.1 279.2 128.7 277C130.4 265.4 140.4 256.4 152.5 256.4V256.5ZM160.5 432.5C173.23 432.5 185.439 427.443 194.441 418.441C203.443 409.439 208.5 397.23 208.5 384.5C208.5 371.77 203.443 359.561 194.441 350.559C185.439 341.557 173.23 336.5 160.5 336.5C147.77 336.5 135.561 341.557 126.559 350.559C117.557 359.561 112.5 371.77 112.5 384.5C112.5 397.23 117.557 409.439 126.559 418.441C135.561 427.443 147.77 432.5 160.5 432.5ZM448.7 277.1C450.4 265.5 460.4 256.5 472.5 256.5H488.5C500.6 256.5 510.6 265.4 512.3 277.1C519.9 279.3 527.2 282.4 534.1 286.1C543.5 279.1 556.9 279.8 565.4 288.4L576.7 299.7C585.3 308.3 586 321.6 578.9 331C582.6 337.8 585.7 345.1 587.9 352.7C599.5 354.4 608.5 364.4 608.5 376.5V392.5C608.5 404.6 599.6 414.6 587.9 416.3C585.7 423.9 582.6 431.2 578.9 438C585.9 447.4 585.2 460.8 576.7 469.3L565.4 480.6C556.8 489.2 543.5 489.9 534.1 482.8C527.2 486.5 520 489.6 512.3 491.8C510.6 503.6 500.6 512.5 488.5 512.5H472.5C460.4 512.5 450.4 503.6 448.7 491.9C441.1 489.7 433.8 486.6 427 482.9C417.6 490 404.2 489.2 395.7 480.7L384.4 469.4C375.8 460.8 375.1 447.5 382.2 438.1C378.5 431.2 375.4 424 373.2 416.3C361.4 414.6 352.5 404.6 352.5 392.5V376.5C352.5 364.4 361.4 354.4 373.1 352.7C375.3 345.1 378.4 337.8 382.1 330.9C375.1 321.5 375.8 308.1 384.3 299.6L395.6 288.3C404.2 279.7 417.5 279 426.9 286C433.7 282.3 441 279.2 448.6 277L448.7 277.1ZM528.5 384.5C528.5 371.77 523.443 359.561 514.441 350.559C505.439 341.557 493.23 336.5 480.5 336.5C467.77 336.5 455.561 341.557 446.559 350.559C437.557 359.561 432.5 371.77 432.5 384.5C432.5 397.23 437.557 409.439 446.559 418.441C455.561 427.443 467.77 432.5 480.5 432.5C493.23 432.5 505.439 427.443 514.441 418.441C523.443 409.439 528.5 397.23 528.5 384.5Z" fill="#47535F"/>
</g>
<defs>
<clipPath id="clip0_104_2866">
<rect width="640" height="512" fill="white" transform="translate(0.5 0.5)"/>
</clipPath>
</defs>
</svg>
