<svg width="513" height="513" viewBox="0 0 513 513" fill="none" xmlns="http://www.w3.org/2000/svg">
<g clip-path="url(#clip0_104_2862)">
<path d="M0.5 80.5C0.5 36.3 36.3 0.5 80.5 0.5H432.5C476.7 0.5 512.5 36.3 512.5 80.5V368.5C512.5 394.7 499.9 417.9 480.5 432.5V480.5C480.5 498.2 466.2 512.5 448.5 512.5H416.5C398.8 512.5 384.5 498.2 384.5 480.5V448.5H128.5V480.5C128.5 498.2 114.2 512.5 96.5 512.5H64.5C46.8 512.5 32.5 498.2 32.5 480.5V432.5C13.1 417.9 0.5 394.7 0.5 368.5V80.5ZM130.4 152.7L112.5 224.5H400.5L382.6 152.7C379 138.5 366.2 128.5 351.5 128.5H161.5C146.8 128.5 134 138.5 130.5 152.7H130.4ZM128.5 320.5C128.5 312.013 125.129 303.874 119.127 297.873C113.126 291.871 104.987 288.5 96.5 288.5C88.0131 288.5 79.8737 291.871 73.8726 297.873C67.8714 303.874 64.5 312.013 64.5 320.5C64.5 328.987 67.8714 337.126 73.8726 343.127C79.8737 349.129 88.0131 352.5 96.5 352.5C104.987 352.5 113.126 349.129 119.127 343.127C125.129 337.126 128.5 328.987 128.5 320.5ZM416.5 352.5C424.987 352.5 433.126 349.129 439.127 343.127C445.129 337.126 448.5 328.987 448.5 320.5C448.5 312.013 445.129 303.874 439.127 297.873C433.126 291.871 424.987 288.5 416.5 288.5C408.013 288.5 399.874 291.871 393.873 297.873C387.871 303.874 384.5 312.013 384.5 320.5C384.5 328.987 387.871 337.126 393.873 343.127C399.874 349.129 408.013 352.5 416.5 352.5Z" fill="#47535F"/>
</g>
<defs>
<clipPath id="clip0_104_2862">
<rect width="512" height="512" fill="white" transform="translate(0.5 0.5)"/>
</clipPath>
</defs>
</svg>
