<svg width="513" height="513" viewBox="0 0 513 513" fill="none" xmlns="http://www.w3.org/2000/svg">
<path d="M38.8 241.8L15.6 201.1C6.39999 184.9 7.19999 164.6 20.1 151.1C61.9 107.3 145.2 48.5 256.5 48.5C367.8 48.5 451.1 107.3 492.9 151.1C505.8 164.6 506.6 184.9 497.4 201.1L474.3 241.8C466.8 255 451 261.1 436.5 256.4L355.4 229.8C342.3 225.5 333.4 213.2 333.4 199.4V144.5C283.8 126.4 229.4 126.4 179.8 144.5V199.3C179.8 213.1 170.9 225.4 157.8 229.7L76.6 256.3C62.1 261 46.3 254.9 38.8 241.7V241.8ZM32.5 336.5C32.5 327.7 39.7 320.5 48.5 320.5H80.5C89.3 320.5 96.5 327.7 96.5 336.5V368.5C96.5 377.3 89.3 384.5 80.5 384.5H48.5C39.7 384.5 32.5 377.3 32.5 368.5V336.5ZM32.5 432.5C32.5 423.7 39.7 416.5 48.5 416.5H80.5C89.3 416.5 96.5 423.7 96.5 432.5V464.5C96.5 473.3 89.3 480.5 80.5 480.5H48.5C39.7 480.5 32.5 473.3 32.5 464.5V432.5ZM144.5 320.5H176.5C185.3 320.5 192.5 327.7 192.5 336.5V368.5C192.5 377.3 185.3 384.5 176.5 384.5H144.5C135.7 384.5 128.5 377.3 128.5 368.5V336.5C128.5 327.7 135.7 320.5 144.5 320.5ZM224.5 336.5C224.5 327.7 231.7 320.5 240.5 320.5H272.5C281.3 320.5 288.5 327.7 288.5 336.5V368.5C288.5 377.3 281.3 384.5 272.5 384.5H240.5C231.7 384.5 224.5 377.3 224.5 368.5V336.5ZM336.5 320.5H368.5C377.3 320.5 384.5 327.7 384.5 336.5V368.5C384.5 377.3 377.3 384.5 368.5 384.5H336.5C327.7 384.5 320.5 377.3 320.5 368.5V336.5C320.5 327.7 327.7 320.5 336.5 320.5ZM416.5 336.5C416.5 327.7 423.7 320.5 432.5 320.5H464.5C473.3 320.5 480.5 327.7 480.5 336.5V368.5C480.5 377.3 473.3 384.5 464.5 384.5H432.5C423.7 384.5 416.5 377.3 416.5 368.5V336.5ZM432.5 416.5H464.5C473.3 416.5 480.5 423.7 480.5 432.5V464.5C480.5 473.3 473.3 480.5 464.5 480.5H432.5C423.7 480.5 416.5 473.3 416.5 464.5V432.5C416.5 423.7 423.7 416.5 432.5 416.5ZM128.5 432.5C128.5 423.7 135.7 416.5 144.5 416.5H368.5C377.3 416.5 384.5 423.7 384.5 432.5V464.5C384.5 473.3 377.3 480.5 368.5 480.5H144.5C135.7 480.5 128.5 473.3 128.5 464.5V432.5Z" fill="#47535F"/>
</svg>
