<svg width="385" height="513" viewBox="0 0 385 513" fill="none" xmlns="http://www.w3.org/2000/svg">
<g clip-path="url(#clip0_104_2878)">
<path d="M96.5004 32.5C114.2 32.5 128.5 46.8 128.5 64.5V99.8L247.7 65.7C264.7 60.8 282.4 70.7 287.3 87.7C292.2 104.7 282.3 122.4 265.3 127.3L128.5 166.4V195.8L247.7 161.7C264.7 156.8 282.4 166.7 287.3 183.7C292.2 200.7 282.3 218.4 265.3 223.3L128.5 262.4V416.5H192.3C260.5 416.5 316.7 363 320.1 294.9L320.5 286.9C321.4 269.2 336.4 255.7 354.1 256.5C371.8 257.3 385.3 272.4 384.5 290.1L384.1 298.1C379 400.3 294.6 480.5 192.3 480.5H96.5004C78.8004 480.5 64.5004 466.2 64.5004 448.5V280.6L41.3004 287.2C24.3004 292.1 6.60042 282.2 1.70042 265.2C-3.19959 248.2 6.70042 230.5 23.7004 225.6L64.5004 214.1V184.6L41.3004 191.2C24.3004 196.1 6.60042 186.2 1.70042 169.2C-3.19959 152.2 6.70042 134.5 23.7004 129.6L64.5004 118.1V64.5C64.5004 46.8 78.8004 32.5 96.5004 32.5Z" fill="#47535F"/>
</g>
<defs>
<clipPath id="clip0_104_2878">
<rect width="384" height="512" fill="white" transform="translate(0.5 0.5)"/>
</clipPath>
</defs>
</svg>
