<svg width="385" height="513" viewBox="0 0 385 513" fill="none" xmlns="http://www.w3.org/2000/svg">
<g clip-path="url(#clip0_104_2882)">
<path d="M350.5 178C354.3 169.2 352.5 159 345.9 152L209.9 8C205.4 3.2 199.1 0.5 192.5 0.5C185.9 0.5 179.6 3.2 175.1 8L39.1 152C32.5 159 30.7 169.2 34.5 178C38.3 186.8 47 192.5 56.5 192.5H144.5V384.5C144.5 402.2 130.2 416.5 112.5 416.5H32.5C14.8 416.5 0.5 430.8 0.5 448.5V480.5C0.5 498.2 14.8 512.5 32.5 512.5H112.5C183.2 512.5 240.5 455.2 240.5 384.5V192.5H328.5C338.1 192.5 346.7 186.8 350.5 178Z" fill="#47535F"/>
</g>
<defs>
<clipPath id="clip0_104_2882">
<rect width="384" height="512" fill="white" transform="translate(0.5 0.5)"/>
</clipPath>
</defs>
</svg>
