<svg width="385" height="513" viewBox="0 0 385 513" fill="none" xmlns="http://www.w3.org/2000/svg">
<g clip-path="url(#clip0_104_2880)">
<path d="M350.5 335C354.3 343.8 352.5 354 345.9 361L209.9 505C205.4 509.8 199.1 512.5 192.5 512.5C185.9 512.5 179.6 509.8 175.1 505L39.1 361C32.5 354 30.7 343.8 34.5 335C38.3 326.2 47 320.5 56.5 320.5H144.5V128.5C144.5 110.8 130.2 96.5 112.5 96.5H32.5C14.8 96.5 0.5 82.2 0.5 64.5V32.5C0.5 14.8 14.8 0.5 32.5 0.5H112.5C183.2 0.5 240.5 57.8 240.5 128.5V320.5H328.5C338.1 320.5 346.7 326.2 350.5 335Z" fill="#47535F"/>
</g>
<defs>
<clipPath id="clip0_104_2880">
<rect width="384" height="512" fill="white" transform="translate(0.5 0.5)"/>
</clipPath>
</defs>
</svg>
