<svg width="641" height="513" viewBox="0 0 641 513" fill="none" xmlns="http://www.w3.org/2000/svg">
<g clip-path="url(#clip0_104_2884)">
<path d="M64.5 64.5V352.5H576.5V64.5H64.5ZM0.5 64.5C0.5 29.2 29.2 0.5 64.5 0.5H576.5C611.8 0.5 640.5 29.2 640.5 64.5V352.5C640.5 387.8 611.8 416.5 576.5 416.5H64.5C29.2 416.5 0.5 387.8 0.5 352.5V64.5ZM128.5 448.5H512.5C530.2 448.5 544.5 462.8 544.5 480.5C544.5 498.2 530.2 512.5 512.5 512.5H128.5C110.8 512.5 96.5 498.2 96.5 480.5C96.5 462.8 110.8 448.5 128.5 448.5Z" fill="#47535F"/>
</g>
<defs>
<clipPath id="clip0_104_2884">
<rect width="640" height="512" fill="white" transform="translate(0.5 0.5)"/>
</clipPath>
</defs>
</svg>
