<svg width="385" height="513" viewBox="0 0 385 513" fill="none" xmlns="http://www.w3.org/2000/svg">
<g clip-path="url(#clip0_104_2886)">
<path d="M32.5 32.5C50.2 32.5 64.5 46.8 64.5 64.5V288.5C64.5 359.2 121.8 416.5 192.5 416.5C263.2 416.5 320.5 359.2 320.5 288.5V64.5C320.5 46.8 334.8 32.5 352.5 32.5C370.2 32.5 384.5 46.8 384.5 64.5V288.5C384.5 394.5 298.5 480.5 192.5 480.5C86.5 480.5 0.5 394.5 0.5 288.5V64.5C0.5 46.8 14.8 32.5 32.5 32.5Z" fill="#47535F"/>
</g>
<defs>
<clipPath id="clip0_104_2886">
<rect width="384" height="512" fill="white" transform="translate(0.5 0.5)"/>
</clipPath>
</defs>
</svg>
