<svg width="577" height="513" viewBox="0 0 577 513" fill="none" xmlns="http://www.w3.org/2000/svg">
<g clip-path="url(#clip0_104_2888)">
<path d="M288.5 0.5C306.2 0.5 320.5 14.8 320.5 32.5V50.2C452.3 63.9 558.2 161.5 574.4 286.4C576.4 302 557.1 310.8 546.6 299.1C532.6 283.5 505.3 272.5 480.5 272.5C441.8 272.5 409.5 300 402.1 336.6C400.4 345.3 393.4 352.5 384.5 352.5C375.6 352.5 368.7 345.3 366.9 336.6C359.5 300 327.2 272.5 288.5 272.5C249.8 272.5 217.5 300 210.1 336.6C208.4 345.3 201.4 352.5 192.5 352.5C183.6 352.5 176.7 345.3 174.9 336.6C167.5 300 135.2 272.5 96.5002 272.5C71.7002 272.5 44.4002 283.5 30.4002 299.2C19.9002 310.9 0.600181 302 2.60018 286.4C18.8002 161.5 124.7 63.9 256.5 50.2V32.5C256.5 14.8 270.8 0.5 288.5 0.5ZM288.5 304.5C300.8 304.5 312 309.1 320.5 316.7V431.1C320.5 476.1 284 512.5 239.1 512.5C208.3 512.5 180.1 495.1 166.3 467.5L164 462.8C156.1 447 162.5 427.8 178.3 419.9C194.1 412 213.3 418.4 221.2 434.2L223.5 438.9C226.5 444.8 232.5 448.5 239.1 448.5C248.7 448.5 256.5 440.7 256.5 431.1V316.7C265 309.1 276.2 304.5 288.5 304.5Z" fill="#47535F"/>
</g>
<defs>
<clipPath id="clip0_104_2888">
<rect width="576" height="512" fill="white" transform="translate(0.5 0.5)"/>
</clipPath>
</defs>
</svg>
