<svg width="577" height="513" viewBox="0 0 577 513" fill="none" xmlns="http://www.w3.org/2000/svg">
<g clip-path="url(#clip0_104_2890)">
<path d="M346.8 272.3L286.7 250.4L214.5 448.5H32.5C14.8 448.5 0.5 462.8 0.5 480.5C0.5 498.2 14.8 512.5 32.5 512.5H544.5C562.2 512.5 576.5 498.2 576.5 480.5C576.5 462.8 562.2 448.5 544.5 448.5H282.6L346.7 272.3H346.8ZM467.9 272.1L464.6 281.2L532.3 305.8C550.4 312.4 570.3 301.6 571.9 282.4C578.4 203.9 548 126.9 491.1 73.8998C493.1 81.8998 494.3 90.1998 494.5 98.6998L494.7 104.7C496.5 161.7 487.4 218.5 467.9 272.1ZM462.5 99.5998C461.4 65.1998 440 34.7998 408.1 22.1998C407.2 21.7998 406.2 21.4998 405.3 21.0998C372.3 9.39981 335.5 18.6998 312.2 44.8998L308.2 49.3998C272.9 88.7998 245.5 134.7 227.3 184.5L224 193.6L434.5 270.2L437.8 261.1C455.9 211.3 464.4 158.6 462.7 105.6L462.5 99.5998ZM107.7 113.4C96.6 129.1 104.9 150.2 123 156.8L194 182.6L197.3 173.5C216.8 119.9 246.4 70.4998 284.4 27.9998L288.4 23.4998C294.6 16.5998 301.5 10.4998 308.9 5.2998C229.3 7.7998 154.2 47.4998 107.7 113.3V113.4Z" fill="#47535F"/>
</g>
<defs>
<clipPath id="clip0_104_2890">
<rect width="576" height="512" fill="white" transform="translate(0.5 0.5)"/>
</clipPath>
</defs>
</svg>
