<svg width="449" height="513" viewBox="0 0 449 513" fill="none" xmlns="http://www.w3.org/2000/svg">
<g clip-path="url(#clip0_104_2892)">
<path d="M16.5 64.5C16.5 46.8 30.8 32.5 48.5 32.5H144.5C162.2 32.5 176.5 46.8 176.5 64.5C176.5 82.2 162.2 96.5 144.5 96.5H128.5V224.5C128.5 277.5 171.5 320.5 224.5 320.5C277.5 320.5 320.5 277.5 320.5 224.5V96.5H304.5C286.8 96.5 272.5 82.2 272.5 64.5C272.5 46.8 286.8 32.5 304.5 32.5H400.5C418.2 32.5 432.5 46.8 432.5 64.5C432.5 82.2 418.2 96.5 400.5 96.5H384.5V224.5C384.5 312.9 312.9 384.5 224.5 384.5C136.1 384.5 64.5 312.9 64.5 224.5V96.5H48.5C30.8 96.5 16.5 82.2 16.5 64.5ZM0.5 448.5C0.5 430.8 14.8 416.5 32.5 416.5H416.5C434.2 416.5 448.5 430.8 448.5 448.5C448.5 466.2 434.2 480.5 416.5 480.5H32.5C14.8 480.5 0.5 466.2 0.5 448.5Z" fill="#47535F"/>
</g>
<defs>
<clipPath id="clip0_104_2892">
<rect width="448" height="512" fill="white" transform="translate(0.5 0.5)"/>
</clipPath>
</defs>
</svg>
