<svg width="513" height="513" viewBox="0 0 513 513" fill="none" xmlns="http://www.w3.org/2000/svg">
<g clip-path="url(#clip0_104_2894)">
<path d="M0.5 256.5C0.5 188.605 27.4714 123.49 75.4807 75.4807C123.49 27.4714 188.605 0.5 256.5 0.5C324.395 0.5 389.51 27.4714 437.519 75.4807C485.529 123.49 512.5 188.605 512.5 256.5C512.5 324.395 485.529 389.51 437.519 437.519C389.51 485.529 324.395 512.5 256.5 512.5C188.605 512.5 123.49 485.529 75.4807 437.519C27.4714 389.51 0.5 324.395 0.5 256.5ZM162 170.4C149.8 165.2 135.7 170.8 130.5 183C125.3 195.2 130.9 209.3 143.1 214.5L155 219.6C172.3 227 190.2 232.5 208.6 235.9V286C208.6 290.3 207.9 294.6 206.5 298.6L177.8 384.7C173.6 397.3 180.4 410.9 193 415.1C205.6 419.3 219.2 412.5 223.4 399.9L247.8 326.7C249.1 322.9 252.6 320.3 256.6 320.3C260.6 320.3 264.2 322.9 265.4 326.7L289.8 399.9C294 412.5 307.6 419.3 320.2 415.1C332.8 410.9 339.6 397.3 335.4 384.7L306.7 298.6C305.3 294.5 304.6 290.3 304.6 286V236C323 232.5 340.9 227.1 358.2 219.7L370.1 214.6C382.3 209.4 387.9 195.3 382.7 183.1C377.5 170.9 363.4 165.3 351.2 170.5L339.2 175.5C313.1 186.7 285 192.5 256.5 192.5C228 192.5 200 186.7 173.8 175.5L161.9 170.4H162ZM256.5 160.5C267.109 160.5 277.283 156.286 284.784 148.784C292.286 141.283 296.5 131.109 296.5 120.5C296.5 109.891 292.286 99.7172 284.784 92.2157C277.283 84.7143 267.109 80.5 256.5 80.5C245.891 80.5 235.717 84.7143 228.216 92.2157C220.714 99.7172 216.5 109.891 216.5 120.5C216.5 131.109 220.714 141.283 228.216 148.784C235.717 156.286 245.891 160.5 256.5 160.5Z" fill="#47535F"/>
</g>
<defs>
<clipPath id="clip0_104_2894">
<rect width="512" height="512" fill="white" transform="translate(0.5 0.5)"/>
</clipPath>
</defs>
</svg>
