<svg width="449" height="513" viewBox="0 0 449 513" fill="none" xmlns="http://www.w3.org/2000/svg">
<g clip-path="url(#clip0_104_2896)">
<path d="M144.5 144.5C144.5 100.3 180.3 64.5 224.5 64.5C256.4 64.5 283.9 83.1 296.8 110.2C304.4 126.2 323.5 133 339.4 125.4C355.3 117.8 362.2 98.7 354.6 82.8C331.5 34.2 282 0.5 224.5 0.5C145 0.5 80.5 65 80.5 144.5V192.5H64.5C29.2 192.5 0.5 221.2 0.5 256.5V448.5C0.5 483.8 29.2 512.5 64.5 512.5H384.5C419.8 512.5 448.5 483.8 448.5 448.5V256.5C448.5 221.2 419.8 192.5 384.5 192.5H144.5V144.5Z" fill="#47535F"/>
</g>
<defs>
<clipPath id="clip0_104_2896">
<rect width="448" height="512" fill="white" transform="translate(0.5 0.5)"/>
</clipPath>
</defs>
</svg>
