<svg width="449" height="513" viewBox="0 0 449 513" fill="none" xmlns="http://www.w3.org/2000/svg">
<g clip-path="url(#clip0_104_2898)">
<path d="M224.5 64.5C180.3 64.5 144.5 100.3 144.5 144.5V192.5H384.5C419.8 192.5 448.5 221.2 448.5 256.5V448.5C448.5 483.8 419.8 512.5 384.5 512.5H64.5C29.2 512.5 0.5 483.8 0.5 448.5V256.5C0.5 221.2 29.2 192.5 64.5 192.5H80.5V144.5C80.5 65 145 0.5 224.5 0.5C282 0.5 331.5 34.2 354.6 82.8C362.2 98.8 355.4 117.9 339.4 125.4C323.4 132.9 304.3 126.2 296.8 110.2C283.9 83.1 256.4 64.5 224.5 64.5ZM256.5 384.5C274.2 384.5 288.5 370.2 288.5 352.5C288.5 334.8 274.2 320.5 256.5 320.5H192.5C174.8 320.5 160.5 334.8 160.5 352.5C160.5 370.2 174.8 384.5 192.5 384.5H256.5Z" fill="#47535F"/>
</g>
<defs>
<clipPath id="clip0_104_2898">
<rect width="448" height="512" fill="white" transform="translate(0.5 0.5)"/>
</clipPath>
</defs>
</svg>
