<svg width="513" height="513" viewBox="0 0 513 513" fill="none" xmlns="http://www.w3.org/2000/svg">
<g clip-path="url(#clip0_104_2902)">
<path d="M279.101 9.90039C266.601 -2.59961 246.301 -2.59961 233.801 9.90039L169.801 73.9004C160.601 83.1004 157.901 96.8004 162.901 108.8C167.901 120.8 179.501 128.6 192.501 128.6H224.501V224.6H128.501V192.5C128.501 179.6 120.701 167.9 108.701 162.9C96.7008 157.9 83.0008 160.7 73.8008 169.8L9.80078 233.8C-2.69922 246.3 -2.69922 266.6 9.80078 279.1L73.8008 343.1C83.0008 352.3 96.7008 355 108.701 350C120.701 345 128.501 333.4 128.501 320.4V288.5H224.501V384.5H192.501C179.601 384.5 167.901 392.3 162.901 404.3C157.901 416.3 160.701 430 169.801 439.2L233.801 503.2C246.301 515.7 266.601 515.7 279.101 503.2L343.101 439.2C352.301 430 355.001 416.3 350.001 404.3C345.001 392.3 333.401 384.5 320.401 384.5H288.501V288.5H384.501V320.5C384.501 333.4 392.301 345.1 404.301 350.1C416.301 355.1 430.001 352.3 439.201 343.2L503.201 279.2C515.701 266.7 515.701 246.4 503.201 233.9L439.201 169.9C430.001 160.7 416.301 158 404.301 163C392.301 168 384.501 179.6 384.501 192.6V224.6H288.501V128.5H320.501C333.401 128.5 345.101 120.7 350.101 108.7C355.101 96.7004 352.301 83.0004 343.201 73.8004L279.201 9.80039L279.101 9.90039Z" fill="#47535F"/>
</g>
<defs>
<clipPath id="clip0_104_2902">
<rect width="512" height="512" fill="white" transform="translate(0.5 0.5)"/>
</clipPath>
</defs>
</svg>
