<svg width="257" height="513" viewBox="0 0 257 513" fill="none" xmlns="http://www.w3.org/2000/svg">
<g clip-path="url(#clip0_104_2900)">
<path d="M146.1 8.2C141.5 3.3 135.2 0.5 128.5 0.5C121.8 0.5 115.5 3.3 110.9 8.2L6.89992 120.2C0.399921 127.2 -1.30008 137.4 2.49992 146.1C6.29992 154.8 14.9999 160.5 24.4999 160.5H80.4999V352.5H24.4999C14.9999 352.5 6.29992 358.2 2.49992 366.9C-1.30008 375.6 0.399921 385.8 6.89992 392.8L110.9 504.8C115.4 509.7 121.8 512.5 128.5 512.5C135.2 512.5 141.5 509.7 146.1 504.8L250.1 392.8C256.6 385.8 258.3 375.6 254.5 366.9C250.7 358.2 242 352.5 232.5 352.5H176.5V160.5H232.5C242 160.5 250.7 154.8 254.5 146.1C258.3 137.4 256.6 127.2 250.1 120.2L146.1 8.2Z" fill="#47535F"/>
</g>
<defs>
<clipPath id="clip0_104_2900">
<rect width="256" height="512" fill="white" transform="translate(0.5 0.5)"/>
</clipPath>
</defs>
</svg>
