<svg width="321" height="513" viewBox="0 0 321 513" fill="none" xmlns="http://www.w3.org/2000/svg">
<g clip-path="url(#clip0_104_2906)">
<path d="M318.5 178C322.3 169.2 320.5 159 313.9 152L177.9 8C173.4 3.2 167.1 0.5 160.5 0.5C153.9 0.5 147.6 3.2 143.1 8L7.09957 152C0.499571 159 -1.30043 169.2 2.49957 178C6.29957 186.8 14.8996 192.5 24.4996 192.5H96.4996V480.5C96.4996 498.2 110.8 512.5 128.5 512.5H192.5C210.2 512.5 224.5 498.2 224.5 480.5V192.5H296.5C306.1 192.5 314.7 186.8 318.5 178Z" fill="#47535F"/>
</g>
<defs>
<clipPath id="clip0_104_2906">
<rect width="320" height="512" fill="white" transform="translate(0.5 0.5)"/>
</clipPath>
</defs>
</svg>
