<svg width="513" height="513" viewBox="0 0 513 513" fill="none" xmlns="http://www.w3.org/2000/svg">
<g clip-path="url(#clip0_104_2908)">
<path d="M344.5 0.5H488.5C501.8 0.5 512.5 11.2 512.5 24.5V168.5C512.5 178.2 506.7 187 497.7 190.7C488.7 194.4 478.4 192.4 471.5 185.5L432.5 146.5L345.5 233.5C336.1 242.9 320.9 242.9 311.6 233.5L279.6 201.5C270.2 192.1 270.2 176.9 279.6 167.6L366.6 80.6L327.5 41.5C320.6 34.6 318.6 24.3 322.3 15.3C326 6.3 334.8 0.5 344.5 0.5ZM168.5 512.5H24.5C11.2 512.5 0.5 501.8 0.5 488.5V344.5C0.5 334.8 6.3 326 15.3 322.3C24.3 318.6 34.6 320.6 41.5 327.5L80.5 366.5L167.5 279.5C176.9 270.1 192.1 270.1 201.4 279.5L233.4 311.5C242.8 320.9 242.8 336.1 233.4 345.4L146.4 432.4L185.4 471.4C192.3 478.3 194.3 488.6 190.6 497.6C186.9 506.6 178.1 512.4 168.4 512.4L168.5 512.5Z" fill="#47535F"/>
</g>
<defs>
<clipPath id="clip0_104_2908">
<rect width="512" height="512" fill="white" transform="translate(0.5 0.5)"/>
</clipPath>
</defs>
</svg>
