<svg width="513" height="513" viewBox="0 0 513 513" fill="none" xmlns="http://www.w3.org/2000/svg">
<g clip-path="url(#clip0_104_2910)">
<path d="M352.5 0.5C339.6 0.5 327.9 8.3 322.9 20.3C317.9 32.3 320.7 46 329.8 55.2L371.2 96.5L201.9 265.9C189.4 278.4 189.4 298.7 201.9 311.2C214.4 323.7 234.7 323.7 247.2 311.2L416.5 141.8L457.9 183.2C467.1 192.4 480.8 195.1 492.8 190.1C504.8 185.1 512.6 173.5 512.6 160.5V32.5C512.6 14.8 498.3 0.5 480.6 0.5H352.5ZM80.5 32.5C36.3 32.5 0.5 68.3 0.5 112.5V432.5C0.5 476.7 36.3 512.5 80.5 512.5H400.5C444.7 512.5 480.5 476.7 480.5 432.5V320.5C480.5 302.8 466.2 288.5 448.5 288.5C430.8 288.5 416.5 302.8 416.5 320.5V432.5C416.5 441.3 409.3 448.5 400.5 448.5H80.5C71.7 448.5 64.5 441.3 64.5 432.5V112.5C64.5 103.7 71.7 96.5 80.5 96.5H192.5C210.2 96.5 224.5 82.2 224.5 64.5C224.5 46.8 210.2 32.5 192.5 32.5H80.5Z" fill="#47535F"/>
</g>
<defs>
<clipPath id="clip0_104_2910">
<rect width="512" height="512" fill="white" transform="translate(0.5 0.5)"/>
</clipPath>
</defs>
</svg>
