<svg width="513" height="513" viewBox="0 0 513 513" fill="none" xmlns="http://www.w3.org/2000/svg">
<g clip-path="url(#clip0_104_2904)">
<path d="M288.5 109.8V352.5C288.5 370.2 274.2 384.5 256.5 384.5C238.8 384.5 224.5 370.2 224.5 352.5V109.8L151.1 183.2C138.6 195.7 118.3 195.7 105.8 183.2C93.3 170.7 93.3 150.4 105.8 137.9L233.8 9.90039C246.3 -2.59961 266.6 -2.59961 279.1 9.90039L407.1 137.9C419.6 150.4 419.6 170.7 407.1 183.2C394.6 195.7 374.3 195.7 361.8 183.2L288.5 109.8ZM64.5 352.5H192.5C192.5 387.8 221.2 416.5 256.5 416.5C291.8 416.5 320.5 387.8 320.5 352.5H448.5C483.8 352.5 512.5 381.2 512.5 416.5V448.5C512.5 483.8 483.8 512.5 448.5 512.5H64.5C29.2 512.5 0.5 483.8 0.5 448.5V416.5C0.5 381.2 29.2 352.5 64.5 352.5ZM432.5 456.5C438.865 456.5 444.97 453.972 449.471 449.471C453.971 444.97 456.5 438.866 456.5 432.5C456.5 426.135 453.971 420.031 449.471 415.53C444.97 411.029 438.865 408.5 432.5 408.5C426.135 408.5 420.03 411.029 415.529 415.53C411.029 420.031 408.5 426.135 408.5 432.5C408.5 438.866 411.029 444.97 415.529 449.471C420.03 453.972 426.135 456.5 432.5 456.5Z" fill="#47535F"/>
</g>
<defs>
<clipPath id="clip0_104_2904">
<rect width="512" height="512" fill="white" transform="translate(0.5 0.5)"/>
</clipPath>
</defs>
</svg>
