<svg width="641" height="513" viewBox="0 0 641 513" fill="none" xmlns="http://www.w3.org/2000/svg">
<g clip-path="url(#clip0_104_2958)">
<path d="M211.7 96.5C211.7 79.5261 204.957 63.2475 192.955 51.2452C180.953 39.2428 164.674 32.5 147.7 32.5C130.726 32.5 114.447 39.2428 102.445 51.2452C90.4428 63.2475 83.7 79.5261 83.7 96.5C83.7 113.474 90.4428 129.753 102.445 141.755C114.447 153.757 130.726 160.5 147.7 160.5C164.674 160.5 180.953 153.757 192.955 141.755C204.957 129.753 211.7 113.474 211.7 96.5ZM32.5 256.5C32.5 274.2 46.8 288.5 64.5 288.5H150.1C160.2 249.1 188.7 217 225.9 201.9C216.2 195.9 204.7 192.5 192.5 192.5H96.5C61.2 192.5 32.5 221.2 32.5 256.5ZM494.1 288.5H576.5C594.2 288.5 608.5 274.2 608.5 256.5C608.5 221.2 579.8 192.5 544.5 192.5H448.5C436.8 192.5 425.8 195.6 416.4 201.1C454.5 215.9 483.8 248.4 494.1 288.5ZM391.7 226.9C384.8 225.3 377.5 224.5 370.1 224.5H274.1C265.6 224.5 257.4 225.6 249.6 227.6C218.8 235.7 194 258.7 183.5 288.5C180 298.5 178 309.3 178 320.5C178 338.2 192.3 352.5 210 352.5H434C451.7 352.5 466 338.2 466 320.5C466 309.3 464.1 298.5 460.5 288.5C449.7 257.8 423.7 234.3 391.6 226.9H391.7ZM563.7 96.5C563.7 79.5261 556.957 63.2475 544.955 51.2452C532.953 39.2428 516.674 32.5 499.7 32.5C482.726 32.5 466.447 39.2428 454.445 51.2452C442.443 63.2475 435.7 79.5261 435.7 96.5C435.7 113.474 442.443 129.753 454.445 141.755C466.447 153.757 482.726 160.5 499.7 160.5C516.674 160.5 532.953 153.757 544.955 141.755C556.957 129.753 563.7 113.474 563.7 96.5ZM322.1 192.5C343.317 192.5 363.666 184.071 378.669 169.069C393.671 154.066 402.1 133.717 402.1 112.5C402.1 91.2827 393.671 70.9344 378.669 55.9315C363.666 40.9285 343.317 32.5 322.1 32.5C300.883 32.5 280.534 40.9285 265.531 55.9315C250.529 70.9344 242.1 91.2827 242.1 112.5C242.1 133.717 250.529 154.066 265.531 169.069C280.534 184.071 300.883 192.5 322.1 192.5ZM32.5 416.5C14.8 416.5 0.5 430.8 0.5 448.5C0.5 466.2 14.8 480.5 32.5 480.5H608.5C626.2 480.5 640.5 466.2 640.5 448.5C640.5 430.8 626.2 416.5 608.5 416.5H32.5Z" fill="#47535F"/>
</g>
<defs>
<clipPath id="clip0_104_2958">
<rect width="640" height="512" fill="white" transform="translate(0.5 0.5)"/>
</clipPath>
</defs>
</svg>
