<svg width="449" height="513" viewBox="0 0 449 513" fill="none" xmlns="http://www.w3.org/2000/svg">
<g clip-path="url(#clip0_104_2924)">
<path d="M219.8 0.999805C222.9 0.399805 226.1 0.399805 229.2 0.999805L429.2 40.9998C440.4 43.1998 448.5 53.0998 448.5 64.4998C448.5 75.8998 440.4 85.7998 429.2 87.9998L352.5 103.4V160.5C352.5 231.2 295.2 288.5 224.5 288.5C153.8 288.5 96.4996 231.2 96.4996 160.5V103.4L48.4996 93.7998V158.9L64.1996 237.3C65.0996 242 63.8996 246.9 60.8996 250.6C57.8996 254.3 53.2996 256.5 48.4996 256.5H16.4996C11.6996 256.5 7.19959 254.4 4.09959 250.6C0.999593 246.8 -0.200406 242 0.799594 237.3L16.4996 158.9V87.0998C6.99959 83.7998 0.499593 74.7998 0.499593 64.4998C0.499593 53.0998 8.59959 43.1998 19.7996 40.9998L219.8 0.999805ZM112.4 328.2C122.9 324.8 134.2 328.6 141.8 336.7L212.8 412.2C219.1 418.9 229.8 418.9 236.1 412.2L307.1 336.7C314.7 328.6 326 324.8 336.5 328.2C401.5 349.1 448.5 409.9 448.5 481.8C448.5 498.8 434.7 512.5 417.8 512.5H31.1996C14.2996 512.5 0.499593 498.7 0.499593 481.8C0.499593 409.9 47.4996 349.1 112.4 328.2Z" fill="#47535F"/>
</g>
<defs>
<clipPath id="clip0_104_2924">
<rect width="448" height="512" fill="white" transform="translate(0.5 0.5)"/>
</clipPath>
</defs>
</svg>
