<svg width="641" height="513" viewBox="0 0 641 513" fill="none" xmlns="http://www.w3.org/2000/svg">
<g clip-path="url(#clip0_104_2960)">
<path d="M41.5 7.49985C32.1 -1.80015 16.9 -1.80015 7.49995 7.49985C-1.90005 16.7999 -1.80005 32.0999 7.49995 41.4999L79.5 113.5C88.9 122.9 104.1 122.9 113.4 113.5C122.7 104.1 122.8 88.8999 113.4 79.5999L41.5 7.49985ZM599.5 7.49985L527.5 79.4999C518.1 88.8999 518.1 104.1 527.5 113.4C536.9 122.7 552.1 122.8 561.4 113.4L633.4 41.3999C642.8 31.9999 642.8 16.7999 633.4 7.49985C624 -1.80015 608.8 -1.90015 599.5 7.49985ZM7.49995 505.5C16.9 514.9 32.1 514.9 41.4 505.5L113.4 433.5C122.8 424.1 122.8 408.9 113.4 399.6C104 390.3 88.8 390.2 79.5 399.6L7.49995 471.5C-1.90005 480.9 -1.90005 496.1 7.49995 505.4V505.5ZM599.5 505.5C608.9 514.9 624.1 514.9 633.4 505.5C642.7 496.1 642.8 480.9 633.4 471.6L561.4 399.6C552 390.2 536.8 390.2 527.5 399.6C518.2 409 518.1 424.2 527.5 433.5L599.5 505.5ZM320.5 256.5C337.474 256.5 353.752 249.757 365.755 237.755C377.757 225.752 384.5 209.474 384.5 192.5C384.5 175.526 377.757 159.247 365.755 147.245C353.752 135.243 337.474 128.5 320.5 128.5C303.526 128.5 287.247 135.243 275.245 147.245C263.243 159.247 256.5 175.526 256.5 192.5C256.5 209.474 263.243 225.752 275.245 237.755C287.247 249.757 303.526 256.5 320.5 256.5ZM212.6 336.5C209.9 344 208.5 352.1 208.5 360.5C208.5 373.8 219.2 384.5 232.5 384.5H408.5C421.8 384.5 432.5 373.8 432.5 360.5C432.5 352.1 431.1 344 428.4 336.5C427.9 335.1 427.4 333.8 426.8 332.5C417.4 310.2 397 293.6 372.5 289.5C368.6 288.8 364.6 288.5 360.5 288.5H280.5C276.4 288.5 272.4 288.8 268.5 289.5C267.7 289.6 266.8 289.8 266 290C241.1 295.1 220.9 313 212.6 336.5ZM176.3 224.5C182.603 224.5 188.845 223.258 194.669 220.846C200.492 218.434 205.784 214.898 210.241 210.441C214.698 205.984 218.234 200.692 220.646 194.869C223.058 189.045 224.3 182.803 224.3 176.5C224.3 170.196 223.058 163.955 220.646 158.131C218.234 152.307 214.698 147.016 210.241 142.559C205.784 138.102 200.492 134.566 194.669 132.154C188.845 129.741 182.603 128.5 176.3 128.5C169.997 128.5 163.755 129.741 157.931 132.154C152.108 134.566 146.816 138.102 142.359 142.559C137.902 147.016 134.366 152.307 131.954 158.131C129.542 163.955 128.3 170.196 128.3 176.5C128.3 182.803 129.542 189.045 131.954 194.869C134.366 200.692 137.902 205.984 142.359 210.441C146.816 214.898 152.108 218.434 157.931 220.846C163.755 223.258 169.997 224.5 176.3 224.5ZM149.8 256.5C120.4 256.5 96.5 280.4 96.5 309.8C96.5 324.5 108.4 336.5 123.2 336.5H179.3C187.3 302.4 212.1 274.8 244.5 262.9C237 258.8 228.3 256.5 219.2 256.5H149.8ZM517.8 336.5C532.5 336.5 544.5 324.6 544.5 309.8C544.5 280.3 520.6 256.5 491.2 256.5H421.8C412.6 256.5 404 258.8 396.5 262.9C428.9 274.8 453.7 302.4 461.7 336.5H517.8ZM464.5 224.5C470.803 224.5 477.045 223.258 482.869 220.846C488.692 218.434 493.984 214.898 498.441 210.441C502.898 205.984 506.434 200.692 508.846 194.869C511.258 189.045 512.5 182.803 512.5 176.5C512.5 170.196 511.258 163.955 508.846 158.131C506.434 152.307 502.898 147.016 498.441 142.559C493.984 138.102 488.692 134.566 482.869 132.154C477.045 129.741 470.803 128.5 464.5 128.5C458.196 128.5 451.955 129.741 446.131 132.154C440.308 134.566 435.016 138.102 430.559 142.559C426.102 147.016 422.566 152.307 420.154 158.131C417.741 163.955 416.5 170.196 416.5 176.5C416.5 182.803 417.741 189.045 420.154 194.869C422.566 200.692 426.102 205.984 430.559 210.441C435.016 214.898 440.308 218.434 446.131 220.846C451.955 223.258 458.196 224.5 464.5 224.5Z" fill="#47535F"/>
</g>
<defs>
<clipPath id="clip0_104_2960">
<rect width="640" height="512" fill="white" transform="translate(0.5 0.5)"/>
</clipPath>
</defs>
</svg>
