<svg width="641" height="513" viewBox="0 0 641 513" fill="none" xmlns="http://www.w3.org/2000/svg">
<g clip-path="url(#clip0_104_2954)">
<path d="M224.5 256.5C258.448 256.5 291.005 243.014 315.01 219.01C339.014 195.005 352.5 162.448 352.5 128.5C352.5 94.5523 339.014 61.995 315.01 37.9903C291.005 13.9857 258.448 0.5 224.5 0.5C190.552 0.5 157.995 13.9857 133.99 37.9903C109.986 61.995 96.5 94.5523 96.5 128.5C96.5 162.448 109.986 195.005 133.99 219.01C157.995 243.014 190.552 256.5 224.5 256.5ZM178.8 304.5C80.3 304.5 0.5 384.3 0.5 482.8C0.5 499.2 13.8 512.5 30.2 512.5H418.8C420.6 512.5 422.3 512.3 424.1 512C347.8 456.9 324.3 371 321 311.8C304.9 307 287.9 304.5 270.3 304.5H178.8ZM487.6 226.2L367.6 274.2C358.5 277.9 352.5 286.7 352.5 296.5C352.5 359.8 378.4 465.3 487.3 510.7C493.2 513.2 499.9 513.2 505.8 510.7C614.6 465.3 640.5 359.8 640.5 296.5C640.5 286.7 634.5 277.9 625.4 274.2L505.4 226.2C499.7 223.9 493.3 223.9 487.6 226.2ZM591.9 312.5C588 363.2 564.7 429.2 496.5 462.2V274.3L591.9 312.5Z" fill="#47535F"/>
</g>
<defs>
<clipPath id="clip0_104_2954">
<rect width="640" height="512" fill="white" transform="translate(0.5 0.5)"/>
</clipPath>
</defs>
</svg>
