<svg width="449" height="513" viewBox="0 0 449 513" fill="none" xmlns="http://www.w3.org/2000/svg">
<g clip-path="url(#clip0_104_2914)">
<path d="M371.2 96.6C346.6 40 290.2 0.5 224.5 0.5C158.8 0.5 102.4 40 77.8 96.6C61.4 98 48.5 111.7 48.5 128.5V192.5C48.5 209.3 61.4 223 77.8 224.4C102.4 281 158.8 320.5 224.5 320.5C290.2 320.5 346.6 281 371.2 224.4C387.6 223 400.5 209.3 400.5 192.5V128.5C400.5 111.7 387.6 98 371.2 96.6ZM336.5 144.5V160.5C336.5 213.5 293.5 256.5 240.5 256.5H208.5C155.5 256.5 112.5 213.5 112.5 160.5V144.5C112.5 118 134 96.5 160.5 96.5H288.5C315 96.5 336.5 118 336.5 144.5ZM189.8 163.2L183.8 142C182.9 138.7 179.9 136.5 176.5 136.5C173.1 136.5 170.1 138.7 169.2 142L163.2 163.2L142 169.2C138.7 170.1 136.5 173.1 136.5 176.5C136.5 179.9 138.7 182.9 142 183.8L163.2 189.8L169.2 211C170.1 214.3 173.1 216.5 176.5 216.5C179.9 216.5 182.9 214.3 183.8 211L189.8 189.8L211 183.8C214.3 182.9 216.5 179.9 216.5 176.5C216.5 173.1 214.3 170.1 211 169.2L189.8 163.2ZM113.2 317C47.2 343.1 0.5 407.5 0.5 482.8C0.5 499.2 13.8 512.5 30.2 512.5H128.5V448.5C128.5 430.8 142.8 416.5 160.5 416.5H288.5C306.2 416.5 320.5 430.8 320.5 448.5V512.5H418.8C435.2 512.5 448.5 499.2 448.5 482.8C448.5 407.5 401.8 343.1 335.8 317C304.4 339.3 266 352.5 224.5 352.5C183 352.5 144.6 339.3 113.2 317ZM176.5 448.5C167.7 448.5 160.5 455.7 160.5 464.5V512.5H192.5V464.5C192.5 455.7 185.3 448.5 176.5 448.5ZM272.5 480.5C276.743 480.5 280.813 478.814 283.814 475.814C286.814 472.813 288.5 468.743 288.5 464.5C288.5 460.257 286.814 456.187 283.814 453.186C280.813 450.186 276.743 448.5 272.5 448.5C268.257 448.5 264.187 450.186 261.186 453.186C258.186 456.187 256.5 460.257 256.5 464.5C256.5 468.743 258.186 472.813 261.186 475.814C264.187 478.814 268.257 480.5 272.5 480.5Z" fill="#47535F"/>
</g>
<defs>
<clipPath id="clip0_104_2914">
<rect width="448" height="512" fill="white" transform="translate(0.5 0.5)"/>
</clipPath>
</defs>
</svg>
