<svg width="641" height="513" viewBox="0 0 641 513" fill="none" xmlns="http://www.w3.org/2000/svg">
<g clip-path="url(#clip0_104_2948)">
<path d="M0.5 24.5C0.5 11.2 11.2 0.5 24.5 0.5H616.5C629.8 0.5 640.5 11.2 640.5 24.5C640.5 37.8 629.8 48.5 616.5 48.5H24.5C11.2 48.5 0.5 37.8 0.5 24.5ZM0.5 488.5C0.5 475.2 11.2 464.5 24.5 464.5H616.5C629.8 464.5 640.5 475.2 640.5 488.5C640.5 501.8 629.8 512.5 616.5 512.5H24.5C11.2 512.5 0.5 501.8 0.5 488.5ZM83.7 160.5C83.7 152.095 85.3554 143.773 88.5717 136.008C91.788 128.243 96.5022 121.188 102.445 115.245C108.388 109.302 115.443 104.588 123.208 101.372C130.973 98.1554 139.295 96.5 147.7 96.5C156.105 96.5 164.427 98.1554 172.192 101.372C179.957 104.588 187.012 109.302 192.955 115.245C198.898 121.188 203.612 128.243 206.828 136.008C210.045 143.773 211.7 152.095 211.7 160.5C211.7 177.474 204.957 193.753 192.955 205.755C180.953 217.757 164.674 224.5 147.7 224.5C130.726 224.5 114.447 217.757 102.445 205.755C90.4428 193.753 83.7 177.474 83.7 160.5ZM32.5 320.5C32.5 285.2 61.2 256.5 96.5 256.5H192.5C204.7 256.5 216.2 259.9 225.9 265.9C188.7 281 160.3 313.1 150.1 352.5H64.5C46.8 352.5 32.5 338.2 32.5 320.5ZM494.1 352.5C483.8 312.4 454.5 279.9 416.4 265.1C425.8 259.6 436.8 256.5 448.5 256.5H544.5C579.8 256.5 608.5 285.2 608.5 320.5C608.5 338.2 594.2 352.5 576.5 352.5H494.1ZM391.7 290.9C423.8 298.3 449.8 321.8 460.6 352.5C464.1 362.5 466.1 373.3 466.1 384.5C466.1 402.2 451.8 416.5 434.1 416.5H210.1C192.4 416.5 178.1 402.2 178.1 384.5C178.1 373.3 180 362.5 183.6 352.5C194.1 322.8 218.9 299.7 249.7 291.6C257.5 289.5 265.7 288.5 274.2 288.5H370.2C377.6 288.5 384.9 289.3 391.8 290.9H391.7ZM435.7 160.5C435.7 143.526 442.443 127.247 454.445 115.245C466.447 103.243 482.726 96.5 499.7 96.5C516.674 96.5 532.953 103.243 544.955 115.245C556.957 127.247 563.7 143.526 563.7 160.5C563.7 177.474 556.957 193.753 544.955 205.755C532.953 217.757 516.674 224.5 499.7 224.5C482.726 224.5 466.447 217.757 454.445 205.755C442.443 193.753 435.7 177.474 435.7 160.5ZM322.1 96.5C343.317 96.5 363.666 104.929 378.669 119.931C393.671 134.934 402.1 155.283 402.1 176.5C402.1 197.717 393.671 218.066 378.669 233.069C363.666 248.071 343.317 256.5 322.1 256.5C300.883 256.5 280.534 248.071 265.531 233.069C250.529 218.066 242.1 197.717 242.1 176.5C242.1 155.283 250.529 134.934 265.531 119.931C280.534 104.929 300.883 96.5 322.1 96.5Z" fill="#47535F"/>
</g>
<defs>
<clipPath id="clip0_104_2948">
<rect width="640" height="512" fill="white" transform="translate(0.5 0.5)"/>
</clipPath>
</defs>
</svg>
