<svg width="641" height="513" viewBox="0 0 641 513" fill="none" xmlns="http://www.w3.org/2000/svg">
<g clip-path="url(#clip0_104_2922)">
<path d="M224.5 0.5C258.448 0.5 291.005 13.9857 315.01 37.9903C339.014 61.995 352.5 94.5523 352.5 128.5C352.5 162.448 339.014 195.005 315.01 219.01C291.005 243.014 258.448 256.5 224.5 256.5C190.552 256.5 157.995 243.014 133.99 219.01C109.986 195.005 96.5 162.448 96.5 128.5C96.5 94.5523 109.986 61.995 133.99 37.9903C157.995 13.9857 190.552 0.5 224.5 0.5ZM178.8 304.5H270.2C282 304.5 293.6 305.7 304.7 307.8C302.6 326.3 312.1 343.4 326.5 352.6C309.9 363.2 299.8 384.2 306.5 405.9C310.5 418.8 315.9 431.4 322.9 443.5C329.9 455.6 338.1 466.6 347.3 476.5C363 493.4 386.9 494.9 404.5 485.2V486.1C404.5 495.3 407.2 504.6 412.4 512.4H30.2C13.8 512.5 0.5 499.2 0.5 482.8C0.5 384.3 80.3 304.5 178.8 304.5ZM436.5 218.7C436.5 211.7 441 205.4 447.8 203.9C458.3 201.5 469.3 200.2 480.5 200.2C491.7 200.2 502.7 201.5 513.2 203.9C520 205.4 524.5 211.7 524.5 218.7V249.3C532.4 252.7 539.9 257 546.8 262.1L571.7 247.8C577.8 244.3 585.4 245.1 590.2 250.2C597.8 258.3 604.5 267.4 610.3 277.4C616.1 287.4 620.6 297.8 623.8 308.4C625.9 315.1 622.7 322.1 616.6 325.6L591.6 340C592 344 592.3 348.1 592.3 352.3C592.3 356.5 592.1 360.5 591.6 364.6L616.6 379C622.7 382.5 625.8 389.5 623.8 396.2C620.5 406.8 616 417.2 610.3 427.2C604.6 437.2 597.8 446.3 590.2 454.4C585.4 459.5 577.7 460.3 571.7 456.8L546.8 442.5C539.9 447.6 532.5 451.9 524.5 455.3V485.9C524.5 492.9 520 499.2 513.2 500.7C502.7 503.1 491.7 504.4 480.5 504.4C469.3 504.4 458.3 503.1 447.8 500.7C441 499.2 436.5 492.9 436.5 485.9V455.3C428.5 451.9 420.9 447.6 414 442.4L389.3 456.7C383.2 460.2 375.6 459.4 370.8 454.3C363.2 446.2 356.5 437.1 350.7 427.1C344.9 417.1 340.4 406.7 337.2 396.1C335.1 389.4 338.3 382.4 344.4 378.9L369.2 364.6C368.8 360.5 368.5 356.4 368.5 352.2C368.5 348 368.7 343.9 369.2 339.8L344.3 325.5C338.2 322 335.1 315 337.1 308.3C340.4 297.7 344.8 287.3 350.6 277.3C356.4 267.3 363.1 258.2 370.7 250.1C375.5 245 383.1 244.2 389.2 247.7L414 262C420.9 256.9 428.5 252.6 436.5 249.1V218.7ZM528.6 352.2C528.896 345.706 527.873 339.218 525.592 333.131C523.311 327.043 519.819 321.48 515.328 316.78C510.837 312.079 505.44 308.338 499.462 305.782C493.485 303.225 487.051 301.907 480.55 301.907C474.049 301.907 467.615 303.225 461.638 305.782C455.66 308.338 450.263 312.079 445.772 316.78C441.281 321.48 437.789 327.043 435.508 333.131C433.227 339.218 432.204 345.706 432.5 352.2C432.204 358.694 433.227 365.182 435.508 371.269C437.789 377.357 441.281 382.92 445.772 387.62C450.263 392.321 455.66 396.062 461.638 398.618C467.615 401.175 474.049 402.493 480.55 402.493C487.051 402.493 493.485 401.175 499.462 398.618C505.44 396.062 510.837 392.321 515.328 387.62C519.819 382.92 523.311 377.357 525.592 371.269C527.873 365.182 528.896 358.694 528.6 352.2Z" fill="#47535F"/>
</g>
<defs>
<clipPath id="clip0_104_2922">
<rect width="640" height="512" fill="white" transform="translate(0.5 0.5)"/>
</clipPath>
</defs>
</svg>
