<svg width="641" height="513" viewBox="0 0 641 513" fill="none" xmlns="http://www.w3.org/2000/svg">
<g clip-path="url(#clip0_104_2952)">
<path d="M144.5 160.5C165.717 160.5 186.066 152.071 201.069 137.069C216.071 122.066 224.5 101.717 224.5 80.5C224.5 59.2827 216.071 38.9344 201.069 23.9315C186.066 8.92855 165.717 0.5 144.5 0.5C123.283 0.5 102.934 8.92855 87.9315 23.9315C72.9285 38.9344 64.5 59.2827 64.5 80.5C64.5 101.717 72.9285 122.066 87.9315 137.069C102.934 152.071 123.283 160.5 144.5 160.5ZM512.5 160.5C533.717 160.5 554.066 152.071 569.069 137.069C584.071 122.066 592.5 101.717 592.5 80.5C592.5 59.2827 584.071 38.9344 569.069 23.9315C554.066 8.92855 533.717 0.5 512.5 0.5C491.283 0.5 470.934 8.92855 455.931 23.9315C440.929 38.9344 432.5 59.2827 432.5 80.5C432.5 101.717 440.929 122.066 455.931 137.069C470.934 152.071 491.283 160.5 512.5 160.5ZM0.5 299.2C0.5 310.9 10.1 320.5 21.8 320.5H235.2C235.4 320.5 235.6 320.5 235.9 320.5C209.3 297 192.6 262.7 192.6 224.5C192.6 216.9 193.3 209.5 194.5 202.2C180.9 195.9 165.8 192.5 149.9 192.5H107.2C48.3 192.5 0.5 240.3 0.5 299.2ZM320.5 320.5C344.5 320.5 366.4 311.7 383.2 297.2C385.7 293.5 388.4 289.9 391.2 286.5C393.9 283.2 396.9 280.4 400.2 278.2C410.5 262.8 416.5 244.4 416.5 224.5C416.5 171.5 373.5 128.5 320.5 128.5C267.5 128.5 224.5 171.5 224.5 224.5C224.5 277.5 267.5 320.5 320.5 320.5ZM385.9 380.7C375.6 374.8 367.8 364.5 365.1 352.5H261.8C188.2 352.5 128.5 412.2 128.5 485.8C128.5 500.5 140.4 512.5 155.2 512.5H455.7C453.6 507.3 452.5 501.6 452.5 496.1V493.1C451.2 492.4 449.8 491.6 448.5 490.8L445.9 492.3C429.1 502 405.4 500.3 391.2 482.6C386.7 477 382.6 471.1 378.8 465L378.7 464.8L378.6 464.6L376.2 460.5L376.1 460.3L376 460.1C372.6 453.9 369.6 447.5 367 440.8C358.8 419.6 369.2 398.2 386 388.5L388.7 387C388.7 386.2 388.7 385.5 388.7 384.7C388.7 383.9 388.7 383.2 388.7 382.4L386 380.9L385.9 380.7ZM533.8 192.5H491.2C475.3 192.5 460.2 196 446.6 202.2C447.9 209.4 448.5 216.9 448.5 224.5C448.5 241.9 445 258.4 438.8 273.5C441.3 274.4 443.7 275.5 445.9 276.8L448.5 278.3C449.8 277.5 451.1 276.7 452.5 276V273C452.5 253.6 465.8 233.9 488.3 230.4C496.2 229.2 504.3 228.5 512.5 228.5C520.7 228.5 528.8 229.1 536.7 230.4C559.2 233.9 572.5 253.6 572.5 273V276C573.8 276.7 575.2 277.5 576.5 278.3L579.1 276.8C595.9 267.1 619.6 268.8 633.8 286.5C636.1 289.3 638.3 292.3 640.4 295.2C638.3 238.1 591.4 192.5 533.8 192.5ZM625.1 356.4C631.4 352.8 634.6 345.3 631.9 338.4C629.8 332.9 627.3 327.6 624.5 322.5L622.2 318.5C619.1 313.4 615.7 308.6 612 304C607.4 298.3 599.3 297.3 593 301L574.9 311.5C566 303.9 555.8 297.9 544.5 293.9V272.9C544.5 265.6 539.6 259.1 532.4 258C525.9 257 519.3 256.5 512.5 256.5C505.7 256.5 499.1 257 492.6 258C485.4 259.1 480.5 265.6 480.5 272.9V293.9C469.3 297.9 459 303.9 450.1 311.5L431.9 301C425.6 297.4 417.5 298.4 412.9 304C409.2 308.6 405.8 313.5 402.7 318.6L400.4 322.5C397.6 327.6 395.1 332.9 393 338.4C390.4 345.2 393.5 352.7 399.8 356.3L418 366.8C417 372.5 416.4 378.4 416.4 384.4C416.4 390.4 417 396.3 418 401.9L399.8 412.4C393.5 416 390.3 423.5 393 430.3C395.1 435.8 397.6 441 400.4 446.1L402.8 450.2C405.8 455.3 409.2 460.1 412.9 464.7C417.5 470.4 425.6 471.4 431.9 467.7L450.1 457.5C459 465.1 469.3 471.1 480.5 475.1V496.1C480.5 503.4 485.4 509.9 492.6 511C499.1 512 505.7 512.5 512.5 512.5C519.3 512.5 525.9 512 532.4 511C539.6 509.9 544.5 503.4 544.5 496.1V475.1C555.7 471.1 566 465.1 574.9 457.5L593.1 468C599.4 471.6 607.5 470.6 612.1 465C615.8 460.4 619.2 455.6 622.2 450.5L624.6 446.3C627.4 441.2 629.9 436 632 430.5C634.6 423.7 631.5 416.2 625.2 412.6L607 402.1C608 396.4 608.6 390.5 608.6 384.6C608.6 378.7 608 372.7 607 367L625.2 356.5L625.1 356.4ZM472.5 384.5C472.5 373.891 476.714 363.717 484.216 356.216C491.717 348.714 501.891 344.5 512.5 344.5C523.109 344.5 533.283 348.714 540.784 356.216C548.286 363.717 552.5 373.891 552.5 384.5C552.5 395.109 548.286 405.283 540.784 412.784C533.283 420.286 523.109 424.5 512.5 424.5C501.891 424.5 491.717 420.286 484.216 412.784C476.714 405.283 472.5 395.109 472.5 384.5Z" fill="#47535F"/>
</g>
<defs>
<clipPath id="clip0_104_2952">
<rect width="640" height="512" fill="white" transform="translate(0.5 0.5)"/>
</clipPath>
</defs>
</svg>
