<svg width="641" height="513" viewBox="0 0 641 513" fill="none" xmlns="http://www.w3.org/2000/svg">
<g clip-path="url(#clip0_104_2968)">
<path d="M224.5 256.5C258.448 256.5 291.005 243.014 315.01 219.01C339.014 195.005 352.5 162.448 352.5 128.5C352.5 94.5523 339.014 61.995 315.01 37.9903C291.005 13.9857 258.448 0.5 224.5 0.5C190.552 0.5 157.995 13.9857 133.99 37.9903C109.986 61.995 96.5 94.5523 96.5 128.5C96.5 162.448 109.986 195.005 133.99 219.01C157.995 243.014 190.552 256.5 224.5 256.5ZM178.8 304.5C80.3 304.5 0.5 384.3 0.5 482.8C0.5 499.2 13.8 512.5 30.2 512.5H418.8C428.8 512.5 437.6 507.6 443 500L343.8 400.8C328.9 385.9 320.5 365.7 320.5 344.7V311.7C304.6 307 287.7 304.5 270.2 304.5H178.8ZM384.5 224.5C366.8 224.5 352.5 238.8 352.5 256.5V339.2C352.5 356.2 359.2 372.5 371.2 384.5L478.6 491.8C497.3 510.5 527.7 510.5 546.5 491.8L619.9 418.4C638.6 399.7 638.6 369.3 619.9 350.5L512.5 243.2C500.5 231.2 484.2 224.5 467.2 224.5H384.5ZM408.5 304.5C408.5 298.135 411.029 292.03 415.529 287.529C420.03 283.029 426.135 280.5 432.5 280.5C438.865 280.5 444.97 283.029 449.471 287.529C453.971 292.03 456.5 298.135 456.5 304.5C456.5 310.865 453.971 316.97 449.471 321.471C444.97 325.971 438.865 328.5 432.5 328.5C426.135 328.5 420.03 325.971 415.529 321.471C411.029 316.97 408.5 310.865 408.5 304.5Z" fill="#47535F"/>
</g>
<defs>
<clipPath id="clip0_104_2968">
<rect width="640" height="512" fill="white" transform="translate(0.5 0.5)"/>
</clipPath>
</defs>
</svg>
