<svg width="449" height="513" viewBox="0 0 449 513" fill="none" xmlns="http://www.w3.org/2000/svg">
<g clip-path="url(#clip0_104_2920)">
<path d="M224.5 256.5C258.448 256.5 291.005 243.014 315.01 219.01C339.014 195.005 352.5 162.448 352.5 128.5C352.5 94.5523 339.014 61.995 315.01 37.9903C291.005 13.9857 258.448 0.5 224.5 0.5C190.552 0.5 157.995 13.9857 133.99 37.9903C109.986 61.995 96.5 94.5523 96.5 128.5C96.5 162.448 109.986 195.005 133.99 219.01C157.995 243.014 190.552 256.5 224.5 256.5ZM128.5 311.7C54.5 333.4 0.5 401.8 0.5 482.8C0.5 499.2 13.8 512.5 30.2 512.5H418.8C435.2 512.5 448.5 499.2 448.5 482.8C448.5 401.8 394.5 333.4 320.5 311.7V362.5C348.1 369.6 368.5 394.7 368.5 424.5V464.5C368.5 473.3 361.3 480.5 352.5 480.5H336.5C327.7 480.5 320.5 473.3 320.5 464.5C320.5 455.7 327.7 448.5 336.5 448.5V424.5C336.5 406.8 322.2 392.5 304.5 392.5C286.8 392.5 272.5 406.8 272.5 424.5V448.5C281.3 448.5 288.5 455.7 288.5 464.5C288.5 473.3 281.3 480.5 272.5 480.5H256.5C247.7 480.5 240.5 473.3 240.5 464.5V424.5C240.5 394.7 260.9 369.6 288.5 362.5V305.4C282.5 304.8 276.4 304.5 270.2 304.5H178.8C172.6 304.5 166.5 304.8 160.5 305.4V370.8C183.6 377.7 200.5 399.1 200.5 424.5C200.5 455.4 175.4 480.5 144.5 480.5C113.6 480.5 88.5 455.4 88.5 424.5C88.5 399.1 105.4 377.7 128.5 370.8V311.7ZM144.5 448.5C150.865 448.5 156.97 445.971 161.471 441.471C165.971 436.97 168.5 430.865 168.5 424.5C168.5 418.135 165.971 412.03 161.471 407.529C156.97 403.029 150.865 400.5 144.5 400.5C138.135 400.5 132.03 403.029 127.529 407.529C123.029 412.03 120.5 418.135 120.5 424.5C120.5 430.865 123.029 436.97 127.529 441.471C132.03 445.971 138.135 448.5 144.5 448.5Z" fill="#47535F"/>
</g>
<defs>
<clipPath id="clip0_104_2920">
<rect width="448" height="512" fill="white" transform="translate(0.5 0.5)"/>
</clipPath>
</defs>
</svg>
