<svg width="641" height="513" viewBox="0 0 641 513" fill="none" xmlns="http://www.w3.org/2000/svg">
<g clip-path="url(#clip0_104_2926)">
<path d="M96.5 128.5C96.5 94.5523 109.986 61.995 133.99 37.9903C157.995 13.9857 190.552 0.5 224.5 0.5C258.448 0.5 291.005 13.9857 315.01 37.9903C339.014 61.995 352.5 94.5523 352.5 128.5C352.5 162.448 339.014 195.005 315.01 219.01C291.005 243.014 258.448 256.5 224.5 256.5C190.552 256.5 157.995 243.014 133.99 219.01C109.986 195.005 96.5 162.448 96.5 128.5ZM0.5 482.8C0.5 384.3 80.3 304.5 178.8 304.5H270.2C368.7 304.5 448.5 384.3 448.5 482.8C448.5 499.2 435.2 512.5 418.8 512.5H30.2C13.8 512.5 0.5 499.2 0.5 482.8ZM609.8 512.5H471.9C477.3 503.1 480.5 492.2 480.5 480.5V472.5C480.5 411.8 453.4 357.3 410.7 320.7C413.1 320.6 415.4 320.5 417.8 320.5H479.2C568.3 320.5 640.5 392.7 640.5 481.8C640.5 498.8 626.7 512.5 609.8 512.5ZM432.5 256.5C401.5 256.5 373.5 243.9 353.2 223.6C372.9 197 384.5 164.1 384.5 128.5C384.5 101.7 377.9 76.4 366.2 54.2C384.8 40.6 407.7 32.5 432.5 32.5C494.4 32.5 544.5 82.6 544.5 144.5C544.5 206.4 494.4 256.5 432.5 256.5Z" fill="#47535F"/>
</g>
<defs>
<clipPath id="clip0_104_2926">
<rect width="640" height="512" fill="white" transform="translate(0.5 0.5)"/>
</clipPath>
</defs>
</svg>
