<svg width="449" height="513" viewBox="0 0 449 513" fill="none" xmlns="http://www.w3.org/2000/svg">
<g clip-path="url(#clip0_104_2950)">
<path d="M224.5 16.5C217.8 16.5 213.7 13.7 209 10.4C202.4 5.9 194.5 0.5 176.5 0.5C146 0.5 124.5 44.2 110.5 89.9C63.2 98.6 32.5 112.7 32.5 128.5C32.5 142.8 57.5 155.6 97.1 164.4C96.7 168.4 96.5 172.4 96.5 176.5C96.5 193.5 99.8 209.7 105.8 224.5H45.9C38.5 224.5 32.5 230.5 32.5 237.9C32.5 239.6 32.8 241.3 33.5 242.9L72.3 339.8C28.7 372.3 0.5 424.3 0.5 482.8C0.5 499.2 13.8 512.5 30.2 512.5H418.8C435.2 512.5 448.5 499.2 448.5 482.8C448.5 424.3 420.3 372.4 376.8 339.8L415.5 242.9C416.1 241.3 416.5 239.6 416.5 237.9C416.5 230.5 410.5 224.5 403.1 224.5H343.2C349.2 209.7 352.5 193.5 352.5 176.5C352.5 172.4 352.3 168.4 351.9 164.4C391.5 155.6 416.5 142.8 416.5 128.5C416.5 112.7 385.8 98.6 338.5 89.9C324.5 44.2 303 0.5 272.5 0.5C254.5 0.5 246.6 5.9 240 10.4C235.2 13.7 231.2 16.5 224.5 16.5ZM280.5 224.5H268.1C251.6 224.5 237 213.9 231.8 198.3C229.5 191.3 219.6 191.3 217.3 198.3C212.1 213.9 197.4 224.5 181 224.5H168.5C146.4 224.5 128.5 206.6 128.5 184.5V170.1C156.7 174.2 189.5 176.5 224.5 176.5C259.5 176.5 292.3 174.2 320.5 170.1V184.5C320.5 206.6 302.6 224.5 280.5 224.5ZM192.5 320.5L208.5 352.5L176.5 480.5L128.5 288.5L192.5 320.5ZM320.5 288.5L272.5 480.5L240.5 352.5L256.5 320.5L320.5 288.5Z" fill="#47535F"/>
</g>
<defs>
<clipPath id="clip0_104_2950">
<rect width="448" height="512" fill="white" transform="translate(0.5 0.5)"/>
</clipPath>
</defs>
</svg>
