<svg width="641" height="513" viewBox="0 0 641 513" fill="none" xmlns="http://www.w3.org/2000/svg">
<g clip-path="url(#clip0_104_2964)">
<path d="M39.3 5.59976C28.9 -2.60024 13.8 -0.700238 5.60001 9.69976C-2.59999 20.0998 -0.699994 35.1998 9.70001 43.3998L601.7 507.4C612.1 515.6 627.2 513.7 635.4 503.3C643.6 492.9 641.7 477.8 631.3 469.6L441.1 320.5H619.2C631 320.5 640.5 310.9 640.5 299.2C640.5 240.3 592.7 192.5 533.8 192.5H491.2C475.3 192.5 460.2 196 446.6 202.2C447.9 209.4 448.5 216.9 448.5 224.5C448.5 254.7 438 282.5 420.5 304.4L395.3 284.7C408.6 268.2 416.5 247.3 416.5 224.5C416.5 171.5 373.5 128.5 320.5 128.5C289.4 128.5 261.8 143.3 244.2 166.2L203.6 134.4C216.6 120.2 224.5 101.3 224.5 80.4998C224.5 36.2998 188.7 0.499762 144.5 0.499762C116.8 0.499762 92.4 14.5998 78 35.9998L39.3 5.59976ZM107.2 192.5C48.3 192.5 0.500006 240.3 0.500006 299.2C0.500006 310.9 10.1 320.5 21.8 320.5H235.2C235.4 320.5 235.6 320.5 235.9 320.5C215.3 302.3 200.7 277.7 195.1 249.7L122.3 192.5H107.2ZM261.8 352.5C188.2 352.5 128.5 412.2 128.5 485.8C128.5 500.5 140.4 512.5 155.2 512.5H485.8C496.3 512.5 505.3 506.5 509.7 497.7L325.4 352.5H261.8ZM512.5 160.5C533.717 160.5 554.066 152.071 569.069 137.068C584.071 122.065 592.5 101.717 592.5 80.4998C592.5 59.2824 584.071 38.9341 569.069 23.9312C554.066 8.92831 533.717 0.499762 512.5 0.499762C491.283 0.499762 470.934 8.92831 455.931 23.9312C440.929 38.9341 432.5 59.2824 432.5 80.4998C432.5 101.717 440.929 122.065 455.931 137.068C470.934 152.071 491.283 160.5 512.5 160.5Z" fill="#47535F"/>
</g>
<defs>
<clipPath id="clip0_104_2964">
<rect width="640" height="512" fill="white" transform="translate(0.5 0.5)"/>
</clipPath>
</defs>
</svg>
