<svg width="449" height="513" viewBox="0 0 449 513" fill="none" xmlns="http://www.w3.org/2000/svg">
<g clip-path="url(#clip0_104_2940)">
<path d="M96.5 128.5V70.6998C96.5 57.3998 104.8 45.3998 117.3 40.6998L213.3 4.6998C220.5 1.9998 228.5 1.9998 235.8 4.6998L331.8 40.6998C344.3 45.3998 352.6 57.2998 352.6 70.6998V128.5H352.3C352.5 131.1 352.6 133.8 352.6 136.5V176.5C352.6 247.2 295.3 304.5 224.6 304.5C153.9 304.5 96.6 247.2 96.6 176.5V136.5C96.6 133.8 96.7 131.1 96.9 128.5H96.5ZM144.5 176.5C144.5 220.7 180.3 256.5 224.5 256.5C268.7 256.5 304.5 220.7 304.5 176.5V160.5H144.5V176.5ZM112.4 328.2C122.9 324.8 134.2 328.6 141.8 336.7L212.8 412.2C219.1 418.9 229.8 418.9 236.1 412.2L307.1 336.7C314.7 328.6 326 324.8 336.5 328.2C401.5 349.1 448.5 409.9 448.5 481.8C448.5 498.8 434.7 512.5 417.8 512.5H31.2C14.3 512.5 0.5 498.7 0.5 481.8C0.5 409.9 47.5 349.1 112.4 328.2ZM208.5 48.4998V64.4998H192.5C188.1 64.4998 184.5 68.0998 184.5 72.4998V88.4998C184.5 92.8998 188.1 96.4998 192.5 96.4998H208.5V112.5C208.5 116.9 212.1 120.5 216.5 120.5H232.5C236.9 120.5 240.5 116.9 240.5 112.5V96.4998H256.5C260.9 96.4998 264.5 92.8998 264.5 88.4998V72.4998C264.5 68.0998 260.9 64.4998 256.5 64.4998H240.5V48.4998C240.5 44.0998 236.9 40.4998 232.5 40.4998H216.5C212.1 40.4998 208.5 44.0998 208.5 48.4998Z" fill="#47535F"/>
</g>
<defs>
<clipPath id="clip0_104_2940">
<rect width="448" height="512" fill="white" transform="translate(0.5 0.5)"/>
</clipPath>
</defs>
</svg>
