<svg width="641" height="513" viewBox="0 0 641 513" fill="none" xmlns="http://www.w3.org/2000/svg">
<g clip-path="url(#clip0_104_2966)">
<path d="M48.5 48.5H136.5C149.8 48.5 160.5 37.8 160.5 24.5C160.5 11.2 149.8 0.5 136.5 0.5H32.5C14.8 0.5 0.5 14.8 0.5 32.5V136.5C0.5 149.8 11.2 160.5 24.5 160.5C37.8 160.5 48.5 149.8 48.5 136.5V48.5ZM176.3 224.5C182.603 224.5 188.845 223.258 194.669 220.846C200.492 218.434 205.784 214.898 210.241 210.441C214.698 205.984 218.234 200.692 220.646 194.869C223.058 189.045 224.3 182.803 224.3 176.5C224.3 170.197 223.058 163.955 220.646 158.131C218.234 152.308 214.698 147.016 210.241 142.559C205.784 138.102 200.492 134.566 194.669 132.154C188.845 129.742 182.603 128.5 176.3 128.5C169.997 128.5 163.755 129.742 157.931 132.154C152.108 134.566 146.816 138.102 142.359 142.559C137.902 147.016 134.366 152.308 131.954 158.131C129.542 163.955 128.3 170.197 128.3 176.5C128.3 182.803 129.542 189.045 131.954 194.869C134.366 200.692 137.902 205.984 142.359 210.441C146.816 214.898 152.108 218.434 157.931 220.846C163.755 223.258 169.997 224.5 176.3 224.5ZM149.8 256.5C120.4 256.5 96.5 280.4 96.5 309.8C96.5 324.5 108.4 336.5 123.2 336.5H179.3C187.3 302.4 212.1 274.8 244.5 262.9C237 258.8 228.3 256.5 219.2 256.5H149.8ZM517.8 336.5C532.5 336.5 544.5 324.6 544.5 309.8C544.5 280.3 520.6 256.5 491.2 256.5H421.8C412.6 256.5 404 258.8 396.5 262.9C428.9 274.8 453.7 302.4 461.7 336.5H517.8ZM428.4 336.5C419.8 312.2 398.5 293.9 372.5 289.5C368.6 288.8 364.6 288.5 360.5 288.5H280.5C276.4 288.5 272.4 288.8 268.5 289.5C242.5 293.9 221.2 312.2 212.6 336.5C209.9 344 208.5 352.1 208.5 360.5C208.5 373.8 219.2 384.5 232.5 384.5H408.5C421.8 384.5 432.5 373.8 432.5 360.5C432.5 352.1 431.1 344 428.4 336.5ZM464.5 224.5C470.803 224.5 477.045 223.258 482.869 220.846C488.692 218.434 493.984 214.898 498.441 210.441C502.898 205.984 506.434 200.692 508.846 194.869C511.258 189.045 512.5 182.803 512.5 176.5C512.5 170.197 511.258 163.955 508.846 158.131C506.434 152.308 502.898 147.016 498.441 142.559C493.984 138.102 488.692 134.566 482.869 132.154C477.045 129.742 470.803 128.5 464.5 128.5C458.197 128.5 451.955 129.742 446.131 132.154C440.308 134.566 435.016 138.102 430.559 142.559C426.102 147.016 422.566 152.308 420.154 158.131C417.742 163.955 416.5 170.197 416.5 176.5C416.5 182.803 417.742 189.045 420.154 194.869C422.566 200.692 426.102 205.984 430.559 210.441C435.016 214.898 440.308 218.434 446.131 220.846C451.955 223.258 458.197 224.5 464.5 224.5ZM384.5 192.5C384.5 175.526 377.757 159.247 365.755 147.245C353.752 135.243 337.474 128.5 320.5 128.5C303.526 128.5 287.248 135.243 275.245 147.245C263.243 159.247 256.5 175.526 256.5 192.5C256.5 209.474 263.243 225.753 275.245 237.755C287.248 249.757 303.526 256.5 320.5 256.5C337.474 256.5 353.752 249.757 365.755 237.755C377.757 225.753 384.5 209.474 384.5 192.5ZM504.5 48.5H592.5V136.5C592.5 149.8 603.2 160.5 616.5 160.5C629.8 160.5 640.5 149.8 640.5 136.5V32.5C640.5 14.8 626.2 0.5 608.5 0.5H504.5C491.2 0.5 480.5 11.2 480.5 24.5C480.5 37.8 491.2 48.5 504.5 48.5ZM48.5 464.5V376.5C48.5 363.2 37.8 352.5 24.5 352.5C11.2 352.5 0.5 363.2 0.5 376.5V480.5C0.5 498.2 14.8 512.5 32.5 512.5H136.5C149.8 512.5 160.5 501.8 160.5 488.5C160.5 475.2 149.8 464.5 136.5 464.5H48.5ZM504.5 464.5C491.2 464.5 480.5 475.2 480.5 488.5C480.5 501.8 491.2 512.5 504.5 512.5H608.5C626.2 512.5 640.5 498.2 640.5 480.5V376.5C640.5 363.2 629.8 352.5 616.5 352.5C603.2 352.5 592.5 363.2 592.5 376.5V464.5H504.5Z" fill="#47535F"/>
</g>
<defs>
<clipPath id="clip0_104_2966">
<rect width="640" height="512" fill="white" transform="translate(0.5 0.5)"/>
</clipPath>
</defs>
</svg>
