<svg width="449" height="513" viewBox="0 0 449 513" fill="none" xmlns="http://www.w3.org/2000/svg">
<g clip-path="url(#clip0_104_2928)">
<path d="M240.5 80.5H343.2C335.3 61 322.8 44 307 30.6L240.5 80.5ZM278.2 12.3C261.8 4.7 243.7 0.5 224.5 0.5C170.8 0.5 124.8 33.6 105.8 80.5H187.2L278.2 12.3ZM224.5 256.5C295.2 256.5 352.5 199.2 352.5 128.5C352.5 123.1 352.2 117.7 351.5 112.5H97.5C96.8 117.7 96.5 123.1 96.5 128.5C96.5 199.2 153.8 256.5 224.5 256.5ZM124.5 312.9C114.8 316 105.4 319.9 96.5 324.6V512.5H244.2L182 408.7L124.5 312.9ZM157.5 305.7L204.8 384.5H272.5C316.7 384.5 352.5 420.3 352.5 464.5C352.5 482.5 346.5 499.1 336.5 512.5H418.8C435.2 512.5 448.5 499.2 448.5 482.8C448.5 384.3 368.7 304.5 270.2 304.5H178.8C171.6 304.5 164.5 304.9 157.5 305.8V305.7ZM0.5 482.8C0.5 499.2 13.8 512.5 30.2 512.5H64.5V345.9C25.4 378.6 0.5 427.8 0.5 482.8ZM320.5 464.5C320.5 438 299 416.5 272.5 416.5H224L281.1 511.7C303.5 507.7 320.5 488.1 320.5 464.5Z" fill="#47535F"/>
</g>
<defs>
<clipPath id="clip0_104_2928">
<rect width="448" height="512" fill="white" transform="translate(0.5 0.5)"/>
</clipPath>
</defs>
</svg>
