<svg width="641" height="513" viewBox="0 0 641 513" fill="none" xmlns="http://www.w3.org/2000/svg">
<g clip-path="url(#clip0_104_2956)">
<path d="M39.3 5.59976C28.9 -2.60024 13.8 -0.700238 5.60001 9.69976C-2.59999 20.0998 -0.699994 35.1998 9.70001 43.3998L601.7 507.4C612.1 515.6 627.2 513.7 635.4 503.3C643.6 492.9 641.7 477.8 631.3 469.6L353.8 252.1C408.4 237.5 448.5 187.7 448.5 128.5C448.5 57.7998 391.2 0.499762 320.5 0.499762C250.7 0.499762 194 56.2998 192.5 125.7L39.3 5.59976ZM264.8 304.8C171 309.9 96.5 387.7 96.5 482.8C96.5 499.2 109.8 512.5 126.2 512.5H514.8C518.7 512.5 522.4 511.8 525.8 510.4L264.8 304.8Z" fill="#47535F"/>
</g>
<defs>
<clipPath id="clip0_104_2956">
<rect width="640" height="512" fill="white" transform="translate(0.5 0.5)"/>
</clipPath>
</defs>
</svg>
