<svg width="449" height="513" viewBox="0 0 449 513" fill="none" xmlns="http://www.w3.org/2000/svg">
<g clip-path="url(#clip0_104_2938)">
<path d="M224.5 256.5C167.3 256.5 118.9 219 102.5 167.2C101.4 168.5 100.3 169.8 99 171C83.2 186.8 60.2 191.7 45.4 193.1C37.3 193.9 30.8 187.4 31.6 179.3C33 164.6 37.9 141.5 53.7 125.7C59.5 119.9 66.3 115.6 73.3 112.3C66.3 109.1 59.5 104.7 53.7 98.9C37.9 83.2 33.1 60.2 31.6 45.4C30.8 37.3 37.3 30.8 45.4 31.6C60.1 33 83.2 37.9 99 53.7C103.8 58.5 107.7 64.1 110.7 69.8C131.9 28.7 174.9 0.5 224.5 0.5C295.2 0.5 352.5 57.8 352.5 128.5C352.5 199.2 295.2 256.5 224.5 256.5ZM0.5 482.8C0.5 400 56.9 330.5 133.3 310.4C139.3 308.8 145.5 311.3 149.2 316.2L211.7 399.5C218.1 408 230.9 408 237.3 399.5L299.8 316.2C303.5 311.3 309.7 308.8 315.7 310.4C392.1 330.5 448.5 400 448.5 482.8C448.5 499.2 435.2 512.5 418.8 512.5H30.2C13.8 512.5 0.5 499.2 0.5 482.8ZM160.5 96.5C151.7 96.5 144.5 103.7 144.5 112.5C144.5 121.3 151.7 128.5 160.5 128.5H288.5C297.3 128.5 304.5 121.3 304.5 112.5C304.5 103.7 297.3 96.5 288.5 96.5H160.5Z" fill="#47535F"/>
</g>
<defs>
<clipPath id="clip0_104_2938">
<rect width="448" height="512" fill="white" transform="translate(0.5 0.5)"/>
</clipPath>
</defs>
</svg>
