<svg width="641" height="513" viewBox="0 0 641 513" fill="none" xmlns="http://www.w3.org/2000/svg">
<g clip-path="url(#clip0_104_2942)">
<path d="M224.5 256.5C258.448 256.5 291.005 243.014 315.01 219.01C339.014 195.005 352.5 162.448 352.5 128.5C352.5 94.5523 339.014 61.995 315.01 37.9903C291.005 13.9857 258.448 0.5 224.5 0.5C190.552 0.5 157.995 13.9857 133.99 37.9903C109.986 61.995 96.5 94.5523 96.5 128.5C96.5 162.448 109.986 195.005 133.99 219.01C157.995 243.014 190.552 256.5 224.5 256.5ZM178.8 304.5C80.3 304.5 0.5 384.3 0.5 482.8C0.5 499.2 13.8 512.5 30.2 512.5H323.3C320.2 503.7 319.6 494.1 321.9 484.7L336.9 424.6C339.7 413.3 345.5 403.1 353.7 394.9L394 354.6C361.9 323.6 318.3 304.5 270.1 304.5H178.8ZM614.3 236.2C598.7 220.6 573.4 220.6 557.7 236.2L528.3 265.6L599.3 336.6L628.7 307.2C644.3 291.6 644.3 266.3 628.7 250.6L614.3 236.2ZM376.4 417.5C372.3 421.6 369.4 426.7 368 432.4L353 492.5C351.6 498 353.2 503.7 357.2 507.7C361.2 511.7 366.9 513.3 372.4 511.9L432.5 496.9C438.1 495.5 443.3 492.6 447.4 488.5L576.6 359.2L505.6 288.2L376.4 417.5Z" fill="#47535F"/>
</g>
<defs>
<clipPath id="clip0_104_2942">
<rect width="640" height="512" fill="white" transform="translate(0.5 0.5)"/>
</clipPath>
</defs>
</svg>
