<svg width="641" height="513" viewBox="0 0 641 513" fill="none" xmlns="http://www.w3.org/2000/svg">
<g clip-path="url(#clip0_104_2946)">
<path d="M144.5 0.5C165.717 0.5 186.066 8.92855 201.069 23.9315C216.071 38.9344 224.5 59.2827 224.5 80.5C224.5 101.717 216.071 122.066 201.069 137.069C186.066 152.071 165.717 160.5 144.5 160.5C123.283 160.5 102.934 152.071 87.9315 137.069C72.9285 122.066 64.5 101.717 64.5 80.5C64.5 59.2827 72.9285 38.9344 87.9315 23.9315C102.934 8.92855 123.283 0.5 144.5 0.5ZM512.5 0.5C533.717 0.5 554.066 8.92855 569.069 23.9315C584.071 38.9344 592.5 59.2827 592.5 80.5C592.5 101.717 584.071 122.066 569.069 137.069C554.066 152.071 533.717 160.5 512.5 160.5C491.283 160.5 470.934 152.071 455.931 137.069C440.929 122.066 432.5 101.717 432.5 80.5C432.5 59.2827 440.929 38.9344 455.931 23.9315C470.934 8.92855 491.283 0.5 512.5 0.5ZM0.5 299.2C0.5 240.3 48.3 192.5 107.2 192.5H149.9C165.8 192.5 180.9 196 194.5 202.2C193.2 209.4 192.6 216.9 192.6 224.5C192.6 262.7 209.4 297 235.9 320.5C235.7 320.5 235.5 320.5 235.2 320.5H21.8C10.1 320.5 0.5 310.9 0.5 299.2ZM405.8 320.5C405.6 320.5 405.4 320.5 405.1 320.5C431.7 297 448.4 262.7 448.4 224.5C448.4 216.9 447.7 209.5 446.5 202.2C460.1 195.9 475.2 192.5 491.1 192.5H533.8C592.7 192.5 640.5 240.3 640.5 299.2C640.5 311 630.9 320.5 619.2 320.5H405.8ZM224.5 224.5C224.5 199.039 234.614 174.621 252.618 156.618C270.621 138.614 295.039 128.5 320.5 128.5C345.961 128.5 370.379 138.614 388.382 156.618C406.386 174.621 416.5 199.039 416.5 224.5C416.5 249.961 406.386 274.379 388.382 292.382C370.379 310.386 345.961 320.5 320.5 320.5C295.039 320.5 270.621 310.386 252.618 292.382C234.614 274.379 224.5 249.961 224.5 224.5ZM128.5 485.8C128.5 412.2 188.2 352.5 261.8 352.5H379.2C452.8 352.5 512.5 412.2 512.5 485.8C512.5 500.5 500.6 512.5 485.8 512.5H155.2C140.5 512.5 128.5 500.6 128.5 485.8Z" fill="#47535F"/>
</g>
<defs>
<clipPath id="clip0_104_2946">
<rect width="640" height="512" fill="white" transform="translate(0.5 0.5)"/>
</clipPath>
</defs>
</svg>
