<svg width="513" height="513" viewBox="0 0 513 513" fill="none" xmlns="http://www.w3.org/2000/svg">
<g clip-path="url(#clip0_104_2930)">
<path d="M256.5 288.5C294.691 288.5 331.318 273.329 358.323 246.323C385.329 219.318 400.5 182.691 400.5 144.5C400.5 106.309 385.329 69.6819 358.323 42.6766C331.318 15.6714 294.691 0.5 256.5 0.5C218.309 0.5 181.682 15.6714 154.677 42.6766C127.671 69.6819 112.5 106.309 112.5 144.5C112.5 182.691 127.671 219.318 154.677 246.323C181.682 273.329 218.309 288.5 256.5 288.5ZM161.8 320.5C72.7 320.5 0.5 392.7 0.5 481.8C0.5 498.8 14.3 512.5 31.2 512.5H481.8C498.8 512.5 512.5 498.7 512.5 481.8C512.5 392.7 440.3 320.5 351.2 320.5H161.8Z" fill="#47535F"/>
</g>
<defs>
<clipPath id="clip0_104_2930">
<rect width="512" height="512" fill="white" transform="translate(0.5 0.5)"/>
</clipPath>
</defs>
</svg>
