<svg width="641" height="513" viewBox="0 0 641 513" fill="none" xmlns="http://www.w3.org/2000/svg">
<g clip-path="url(#clip0_104_2918)">
<path d="M224.5 0.5C258.448 0.5 291.005 13.9857 315.01 37.9903C339.014 61.995 352.5 94.5523 352.5 128.5C352.5 162.448 339.014 195.005 315.01 219.01C291.005 243.014 258.448 256.5 224.5 256.5C190.552 256.5 157.995 243.014 133.99 219.01C109.986 195.005 96.5 162.448 96.5 128.5C96.5 94.5523 109.986 61.995 133.99 37.9903C157.995 13.9857 190.552 0.5 224.5 0.5ZM178.8 304.5H270.2C290.8 304.5 310.6 308 329 314.4C323.5 331.5 320.5 349.6 320.5 368.5C320.5 428 350 480.6 395.3 512.5H30.2C13.8 512.5 0.5 499.2 0.5 482.8C0.5 384.3 80.3 304.5 178.8 304.5ZM352.5 368.5C352.5 330.309 367.671 293.682 394.677 266.677C421.682 239.671 458.309 224.5 496.5 224.5C534.691 224.5 571.318 239.671 598.323 266.677C625.329 293.682 640.5 330.309 640.5 368.5C640.5 406.691 625.329 443.318 598.323 470.323C571.318 497.329 534.691 512.5 496.5 512.5C458.309 512.5 421.682 497.329 394.677 470.323C367.671 443.318 352.5 406.691 352.5 368.5ZM496.5 288.5C487.7 288.5 480.5 295.7 480.5 304.5V368.5C480.5 377.3 487.7 384.5 496.5 384.5H544.5C553.3 384.5 560.5 377.3 560.5 368.5C560.5 359.7 553.3 352.5 544.5 352.5H512.5V304.5C512.5 295.7 505.3 288.5 496.5 288.5Z" fill="#47535F"/>
</g>
<defs>
<clipPath id="clip0_104_2918">
<rect width="640" height="512" fill="white" transform="translate(0.5 0.5)"/>
</clipPath>
</defs>
</svg>
