<svg width="641" height="513" viewBox="0 0 641 513" fill="none" xmlns="http://www.w3.org/2000/svg">
<g clip-path="url(#clip0_104_2932)">
<path d="M39.2998 5.59976C28.8998 -2.60024 13.7998 -0.700238 5.59976 9.69976C-2.60024 20.0998 -0.700238 35.1998 9.69976 43.3998L601.7 507.4C612.1 515.6 627.2 513.7 635.4 503.3C643.6 492.9 641.7 477.8 631.3 469.6L382.4 274.5C430.9 251.3 464.5 201.8 464.5 144.5C464.5 64.9998 400 0.499762 320.5 0.499762C250.9 0.499762 192.9 49.7998 179.4 115.4L39.2998 5.59976ZM546 512.5H528.5L284.8 320.5H225.8C136.7 320.5 64.4998 392.7 64.4998 481.8C64.4998 498.8 78.2998 512.5 95.1998 512.5H545.8H546.1H546Z" fill="#47535F"/>
</g>
<defs>
<clipPath id="clip0_104_2932">
<rect width="640" height="512" fill="white" transform="translate(0.5 0.5)"/>
</clipPath>
</defs>
</svg>
