<svg width="449" height="513" viewBox="0 0 449 513" fill="none" xmlns="http://www.w3.org/2000/svg">
<g clip-path="url(#clip0_104_2970)">
<path d="M224.5 256.5C190.552 256.5 157.995 243.014 133.99 219.01C109.986 195.005 96.5 162.448 96.5 128.5C96.5 94.5523 109.986 61.995 133.99 37.9903C157.995 13.9857 190.552 0.5 224.5 0.5C258.448 0.5 291.005 13.9857 315.01 37.9903C339.014 61.995 352.5 94.5523 352.5 128.5C352.5 162.448 339.014 195.005 315.01 219.01C291.005 243.014 258.448 256.5 224.5 256.5ZM209.6 359.7L191 328.7C184.6 318 192.3 304.5 204.7 304.5H224.5H244.2C256.6 304.5 264.3 318.1 257.9 328.7L239.3 359.7L272.7 483.6L308.7 336.7C310.7 328.6 318.5 323.3 326.6 325.4C396.7 343 448.5 406.4 448.5 481.8C448.5 498.8 434.7 512.5 417.8 512.5H286C283.9 512.5 282 512.1 280.2 511.4L280.5 512.5H168.5L168.8 511.4C167 512.1 165 512.5 163 512.5H31.2C14.3 512.5 0.5 498.7 0.5 481.8C0.5 406.3 52.4 342.9 122.4 325.4C130.5 323.4 138.3 328.7 140.3 336.7L176.3 483.6L209.7 359.7H209.6Z" fill="#47535F"/>
</g>
<defs>
<clipPath id="clip0_104_2970">
<rect width="448" height="512" fill="white" transform="translate(0.5 0.5)"/>
</clipPath>
</defs>
</svg>
