<svg width="449" height="513" viewBox="0 0 449 513" fill="none" xmlns="http://www.w3.org/2000/svg">
<g clip-path="url(#clip0_104_2974)">
<path d="M416.5 0.5C400.5 0.5 288.5 32.5 288.5 176.5V288.5C288.5 323.8 317.2 352.5 352.5 352.5H384.5V480.5C384.5 498.2 398.8 512.5 416.5 512.5C434.2 512.5 448.5 498.2 448.5 480.5V352.5V240.5V32.5C448.5 14.8 434.2 0.5 416.5 0.5ZM64.5 16.5C64.5 8.3 58.4 1.5 50.2 0.6C42 -0.3 34.7 5.1 32.9 13L2.6 149.3C1.2 155.6 0.5 162 0.5 168.4C0.5 214.3 35.6 252 80.5 256.1V480.5C80.5 498.2 94.8 512.5 112.5 512.5C130.2 512.5 144.5 498.2 144.5 480.5V256.1C189.4 252 224.5 214.3 224.5 168.4C224.5 162 223.8 155.6 222.4 149.3L192.1 13C190.3 5 182.8 -0.3 174.7 0.6C166.6 1.5 160.5 8.3 160.5 16.5V150.7C160.5 156.1 156.1 160.5 150.7 160.5C145.6 160.5 141.4 156.6 140.9 151.5L128.4 15.1C127.7 6.8 120.8 0.5 112.5 0.5C104.2 0.5 97.3 6.8 96.6 15.1L84.2 151.5C83.7 156.6 79.5 160.5 74.4 160.5C69 160.5 64.6 156.1 64.6 150.7V16.5H64.5ZM112.8 168.5H112.5H112.2L112.5 167.8L112.8 168.5Z" fill="#47535F"/>
</g>
<defs>
<clipPath id="clip0_104_2974">
<rect width="448" height="512" fill="white" transform="translate(0.5 0.5)"/>
</clipPath>
</defs>
</svg>
