<svg width="641" height="513" viewBox="0 0 641 513" fill="none" xmlns="http://www.w3.org/2000/svg">
<g clip-path="url(#clip0_104_2978)">
<path d="M64.5 104.5V192.5H160.5V96.5H72.5C68.1 96.5 64.5 100.1 64.5 104.5ZM546.5 192.5L465.6 96.5H384.5V192.5H546.5ZM320.5 192.5V96.5H224.5V192.5H320.5ZM592.5 384.5H576.5C576.5 437.5 533.5 480.5 480.5 480.5C427.5 480.5 384.5 437.5 384.5 384.5H256.5C256.5 437.5 213.5 480.5 160.5 480.5C107.5 480.5 64.5 437.5 64.5 384.5H48.5C22 384.5 0.5 363 0.5 336.5V104.5C0.5 64.7 32.7 32.5 72.5 32.5H192.5H352.5H465.6C484.5 32.5 502.4 40.8 514.6 55.3L625.5 187C635.2 198.5 640.5 213.1 640.5 228.2V336.5C640.5 363 619 384.5 592.5 384.5ZM528.5 384.5C528.5 371.77 523.443 359.561 514.441 350.559C505.439 341.557 493.23 336.5 480.5 336.5C467.77 336.5 455.561 341.557 446.559 350.559C437.557 359.561 432.5 371.77 432.5 384.5C432.5 397.23 437.557 409.439 446.559 418.441C455.561 427.443 467.77 432.5 480.5 432.5C493.23 432.5 505.439 427.443 514.441 418.441C523.443 409.439 528.5 397.23 528.5 384.5ZM160.5 432.5C173.23 432.5 185.439 427.443 194.441 418.441C203.443 409.439 208.5 397.23 208.5 384.5C208.5 371.77 203.443 359.561 194.441 350.559C185.439 341.557 173.23 336.5 160.5 336.5C147.77 336.5 135.561 341.557 126.559 350.559C117.557 359.561 112.5 371.77 112.5 384.5C112.5 397.23 117.557 409.439 126.559 418.441C135.561 427.443 147.77 432.5 160.5 432.5Z" fill="#47535F"/>
</g>
<defs>
<clipPath id="clip0_104_2978">
<rect width="640" height="512" fill="white" transform="translate(0.5 0.5)"/>
</clipPath>
</defs>
</svg>
