<svg width="577" height="513" viewBox="0 0 577 513" fill="none" xmlns="http://www.w3.org/2000/svg">
<g clip-path="url(#clip0_104_2980)">
<path d="M64.5 0.5C29.2 0.5 0.5 29.2 0.5 64.5V416.5C0.5 451.8 29.2 480.5 64.5 480.5H80.5L96.5 512.5H160.5L176.5 480.5H400.5L416.5 512.5H480.5L496.5 480.5H512.5C547.8 480.5 576.5 451.8 576.5 416.5V64.5C576.5 29.2 547.8 0.5 512.5 0.5H64.5ZM224.5 320.5C245.717 320.5 266.066 312.071 281.069 297.069C296.071 282.066 304.5 261.717 304.5 240.5C304.5 219.283 296.071 198.934 281.069 183.931C266.066 168.929 245.717 160.5 224.5 160.5C203.283 160.5 182.934 168.929 167.931 183.931C152.929 198.934 144.5 219.283 144.5 240.5C144.5 261.717 152.929 282.066 167.931 297.069C182.934 312.071 203.283 320.5 224.5 320.5ZM224.5 80.5C266.935 80.5 307.631 97.3571 337.637 127.363C367.643 157.369 384.5 198.065 384.5 240.5C384.5 282.935 367.643 323.631 337.637 353.637C307.631 383.643 266.935 400.5 224.5 400.5C182.065 400.5 141.369 383.643 111.363 353.637C81.3571 323.631 64.5 282.935 64.5 240.5C64.5 198.065 81.3571 157.369 111.363 127.363C141.369 97.3571 182.065 80.5 224.5 80.5ZM480.5 221.8V336.5C480.5 345.3 473.3 352.5 464.5 352.5C455.7 352.5 448.5 345.3 448.5 336.5V221.8C429.9 215.2 416.5 197.4 416.5 176.5C416.5 150 438 128.5 464.5 128.5C491 128.5 512.5 150 512.5 176.5C512.5 197.4 499.1 215.2 480.5 221.8Z" fill="#47535F"/>
</g>
<defs>
<clipPath id="clip0_104_2980">
<rect width="576" height="512" fill="white" transform="translate(0.5 0.5)"/>
</clipPath>
</defs>
</svg>
