<svg width="449" height="513" viewBox="0 0 449 513" fill="none" xmlns="http://www.w3.org/2000/svg">
<g clip-path="url(#clip0_104_2982)">
<path d="M368.5 80.5H400.5V112.5H368.5V80.5ZM352.5 32.5C334.8 32.5 320.5 46.8 320.5 64.5H128.5C128.5 46.8 114.2 32.5 96.5 32.5H32.5C14.8 32.5 0.5 46.8 0.5 64.5V128.5C0.5 146.2 14.8 160.5 32.5 160.5V352.5C14.8 352.5 0.5 366.8 0.5 384.5V448.5C0.5 466.2 14.8 480.5 32.5 480.5H96.5C114.2 480.5 128.5 466.2 128.5 448.5H320.5C320.5 466.2 334.8 480.5 352.5 480.5H416.5C434.2 480.5 448.5 466.2 448.5 448.5V384.5C448.5 366.8 434.2 352.5 416.5 352.5V160.5C434.2 160.5 448.5 146.2 448.5 128.5V64.5C448.5 46.8 434.2 32.5 416.5 32.5H352.5ZM96.5 160.5C114.2 160.5 128.5 146.2 128.5 128.5H320.5C320.5 146.2 334.8 160.5 352.5 160.5V352.5C334.8 352.5 320.5 366.8 320.5 384.5H128.5C128.5 366.8 114.2 352.5 96.5 352.5V160.5ZM48.5 400.5H80.5V432.5H48.5V400.5ZM368.5 432.5V400.5H400.5V432.5H368.5ZM48.5 112.5V80.5H80.5V112.5H48.5Z" fill="#47535F"/>
</g>
<defs>
<clipPath id="clip0_104_2982">
<rect width="448" height="512" fill="white" transform="translate(0.5 0.5)"/>
</clipPath>
</defs>
</svg>
