<svg width="641" height="513" viewBox="0 0 641 513" fill="none" xmlns="http://www.w3.org/2000/svg">
<g clip-path="url(#clip0_104_2988)">
<path d="M176.5 288.5C191.208 288.5 205.772 285.603 219.361 279.975C232.949 274.346 245.296 266.096 255.696 255.696C266.096 245.296 274.346 232.949 279.975 219.361C285.603 205.772 288.5 191.208 288.5 176.5C288.5 161.792 285.603 147.228 279.975 133.639C274.346 120.051 266.096 107.704 255.696 97.304C245.296 86.9039 232.949 78.654 219.361 73.0255C205.772 67.397 191.208 64.5 176.5 64.5C161.792 64.5 147.228 67.397 133.639 73.0255C120.051 78.654 107.704 86.9039 97.304 97.304C86.9039 107.704 78.654 120.051 73.0255 133.639C67.397 147.228 64.5 161.792 64.5 176.5C64.5 191.208 67.397 205.772 73.0255 219.361C78.654 232.949 86.9039 245.296 97.304 255.696C107.704 266.096 120.051 274.346 133.639 279.975C147.228 285.603 161.792 288.5 176.5 288.5ZM352.5 176.5C352.5 262.8 290.4 334.6 208.5 349.6V384.5H240.5C258.2 384.5 272.5 398.8 272.5 416.5C272.5 434.2 258.2 448.5 240.5 448.5H208.5V480.5C208.5 498.2 194.2 512.5 176.5 512.5C158.8 512.5 144.5 498.2 144.5 480.5V448.5H112.5C94.8 448.5 80.5 434.2 80.5 416.5C80.5 398.8 94.8 384.5 112.5 384.5H144.5V349.6C62.6 334.6 0.5 262.8 0.5 176.5C0.5 79.3 79.3 0.5 176.5 0.5C273.7 0.5 352.5 79.3 352.5 176.5ZM272.4 361.1C291.7 351 309.3 338 324.5 322.7C344.5 341.2 371.2 352.5 400.6 352.5C462.5 352.5 512.6 302.4 512.6 240.5C512.6 178.6 462.5 128.5 400.6 128.5C393.4 128.5 386.3 129.2 379.5 130.5C374.6 109 366.5 88.8 355.5 70.3C369.8 66.5 384.9 64.5 400.5 64.5C437.5 64.5 471.9 75.9 500.3 95.5L520.9 74.9L487.5 41.5C480.6 34.6 478.6 24.3 482.3 15.3C486 6.3 494.8 0.5 504.5 0.5H616.5C629.8 0.5 640.5 11.2 640.5 24.5V136.5C640.5 146.2 634.7 155 625.7 158.7C616.7 162.4 606.4 160.4 599.5 153.5L566.1 120.1L545.5 140.7C565 169.1 576.5 203.4 576.5 240.5C576.5 337.7 497.7 416.5 400.5 416.5C350 416.5 304.5 395.2 272.4 361.1Z" fill="#47535F"/>
</g>
<defs>
<clipPath id="clip0_104_2988">
<rect width="640" height="512" fill="white" transform="translate(0.5 0.5)"/>
</clipPath>
</defs>
</svg>
