<svg width="641" height="513" viewBox="0 0 641 513" fill="none" xmlns="http://www.w3.org/2000/svg">
<g clip-path="url(#clip0_104_2986)">
<path d="M192.5 288.5C207.208 288.5 221.772 285.603 235.361 279.975C248.949 274.346 261.296 266.096 271.696 255.696C282.096 245.296 290.346 232.949 295.975 219.361C301.603 205.772 304.5 191.208 304.5 176.5C304.5 161.792 301.603 147.228 295.975 133.639C290.346 120.051 282.096 107.704 271.696 97.304C261.296 86.9039 248.949 78.654 235.361 73.0255C221.772 67.397 207.208 64.5 192.5 64.5C177.792 64.5 163.228 67.397 149.639 73.0255C136.051 78.654 123.704 86.9039 113.304 97.304C102.904 107.704 94.654 120.051 89.0255 133.639C83.397 147.228 80.5 161.792 80.5 176.5C80.5 191.208 83.397 205.772 89.0255 219.361C94.654 232.949 102.904 245.296 113.304 255.696C123.704 266.096 136.051 274.346 149.639 279.975C163.228 285.603 177.792 288.5 192.5 288.5ZM368.5 176.5C368.5 262.8 306.4 334.6 224.5 349.6V384.5H256.5C274.2 384.5 288.5 398.8 288.5 416.5C288.5 434.2 274.2 448.5 256.5 448.5H224.5V480.5C224.5 498.2 210.2 512.5 192.5 512.5C174.8 512.5 160.5 498.2 160.5 480.5V448.5H128.5C110.8 448.5 96.5 434.2 96.5 416.5C96.5 398.8 110.8 384.5 128.5 384.5H160.5V349.6C78.6 334.6 16.5 262.8 16.5 176.5C16.5 79.3 95.3 0.5 192.5 0.5C289.7 0.5 368.5 79.3 368.5 176.5ZM344.5 318.5C359.1 302.9 371.3 285.1 380.5 265.5C399.3 279.9 422.9 288.5 448.5 288.5C510.4 288.5 560.5 238.4 560.5 176.5C560.5 114.6 510.4 64.5 448.5 64.5C422.9 64.5 399.4 73.1 380.5 87.5C371.2 68 359 50.1 344.5 34.5C373.6 13.1 409.6 0.5 448.5 0.5C545.7 0.5 624.5 79.3 624.5 176.5C624.5 262.8 562.4 334.6 480.5 349.6V384.5H512.5C530.2 384.5 544.5 398.8 544.5 416.5C544.5 434.2 530.2 448.5 512.5 448.5H480.5V480.5C480.5 498.2 466.2 512.5 448.5 512.5C430.8 512.5 416.5 498.2 416.5 480.5V448.5H384.5C366.8 448.5 352.5 434.2 352.5 416.5C352.5 398.8 366.8 384.5 384.5 384.5H416.5V349.6C389.9 344.7 365.4 333.9 344.5 318.5Z" fill="#47535F"/>
</g>
<defs>
<clipPath id="clip0_104_2986">
<rect width="640" height="512" fill="white" transform="translate(0.5 0.5)"/>
</clipPath>
</defs>
</svg>
