<svg width="449" height="513" viewBox="0 0 449 513" fill="none" xmlns="http://www.w3.org/2000/svg">
<g clip-path="url(#clip0_104_2990)">
<path d="M207.6 237.9L151.7 70.2C169.1 80.2 193.1 88.5 224.5 88.5C255.9 88.5 279.9 80.2 297.3 70.2L227 281.1C225.4 286 224.5 291.1 224.5 296.3V464.5C224.5 491 246 512.5 272.5 512.5H400.5C427 512.5 448.5 491 448.5 464.5V271C448.5 261.5 445.7 252.3 440.4 244.4L392.5 172.6C387.2 164.7 384.4 155.5 384.4 146V128.5V54.8V48.5C384.4 22 362.9 0.5 336.4 0.5H331.9C331.7 0.5 331.5 0.5 331.3 0.5C330.9 0.5 330.5 0.5 330.1 0.5C311.5 0.5 296.2 10.2 286.2 19.3C276.9 27.7 257.7 40.5 224.5 40.5C191.3 40.5 172.1 27.7 162.8 19.3C152.8 10.2 137.5 0.5 118.8 0.5C118.4 0.5 118 0.5 117.6 0.5C117.4 0.5 117.2 0.5 117 0.5H112.5C86 0.5 64.5 22 64.5 48.5V54.8V128.5V146C64.5 155.5 61.7 164.7 56.4 172.6L8.6 244.4C3.3 252.3 0.5 261.6 0.5 271V464.5C0.5 491 22 512.5 48.5 512.5H176.5C186.4 512.5 195.5 509.5 203.2 504.4C196.4 492.7 192.5 479 192.5 464.5V296.3C192.5 287.7 193.9 279.2 196.6 271L207.6 237.9ZM347.8 357.2L395.8 405.2C402 411.4 402 421.6 395.8 427.8C389.6 434 379.4 434 373.2 427.8L325.2 379.8C319 373.6 319 363.4 325.2 357.2C331.4 351 341.6 351 347.8 357.2ZM53.2 405.2L101.2 357.2C107.4 351 117.6 351 123.8 357.2C130 363.4 130 373.6 123.8 379.8L75.8 427.8C69.6 434 59.4 434 53.2 427.8C47 421.6 47 411.4 53.2 405.2Z" fill="#47535F"/>
</g>
<defs>
<clipPath id="clip0_104_2990">
<rect width="448" height="512" fill="white" transform="translate(0.5 0.5)"/>
</clipPath>
</defs>
</svg>
