<svg width="449" height="513" viewBox="0 0 449 513" fill="none" xmlns="http://www.w3.org/2000/svg">
<g clip-path="url(#clip0_104_2992)">
<path d="M151.7 70.2L207.6 237.9L196.6 271C193.9 279.2 192.5 287.7 192.5 296.3V464.5C192.5 479 196.4 492.7 203.2 504.4C195.5 509.5 186.4 512.5 176.5 512.5H48.5C22 512.5 0.5 491 0.5 464.5V271C0.5 261.5 3.3 252.3 8.6 244.4L56.5 172.6C61.8 164.7 64.6 155.5 64.6 146V128.5V54.8V48.5C64.5 22 86 0.5 112.5 0.5H117C117.2 0.5 117.4 0.5 117.6 0.5C118 0.5 118.4 0.5 118.8 0.5C137.6 0.5 152.9 10.2 162.9 19.3C172.1 27.7 191.3 40.5 224.5 40.5C257.7 40.5 276.9 27.7 286.2 19.3C296.2 10.2 311.5 0.5 330.2 0.5C330.6 0.5 331 0.5 331.4 0.5C331.6 0.5 331.8 0.5 332 0.5H336.5C363 0.5 384.5 22 384.5 48.5V54.8V128.5V146C384.5 155.5 387.3 164.7 392.6 172.6L440.5 244.4C445.8 252.3 448.6 261.5 448.6 271V464.5C448.6 491 427.1 512.5 400.6 512.5H272.5C246 512.5 224.5 491 224.5 464.5V296.3C224.5 291.1 225.3 286 227 281.1L297.3 70.2C279.9 80.2 255.9 88.5 224.5 88.5C193.1 88.5 169.1 80.2 151.7 70.2ZM96.5 456.5C107.109 456.5 117.283 452.286 124.784 444.784C132.286 437.283 136.5 427.109 136.5 416.5C136.5 405.891 132.286 395.717 124.784 388.216C117.283 380.714 107.109 376.5 96.5 376.5C85.8913 376.5 75.7172 380.714 68.2157 388.216C60.7143 395.717 56.5 405.891 56.5 416.5C56.5 427.109 60.7143 437.283 68.2157 444.784C75.7172 452.286 85.8913 456.5 96.5 456.5ZM64 256C59.3 260.7 59.3 268.3 64 273L79.5 288.5L64 304C59.3 308.7 59.3 316.3 64 321C68.7 325.7 76.3 325.7 81 321L96.5 305.5L112 321C116.7 325.7 124.3 325.7 129 321C133.7 316.3 133.7 308.7 129 304L113.5 288.5L129 273C133.7 268.3 133.7 260.7 129 256C124.3 251.3 116.7 251.3 112 256L96.5 271.5L81 256C76.3 251.3 68.7 251.3 64 256ZM304.5 280.5V288.5V320.5C304.5 329.3 311.7 336.5 320.5 336.5H352.5H360.5C373.8 336.5 384.5 325.8 384.5 312.5C384.5 299.2 373.8 288.5 360.5 288.5H352.5V280.5C352.5 267.2 341.8 256.5 328.5 256.5C315.2 256.5 304.5 267.2 304.5 280.5Z" fill="#47535F"/>
</g>
<defs>
<clipPath id="clip0_104_2992">
<rect width="448" height="512" fill="white" transform="translate(0.5 0.5)"/>
</clipPath>
</defs>
</svg>
