<svg width="513" height="513" viewBox="0 0 513 513" fill="none" xmlns="http://www.w3.org/2000/svg">
<g clip-path="url(#clip0_104_3000)">
<path d="M32.5 32.5C14.8 32.5 0.5 46.8 0.5 64.5C0.5 82.2 14.8 96.5 32.5 96.5V384.5C32.5 437.5 75.5 480.5 128.5 480.5C157.1 480.5 182.7 468 200.3 448.2C200.4 434 205.9 419.9 216.7 409.1C216.9 408.9 216.8 408.5 216.5 408.5C185.6 408.5 160.5 383.4 160.5 352.5C160.5 321.6 185.6 296.5 216.5 296.5C216.8 296.5 216.9 296.1 216.7 295.9C194.8 274 194.8 238.6 216.7 216.7C219.1 214.3 221.7 212.1 224.5 210.2V96.5C242.2 96.5 256.5 82.2 256.5 64.5C256.5 46.8 242.2 32.5 224.5 32.5H160.5H96.5H32.5ZM96.5 192.5V96.5H160.5V192.5H96.5ZM216.5 376.5C245.3 376.5 259.7 411.3 239.4 431.7C230 441.1 230 456.3 239.4 465.6C248.8 474.9 264 475 273.3 465.6C293.7 445.2 328.5 459.7 328.5 488.5C328.5 501.8 339.2 512.5 352.5 512.5C365.8 512.5 376.5 501.8 376.5 488.5C376.5 459.7 411.3 445.3 431.7 465.6C441.1 475 456.3 475 465.6 465.6C474.9 456.2 475 441 465.6 431.7C445.3 411.3 459.7 376.5 488.5 376.5C501.8 376.5 512.5 365.8 512.5 352.5C512.5 339.2 501.8 328.5 488.5 328.5C459.7 328.5 445.3 293.7 465.6 273.3C475 263.9 475 248.7 465.6 239.4C456.2 230.1 441 230 431.7 239.4C411.3 259.7 376.5 245.3 376.5 216.5C376.5 203.2 365.8 192.5 352.5 192.5C339.2 192.5 328.5 203.2 328.5 216.5C328.5 245.3 293.7 259.7 273.3 239.4C263.9 230 248.7 230 239.4 239.4C230.1 248.8 230 264 239.4 273.3C259.8 293.7 245.3 328.5 216.5 328.5C203.2 328.5 192.5 339.2 192.5 352.5C192.5 365.8 203.2 376.5 216.5 376.5ZM320.5 288.5C328.987 288.5 337.126 291.871 343.127 297.873C349.129 303.874 352.5 312.013 352.5 320.5C352.5 328.987 349.129 337.126 343.127 343.127C337.126 349.129 328.987 352.5 320.5 352.5C312.013 352.5 303.874 349.129 297.873 343.127C291.871 337.126 288.5 328.987 288.5 320.5C288.5 312.013 291.871 303.874 297.873 297.873C303.874 291.871 312.013 288.5 320.5 288.5ZM360.5 384.5C360.5 378.135 363.029 372.03 367.529 367.529C372.03 363.029 378.135 360.5 384.5 360.5C390.865 360.5 396.97 363.029 401.471 367.529C405.971 372.03 408.5 378.135 408.5 384.5C408.5 390.865 405.971 396.97 401.471 401.471C396.97 405.971 390.865 408.5 384.5 408.5C378.135 408.5 372.03 405.971 367.529 401.471C363.029 396.97 360.5 390.865 360.5 384.5Z" fill="#47535F"/>
</g>
<defs>
<clipPath id="clip0_104_3000">
<rect width="512" height="512" fill="white" transform="translate(0.5 0.5)"/>
</clipPath>
</defs>
</svg>
