<svg width="513" height="513" viewBox="0 0 513 513" fill="none" xmlns="http://www.w3.org/2000/svg">
<g clip-path="url(#clip0_104_2996)">
<path d="M0.5 64.5C0.5 46.8 14.8 32.5 32.5 32.5H96.5H160.5H224.5C242.2 32.5 256.5 46.8 256.5 64.5C256.5 82.2 242.2 96.5 224.5 96.5V267.3C204.3 295.9 192.5 330.8 192.5 368.5C192.5 393.7 197.8 417.6 207.3 439.3C190 464.2 161.1 480.5 128.5 480.5C75.5 480.5 32.5 437.5 32.5 384.5V96.5C14.8 96.5 0.5 82.2 0.5 64.5ZM96.5 96.5V192.5H160.5V96.5H96.5ZM224.5 368.5C224.5 330.309 239.671 293.682 266.677 266.677C293.682 239.671 330.309 224.5 368.5 224.5C406.691 224.5 443.318 239.671 470.323 266.677C497.329 293.682 512.5 330.309 512.5 368.5C512.5 406.691 497.329 443.318 470.323 470.323C443.318 497.329 406.691 512.5 368.5 512.5C330.309 512.5 293.682 497.329 266.677 470.323C239.671 443.318 224.5 406.691 224.5 368.5ZM435.8 325.2C429.6 319 419.4 319 413.2 325.2L352.5 385.9L323.8 357.2C317.6 351 307.4 351 301.2 357.2C295 363.4 295 373.6 301.2 379.8L341.2 419.8C347.4 426 357.6 426 363.8 419.8L435.8 347.8C442 341.6 442 331.4 435.8 325.2Z" fill="#47535F"/>
</g>
<defs>
<clipPath id="clip0_104_2996">
<rect width="512" height="512" fill="white" transform="translate(0.5 0.5)"/>
</clipPath>
</defs>
</svg>
