<svg width="513" height="513" viewBox="0 0 513 513" fill="none" xmlns="http://www.w3.org/2000/svg">
<g clip-path="url(#clip0_104_2998)">
<path d="M0.5 64.5C0.5 46.8 14.8 32.5 32.5 32.5H88.5H136.5H192.5C210.2 32.5 224.5 46.8 224.5 64.5C224.5 82.2 210.2 96.5 192.5 96.5V400.5C192.5 444.7 156.7 480.5 112.5 480.5C68.3 480.5 32.5 444.7 32.5 400.5V96.5C14.8 96.5 0.5 82.2 0.5 64.5ZM136.5 96.5H88.5V256.5H136.5V96.5ZM288.5 64.5C288.5 46.8 302.8 32.5 320.5 32.5H376.5H424.5H480.5C498.2 32.5 512.5 46.8 512.5 64.5C512.5 82.2 498.2 96.5 480.5 96.5V400.5C480.5 444.7 444.7 480.5 400.5 480.5C356.3 480.5 320.5 444.7 320.5 400.5V96.5C302.8 96.5 288.5 82.2 288.5 64.5ZM424.5 96.5H376.5V256.5H424.5V96.5Z" fill="#47535F"/>
</g>
<defs>
<clipPath id="clip0_104_2998">
<rect width="512" height="512" fill="white" transform="translate(0.5 0.5)"/>
</clipPath>
</defs>
</svg>
