<svg width="513" height="513" viewBox="0 0 513 513" fill="none" xmlns="http://www.w3.org/2000/svg">
<g clip-path="url(#clip0_104_2994)">
<path d="M343.1 9.90039C330.6 -2.59961 310.3 -2.59961 297.8 9.90039C285.3 22.4004 285.3 42.7004 297.8 55.2004L307.2 64.6004L28.6 343.1C10.6 361.1 0.5 385.5 0.5 411V416.5C0.5 469.5 43.5 512.5 96.5 512.5H102C127.5 512.5 151.9 502.4 169.9 484.4L448.5 205.8L457.9 215.2C470.4 227.7 490.7 227.7 503.2 215.2C515.7 202.7 515.7 182.4 503.2 169.9L471.2 137.9L375.2 41.9004L343.2 9.90039H343.1ZM205.8 256.5L352.5 109.8L403.2 160.5L307.2 256.5H205.8Z" fill="#47535F"/>
</g>
<defs>
<clipPath id="clip0_104_2994">
<rect width="512" height="512" fill="white" transform="translate(0.5 0.5)"/>
</clipPath>
</defs>
</svg>
