<svg width="641" height="513" viewBox="0 0 641 513" fill="none" xmlns="http://www.w3.org/2000/svg">
<g clip-path="url(#clip0_104_3004)">
<path d="M39.2998 5.59976C28.8998 -2.60024 13.7998 -0.700238 5.59976 9.69976C-2.60024 20.0998 -0.700238 35.1998 9.69976 43.3998L601.7 507.4C612.1 515.6 627.2 513.7 635.4 503.3C643.6 492.9 641.7 477.8 631.3 469.6L544.9 401.9L558.7 411.1C568.5 417.6 581.1 418.3 591.6 412.7C602.1 407.1 608.5 396.3 608.5 384.5V128.5C608.5 116.7 602 105.9 591.6 100.3C581.2 94.6998 568.6 95.2998 558.7 101.9L462.7 165.9L448.5 175.4V192.5V320.5V326.3L416.5 301.2V128.5C416.5 93.1998 387.8 64.4998 352.5 64.4998H114.4L39.2998 5.59976ZM407.5 417.2L32.7998 122C32.5998 124.1 32.4998 126.3 32.4998 128.5V384.5C32.4998 419.8 61.1998 448.5 96.4998 448.5H352.5C375.9 448.5 396.4 435.9 407.5 417.2Z" fill="#47535F"/>
</g>
<defs>
<clipPath id="clip0_104_3004">
<rect width="640" height="512" fill="white" transform="translate(0.5 0.5)"/>
</clipPath>
</defs>
</svg>
