<svg width="641" height="513" viewBox="0 0 641 513" fill="none" xmlns="http://www.w3.org/2000/svg">
<g clip-path="url(#clip0_104_3006)">
<path d="M281.5 22.5L306.3 5.2C307.6 4.3 309 3.4 310.4 2.8C313.6 1.2 317.1 0.5 320.5 0.5C323.9 0.5 327.4 1.2 330.6 2.7C332 3.4 333.4 4.2 334.7 5.1L359.5 22.5C393.5 46.3 431.3 64 471.3 74.9L494.3 81.2C496.1 81.7 497.9 82.3 499.5 83.2C502.7 84.9 505.4 87.2 507.6 90C511.4 94.9 513.2 101.3 512.3 107.8C511.9 110.6 511.1 113.2 509.8 115.6C508.1 118.8 505.8 121.5 503 123.7C498.7 126.9 493.4 128.8 487.9 128.6H480.5V184.7L486.9 189.8L492.1 193.9C513.2 210.6 537.1 223.5 562.6 232L591.5 241.6C593.1 242.1 594.7 242.8 596.1 243.6C599.2 245.3 601.9 247.7 603.9 250.5C605.9 253.3 607.4 256.6 608 260.1C608.5 262.8 608.6 265.6 608.1 268.4C607.6 271.2 606.7 273.8 605.4 276.2C603.7 279.3 601.3 282 598.5 284C595.7 286 592.4 287.5 588.9 288.1C587.3 288.4 585.6 288.5 583.9 288.5H544.5V354.4C565 377.2 591.9 393.6 621.9 401.1C632.5 403.5 640.5 413.1 640.5 424.5C640.5 437.8 629.8 448.5 616.5 448.5H576.5V480.5C576.5 498.2 562.2 512.5 544.5 512.5C526.8 512.5 512.5 498.2 512.5 480.5V448.5H352.5V480.5C352.5 498.2 338.2 512.5 320.5 512.5C302.8 512.5 288.5 498.2 288.5 480.5V448.5H128.5V480.5C128.5 498.2 114.2 512.5 96.5 512.5C78.8 512.5 64.5 498.2 64.5 480.5V448.5H24.5C11.2 448.5 0.5 437.8 0.5 424.5C0.5 413.1 8.5 403.5 19.1 401.1C49.1 393.5 76 377.2 96.5 354.4V288.5H57.1C55.4 288.5 53.7 288.4 52.1 288.1C48.6 287.4 45.3 286 42.5 284C39.7 282 37.3 279.3 35.5 276.2C34.2 273.8 33.2 271.2 32.8 268.4C32.4 265.6 32.4 262.8 32.9 260.1C33.6 256.6 35 253.3 37 250.5C39 247.7 41.7 245.3 44.8 243.6C46.2 242.8 47.8 242.1 49.4 241.6L78.3 232C103.8 223.5 127.7 210.6 148.8 193.9L154 189.8L160.4 184.7V176.5V128.5H152.9C147.4 128.6 142.1 126.8 137.8 123.6C135 121.5 132.7 118.8 131 115.5C129.8 113.1 128.9 110.5 128.5 107.7C127.6 101.2 129.4 94.9 133.2 89.9C135.3 87.1 138 84.8 141.3 83.1C142.9 82.3 144.7 81.6 146.5 81.1L169.5 74.8C209.7 64 247.5 46.3 281.5 22.5ZM416.5 128.5H320.5H224.5V192.5H296.5H344.5H416.5V128.5ZM160.5 288.5V352.5H296.5H320.5H344.5H480.5V288.5H344.5H320.5H296.5H160.5Z" fill="#47535F"/>
</g>
<defs>
<clipPath id="clip0_104_3006">
<rect width="640" height="512" fill="white" transform="translate(0.5 0.5)"/>
</clipPath>
</defs>
</svg>
