<svg width="513" height="513" viewBox="0 0 513 513" fill="none" xmlns="http://www.w3.org/2000/svg">
<g clip-path="url(#clip0_104_3008)">
<path d="M288.5 32.5C288.5 14.8 274.2 0.5 256.5 0.5C238.8 0.5 224.5 14.8 224.5 32.5V44C224.5 93.9 164.2 118.9 128.9 83.6L120.7 75.5C108.2 63 88 63 75.5 75.5C63 88 63 108.3 75.5 120.8L83.7 129C118.9 164.2 93.9 224.5 44 224.5H32.5C14.8 224.5 0.5 238.8 0.5 256.5C0.5 274.2 14.8 288.5 32.5 288.5H44C93.9 288.5 118.9 348.8 83.6 384.1L75.5 392.3C63 404.8 63 425.1 75.5 437.6C88 450.1 108.3 450.1 120.8 437.6L129 429.4C164.3 394.1 224.6 419.1 224.6 469V480.5C224.6 498.2 238.9 512.5 256.6 512.5C274.3 512.5 288.6 498.2 288.6 480.5V469C288.6 419.1 348.9 394.1 384.2 429.4L392.4 437.6C404.9 450.1 425.2 450.1 437.7 437.6C450.2 425.1 450.2 404.8 437.7 392.3L429.5 384.1C394.2 348.8 419.2 288.5 469.1 288.5H480.5C498.2 288.5 512.5 274.2 512.5 256.5C512.5 238.8 498.2 224.5 480.5 224.5H469C419.1 224.5 394.1 164.2 429.4 128.9L437.6 120.7C450.1 108.2 450.1 87.9 437.6 75.4C425.1 62.9 404.8 62.9 392.3 75.4L384.1 83.6C348.8 118.9 288.5 93.9 288.5 44V32.5ZM176.5 224.5C176.5 218.197 177.742 211.955 180.154 206.131C182.566 200.308 186.102 195.016 190.559 190.559C195.016 186.102 200.308 182.566 206.131 180.154C211.955 177.742 218.197 176.5 224.5 176.5C230.803 176.5 237.045 177.742 242.869 180.154C248.692 182.566 253.984 186.102 258.441 190.559C262.898 195.016 266.434 200.308 268.846 206.131C271.258 211.955 272.5 218.197 272.5 224.5C272.5 230.803 271.258 237.045 268.846 242.869C266.434 248.692 262.898 253.984 258.441 258.441C253.984 262.898 248.692 266.434 242.869 268.846C237.045 271.258 230.803 272.5 224.5 272.5C218.197 272.5 211.955 271.258 206.131 268.846C200.308 266.434 195.016 262.898 190.559 258.441C186.102 253.984 182.566 248.692 180.154 242.869C177.742 237.045 176.5 230.803 176.5 224.5ZM304.5 280.5C310.865 280.5 316.97 283.029 321.471 287.529C325.971 292.03 328.5 298.135 328.5 304.5C328.5 310.865 325.971 316.97 321.471 321.471C316.97 325.971 310.865 328.5 304.5 328.5C298.135 328.5 292.03 325.971 287.529 321.471C283.029 316.97 280.5 310.865 280.5 304.5C280.5 298.135 283.029 292.03 287.529 287.529C292.03 283.029 298.135 280.5 304.5 280.5Z" fill="#47535F"/>
</g>
<defs>
<clipPath id="clip0_104_3008">
<rect width="512" height="512" fill="white" transform="translate(0.5 0.5)"/>
</clipPath>
</defs>
</svg>
