<svg width="641" height="513" viewBox="0 0 641 513" fill="none" xmlns="http://www.w3.org/2000/svg">
<g clip-path="url(#clip0_104_3014)">
<path d="M192.5 0.5C205.8 0.5 216.5 11.2 216.5 24.5V38C216.5 73.6 259.6 91.5 284.8 66.3L294.3 56.8C303.7 47.4 318.9 47.4 328.2 56.8C337.5 66.2 337.6 81.4 328.2 90.7L318.7 100.2C293.5 125.4 311.4 168.5 347 168.5H360.5C373.8 168.5 384.5 179.2 384.5 192.5C384.5 205.8 373.8 216.5 360.5 216.5H347C311.4 216.5 293.5 259.6 318.7 284.8L328.2 294.3C337.6 303.7 337.6 318.9 328.2 328.2C318.8 337.5 303.6 337.6 294.3 328.2L284.8 318.7C259.6 293.5 216.5 311.4 216.5 347V360.5C216.5 373.8 205.8 384.5 192.5 384.5C179.2 384.5 168.5 373.8 168.5 360.5V347C168.5 311.4 125.4 293.5 100.2 318.7L90.7 328.2C81.3 337.6 66.1 337.6 56.8 328.2C47.5 318.8 47.4 303.6 56.8 294.3L66.3 284.8C91.5 259.6 73.6 216.5 38 216.5H24.5C11.2 216.5 0.5 205.8 0.5 192.5C0.5 179.2 11.2 168.5 24.5 168.5H38C73.6 168.5 91.5 125.4 66.3 100.2L56.8 90.7C47.4 81.3 47.4 66.1 56.8 56.8C66.2 47.5 81.4 47.4 90.7 56.8L100.2 66.3C125.4 91.5 168.5 73.6 168.5 38V24.5C168.5 11.2 179.2 0.5 192.5 0.5ZM240.5 224.5C244.743 224.5 248.813 222.814 251.814 219.814C254.814 216.813 256.5 212.743 256.5 208.5C256.5 204.257 254.814 200.187 251.814 197.186C248.813 194.186 244.743 192.5 240.5 192.5C236.257 192.5 232.187 194.186 229.186 197.186C226.186 200.187 224.5 204.257 224.5 208.5C224.5 212.743 226.186 216.813 229.186 219.814C232.187 222.814 236.257 224.5 240.5 224.5ZM192.5 160.5C192.5 152.013 189.129 143.874 183.127 137.873C177.126 131.871 168.987 128.5 160.5 128.5C152.013 128.5 143.874 131.871 137.873 137.873C131.871 143.874 128.5 152.013 128.5 160.5C128.5 168.987 131.871 177.126 137.873 183.127C143.874 189.129 152.013 192.5 160.5 192.5C168.987 192.5 177.126 189.129 183.127 183.127C189.129 177.126 192.5 168.987 192.5 160.5ZM512.5 240.5C512.5 273.5 552.4 290 575.7 266.7C581.9 260.5 592.1 260.5 598.3 266.7C604.5 272.9 604.5 283.1 598.3 289.3C575 312.6 591.5 352.5 624.5 352.5C633.3 352.5 640.5 359.7 640.5 368.5C640.5 377.3 633.3 384.5 624.5 384.5C591.5 384.5 575 424.4 598.3 447.7C604.5 453.9 604.5 464.1 598.3 470.3C592.1 476.5 581.9 476.5 575.7 470.3C552.4 447 512.5 463.5 512.5 496.5C512.5 505.3 505.3 512.5 496.5 512.5C487.7 512.5 480.5 505.3 480.5 496.5C480.5 463.5 440.6 447 417.3 470.3C411.1 476.5 400.9 476.5 394.7 470.3C388.5 464.1 388.5 453.9 394.7 447.7C418 424.4 401.5 384.5 368.5 384.5C359.7 384.5 352.5 377.3 352.5 368.5C352.5 359.7 359.7 352.5 368.5 352.5C401.5 352.5 418 312.6 394.7 289.3C388.5 283.1 388.5 272.9 394.7 266.7C400.9 260.5 411.1 260.5 417.3 266.7C440.6 290 480.5 273.5 480.5 240.5C480.5 231.7 487.7 224.5 496.5 224.5C505.3 224.5 512.5 231.7 512.5 240.5ZM512.5 352.5C512.5 344.013 509.129 335.874 503.127 329.873C497.126 323.871 488.987 320.5 480.5 320.5C472.013 320.5 463.874 323.871 457.873 329.873C451.871 335.874 448.5 344.013 448.5 352.5C448.5 360.987 451.871 369.126 457.873 375.127C463.874 381.129 472.013 384.5 480.5 384.5C488.987 384.5 497.126 381.129 503.127 375.127C509.129 369.126 512.5 360.987 512.5 352.5Z" fill="#47535F"/>
</g>
<defs>
<clipPath id="clip0_104_3014">
<rect width="640" height="512" fill="white" transform="translate(0.5 0.5)"/>
</clipPath>
</defs>
</svg>
