<svg width="641" height="513" viewBox="0 0 641 513" fill="none" xmlns="http://www.w3.org/2000/svg">
<g clip-path="url(#clip0_104_3016)">
<path d="M39.2998 5.59976C28.8998 -2.60024 13.7998 -0.700238 5.59976 9.69976C-2.60024 20.0998 -0.700238 35.1998 9.69976 43.3998L601.7 507.4C612.1 515.6 627.2 513.7 635.4 503.3C643.6 492.9 641.7 477.8 631.3 469.6L477 348.6C475 318.5 497.8 288.5 533 288.5H544.5C562.2 288.5 576.5 274.2 576.5 256.5C576.5 238.8 562.2 224.5 544.5 224.5H533C483.1 224.5 458.1 164.2 493.4 128.9L501.6 120.7C514.1 108.2 514.1 87.8998 501.6 75.3998C489.1 62.8998 468.8 62.8998 456.3 75.3998L448.1 83.5998C412.8 118.9 352.5 93.8998 352.5 43.9998V32.4998C352.5 14.7998 338.2 0.499762 320.5 0.499762C302.8 0.499762 288.5 14.7998 288.5 32.4998V43.9998C288.5 93.8998 228.2 118.9 192.9 83.5998L184.7 75.4998C172.2 62.9998 151.9 62.9998 139.4 75.4998C137.8 77.0998 136.3 78.8998 135.1 80.7998L39.2998 5.59976ZM265.1 182.6C272 178.7 280 176.5 288.5 176.5C315 176.5 336.5 198 336.5 224.5C336.5 228.9 335.9 233.2 334.8 237.2L265.1 182.6ZM402.5 413.2L145.2 210.5C135.7 219 123 224.5 108 224.5H96.4998C78.7998 224.5 64.4998 238.8 64.4998 256.5C64.4998 274.2 78.7998 288.5 96.4998 288.5H108C157.9 288.5 182.9 348.8 147.6 384.1L139.4 392.3C126.9 404.8 126.9 425.1 139.4 437.6C151.9 450.1 172.2 450.1 184.7 437.6L192.9 429.4C228.2 394.1 288.5 419.1 288.5 469V480.5C288.5 498.2 302.8 512.5 320.5 512.5C338.2 512.5 352.5 498.2 352.5 480.5V469C352.5 437.8 376.1 416.3 402.5 413.3V413.2Z" fill="#47535F"/>
</g>
<defs>
<clipPath id="clip0_104_3016">
<rect width="640" height="512" fill="white" transform="translate(0.5 0.5)"/>
</clipPath>
</defs>
</svg>
