<svg width="513" height="513" viewBox="0 0 513 513" fill="none" xmlns="http://www.w3.org/2000/svg">
<g clip-path="url(#clip0_104_3010)">
<path d="M192.5 24.5C192.5 11.2 203.2 0.5 216.5 0.5H296.5C309.8 0.5 320.5 11.2 320.5 24.5C320.5 37.8 309.8 48.5 296.5 48.5H280.5V82.1C311.2 86.3 339.3 98.4 362.8 116.2L386.6 92.5L375.3 81.1C365.9 71.7 365.9 56.5 375.3 47.2C384.7 37.9 399.9 37.8 409.2 47.2L465.8 103.8C475.2 113.2 475.2 128.4 465.8 137.7C456.4 147 441.2 147.1 431.9 137.7L420.5 126.4L396.7 150.2C414.6 173.7 426.6 201.9 430.8 232.5H464.5V216.5C464.5 203.2 475.2 192.5 488.5 192.5C501.8 192.5 512.5 203.2 512.5 216.5V296.5C512.5 309.8 501.8 320.5 488.5 320.5C475.2 320.5 464.5 309.8 464.5 296.5V280.5H430.9C426.7 311.2 414.6 339.3 396.8 362.8L420.5 386.6L431.8 375.3C441.2 365.9 456.4 365.9 465.7 375.3C475 384.7 475.1 399.9 465.7 409.2L409.1 465.8C399.7 475.2 384.5 475.2 375.2 465.8C365.9 456.4 365.8 441.2 375.2 431.9L386.6 420.5L362.8 396.7C339.3 414.6 311.1 426.6 280.5 430.8V464.5H296.5C309.8 464.5 320.5 475.2 320.5 488.5C320.5 501.8 309.8 512.5 296.5 512.5H216.5C203.2 512.5 192.5 501.8 192.5 488.5C192.5 475.2 203.2 464.5 216.5 464.5H232.5V430.9C201.8 426.7 173.7 414.6 150.2 396.8L126.4 420.5L137.7 431.8C147.1 441.2 147.1 456.4 137.7 465.7C128.3 475 113.1 475.1 103.8 465.7L47.2 409.2C37.8 399.8 37.8 384.6 47.2 375.3C56.6 366 71.8 365.9 81.1 375.3L92.5 386.6L116.3 362.8C98.4 339.3 86.3 311.2 82.1 280.5H48.5V296.5C48.5 309.8 37.8 320.5 24.5 320.5C11.2 320.5 0.5 309.8 0.5 296.5V216.5C0.5 203.2 11.2 192.5 24.5 192.5C37.8 192.5 48.5 203.2 48.5 216.5V232.5H82.1C86.3 201.8 98.4 173.7 116.2 150.2L92.5 126.4L81.1 137.7C71.7 147.1 56.5 147.1 47.2 137.7C37.9 128.3 37.8 113.1 47.2 103.8L103.8 47.2C113.2 37.8 128.4 37.8 137.7 47.2C147 56.6 147.1 71.8 137.7 81.1L126.4 92.5L150.2 116.3C173.7 98.4 201.9 86.4 232.5 82.2V48.5H216.5C203.2 48.5 192.5 37.8 192.5 24.5ZM240.5 224.5C240.5 211.77 235.443 199.561 226.441 190.559C217.439 181.557 205.23 176.5 192.5 176.5C179.77 176.5 167.561 181.557 158.559 190.559C149.557 199.561 144.5 211.77 144.5 224.5C144.5 237.23 149.557 249.439 158.559 258.441C167.561 267.443 179.77 272.5 192.5 272.5C205.23 272.5 217.439 267.443 226.441 258.441C235.443 249.439 240.5 237.23 240.5 224.5ZM304.5 328.5C310.865 328.5 316.97 325.971 321.471 321.471C325.971 316.97 328.5 310.865 328.5 304.5C328.5 298.135 325.971 292.03 321.471 287.529C316.97 283.029 310.865 280.5 304.5 280.5C298.135 280.5 292.03 283.029 287.529 287.529C283.029 292.03 280.5 298.135 280.5 304.5C280.5 310.865 283.029 316.97 287.529 321.471C292.03 325.971 298.135 328.5 304.5 328.5Z" fill="#47535F"/>
</g>
<defs>
<clipPath id="clip0_104_3010">
<rect width="512" height="512" fill="white" transform="translate(0.5 0.5)"/>
</clipPath>
</defs>
</svg>
