<svg width="641" height="513" viewBox="0 0 641 513" fill="none" xmlns="http://www.w3.org/2000/svg">
<g clip-path="url(#clip0_104_3012)">
<path d="M39.2998 5.59976C28.8998 -2.60024 13.7998 -0.700238 5.59976 9.69976C-2.60024 20.0998 -0.700238 35.1998 9.69976 43.3998L601.7 507.4C612.1 515.6 627.2 513.7 635.4 503.3C643.6 492.9 641.7 477.8 631.3 469.6L472.6 345.2C484 325.7 491.7 303.8 494.9 280.5H528.5V296.5C528.5 309.8 539.2 320.5 552.5 320.5C565.8 320.5 576.5 309.8 576.5 296.5V216.5C576.5 203.2 565.8 192.5 552.5 192.5C539.2 192.5 528.5 203.2 528.5 216.5V232.5H494.9C490.7 201.8 478.6 173.7 460.8 150.2L484.5 126.4L495.8 137.7C505.2 147.1 520.4 147.1 529.7 137.7C539 128.3 539.1 113.1 529.7 103.8L473.2 47.1998C463.8 37.7998 448.6 37.7998 439.3 47.1998C430 56.5998 429.9 71.7998 439.3 81.0998L450.6 92.4998L426.8 116.3C403.3 98.3998 375.2 86.2998 344.5 82.0998V48.4998H360.5C373.8 48.4998 384.5 37.7998 384.5 24.4998C384.5 11.1998 373.8 0.499762 360.5 0.499762H280.5C267.2 0.499762 256.5 11.1998 256.5 24.4998C256.5 37.7998 267.2 48.4998 280.5 48.4998H296.5V82.0998C265.8 86.2998 237.7 98.3998 214.2 116.2L190.4 92.4998L201.7 81.1998C211.1 71.7998 211.1 56.5998 201.7 47.2998C192.3 37.9998 177.1 37.8998 167.8 47.2998L134.6 80.2998L39.2998 5.59976ZM149.7 214C148.2 220 147 226.2 146.2 232.5H112.5V216.5C112.5 203.2 101.8 192.5 88.4998 192.5C75.1998 192.5 64.4998 203.2 64.4998 216.5V296.5C64.4998 309.8 75.1998 320.5 88.4998 320.5C101.8 320.5 112.5 309.8 112.5 296.5V280.5H146.1C150.3 311.2 162.4 339.3 180.2 362.8L156.5 386.6L145.2 375.3C135.8 365.9 120.6 365.9 111.3 375.3C102 384.7 101.9 399.9 111.3 409.2L167.9 465.8C177.3 475.2 192.5 475.2 201.8 465.8C211.1 456.4 211.2 441.2 201.8 431.9L190.4 420.5L214.2 396.7C237.7 414.6 265.9 426.6 296.5 430.8V464.5H280.5C267.2 464.5 256.5 475.2 256.5 488.5C256.5 501.8 267.2 512.5 280.5 512.5H360.5C373.8 512.5 384.5 501.8 384.5 488.5C384.5 475.2 373.8 464.5 360.5 464.5H344.5V430.9C364.9 428.1 384.2 421.8 401.8 412.7L149.7 214Z" fill="#47535F"/>
</g>
<defs>
<clipPath id="clip0_104_3012">
<rect width="640" height="512" fill="white" transform="translate(0.5 0.5)"/>
</clipPath>
</defs>
</svg>
