<svg width="641" height="513" viewBox="0 0 641 513" fill="none" xmlns="http://www.w3.org/2000/svg">
<g clip-path="url(#clip0_104_3018)">
<path d="M144.5 320.5C123.283 320.5 102.934 312.071 87.9315 297.069C72.9285 282.066 64.5 261.717 64.5 240.5C64.5 219.283 72.9285 198.934 87.9315 183.931C102.934 168.929 123.283 160.5 144.5 160.5C165.717 160.5 186.066 168.929 201.069 183.931C216.071 198.934 224.5 219.283 224.5 240.5C224.5 261.717 216.071 282.066 201.069 297.069C186.066 312.071 165.717 320.5 144.5 320.5ZM264.3 320.5C279.6 297.6 288.5 270.1 288.5 240.5C288.5 161 224 96.5 144.5 96.5C65 96.5 0.5 161 0.5 240.5C0.5 320 65 384.5 144.5 384.5H496.5C576 384.5 640.5 320 640.5 240.5C640.5 161 576 96.5 496.5 96.5C417 96.5 352.5 161 352.5 240.5C352.5 270.1 361.4 297.6 376.7 320.5H264.3ZM496.5 160.5C517.717 160.5 538.066 168.929 553.069 183.931C568.071 198.934 576.5 219.283 576.5 240.5C576.5 261.717 568.071 282.066 553.069 297.069C538.066 312.071 517.717 320.5 496.5 320.5C475.283 320.5 454.934 312.071 439.931 297.069C424.929 282.066 416.5 261.717 416.5 240.5C416.5 219.283 424.929 198.934 439.931 183.931C454.934 168.929 475.283 160.5 496.5 160.5Z" fill="#47535F"/>
</g>
<defs>
<clipPath id="clip0_104_3018">
<rect width="640" height="512" fill="white" transform="translate(0.5 0.5)"/>
</clipPath>
</defs>
</svg>
