<svg width="513" height="513" viewBox="0 0 513 513" fill="none" xmlns="http://www.w3.org/2000/svg">
<g clip-path="url(#clip0_104_3020)">
<path d="M160.5 144.5C125.2 144.5 96.5 115.8 96.5 80.5C96.5 45.2 125.2 16.5 160.5 16.5C176.2 16.5 190.5 22.1 201.7 31.5C212.9 12.9 233.2 0.5 256.5 0.5C279.8 0.5 300.1 12.9 311.3 31.5C322.5 22.1 336.8 16.5 352.5 16.5C387.8 16.5 416.5 45.2 416.5 80.5C416.5 115.8 387.8 144.5 352.5 144.5C337.8 144.5 324.2 139.5 313.4 131.2L281.4 179.2C275.8 187.5 266.5 192.5 256.5 192.5C246.5 192.5 237.2 187.5 231.6 179.2L199.6 131.2C188.8 139.5 175.2 144.5 160.5 144.5ZM144.5 352.5L192.9 328.3C203.1 323.2 214.5 320.5 225.9 320.5C245.5 320.5 264.3 328.3 278.1 342.1L310.6 374.6C316.9 380.9 325.5 384.5 334.4 384.5C345.7 384.5 356.2 378.9 362.4 369.5L372.1 354.9L313.2 288.6C304.1 278.4 291 272.5 277.3 272.5H235.6C221.9 272.5 208.8 278.4 199.7 288.6L139.8 356L144.5 352.5ZM163.9 256.7C182.1 236.2 208.2 224.5 235.7 224.5H277.5C304.9 224.5 331 236.2 349.3 256.7L499.5 425.7C508 435.2 512.7 447.6 512.7 460.4C512.7 489.2 489.3 512.6 460.5 512.6H52.7C23.9 512.5 0.5 489.1 0.5 460.3C0.5 447.5 5.2 435.2 13.7 425.6L163.9 256.6V256.7Z" fill="#47535F"/>
</g>
<defs>
<clipPath id="clip0_104_3020">
<rect width="512" height="512" fill="white" transform="translate(0.5 0.5)"/>
</clipPath>
</defs>
</svg>
