<svg width="513" height="513" viewBox="0 0 513 513" fill="none" xmlns="http://www.w3.org/2000/svg">
<g clip-path="url(#clip0_104_3022)">
<path d="M512.3 267.9C486.2 276.6 458.9 281.7 431.3 283C440.5 177.7 399.8 78.8 328.1 10.6C434.6 41.6 512.5 140 512.5 256.5C512.5 260.3 512.4 264.1 512.3 267.9ZM508.4 302.6C502.6 334.6 490.8 364.6 474.2 391.3C376.7 439.8 256.5 433.9 162.3 366.8C186 330.6 217.7 299.1 256.8 275C336.7 318.2 426.9 325.8 508.4 302.6ZM272.4 247.1C269.9 156.2 231.3 74.4 170.5 15.4C197.3 5.7 226.3 0.5 256.5 0.5C259.2 0.5 261.8 0.5 264.4 0.6C355.2 60.8 410.1 167.8 399.1 282.9C356 280.5 312.7 268.8 272.3 247L272.4 247.1ZM138.5 29.3C159.1 47.6 177.2 68.7 192.2 91.9C96.4 136.6 31.1 221.3 7.8 317.4C3 297.9 0.5 277.5 0.5 256.5C0.5 157.7 56.5 72 138.5 29.3ZM208.1 119.8C227.6 158.4 239.1 201.7 240.4 247.5C163 295.1 111.4 369.4 90.7 451.5C66.5 430.9 46.1 405.9 30.9 377.7C37.6 269 102.8 167.8 208 119.8H208.1ZM256.5 512.5C205.8 512.5 158.5 497.8 118.7 472.3C124.3 445.3 133.5 419.2 146.1 394.6C232.7 455.1 338.6 469.3 433.5 441.5C387.5 485.5 325.2 512.5 256.5 512.5Z" fill="#47535F"/>
</g>
<defs>
<clipPath id="clip0_104_3022">
<rect width="512" height="512" fill="white" transform="translate(0.5 0.5)"/>
</clipPath>
</defs>
</svg>
