<svg width="641" height="513" viewBox="0 0 641 513" fill="none" xmlns="http://www.w3.org/2000/svg">
<g clip-path="url(#clip0_104_3024)">
<path d="M534.1 32.9995C599 85.7995 640.5 166.3 640.5 256.5C640.5 346.7 599 427.3 534.1 480C523.8 488.4 508.7 486.8 500.3 476.5C491.9 466.2 493.5 451.1 503.8 442.7C558 398.7 592.5 331.7 592.5 256.5C592.5 181.3 558 114.3 503.8 70.1995C493.5 61.7995 492 46.6995 500.3 36.3995C508.6 26.0995 523.8 24.5995 534.1 32.8995V32.9995ZM473.6 107.5C516.8 142.7 544.5 196.4 544.5 256.5C544.5 316.6 516.8 370.3 473.6 405.5C463.3 413.9 448.2 412.3 439.8 402C431.4 391.7 433 376.6 443.3 368.2C475.8 341.8 496.5 301.6 496.5 256.5C496.5 211.4 475.8 171.2 443.3 144.7C433 136.3 431.5 121.2 439.8 110.9C448.1 100.6 463.3 99.0995 473.6 107.4V107.5ZM413.1 182C434.6 199.6 448.5 226.4 448.5 256.5C448.5 286.6 434.6 313.4 413.1 331C402.8 339.4 387.7 337.8 379.3 327.5C370.9 317.2 372.5 302.1 382.8 293.7C393.6 284.9 400.5 271.5 400.5 256.5C400.5 241.5 393.6 228.1 382.8 219.2C372.5 210.8 371 195.7 379.3 185.4C387.6 175.1 402.8 173.6 413.1 181.9V182ZM301.6 35.2995C313.1 40.4995 320.5 51.8995 320.5 64.4995V448.5C320.5 461.1 313.1 472.5 301.6 477.7C290.1 482.9 276.6 480.8 267.2 472.4L132.3 352.5H64.5C29.2 352.5 0.5 323.8 0.5 288.5V224.5C0.5 189.2 29.2 160.5 64.5 160.5H132.3L267.2 40.5995C276.6 32.1995 290.1 30.1995 301.6 35.2995Z" fill="#47535F"/>
</g>
<defs>
<clipPath id="clip0_104_3024">
<rect width="640" height="512" fill="white" transform="translate(0.5 0.5)"/>
</clipPath>
</defs>
</svg>
