<svg width="577" height="513" viewBox="0 0 577 513" fill="none" xmlns="http://www.w3.org/2000/svg">
<g clip-path="url(#clip0_104_3030)">
<path d="M301.6 35.3004C313.1 40.5004 320.5 51.9004 320.5 64.5004V448.5C320.5 461.1 313.1 472.5 301.6 477.7C290.1 482.9 276.6 480.8 267.2 472.4L132.3 352.5H64.5C29.2 352.5 0.5 323.8 0.5 288.5V224.5C0.5 189.2 29.2 160.5 64.5 160.5H132.3L267.2 40.6004C276.6 32.2004 290.1 30.2004 301.6 35.3004ZM425.5 167.5L480.5 222.5L535.5 167.5C544.9 158.1 560.1 158.1 569.4 167.5C578.7 176.9 578.8 192.1 569.4 201.4L514.4 256.4L569.4 311.4C578.8 320.8 578.8 336 569.4 345.3C560 354.6 544.8 354.7 535.5 345.3L480.5 290.3L425.5 345.3C416.1 354.7 400.9 354.7 391.6 345.3C382.3 335.9 382.2 320.7 391.6 311.4L446.6 256.4L391.6 201.4C382.2 192 382.2 176.8 391.6 167.5C401 158.2 416.2 158.1 425.5 167.5Z" fill="#47535F"/>
</g>
<defs>
<clipPath id="clip0_104_3030">
<rect width="576" height="512" fill="white" transform="translate(0.5 0.5)"/>
</clipPath>
</defs>
</svg>
