<svg width="449" height="513" viewBox="0 0 449 513" fill="none" xmlns="http://www.w3.org/2000/svg">
<g clip-path="url(#clip0_104_3026)">
<path d="M301.6 35.3004C313.1 40.5004 320.5 51.9004 320.5 64.5004V448.5C320.5 461.1 313.1 472.5 301.6 477.7C290.1 482.9 276.6 480.8 267.2 472.4L132.3 352.5H64.5C29.2 352.5 0.5 323.8 0.5 288.5V224.5C0.5 189.2 29.2 160.5 64.5 160.5H132.3L267.2 40.6004C276.6 32.2004 290.1 30.2004 301.6 35.3004ZM413.1 182C434.6 199.6 448.5 226.4 448.5 256.5C448.5 286.6 434.6 313.4 413.1 331C402.8 339.4 387.7 337.8 379.3 327.5C370.9 317.2 372.5 302.1 382.8 293.7C393.6 284.9 400.5 271.5 400.5 256.5C400.5 241.5 393.6 228.1 382.8 219.2C372.5 210.8 371 195.7 379.3 185.4C387.6 175.1 402.8 173.6 413.1 181.9V182Z" fill="#47535F"/>
</g>
<defs>
<clipPath id="clip0_104_3026">
<rect width="448" height="512" fill="white" transform="translate(0.5 0.5)"/>
</clipPath>
</defs>
</svg>
