<svg width="577" height="513" viewBox="0 0 577 513" fill="none" xmlns="http://www.w3.org/2000/svg">
<g clip-path="url(#clip0_104_3034)">
<path d="M21.2996 34.4998C37.7996 28.2998 56.2996 36.6998 62.4996 53.1998L172.7 347.2L257.8 55.4998C261.8 41.7998 274.3 32.4998 288.5 32.4998C302.7 32.4998 315.2 41.8998 319.2 55.4998L404.3 347.2L514.5 53.2998C520.7 36.7998 539.1 28.3998 555.7 34.5998C572.3 40.7998 580.6 59.2998 574.4 75.7998L430.4 459.8C425.6 472.7 413 481.1 399.2 480.5C385.4 479.9 373.5 470.7 369.7 457.5L288.5 178.8L207.2 457.5C203.3 470.7 191.4 480 177.7 480.5C164 481 151.4 472.7 146.5 459.8L2.49963 75.6998C-3.70037 59.1998 4.69963 40.6998 21.2996 34.4998Z" fill="#47535F"/>
</g>
<defs>
<clipPath id="clip0_104_3034">
<rect width="576" height="512" fill="white" transform="translate(0.5 0.5)"/>
</clipPath>
</defs>
</svg>
