<svg width="385" height="513" viewBox="0 0 385 513" fill="none" xmlns="http://www.w3.org/2000/svg">
<g clip-path="url(#clip0_104_3036)">
<path d="M112.5 24.5C112.5 11.2 101.8 0.5 88.5 0.5C75.2 0.5 64.5 11.2 64.5 24.5V96.5H48.5C22 96.5 0.5 118 0.5 144.5V300.6C0.5 313.3 5.6 325.5 14.6 334.5L18.5 338.4C27.5 347.4 32.6 359.6 32.6 372.3V464.5C32.6 491 54.1 512.5 80.6 512.5H304.5C331 512.5 352.5 491 352.5 464.5V372.4C352.5 359.7 357.6 347.5 366.6 338.5L370.5 334.6C379.5 325.6 384.6 313.4 384.6 300.7V144.5C384.6 118 363.1 96.5 336.6 96.5H320.5C320.5 78.8 306.2 64.5 288.5 64.5C270.8 64.5 256.5 78.8 256.5 96.5H224.5C224.5 78.8 210.2 64.5 192.5 64.5C174.8 64.5 160.5 78.8 160.5 96.5H112.5V24.5ZM112.5 160.5H272.5C281.3 160.5 288.5 167.7 288.5 176.5C288.5 185.3 281.3 192.5 272.5 192.5H112.5C103.7 192.5 96.5 185.3 96.5 176.5C96.5 167.7 103.7 160.5 112.5 160.5ZM112.5 224.5H272.5C281.3 224.5 288.5 231.7 288.5 240.5C288.5 249.3 281.3 256.5 272.5 256.5H112.5C103.7 256.5 96.5 249.3 96.5 240.5C96.5 231.7 103.7 224.5 112.5 224.5ZM112.5 288.5H272.5C281.3 288.5 288.5 295.7 288.5 304.5C288.5 313.3 281.3 320.5 272.5 320.5H112.5C103.7 320.5 96.5 313.3 96.5 304.5C96.5 295.7 103.7 288.5 112.5 288.5Z" fill="#47535F"/>
</g>
<defs>
<clipPath id="clip0_104_3036">
<rect width="384" height="512" fill="white" transform="translate(0.5 0.5)"/>
</clipPath>
</defs>
</svg>
