<svg width="513" height="513" viewBox="0 0 513 513" fill="none" xmlns="http://www.w3.org/2000/svg">
<g clip-path="url(#clip0_104_3038)">
<path d="M64.5 32.5C29.2 32.5 0.5 61.2 0.5 96.5V416.5C0.5 451.8 29.2 480.5 64.5 480.5H448.5C483.8 480.5 512.5 451.8 512.5 416.5V192.5C512.5 157.2 483.8 128.5 448.5 128.5H80.5C71.7 128.5 64.5 121.3 64.5 112.5C64.5 103.7 71.7 96.5 80.5 96.5H448.5C466.2 96.5 480.5 82.2 480.5 64.5C480.5 46.8 466.2 32.5 448.5 32.5H64.5ZM416.5 272.5C424.987 272.5 433.126 275.871 439.127 281.873C445.129 287.874 448.5 296.013 448.5 304.5C448.5 312.987 445.129 321.126 439.127 327.127C433.126 333.129 424.987 336.5 416.5 336.5C408.013 336.5 399.874 333.129 393.873 327.127C387.871 321.126 384.5 312.987 384.5 304.5C384.5 296.013 387.871 287.874 393.873 281.873C399.874 275.871 408.013 272.5 416.5 272.5Z" fill="#47535F"/>
</g>
<defs>
<clipPath id="clip0_104_3038">
<rect width="512" height="512" fill="white" transform="translate(0.5 0.5)"/>
</clipPath>
</defs>
</svg>
