<svg width="577" height="513" viewBox="0 0 577 513" fill="none" xmlns="http://www.w3.org/2000/svg">
<g clip-path="url(#clip0_104_3042)">
<path d="M235.2 43.2L197.5 57.3C194.5 58.4 192.5 61.3 192.5 64.5C192.5 67.7 194.5 70.6 197.5 71.7L235.2 85.8L249.3 123.5C250.4 126.5 253.3 128.5 256.5 128.5C259.7 128.5 262.6 126.5 263.7 123.5L277.8 85.8L315.5 71.7C318.5 70.6 320.5 67.7 320.5 64.5C320.5 61.3 318.5 58.4 315.5 57.3L277.8 43.2L263.7 5.5C262.6 2.5 259.7 0.5 256.5 0.5C253.3 0.5 250.4 2.5 249.3 5.5L235.2 43.2ZM46.6 395.9C27.9 414.6 27.9 445 46.6 463.8L81.2 498.4C99.9 517.1 130.3 517.1 149.1 498.4L530.4 117C549.1 98.3 549.1 67.9 530.4 49.1L495.8 14.6C477.1 -4.1 446.7 -4.1 427.9 14.6L46.6 395.9ZM485.1 83.1L380.1 188.1L356.8 164.8L461.8 59.8L485.1 83.1ZM8 117.7C3.5 119.4 0.5 123.7 0.5 128.5C0.5 133.3 3.5 137.6 8 139.3L64.5 160.5L85.7 217C87.4 221.5 91.7 224.5 96.5 224.5C101.3 224.5 105.6 221.5 107.3 217L128.5 160.5L185 139.3C189.5 137.6 192.5 133.3 192.5 128.5C192.5 123.7 189.5 119.4 185 117.7L128.5 96.5L107.3 40C105.6 35.5 101.3 32.5 96.5 32.5C91.7 32.5 87.4 35.5 85.7 40L64.5 96.5L8 117.7ZM360 373.7C355.5 375.4 352.5 379.7 352.5 384.5C352.5 389.3 355.5 393.6 360 395.3L416.5 416.5L437.7 473C439.4 477.5 443.7 480.5 448.5 480.5C453.3 480.5 457.6 477.5 459.3 473L480.5 416.5L537 395.3C541.5 393.6 544.5 389.3 544.5 384.5C544.5 379.7 541.5 375.4 537 373.7L480.5 352.5L459.3 296C457.6 291.5 453.3 288.5 448.5 288.5C443.7 288.5 439.4 291.5 437.7 296L416.5 352.5L360 373.7Z" fill="#47535F"/>
</g>
<defs>
<clipPath id="clip0_104_3042">
<rect width="576" height="512" fill="white" transform="translate(0.5 0.5)"/>
</clipPath>
</defs>
</svg>
