<svg width="513" height="513" viewBox="0 0 513 513" fill="none" xmlns="http://www.w3.org/2000/svg">
<g clip-path="url(#clip0_104_3044)">
<path d="M464.5 6.60007C474 -1.89993 488.5 -1.49993 497.5 7.50007L505.5 15.5001C514.5 24.5001 514.9 39.0001 506.4 48.5001L420.6 144.4C418 147.3 416.5 151.1 416.5 155.1V176.5C416.5 185.3 409.3 192.5 400.5 192.5H384.7C380.1 192.5 375.8 194.4 372.8 197.8L101.2 501.4C94.8 508.5 85.8 512.5 76.3 512.5C67.5 512.5 59 509 52.8 502.7L10.2 460.2C4 453.9 0.5 445.5 0.5 436.7C0.5 427.2 4.5 418.2 11.6 411.9L123.2 312.1C126.6 309.1 128.5 304.7 128.5 300.2V272.5C128.5 263.7 135.7 256.5 144.5 256.5H179.1C183 256.5 186.8 255 189.8 252.4L464.5 6.60007ZM432.5 288.5C436.1 288.5 439.2 290.9 440.2 294.3L455 346L506.7 360.8C510.1 361.8 512.5 364.9 512.5 368.5C512.5 372.1 510.1 375.2 506.7 376.2L455 391L440.2 442.7C439.2 446.1 436.1 448.5 432.5 448.5C428.9 448.5 425.8 446.1 424.8 442.7L410 391L358.3 376.2C354.9 375.2 352.5 372.1 352.5 368.5C352.5 364.9 354.9 361.8 358.3 360.8L410 346L424.8 294.3C425.8 290.9 428.9 288.5 432.5 288.5ZM88.2 70.3001L103 122L154.7 136.8C158.1 137.8 160.5 140.9 160.5 144.5C160.5 148.1 158.1 151.2 154.7 152.2L103 167L88.2 218.7C87.2 222.1 84.1 224.5 80.5 224.5C76.9 224.5 73.8 222.1 72.8 218.7L58 167L6.3 152.2C2.9 151.2 0.5 148.1 0.5 144.5C0.5 140.9 2.9 137.8 6.3 136.8L58 122L72.8 70.3001C73.8 66.9001 76.9 64.5001 80.5 64.5001C84.1 64.5001 87.2 66.9001 88.2 70.3001ZM208.5 0.500067C212.2 0.500067 215.4 3.00007 216.3 6.60007L223.1 33.9001L250.4 40.7001C254 41.6001 256.5 44.8001 256.5 48.5001C256.5 52.2001 254 55.4001 250.4 56.3001L223.1 63.1001L216.3 90.4001C215.4 94.0001 212.2 96.5001 208.5 96.5001C204.8 96.5001 201.6 94.0001 200.7 90.4001L193.9 63.1001L166.6 56.3001C163 55.4001 160.5 52.2001 160.5 48.5001C160.5 44.8001 163 41.6001 166.6 40.7001L193.9 33.9001L200.7 6.60007C201.6 3.00007 204.8 0.500067 208.5 0.500067Z" fill="#47535F"/>
</g>
<defs>
<clipPath id="clip0_104_3044">
<rect width="512" height="512" fill="white" transform="translate(0.5 0.5)"/>
</clipPath>
</defs>
</svg>
