<svg width="641" height="513" viewBox="0 0 641 513" fill="none" xmlns="http://www.w3.org/2000/svg">
<g clip-path="url(#clip0_104_3046)">
<path d="M0.5 488.5V171.8C0.5 145.6 16.4 122.1 40.7 112.4L308.6 5.29961C316.2 2.19961 324.7 2.19961 332.4 5.29961L600.3 112.4C624.6 122.1 640.5 145.7 640.5 171.8V488.5C640.5 501.8 629.8 512.5 616.5 512.5H568.5C555.2 512.5 544.5 501.8 544.5 488.5V224.5C544.5 206.8 530.2 192.5 512.5 192.5H128.5C110.8 192.5 96.5 206.8 96.5 224.5V488.5C96.5 501.8 85.8 512.5 72.5 512.5H24.5C11.2 512.5 0.5 501.8 0.5 488.5ZM488.5 512.5H152.5C139.2 512.5 128.5 501.8 128.5 488.5V432.5H512.5V488.5C512.5 501.8 501.8 512.5 488.5 512.5ZM128.5 400.5V336.5H512.5V400.5H128.5ZM128.5 304.5V224.5H512.5V304.5H128.5Z" fill="#47535F"/>
</g>
<defs>
<clipPath id="clip0_104_3046">
<rect width="640" height="512" fill="white" transform="translate(0.5 0.5)"/>
</clipPath>
</defs>
</svg>
