<svg width="577" height="513" viewBox="0 0 577 513" fill="none" xmlns="http://www.w3.org/2000/svg">
<g clip-path="url(#clip0_104_3048)">
<path d="M270 70.3997C281.1 62.4997 295.9 62.4997 307 70.3997C329.5 85.8997 357 96.4997 384.5 96.4997C411.4 96.4997 439.9 85.6997 461.9 70.3997C473.8 61.8997 490 62.5997 501.1 72.0997C515.5 83.9997 533.6 93.0997 551.7 97.2997C568.9 101.3 579.6 118.5 575.6 135.7C571.6 152.9 554.4 163.6 537.2 159.6C512.7 153.9 492.3 143.1 479 134.6C450 150.2 417.5 160.5 384.5 160.5C352.6 160.5 323.9 150.6 304.1 141.6C298.3 138.9 293 136.3 288.5 133.9C284 136.3 278.8 139 272.9 141.6C253.1 150.6 224.4 160.5 192.5 160.5C159.5 160.5 127 150.2 97.9998 134.7C84.5998 143.1 64.2998 154 39.7998 159.7C22.5998 163.7 5.39978 153 1.39978 135.8C-2.60022 118.6 8.09977 101.4 25.2998 97.3997C43.2998 93.0997 61.4998 83.9997 75.7998 72.0997C86.8998 62.5997 103.1 61.9997 115 70.3997C137.2 85.6997 165.6 96.4997 192.5 96.4997C220 96.4997 247.5 85.8997 270 70.3997ZM307 358.4C329.5 373.9 357 384.5 384.5 384.5C411.4 384.5 439.9 373.7 461.9 358.4C473.8 349.9 490 350.6 501.1 360.1C515.5 372 533.6 381.1 551.7 385.3C568.9 389.3 579.6 406.5 575.6 423.7C571.6 440.9 554.4 451.6 537.2 447.6C512.7 441.9 492.3 431.1 479 422.6C450 438.2 417.5 448.5 384.5 448.5C352.6 448.5 323.9 438.6 304.1 429.6C298.3 426.9 293 424.3 288.5 421.9C284 424.3 278.8 427 272.9 429.6C253.1 438.6 224.4 448.5 192.5 448.5C159.5 448.5 127 438.2 97.9998 422.7C84.5998 431.1 64.2998 442 39.7998 447.7C22.5998 451.7 5.39978 441 1.39978 423.8C-2.60022 406.6 8.09977 389.4 25.2998 385.4C43.3998 381.2 61.4998 372.1 75.8998 360.2C86.9998 350.8 103.2 350.1 115.1 358.5C137.2 373.7 165.6 384.5 192.5 384.5C220 384.5 247.5 373.9 270 358.4C281.1 350.5 295.9 350.5 307 358.4ZM307 214.4C329.5 229.9 357 240.5 384.5 240.5C411.4 240.5 439.9 229.7 461.9 214.4C473.8 205.9 490 206.6 501.1 216.1C515.5 228 533.6 237.1 551.7 241.3C568.9 245.3 579.6 262.5 575.6 279.7C571.6 296.9 554.4 307.6 537.2 303.6C512.7 297.9 492.3 287.1 479 278.6C450 294.2 417.5 304.5 384.5 304.5C352.6 304.5 323.9 294.6 304.1 285.6C298.3 282.9 293 280.3 288.5 277.9C284 280.3 278.8 283 272.9 285.6C253.1 294.6 224.4 304.5 192.5 304.5C159.5 304.5 127 294.2 97.9998 278.7C84.5998 287.1 64.2998 298 39.7998 303.7C22.5998 307.7 5.39978 297 1.39978 279.8C-2.60022 262.6 8.09977 245.4 25.2998 241.4C43.3998 237.2 61.4998 228.1 75.8998 216.2C86.9998 206.7 103.2 206.1 115.1 214.5C137.2 229.7 165.6 240.5 192.5 240.5C220 240.5 247.5 229.9 270 214.4C281.1 206.5 295.9 206.5 307 214.4Z" fill="#47535F"/>
</g>
<defs>
<clipPath id="clip0_104_3048">
<rect width="576" height="512" fill="white" transform="translate(0.5 0.5)"/>
</clipPath>
</defs>
</svg>
