<svg width="577" height="513" viewBox="0 0 577 513" fill="none" xmlns="http://www.w3.org/2000/svg">
<g clip-path="url(#clip0_104_3050)">
<path d="M128.5 128.2C128.5 75.4 171.4 32.5 224.2 32.5C272.5 32.5 313.2 68.5 319.2 116.4L320.2 124.6C322.4 142.1 310 158.1 292.4 160.3C274.8 162.5 258.9 150.1 256.7 132.5L255.7 124.3C253.7 108.4 240.2 96.5 224.2 96.5C206.7 96.5 192.5 110.7 192.5 128.2V224.5H384.5V128.2C384.5 75.4 427.4 32.5 480.2 32.5C528.5 32.5 569.2 68.5 575.2 116.4L576.2 124.6C578.4 142.1 566 158.1 548.4 160.3C530.8 162.5 514.9 150.1 512.7 132.5L511.7 124.3C509.7 108.4 496.2 96.5 480.2 96.5C462.7 96.5 448.5 110.7 448.5 128.2V361.5C446.9 362.5 445.2 363.5 443.7 364.6C425.7 377 403.6 384.9 384.5 384.9V288.5H192.5V385C173.5 385 151.3 377.1 133.4 364.7C131.8 363.6 130.2 362.5 128.5 361.6V128.2ZM307 390.4C329.5 405.9 357 416.5 384.5 416.5C411.4 416.5 439.9 405.7 461.9 390.4C473.8 381.9 490 382.6 501.1 392.1C515.5 404 533.6 413.1 551.7 417.3C568.9 421.3 579.6 438.5 575.6 455.7C571.6 472.9 554.4 483.6 537.2 479.6C512.7 473.9 492.3 463.1 479 454.6C450 470.2 417.5 480.5 384.5 480.5C352.6 480.5 323.9 470.6 304.1 461.6C298.3 458.9 293 456.3 288.5 453.9C284 456.3 278.8 459 272.9 461.6C253.1 470.6 224.4 480.5 192.5 480.5C159.5 480.5 127 470.2 97.9998 454.7C84.5998 463.1 64.2998 474 39.7998 479.7C22.5998 483.7 5.39978 473 1.39978 455.8C-2.60022 438.6 8.09977 421.4 25.2998 417.4C43.3998 413.2 61.4998 404.1 75.8998 392.2C86.9998 382.8 103.2 382.1 115.1 390.5C137.2 405.7 165.6 416.5 192.5 416.5C220 416.5 247.5 405.9 270 390.4C281.1 382.5 295.9 382.5 307 390.4Z" fill="#47535F"/>
</g>
<defs>
<clipPath id="clip0_104_3050">
<rect width="576" height="512" fill="white" transform="translate(0.5 0.5)"/>
</clipPath>
</defs>
</svg>
