<svg width="641" height="513" viewBox="0 0 641 513" fill="none" xmlns="http://www.w3.org/2000/svg">
<g clip-path="url(#clip0_104_3052)">
<path d="M128.5 64.5C128.5 46.8 142.8 32.5 160.5 32.5H320.5C338.2 32.5 352.5 46.8 352.5 64.5V416.5H448.5V256.5C448.5 238.8 462.8 224.5 480.5 224.5H608.5C626.2 224.5 640.5 238.8 640.5 256.5C640.5 274.2 626.2 288.5 608.5 288.5H512.5V448.5C512.5 466.2 498.2 480.5 480.5 480.5H320.5C302.8 480.5 288.5 466.2 288.5 448.5V96.5H192.5V256.5C192.5 274.2 178.2 288.5 160.5 288.5H32.5C14.8 288.5 0.5 274.2 0.5 256.5C0.5 238.8 14.8 224.5 32.5 224.5H128.5V64.5Z" fill="#47535F"/>
</g>
<defs>
<clipPath id="clip0_104_3052">
<rect width="640" height="512" fill="white" transform="translate(0.5 0.5)"/>
</clipPath>
</defs>
</svg>
