<svg width="513" height="513" viewBox="0 0 513 513" fill="none" xmlns="http://www.w3.org/2000/svg">
<g clip-path="url(#clip0_104_3054)">
<path d="M224.5 96.5C224.5 88.0131 227.872 79.8737 233.873 73.8726C239.874 67.8714 248.013 64.5 256.5 64.5C264.987 64.5 273.126 67.8714 279.128 73.8726C285.129 79.8737 288.5 88.0131 288.5 96.5C288.5 104.987 285.129 113.126 279.128 119.127C273.126 125.129 264.987 128.5 256.5 128.5C248.013 128.5 239.874 125.129 233.873 119.127C227.872 113.126 224.5 104.987 224.5 96.5ZM347 128.5C350.5 118.5 352.5 107.7 352.5 96.5C352.5 43.5 309.5 0.5 256.5 0.5C203.5 0.5 160.5 43.5 160.5 96.5C160.5 107.7 162.4 118.5 166 128.5H120.5C98.5002 128.5 79.3002 143.5 73.9002 164.9L1.90017 452.9C-1.69983 467.2 1.50017 482.4 10.6002 494.1C19.7002 505.8 33.7002 512.5 48.5002 512.5H464.5C479.3 512.5 493.2 505.7 502.3 494C511.4 482.3 514.6 467.2 511 452.8L439 164.8C433.7 143.5 414.5 128.5 392.5 128.5H347Z" fill="#47535F"/>
</g>
<defs>
<clipPath id="clip0_104_3054">
<rect width="512" height="512" fill="white" transform="translate(0.5 0.5)"/>
</clipPath>
</defs>
</svg>
