<svg width="513" height="513" viewBox="0 0 513 513" fill="none" xmlns="http://www.w3.org/2000/svg">
<g clip-path="url(#clip0_104_3056)">
<path d="M128.5 176.5C128.5 142.552 141.986 109.995 165.99 85.9903C189.995 61.9857 222.552 48.5 256.5 48.5C290.448 48.5 323.005 61.9857 347.01 85.9903C371.014 109.995 384.5 142.552 384.5 176.5C384.5 210.448 371.014 243.005 347.01 267.01C323.005 291.014 290.448 304.5 256.5 304.5C222.552 304.5 189.995 291.014 165.99 267.01C141.986 243.005 128.5 210.448 128.5 176.5ZM392.3 64.5C360 25.4 311.2 0.5 256.5 0.5C201.8 0.5 153 25.4 120.7 64.5H64.5C29.2 64.5 0.5 93.2 0.5 128.5V448.5C0.5 483.8 29.2 512.5 64.5 512.5H448.5C483.8 512.5 512.5 483.8 512.5 448.5V128.5C512.5 93.2 483.8 64.5 448.5 64.5H392.3ZM296.5 224.5C296.5 213.9 292.4 204.3 285.6 197.1L319.2 118.8C322.7 110.7 318.9 101.3 310.8 97.8C302.7 94.3 293.3 98.1 289.8 106.2L256.2 184.5C234.2 184.6 216.5 202.5 216.5 224.5C216.5 246.6 234.4 264.5 256.5 264.5C278.6 264.5 296.5 246.6 296.5 224.5Z" fill="#47535F"/>
</g>
<defs>
<clipPath id="clip0_104_3056">
<rect width="512" height="512" fill="white" transform="translate(0.5 0.5)"/>
</clipPath>
</defs>
</svg>
