<svg width="513" height="513" viewBox="0 0 513 513" fill="none" xmlns="http://www.w3.org/2000/svg">
<g clip-path="url(#clip0_104_3058)">
<path d="M505.5 41.5004C514.9 32.1004 514.9 16.9004 505.5 7.60044C496.1 -1.69956 480.9 -1.79956 471.6 7.60044L383.5 95.5004C374.1 104.9 374.1 120.1 383.5 129.4C392.9 138.7 408.1 138.8 417.4 129.4L505.4 41.4004L505.5 41.5004ZM306 27.8004C299.8 21.6004 289.6 21.6004 283.4 27.8004L272 39.1004C234.5 76.6004 234.5 137.4 272 174.9L282.4 185.3L251.9 215.8C248.5 188.5 236.4 162 215.4 141L204.1 129.7C197.9 123.5 187.7 123.5 181.5 129.7L170.2 141C132.7 178.5 132.7 239.3 170.2 276.8L180.6 287.2L150.1 317.7C146.7 290.4 134.6 263.9 113.6 242.9L102.3 231.5C96.0999 225.3 85.8999 225.3 79.6999 231.5L68.3999 242.8C30.8999 280.3 30.8999 341.1 68.3999 378.6L78.7999 389L9.8999 457.9C-2.6001 470.4 -2.6001 490.7 9.8999 503.2C22.3999 515.7 42.6999 515.7 55.1999 503.2L124.1 434.3L136.3 446.5C173.8 484 234.6 484 272.1 446.5L283.4 435.2C289.6 429 289.6 418.8 283.4 412.6L272.1 401.3C250.3 379.5 222.5 367.2 194 364.4L225.9 332.5L238.1 344.7C275.6 382.2 336.4 382.2 373.9 344.7L385.2 333.4C391.4 327.2 391.4 317 385.2 310.8L373.9 299.5C352.1 277.7 324.3 265.4 295.8 262.6L327.7 230.7L339.9 242.9C377.4 280.4 438.2 280.4 475.7 242.9L487 231.5C493.2 225.3 493.2 215.1 487 208.9L475.7 197.5C470.5 192.3 465.1 187.7 459.3 183.6L505.5 137.5C514.9 128.1 514.9 112.9 505.5 103.6C496.1 94.3004 480.9 94.2004 471.6 103.6L412.2 163C391.6 158.6 370.2 159.3 349.9 165.1C356 143.8 356.5 121.3 351.3 99.8004L409.5 41.5004C418.9 32.1004 418.9 16.9004 409.5 7.60044C400.1 -1.69956 384.9 -1.79956 375.6 7.60044L329.6 53.4004C325.9 48.4004 321.8 43.6004 317.2 39.1004L306 27.8004Z" fill="#47535F"/>
</g>
<defs>
<clipPath id="clip0_104_3058">
<rect width="512" height="512" fill="white" transform="translate(0.5 0.5)"/>
</clipPath>
</defs>
</svg>
