<svg width="641" height="513" viewBox="0 0 641 513" fill="none" xmlns="http://www.w3.org/2000/svg">
<g clip-path="url(#clip0_104_3060)">
<path d="M505.5 41.5004C514.9 32.1004 514.9 16.9004 505.5 7.60044C496.1 -1.69956 480.9 -1.79956 471.6 7.60044L383.5 95.5004C374.1 104.9 374.1 120.1 383.5 129.4C392.9 138.7 408.1 138.8 417.4 129.4L505.4 41.4004L505.5 41.5004ZM306 27.8004C299.8 21.6004 289.6 21.6004 283.4 27.8004L272 39.1004C234.5 76.6004 234.5 137.4 272 174.9L282.4 185.3L251.9 215.8C248.5 188.5 236.4 162 215.4 141L204.1 129.7C197.9 123.5 187.7 123.5 181.5 129.7L170.2 141C132.7 178.5 132.7 239.3 170.2 276.8L180.6 287.2L150.1 317.7C146.7 290.4 134.6 263.9 113.6 242.9L102.3 231.5C96.1004 225.3 85.9004 225.3 79.7004 231.5L68.4004 242.8C30.9004 280.3 30.9004 341.1 68.4004 378.6L78.8004 389L9.90039 457.9C-2.59961 470.4 -2.59961 490.7 9.90039 503.2C22.4004 515.7 42.7004 515.7 55.2004 503.2L124.1 434.3L136.3 446.5C173.8 484 234.6 484 272.1 446.5L283.4 435.2C289.6 429 289.6 418.8 283.4 412.6L272.1 401.3C250.3 379.5 222.5 367.2 194 364.4L225.9 332.5L238.1 344.7C260.6 367.2 291.4 376.2 320.5 371.7C320.5 370.7 320.5 369.6 320.5 368.6C320.5 335.5 329.6 304.5 345.5 278C330 269.3 313 264.2 295.7 262.5L327.6 230.6L339.8 242.8C345.8 248.8 352.4 253.9 359.5 258C387 224 426.8 200.5 472.1 194.2C468 190.4 463.7 186.9 459.2 183.7L505.5 137.5C514.9 128.1 514.9 112.9 505.5 103.6C496.1 94.3004 480.9 94.2004 471.6 103.6L412.2 163C391.6 158.6 370.2 159.3 349.9 165.1C356 143.8 356.5 121.3 351.3 99.8004L409.5 41.5004C418.9 32.1004 418.9 16.9004 409.5 7.60044C400.1 -1.69956 384.9 -1.79956 375.6 7.60044L329.6 53.4004C325.9 48.4004 321.8 43.6004 317.2 39.1004L306 27.8004ZM496.5 512.5C534.692 512.5 571.318 497.329 598.324 470.324C625.329 443.319 640.5 406.692 640.5 368.5C640.5 330.309 625.329 293.682 598.324 266.677C571.318 239.672 534.692 224.5 496.5 224.5C458.309 224.5 421.682 239.672 394.677 266.677C367.672 293.682 352.5 330.309 352.5 368.5C352.5 406.692 367.672 443.319 394.677 470.324C421.682 497.329 458.309 512.5 496.5 512.5ZM496.5 416.5C502.866 416.5 508.97 419.029 513.471 423.53C517.972 428.031 520.5 434.135 520.5 440.5C520.5 446.866 517.972 452.97 513.471 457.471C508.97 461.972 502.866 464.5 496.5 464.5C490.135 464.5 484.031 461.972 479.53 457.471C475.029 452.97 472.5 446.866 472.5 440.5C472.5 434.135 475.029 428.031 479.53 423.53C484.031 419.029 490.135 416.5 496.5 416.5ZM496.5 272.5C505.3 272.5 512.5 279.7 512.5 288.5V368.5C512.5 377.3 505.3 384.5 496.5 384.5C487.7 384.5 480.5 377.3 480.5 368.5V288.5C480.5 279.7 487.7 272.5 496.5 272.5Z" fill="#47535F"/>
</g>
<defs>
<clipPath id="clip0_104_3060">
<rect width="640" height="512" fill="white" transform="translate(0.5 0.5)"/>
</clipPath>
</defs>
</svg>
