<svg width="513" height="513" viewBox="0 0 513 513" fill="none" xmlns="http://www.w3.org/2000/svg">
<g clip-path="url(#clip0_104_3062)">
<path d="M192.5 96.5C205.23 96.5 217.439 91.4429 226.441 82.4411C235.443 73.4394 240.5 61.2304 240.5 48.5C240.5 35.7696 235.443 23.5606 226.441 14.5589C217.439 5.55713 205.23 0.5 192.5 0.5C179.77 0.5 167.561 5.55713 158.559 14.5589C149.557 23.5606 144.5 35.7696 144.5 48.5C144.5 61.2304 149.557 73.4394 158.559 82.4411C167.561 91.4429 179.77 96.5 192.5 96.5ZM121 247.7C133.4 243 139.7 229.2 135 216.8C130.3 204.4 116.5 198.1 104.1 202.8C43.6 225.6 0.5 284 0.5 352.5C0.5 440.9 72.1 512.5 160.5 512.5C221.7 512.5 274.8 478.2 301.7 427.8C307.9 416.1 303.5 401.6 291.8 395.3C280.1 389 265.6 393.5 259.3 405.2C240.5 440.5 203.3 464.5 160.5 464.5C98.6 464.5 48.5 414.4 48.5 352.5C48.5 304.6 78.6 263.7 121 247.7ZM260.3 176.5L258.4 166.8C253.9 144.5 234.4 128.5 211.6 128.5C181.5 128.5 158.9 156 164.8 185.5L187.9 301C193.9 330.9 220.1 352.4 250.7 352.4H255.8C256.2 352.4 256.6 352.4 257.1 352.4H351.2C357.9 352.4 363.8 356.5 366.2 362.8L402.5 459.7C408.5 475.8 426.3 484.3 442.6 478.8L490.6 462.8C507.4 457.2 516.4 439.1 510.8 422.3C505.2 405.5 487.1 396.5 470.3 402.1L451.6 408.3L426.1 340.3C414.4 309.1 384.5 288.4 351.2 288.4H282.7L273.1 240.4H336.5C354.2 240.4 368.5 226.1 368.5 208.4C368.5 190.7 354.2 176.4 336.5 176.4H260.3V176.5Z" fill="#47535F"/>
</g>
<defs>
<clipPath id="clip0_104_3062">
<rect width="512" height="512" fill="white" transform="translate(0.5 0.5)"/>
</clipPath>
</defs>
</svg>
