<svg width="449" height="513" viewBox="0 0 449 513" fill="none" xmlns="http://www.w3.org/2000/svg">
<g clip-path="url(#clip0_104_3064)">
<path d="M320.5 48.5C320.5 35.7696 325.557 23.5606 334.559 14.5589C343.561 5.55713 355.77 0.5 368.5 0.5C381.23 0.5 393.439 5.55713 402.441 14.5589C411.443 23.5606 416.5 35.7696 416.5 48.5C416.5 61.2304 411.443 73.4394 402.441 82.4411C393.439 91.4429 381.23 96.5 368.5 96.5C355.77 96.5 343.561 91.4429 334.559 82.4411C325.557 73.4394 320.5 61.2304 320.5 48.5ZM205 121.8C199.6 119.3 193.3 119.9 188.6 123.5L147.7 154.2C133.6 164.8 113.5 161.9 102.9 147.8C92.3 133.7 95.2 113.6 109.3 103L150.2 72.3C173.9 54.5 205.5 51.3 232.3 63.9L322.7 106.4C351.8 120.1 359.5 158 337.9 181.9L299.6 224.5H397C427.3 224.5 450 252.2 444.1 281.9L415.9 422.8C412.4 440.1 395.6 451.4 378.2 447.9C360.8 444.4 349.6 427.6 353.1 410.2L377.5 288.5H307.2C315.8 308.1 320.5 329.7 320.5 352.5C320.5 440.9 248.9 512.5 160.5 512.5C72.1 512.5 0.5 440.9 0.5 352.5C0.5 264.1 72.1 192.5 160.5 192.5C171.6 192.5 182.5 193.6 192.9 195.8L247.1 141.6L205 121.8ZM160.5 448.5C173.107 448.5 185.59 446.017 197.238 441.192C208.885 436.368 219.468 429.297 228.382 420.382C237.297 411.468 244.368 400.885 249.192 389.238C254.017 377.59 256.5 365.107 256.5 352.5C256.5 339.893 254.017 327.41 249.192 315.762C244.368 304.115 237.297 293.532 228.382 284.618C219.468 275.703 208.885 268.632 197.238 263.808C185.59 258.983 173.107 256.5 160.5 256.5C147.893 256.5 135.41 258.983 123.762 263.808C112.115 268.632 101.532 275.703 92.6177 284.618C83.7033 293.532 76.632 304.115 71.8076 315.762C66.9831 327.41 64.5 339.893 64.5 352.5C64.5 365.107 66.9831 377.59 71.8076 389.238C76.632 400.885 83.7033 411.468 92.6177 420.382C101.532 429.297 112.115 436.368 123.762 441.192C135.41 446.017 147.893 448.5 160.5 448.5Z" fill="#47535F"/>
</g>
<defs>
<clipPath id="clip0_104_3064">
<rect width="448" height="512" fill="white" transform="translate(0.5 0.5)"/>
</clipPath>
</defs>
</svg>
