<svg width="641" height="513" viewBox="0 0 641 513" fill="none" xmlns="http://www.w3.org/2000/svg">
<g clip-path="url(#clip0_104_3068)">
<path d="M54.6997 203.4C123.7 137.2 217.3 96.5 320.5 96.5C423.7 96.5 517.3 137.2 586.3 203.4C599.1 215.6 619.3 215.2 631.5 202.5C643.7 189.8 643.3 169.5 630.6 157.3C550.2 80 440.9 32.5 320.5 32.5C200.1 32.5 90.7997 80 10.2997 157.2C-2.40028 169.5 -2.80028 189.7 9.39972 202.5C21.5997 215.3 41.8997 215.7 54.5997 203.4H54.6997ZM320.5 256.5C377.3 256.5 429.1 277.6 468.7 312.5C482 324.2 502.2 322.9 513.9 309.7C525.6 296.5 524.3 276.2 511.1 264.5C460.3 219.7 393.5 192.5 320.5 192.5C247.5 192.5 180.7 219.7 130 264.5C116.7 276.2 115.5 296.4 127.2 309.7C138.9 323 159.1 324.2 172.4 312.5C211.9 277.6 263.7 256.5 320.6 256.5H320.5ZM384.5 416.5C384.5 399.526 377.757 383.248 365.755 371.245C353.752 359.243 337.474 352.5 320.5 352.5C303.526 352.5 287.247 359.243 275.245 371.245C263.243 383.248 256.5 399.526 256.5 416.5C256.5 433.474 263.243 449.752 275.245 461.755C287.247 473.757 303.526 480.5 320.5 480.5C337.474 480.5 353.752 473.757 365.755 461.755C377.757 449.752 384.5 433.474 384.5 416.5Z" fill="#47535F"/>
</g>
<defs>
<clipPath id="clip0_104_3068">
<rect width="640" height="512" fill="white" transform="translate(0.5 0.5)"/>
</clipPath>
</defs>
</svg>
