<svg width="513" height="513" viewBox="0 0 513 513" fill="none" xmlns="http://www.w3.org/2000/svg">
<g clip-path="url(#clip0_104_3076)">
<path d="M432.5 64.5H208.5C199.7 64.5 192.5 71.7 192.5 80.5V96.5H128.5V80.5C128.5 36.3 164.3 0.5 208.5 0.5H432.5C476.7 0.5 512.5 36.3 512.5 80.5V304.5C512.5 348.7 476.7 384.5 432.5 384.5H416.5V320.5H432.5C441.3 320.5 448.5 313.3 448.5 304.5V80.5C448.5 71.7 441.3 64.5 432.5 64.5ZM0.5 192.5C0.5 157.2 29.2 128.5 64.5 128.5H320.5C355.8 128.5 384.5 157.2 384.5 192.5V448.5C384.5 483.8 355.8 512.5 320.5 512.5H64.5C29.2 512.5 0.5 483.8 0.5 448.5V192.5ZM64.5 224.5C64.5 242.2 78.8 256.5 96.5 256.5H288.5C306.2 256.5 320.5 242.2 320.5 224.5C320.5 206.8 306.2 192.5 288.5 192.5H96.5C78.8 192.5 64.5 206.8 64.5 224.5Z" fill="#47535F"/>
</g>
<defs>
<clipPath id="clip0_104_3076">
<rect width="512" height="512" fill="white" transform="translate(0.5 0.5)"/>
</clipPath>
</defs>
</svg>
