<svg width="513" height="513" viewBox="0 0 513 513" fill="none" xmlns="http://www.w3.org/2000/svg">
<g clip-path="url(#clip0_104_3070)">
<path d="M288.5 32.5C288.5 50.2 302.8 64.5 320.5 64.5H352.5C370.2 64.5 384.5 78.8 384.5 96.5C384.5 114.2 370.2 128.5 352.5 128.5H32.5C14.8 128.5 0.5 142.8 0.5 160.5C0.5 178.2 14.8 192.5 32.5 192.5H352.5C405.5 192.5 448.5 149.5 448.5 96.5C448.5 43.5 405.5 0.5 352.5 0.5H320.5C302.8 0.5 288.5 14.8 288.5 32.5ZM352.5 384.5C352.5 402.2 366.8 416.5 384.5 416.5H416.5C469.5 416.5 512.5 373.5 512.5 320.5C512.5 267.5 469.5 224.5 416.5 224.5H32.5C14.8 224.5 0.5 238.8 0.5 256.5C0.5 274.2 14.8 288.5 32.5 288.5H416.5C434.2 288.5 448.5 302.8 448.5 320.5C448.5 338.2 434.2 352.5 416.5 352.5H384.5C366.8 352.5 352.5 366.8 352.5 384.5ZM128.5 512.5H160.5C213.5 512.5 256.5 469.5 256.5 416.5C256.5 363.5 213.5 320.5 160.5 320.5H32.5C14.8 320.5 0.5 334.8 0.5 352.5C0.5 370.2 14.8 384.5 32.5 384.5H160.5C178.2 384.5 192.5 398.8 192.5 416.5C192.5 434.2 178.2 448.5 160.5 448.5H128.5C110.8 448.5 96.5 462.8 96.5 480.5C96.5 498.2 110.8 512.5 128.5 512.5Z" fill="#47535F"/>
</g>
<defs>
<clipPath id="clip0_104_3070">
<rect width="512" height="512" fill="white" transform="translate(0.5 0.5)"/>
</clipPath>
</defs>
</svg>
