<svg width="513" height="513" viewBox="0 0 513 513" fill="none" xmlns="http://www.w3.org/2000/svg">
<g clip-path="url(#clip0_104_3078)">
<path d="M393.9 9.90039C406.4 -2.59961 426.7 -2.59961 439.2 9.90039L503.2 73.9004C515.7 86.4004 515.7 106.7 503.2 119.2C491.4 131 472.5 131.7 460 121.1L450.5 130.6L401.7 179.4C392.5 188.6 390.2 202.3 393.1 215C402.5 255.9 391.2 300.6 359.3 332.5L197.8 493.8C172.8 518.8 132.3 518.8 107.3 493.8L19.2998 405.8C-5.7002 380.8 -5.7002 340.3 19.2998 315.3L180.7 153.8C212.6 121.9 257.3 110.7 298.2 120C310.8 122.9 324.6 120.5 333.7 111.4L382.5 62.6004L392 53.1004C381.4 40.5004 382 21.7004 393.9 9.90039ZM99.7998 347.8L165.2 413.2C171.4 419.4 181.6 419.4 187.8 413.2L285.2 315.8C291.4 309.6 291.4 299.4 285.2 293.2L219.8 227.8C213.6 221.6 203.4 221.6 197.2 227.8L99.7998 325.2C93.5998 331.4 93.5998 341.6 99.7998 347.8Z" fill="#47535F"/>
</g>
<defs>
<clipPath id="clip0_104_3078">
<rect width="512" height="512" fill="white" transform="translate(0.5 0.5)"/>
</clipPath>
</defs>
</svg>
