<svg width="321" height="513" viewBox="0 0 321 513" fill="none" xmlns="http://www.w3.org/2000/svg">
<g clip-path="url(#clip0_104_3080)">
<path d="M32.6001 29.8C34.0001 13.3 47.9001 0.5 64.5001 0.5H256.5C273.1 0.5 287 13.3 288.4 29.8L302.4 198.2C308.4 270.2 259.9 333.4 192.5 348.8V448.5H240.5C258.2 448.5 272.5 462.8 272.5 480.5C272.5 498.2 258.2 512.5 240.5 512.5H160.5H80.5001C62.8001 512.5 48.5001 498.2 48.5001 480.5C48.5001 462.8 62.8001 448.5 80.5001 448.5H128.5V348.9C61.1002 333.5 12.6001 270.3 18.6001 198.3L32.6001 29.9V29.8ZM88.6002 128.5H232.4L227.1 64.5H93.9002L88.6002 128.5Z" fill="#47535F"/>
</g>
<defs>
<clipPath id="clip0_104_3080">
<rect width="320" height="512" fill="white" transform="translate(0.5 0.5)"/>
</clipPath>
</defs>
</svg>
