<svg width="321" height="513" viewBox="0 0 321 513" fill="none" xmlns="http://www.w3.org/2000/svg">
<g clip-path="url(#clip0_104_3082)">
<path d="M64.4992 0.5C47.8992 0.5 33.9992 13.3 32.5992 29.8L18.5992 198.2C12.5992 270.2 61.0992 333.4 128.499 348.8V448.5H80.4992C62.7992 448.5 48.4992 462.8 48.4992 480.5C48.4992 498.2 62.7992 512.5 80.4992 512.5H160.499H240.499C258.199 512.5 272.499 498.2 272.499 480.5C272.499 462.8 258.199 448.5 240.499 448.5H192.499V348.9C259.899 333.5 308.399 270.3 302.399 198.3L288.399 29.9C286.999 13.3 273.099 0.5 256.499 0.5H64.4992ZM82.3992 203.6L93.8992 64.5H227.099L238.699 203.6C242.499 249.3 206.399 288.5 160.499 288.5C114.599 288.5 78.4992 249.3 82.3992 203.6Z" fill="#47535F"/>
</g>
<defs>
<clipPath id="clip0_104_3082">
<rect width="320" height="512" fill="white" transform="translate(0.5 0.5)"/>
</clipPath>
</defs>
</svg>
