<svg width="513" height="513" viewBox="0 0 513 513" fill="none" xmlns="http://www.w3.org/2000/svg">
<g clip-path="url(#clip0_104_3084)">
<path d="M62.9003 54.4001C57.3003 37.6001 39.1003 28.6001 22.4003 34.1001C5.7003 39.6001 -3.3997 57.9001 2.1003 74.6001L52.1003 224.5H32.5003C14.8003 224.5 0.500298 238.8 0.500298 256.5C0.500298 274.2 14.8003 288.5 32.5003 288.5H73.4003L130.1 458.6C134.6 472.1 147.5 481 161.7 480.5C175.9 480 188.1 470.1 191.5 456.3L233.5 288.5H279.5L321.5 456.3C324.9 470.1 337.1 480 351.3 480.5C365.5 481 378.4 472.1 382.9 458.6L439.6 288.5H480.5C498.2 288.5 512.5 274.2 512.5 256.5C512.5 238.8 498.2 224.5 480.5 224.5H460.9L510.9 74.6001C516.5 57.8001 507.4 39.7001 490.7 34.1001C474 28.5001 455.8 37.6001 450.2 54.3001L393.4 224.5H329.5L287.5 56.7001C284 42.5001 271.2 32.5001 256.5 32.5001C241.8 32.5001 229 42.5001 225.5 56.7001L183.5 224.5H119.5L62.9003 54.4001ZM140.9 288.5H167.5L156.1 334.1L140.9 288.5ZM249.5 224.5L256.5 196.4L263.5 224.5H249.5ZM345.5 288.5H372.1L356.9 334.1L345.5 288.5Z" fill="#47535F"/>
</g>
<defs>
<clipPath id="clip0_104_3084">
<rect width="512" height="512" fill="white" transform="translate(0.5 0.5)"/>
</clipPath>
</defs>
</svg>
