<svg width="513" height="513" viewBox="0 0 513 513" fill="none" xmlns="http://www.w3.org/2000/svg">
<g clip-path="url(#clip0_104_3086)">
<path d="M256.5 96.5C256.5 43.5 299.5 0.5 352.5 0.5H390.9C440.4 0.5 480.5 40.6 480.5 90.1V176.5V192.5V376.5C480.5 451.6 419.6 512.5 344.5 512.5C269.4 512.5 208.5 451.6 208.5 376.5V296.5C208.5 274.4 190.6 256.5 168.5 256.5C146.4 256.5 128.5 274.4 128.5 296.5V464.5C128.5 491 107 512.5 80.5 512.5C54 512.5 32.5 491 32.5 464.5V296.5C32.5 221.4 93.4 160.5 168.5 160.5C243.6 160.5 304.5 221.4 304.5 296.5V376.5C304.5 398.6 322.4 416.5 344.5 416.5C366.6 416.5 384.5 398.6 384.5 376.5V192.5H352.5C299.5 192.5 256.5 149.5 256.5 96.5ZM400.5 88.5C400.5 85.3483 399.879 82.2274 398.673 79.3156C397.467 76.4038 395.699 73.758 393.471 71.5294C391.242 69.3008 388.596 67.533 385.684 66.3269C382.773 65.1208 379.652 64.5 376.5 64.5C373.348 64.5 370.227 65.1208 367.316 66.3269C364.404 67.533 361.758 69.3008 359.529 71.5294C357.301 73.758 355.533 76.4038 354.327 79.3156C353.121 82.2274 352.5 85.3483 352.5 88.5C352.5 91.6517 353.121 94.7726 354.327 97.6844C355.533 100.596 357.301 103.242 359.529 105.471C361.758 107.699 364.404 109.467 367.316 110.673C370.227 111.879 373.348 112.5 376.5 112.5C379.652 112.5 382.773 111.879 385.684 110.673C388.596 109.467 391.242 107.699 393.471 105.471C395.699 103.242 397.467 100.596 398.673 97.6844C399.879 94.7726 400.5 91.6517 400.5 88.5Z" fill="#47535F"/>
</g>
<defs>
<clipPath id="clip0_104_3086">
<rect width="512" height="512" fill="white" transform="translate(0.5 0.5)"/>
</clipPath>
</defs>
</svg>
