<svg width="513" height="513" viewBox="0 0 513 513" fill="none" xmlns="http://www.w3.org/2000/svg">
<g clip-path="url(#clip0_104_3088)">
<path d="M352.5 320.5C440.9 320.5 512.5 248.9 512.5 160.5C512.5 145.2 510.3 130.4 506.3 116.3C503.2 105.5 489.9 103.1 482 111L405.2 187.8C402.2 190.8 398.1 192.5 393.9 192.5H336.5C327.7 192.5 320.5 185.3 320.5 176.5V119.1C320.5 114.9 322.2 110.8 325.2 107.8L402 31C409.9 23.1 407.4 9.8 396.7 6.7C382.6 2.7 367.8 0.5 352.5 0.5C264.1 0.5 192.5 72.1 192.5 160.5C192.5 179.6 195.9 198 202 215L20.4 396.6C7.7 409.3 0.5 426.6 0.5 444.6C0.5 482.1 30.9 512.5 68.4 512.5C86.4 512.5 103.7 505.3 116.4 492.6L298 311C315 317.2 333.4 320.5 352.5 320.5ZM80.5 408.5C86.8652 408.5 92.9697 411.029 97.4706 415.529C101.971 420.03 104.5 426.135 104.5 432.5C104.5 438.865 101.971 444.97 97.4706 449.471C92.9697 453.971 86.8652 456.5 80.5 456.5C74.1348 456.5 68.0303 453.971 63.5294 449.471C59.0286 444.97 56.5 438.865 56.5 432.5C56.5 426.135 59.0286 420.03 63.5294 415.529C68.0303 411.029 74.1348 408.5 80.5 408.5Z" fill="#47535F"/>
</g>
<defs>
<clipPath id="clip0_104_3088">
<rect width="512" height="512" fill="white" transform="translate(0.5 0.5)"/>
</clipPath>
</defs>
</svg>
