<svg width="385" height="513" viewBox="0 0 385 513" fill="none" xmlns="http://www.w3.org/2000/svg">
<g clip-path="url(#clip0_104_3090)">
<path d="M377.101 84.9997C388.401 71.3997 386.601 51.1997 373.001 39.8997C359.401 28.5997 339.201 30.3997 327.901 43.9997L192.501 206.5L57.1007 43.9997C45.8007 30.3997 25.6007 28.5997 12.0007 39.8997C-1.59929 51.1997 -3.39929 71.3997 7.90071 84.9997L150.801 256.5L7.90071 428C-3.39929 441.6 -1.59929 461.8 12.0007 473.1C25.6007 484.4 45.8007 482.6 57.1007 469L192.501 306.5L327.901 469C339.201 482.6 359.401 484.4 373.001 473.1C386.601 461.8 388.401 441.6 377.101 428L234.201 256.5L377.101 84.9997Z" fill="#47535F"/>
</g>
<defs>
<clipPath id="clip0_104_3090">
<rect width="384" height="512" fill="white" transform="translate(0.5 0.5)"/>
</clipPath>
</defs>
</svg>
