<svg width="513" height="513" viewBox="0 0 513 513" fill="none" xmlns="http://www.w3.org/2000/svg">
<g clip-path="url(#clip0_104_3096)">
<path d="M0.5 64.5C0.5 46.8 14.8 32.5 32.5 32.5H480.5C498.2 32.5 512.5 46.8 512.5 64.5C512.5 82.2 498.2 96.5 480.5 96.5V416.5C498.2 416.5 512.5 430.8 512.5 448.5C512.5 466.2 498.2 480.5 480.5 480.5H32.5C14.8 480.5 0.5 466.2 0.5 448.5C0.5 430.8 14.8 416.5 32.5 416.5V96.5C14.8 96.5 0.5 82.2 0.5 64.5ZM256.5 96.5C247.7 96.5 240.5 103.7 240.5 112.5V144.5H160.5C151.7 144.5 144.5 151.7 144.5 160.5C144.5 169.3 151.7 176.5 160.5 176.5H240.5V224.5H128.5C119.7 224.5 112.5 231.7 112.5 240.5C112.5 249.3 119.7 256.5 128.5 256.5H240.5V327.1L189.6 307.5C184.4 305.5 179 304.5 173.4 304.5H171.3C147.7 304.5 128.5 323.7 128.5 347.3C128.5 356.9 131.7 366.2 137.6 373.7L155.8 396.9C165.5 409.3 180.4 416.5 196.1 416.5H316.9C332.6 416.5 347.5 409.3 357.2 396.9L375.4 373.7C381.3 366.2 384.5 356.9 384.5 347.3C384.5 323.7 365.3 304.5 341.7 304.5H339.5C334 304.5 328.5 305.5 323.3 307.5L272.5 327.1V256.5H384.5C393.3 256.5 400.5 249.3 400.5 240.5C400.5 231.7 393.3 224.5 384.5 224.5H272.5V176.5H352.5C361.3 176.5 368.5 169.3 368.5 160.5C368.5 151.7 361.3 144.5 352.5 144.5H272.5V112.5C272.5 103.7 265.3 96.5 256.5 96.5ZM208.5 352.5C212.743 352.5 216.813 354.186 219.814 357.186C222.814 360.187 224.5 364.257 224.5 368.5C224.5 372.743 222.814 376.813 219.814 379.814C216.813 382.814 212.743 384.5 208.5 384.5C204.257 384.5 200.187 382.814 197.186 379.814C194.186 376.813 192.5 372.743 192.5 368.5C192.5 364.257 194.186 360.187 197.186 357.186C200.187 354.186 204.257 352.5 208.5 352.5ZM288.5 368.5C288.5 364.257 290.186 360.187 293.186 357.186C296.187 354.186 300.257 352.5 304.5 352.5C308.743 352.5 312.813 354.186 315.814 357.186C318.814 360.187 320.5 364.257 320.5 368.5C320.5 372.743 318.814 376.813 315.814 379.814C312.813 382.814 308.743 384.5 304.5 384.5C300.257 384.5 296.187 382.814 293.186 379.814C290.186 376.813 288.5 372.743 288.5 368.5Z" fill="#47535F"/>
</g>
<defs>
<clipPath id="clip0_104_3096">
<rect width="512" height="512" fill="white" transform="translate(0.5 0.5)"/>
</clipPath>
</defs>
</svg>
