<svg width="385" height="513" viewBox="0 0 385 513" fill="none" xmlns="http://www.w3.org/2000/svg">
<path d="M343.101 151.1C355.601 138.6 355.601 118.3 343.101 105.8C330.601 93.2998 310.301 93.2998 297.801 105.8L192.501 211.2L87.1008 105.9C74.6008 93.3998 54.3008 93.3998 41.8008 105.9C29.3008 118.4 29.3008 138.7 41.8008 151.2L147.201 256.5L41.9008 361.9C29.4008 374.4 29.4008 394.7 41.9008 407.2C54.4008 419.7 74.7008 419.7 87.2008 407.2L192.501 301.8L297.901 407.1C310.401 419.6 330.701 419.6 343.201 407.1C355.701 394.6 355.701 374.3 343.201 361.8L237.801 256.5L343.101 151.1Z" fill="#47535F"/>
</svg>
