<svg width="641" height="513" viewBox="0 0 641 513" fill="none" xmlns="http://www.w3.org/2000/svg">
<g clip-path="url(#clip0_104_3094)">
<path d="M32.4992 32.5C14.7992 32.5 0.499218 46.8 0.499218 64.5C0.499218 82.2 14.7992 96.5 32.4992 96.5H608.499C626.199 96.5 640.499 82.2 640.499 64.5C640.499 46.8 626.199 32.5 608.499 32.5H32.4992ZM32.4992 416.5C14.7992 416.5 0.499218 430.8 0.499218 448.5C0.499218 466.2 14.7992 480.5 32.4992 480.5H608.499C626.199 480.5 640.499 466.2 640.499 448.5C640.499 430.8 626.199 416.5 608.499 416.5H32.4992ZM7.49922 167.5C-1.90078 176.9 -1.90078 192.1 7.49922 201.4L62.4992 256.4L7.49922 311.5C-1.90078 320.9 -1.90078 336.1 7.49922 345.4C16.8992 354.7 32.0992 354.8 41.3992 345.4L96.3992 290.4L151.399 345.4C160.799 354.8 175.999 354.8 185.299 345.4C194.599 336 194.699 320.8 185.299 311.5L130.299 256.5L185.299 201.5C194.699 192.1 194.699 176.9 185.299 167.6C175.899 158.3 160.699 158.2 151.399 167.6L96.3992 222.6L41.4992 167.5C32.0992 158.1 16.8992 158.1 7.59922 167.5H7.49922ZM265.499 167.5C256.099 158.1 240.899 158.1 231.599 167.5C222.299 176.9 222.199 192.1 231.599 201.4L286.599 256.4L231.599 311.4C222.199 320.8 222.199 336 231.599 345.3C240.999 354.6 256.199 354.7 265.499 345.3L320.499 290.3L375.499 345.3C384.899 354.7 400.099 354.7 409.399 345.3C418.699 335.9 418.799 320.7 409.399 311.4L354.399 256.4L409.399 201.4C418.799 192 418.799 176.8 409.399 167.5C399.999 158.2 384.799 158.1 375.499 167.5L320.499 222.5L265.499 167.5ZM455.499 167.5C446.099 176.9 446.099 192.1 455.499 201.4L510.499 256.4L455.499 311.4C446.099 320.8 446.099 336 455.499 345.3C464.899 354.6 480.099 354.7 489.399 345.3L544.399 290.3L599.399 345.3C608.799 354.7 623.999 354.7 633.299 345.3C642.599 335.9 642.699 320.7 633.299 311.4L578.299 256.4L633.299 201.4C642.699 192 642.699 176.8 633.299 167.5C623.899 158.2 608.699 158.1 599.399 167.5L544.399 222.5L489.399 167.5C479.999 158.1 464.799 158.1 455.499 167.5Z" fill="#47535F"/>
</g>
<defs>
<clipPath id="clip0_104_3094">
<rect width="640" height="512" fill="white" transform="translate(0.5 0.5)"/>
</clipPath>
</defs>
</svg>
