<svg width="321" height="513" viewBox="0 0 321 513" fill="none" xmlns="http://www.w3.org/2000/svg">
<g clip-path="url(#clip0_104_3100)">
<path d="M59.1006 46.7C49.3006 32 29.5006 28.1 14.8006 37.9C0.100576 47.7 -3.89942 67.5 5.90058 82.2L100.701 224.5H48.5006C30.8006 224.5 16.5006 238.8 16.5006 256.5C16.5006 274.2 30.8006 288.5 48.5006 288.5H128.501V320.5H48.5006C30.8006 320.5 16.5006 334.8 16.5006 352.5C16.5006 370.2 30.8006 384.5 48.5006 384.5H128.501V448.5C128.501 466.2 142.801 480.5 160.501 480.5C178.201 480.5 192.501 466.2 192.501 448.5V384.5H272.501C290.201 384.5 304.501 370.2 304.501 352.5C304.501 334.8 290.201 320.5 272.501 320.5H192.501V288.5H272.501C290.201 288.5 304.501 274.2 304.501 256.5C304.501 238.8 290.201 224.5 272.501 224.5H220.301L315.101 82.2C324.901 67.5 320.901 47.6 306.201 37.8C291.501 28 271.601 32 261.801 46.7L160.501 198.8L59.1006 46.7Z" fill="#47535F"/>
</g>
<defs>
<clipPath id="clip0_104_3100">
<rect width="320" height="512" fill="white" transform="translate(0.5 0.5)"/>
</clipPath>
</defs>
</svg>
