<svg width="513" height="513" viewBox="0 0 513 513" fill="none" xmlns="http://www.w3.org/2000/svg">
<g clip-path="url(#clip0_104_3102)">
<path d="M256.5 64.5C309.5 64.5 352.5 107.5 352.5 160.5C352.5 213.5 309.5 256.5 256.5 256.5C203.5 256.5 160.5 299.5 160.5 352.5C160.5 405.5 203.5 448.5 256.5 448.5C150.5 448.5 64.5 362.5 64.5 256.5C64.5 150.5 150.5 64.5 256.5 64.5ZM256.5 512.5C324.395 512.5 389.51 485.529 437.519 437.519C485.529 389.51 512.5 324.395 512.5 256.5C512.5 188.605 485.529 123.49 437.519 75.4807C389.51 27.4714 324.395 0.5 256.5 0.5C188.605 0.5 123.49 27.4714 75.4807 75.4807C27.4714 123.49 0.5 188.605 0.5 256.5C0.5 324.395 27.4714 389.51 75.4807 437.519C123.49 485.529 188.605 512.5 256.5 512.5ZM288.5 160.5C288.5 152.013 285.129 143.874 279.127 137.873C273.126 131.871 264.987 128.5 256.5 128.5C248.013 128.5 239.874 131.871 233.873 137.873C227.871 143.874 224.5 152.013 224.5 160.5C224.5 168.987 227.871 177.126 233.873 183.127C239.874 189.129 248.013 192.5 256.5 192.5C264.987 192.5 273.126 189.129 279.127 183.127C285.129 177.126 288.5 168.987 288.5 160.5ZM224.5 352.5C224.5 344.013 227.871 335.874 233.873 329.873C239.874 323.871 248.013 320.5 256.5 320.5C264.987 320.5 273.126 323.871 279.127 329.873C285.129 335.874 288.5 344.013 288.5 352.5C288.5 360.987 285.129 369.126 279.127 375.127C273.126 381.129 264.987 384.5 256.5 384.5C248.013 384.5 239.874 381.129 233.873 375.127C227.871 369.126 224.5 360.987 224.5 352.5Z" fill="#47535F"/>
</g>
<defs>
<clipPath id="clip0_104_3102">
<rect width="512" height="512" fill="white" transform="translate(0.5 0.5)"/>
</clipPath>
</defs>
</svg>
