<svg width="385" height="513" viewBox="0 0 385 513" fill="none" xmlns="http://www.w3.org/2000/svg">
<g clip-path="url(#clip0_104_3104)">
<path d="M0.499915 64.5C0.499915 46.8 14.7999 32.5 32.4999 32.5H352.5C364.9 32.5 376.2 39.7 381.5 50.9C386.8 62.1 385.1 75.4 377.1 85L100.8 416.5H352.5C370.2 416.5 384.5 430.8 384.5 448.5C384.5 466.2 370.2 480.5 352.5 480.5H32.4999C20.0999 480.5 8.79991 473.3 3.49991 462.1C-1.80009 450.9 -0.100085 437.6 7.89991 428L284.2 96.5H32.4999C14.7999 96.5 0.499915 82.2 0.499915 64.5Z" fill="#47535F"/>
</g>
<defs>
<clipPath id="clip0_104_3104">
<rect width="384" height="512" fill="white" transform="translate(0.5 0.5)"/>
</clipPath>
</defs>
</svg>
